<?xml version="1.0" encoding="UTF-8" standalone="no"?>
<svg
   xmlns:dc="http://purl.org/dc/elements/1.1/"
   xmlns:cc="http://creativecommons.org/ns#"
   xmlns:rdf="http://www.w3.org/1999/02/22-rdf-syntax-ns#"
   xmlns:svg="http://www.w3.org/2000/svg"
   xmlns="http://www.w3.org/2000/svg"
   xmlns:sodipodi="http://sodipodi.sourceforge.net/DTD/sodipodi-0.dtd"
   xmlns:inkscape="http://www.inkscape.org/namespaces/inkscape"
   version="1.1"
   width="4.1200933cm"
   height="4.1200681cm"
   viewBox="0 0 16220.84 16220.741"
   id="svg898"
   sodipodi:docname="universal_power_board-F_Paste.svg"
   inkscape:version="1.0.2 (e86c870879, 2021-01-15, custom)">
  <metadata
     id="metadata904">
    <rdf:RDF>
      <cc:Work
         rdf:about="">
        <dc:format>image/svg+xml</dc:format>
        <dc:type
           rdf:resource="http://purl.org/dc/dcmitype/StillImage" />
        <dc:title>SVG Picture created as universal_power_board-F_Paste.svg date 2021/06/20 22:42:53 </dc:title>
      </cc:Work>
    </rdf:RDF>
  </metadata>
  <defs
     id="defs902" />
  <sodipodi:namedview
     pagecolor="#ffffff"
     bordercolor="#666666"
     borderopacity="1"
     objecttolerance="10"
     gridtolerance="10"
     guidetolerance="10"
     inkscape:pageopacity="0"
     inkscape:pageshadow="2"
     inkscape:window-width="1920"
     inkscape:window-height="1017"
     id="namedview900"
     showgrid="false"
     fit-margin-top="0"
     fit-margin-left="0"
     fit-margin-right="0"
     fit-margin-bottom="0"
     inkscape:zoom="4.2835835"
     inkscape:cx="50.243483"
     inkscape:cy="69.036996"
     inkscape:window-x="1912"
     inkscape:window-y="-8"
     inkscape:window-maximized="1"
     inkscape:current-layer="svg898" />
  <title
     id="title2">SVG Picture created as universal_power_board-F_Paste.svg date 2021/06/20 22:42:53 </title>
  <desc
     id="desc4">Picture generated by PCBNEW </desc>
  <g
     style="fill:#840000;fill-opacity:1;stroke:#840000;stroke-width:0;stroke-linecap:round;stroke-linejoin:round;stroke-opacity:1"
     id="g720"
     transform="translate(-36749.63,-21068.63)">
    <path
       style="fill:#840000;fill-opacity:1;fill-rule:evenodd;stroke:#840000;stroke-width:0;stroke-linecap:round;stroke-linejoin:round;stroke-opacity:1"
       d="m 46446.3,27529.8 v 850 h -500 v -850 z"
       id="path686" />
    <path
       style="fill:#840000;fill-opacity:1;fill-rule:evenodd;stroke:#840000;stroke-width:0;stroke-linecap:round;stroke-linejoin:round;stroke-opacity:1"
       d="m 44974.7,28379.8 v -850 h 500 v 850 z"
       id="path688" />
    <path
       style="fill:#840000;fill-opacity:1;fill-rule:evenodd;stroke:#840000;stroke-width:0;stroke-linecap:round;stroke-linejoin:round;stroke-opacity:1"
       d="m 47873.4,28598.4 h -850 v -500 h 850 z"
       id="path690" />
    <path
       style="fill:#840000;fill-opacity:1;fill-rule:evenodd;stroke:#840000;stroke-width:0;stroke-linecap:round;stroke-linejoin:round;stroke-opacity:1"
       d="m 44643.3,27529.8 v 850 h -500 v -850 z"
       id="path692" />
    <path
       style="fill:#840000;fill-opacity:1;fill-rule:evenodd;stroke:#840000;stroke-width:0;stroke-linecap:round;stroke-linejoin:round;stroke-opacity:1"
       d="m 43491.4,28598.4 h -850 v -500 h 850 z"
       id="path694" />
    <path
       style="fill:#840000;fill-opacity:1;fill-rule:evenodd;stroke:#840000;stroke-width:0;stroke-linecap:round;stroke-linejoin:round;stroke-opacity:1"
       d="m 46409.5,32763.4 h -500 v -1046.9 h 500 z"
       id="path696" />
    <path
       style="fill:#840000;fill-opacity:1;fill-rule:evenodd;stroke:#840000;stroke-width:0;stroke-linecap:round;stroke-linejoin:round;stroke-opacity:1"
       d="m 47873.4,31298.4 h -1046.8 v -500 h 1046.8 z"
       id="path698" />
    <path
       style="fill:#840000;fill-opacity:1;fill-rule:evenodd;stroke:#840000;stroke-width:0;stroke-linecap:round;stroke-linejoin:round;stroke-opacity:1"
       d="m 43688.2,31298.4 h -1046.8 v -500 h 1046.8 z"
       id="path700" />
    <path
       style="fill:#840000;fill-opacity:1;fill-rule:evenodd;stroke:#840000;stroke-width:0;stroke-linecap:round;stroke-linejoin:round;stroke-opacity:1"
       d="m 43688.2,32200 h -1046.8 v -500 h 1046.8 z"
       id="path702" />
    <path
       style="fill:#840000;fill-opacity:1;fill-rule:evenodd;stroke:#840000;stroke-width:0;stroke-linecap:round;stroke-linejoin:round;stroke-opacity:1"
       d="m 44610.3,32763.4 h -500 v -1046.9 h 500 z"
       id="path704" />
    <path
       style="fill:#840000;fill-opacity:1;fill-rule:evenodd;stroke:#840000;stroke-width:0;stroke-linecap:round;stroke-linejoin:round;stroke-opacity:1"
       d="m 45511.9,32763.4 h -500 v -1046.9 h 500 z"
       id="path706" />
    <path
       style="fill:#840000;fill-opacity:1;fill-rule:evenodd;stroke:#840000;stroke-width:0;stroke-linecap:round;stroke-linejoin:round;stroke-opacity:1"
       d="m 47873.4,32200 h -1046.8 v -500 h 1046.8 z"
       id="path708" />
    <path
       style="fill:#840000;fill-opacity:1;fill-rule:evenodd;stroke:#840000;stroke-width:0;stroke-linecap:round;stroke-linejoin:round;stroke-opacity:1"
       d="m 47873.4,30396.9 h -1046.8 v -500 h 1046.8 z"
       id="path710" />
    <path
       style="fill:#840000;fill-opacity:1;fill-rule:evenodd;stroke:#840000;stroke-width:0;stroke-linecap:round;stroke-linejoin:round;stroke-opacity:1"
       d="m 46779.6,29646.9 v -1700.8 h 681.1 v 1700.8 z"
       id="path712" />
    <path
       style="fill:#840000;fill-opacity:1;fill-rule:evenodd;stroke:#840000;stroke-width:0;stroke-linecap:round;stroke-linejoin:round;stroke-opacity:1"
       d="M 46443,28747.2 H 44978.4 V 27948 H 46443 Z"
       id="path714" />
    <path
       style="fill:#840000;fill-opacity:1;fill-rule:evenodd;stroke:#840000;stroke-width:0;stroke-linecap:round;stroke-linejoin:round;stroke-opacity:1"
       d="M 44639.8,28747.2 H 43057.1 V 27948 h 1582.7 z"
       id="path716" />
    <path
       style="fill:#840000;fill-opacity:1;fill-rule:evenodd;stroke:#840000;stroke-width:0;stroke-linecap:round;stroke-linejoin:round;stroke-opacity:1"
       d="m 43688.2,30396.9 h -1046.8 v -500 h 1046.8 z"
       id="path718" />
  </g>
  <g
     style="fill:#840000;fill-opacity:1;stroke:#840000;stroke-width:0;stroke-linecap:round;stroke-linejoin:round;stroke-opacity:1"
     id="g728"
     transform="translate(-36749.63,-21068.63)">
    <path
       style="fill:#840000;fill-opacity:1;fill-rule:evenodd;stroke:#840000;stroke-width:0;stroke-linecap:round;stroke-linejoin:round;stroke-opacity:1"
       d="m 43707.6,26413.4 9.1,1.4 8.9,2.2 8.6,3.1 8.3,3.9 7.9,4.8 7.3,5.4 6.8,6.2 6.2,6.8 5.5,7.3 4.7,7.9 3.9,8.3 3.1,8.7 2.2,8.9 1.4,9 0.4,9.2 v 187 l -0.4,9.2 -1.4,9 -2.2,8.9 -3.1,8.7 -3.9,8.3 -4.7,7.9 -5.5,7.3 -6.2,6.8 -6.8,6.2 -7.3,5.4 -7.9,4.8 -8.3,3.9 -8.6,3.1 -8.9,2.2 -9.1,1.4 -9.2,0.4 h -196.8 l -9.2,-0.4 -9.1,-1.4 -8.9,-2.2 -8.6,-3.1 -8.3,-3.9 -7.9,-4.8 -7.3,-5.4 -6.8,-6.2 -6.2,-6.8 -5.5,-7.3 -4.7,-7.9 -3.9,-8.3 -3.1,-8.7 -2.2,-8.9 -1.4,-9 -0.4,-9.2 v -187 l 0.4,-9.2 1.4,-9 2.2,-8.9 3.1,-8.7 3.9,-8.3 4.7,-7.9 5.5,-7.3 6.2,-6.8 6.8,-6.2 7.3,-5.4 7.9,-4.8 8.3,-3.9 8.6,-3.1 8.9,-2.2 9.1,-1.4 9.2,-0.4 h 196.8 z"
       id="path724" />
    <path
       style="fill:#840000;fill-opacity:1;fill-rule:evenodd;stroke:#840000;stroke-width:0;stroke-linecap:round;stroke-linejoin:round;stroke-opacity:1"
       d="m 44426.1,26413.4 9.1,1.4 8.9,2.2 8.6,3.1 8.3,3.9 7.9,4.8 7.3,5.4 6.8,6.2 6.2,6.8 5.5,7.3 4.7,7.9 3.9,8.3 3.1,8.7 2.2,8.9 1.4,9 0.4,9.2 v 187 l -0.4,9.2 -1.4,9 -2.2,8.9 -3.1,8.7 -3.9,8.3 -4.7,7.9 -5.5,7.3 -6.2,6.8 -6.8,6.2 -7.3,5.4 -7.9,4.8 -8.3,3.9 -8.6,3.1 -8.9,2.2 -9.1,1.4 -9.2,0.4 h -196.8 l -9.2,-0.4 -9.1,-1.4 -8.9,-2.2 -8.6,-3.1 -8.3,-3.9 -7.9,-4.8 -7.3,-5.4 -6.8,-6.2 -6.2,-6.8 -5.5,-7.3 -4.7,-7.9 -3.9,-8.3 -3.1,-8.7 -2.2,-8.9 -1.4,-9 -0.4,-9.2 v -187 l 0.4,-9.2 1.4,-9 2.2,-8.9 3.1,-8.7 3.9,-8.3 4.7,-7.9 5.5,-7.3 6.2,-6.8 6.8,-6.2 7.3,-5.4 7.9,-4.8 8.3,-3.9 8.6,-3.1 8.9,-2.2 9.1,-1.4 9.2,-0.4 h 196.8 z"
       id="path726" />
  </g>
  <g
     style="fill:#840000;fill-opacity:1;stroke:#840000;stroke-width:0;stroke-linecap:round;stroke-linejoin:round;stroke-opacity:1"
     id="g736"
     transform="translate(-36749.63,-21068.63)">
    <path
       style="fill:#840000;fill-opacity:1;fill-rule:evenodd;stroke:#840000;stroke-width:0;stroke-linecap:round;stroke-linejoin:round;stroke-opacity:1"
       d="m 46739.1,33413.4 9.1,1.4 8.9,2.2 8.6,3.1 8.3,3.9 7.9,4.8 7.3,5.4 6.8,6.2 6.2,6.8 5.5,7.3 4.7,7.9 3.9,8.3 3.1,8.7 2.2,8.9 1.4,9 0.4,9.2 v 187 l -0.4,9.2 -1.4,9 -2.2,8.9 -3.1,8.7 -3.9,8.3 -4.7,7.9 -5.5,7.3 -6.2,6.8 -6.8,6.2 -7.3,5.4 -7.9,4.8 -8.3,3.9 -8.6,3.1 -8.9,2.2 -9.1,1.4 -9.2,0.4 h -196.8 l -9.2,-0.4 -9.1,-1.4 -8.9,-2.2 -8.6,-3.1 -8.3,-3.9 -7.9,-4.8 -7.3,-5.4 -6.8,-6.2 -6.2,-6.8 -5.5,-7.3 -4.7,-7.9 -3.9,-8.3 -3.1,-8.7 -2.2,-8.9 -1.4,-9 -0.4,-9.2 v -187 l 0.4,-9.2 1.4,-9 2.2,-8.9 3.1,-8.7 3.9,-8.3 4.7,-7.9 5.5,-7.3 6.2,-6.8 6.8,-6.2 7.3,-5.4 7.9,-4.8 8.3,-3.9 8.6,-3.1 8.9,-2.2 9.1,-1.4 9.2,-0.4 h 196.8 z"
       id="path732" />
    <path
       style="fill:#840000;fill-opacity:1;fill-rule:evenodd;stroke:#840000;stroke-width:0;stroke-linecap:round;stroke-linejoin:round;stroke-opacity:1"
       d="m 47457.6,33413.4 9.1,1.4 8.9,2.2 8.6,3.1 8.3,3.9 7.9,4.8 7.3,5.4 6.8,6.2 6.2,6.8 5.5,7.3 4.7,7.9 3.9,8.3 3.1,8.7 2.2,8.9 1.4,9 0.4,9.2 v 187 l -0.4,9.2 -1.4,9 -2.2,8.9 -3.1,8.7 -3.9,8.3 -4.7,7.9 -5.5,7.3 -6.2,6.8 -6.8,6.2 -7.3,5.4 -7.9,4.8 -8.3,3.9 -8.6,3.1 -8.9,2.2 -9.1,1.4 -9.2,0.4 h -196.8 l -9.2,-0.4 -9.1,-1.4 -8.9,-2.2 -8.6,-3.1 -8.3,-3.9 -7.9,-4.8 -7.3,-5.4 -6.8,-6.2 -6.2,-6.8 -5.5,-7.3 -4.7,-7.9 -3.9,-8.3 -3.1,-8.7 -2.2,-8.9 -1.4,-9 -0.4,-9.2 v -187 l 0.4,-9.2 1.4,-9 2.2,-8.9 3.1,-8.7 3.9,-8.3 4.7,-7.9 5.5,-7.3 6.2,-6.8 6.8,-6.2 7.3,-5.4 7.9,-4.8 8.3,-3.9 8.6,-3.1 8.9,-2.2 9.1,-1.4 9.2,-0.4 h 196.8 z"
       id="path734" />
  </g>
  <g
     style="fill:#840000;fill-opacity:1;stroke:#840000;stroke-width:0;stroke-linecap:round;stroke-linejoin:round;stroke-opacity:1"
     id="g744"
     transform="translate(-36749.63,-21068.63)">
    <path
       style="fill:#840000;fill-opacity:1;fill-rule:evenodd;stroke:#840000;stroke-width:0;stroke-linecap:round;stroke-linejoin:round;stroke-opacity:1"
       d="m 47907.6,26413.4 9.1,1.4 8.9,2.2 8.6,3.1 8.3,3.9 7.9,4.8 7.3,5.4 6.8,6.2 6.2,6.8 5.5,7.3 4.7,7.9 3.9,8.3 3.1,8.7 2.2,8.9 1.4,9 0.4,9.2 v 187 l -0.4,9.2 -1.4,9 -2.2,8.9 -3.1,8.7 -3.9,8.3 -4.7,7.9 -5.5,7.3 -6.2,6.8 -6.8,6.2 -7.3,5.4 -7.9,4.8 -8.3,3.9 -8.6,3.1 -8.9,2.2 -9.1,1.4 -9.2,0.4 h -196.8 l -9.2,-0.4 -9.1,-1.4 -8.9,-2.2 -8.6,-3.1 -8.3,-3.9 -7.9,-4.8 -7.3,-5.4 -6.8,-6.2 -6.2,-6.8 -5.5,-7.3 -4.7,-7.9 -3.9,-8.3 -3.1,-8.7 -2.2,-8.9 -1.4,-9 -0.4,-9.2 v -187 l 0.4,-9.2 1.4,-9 2.2,-8.9 3.1,-8.7 3.9,-8.3 4.7,-7.9 5.5,-7.3 6.2,-6.8 6.8,-6.2 7.3,-5.4 7.9,-4.8 8.3,-3.9 8.6,-3.1 8.9,-2.2 9.1,-1.4 9.2,-0.4 h 196.8 z"
       id="path740" />
    <path
       style="fill:#840000;fill-opacity:1;fill-rule:evenodd;stroke:#840000;stroke-width:0;stroke-linecap:round;stroke-linejoin:round;stroke-opacity:1"
       d="m 47189.1,26413.4 9.1,1.4 8.9,2.2 8.6,3.1 8.3,3.9 7.9,4.8 7.3,5.4 6.8,6.2 6.2,6.8 5.5,7.3 4.7,7.9 3.9,8.3 3.1,8.7 2.2,8.9 1.4,9 0.4,9.2 v 187 l -0.4,9.2 -1.4,9 -2.2,8.9 -3.1,8.7 -3.9,8.3 -4.7,7.9 -5.5,7.3 -6.2,6.8 -6.8,6.2 -7.3,5.4 -7.9,4.8 -8.3,3.9 -8.6,3.1 -8.9,2.2 -9.1,1.4 -9.2,0.4 h -196.8 l -9.2,-0.4 -9.1,-1.4 -8.9,-2.2 -8.6,-3.1 -8.3,-3.9 -7.9,-4.8 -7.3,-5.4 -6.8,-6.2 -6.2,-6.8 -5.5,-7.3 -4.7,-7.9 -3.9,-8.3 -3.1,-8.7 -2.2,-8.9 -1.4,-9 -0.4,-9.2 v -187 l 0.4,-9.2 1.4,-9 2.2,-8.9 3.1,-8.7 3.9,-8.3 4.7,-7.9 5.5,-7.3 6.2,-6.8 6.8,-6.2 7.3,-5.4 7.9,-4.8 8.3,-3.9 8.6,-3.1 8.9,-2.2 9.1,-1.4 9.2,-0.4 h 196.8 z"
       id="path742" />
  </g>
  <g
     style="fill:#840000;fill-opacity:1;stroke:#840000;stroke-width:0;stroke-linecap:round;stroke-linejoin:round;stroke-opacity:1"
     id="g752"
     transform="translate(-36749.63,-21068.63)">
    <path
       style="fill:#840000;fill-opacity:1;fill-rule:evenodd;stroke:#840000;stroke-width:0;stroke-linecap:round;stroke-linejoin:round;stroke-opacity:1"
       d="m 41607.6,30813.4 9.1,1.4 8.9,2.2 8.6,3.1 8.3,3.9 7.9,4.8 7.3,5.4 6.8,6.2 6.2,6.8 5.5,7.3 4.7,7.9 3.9,8.3 3.1,8.7 2.2,8.9 1.4,9 0.4,9.2 v 187 l -0.4,9.2 -1.4,9 -2.2,8.9 -3.1,8.7 -3.9,8.3 -4.7,7.9 -5.5,7.3 -6.2,6.8 -6.8,6.2 -7.3,5.4 -7.9,4.8 -8.3,3.9 -8.6,3.1 -8.9,2.2 -9.1,1.4 -9.2,0.4 h -196.8 l -9.2,-0.4 -9.1,-1.4 -8.9,-2.2 -8.6,-3.1 -8.3,-3.9 -7.9,-4.8 -7.3,-5.4 -6.8,-6.2 -6.2,-6.8 -5.5,-7.3 -4.7,-7.9 -3.9,-8.3 -3.1,-8.7 -2.2,-8.9 -1.4,-9 -0.4,-9.2 v -187 l 0.4,-9.2 1.4,-9 2.2,-8.9 3.1,-8.7 3.9,-8.3 4.7,-7.9 5.5,-7.3 6.2,-6.8 6.8,-6.2 7.3,-5.4 7.9,-4.8 8.3,-3.9 8.6,-3.1 8.9,-2.2 9.1,-1.4 9.2,-0.4 h 196.8 z"
       id="path748" />
    <path
       style="fill:#840000;fill-opacity:1;fill-rule:evenodd;stroke:#840000;stroke-width:0;stroke-linecap:round;stroke-linejoin:round;stroke-opacity:1"
       d="m 40889.1,30813.4 9.1,1.4 8.9,2.2 8.6,3.1 8.3,3.9 7.9,4.8 7.3,5.4 6.8,6.2 6.2,6.8 5.5,7.3 4.7,7.9 3.9,8.3 3.1,8.7 2.2,8.9 1.4,9 0.4,9.2 v 187 l -0.4,9.2 -1.4,9 -2.2,8.9 -3.1,8.7 -3.9,8.3 -4.7,7.9 -5.5,7.3 -6.2,6.8 -6.8,6.2 -7.3,5.4 -7.9,4.8 -8.3,3.9 -8.6,3.1 -8.9,2.2 -9.1,1.4 -9.2,0.4 h -196.8 l -9.2,-0.4 -9.1,-1.4 -8.9,-2.2 -8.6,-3.1 -8.3,-3.9 -7.9,-4.8 -7.3,-5.4 -6.8,-6.2 -6.2,-6.8 -5.5,-7.3 -4.7,-7.9 -3.9,-8.3 -3.1,-8.7 -2.2,-8.9 -1.4,-9 -0.4,-9.2 v -187 l 0.4,-9.2 1.4,-9 2.2,-8.9 3.1,-8.7 3.9,-8.3 4.7,-7.9 5.5,-7.3 6.2,-6.8 6.8,-6.2 7.3,-5.4 7.9,-4.8 8.3,-3.9 8.6,-3.1 8.9,-2.2 9.1,-1.4 9.2,-0.4 h 196.8 z"
       id="path750" />
  </g>
  <g
     style="fill:#840000;fill-opacity:1;stroke:#840000;stroke-width:0;stroke-linecap:round;stroke-linejoin:round;stroke-opacity:1"
     id="g760"
     transform="translate(-36749.63,-21068.63)">
    <path
       style="fill:#840000;fill-opacity:1;fill-rule:evenodd;stroke:#840000;stroke-width:0;stroke-linecap:round;stroke-linejoin:round;stroke-opacity:1"
       d="m 41702.7,29058.5 9,1.4 8.9,2.2 8.7,3.1 8.3,3.9 7.9,4.7 7.3,5.5 6.8,6.2 6.2,6.8 5.4,7.3 4.8,7.9 3.9,8.3 3.1,8.6 2.2,8.9 1.4,9.1 0.4,9.2 v 196.8 l -0.4,9.2 -1.4,9.1 -2.2,8.9 -3.1,8.6 -3.9,8.3 -4.8,7.9 -5.4,7.3 -6.2,6.8 -6.8,6.2 -7.3,5.5 -7.9,4.7 -8.3,3.9 -8.7,3.1 -8.9,2.2 -9,1.4 -9.2,0.4 h -187 l -9.2,-0.4 -9,-1.4 -8.9,-2.2 -8.7,-3.1 -8.3,-3.9 -7.9,-4.7 -7.3,-5.5 -6.8,-6.2 -6.2,-6.8 -5.4,-7.3 -4.8,-7.9 -3.9,-8.3 -3.1,-8.6 -2.2,-8.9 -1.4,-9.1 -0.4,-9.2 v -196.8 l 0.4,-9.2 1.4,-9.1 2.2,-8.9 3.1,-8.6 3.9,-8.3 4.8,-7.9 5.4,-7.3 6.2,-6.8 6.8,-6.2 7.3,-5.5 7.9,-4.7 8.3,-3.9 8.7,-3.1 8.9,-2.2 9,-1.4 9.2,-0.4 h 187 z"
       id="path756" />
    <path
       style="fill:#840000;fill-opacity:1;fill-rule:evenodd;stroke:#840000;stroke-width:0;stroke-linecap:round;stroke-linejoin:round;stroke-opacity:1"
       d="m 41702.7,29777 9,1.4 8.9,2.2 8.7,3.1 8.3,3.9 7.9,4.7 7.3,5.5 6.8,6.2 6.2,6.8 5.4,7.3 4.8,7.9 3.9,8.3 3.1,8.6 2.2,8.9 1.4,9.1 0.4,9.2 v 196.8 l -0.4,9.2 -1.4,9.1 -2.2,8.9 -3.1,8.6 -3.9,8.3 -4.8,7.9 -5.4,7.3 -6.2,6.8 -6.8,6.2 -7.3,5.5 -7.9,4.7 -8.3,3.9 -8.7,3.1 -8.9,2.2 -9,1.4 -9.2,0.4 h -187 l -9.2,-0.4 -9,-1.4 -8.9,-2.2 -8.7,-3.1 -8.3,-3.9 -7.9,-4.7 -7.3,-5.5 -6.8,-6.2 -6.2,-6.8 -5.4,-7.3 -4.8,-7.9 -3.9,-8.3 -3.1,-8.6 -2.2,-8.9 -1.4,-9.1 -0.4,-9.2 v -196.8 l 0.4,-9.2 1.4,-9.1 2.2,-8.9 3.1,-8.6 3.9,-8.3 4.8,-7.9 5.4,-7.3 6.2,-6.8 6.8,-6.2 7.3,-5.5 7.9,-4.7 8.3,-3.9 8.7,-3.1 8.9,-2.2 9,-1.4 9.2,-0.4 h 187 z"
       id="path758" />
  </g>
  <g
     style="fill:#840000;fill-opacity:1;stroke:#840000;stroke-width:0;stroke-linecap:round;stroke-linejoin:round;stroke-opacity:1"
     id="g798"
     transform="translate(-36749.63,-21068.63)">
    <path
       style="fill:#840000;fill-opacity:1;fill-rule:evenodd;stroke:#840000;stroke-width:0;stroke-linecap:round;stroke-linejoin:round;stroke-opacity:1"
       d="m 46161.3,26413.4 9.1,1.4 8.9,2.2 8.6,3.1 8.3,3.9 7.9,4.8 7.4,5.4 6.8,6.2 6.1,6.8 5.5,7.3 4.7,7.9 4,8.3 3,8.7 2.3,8.9 1.3,9 0.5,9.2 v 187 l -0.5,9.2 -1.3,9 -2.3,8.9 -3,8.7 -4,8.3 -4.7,7.9 -5.5,7.3 -6.1,6.8 -6.8,6.2 -7.4,5.4 -7.9,4.8 -8.3,3.9 -8.6,3.1 -8.9,2.2 -9.1,1.4 -9.1,0.4 h -226.4 l -9.2,-0.4 -9.1,-1.4 -8.9,-2.2 -8.6,-3.1 -8.3,-3.9 -7.9,-4.8 -7.3,-5.4 -6.8,-6.2 -6.2,-6.8 -5.5,-7.3 -4.7,-7.9 -3.9,-8.3 -3.1,-8.7 -2.2,-8.9 -1.4,-9 -0.4,-9.2 v -187 l 0.4,-9.2 1.4,-9 2.2,-8.9 3.1,-8.7 3.9,-8.3 4.7,-7.9 5.5,-7.3 6.2,-6.8 6.8,-6.2 7.3,-5.4 7.9,-4.8 8.3,-3.9 8.6,-3.1 8.9,-2.2 9.1,-1.4 9.2,-0.4 h 226.4 z"
       id="path794" />
    <path
       style="fill:#840000;fill-opacity:1;fill-rule:evenodd;stroke:#840000;stroke-width:0;stroke-linecap:round;stroke-linejoin:round;stroke-opacity:1"
       d="m 45472.4,26413.4 9,1.4 8.9,2.2 8.7,3.1 8.3,3.9 7.8,4.8 7.4,5.4 6.8,6.2 6.2,6.8 5.4,7.3 4.8,7.9 3.9,8.3 3.1,8.7 2.2,8.9 1.3,9 0.5,9.2 v 187 l -0.5,9.2 -1.3,9 -2.2,8.9 -3.1,8.7 -3.9,8.3 -4.8,7.9 -5.4,7.3 -6.2,6.8 -6.8,6.2 -7.4,5.4 -7.8,4.8 -8.3,3.9 -8.7,3.1 -8.9,2.2 -9,1.4 -9.2,0.4 h -226.4 l -9.2,-0.4 -9,-1.4 -8.9,-2.2 -8.7,-3.1 -8.3,-3.9 -7.8,-4.8 -7.4,-5.4 -6.8,-6.2 -6.2,-6.8 -5.4,-7.3 -4.8,-7.9 -3.9,-8.3 -3.1,-8.7 -2.2,-8.9 -1.3,-9 -0.5,-9.2 v -187 l 0.5,-9.2 1.3,-9 2.2,-8.9 3.1,-8.7 3.9,-8.3 4.8,-7.9 5.4,-7.3 6.2,-6.8 6.8,-6.2 7.4,-5.4 7.8,-4.8 8.3,-3.9 8.7,-3.1 8.9,-2.2 9,-1.4 9.2,-0.4 h 226.4 z"
       id="path796" />
  </g>
  <g
     style="fill:#840000;fill-opacity:1;stroke:#840000;stroke-width:0;stroke-linecap:round;stroke-linejoin:round;stroke-opacity:1"
     id="g806"
     transform="translate(-36749.63,-21068.63)">
    <path
       style="fill:#840000;fill-opacity:1;fill-rule:evenodd;stroke:#840000;stroke-width:0;stroke-linecap:round;stroke-linejoin:round;stroke-opacity:1"
       d="m 47911.3,27113.4 9.1,1.4 8.9,2.2 8.6,3.1 8.3,3.9 7.9,4.8 7.4,5.4 6.8,6.2 6.1,6.8 5.5,7.3 4.7,7.9 4,8.3 3,8.7 2.3,8.9 1.3,9 0.5,9.2 v 187 l -0.5,9.2 -1.3,9 -2.3,8.9 -3,8.7 -4,8.3 -4.7,7.9 -5.5,7.3 -6.1,6.8 -6.8,6.2 -7.4,5.4 -7.9,4.8 -8.3,3.9 -8.6,3.1 -8.9,2.2 -9.1,1.4 -9.1,0.4 h -226.4 l -9.2,-0.4 -9.1,-1.4 -8.9,-2.2 -8.6,-3.1 -8.3,-3.9 -7.9,-4.8 -7.3,-5.4 -6.8,-6.2 -6.2,-6.8 -5.5,-7.3 -4.7,-7.9 -3.9,-8.3 -3.1,-8.7 -2.2,-8.9 -1.4,-9 -0.4,-9.2 v -187 l 0.4,-9.2 1.4,-9 2.2,-8.9 3.1,-8.7 3.9,-8.3 4.7,-7.9 5.5,-7.3 6.2,-6.8 6.8,-6.2 7.3,-5.4 7.9,-4.8 8.3,-3.9 8.6,-3.1 8.9,-2.2 9.1,-1.4 9.2,-0.4 h 226.4 z"
       id="path802" />
    <path
       style="fill:#840000;fill-opacity:1;fill-rule:evenodd;stroke:#840000;stroke-width:0;stroke-linecap:round;stroke-linejoin:round;stroke-opacity:1"
       d="m 47222.4,27113.4 9,1.4 8.9,2.2 8.7,3.1 8.3,3.9 7.8,4.8 7.4,5.4 6.8,6.2 6.2,6.8 5.4,7.3 4.8,7.9 3.9,8.3 3.1,8.7 2.2,8.9 1.3,9 0.5,9.2 v 187 l -0.5,9.2 -1.3,9 -2.2,8.9 -3.1,8.7 -3.9,8.3 -4.8,7.9 -5.4,7.3 -6.2,6.8 -6.8,6.2 -7.4,5.4 -7.8,4.8 -8.3,3.9 -8.7,3.1 -8.9,2.2 -9,1.4 -9.2,0.4 h -226.4 l -9.2,-0.4 -9,-1.4 -8.9,-2.2 -8.7,-3.1 -8.3,-3.9 -7.8,-4.8 -7.4,-5.4 -6.8,-6.2 -6.2,-6.8 -5.4,-7.3 -4.8,-7.9 -3.9,-8.3 -3.1,-8.7 -2.2,-8.9 -1.3,-9 -0.5,-9.2 v -187 l 0.5,-9.2 1.3,-9 2.2,-8.9 3.1,-8.7 3.9,-8.3 4.8,-7.9 5.4,-7.3 6.2,-6.8 6.8,-6.2 7.4,-5.4 7.8,-4.8 8.3,-3.9 8.7,-3.1 8.9,-2.2 9,-1.4 9.2,-0.4 h 226.4 z"
       id="path804" />
  </g>
  <g
     style="fill:#840000;fill-opacity:1;stroke:#840000;stroke-width:0;stroke-linecap:round;stroke-linejoin:round;stroke-opacity:1"
     id="g814"
     transform="translate(-36749.63,-21068.63)">
    <path
       style="fill:#840000;fill-opacity:1;fill-rule:evenodd;stroke:#840000;stroke-width:0;stroke-linecap:round;stroke-linejoin:round;stroke-opacity:1"
       d="m 40936.8,29024.1 9.6,1.4 9.3,2.4 9.1,3.2 8.8,4.1 8.2,5 7.8,5.8 7.2,6.5 6.4,7.1 5.8,7.8 5,8.2 4.1,8.8 3.3,9.1 2.3,9.3 1.4,9.6 0.5,9.6 v 256 l -0.5,9.6 -1.4,9.6 -2.3,9.3 -3.3,9.1 -4.1,8.8 -5,8.2 -5.8,7.8 -6.4,7.1 -7.2,6.5 -7.8,5.8 -8.2,5 -8.8,4.1 -9.1,3.2 -9.3,2.4 -9.6,1.4 -9.6,0.5 h -354.4 l -9.6,-0.5 -9.6,-1.4 -9.3,-2.4 -9.1,-3.2 -8.8,-4.1 -8.2,-5 -7.8,-5.8 -7.2,-6.5 -6.4,-7.1 -5.8,-7.8 -5,-8.2 -4.1,-8.8 -3.3,-9.1 -2.3,-9.3 -1.4,-9.6 -0.5,-9.6 v -256 l 0.5,-9.6 1.4,-9.6 2.3,-9.3 3.3,-9.1 4.1,-8.8 5,-8.2 5.8,-7.8 6.4,-7.1 7.2,-6.5 7.8,-5.8 8.2,-5 8.8,-4.1 9.1,-3.2 9.3,-2.4 9.6,-1.4 9.6,-0.5 h 354.4 z"
       id="path810" />
    <path
       style="fill:#840000;fill-opacity:1;fill-rule:evenodd;stroke:#840000;stroke-width:0;stroke-linecap:round;stroke-linejoin:round;stroke-opacity:1"
       d="m 40936.8,29831.2 9.6,1.4 9.3,2.3 9.1,3.3 8.8,4.1 8.2,5 7.8,5.7 7.2,6.5 6.4,7.2 5.8,7.8 5,8.2 4.1,8.8 3.3,9.1 2.3,9.3 1.4,9.6 0.5,9.6 v 255.9 l -0.5,9.7 -1.4,9.5 -2.3,9.4 -3.3,9.1 -4.1,8.7 -5,8.3 -5.8,7.8 -6.4,7.1 -7.2,6.5 -7.8,5.8 -8.2,4.9 -8.8,4.2 -9.1,3.2 -9.3,2.4 -9.6,1.4 -9.6,0.5 h -354.4 l -9.6,-0.5 -9.6,-1.4 -9.3,-2.4 -9.1,-3.2 -8.8,-4.2 -8.2,-4.9 -7.8,-5.8 -7.2,-6.5 -6.4,-7.1 -5.8,-7.8 -5,-8.3 -4.1,-8.7 -3.3,-9.1 -2.3,-9.4 -1.4,-9.5 -0.5,-9.7 v -255.9 l 0.5,-9.6 1.4,-9.6 2.3,-9.3 3.3,-9.1 4.1,-8.8 5,-8.2 5.8,-7.8 6.4,-7.2 7.2,-6.5 7.8,-5.7 8.2,-5 8.8,-4.1 9.1,-3.3 9.3,-2.3 9.6,-1.4 9.6,-0.5 h 354.4 z"
       id="path812" />
  </g>
  <g
     style="fill:#c2c200;fill-opacity:0;stroke:#c2c200;stroke-width:78.7402;stroke-linecap:round;stroke-linejoin:round;stroke-opacity:1"
     id="g896"
     transform="translate(-36749.63,-21068.63)">
    <path
       d="m 51750,37250 a 1181.1,1181.1 0 0 0 1181.1,-1181.1"
       id="path828" />
    <path
       d="M 52931.1,22289.4 A 1181.1,1181.1 0 0 0 51750,21108.3"
       id="path830" />
    <path
       d="M 36789.4,36068.9 A 1181.1,1181.1 0 0 0 37970.5,37250"
       id="path832" />
    <path
       d="M 37970,21108 H 51750"
       id="path834" />
    <path
       d="M 52931,22289 V 36068"
       id="path836" />
    <path
       d="M 36789,36068 V 22289"
       id="path838" />
    <path
       d="m 37970.5,21108.3 a 1181.1,1181.1 0 0 0 -1181.1,1181.1"
       id="path840" />
    <path
       d="M 51750,37250 H 37970"
       id="path842" />
    <g
       id="g844" />
    <g
       id="g846" />
    <g
       id="g848" />
    <g
       id="g850" />
    <g
       id="g852" />
    <g
       id="g854" />
    <g
       id="g856" />
    <g
       id="g858" />
    <g
       id="g860" />
    <g
       id="g862" />
    <g
       id="g864" />
    <g
       id="g866" />
    <g
       id="g868" />
    <g
       id="g870" />
    <g
       id="g872" />
    <g
       id="g874" />
    <g
       id="g876" />
    <g
       id="g878" />
    <g
       id="g880" />
    <g
       id="g882" />
    <g
       id="g884" />
    <g
       id="g886" />
    <g
       id="g888" />
    <g
       id="g890" />
    <g
       id="g892" />
    <g
       id="g894" />
  </g>
</svg>
