%TF.GenerationSoftware,KiCad,Pcbnew,(5.1.9)-1*%
%TF.CreationDate,2021-02-27T14:58:15+09:00*%
%TF.ProjectId,universal_power_board_v1.2,756e6976-6572-4736-916c-5f706f776572,rev?*%
%TF.SameCoordinates,Original*%
%TF.FileFunction,Legend,Top*%
%TF.FilePolarity,Positive*%
%FSLAX46Y46*%
G04 Gerber Fmt 4.6, Leading zero omitted, Abs format (unit mm)*
G04 Created by KiCad (PCBNEW (5.1.9)-1) date 2021-02-27 14:58:15*
%MOMM*%
%LPD*%
G01*
G04 APERTURE LIST*
%ADD10C,0.125000*%
%ADD11C,0.100000*%
%ADD12C,0.120000*%
%ADD13C,0.150000*%
G04 APERTURE END LIST*
D10*
X112494107Y-92109480D02*
X112446488Y-92085670D01*
X112375060Y-92085670D01*
X112303631Y-92109480D01*
X112256012Y-92157099D01*
X112232202Y-92204718D01*
X112208393Y-92299956D01*
X112208393Y-92371384D01*
X112232202Y-92466622D01*
X112256012Y-92514241D01*
X112303631Y-92561860D01*
X112375060Y-92585670D01*
X112422679Y-92585670D01*
X112494107Y-92561860D01*
X112517917Y-92538051D01*
X112517917Y-92371384D01*
X112422679Y-92371384D01*
X112732202Y-92585670D02*
X112732202Y-92085670D01*
X113017917Y-92585670D01*
X113017917Y-92085670D01*
X113256012Y-92585670D02*
X113256012Y-92085670D01*
X113375060Y-92085670D01*
X113446488Y-92109480D01*
X113494107Y-92157099D01*
X113517917Y-92204718D01*
X113541726Y-92299956D01*
X113541726Y-92371384D01*
X113517917Y-92466622D01*
X113494107Y-92514241D01*
X113446488Y-92561860D01*
X113375060Y-92585670D01*
X113256012Y-92585670D01*
X112193331Y-90058750D02*
X112359998Y-90558750D01*
X112526664Y-90058750D01*
X112788569Y-90058750D02*
X112883807Y-90058750D01*
X112931426Y-90082560D01*
X112979045Y-90130179D01*
X113002855Y-90225417D01*
X113002855Y-90392083D01*
X112979045Y-90487321D01*
X112931426Y-90534940D01*
X112883807Y-90558750D01*
X112788569Y-90558750D01*
X112740950Y-90534940D01*
X112693331Y-90487321D01*
X112669521Y-90392083D01*
X112669521Y-90225417D01*
X112693331Y-90130179D01*
X112740950Y-90082560D01*
X112788569Y-90058750D01*
X113455236Y-90558750D02*
X113217140Y-90558750D01*
X113217140Y-90058750D01*
X113550474Y-90058750D02*
X113836188Y-90058750D01*
X113693331Y-90558750D02*
X113693331Y-90058750D01*
X112295702Y-88168634D02*
X112676655Y-88168634D01*
X112486179Y-88359110D02*
X112486179Y-87978158D01*
X113152845Y-87859110D02*
X112914750Y-87859110D01*
X112890940Y-88097205D01*
X112914750Y-88073396D01*
X112962369Y-88049586D01*
X113081417Y-88049586D01*
X113129036Y-88073396D01*
X113152845Y-88097205D01*
X113176655Y-88144824D01*
X113176655Y-88263872D01*
X113152845Y-88311491D01*
X113129036Y-88335300D01*
X113081417Y-88359110D01*
X112962369Y-88359110D01*
X112914750Y-88335300D01*
X112890940Y-88311491D01*
X113319512Y-87859110D02*
X113486179Y-88359110D01*
X113652845Y-87859110D01*
X126789227Y-91804680D02*
X126741608Y-91780870D01*
X126670180Y-91780870D01*
X126598751Y-91804680D01*
X126551132Y-91852299D01*
X126527322Y-91899918D01*
X126503513Y-91995156D01*
X126503513Y-92066584D01*
X126527322Y-92161822D01*
X126551132Y-92209441D01*
X126598751Y-92257060D01*
X126670180Y-92280870D01*
X126717799Y-92280870D01*
X126789227Y-92257060D01*
X126813037Y-92233251D01*
X126813037Y-92066584D01*
X126717799Y-92066584D01*
X127027322Y-92280870D02*
X127027322Y-91780870D01*
X127313037Y-92280870D01*
X127313037Y-91780870D01*
X127551132Y-92280870D02*
X127551132Y-91780870D01*
X127670180Y-91780870D01*
X127741608Y-91804680D01*
X127789227Y-91852299D01*
X127813037Y-91899918D01*
X127836846Y-91995156D01*
X127836846Y-92066584D01*
X127813037Y-92161822D01*
X127789227Y-92209441D01*
X127741608Y-92257060D01*
X127670180Y-92280870D01*
X127551132Y-92280870D01*
X126507002Y-90007594D02*
X126887955Y-90007594D01*
X126697479Y-90198070D02*
X126697479Y-89817118D01*
X127364145Y-89698070D02*
X127126050Y-89698070D01*
X127102240Y-89936165D01*
X127126050Y-89912356D01*
X127173669Y-89888546D01*
X127292717Y-89888546D01*
X127340336Y-89912356D01*
X127364145Y-89936165D01*
X127387955Y-89983784D01*
X127387955Y-90102832D01*
X127364145Y-90150451D01*
X127340336Y-90174260D01*
X127292717Y-90198070D01*
X127173669Y-90198070D01*
X127126050Y-90174260D01*
X127102240Y-90150451D01*
X127530812Y-89698070D02*
X127697479Y-90198070D01*
X127864145Y-89698070D01*
X130043074Y-62992237D02*
X130043074Y-62611284D01*
X130233550Y-62801760D02*
X129852598Y-62801760D01*
X129733550Y-62135094D02*
X129733550Y-62373189D01*
X129971645Y-62396999D01*
X129947836Y-62373189D01*
X129924026Y-62325570D01*
X129924026Y-62206522D01*
X129947836Y-62158903D01*
X129971645Y-62135094D01*
X130019264Y-62111284D01*
X130138312Y-62111284D01*
X130185931Y-62135094D01*
X130209740Y-62158903D01*
X130233550Y-62206522D01*
X130233550Y-62325570D01*
X130209740Y-62373189D01*
X130185931Y-62396999D01*
X129733550Y-61968427D02*
X130233550Y-61801760D01*
X129733550Y-61635094D01*
X131860480Y-62750652D02*
X131836670Y-62798271D01*
X131836670Y-62869700D01*
X131860480Y-62941128D01*
X131908099Y-62988747D01*
X131955718Y-63012557D01*
X132050956Y-63036366D01*
X132122384Y-63036366D01*
X132217622Y-63012557D01*
X132265241Y-62988747D01*
X132312860Y-62941128D01*
X132336670Y-62869700D01*
X132336670Y-62822080D01*
X132312860Y-62750652D01*
X132289051Y-62726842D01*
X132122384Y-62726842D01*
X132122384Y-62822080D01*
X132336670Y-62512557D02*
X131836670Y-62512557D01*
X132336670Y-62226842D01*
X131836670Y-62226842D01*
X132336670Y-61988747D02*
X131836670Y-61988747D01*
X131836670Y-61869700D01*
X131860480Y-61798271D01*
X131908099Y-61750652D01*
X131955718Y-61726842D01*
X132050956Y-61703033D01*
X132122384Y-61703033D01*
X132217622Y-61726842D01*
X132265241Y-61750652D01*
X132312860Y-61798271D01*
X132336670Y-61869700D01*
X132336670Y-61988747D01*
D11*
%TO.C,U1*%
X108865130Y-82673000D02*
X108865130Y-70483000D01*
X121055130Y-82673000D02*
X108865130Y-82673000D01*
X121055130Y-70483000D02*
X121055130Y-82673000D01*
X108865130Y-70483000D02*
X121055130Y-70483000D01*
D12*
%TO.C,R5*%
X111911224Y-67041500D02*
X111401776Y-67041500D01*
X111911224Y-68086500D02*
X111401776Y-68086500D01*
%TO.C,R4*%
X119611224Y-84821500D02*
X119101776Y-84821500D01*
X119611224Y-85866500D02*
X119101776Y-85866500D01*
%TO.C,R3*%
X120244776Y-68086500D02*
X120754224Y-68086500D01*
X120244776Y-67041500D02*
X120754224Y-67041500D01*
%TO.C,R2*%
X104752224Y-79262500D02*
X104242776Y-79262500D01*
X104752224Y-78217500D02*
X104242776Y-78217500D01*
%TO.C,R1*%
X106186500Y-74952776D02*
X106186500Y-75462224D01*
X105141500Y-74952776D02*
X105141500Y-75462224D01*
%TO.C,J12*%
X125115000Y-53932000D02*
X122295000Y-53932000D01*
X122295000Y-53932000D02*
X120995000Y-55632000D01*
X125115000Y-53932000D02*
X126415000Y-55632000D01*
X120995000Y-55632000D02*
X120995000Y-64352000D01*
X126415000Y-64352000D02*
X120995000Y-64352000D01*
X126415000Y-55632000D02*
X126415000Y-64352000D01*
%TO.C,J11*%
X118765000Y-53932000D02*
X115945000Y-53932000D01*
X115945000Y-53932000D02*
X114645000Y-55632000D01*
X118765000Y-53932000D02*
X120065000Y-55632000D01*
X114645000Y-55632000D02*
X114645000Y-64352000D01*
X120065000Y-64352000D02*
X114645000Y-64352000D01*
X120065000Y-55632000D02*
X120065000Y-64352000D01*
%TO.C,J10*%
X126189000Y-87683000D02*
X124939000Y-87683000D01*
X126189000Y-88933000D02*
X126189000Y-87683000D01*
X121779000Y-91043000D02*
X122279000Y-91043000D01*
X122279000Y-91143000D02*
X121779000Y-91143000D01*
X122279000Y-90943000D02*
X122279000Y-91143000D01*
X121779000Y-90943000D02*
X122279000Y-90943000D01*
X123279000Y-94103000D02*
X123279000Y-93493000D01*
X124579000Y-94103000D02*
X124579000Y-93493000D01*
X123279000Y-87983000D02*
X123279000Y-88593000D01*
X124579000Y-87983000D02*
X124579000Y-88593000D01*
X125279000Y-91543000D02*
X125889000Y-91543000D01*
X125279000Y-93493000D02*
X125279000Y-91543000D01*
X121779000Y-93493000D02*
X125279000Y-93493000D01*
X121779000Y-88593000D02*
X121779000Y-93493000D01*
X125279000Y-88593000D02*
X121779000Y-88593000D01*
X125279000Y-90543000D02*
X125279000Y-88593000D01*
X125889000Y-90543000D02*
X125279000Y-90543000D01*
X125989000Y-89743000D02*
X125989000Y-89443000D01*
X126089000Y-89443000D02*
X125889000Y-89443000D01*
X126089000Y-89743000D02*
X126089000Y-89443000D01*
X125889000Y-89743000D02*
X126089000Y-89743000D01*
X125889000Y-94103000D02*
X125889000Y-87983000D01*
X121169000Y-94103000D02*
X125889000Y-94103000D01*
X121169000Y-87983000D02*
X121169000Y-94103000D01*
X125889000Y-87983000D02*
X121169000Y-87983000D01*
%TO.C,J9*%
X120474000Y-87683000D02*
X119224000Y-87683000D01*
X120474000Y-88933000D02*
X120474000Y-87683000D01*
X116064000Y-91043000D02*
X116564000Y-91043000D01*
X116564000Y-91143000D02*
X116064000Y-91143000D01*
X116564000Y-90943000D02*
X116564000Y-91143000D01*
X116064000Y-90943000D02*
X116564000Y-90943000D01*
X117564000Y-94103000D02*
X117564000Y-93493000D01*
X118864000Y-94103000D02*
X118864000Y-93493000D01*
X117564000Y-87983000D02*
X117564000Y-88593000D01*
X118864000Y-87983000D02*
X118864000Y-88593000D01*
X119564000Y-91543000D02*
X120174000Y-91543000D01*
X119564000Y-93493000D02*
X119564000Y-91543000D01*
X116064000Y-93493000D02*
X119564000Y-93493000D01*
X116064000Y-88593000D02*
X116064000Y-93493000D01*
X119564000Y-88593000D02*
X116064000Y-88593000D01*
X119564000Y-90543000D02*
X119564000Y-88593000D01*
X120174000Y-90543000D02*
X119564000Y-90543000D01*
X120274000Y-89743000D02*
X120274000Y-89443000D01*
X120374000Y-89443000D02*
X120174000Y-89443000D01*
X120374000Y-89743000D02*
X120374000Y-89443000D01*
X120174000Y-89743000D02*
X120374000Y-89743000D01*
X120174000Y-94103000D02*
X120174000Y-87983000D01*
X115454000Y-94103000D02*
X120174000Y-94103000D01*
X115454000Y-87983000D02*
X115454000Y-94103000D01*
X120174000Y-87983000D02*
X115454000Y-87983000D01*
%TO.C,J8*%
X127688000Y-80567000D02*
X127688000Y-81817000D01*
X128938000Y-80567000D02*
X127688000Y-80567000D01*
X131048000Y-84977000D02*
X131048000Y-84477000D01*
X131148000Y-84477000D02*
X131148000Y-84977000D01*
X130948000Y-84477000D02*
X131148000Y-84477000D01*
X130948000Y-84977000D02*
X130948000Y-84477000D01*
X134108000Y-83477000D02*
X133498000Y-83477000D01*
X134108000Y-82177000D02*
X133498000Y-82177000D01*
X127988000Y-83477000D02*
X128598000Y-83477000D01*
X127988000Y-82177000D02*
X128598000Y-82177000D01*
X131548000Y-81477000D02*
X131548000Y-80867000D01*
X133498000Y-81477000D02*
X131548000Y-81477000D01*
X133498000Y-84977000D02*
X133498000Y-81477000D01*
X128598000Y-84977000D02*
X133498000Y-84977000D01*
X128598000Y-81477000D02*
X128598000Y-84977000D01*
X130548000Y-81477000D02*
X128598000Y-81477000D01*
X130548000Y-80867000D02*
X130548000Y-81477000D01*
X129748000Y-80767000D02*
X129448000Y-80767000D01*
X129448000Y-80667000D02*
X129448000Y-80867000D01*
X129748000Y-80667000D02*
X129448000Y-80667000D01*
X129748000Y-80867000D02*
X129748000Y-80667000D01*
X134108000Y-80867000D02*
X127988000Y-80867000D01*
X134108000Y-85587000D02*
X134108000Y-80867000D01*
X127988000Y-85587000D02*
X134108000Y-85587000D01*
X127988000Y-80867000D02*
X127988000Y-85587000D01*
%TO.C,J7*%
X127593000Y-74852000D02*
X127593000Y-76102000D01*
X128843000Y-74852000D02*
X127593000Y-74852000D01*
X130953000Y-79262000D02*
X130953000Y-78762000D01*
X131053000Y-78762000D02*
X131053000Y-79262000D01*
X130853000Y-78762000D02*
X131053000Y-78762000D01*
X130853000Y-79262000D02*
X130853000Y-78762000D01*
X134013000Y-77762000D02*
X133403000Y-77762000D01*
X134013000Y-76462000D02*
X133403000Y-76462000D01*
X127893000Y-77762000D02*
X128503000Y-77762000D01*
X127893000Y-76462000D02*
X128503000Y-76462000D01*
X131453000Y-75762000D02*
X131453000Y-75152000D01*
X133403000Y-75762000D02*
X131453000Y-75762000D01*
X133403000Y-79262000D02*
X133403000Y-75762000D01*
X128503000Y-79262000D02*
X133403000Y-79262000D01*
X128503000Y-75762000D02*
X128503000Y-79262000D01*
X130453000Y-75762000D02*
X128503000Y-75762000D01*
X130453000Y-75152000D02*
X130453000Y-75762000D01*
X129653000Y-75052000D02*
X129353000Y-75052000D01*
X129353000Y-74952000D02*
X129353000Y-75152000D01*
X129653000Y-74952000D02*
X129353000Y-74952000D01*
X129653000Y-75152000D02*
X129653000Y-74952000D01*
X134013000Y-75152000D02*
X127893000Y-75152000D01*
X134013000Y-79872000D02*
X134013000Y-75152000D01*
X127893000Y-79872000D02*
X134013000Y-79872000D01*
X127893000Y-75152000D02*
X127893000Y-79872000D01*
%TO.C,J6*%
X112415000Y-53932000D02*
X109595000Y-53932000D01*
X109595000Y-53932000D02*
X108295000Y-55632000D01*
X112415000Y-53932000D02*
X113715000Y-55632000D01*
X108295000Y-55632000D02*
X108295000Y-64352000D01*
X113715000Y-64352000D02*
X108295000Y-64352000D01*
X113715000Y-55632000D02*
X113715000Y-64352000D01*
%TO.C,J5*%
X127688000Y-69137000D02*
X127688000Y-70387000D01*
X128938000Y-69137000D02*
X127688000Y-69137000D01*
X131048000Y-73547000D02*
X131048000Y-73047000D01*
X131148000Y-73047000D02*
X131148000Y-73547000D01*
X130948000Y-73047000D02*
X131148000Y-73047000D01*
X130948000Y-73547000D02*
X130948000Y-73047000D01*
X134108000Y-72047000D02*
X133498000Y-72047000D01*
X134108000Y-70747000D02*
X133498000Y-70747000D01*
X127988000Y-72047000D02*
X128598000Y-72047000D01*
X127988000Y-70747000D02*
X128598000Y-70747000D01*
X131548000Y-70047000D02*
X131548000Y-69437000D01*
X133498000Y-70047000D02*
X131548000Y-70047000D01*
X133498000Y-73547000D02*
X133498000Y-70047000D01*
X128598000Y-73547000D02*
X133498000Y-73547000D01*
X128598000Y-70047000D02*
X128598000Y-73547000D01*
X130548000Y-70047000D02*
X128598000Y-70047000D01*
X130548000Y-69437000D02*
X130548000Y-70047000D01*
X129748000Y-69337000D02*
X129448000Y-69337000D01*
X129448000Y-69237000D02*
X129448000Y-69437000D01*
X129748000Y-69237000D02*
X129448000Y-69237000D01*
X129748000Y-69437000D02*
X129748000Y-69237000D01*
X134108000Y-69437000D02*
X127988000Y-69437000D01*
X134108000Y-74157000D02*
X134108000Y-69437000D01*
X127988000Y-74157000D02*
X134108000Y-74157000D01*
X127988000Y-69437000D02*
X127988000Y-74157000D01*
%TO.C,J4*%
X127688000Y-63422000D02*
X127688000Y-64672000D01*
X128938000Y-63422000D02*
X127688000Y-63422000D01*
X131048000Y-67832000D02*
X131048000Y-67332000D01*
X131148000Y-67332000D02*
X131148000Y-67832000D01*
X130948000Y-67332000D02*
X131148000Y-67332000D01*
X130948000Y-67832000D02*
X130948000Y-67332000D01*
X134108000Y-66332000D02*
X133498000Y-66332000D01*
X134108000Y-65032000D02*
X133498000Y-65032000D01*
X127988000Y-66332000D02*
X128598000Y-66332000D01*
X127988000Y-65032000D02*
X128598000Y-65032000D01*
X131548000Y-64332000D02*
X131548000Y-63722000D01*
X133498000Y-64332000D02*
X131548000Y-64332000D01*
X133498000Y-67832000D02*
X133498000Y-64332000D01*
X128598000Y-67832000D02*
X133498000Y-67832000D01*
X128598000Y-64332000D02*
X128598000Y-67832000D01*
X130548000Y-64332000D02*
X128598000Y-64332000D01*
X130548000Y-63722000D02*
X130548000Y-64332000D01*
X129748000Y-63622000D02*
X129448000Y-63622000D01*
X129448000Y-63522000D02*
X129448000Y-63722000D01*
X129748000Y-63522000D02*
X129448000Y-63522000D01*
X129748000Y-63722000D02*
X129748000Y-63522000D01*
X134108000Y-63722000D02*
X127988000Y-63722000D01*
X134108000Y-68442000D02*
X134108000Y-63722000D01*
X127988000Y-68442000D02*
X134108000Y-68442000D01*
X127988000Y-63722000D02*
X127988000Y-68442000D01*
%TO.C,J3*%
X106058000Y-53932000D02*
X103238000Y-53932000D01*
X103238000Y-53932000D02*
X101938000Y-55632000D01*
X106058000Y-53932000D02*
X107358000Y-55632000D01*
X101938000Y-55632000D02*
X101938000Y-64352000D01*
X107358000Y-64352000D02*
X101938000Y-64352000D01*
X107358000Y-55632000D02*
X107358000Y-64352000D01*
%TO.C,J2*%
X95110000Y-80354000D02*
X97930000Y-80354000D01*
X97930000Y-80354000D02*
X99230000Y-78654000D01*
X95110000Y-80354000D02*
X93810000Y-78654000D01*
X99230000Y-78654000D02*
X99230000Y-69934000D01*
X93810000Y-69934000D02*
X99230000Y-69934000D01*
X93810000Y-78654000D02*
X93810000Y-69934000D01*
%TO.C,J1*%
X111965000Y-85905000D02*
X110715000Y-85905000D01*
X111965000Y-87155000D02*
X111965000Y-85905000D01*
X107555000Y-91265000D02*
X108055000Y-91265000D01*
X108055000Y-91365000D02*
X107555000Y-91365000D01*
X108055000Y-91165000D02*
X108055000Y-91365000D01*
X107555000Y-91165000D02*
X108055000Y-91165000D01*
X107555000Y-89265000D02*
X108055000Y-89265000D01*
X108055000Y-89365000D02*
X107555000Y-89365000D01*
X108055000Y-89165000D02*
X108055000Y-89365000D01*
X107555000Y-89165000D02*
X108055000Y-89165000D01*
X109055000Y-94325000D02*
X109055000Y-93715000D01*
X110355000Y-94325000D02*
X110355000Y-93715000D01*
X109055000Y-86205000D02*
X109055000Y-86815000D01*
X110355000Y-86205000D02*
X110355000Y-86815000D01*
X111055000Y-91765000D02*
X111665000Y-91765000D01*
X111055000Y-93715000D02*
X111055000Y-91765000D01*
X107555000Y-93715000D02*
X111055000Y-93715000D01*
X107555000Y-86815000D02*
X107555000Y-93715000D01*
X111055000Y-86815000D02*
X107555000Y-86815000D01*
X111055000Y-88765000D02*
X111055000Y-86815000D01*
X111665000Y-88765000D02*
X111055000Y-88765000D01*
X111765000Y-87965000D02*
X111765000Y-87665000D01*
X111865000Y-87665000D02*
X111665000Y-87665000D01*
X111865000Y-87965000D02*
X111865000Y-87665000D01*
X111665000Y-87965000D02*
X111865000Y-87965000D01*
X111665000Y-94325000D02*
X111665000Y-86205000D01*
X106945000Y-94325000D02*
X111665000Y-94325000D01*
X106945000Y-86205000D02*
X106945000Y-94325000D01*
X111665000Y-86205000D02*
X106945000Y-86205000D01*
%TO.C,D1*%
X114404000Y-68299000D02*
X116864000Y-68299000D01*
X114404000Y-66829000D02*
X114404000Y-68299000D01*
X116864000Y-66829000D02*
X114404000Y-66829000D01*
%TO.C,C2*%
X120337733Y-69852000D02*
X120680267Y-69852000D01*
X120337733Y-68832000D02*
X120680267Y-68832000D01*
%TO.C,C1*%
X104215000Y-75058748D02*
X104215000Y-75581252D01*
X102795000Y-75058748D02*
X102795000Y-75581252D01*
%TO.C,R5*%
D13*
X111489193Y-69471800D02*
X111155860Y-68995610D01*
X110917764Y-69471800D02*
X110917764Y-68471800D01*
X111298717Y-68471800D01*
X111393955Y-68519420D01*
X111441574Y-68567039D01*
X111489193Y-68662277D01*
X111489193Y-68805134D01*
X111441574Y-68900372D01*
X111393955Y-68947991D01*
X111298717Y-68995610D01*
X110917764Y-68995610D01*
X112393955Y-68471800D02*
X111917764Y-68471800D01*
X111870145Y-68947991D01*
X111917764Y-68900372D01*
X112013002Y-68852753D01*
X112251098Y-68852753D01*
X112346336Y-68900372D01*
X112393955Y-68947991D01*
X112441574Y-69043229D01*
X112441574Y-69281324D01*
X112393955Y-69376562D01*
X112346336Y-69424181D01*
X112251098Y-69471800D01*
X112013002Y-69471800D01*
X111917764Y-69424181D01*
X111870145Y-69376562D01*
%TO.C,R4*%
X119189833Y-87226380D02*
X118856500Y-86750190D01*
X118618404Y-87226380D02*
X118618404Y-86226380D01*
X118999357Y-86226380D01*
X119094595Y-86274000D01*
X119142214Y-86321619D01*
X119189833Y-86416857D01*
X119189833Y-86559714D01*
X119142214Y-86654952D01*
X119094595Y-86702571D01*
X118999357Y-86750190D01*
X118618404Y-86750190D01*
X120046976Y-86559714D02*
X120046976Y-87226380D01*
X119808880Y-86178761D02*
X119570785Y-86893047D01*
X120189833Y-86893047D01*
%TO.C,R3*%
X123061433Y-68072260D02*
X122728100Y-67596070D01*
X122490004Y-68072260D02*
X122490004Y-67072260D01*
X122870957Y-67072260D01*
X122966195Y-67119880D01*
X123013814Y-67167499D01*
X123061433Y-67262737D01*
X123061433Y-67405594D01*
X123013814Y-67500832D01*
X122966195Y-67548451D01*
X122870957Y-67596070D01*
X122490004Y-67596070D01*
X123394766Y-67072260D02*
X124013814Y-67072260D01*
X123680480Y-67453213D01*
X123823338Y-67453213D01*
X123918576Y-67500832D01*
X123966195Y-67548451D01*
X124013814Y-67643689D01*
X124013814Y-67881784D01*
X123966195Y-67977022D01*
X123918576Y-68024641D01*
X123823338Y-68072260D01*
X123537623Y-68072260D01*
X123442385Y-68024641D01*
X123394766Y-67977022D01*
%TO.C,R2*%
X104330833Y-80622380D02*
X103997500Y-80146190D01*
X103759404Y-80622380D02*
X103759404Y-79622380D01*
X104140357Y-79622380D01*
X104235595Y-79670000D01*
X104283214Y-79717619D01*
X104330833Y-79812857D01*
X104330833Y-79955714D01*
X104283214Y-80050952D01*
X104235595Y-80098571D01*
X104140357Y-80146190D01*
X103759404Y-80146190D01*
X104711785Y-79717619D02*
X104759404Y-79670000D01*
X104854642Y-79622380D01*
X105092738Y-79622380D01*
X105187976Y-79670000D01*
X105235595Y-79717619D01*
X105283214Y-79812857D01*
X105283214Y-79908095D01*
X105235595Y-80050952D01*
X104664166Y-80622380D01*
X105283214Y-80622380D01*
%TO.C,R1*%
X106167180Y-72546506D02*
X105690990Y-72879840D01*
X106167180Y-73117935D02*
X105167180Y-73117935D01*
X105167180Y-72736982D01*
X105214800Y-72641744D01*
X105262419Y-72594125D01*
X105357657Y-72546506D01*
X105500514Y-72546506D01*
X105595752Y-72594125D01*
X105643371Y-72641744D01*
X105690990Y-72736982D01*
X105690990Y-73117935D01*
X106167180Y-71594125D02*
X106167180Y-72165554D01*
X106167180Y-71879840D02*
X105167180Y-71879840D01*
X105310038Y-71975078D01*
X105405276Y-72070316D01*
X105452895Y-72165554D01*
%TO.C,J12*%
X123812142Y-66213428D02*
X123812142Y-65070571D01*
X124383571Y-65642000D02*
X123240714Y-65642000D01*
%TO.C,J11*%
X117462142Y-66213428D02*
X117462142Y-65070571D01*
X118033571Y-65642000D02*
X116890714Y-65642000D01*
%TO.C,J6*%
X111112142Y-66213428D02*
X111112142Y-65070571D01*
X111683571Y-65642000D02*
X110540714Y-65642000D01*
%TO.C,J3*%
X104755142Y-66213428D02*
X104755142Y-65070571D01*
X105326571Y-65642000D02*
X104183714Y-65642000D01*
%TO.C,J2*%
X100448571Y-82048761D02*
X100496190Y-81905904D01*
X100543809Y-81858285D01*
X100639047Y-81810666D01*
X100781904Y-81810666D01*
X100877142Y-81858285D01*
X100924761Y-81905904D01*
X100972380Y-82001142D01*
X100972380Y-82382095D01*
X99972380Y-82382095D01*
X99972380Y-82048761D01*
X100020000Y-81953523D01*
X100067619Y-81905904D01*
X100162857Y-81858285D01*
X100258095Y-81858285D01*
X100353333Y-81905904D01*
X100400952Y-81953523D01*
X100448571Y-82048761D01*
X100448571Y-82382095D01*
X100686666Y-81429714D02*
X100686666Y-80953523D01*
X100972380Y-81524952D02*
X99972380Y-81191619D01*
X100972380Y-80858285D01*
X99972380Y-80667809D02*
X99972380Y-80096380D01*
X100972380Y-80382095D02*
X99972380Y-80382095D01*
X99972380Y-79905904D02*
X99972380Y-79334476D01*
X100972380Y-79620190D02*
X99972380Y-79620190D01*
X100972380Y-78239238D02*
X99972380Y-78239238D01*
X100972380Y-77763047D02*
X99972380Y-77763047D01*
X100972380Y-77191619D01*
X99972380Y-77191619D01*
X100972380Y-76715428D02*
X99972380Y-76715428D01*
X99972380Y-76334476D01*
X100020000Y-76239238D01*
X100067619Y-76191619D01*
X100162857Y-76144000D01*
X100305714Y-76144000D01*
X100400952Y-76191619D01*
X100448571Y-76239238D01*
X100496190Y-76334476D01*
X100496190Y-76715428D01*
X99972380Y-75715428D02*
X100781904Y-75715428D01*
X100877142Y-75667809D01*
X100924761Y-75620190D01*
X100972380Y-75524952D01*
X100972380Y-75334476D01*
X100924761Y-75239238D01*
X100877142Y-75191619D01*
X100781904Y-75144000D01*
X99972380Y-75144000D01*
X99972380Y-74810666D02*
X99972380Y-74239238D01*
X100972380Y-74524952D02*
X99972380Y-74524952D01*
X100972380Y-73144000D02*
X99972380Y-73144000D01*
X100686666Y-72810666D01*
X99972380Y-72477333D01*
X100972380Y-72477333D01*
X100686666Y-72048761D02*
X100686666Y-71572571D01*
X100972380Y-72144000D02*
X99972380Y-71810666D01*
X100972380Y-71477333D01*
X99972380Y-71239238D02*
X100972380Y-70572571D01*
X99972380Y-70572571D02*
X100972380Y-71239238D01*
X100972380Y-69667809D02*
X100972380Y-70239238D01*
X100972380Y-69953523D02*
X99972380Y-69953523D01*
X100115238Y-70048761D01*
X100210476Y-70144000D01*
X100258095Y-70239238D01*
X100305714Y-68810666D02*
X100972380Y-68810666D01*
X99924761Y-69048761D02*
X100639047Y-69286857D01*
X100639047Y-68667809D01*
X99972380Y-68429714D02*
X100972380Y-68096380D01*
X99972380Y-67763047D01*
X96627142Y-82215428D02*
X96627142Y-81072571D01*
X96627142Y-69215428D02*
X96627142Y-68072571D01*
X97198571Y-68644000D02*
X96055714Y-68644000D01*
%TO.C,D1*%
X115309424Y-69558160D02*
X115309424Y-68558160D01*
X115547520Y-68558160D01*
X115690377Y-68605780D01*
X115785615Y-68701018D01*
X115833234Y-68796256D01*
X115880853Y-68986732D01*
X115880853Y-69129589D01*
X115833234Y-69320065D01*
X115785615Y-69415303D01*
X115690377Y-69510541D01*
X115547520Y-69558160D01*
X115309424Y-69558160D01*
X116833234Y-69558160D02*
X116261805Y-69558160D01*
X116547520Y-69558160D02*
X116547520Y-68558160D01*
X116452281Y-68701018D01*
X116357043Y-68796256D01*
X116261805Y-68843875D01*
%TO.C,C2*%
X123061433Y-69800742D02*
X123013814Y-69848361D01*
X122870957Y-69895980D01*
X122775719Y-69895980D01*
X122632861Y-69848361D01*
X122537623Y-69753123D01*
X122490004Y-69657885D01*
X122442385Y-69467409D01*
X122442385Y-69324552D01*
X122490004Y-69134076D01*
X122537623Y-69038838D01*
X122632861Y-68943600D01*
X122775719Y-68895980D01*
X122870957Y-68895980D01*
X123013814Y-68943600D01*
X123061433Y-68991219D01*
X123442385Y-68991219D02*
X123490004Y-68943600D01*
X123585242Y-68895980D01*
X123823338Y-68895980D01*
X123918576Y-68943600D01*
X123966195Y-68991219D01*
X124013814Y-69086457D01*
X124013814Y-69181695D01*
X123966195Y-69324552D01*
X123394766Y-69895980D01*
X124013814Y-69895980D01*
%TO.C,C1*%
X103920562Y-72564286D02*
X103968181Y-72611905D01*
X104015800Y-72754762D01*
X104015800Y-72850000D01*
X103968181Y-72992858D01*
X103872943Y-73088096D01*
X103777705Y-73135715D01*
X103587229Y-73183334D01*
X103444372Y-73183334D01*
X103253896Y-73135715D01*
X103158658Y-73088096D01*
X103063420Y-72992858D01*
X103015800Y-72850000D01*
X103015800Y-72754762D01*
X103063420Y-72611905D01*
X103111039Y-72564286D01*
X104015800Y-71611905D02*
X104015800Y-72183334D01*
X104015800Y-71897620D02*
X103015800Y-71897620D01*
X103158658Y-71992858D01*
X103253896Y-72088096D01*
X103301515Y-72183334D01*
%TD*%
M02*
