%TF.GenerationSoftware,KiCad,Pcbnew,(5.1.9)-1*%
%TF.CreationDate,2021-02-27T14:58:15+09:00*%
%TF.ProjectId,universal_power_board_v1.2,756e6976-6572-4736-916c-5f706f776572,rev?*%
%TF.SameCoordinates,Original*%
%TF.FileFunction,Copper,L1,Top*%
%TF.FilePolarity,Positive*%
%FSLAX46Y46*%
G04 Gerber Fmt 4.6, Leading zero omitted, Abs format (unit mm)*
G04 Created by KiCad (PCBNEW (5.1.9)-1) date 2021-02-27 14:58:15*
%MOMM*%
%LPD*%
G01*
G04 APERTURE LIST*
%TA.AperFunction,NonConductor*%
%ADD10C,0.100000*%
%TD*%
%TA.AperFunction,SMDPad,CuDef*%
%ADD11R,1.270000X2.159000*%
%TD*%
%TA.AperFunction,SMDPad,CuDef*%
%ADD12R,2.159000X1.270000*%
%TD*%
%TA.AperFunction,SMDPad,CuDef*%
%ADD13R,1.270000X2.659000*%
%TD*%
%TA.AperFunction,SMDPad,CuDef*%
%ADD14R,2.659000X1.270000*%
%TD*%
%TA.AperFunction,SMDPad,CuDef*%
%ADD15R,1.730000X4.320000*%
%TD*%
%TA.AperFunction,SMDPad,CuDef*%
%ADD16R,3.720000X2.030000*%
%TD*%
%TA.AperFunction,SMDPad,CuDef*%
%ADD17R,4.020000X2.030000*%
%TD*%
%TA.AperFunction,ComponentPad*%
%ADD18C,4.000000*%
%TD*%
%TA.AperFunction,ComponentPad*%
%ADD19R,3.800000X3.800000*%
%TD*%
%TA.AperFunction,ComponentPad*%
%ADD20O,1.750000X1.200000*%
%TD*%
%TA.AperFunction,ComponentPad*%
%ADD21O,1.200000X1.750000*%
%TD*%
%TA.AperFunction,ComponentPad*%
%ADD22C,3.800000*%
%TD*%
%TA.AperFunction,ComponentPad*%
%ADD23C,5.700000*%
%TD*%
%TA.AperFunction,ViaPad*%
%ADD24C,0.800000*%
%TD*%
%TA.AperFunction,Conductor*%
%ADD25C,4.000000*%
%TD*%
%TA.AperFunction,Conductor*%
%ADD26C,1.000000*%
%TD*%
%TA.AperFunction,Conductor*%
%ADD27C,0.250000*%
%TD*%
%TA.AperFunction,Conductor*%
%ADD28C,0.254000*%
%TD*%
%TA.AperFunction,Conductor*%
%ADD29C,0.100000*%
%TD*%
G04 APERTURE END LIST*
D10*
G36*
X109621320Y-71038720D02*
G01*
X109639100Y-72966580D01*
X108386880Y-72984360D01*
X108427520Y-71031100D01*
X109621320Y-71038720D01*
G37*
X109621320Y-71038720D02*
X109639100Y-72966580D01*
X108386880Y-72984360D01*
X108427520Y-71031100D01*
X109621320Y-71038720D01*
G36*
X106680000Y-64135000D02*
G01*
X106680000Y-69215000D01*
X109220000Y-71755000D01*
X107315000Y-74295000D01*
X103505000Y-74295000D01*
X101600000Y-72390000D01*
X97790000Y-73025000D01*
X97790000Y-69850000D01*
X104775000Y-62865000D01*
X107315000Y-62865000D01*
X106680000Y-64135000D01*
G37*
X106680000Y-64135000D02*
X106680000Y-69215000D01*
X109220000Y-71755000D01*
X107315000Y-74295000D01*
X103505000Y-74295000D01*
X101600000Y-72390000D01*
X97790000Y-73025000D01*
X97790000Y-69850000D01*
X104775000Y-62865000D01*
X107315000Y-62865000D01*
X106680000Y-64135000D01*
G36*
X130175000Y-83820000D02*
G01*
X124460000Y-90170000D01*
X118745000Y-90170000D01*
X116840000Y-88265000D01*
X120650000Y-88265000D01*
X123825000Y-84455000D01*
X123825000Y-77470000D01*
X122555000Y-76200000D01*
X119380000Y-76200000D01*
X119380000Y-71755000D01*
X122555000Y-71755000D01*
X123825000Y-70485000D01*
X123825000Y-67945000D01*
X126365000Y-65405000D01*
X130175000Y-65405000D01*
X130175000Y-83820000D01*
G37*
X130175000Y-83820000D02*
X124460000Y-90170000D01*
X118745000Y-90170000D01*
X116840000Y-88265000D01*
X120650000Y-88265000D01*
X123825000Y-84455000D01*
X123825000Y-77470000D01*
X122555000Y-76200000D01*
X119380000Y-76200000D01*
X119380000Y-71755000D01*
X122555000Y-71755000D01*
X123825000Y-70485000D01*
X123825000Y-67945000D01*
X126365000Y-65405000D01*
X130175000Y-65405000D01*
X130175000Y-83820000D01*
D11*
%TO.P,U1,3*%
%TO.N,GND*%
X117338670Y-71005300D03*
X114870670Y-71005300D03*
D12*
%TO.P,U1,4*%
%TO.N,+5V*%
X120519000Y-72005000D03*
D11*
%TO.P,U1,2*%
%TO.N,+BATT*%
X112759058Y-71005300D03*
D12*
X109388560Y-72005000D03*
D13*
%TO.P,U1,12*%
%TO.N,Net-(U1-Pad12)*%
X117245130Y-81889410D03*
D14*
%TO.P,U1,11*%
%TO.N,Net-(U1-Pad11)*%
X120269000Y-78863000D03*
%TO.P,U1,10*%
%TO.N,Net-(U1-Pad10)*%
X109638560Y-78863000D03*
%TO.P,U1,9*%
%TO.N,Net-(U1-Pad9)*%
X109638560Y-81153000D03*
D13*
%TO.P,U1,8*%
%TO.N,Net-(U1-Pad8)*%
X112675130Y-81889410D03*
%TO.P,U1,7*%
%TO.N,GND*%
X114965130Y-81889410D03*
D14*
%TO.P,U1,6*%
%TO.N,Net-(R4-Pad1)*%
X120269000Y-81153000D03*
%TO.P,U1,5*%
%TO.N,+5V*%
X120269000Y-76573000D03*
D15*
%TO.P,U1,4*%
X119685130Y-73143000D03*
D16*
%TO.P,U1,3*%
%TO.N,GND*%
X116105130Y-72003000D03*
D17*
%TO.P,U1,2*%
%TO.N,+BATT*%
X111375130Y-72003000D03*
D14*
%TO.P,U1,1*%
%TO.N,GND*%
X109638560Y-76573000D03*
%TD*%
%TO.P,R5,2*%
%TO.N,GND*%
%TA.AperFunction,SMDPad,CuDef*%
G36*
G01*
X111231500Y-67326500D02*
X111231500Y-67801500D01*
G75*
G02*
X110994000Y-68039000I-237500J0D01*
G01*
X110494000Y-68039000D01*
G75*
G02*
X110256500Y-67801500I0J237500D01*
G01*
X110256500Y-67326500D01*
G75*
G02*
X110494000Y-67089000I237500J0D01*
G01*
X110994000Y-67089000D01*
G75*
G02*
X111231500Y-67326500I0J-237500D01*
G01*
G37*
%TD.AperFunction*%
%TO.P,R5,1*%
%TO.N,Net-(D1-Pad1)*%
%TA.AperFunction,SMDPad,CuDef*%
G36*
G01*
X113056500Y-67326500D02*
X113056500Y-67801500D01*
G75*
G02*
X112819000Y-68039000I-237500J0D01*
G01*
X112319000Y-68039000D01*
G75*
G02*
X112081500Y-67801500I0J237500D01*
G01*
X112081500Y-67326500D01*
G75*
G02*
X112319000Y-67089000I237500J0D01*
G01*
X112819000Y-67089000D01*
G75*
G02*
X113056500Y-67326500I0J-237500D01*
G01*
G37*
%TD.AperFunction*%
%TD*%
%TO.P,R4,2*%
%TO.N,GND*%
%TA.AperFunction,SMDPad,CuDef*%
G36*
G01*
X118931500Y-85106500D02*
X118931500Y-85581500D01*
G75*
G02*
X118694000Y-85819000I-237500J0D01*
G01*
X118194000Y-85819000D01*
G75*
G02*
X117956500Y-85581500I0J237500D01*
G01*
X117956500Y-85106500D01*
G75*
G02*
X118194000Y-84869000I237500J0D01*
G01*
X118694000Y-84869000D01*
G75*
G02*
X118931500Y-85106500I0J-237500D01*
G01*
G37*
%TD.AperFunction*%
%TO.P,R4,1*%
%TO.N,Net-(R4-Pad1)*%
%TA.AperFunction,SMDPad,CuDef*%
G36*
G01*
X120756500Y-85106500D02*
X120756500Y-85581500D01*
G75*
G02*
X120519000Y-85819000I-237500J0D01*
G01*
X120019000Y-85819000D01*
G75*
G02*
X119781500Y-85581500I0J237500D01*
G01*
X119781500Y-85106500D01*
G75*
G02*
X120019000Y-84869000I237500J0D01*
G01*
X120519000Y-84869000D01*
G75*
G02*
X120756500Y-85106500I0J-237500D01*
G01*
G37*
%TD.AperFunction*%
%TD*%
%TO.P,R3,2*%
%TO.N,GND*%
%TA.AperFunction,SMDPad,CuDef*%
G36*
G01*
X120924500Y-67801500D02*
X120924500Y-67326500D01*
G75*
G02*
X121162000Y-67089000I237500J0D01*
G01*
X121662000Y-67089000D01*
G75*
G02*
X121899500Y-67326500I0J-237500D01*
G01*
X121899500Y-67801500D01*
G75*
G02*
X121662000Y-68039000I-237500J0D01*
G01*
X121162000Y-68039000D01*
G75*
G02*
X120924500Y-67801500I0J237500D01*
G01*
G37*
%TD.AperFunction*%
%TO.P,R3,1*%
%TO.N,+5V*%
%TA.AperFunction,SMDPad,CuDef*%
G36*
G01*
X119099500Y-67801500D02*
X119099500Y-67326500D01*
G75*
G02*
X119337000Y-67089000I237500J0D01*
G01*
X119837000Y-67089000D01*
G75*
G02*
X120074500Y-67326500I0J-237500D01*
G01*
X120074500Y-67801500D01*
G75*
G02*
X119837000Y-68039000I-237500J0D01*
G01*
X119337000Y-68039000D01*
G75*
G02*
X119099500Y-67801500I0J237500D01*
G01*
G37*
%TD.AperFunction*%
%TD*%
%TO.P,R2,1*%
%TO.N,Net-(J1-Pad2)*%
%TA.AperFunction,SMDPad,CuDef*%
G36*
G01*
X105897500Y-78502500D02*
X105897500Y-78977500D01*
G75*
G02*
X105660000Y-79215000I-237500J0D01*
G01*
X105160000Y-79215000D01*
G75*
G02*
X104922500Y-78977500I0J237500D01*
G01*
X104922500Y-78502500D01*
G75*
G02*
X105160000Y-78265000I237500J0D01*
G01*
X105660000Y-78265000D01*
G75*
G02*
X105897500Y-78502500I0J-237500D01*
G01*
G37*
%TD.AperFunction*%
%TO.P,R2,2*%
%TO.N,GND*%
%TA.AperFunction,SMDPad,CuDef*%
G36*
G01*
X104072500Y-78502500D02*
X104072500Y-78977500D01*
G75*
G02*
X103835000Y-79215000I-237500J0D01*
G01*
X103335000Y-79215000D01*
G75*
G02*
X103097500Y-78977500I0J237500D01*
G01*
X103097500Y-78502500D01*
G75*
G02*
X103335000Y-78265000I237500J0D01*
G01*
X103835000Y-78265000D01*
G75*
G02*
X104072500Y-78502500I0J-237500D01*
G01*
G37*
%TD.AperFunction*%
%TD*%
%TO.P,R1,1*%
%TO.N,+BATT*%
%TA.AperFunction,SMDPad,CuDef*%
G36*
G01*
X105426500Y-73807500D02*
X105901500Y-73807500D01*
G75*
G02*
X106139000Y-74045000I0J-237500D01*
G01*
X106139000Y-74545000D01*
G75*
G02*
X105901500Y-74782500I-237500J0D01*
G01*
X105426500Y-74782500D01*
G75*
G02*
X105189000Y-74545000I0J237500D01*
G01*
X105189000Y-74045000D01*
G75*
G02*
X105426500Y-73807500I237500J0D01*
G01*
G37*
%TD.AperFunction*%
%TO.P,R1,2*%
%TO.N,Net-(J1-Pad2)*%
%TA.AperFunction,SMDPad,CuDef*%
G36*
G01*
X105426500Y-75632500D02*
X105901500Y-75632500D01*
G75*
G02*
X106139000Y-75870000I0J-237500D01*
G01*
X106139000Y-76370000D01*
G75*
G02*
X105901500Y-76607500I-237500J0D01*
G01*
X105426500Y-76607500D01*
G75*
G02*
X105189000Y-76370000I0J237500D01*
G01*
X105189000Y-75870000D01*
G75*
G02*
X105426500Y-75632500I237500J0D01*
G01*
G37*
%TD.AperFunction*%
%TD*%
D18*
%TO.P,J12,2*%
%TO.N,+BATT*%
X123705000Y-61642000D03*
D19*
%TO.P,J12,1*%
%TO.N,GND*%
X123705000Y-56642000D03*
%TD*%
D18*
%TO.P,J11,2*%
%TO.N,+BATT*%
X117355000Y-61642000D03*
D19*
%TO.P,J11,1*%
%TO.N,GND*%
X117355000Y-56642000D03*
%TD*%
D20*
%TO.P,J10,2*%
%TO.N,GND*%
X124079000Y-92043000D03*
%TO.P,J10,1*%
%TO.N,+5V*%
%TA.AperFunction,ComponentPad*%
G36*
G01*
X123453999Y-89443000D02*
X124704001Y-89443000D01*
G75*
G02*
X124954000Y-89692999I0J-249999D01*
G01*
X124954000Y-90393001D01*
G75*
G02*
X124704001Y-90643000I-249999J0D01*
G01*
X123453999Y-90643000D01*
G75*
G02*
X123204000Y-90393001I0J249999D01*
G01*
X123204000Y-89692999D01*
G75*
G02*
X123453999Y-89443000I249999J0D01*
G01*
G37*
%TD.AperFunction*%
%TD*%
%TO.P,J9,2*%
%TO.N,GND*%
X118364000Y-92043000D03*
%TO.P,J9,1*%
%TO.N,+5V*%
%TA.AperFunction,ComponentPad*%
G36*
G01*
X117738999Y-89443000D02*
X118989001Y-89443000D01*
G75*
G02*
X119239000Y-89692999I0J-249999D01*
G01*
X119239000Y-90393001D01*
G75*
G02*
X118989001Y-90643000I-249999J0D01*
G01*
X117738999Y-90643000D01*
G75*
G02*
X117489000Y-90393001I0J249999D01*
G01*
X117489000Y-89692999D01*
G75*
G02*
X117738999Y-89443000I249999J0D01*
G01*
G37*
%TD.AperFunction*%
%TD*%
D21*
%TO.P,J8,2*%
%TO.N,GND*%
X132048000Y-82677000D03*
%TO.P,J8,1*%
%TO.N,+5V*%
%TA.AperFunction,ComponentPad*%
G36*
G01*
X129448000Y-83302001D02*
X129448000Y-82051999D01*
G75*
G02*
X129697999Y-81802000I249999J0D01*
G01*
X130398001Y-81802000D01*
G75*
G02*
X130648000Y-82051999I0J-249999D01*
G01*
X130648000Y-83302001D01*
G75*
G02*
X130398001Y-83552000I-249999J0D01*
G01*
X129697999Y-83552000D01*
G75*
G02*
X129448000Y-83302001I0J249999D01*
G01*
G37*
%TD.AperFunction*%
%TD*%
%TO.P,J7,2*%
%TO.N,GND*%
X131953000Y-76962000D03*
%TO.P,J7,1*%
%TO.N,+5V*%
%TA.AperFunction,ComponentPad*%
G36*
G01*
X129353000Y-77587001D02*
X129353000Y-76336999D01*
G75*
G02*
X129602999Y-76087000I249999J0D01*
G01*
X130303001Y-76087000D01*
G75*
G02*
X130553000Y-76336999I0J-249999D01*
G01*
X130553000Y-77587001D01*
G75*
G02*
X130303001Y-77837000I-249999J0D01*
G01*
X129602999Y-77837000D01*
G75*
G02*
X129353000Y-77587001I0J249999D01*
G01*
G37*
%TD.AperFunction*%
%TD*%
D18*
%TO.P,J6,2*%
%TO.N,+BATT*%
X111005000Y-61642000D03*
D19*
%TO.P,J6,1*%
%TO.N,GND*%
X111005000Y-56642000D03*
%TD*%
D21*
%TO.P,J5,2*%
%TO.N,GND*%
X132048000Y-71247000D03*
%TO.P,J5,1*%
%TO.N,+5V*%
%TA.AperFunction,ComponentPad*%
G36*
G01*
X129448000Y-71872001D02*
X129448000Y-70621999D01*
G75*
G02*
X129697999Y-70372000I249999J0D01*
G01*
X130398001Y-70372000D01*
G75*
G02*
X130648000Y-70621999I0J-249999D01*
G01*
X130648000Y-71872001D01*
G75*
G02*
X130398001Y-72122000I-249999J0D01*
G01*
X129697999Y-72122000D01*
G75*
G02*
X129448000Y-71872001I0J249999D01*
G01*
G37*
%TD.AperFunction*%
%TD*%
%TO.P,J4,2*%
%TO.N,GND*%
X132048000Y-65532000D03*
%TO.P,J4,1*%
%TO.N,+5V*%
%TA.AperFunction,ComponentPad*%
G36*
G01*
X129448000Y-66157001D02*
X129448000Y-64906999D01*
G75*
G02*
X129697999Y-64657000I249999J0D01*
G01*
X130398001Y-64657000D01*
G75*
G02*
X130648000Y-64906999I0J-249999D01*
G01*
X130648000Y-66157001D01*
G75*
G02*
X130398001Y-66407000I-249999J0D01*
G01*
X129697999Y-66407000D01*
G75*
G02*
X129448000Y-66157001I0J249999D01*
G01*
G37*
%TD.AperFunction*%
%TD*%
D18*
%TO.P,J3,2*%
%TO.N,+BATT*%
X104648000Y-61642000D03*
D19*
%TO.P,J3,1*%
%TO.N,GND*%
X104648000Y-56642000D03*
%TD*%
D22*
%TO.P,J2,2*%
%TO.N,+BATT*%
X96520000Y-72644000D03*
D19*
%TO.P,J2,1*%
%TO.N,GND*%
X96520000Y-77644000D03*
%TD*%
D20*
%TO.P,J1,3*%
%TO.N,GND*%
X109855000Y-92265000D03*
%TO.P,J1,2*%
%TO.N,Net-(J1-Pad2)*%
X109855000Y-90265000D03*
%TO.P,J1,1*%
%TO.N,+5V*%
%TA.AperFunction,ComponentPad*%
G36*
G01*
X109229999Y-87665000D02*
X110480001Y-87665000D01*
G75*
G02*
X110730000Y-87914999I0J-249999D01*
G01*
X110730000Y-88615001D01*
G75*
G02*
X110480001Y-88865000I-249999J0D01*
G01*
X109229999Y-88865000D01*
G75*
G02*
X108980000Y-88615001I0J249999D01*
G01*
X108980000Y-87914999D01*
G75*
G02*
X109229999Y-87665000I249999J0D01*
G01*
G37*
%TD.AperFunction*%
%TD*%
D23*
%TO.P,H4,1*%
%TO.N,N/C*%
X131445000Y-91615000D03*
%TD*%
%TO.P,H3,1*%
%TO.N,N/C*%
X96445001Y-56615001D03*
%TD*%
%TO.P,H2,1*%
%TO.N,N/C*%
X131445000Y-56615001D03*
%TD*%
%TO.P,H1,1*%
%TO.N,N/C*%
X96445001Y-91615000D03*
%TD*%
%TO.P,D1,2*%
%TO.N,+5V*%
%TA.AperFunction,SMDPad,CuDef*%
G36*
G01*
X116414000Y-67801500D02*
X116414000Y-67326500D01*
G75*
G02*
X116651500Y-67089000I237500J0D01*
G01*
X117226500Y-67089000D01*
G75*
G02*
X117464000Y-67326500I0J-237500D01*
G01*
X117464000Y-67801500D01*
G75*
G02*
X117226500Y-68039000I-237500J0D01*
G01*
X116651500Y-68039000D01*
G75*
G02*
X116414000Y-67801500I0J237500D01*
G01*
G37*
%TD.AperFunction*%
%TO.P,D1,1*%
%TO.N,Net-(D1-Pad1)*%
%TA.AperFunction,SMDPad,CuDef*%
G36*
G01*
X114664000Y-67801500D02*
X114664000Y-67326500D01*
G75*
G02*
X114901500Y-67089000I237500J0D01*
G01*
X115476500Y-67089000D01*
G75*
G02*
X115714000Y-67326500I0J-237500D01*
G01*
X115714000Y-67801500D01*
G75*
G02*
X115476500Y-68039000I-237500J0D01*
G01*
X114901500Y-68039000D01*
G75*
G02*
X114664000Y-67801500I0J237500D01*
G01*
G37*
%TD.AperFunction*%
%TD*%
%TO.P,C2,2*%
%TO.N,GND*%
%TA.AperFunction,SMDPad,CuDef*%
G36*
G01*
X120859000Y-69579500D02*
X120859000Y-69104500D01*
G75*
G02*
X121096500Y-68867000I237500J0D01*
G01*
X121671500Y-68867000D01*
G75*
G02*
X121909000Y-69104500I0J-237500D01*
G01*
X121909000Y-69579500D01*
G75*
G02*
X121671500Y-69817000I-237500J0D01*
G01*
X121096500Y-69817000D01*
G75*
G02*
X120859000Y-69579500I0J237500D01*
G01*
G37*
%TD.AperFunction*%
%TO.P,C2,1*%
%TO.N,+5V*%
%TA.AperFunction,SMDPad,CuDef*%
G36*
G01*
X119109000Y-69579500D02*
X119109000Y-69104500D01*
G75*
G02*
X119346500Y-68867000I237500J0D01*
G01*
X119921500Y-68867000D01*
G75*
G02*
X120159000Y-69104500I0J-237500D01*
G01*
X120159000Y-69579500D01*
G75*
G02*
X119921500Y-69817000I-237500J0D01*
G01*
X119346500Y-69817000D01*
G75*
G02*
X119109000Y-69579500I0J237500D01*
G01*
G37*
%TD.AperFunction*%
%TD*%
%TO.P,C1,1*%
%TO.N,+BATT*%
%TA.AperFunction,SMDPad,CuDef*%
G36*
G01*
X103054999Y-73720000D02*
X103955001Y-73720000D01*
G75*
G02*
X104205000Y-73969999I0J-249999D01*
G01*
X104205000Y-74620001D01*
G75*
G02*
X103955001Y-74870000I-249999J0D01*
G01*
X103054999Y-74870000D01*
G75*
G02*
X102805000Y-74620001I0J249999D01*
G01*
X102805000Y-73969999D01*
G75*
G02*
X103054999Y-73720000I249999J0D01*
G01*
G37*
%TD.AperFunction*%
%TO.P,C1,2*%
%TO.N,GND*%
%TA.AperFunction,SMDPad,CuDef*%
G36*
G01*
X103054999Y-75770000D02*
X103955001Y-75770000D01*
G75*
G02*
X104205000Y-76019999I0J-249999D01*
G01*
X104205000Y-76670001D01*
G75*
G02*
X103955001Y-76920000I-249999J0D01*
G01*
X103054999Y-76920000D01*
G75*
G02*
X102805000Y-76670001I0J249999D01*
G01*
X102805000Y-76019999D01*
G75*
G02*
X103054999Y-75770000I249999J0D01*
G01*
G37*
%TD.AperFunction*%
%TD*%
D24*
%TO.N,GND*%
X113030000Y-74930000D03*
X114935000Y-74930000D03*
X116840000Y-74930000D03*
X116840000Y-76835000D03*
X114935000Y-76835000D03*
X113030000Y-76835000D03*
X113030000Y-78740000D03*
X114935000Y-78740000D03*
X116840000Y-78740000D03*
%TO.N,+BATT*%
X102870000Y-66040000D03*
X100965000Y-66040000D03*
X100965000Y-67945000D03*
X100965000Y-64135000D03*
X102870000Y-64135000D03*
X99060000Y-69850000D03*
X99060000Y-67945000D03*
X99060000Y-66040000D03*
X97155000Y-67945000D03*
X97155000Y-69850000D03*
X104775000Y-64135000D03*
X106680000Y-64135000D03*
X104775000Y-69850000D03*
X102870000Y-71755000D03*
X104775000Y-71755000D03*
X100965000Y-71755000D03*
X100965000Y-69850000D03*
X102870000Y-69850000D03*
X102870000Y-67945000D03*
X104775000Y-67945000D03*
X104775000Y-66040000D03*
X106680000Y-66040000D03*
X106680000Y-67945000D03*
X106680000Y-69850000D03*
X106680000Y-71755000D03*
%TO.N,+5V*%
X126730000Y-69850000D03*
X124825000Y-69850000D03*
X124825000Y-67945000D03*
X126730000Y-67945000D03*
X126730000Y-71755000D03*
X124825000Y-71755000D03*
X124825000Y-73660000D03*
X126730000Y-73660000D03*
X124825000Y-77470000D03*
X124825000Y-81280000D03*
X126730000Y-81280000D03*
X126730000Y-79375000D03*
X124825000Y-79375000D03*
X126730000Y-77470000D03*
X126730000Y-75565000D03*
X124825000Y-75565000D03*
X124825000Y-83185000D03*
X126730000Y-83185000D03*
X126730000Y-85090000D03*
X124825000Y-85090000D03*
%TD*%
D25*
%TO.N,GND*%
X123825000Y-56642000D02*
X104648000Y-56642000D01*
D26*
X132048000Y-65532000D02*
X132048000Y-82677000D01*
X124079000Y-92043000D02*
X118364000Y-92043000D01*
D27*
X118142000Y-92265000D02*
X118364000Y-92043000D01*
D26*
X109855000Y-92265000D02*
X118142000Y-92265000D01*
%TO.N,+BATT*%
X101854000Y-72644000D02*
X103505000Y-74295000D01*
X103505000Y-74295000D02*
X105664000Y-74295000D01*
X107098560Y-74295000D02*
X109388560Y-72005000D01*
X105664000Y-74295000D02*
X107098560Y-74295000D01*
X96520000Y-72644000D02*
X101854000Y-72644000D01*
X106680000Y-69296440D02*
X109388560Y-72005000D01*
X106680000Y-64135000D02*
X106680000Y-69296440D01*
X111125000Y-61642000D02*
X109173000Y-61642000D01*
D25*
X96520000Y-69770000D02*
X104648000Y-61642000D01*
X96520000Y-72644000D02*
X96520000Y-69770000D01*
D26*
X102870000Y-67945000D02*
X102870000Y-66040000D01*
X102870000Y-66040000D02*
X104775000Y-66040000D01*
X104775000Y-66040000D02*
X104775000Y-69850000D01*
X101470460Y-67945000D02*
X100965000Y-67945000D01*
X102870000Y-69344540D02*
X101470460Y-67945000D01*
X100965000Y-67945000D02*
X100965000Y-69850000D01*
X102870000Y-69850000D02*
X102870000Y-68531740D01*
X102870000Y-68531740D02*
X102870000Y-69344540D01*
X102870000Y-67945000D02*
X102870000Y-68531740D01*
X109173000Y-61642000D02*
X106680000Y-64135000D01*
D25*
X104648000Y-61642000D02*
X123705000Y-61642000D01*
D27*
%TO.N,+5V*%
X116939000Y-67564000D02*
X119587000Y-67564000D01*
X119587000Y-73044870D02*
X119685130Y-73143000D01*
X119587000Y-67564000D02*
X119587000Y-73044870D01*
X120519000Y-72309130D02*
X119685130Y-73143000D01*
X120519000Y-72005000D02*
X120519000Y-72309130D01*
D26*
X130048000Y-65532000D02*
X130048000Y-71247000D01*
X130048000Y-71247000D02*
X130048000Y-82677000D01*
X116586000Y-88265000D02*
X109855000Y-88265000D01*
X118364000Y-90043000D02*
X116586000Y-88265000D01*
X129290000Y-72005000D02*
X130048000Y-71247000D01*
X120519000Y-72005000D02*
X129290000Y-72005000D01*
X123825000Y-77799500D02*
X123825000Y-85090000D01*
X122598500Y-76573000D02*
X123825000Y-77799500D01*
X120269000Y-76573000D02*
X122598500Y-76573000D01*
X123825000Y-70778500D02*
X123825000Y-67945000D01*
X122598500Y-72005000D02*
X123825000Y-70778500D01*
X120519000Y-72005000D02*
X122598500Y-72005000D01*
X119685130Y-75989130D02*
X120269000Y-76573000D01*
X119685130Y-73143000D02*
X119685130Y-75989130D01*
X120650000Y-88265000D02*
X123825000Y-85090000D01*
X116586000Y-88265000D02*
X120650000Y-88265000D01*
X126238000Y-65532000D02*
X123825000Y-67945000D01*
X130048000Y-65532000D02*
X126238000Y-65532000D01*
X124079000Y-90043000D02*
X118364000Y-90043000D01*
X130048000Y-84074000D02*
X124079000Y-90043000D01*
X130048000Y-82677000D02*
X130048000Y-84074000D01*
D27*
X130048000Y-65532000D02*
X130048000Y-82677000D01*
D26*
X123825000Y-67945000D02*
X125730000Y-67945000D01*
X123825000Y-73660000D02*
X125730000Y-73660000D01*
X123825000Y-77470000D02*
X125730000Y-77470000D01*
X125730000Y-73660000D02*
X125730000Y-85090000D01*
X123825000Y-69850000D02*
X125730000Y-69850000D01*
D27*
%TO.N,Net-(D1-Pad1)*%
X115189000Y-67564000D02*
X112569000Y-67564000D01*
%TO.N,Net-(J1-Pad2)*%
X105410000Y-78740000D02*
X105410000Y-88265000D01*
X107410000Y-90265000D02*
X109855000Y-90265000D01*
X105410000Y-88265000D02*
X107410000Y-90265000D01*
X105410000Y-76374000D02*
X105664000Y-76120000D01*
X105410000Y-78740000D02*
X105410000Y-76374000D01*
%TO.N,Net-(R4-Pad1)*%
X120269000Y-81153000D02*
X120269000Y-85344000D01*
%TD*%
D28*
%TO.N,GND*%
X128738024Y-54393443D02*
X128356633Y-54964235D01*
X128093927Y-55598464D01*
X127960000Y-56271759D01*
X127960000Y-56958243D01*
X128093927Y-57631538D01*
X128356633Y-58265767D01*
X128738024Y-58836559D01*
X129223442Y-59321977D01*
X129794234Y-59703368D01*
X130428463Y-59966074D01*
X131101758Y-60100001D01*
X131788242Y-60100001D01*
X132461537Y-59966074D01*
X133095766Y-59703368D01*
X133666558Y-59321977D01*
X133710000Y-59278535D01*
X133710001Y-88951467D01*
X133666558Y-88908024D01*
X133095766Y-88526633D01*
X132461537Y-88263927D01*
X131788242Y-88130000D01*
X131101758Y-88130000D01*
X130428463Y-88263927D01*
X129794234Y-88526633D01*
X129223442Y-88908024D01*
X128738024Y-89393442D01*
X128356633Y-89964234D01*
X128093927Y-90598463D01*
X127960000Y-91271758D01*
X127960000Y-91958242D01*
X128093927Y-92631537D01*
X128356633Y-93265766D01*
X128738024Y-93836558D01*
X128781466Y-93880000D01*
X99108535Y-93880000D01*
X99151977Y-93836558D01*
X99533368Y-93265766D01*
X99796074Y-92631537D01*
X99930001Y-91958242D01*
X99930001Y-91271758D01*
X99796074Y-90598463D01*
X99533368Y-89964234D01*
X99151977Y-89393442D01*
X98666559Y-88908024D01*
X98095767Y-88526633D01*
X97461538Y-88263927D01*
X96788243Y-88130000D01*
X96101759Y-88130000D01*
X95428464Y-88263927D01*
X94794235Y-88526633D01*
X94223443Y-88908024D01*
X94180001Y-88951466D01*
X94180001Y-73855939D01*
X94318477Y-74115010D01*
X94647759Y-74516241D01*
X95048989Y-74845523D01*
X95506750Y-75090201D01*
X96003450Y-75240873D01*
X96520000Y-75291749D01*
X97036549Y-75240873D01*
X97533249Y-75090201D01*
X97991010Y-74845523D01*
X98392241Y-74516241D01*
X98721523Y-74115011D01*
X98901124Y-73779000D01*
X101383869Y-73779000D01*
X102166928Y-74562060D01*
X102166928Y-74620001D01*
X102183992Y-74793255D01*
X102234528Y-74959851D01*
X102316595Y-75113387D01*
X102427038Y-75247962D01*
X102561613Y-75358405D01*
X102715149Y-75440472D01*
X102881745Y-75491008D01*
X103054999Y-75508072D01*
X103955001Y-75508072D01*
X104128255Y-75491008D01*
X104294851Y-75440472D01*
X104314443Y-75430000D01*
X104673664Y-75430000D01*
X104617577Y-75534933D01*
X104567752Y-75699184D01*
X104550928Y-75870000D01*
X104550928Y-76370000D01*
X104567752Y-76540816D01*
X104617577Y-76705067D01*
X104650001Y-76765728D01*
X104650000Y-77793821D01*
X104540877Y-77883377D01*
X104431988Y-78016058D01*
X104351077Y-78167433D01*
X104301252Y-78331684D01*
X104284428Y-78502500D01*
X104284428Y-78977500D01*
X104301252Y-79148316D01*
X104351077Y-79312567D01*
X104431988Y-79463942D01*
X104540877Y-79596623D01*
X104650000Y-79686178D01*
X104650001Y-88227668D01*
X104646324Y-88265000D01*
X104660998Y-88413985D01*
X104704454Y-88557246D01*
X104775026Y-88689276D01*
X104846201Y-88776002D01*
X104870000Y-88805001D01*
X104898998Y-88828799D01*
X106846201Y-90776003D01*
X106869999Y-90805001D01*
X106898997Y-90828799D01*
X106985723Y-90899974D01*
X107087638Y-90954449D01*
X107117753Y-90970546D01*
X107261014Y-91014003D01*
X107372667Y-91025000D01*
X107372676Y-91025000D01*
X107409999Y-91028676D01*
X107447322Y-91025000D01*
X108606067Y-91025000D01*
X108702498Y-91142502D01*
X108890551Y-91296833D01*
X109105099Y-91411511D01*
X109337898Y-91482130D01*
X109519335Y-91500000D01*
X110190665Y-91500000D01*
X110372102Y-91482130D01*
X110604901Y-91411511D01*
X110819449Y-91296833D01*
X111007502Y-91142502D01*
X111161833Y-90954449D01*
X111276511Y-90739901D01*
X111347130Y-90507102D01*
X111370975Y-90265000D01*
X111347130Y-90022898D01*
X111276511Y-89790099D01*
X111161833Y-89575551D01*
X111017762Y-89400000D01*
X116115869Y-89400000D01*
X116850928Y-90135060D01*
X116850928Y-90393001D01*
X116867992Y-90566255D01*
X116918528Y-90732851D01*
X117000595Y-90886387D01*
X117111038Y-91020962D01*
X117245613Y-91131405D01*
X117399149Y-91213472D01*
X117565745Y-91264008D01*
X117738999Y-91281072D01*
X118989001Y-91281072D01*
X119162255Y-91264008D01*
X119328851Y-91213472D01*
X119395214Y-91178000D01*
X123047786Y-91178000D01*
X123114149Y-91213472D01*
X123280745Y-91264008D01*
X123453999Y-91281072D01*
X124704001Y-91281072D01*
X124877255Y-91264008D01*
X125043851Y-91213472D01*
X125197387Y-91131405D01*
X125331962Y-91020962D01*
X125442405Y-90886387D01*
X125524472Y-90732851D01*
X125575008Y-90566255D01*
X125592072Y-90393001D01*
X125592072Y-90135059D01*
X130811141Y-84915991D01*
X130854449Y-84880449D01*
X130996284Y-84707623D01*
X131101676Y-84510447D01*
X131166577Y-84296499D01*
X131183000Y-84129752D01*
X131188491Y-84074000D01*
X131183000Y-84018248D01*
X131183000Y-83708214D01*
X131218472Y-83641851D01*
X131269008Y-83475255D01*
X131286072Y-83302001D01*
X131286072Y-82051999D01*
X131269008Y-81878745D01*
X131218472Y-81712149D01*
X131183000Y-81645786D01*
X131183000Y-77668958D01*
X131191072Y-77587001D01*
X131191072Y-76336999D01*
X131183000Y-76255042D01*
X131183000Y-72278214D01*
X131218472Y-72211851D01*
X131269008Y-72045255D01*
X131286072Y-71872001D01*
X131286072Y-70621999D01*
X131269008Y-70448745D01*
X131218472Y-70282149D01*
X131183000Y-70215786D01*
X131183000Y-66563214D01*
X131218472Y-66496851D01*
X131269008Y-66330255D01*
X131286072Y-66157001D01*
X131286072Y-64906999D01*
X131269008Y-64733745D01*
X131218472Y-64567149D01*
X131136405Y-64413613D01*
X131025962Y-64279038D01*
X130891387Y-64168595D01*
X130737851Y-64086528D01*
X130571255Y-64035992D01*
X130398001Y-64018928D01*
X129697999Y-64018928D01*
X129524745Y-64035992D01*
X129358149Y-64086528D01*
X129204613Y-64168595D01*
X129070038Y-64279038D01*
X128973229Y-64397000D01*
X126293741Y-64397000D01*
X126237999Y-64391510D01*
X126182257Y-64397000D01*
X126182248Y-64397000D01*
X126015501Y-64413423D01*
X125801553Y-64478324D01*
X125604377Y-64583716D01*
X125431551Y-64725551D01*
X125396009Y-64768859D01*
X123061865Y-67103004D01*
X123018551Y-67138551D01*
X122876716Y-67311377D01*
X122771324Y-67508553D01*
X122706423Y-67722501D01*
X122684509Y-67945000D01*
X122690001Y-68000761D01*
X122690000Y-69794245D01*
X122684509Y-69850000D01*
X122690000Y-69905751D01*
X122690000Y-70308368D01*
X122128369Y-70870000D01*
X121990204Y-70870000D01*
X121952994Y-70839463D01*
X121842680Y-70780498D01*
X121722982Y-70744188D01*
X121598500Y-70731928D01*
X121135948Y-70731928D01*
X121080667Y-70628506D01*
X121001315Y-70531815D01*
X120904624Y-70452463D01*
X120794310Y-70393498D01*
X120674612Y-70357188D01*
X120550130Y-70344928D01*
X120347000Y-70344928D01*
X120347000Y-70340086D01*
X120407942Y-70307512D01*
X120540623Y-70198623D01*
X120649512Y-70065942D01*
X120730423Y-69914567D01*
X120780248Y-69750316D01*
X120797072Y-69579500D01*
X120797072Y-69104500D01*
X120780248Y-68933684D01*
X120730423Y-68769433D01*
X120649512Y-68618058D01*
X120540623Y-68485377D01*
X120458376Y-68417878D01*
X120565012Y-68287942D01*
X120645923Y-68136567D01*
X120695748Y-67972316D01*
X120712572Y-67801500D01*
X120712572Y-67326500D01*
X120695748Y-67155684D01*
X120645923Y-66991433D01*
X120565012Y-66840058D01*
X120456123Y-66707377D01*
X120323442Y-66598488D01*
X120172067Y-66517577D01*
X120007816Y-66467752D01*
X119837000Y-66450928D01*
X119337000Y-66450928D01*
X119166184Y-66467752D01*
X119001933Y-66517577D01*
X118850558Y-66598488D01*
X118717877Y-66707377D01*
X118638580Y-66804000D01*
X117924920Y-66804000D01*
X117845623Y-66707377D01*
X117712942Y-66598488D01*
X117561567Y-66517577D01*
X117397316Y-66467752D01*
X117226500Y-66450928D01*
X116651500Y-66450928D01*
X116480684Y-66467752D01*
X116316433Y-66517577D01*
X116165058Y-66598488D01*
X116064000Y-66681425D01*
X115962942Y-66598488D01*
X115811567Y-66517577D01*
X115647316Y-66467752D01*
X115476500Y-66450928D01*
X114901500Y-66450928D01*
X114730684Y-66467752D01*
X114566433Y-66517577D01*
X114415058Y-66598488D01*
X114282377Y-66707377D01*
X114203080Y-66804000D01*
X113517420Y-66804000D01*
X113438123Y-66707377D01*
X113305442Y-66598488D01*
X113154067Y-66517577D01*
X112989816Y-66467752D01*
X112819000Y-66450928D01*
X112319000Y-66450928D01*
X112148184Y-66467752D01*
X111983933Y-66517577D01*
X111832558Y-66598488D01*
X111699877Y-66707377D01*
X111590988Y-66840058D01*
X111510077Y-66991433D01*
X111460252Y-67155684D01*
X111443428Y-67326500D01*
X111443428Y-67801500D01*
X111460252Y-67972316D01*
X111510077Y-68136567D01*
X111590988Y-68287942D01*
X111699877Y-68420623D01*
X111832558Y-68529512D01*
X111983933Y-68610423D01*
X112148184Y-68660248D01*
X112319000Y-68677072D01*
X112819000Y-68677072D01*
X112989816Y-68660248D01*
X113154067Y-68610423D01*
X113305442Y-68529512D01*
X113438123Y-68420623D01*
X113517420Y-68324000D01*
X114203080Y-68324000D01*
X114282377Y-68420623D01*
X114415058Y-68529512D01*
X114566433Y-68610423D01*
X114730684Y-68660248D01*
X114901500Y-68677072D01*
X115476500Y-68677072D01*
X115647316Y-68660248D01*
X115811567Y-68610423D01*
X115962942Y-68529512D01*
X116064000Y-68446575D01*
X116165058Y-68529512D01*
X116316433Y-68610423D01*
X116480684Y-68660248D01*
X116651500Y-68677072D01*
X117226500Y-68677072D01*
X117397316Y-68660248D01*
X117561567Y-68610423D01*
X117712942Y-68529512D01*
X117845623Y-68420623D01*
X117924920Y-68324000D01*
X118638580Y-68324000D01*
X118717877Y-68420623D01*
X118762078Y-68456898D01*
X118727377Y-68485377D01*
X118618488Y-68618058D01*
X118537577Y-68769433D01*
X118487752Y-68933684D01*
X118470928Y-69104500D01*
X118470928Y-69579500D01*
X118487752Y-69750316D01*
X118537577Y-69914567D01*
X118618488Y-70065942D01*
X118727377Y-70198623D01*
X118827000Y-70280382D01*
X118827001Y-70344928D01*
X118820130Y-70344928D01*
X118695648Y-70357188D01*
X118575950Y-70393498D01*
X118465636Y-70452463D01*
X118368945Y-70531815D01*
X118289593Y-70628506D01*
X118230628Y-70738820D01*
X118194318Y-70858518D01*
X118182058Y-70983000D01*
X118182058Y-75303000D01*
X118194318Y-75427482D01*
X118230628Y-75547180D01*
X118289593Y-75657494D01*
X118341742Y-75721038D01*
X118313688Y-75813518D01*
X118301428Y-75938000D01*
X118301428Y-77208000D01*
X118313688Y-77332482D01*
X118349998Y-77452180D01*
X118408963Y-77562494D01*
X118488315Y-77659185D01*
X118559982Y-77718000D01*
X118488315Y-77776815D01*
X118408963Y-77873506D01*
X118349998Y-77983820D01*
X118313688Y-78103518D01*
X118301428Y-78228000D01*
X118301428Y-79498000D01*
X118313688Y-79622482D01*
X118349998Y-79742180D01*
X118408963Y-79852494D01*
X118488315Y-79949185D01*
X118559982Y-80008000D01*
X118488315Y-80066815D01*
X118408963Y-80163506D01*
X118396069Y-80187628D01*
X118331315Y-80108725D01*
X118234624Y-80029373D01*
X118124310Y-79970408D01*
X118004612Y-79934098D01*
X117880130Y-79921838D01*
X116610130Y-79921838D01*
X116485648Y-79934098D01*
X116365950Y-79970408D01*
X116255636Y-80029373D01*
X116158945Y-80108725D01*
X116079593Y-80205416D01*
X116020628Y-80315730D01*
X115984318Y-80435428D01*
X115972058Y-80559910D01*
X115972058Y-83218910D01*
X115984318Y-83343392D01*
X116020628Y-83463090D01*
X116079593Y-83573404D01*
X116158945Y-83670095D01*
X116255636Y-83749447D01*
X116365950Y-83808412D01*
X116485648Y-83844722D01*
X116610130Y-83856982D01*
X117880130Y-83856982D01*
X118004612Y-83844722D01*
X118124310Y-83808412D01*
X118234624Y-83749447D01*
X118331315Y-83670095D01*
X118410667Y-83573404D01*
X118469632Y-83463090D01*
X118505942Y-83343392D01*
X118518202Y-83218910D01*
X118518202Y-82263713D01*
X118585006Y-82318537D01*
X118695320Y-82377502D01*
X118815018Y-82413812D01*
X118939500Y-82426072D01*
X119509000Y-82426072D01*
X119509001Y-84397821D01*
X119399877Y-84487377D01*
X119290988Y-84620058D01*
X119210077Y-84771433D01*
X119160252Y-84935684D01*
X119143428Y-85106500D01*
X119143428Y-85581500D01*
X119160252Y-85752316D01*
X119210077Y-85916567D01*
X119290988Y-86067942D01*
X119399877Y-86200623D01*
X119532558Y-86309512D01*
X119683933Y-86390423D01*
X119848184Y-86440248D01*
X120019000Y-86457072D01*
X120519000Y-86457072D01*
X120689816Y-86440248D01*
X120854067Y-86390423D01*
X120994517Y-86315351D01*
X120179869Y-87130000D01*
X116641751Y-87130000D01*
X116586000Y-87124509D01*
X116530249Y-87130000D01*
X110886214Y-87130000D01*
X110819851Y-87094528D01*
X110653255Y-87043992D01*
X110480001Y-87026928D01*
X109229999Y-87026928D01*
X109056745Y-87043992D01*
X108890149Y-87094528D01*
X108736613Y-87176595D01*
X108602038Y-87287038D01*
X108491595Y-87421613D01*
X108409528Y-87575149D01*
X108358992Y-87741745D01*
X108341928Y-87914999D01*
X108341928Y-88615001D01*
X108358992Y-88788255D01*
X108409528Y-88954851D01*
X108491595Y-89108387D01*
X108602038Y-89242962D01*
X108736613Y-89353405D01*
X108741111Y-89355809D01*
X108702498Y-89387498D01*
X108606067Y-89505000D01*
X107724802Y-89505000D01*
X106170000Y-87950199D01*
X106170000Y-79686178D01*
X106279123Y-79596623D01*
X106388012Y-79463942D01*
X106468923Y-79312567D01*
X106518748Y-79148316D01*
X106535572Y-78977500D01*
X106535572Y-78502500D01*
X106518748Y-78331684D01*
X106487296Y-78228000D01*
X107670988Y-78228000D01*
X107670988Y-79498000D01*
X107683248Y-79622482D01*
X107719558Y-79742180D01*
X107778523Y-79852494D01*
X107857875Y-79949185D01*
X107929542Y-80008000D01*
X107857875Y-80066815D01*
X107778523Y-80163506D01*
X107719558Y-80273820D01*
X107683248Y-80393518D01*
X107670988Y-80518000D01*
X107670988Y-81788000D01*
X107683248Y-81912482D01*
X107719558Y-82032180D01*
X107778523Y-82142494D01*
X107857875Y-82239185D01*
X107954566Y-82318537D01*
X108064880Y-82377502D01*
X108184578Y-82413812D01*
X108309060Y-82426072D01*
X110968060Y-82426072D01*
X111092542Y-82413812D01*
X111212240Y-82377502D01*
X111322554Y-82318537D01*
X111402058Y-82253290D01*
X111402058Y-83218910D01*
X111414318Y-83343392D01*
X111450628Y-83463090D01*
X111509593Y-83573404D01*
X111588945Y-83670095D01*
X111685636Y-83749447D01*
X111795950Y-83808412D01*
X111915648Y-83844722D01*
X112040130Y-83856982D01*
X113310130Y-83856982D01*
X113434612Y-83844722D01*
X113554310Y-83808412D01*
X113664624Y-83749447D01*
X113761315Y-83670095D01*
X113840667Y-83573404D01*
X113899632Y-83463090D01*
X113935942Y-83343392D01*
X113948202Y-83218910D01*
X113948202Y-80559910D01*
X113935942Y-80435428D01*
X113899632Y-80315730D01*
X113840667Y-80205416D01*
X113761315Y-80108725D01*
X113664624Y-80029373D01*
X113554310Y-79970408D01*
X113434612Y-79934098D01*
X113310130Y-79921838D01*
X112040130Y-79921838D01*
X111915648Y-79934098D01*
X111795950Y-79970408D01*
X111685636Y-80029373D01*
X111588945Y-80108725D01*
X111516500Y-80197000D01*
X111498597Y-80163506D01*
X111419245Y-80066815D01*
X111347578Y-80008000D01*
X111419245Y-79949185D01*
X111498597Y-79852494D01*
X111557562Y-79742180D01*
X111593872Y-79622482D01*
X111606132Y-79498000D01*
X111606132Y-78228000D01*
X111593872Y-78103518D01*
X111557562Y-77983820D01*
X111498597Y-77873506D01*
X111419245Y-77776815D01*
X111322554Y-77697463D01*
X111212240Y-77638498D01*
X111092542Y-77602188D01*
X110968060Y-77589928D01*
X108309060Y-77589928D01*
X108184578Y-77602188D01*
X108064880Y-77638498D01*
X107954566Y-77697463D01*
X107857875Y-77776815D01*
X107778523Y-77873506D01*
X107719558Y-77983820D01*
X107683248Y-78103518D01*
X107670988Y-78228000D01*
X106487296Y-78228000D01*
X106468923Y-78167433D01*
X106388012Y-78016058D01*
X106279123Y-77883377D01*
X106170000Y-77793822D01*
X106170000Y-77199116D01*
X106236567Y-77178923D01*
X106387942Y-77098012D01*
X106520623Y-76989123D01*
X106629512Y-76856442D01*
X106710423Y-76705067D01*
X106760248Y-76540816D01*
X106777072Y-76370000D01*
X106777072Y-75870000D01*
X106760248Y-75699184D01*
X106710423Y-75534933D01*
X106654336Y-75430000D01*
X107042809Y-75430000D01*
X107098560Y-75435491D01*
X107154311Y-75430000D01*
X107154312Y-75430000D01*
X107321059Y-75413577D01*
X107535007Y-75348676D01*
X107732183Y-75243284D01*
X107905009Y-75101449D01*
X107940556Y-75058135D01*
X109342836Y-73655856D01*
X109360401Y-73655606D01*
X109365130Y-73656072D01*
X113385130Y-73656072D01*
X113509612Y-73643812D01*
X113629310Y-73607502D01*
X113739624Y-73548537D01*
X113836315Y-73469185D01*
X113915667Y-73372494D01*
X113974632Y-73262180D01*
X114010942Y-73142482D01*
X114023202Y-73018000D01*
X114023202Y-72175451D01*
X114032130Y-72084800D01*
X114032130Y-69925800D01*
X114019870Y-69801318D01*
X113983560Y-69681620D01*
X113924595Y-69571306D01*
X113845243Y-69474615D01*
X113748552Y-69395263D01*
X113638238Y-69336298D01*
X113518540Y-69299988D01*
X113394058Y-69287728D01*
X112124058Y-69287728D01*
X111999576Y-69299988D01*
X111879878Y-69336298D01*
X111769564Y-69395263D01*
X111672873Y-69474615D01*
X111593521Y-69571306D01*
X111534556Y-69681620D01*
X111498246Y-69801318D01*
X111485986Y-69925800D01*
X111485986Y-70349928D01*
X109365130Y-70349928D01*
X109344697Y-70351940D01*
X109340606Y-70351914D01*
X107815000Y-68826309D01*
X107815000Y-64605131D01*
X108143131Y-64277000D01*
X123964525Y-64277000D01*
X124092111Y-64251622D01*
X124221550Y-64238873D01*
X124346012Y-64201118D01*
X124473601Y-64175739D01*
X124593787Y-64125956D01*
X124718250Y-64088201D01*
X124832958Y-64026889D01*
X124953141Y-63977107D01*
X125061301Y-63904837D01*
X125176011Y-63843523D01*
X125276556Y-63761008D01*
X125384715Y-63688738D01*
X125476699Y-63596754D01*
X125577241Y-63514241D01*
X125659756Y-63413697D01*
X125751738Y-63321715D01*
X125824008Y-63213556D01*
X125906523Y-63113011D01*
X125967837Y-62998301D01*
X126040107Y-62890141D01*
X126089889Y-62769958D01*
X126151201Y-62655250D01*
X126188956Y-62530787D01*
X126238739Y-62410601D01*
X126264118Y-62283012D01*
X126301873Y-62158550D01*
X126314622Y-62029111D01*
X126340000Y-61901525D01*
X126340000Y-61771442D01*
X126352749Y-61642000D01*
X126340000Y-61512558D01*
X126340000Y-61382475D01*
X126314622Y-61254889D01*
X126301873Y-61125450D01*
X126264118Y-61000988D01*
X126238739Y-60873399D01*
X126188956Y-60753213D01*
X126151201Y-60628750D01*
X126089889Y-60514042D01*
X126040107Y-60393859D01*
X125967837Y-60285699D01*
X125906523Y-60170989D01*
X125824008Y-60070444D01*
X125751738Y-59962285D01*
X125659754Y-59870301D01*
X125577241Y-59769759D01*
X125476698Y-59687245D01*
X125384715Y-59595262D01*
X125276556Y-59522992D01*
X125176011Y-59440477D01*
X125061301Y-59379163D01*
X124953141Y-59306893D01*
X124832958Y-59257111D01*
X124718250Y-59195799D01*
X124593787Y-59158044D01*
X124473601Y-59108261D01*
X124346012Y-59082882D01*
X124221550Y-59045127D01*
X124092111Y-59032378D01*
X123964525Y-59007000D01*
X104777434Y-59007000D01*
X104648000Y-58994252D01*
X104518566Y-59007000D01*
X104388475Y-59007000D01*
X104260889Y-59032378D01*
X104131450Y-59045127D01*
X104006988Y-59082882D01*
X103879399Y-59108261D01*
X103759213Y-59158044D01*
X103634750Y-59195799D01*
X103520042Y-59257111D01*
X103399859Y-59306893D01*
X103291699Y-59379163D01*
X103176989Y-59440477D01*
X103076444Y-59522992D01*
X102968285Y-59595262D01*
X102876302Y-59687245D01*
X102775759Y-59769759D01*
X102693246Y-59870301D01*
X102601262Y-59962285D01*
X102601260Y-59962288D01*
X94748302Y-67815246D01*
X94647760Y-67897759D01*
X94565247Y-67998301D01*
X94565245Y-67998303D01*
X94525331Y-68046939D01*
X94318478Y-68298989D01*
X94223870Y-68475988D01*
X94180001Y-68558062D01*
X94180001Y-59278535D01*
X94223443Y-59321977D01*
X94794235Y-59703368D01*
X95428464Y-59966074D01*
X96101759Y-60100001D01*
X96788243Y-60100001D01*
X97461538Y-59966074D01*
X98095767Y-59703368D01*
X98666559Y-59321977D01*
X99151977Y-58836559D01*
X99533368Y-58265767D01*
X99796074Y-57631538D01*
X99930001Y-56958243D01*
X99930001Y-56271759D01*
X99796074Y-55598464D01*
X99533368Y-54964235D01*
X99151977Y-54393443D01*
X99108535Y-54350001D01*
X128781466Y-54350001D01*
X128738024Y-54393443D01*
%TA.AperFunction,Conductor*%
D29*
G36*
X128738024Y-54393443D02*
G01*
X128356633Y-54964235D01*
X128093927Y-55598464D01*
X127960000Y-56271759D01*
X127960000Y-56958243D01*
X128093927Y-57631538D01*
X128356633Y-58265767D01*
X128738024Y-58836559D01*
X129223442Y-59321977D01*
X129794234Y-59703368D01*
X130428463Y-59966074D01*
X131101758Y-60100001D01*
X131788242Y-60100001D01*
X132461537Y-59966074D01*
X133095766Y-59703368D01*
X133666558Y-59321977D01*
X133710000Y-59278535D01*
X133710001Y-88951467D01*
X133666558Y-88908024D01*
X133095766Y-88526633D01*
X132461537Y-88263927D01*
X131788242Y-88130000D01*
X131101758Y-88130000D01*
X130428463Y-88263927D01*
X129794234Y-88526633D01*
X129223442Y-88908024D01*
X128738024Y-89393442D01*
X128356633Y-89964234D01*
X128093927Y-90598463D01*
X127960000Y-91271758D01*
X127960000Y-91958242D01*
X128093927Y-92631537D01*
X128356633Y-93265766D01*
X128738024Y-93836558D01*
X128781466Y-93880000D01*
X99108535Y-93880000D01*
X99151977Y-93836558D01*
X99533368Y-93265766D01*
X99796074Y-92631537D01*
X99930001Y-91958242D01*
X99930001Y-91271758D01*
X99796074Y-90598463D01*
X99533368Y-89964234D01*
X99151977Y-89393442D01*
X98666559Y-88908024D01*
X98095767Y-88526633D01*
X97461538Y-88263927D01*
X96788243Y-88130000D01*
X96101759Y-88130000D01*
X95428464Y-88263927D01*
X94794235Y-88526633D01*
X94223443Y-88908024D01*
X94180001Y-88951466D01*
X94180001Y-73855939D01*
X94318477Y-74115010D01*
X94647759Y-74516241D01*
X95048989Y-74845523D01*
X95506750Y-75090201D01*
X96003450Y-75240873D01*
X96520000Y-75291749D01*
X97036549Y-75240873D01*
X97533249Y-75090201D01*
X97991010Y-74845523D01*
X98392241Y-74516241D01*
X98721523Y-74115011D01*
X98901124Y-73779000D01*
X101383869Y-73779000D01*
X102166928Y-74562060D01*
X102166928Y-74620001D01*
X102183992Y-74793255D01*
X102234528Y-74959851D01*
X102316595Y-75113387D01*
X102427038Y-75247962D01*
X102561613Y-75358405D01*
X102715149Y-75440472D01*
X102881745Y-75491008D01*
X103054999Y-75508072D01*
X103955001Y-75508072D01*
X104128255Y-75491008D01*
X104294851Y-75440472D01*
X104314443Y-75430000D01*
X104673664Y-75430000D01*
X104617577Y-75534933D01*
X104567752Y-75699184D01*
X104550928Y-75870000D01*
X104550928Y-76370000D01*
X104567752Y-76540816D01*
X104617577Y-76705067D01*
X104650001Y-76765728D01*
X104650000Y-77793821D01*
X104540877Y-77883377D01*
X104431988Y-78016058D01*
X104351077Y-78167433D01*
X104301252Y-78331684D01*
X104284428Y-78502500D01*
X104284428Y-78977500D01*
X104301252Y-79148316D01*
X104351077Y-79312567D01*
X104431988Y-79463942D01*
X104540877Y-79596623D01*
X104650000Y-79686178D01*
X104650001Y-88227668D01*
X104646324Y-88265000D01*
X104660998Y-88413985D01*
X104704454Y-88557246D01*
X104775026Y-88689276D01*
X104846201Y-88776002D01*
X104870000Y-88805001D01*
X104898998Y-88828799D01*
X106846201Y-90776003D01*
X106869999Y-90805001D01*
X106898997Y-90828799D01*
X106985723Y-90899974D01*
X107087638Y-90954449D01*
X107117753Y-90970546D01*
X107261014Y-91014003D01*
X107372667Y-91025000D01*
X107372676Y-91025000D01*
X107409999Y-91028676D01*
X107447322Y-91025000D01*
X108606067Y-91025000D01*
X108702498Y-91142502D01*
X108890551Y-91296833D01*
X109105099Y-91411511D01*
X109337898Y-91482130D01*
X109519335Y-91500000D01*
X110190665Y-91500000D01*
X110372102Y-91482130D01*
X110604901Y-91411511D01*
X110819449Y-91296833D01*
X111007502Y-91142502D01*
X111161833Y-90954449D01*
X111276511Y-90739901D01*
X111347130Y-90507102D01*
X111370975Y-90265000D01*
X111347130Y-90022898D01*
X111276511Y-89790099D01*
X111161833Y-89575551D01*
X111017762Y-89400000D01*
X116115869Y-89400000D01*
X116850928Y-90135060D01*
X116850928Y-90393001D01*
X116867992Y-90566255D01*
X116918528Y-90732851D01*
X117000595Y-90886387D01*
X117111038Y-91020962D01*
X117245613Y-91131405D01*
X117399149Y-91213472D01*
X117565745Y-91264008D01*
X117738999Y-91281072D01*
X118989001Y-91281072D01*
X119162255Y-91264008D01*
X119328851Y-91213472D01*
X119395214Y-91178000D01*
X123047786Y-91178000D01*
X123114149Y-91213472D01*
X123280745Y-91264008D01*
X123453999Y-91281072D01*
X124704001Y-91281072D01*
X124877255Y-91264008D01*
X125043851Y-91213472D01*
X125197387Y-91131405D01*
X125331962Y-91020962D01*
X125442405Y-90886387D01*
X125524472Y-90732851D01*
X125575008Y-90566255D01*
X125592072Y-90393001D01*
X125592072Y-90135059D01*
X130811141Y-84915991D01*
X130854449Y-84880449D01*
X130996284Y-84707623D01*
X131101676Y-84510447D01*
X131166577Y-84296499D01*
X131183000Y-84129752D01*
X131188491Y-84074000D01*
X131183000Y-84018248D01*
X131183000Y-83708214D01*
X131218472Y-83641851D01*
X131269008Y-83475255D01*
X131286072Y-83302001D01*
X131286072Y-82051999D01*
X131269008Y-81878745D01*
X131218472Y-81712149D01*
X131183000Y-81645786D01*
X131183000Y-77668958D01*
X131191072Y-77587001D01*
X131191072Y-76336999D01*
X131183000Y-76255042D01*
X131183000Y-72278214D01*
X131218472Y-72211851D01*
X131269008Y-72045255D01*
X131286072Y-71872001D01*
X131286072Y-70621999D01*
X131269008Y-70448745D01*
X131218472Y-70282149D01*
X131183000Y-70215786D01*
X131183000Y-66563214D01*
X131218472Y-66496851D01*
X131269008Y-66330255D01*
X131286072Y-66157001D01*
X131286072Y-64906999D01*
X131269008Y-64733745D01*
X131218472Y-64567149D01*
X131136405Y-64413613D01*
X131025962Y-64279038D01*
X130891387Y-64168595D01*
X130737851Y-64086528D01*
X130571255Y-64035992D01*
X130398001Y-64018928D01*
X129697999Y-64018928D01*
X129524745Y-64035992D01*
X129358149Y-64086528D01*
X129204613Y-64168595D01*
X129070038Y-64279038D01*
X128973229Y-64397000D01*
X126293741Y-64397000D01*
X126237999Y-64391510D01*
X126182257Y-64397000D01*
X126182248Y-64397000D01*
X126015501Y-64413423D01*
X125801553Y-64478324D01*
X125604377Y-64583716D01*
X125431551Y-64725551D01*
X125396009Y-64768859D01*
X123061865Y-67103004D01*
X123018551Y-67138551D01*
X122876716Y-67311377D01*
X122771324Y-67508553D01*
X122706423Y-67722501D01*
X122684509Y-67945000D01*
X122690001Y-68000761D01*
X122690000Y-69794245D01*
X122684509Y-69850000D01*
X122690000Y-69905751D01*
X122690000Y-70308368D01*
X122128369Y-70870000D01*
X121990204Y-70870000D01*
X121952994Y-70839463D01*
X121842680Y-70780498D01*
X121722982Y-70744188D01*
X121598500Y-70731928D01*
X121135948Y-70731928D01*
X121080667Y-70628506D01*
X121001315Y-70531815D01*
X120904624Y-70452463D01*
X120794310Y-70393498D01*
X120674612Y-70357188D01*
X120550130Y-70344928D01*
X120347000Y-70344928D01*
X120347000Y-70340086D01*
X120407942Y-70307512D01*
X120540623Y-70198623D01*
X120649512Y-70065942D01*
X120730423Y-69914567D01*
X120780248Y-69750316D01*
X120797072Y-69579500D01*
X120797072Y-69104500D01*
X120780248Y-68933684D01*
X120730423Y-68769433D01*
X120649512Y-68618058D01*
X120540623Y-68485377D01*
X120458376Y-68417878D01*
X120565012Y-68287942D01*
X120645923Y-68136567D01*
X120695748Y-67972316D01*
X120712572Y-67801500D01*
X120712572Y-67326500D01*
X120695748Y-67155684D01*
X120645923Y-66991433D01*
X120565012Y-66840058D01*
X120456123Y-66707377D01*
X120323442Y-66598488D01*
X120172067Y-66517577D01*
X120007816Y-66467752D01*
X119837000Y-66450928D01*
X119337000Y-66450928D01*
X119166184Y-66467752D01*
X119001933Y-66517577D01*
X118850558Y-66598488D01*
X118717877Y-66707377D01*
X118638580Y-66804000D01*
X117924920Y-66804000D01*
X117845623Y-66707377D01*
X117712942Y-66598488D01*
X117561567Y-66517577D01*
X117397316Y-66467752D01*
X117226500Y-66450928D01*
X116651500Y-66450928D01*
X116480684Y-66467752D01*
X116316433Y-66517577D01*
X116165058Y-66598488D01*
X116064000Y-66681425D01*
X115962942Y-66598488D01*
X115811567Y-66517577D01*
X115647316Y-66467752D01*
X115476500Y-66450928D01*
X114901500Y-66450928D01*
X114730684Y-66467752D01*
X114566433Y-66517577D01*
X114415058Y-66598488D01*
X114282377Y-66707377D01*
X114203080Y-66804000D01*
X113517420Y-66804000D01*
X113438123Y-66707377D01*
X113305442Y-66598488D01*
X113154067Y-66517577D01*
X112989816Y-66467752D01*
X112819000Y-66450928D01*
X112319000Y-66450928D01*
X112148184Y-66467752D01*
X111983933Y-66517577D01*
X111832558Y-66598488D01*
X111699877Y-66707377D01*
X111590988Y-66840058D01*
X111510077Y-66991433D01*
X111460252Y-67155684D01*
X111443428Y-67326500D01*
X111443428Y-67801500D01*
X111460252Y-67972316D01*
X111510077Y-68136567D01*
X111590988Y-68287942D01*
X111699877Y-68420623D01*
X111832558Y-68529512D01*
X111983933Y-68610423D01*
X112148184Y-68660248D01*
X112319000Y-68677072D01*
X112819000Y-68677072D01*
X112989816Y-68660248D01*
X113154067Y-68610423D01*
X113305442Y-68529512D01*
X113438123Y-68420623D01*
X113517420Y-68324000D01*
X114203080Y-68324000D01*
X114282377Y-68420623D01*
X114415058Y-68529512D01*
X114566433Y-68610423D01*
X114730684Y-68660248D01*
X114901500Y-68677072D01*
X115476500Y-68677072D01*
X115647316Y-68660248D01*
X115811567Y-68610423D01*
X115962942Y-68529512D01*
X116064000Y-68446575D01*
X116165058Y-68529512D01*
X116316433Y-68610423D01*
X116480684Y-68660248D01*
X116651500Y-68677072D01*
X117226500Y-68677072D01*
X117397316Y-68660248D01*
X117561567Y-68610423D01*
X117712942Y-68529512D01*
X117845623Y-68420623D01*
X117924920Y-68324000D01*
X118638580Y-68324000D01*
X118717877Y-68420623D01*
X118762078Y-68456898D01*
X118727377Y-68485377D01*
X118618488Y-68618058D01*
X118537577Y-68769433D01*
X118487752Y-68933684D01*
X118470928Y-69104500D01*
X118470928Y-69579500D01*
X118487752Y-69750316D01*
X118537577Y-69914567D01*
X118618488Y-70065942D01*
X118727377Y-70198623D01*
X118827000Y-70280382D01*
X118827001Y-70344928D01*
X118820130Y-70344928D01*
X118695648Y-70357188D01*
X118575950Y-70393498D01*
X118465636Y-70452463D01*
X118368945Y-70531815D01*
X118289593Y-70628506D01*
X118230628Y-70738820D01*
X118194318Y-70858518D01*
X118182058Y-70983000D01*
X118182058Y-75303000D01*
X118194318Y-75427482D01*
X118230628Y-75547180D01*
X118289593Y-75657494D01*
X118341742Y-75721038D01*
X118313688Y-75813518D01*
X118301428Y-75938000D01*
X118301428Y-77208000D01*
X118313688Y-77332482D01*
X118349998Y-77452180D01*
X118408963Y-77562494D01*
X118488315Y-77659185D01*
X118559982Y-77718000D01*
X118488315Y-77776815D01*
X118408963Y-77873506D01*
X118349998Y-77983820D01*
X118313688Y-78103518D01*
X118301428Y-78228000D01*
X118301428Y-79498000D01*
X118313688Y-79622482D01*
X118349998Y-79742180D01*
X118408963Y-79852494D01*
X118488315Y-79949185D01*
X118559982Y-80008000D01*
X118488315Y-80066815D01*
X118408963Y-80163506D01*
X118396069Y-80187628D01*
X118331315Y-80108725D01*
X118234624Y-80029373D01*
X118124310Y-79970408D01*
X118004612Y-79934098D01*
X117880130Y-79921838D01*
X116610130Y-79921838D01*
X116485648Y-79934098D01*
X116365950Y-79970408D01*
X116255636Y-80029373D01*
X116158945Y-80108725D01*
X116079593Y-80205416D01*
X116020628Y-80315730D01*
X115984318Y-80435428D01*
X115972058Y-80559910D01*
X115972058Y-83218910D01*
X115984318Y-83343392D01*
X116020628Y-83463090D01*
X116079593Y-83573404D01*
X116158945Y-83670095D01*
X116255636Y-83749447D01*
X116365950Y-83808412D01*
X116485648Y-83844722D01*
X116610130Y-83856982D01*
X117880130Y-83856982D01*
X118004612Y-83844722D01*
X118124310Y-83808412D01*
X118234624Y-83749447D01*
X118331315Y-83670095D01*
X118410667Y-83573404D01*
X118469632Y-83463090D01*
X118505942Y-83343392D01*
X118518202Y-83218910D01*
X118518202Y-82263713D01*
X118585006Y-82318537D01*
X118695320Y-82377502D01*
X118815018Y-82413812D01*
X118939500Y-82426072D01*
X119509000Y-82426072D01*
X119509001Y-84397821D01*
X119399877Y-84487377D01*
X119290988Y-84620058D01*
X119210077Y-84771433D01*
X119160252Y-84935684D01*
X119143428Y-85106500D01*
X119143428Y-85581500D01*
X119160252Y-85752316D01*
X119210077Y-85916567D01*
X119290988Y-86067942D01*
X119399877Y-86200623D01*
X119532558Y-86309512D01*
X119683933Y-86390423D01*
X119848184Y-86440248D01*
X120019000Y-86457072D01*
X120519000Y-86457072D01*
X120689816Y-86440248D01*
X120854067Y-86390423D01*
X120994517Y-86315351D01*
X120179869Y-87130000D01*
X116641751Y-87130000D01*
X116586000Y-87124509D01*
X116530249Y-87130000D01*
X110886214Y-87130000D01*
X110819851Y-87094528D01*
X110653255Y-87043992D01*
X110480001Y-87026928D01*
X109229999Y-87026928D01*
X109056745Y-87043992D01*
X108890149Y-87094528D01*
X108736613Y-87176595D01*
X108602038Y-87287038D01*
X108491595Y-87421613D01*
X108409528Y-87575149D01*
X108358992Y-87741745D01*
X108341928Y-87914999D01*
X108341928Y-88615001D01*
X108358992Y-88788255D01*
X108409528Y-88954851D01*
X108491595Y-89108387D01*
X108602038Y-89242962D01*
X108736613Y-89353405D01*
X108741111Y-89355809D01*
X108702498Y-89387498D01*
X108606067Y-89505000D01*
X107724802Y-89505000D01*
X106170000Y-87950199D01*
X106170000Y-79686178D01*
X106279123Y-79596623D01*
X106388012Y-79463942D01*
X106468923Y-79312567D01*
X106518748Y-79148316D01*
X106535572Y-78977500D01*
X106535572Y-78502500D01*
X106518748Y-78331684D01*
X106487296Y-78228000D01*
X107670988Y-78228000D01*
X107670988Y-79498000D01*
X107683248Y-79622482D01*
X107719558Y-79742180D01*
X107778523Y-79852494D01*
X107857875Y-79949185D01*
X107929542Y-80008000D01*
X107857875Y-80066815D01*
X107778523Y-80163506D01*
X107719558Y-80273820D01*
X107683248Y-80393518D01*
X107670988Y-80518000D01*
X107670988Y-81788000D01*
X107683248Y-81912482D01*
X107719558Y-82032180D01*
X107778523Y-82142494D01*
X107857875Y-82239185D01*
X107954566Y-82318537D01*
X108064880Y-82377502D01*
X108184578Y-82413812D01*
X108309060Y-82426072D01*
X110968060Y-82426072D01*
X111092542Y-82413812D01*
X111212240Y-82377502D01*
X111322554Y-82318537D01*
X111402058Y-82253290D01*
X111402058Y-83218910D01*
X111414318Y-83343392D01*
X111450628Y-83463090D01*
X111509593Y-83573404D01*
X111588945Y-83670095D01*
X111685636Y-83749447D01*
X111795950Y-83808412D01*
X111915648Y-83844722D01*
X112040130Y-83856982D01*
X113310130Y-83856982D01*
X113434612Y-83844722D01*
X113554310Y-83808412D01*
X113664624Y-83749447D01*
X113761315Y-83670095D01*
X113840667Y-83573404D01*
X113899632Y-83463090D01*
X113935942Y-83343392D01*
X113948202Y-83218910D01*
X113948202Y-80559910D01*
X113935942Y-80435428D01*
X113899632Y-80315730D01*
X113840667Y-80205416D01*
X113761315Y-80108725D01*
X113664624Y-80029373D01*
X113554310Y-79970408D01*
X113434612Y-79934098D01*
X113310130Y-79921838D01*
X112040130Y-79921838D01*
X111915648Y-79934098D01*
X111795950Y-79970408D01*
X111685636Y-80029373D01*
X111588945Y-80108725D01*
X111516500Y-80197000D01*
X111498597Y-80163506D01*
X111419245Y-80066815D01*
X111347578Y-80008000D01*
X111419245Y-79949185D01*
X111498597Y-79852494D01*
X111557562Y-79742180D01*
X111593872Y-79622482D01*
X111606132Y-79498000D01*
X111606132Y-78228000D01*
X111593872Y-78103518D01*
X111557562Y-77983820D01*
X111498597Y-77873506D01*
X111419245Y-77776815D01*
X111322554Y-77697463D01*
X111212240Y-77638498D01*
X111092542Y-77602188D01*
X110968060Y-77589928D01*
X108309060Y-77589928D01*
X108184578Y-77602188D01*
X108064880Y-77638498D01*
X107954566Y-77697463D01*
X107857875Y-77776815D01*
X107778523Y-77873506D01*
X107719558Y-77983820D01*
X107683248Y-78103518D01*
X107670988Y-78228000D01*
X106487296Y-78228000D01*
X106468923Y-78167433D01*
X106388012Y-78016058D01*
X106279123Y-77883377D01*
X106170000Y-77793822D01*
X106170000Y-77199116D01*
X106236567Y-77178923D01*
X106387942Y-77098012D01*
X106520623Y-76989123D01*
X106629512Y-76856442D01*
X106710423Y-76705067D01*
X106760248Y-76540816D01*
X106777072Y-76370000D01*
X106777072Y-75870000D01*
X106760248Y-75699184D01*
X106710423Y-75534933D01*
X106654336Y-75430000D01*
X107042809Y-75430000D01*
X107098560Y-75435491D01*
X107154311Y-75430000D01*
X107154312Y-75430000D01*
X107321059Y-75413577D01*
X107535007Y-75348676D01*
X107732183Y-75243284D01*
X107905009Y-75101449D01*
X107940556Y-75058135D01*
X109342836Y-73655856D01*
X109360401Y-73655606D01*
X109365130Y-73656072D01*
X113385130Y-73656072D01*
X113509612Y-73643812D01*
X113629310Y-73607502D01*
X113739624Y-73548537D01*
X113836315Y-73469185D01*
X113915667Y-73372494D01*
X113974632Y-73262180D01*
X114010942Y-73142482D01*
X114023202Y-73018000D01*
X114023202Y-72175451D01*
X114032130Y-72084800D01*
X114032130Y-69925800D01*
X114019870Y-69801318D01*
X113983560Y-69681620D01*
X113924595Y-69571306D01*
X113845243Y-69474615D01*
X113748552Y-69395263D01*
X113638238Y-69336298D01*
X113518540Y-69299988D01*
X113394058Y-69287728D01*
X112124058Y-69287728D01*
X111999576Y-69299988D01*
X111879878Y-69336298D01*
X111769564Y-69395263D01*
X111672873Y-69474615D01*
X111593521Y-69571306D01*
X111534556Y-69681620D01*
X111498246Y-69801318D01*
X111485986Y-69925800D01*
X111485986Y-70349928D01*
X109365130Y-70349928D01*
X109344697Y-70351940D01*
X109340606Y-70351914D01*
X107815000Y-68826309D01*
X107815000Y-64605131D01*
X108143131Y-64277000D01*
X123964525Y-64277000D01*
X124092111Y-64251622D01*
X124221550Y-64238873D01*
X124346012Y-64201118D01*
X124473601Y-64175739D01*
X124593787Y-64125956D01*
X124718250Y-64088201D01*
X124832958Y-64026889D01*
X124953141Y-63977107D01*
X125061301Y-63904837D01*
X125176011Y-63843523D01*
X125276556Y-63761008D01*
X125384715Y-63688738D01*
X125476699Y-63596754D01*
X125577241Y-63514241D01*
X125659756Y-63413697D01*
X125751738Y-63321715D01*
X125824008Y-63213556D01*
X125906523Y-63113011D01*
X125967837Y-62998301D01*
X126040107Y-62890141D01*
X126089889Y-62769958D01*
X126151201Y-62655250D01*
X126188956Y-62530787D01*
X126238739Y-62410601D01*
X126264118Y-62283012D01*
X126301873Y-62158550D01*
X126314622Y-62029111D01*
X126340000Y-61901525D01*
X126340000Y-61771442D01*
X126352749Y-61642000D01*
X126340000Y-61512558D01*
X126340000Y-61382475D01*
X126314622Y-61254889D01*
X126301873Y-61125450D01*
X126264118Y-61000988D01*
X126238739Y-60873399D01*
X126188956Y-60753213D01*
X126151201Y-60628750D01*
X126089889Y-60514042D01*
X126040107Y-60393859D01*
X125967837Y-60285699D01*
X125906523Y-60170989D01*
X125824008Y-60070444D01*
X125751738Y-59962285D01*
X125659754Y-59870301D01*
X125577241Y-59769759D01*
X125476698Y-59687245D01*
X125384715Y-59595262D01*
X125276556Y-59522992D01*
X125176011Y-59440477D01*
X125061301Y-59379163D01*
X124953141Y-59306893D01*
X124832958Y-59257111D01*
X124718250Y-59195799D01*
X124593787Y-59158044D01*
X124473601Y-59108261D01*
X124346012Y-59082882D01*
X124221550Y-59045127D01*
X124092111Y-59032378D01*
X123964525Y-59007000D01*
X104777434Y-59007000D01*
X104648000Y-58994252D01*
X104518566Y-59007000D01*
X104388475Y-59007000D01*
X104260889Y-59032378D01*
X104131450Y-59045127D01*
X104006988Y-59082882D01*
X103879399Y-59108261D01*
X103759213Y-59158044D01*
X103634750Y-59195799D01*
X103520042Y-59257111D01*
X103399859Y-59306893D01*
X103291699Y-59379163D01*
X103176989Y-59440477D01*
X103076444Y-59522992D01*
X102968285Y-59595262D01*
X102876302Y-59687245D01*
X102775759Y-59769759D01*
X102693246Y-59870301D01*
X102601262Y-59962285D01*
X102601260Y-59962288D01*
X94748302Y-67815246D01*
X94647760Y-67897759D01*
X94565247Y-67998301D01*
X94565245Y-67998303D01*
X94525331Y-68046939D01*
X94318478Y-68298989D01*
X94223870Y-68475988D01*
X94180001Y-68558062D01*
X94180001Y-59278535D01*
X94223443Y-59321977D01*
X94794235Y-59703368D01*
X95428464Y-59966074D01*
X96101759Y-60100001D01*
X96788243Y-60100001D01*
X97461538Y-59966074D01*
X98095767Y-59703368D01*
X98666559Y-59321977D01*
X99151977Y-58836559D01*
X99533368Y-58265767D01*
X99796074Y-57631538D01*
X99930001Y-56958243D01*
X99930001Y-56271759D01*
X99796074Y-55598464D01*
X99533368Y-54964235D01*
X99151977Y-54393443D01*
X99108535Y-54350001D01*
X128781466Y-54350001D01*
X128738024Y-54393443D01*
G37*
%TD.AperFunction*%
%TD*%
M02*
