G04 #@! TF.GenerationSoftware,KiCad,Pcbnew,(5.1.2)-1*
G04 #@! TF.CreationDate,2020-06-21T17:40:51+09:00*
G04 #@! TF.ProjectId,universal_power_board,756e6976-6572-4736-916c-5f706f776572,rev?*
G04 #@! TF.SameCoordinates,Original*
G04 #@! TF.FileFunction,Legend,Top*
G04 #@! TF.FilePolarity,Positive*
%FSLAX46Y46*%
G04 Gerber Fmt 4.6, Leading zero omitted, Abs format (unit mm)*
G04 Created by KiCad (PCBNEW (5.1.2)-1) date 2020-06-21 17:40:51*
%MOMM*%
%LPD*%
G04 APERTURE LIST*
%ADD10C,0.100000*%
%ADD11C,0.150000*%
%ADD12C,0.120000*%
%ADD13C,0.254000*%
G04 APERTURE END LIST*
D10*
X168208371Y-144197457D02*
X168665514Y-144197457D01*
X168436942Y-144426028D02*
X168436942Y-143968885D01*
X169236942Y-143826028D02*
X168951228Y-143826028D01*
X168922657Y-144111742D01*
X168951228Y-144083171D01*
X169008371Y-144054600D01*
X169151228Y-144054600D01*
X169208371Y-144083171D01*
X169236942Y-144111742D01*
X169265514Y-144168885D01*
X169265514Y-144311742D01*
X169236942Y-144368885D01*
X169208371Y-144397457D01*
X169151228Y-144426028D01*
X169008371Y-144426028D01*
X168951228Y-144397457D01*
X168922657Y-144368885D01*
X169436942Y-143826028D02*
X169636942Y-144426028D01*
X169836942Y-143826028D01*
X129708371Y-144197457D02*
X130165514Y-144197457D01*
X129936942Y-144426028D02*
X129936942Y-143968885D01*
X130736942Y-143826028D02*
X130451228Y-143826028D01*
X130422657Y-144111742D01*
X130451228Y-144083171D01*
X130508371Y-144054600D01*
X130651228Y-144054600D01*
X130708371Y-144083171D01*
X130736942Y-144111742D01*
X130765514Y-144168885D01*
X130765514Y-144311742D01*
X130736942Y-144368885D01*
X130708371Y-144397457D01*
X130651228Y-144426028D01*
X130508371Y-144426028D01*
X130451228Y-144397457D01*
X130422657Y-144368885D01*
X130936942Y-143826028D02*
X131136942Y-144426028D01*
X131336942Y-143826028D01*
X168208371Y-106697457D02*
X168665514Y-106697457D01*
X168436942Y-106926028D02*
X168436942Y-106468885D01*
X169236942Y-106326028D02*
X168951228Y-106326028D01*
X168922657Y-106611742D01*
X168951228Y-106583171D01*
X169008371Y-106554600D01*
X169151228Y-106554600D01*
X169208371Y-106583171D01*
X169236942Y-106611742D01*
X169265514Y-106668885D01*
X169265514Y-106811742D01*
X169236942Y-106868885D01*
X169208371Y-106897457D01*
X169151228Y-106926028D01*
X169008371Y-106926028D01*
X168951228Y-106897457D01*
X168922657Y-106868885D01*
X169436942Y-106326028D02*
X169636942Y-106926028D01*
X169836942Y-106326028D01*
X186150257Y-119191200D02*
X186093114Y-119162628D01*
X186007400Y-119162628D01*
X185921685Y-119191200D01*
X185864542Y-119248342D01*
X185835971Y-119305485D01*
X185807400Y-119419771D01*
X185807400Y-119505485D01*
X185835971Y-119619771D01*
X185864542Y-119676914D01*
X185921685Y-119734057D01*
X186007400Y-119762628D01*
X186064542Y-119762628D01*
X186150257Y-119734057D01*
X186178828Y-119705485D01*
X186178828Y-119505485D01*
X186064542Y-119505485D01*
X186435971Y-119762628D02*
X186435971Y-119162628D01*
X186778828Y-119762628D01*
X186778828Y-119162628D01*
X187064542Y-119762628D02*
X187064542Y-119162628D01*
X187207400Y-119162628D01*
X187293114Y-119191200D01*
X187350257Y-119248342D01*
X187378828Y-119305485D01*
X187407400Y-119419771D01*
X187407400Y-119505485D01*
X187378828Y-119619771D01*
X187350257Y-119676914D01*
X187293114Y-119734057D01*
X187207400Y-119762628D01*
X187064542Y-119762628D01*
X147650257Y-119191200D02*
X147593114Y-119162628D01*
X147507400Y-119162628D01*
X147421685Y-119191200D01*
X147364542Y-119248342D01*
X147335971Y-119305485D01*
X147307400Y-119419771D01*
X147307400Y-119505485D01*
X147335971Y-119619771D01*
X147364542Y-119676914D01*
X147421685Y-119734057D01*
X147507400Y-119762628D01*
X147564542Y-119762628D01*
X147650257Y-119734057D01*
X147678828Y-119705485D01*
X147678828Y-119505485D01*
X147564542Y-119505485D01*
X147935971Y-119762628D02*
X147935971Y-119162628D01*
X148278828Y-119762628D01*
X148278828Y-119162628D01*
X148564542Y-119762628D02*
X148564542Y-119162628D01*
X148707400Y-119162628D01*
X148793114Y-119191200D01*
X148850257Y-119248342D01*
X148878828Y-119305485D01*
X148907400Y-119419771D01*
X148907400Y-119505485D01*
X148878828Y-119619771D01*
X148850257Y-119676914D01*
X148793114Y-119734057D01*
X148707400Y-119762628D01*
X148564542Y-119762628D01*
X186150257Y-81691200D02*
X186093114Y-81662628D01*
X186007400Y-81662628D01*
X185921685Y-81691200D01*
X185864542Y-81748342D01*
X185835971Y-81805485D01*
X185807400Y-81919771D01*
X185807400Y-82005485D01*
X185835971Y-82119771D01*
X185864542Y-82176914D01*
X185921685Y-82234057D01*
X186007400Y-82262628D01*
X186064542Y-82262628D01*
X186150257Y-82234057D01*
X186178828Y-82205485D01*
X186178828Y-82005485D01*
X186064542Y-82005485D01*
X186435971Y-82262628D02*
X186435971Y-81662628D01*
X186778828Y-82262628D01*
X186778828Y-81662628D01*
X187064542Y-82262628D02*
X187064542Y-81662628D01*
X187207400Y-81662628D01*
X187293114Y-81691200D01*
X187350257Y-81748342D01*
X187378828Y-81805485D01*
X187407400Y-81919771D01*
X187407400Y-82005485D01*
X187378828Y-82119771D01*
X187350257Y-82176914D01*
X187293114Y-82234057D01*
X187207400Y-82262628D01*
X187064542Y-82262628D01*
X183473771Y-119508657D02*
X183930914Y-119508657D01*
X183702342Y-119737228D02*
X183702342Y-119280085D01*
X184502342Y-119137228D02*
X184216628Y-119137228D01*
X184188057Y-119422942D01*
X184216628Y-119394371D01*
X184273771Y-119365800D01*
X184416628Y-119365800D01*
X184473771Y-119394371D01*
X184502342Y-119422942D01*
X184530914Y-119480085D01*
X184530914Y-119622942D01*
X184502342Y-119680085D01*
X184473771Y-119708657D01*
X184416628Y-119737228D01*
X184273771Y-119737228D01*
X184216628Y-119708657D01*
X184188057Y-119680085D01*
X184702342Y-119137228D02*
X184902342Y-119737228D01*
X185102342Y-119137228D01*
X144973771Y-119508657D02*
X145430914Y-119508657D01*
X145202342Y-119737228D02*
X145202342Y-119280085D01*
X146002342Y-119137228D02*
X145716628Y-119137228D01*
X145688057Y-119422942D01*
X145716628Y-119394371D01*
X145773771Y-119365800D01*
X145916628Y-119365800D01*
X145973771Y-119394371D01*
X146002342Y-119422942D01*
X146030914Y-119480085D01*
X146030914Y-119622942D01*
X146002342Y-119680085D01*
X145973771Y-119708657D01*
X145916628Y-119737228D01*
X145773771Y-119737228D01*
X145716628Y-119708657D01*
X145688057Y-119680085D01*
X146202342Y-119137228D02*
X146402342Y-119737228D01*
X146602342Y-119137228D01*
X183473771Y-82008657D02*
X183930914Y-82008657D01*
X183702342Y-82237228D02*
X183702342Y-81780085D01*
X184502342Y-81637228D02*
X184216628Y-81637228D01*
X184188057Y-81922942D01*
X184216628Y-81894371D01*
X184273771Y-81865800D01*
X184416628Y-81865800D01*
X184473771Y-81894371D01*
X184502342Y-81922942D01*
X184530914Y-81980085D01*
X184530914Y-82122942D01*
X184502342Y-82180085D01*
X184473771Y-82208657D01*
X184416628Y-82237228D01*
X184273771Y-82237228D01*
X184216628Y-82208657D01*
X184188057Y-82180085D01*
X184702342Y-81637228D02*
X184902342Y-82237228D01*
X185102342Y-81637228D01*
D11*
X158671428Y-140900000D02*
X159157142Y-140900000D01*
X159214285Y-140871428D01*
X159242857Y-140842857D01*
X159271428Y-140785714D01*
X159271428Y-140671428D01*
X159242857Y-140614285D01*
X159214285Y-140585714D01*
X159157142Y-140557142D01*
X158671428Y-140557142D01*
X159271428Y-140271428D02*
X158671428Y-140271428D01*
X159271428Y-139928571D01*
X158671428Y-139928571D01*
X159271428Y-139642857D02*
X158671428Y-139642857D01*
X158671428Y-139442857D02*
X159271428Y-139242857D01*
X158671428Y-139042857D01*
X158957142Y-138842857D02*
X158957142Y-138642857D01*
X159271428Y-138557142D02*
X159271428Y-138842857D01*
X158671428Y-138842857D01*
X158671428Y-138557142D01*
X159271428Y-137957142D02*
X158985714Y-138157142D01*
X159271428Y-138300000D02*
X158671428Y-138300000D01*
X158671428Y-138071428D01*
X158700000Y-138014285D01*
X158728571Y-137985714D01*
X158785714Y-137957142D01*
X158871428Y-137957142D01*
X158928571Y-137985714D01*
X158957142Y-138014285D01*
X158985714Y-138071428D01*
X158985714Y-138300000D01*
X159242857Y-137728571D02*
X159271428Y-137642857D01*
X159271428Y-137500000D01*
X159242857Y-137442857D01*
X159214285Y-137414285D01*
X159157142Y-137385714D01*
X159100000Y-137385714D01*
X159042857Y-137414285D01*
X159014285Y-137442857D01*
X158985714Y-137500000D01*
X158957142Y-137614285D01*
X158928571Y-137671428D01*
X158900000Y-137700000D01*
X158842857Y-137728571D01*
X158785714Y-137728571D01*
X158728571Y-137700000D01*
X158700000Y-137671428D01*
X158671428Y-137614285D01*
X158671428Y-137471428D01*
X158700000Y-137385714D01*
X159100000Y-137157142D02*
X159100000Y-136871428D01*
X159271428Y-137214285D02*
X158671428Y-137014285D01*
X159271428Y-136814285D01*
X159271428Y-136328571D02*
X159271428Y-136614285D01*
X158671428Y-136614285D01*
X159271428Y-135671428D02*
X158671428Y-135671428D01*
X158671428Y-135442857D01*
X158700000Y-135385714D01*
X158728571Y-135357142D01*
X158785714Y-135328571D01*
X158871428Y-135328571D01*
X158928571Y-135357142D01*
X158957142Y-135385714D01*
X158985714Y-135442857D01*
X158985714Y-135671428D01*
X158671428Y-134957142D02*
X158671428Y-134842857D01*
X158700000Y-134785714D01*
X158757142Y-134728571D01*
X158871428Y-134700000D01*
X159071428Y-134700000D01*
X159185714Y-134728571D01*
X159242857Y-134785714D01*
X159271428Y-134842857D01*
X159271428Y-134957142D01*
X159242857Y-135014285D01*
X159185714Y-135071428D01*
X159071428Y-135100000D01*
X158871428Y-135100000D01*
X158757142Y-135071428D01*
X158700000Y-135014285D01*
X158671428Y-134957142D01*
X158671428Y-134500000D02*
X159271428Y-134357142D01*
X158842857Y-134242857D01*
X159271428Y-134128571D01*
X158671428Y-133985714D01*
X158957142Y-133757142D02*
X158957142Y-133557142D01*
X159271428Y-133471428D02*
X159271428Y-133757142D01*
X158671428Y-133757142D01*
X158671428Y-133471428D01*
X159271428Y-132871428D02*
X158985714Y-133071428D01*
X159271428Y-133214285D02*
X158671428Y-133214285D01*
X158671428Y-132985714D01*
X158700000Y-132928571D01*
X158728571Y-132900000D01*
X158785714Y-132871428D01*
X158871428Y-132871428D01*
X158928571Y-132900000D01*
X158957142Y-132928571D01*
X158985714Y-132985714D01*
X158985714Y-133214285D01*
X158957142Y-131957142D02*
X158985714Y-131871428D01*
X159014285Y-131842857D01*
X159071428Y-131814285D01*
X159157142Y-131814285D01*
X159214285Y-131842857D01*
X159242857Y-131871428D01*
X159271428Y-131928571D01*
X159271428Y-132157142D01*
X158671428Y-132157142D01*
X158671428Y-131957142D01*
X158700000Y-131900000D01*
X158728571Y-131871428D01*
X158785714Y-131842857D01*
X158842857Y-131842857D01*
X158900000Y-131871428D01*
X158928571Y-131900000D01*
X158957142Y-131957142D01*
X158957142Y-132157142D01*
X158671428Y-131442857D02*
X158671428Y-131328571D01*
X158700000Y-131271428D01*
X158757142Y-131214285D01*
X158871428Y-131185714D01*
X159071428Y-131185714D01*
X159185714Y-131214285D01*
X159242857Y-131271428D01*
X159271428Y-131328571D01*
X159271428Y-131442857D01*
X159242857Y-131500000D01*
X159185714Y-131557142D01*
X159071428Y-131585714D01*
X158871428Y-131585714D01*
X158757142Y-131557142D01*
X158700000Y-131500000D01*
X158671428Y-131442857D01*
X159100000Y-130957142D02*
X159100000Y-130671428D01*
X159271428Y-131014285D02*
X158671428Y-130814285D01*
X159271428Y-130614285D01*
X159271428Y-130071428D02*
X158985714Y-130271428D01*
X159271428Y-130414285D02*
X158671428Y-130414285D01*
X158671428Y-130185714D01*
X158700000Y-130128571D01*
X158728571Y-130100000D01*
X158785714Y-130071428D01*
X158871428Y-130071428D01*
X158928571Y-130100000D01*
X158957142Y-130128571D01*
X158985714Y-130185714D01*
X158985714Y-130414285D01*
X159271428Y-129814285D02*
X158671428Y-129814285D01*
X158671428Y-129671428D01*
X158700000Y-129585714D01*
X158757142Y-129528571D01*
X158814285Y-129500000D01*
X158928571Y-129471428D01*
X159014285Y-129471428D01*
X159128571Y-129500000D01*
X159185714Y-129528571D01*
X159242857Y-129585714D01*
X159271428Y-129671428D01*
X159271428Y-129814285D01*
X158671428Y-128842857D02*
X159271428Y-128642857D01*
X158671428Y-128442857D01*
X159271428Y-127928571D02*
X159271428Y-128271428D01*
X159271428Y-128100000D02*
X158671428Y-128100000D01*
X158757142Y-128157142D01*
X158814285Y-128214285D01*
X158842857Y-128271428D01*
X159214285Y-127671428D02*
X159242857Y-127642857D01*
X159271428Y-127671428D01*
X159242857Y-127700000D01*
X159214285Y-127671428D01*
X159271428Y-127671428D01*
X159271428Y-127071428D02*
X159271428Y-127414285D01*
X159271428Y-127242857D02*
X158671428Y-127242857D01*
X158757142Y-127300000D01*
X158814285Y-127357142D01*
X158842857Y-127414285D01*
X120171428Y-140900000D02*
X120657142Y-140900000D01*
X120714285Y-140871428D01*
X120742857Y-140842857D01*
X120771428Y-140785714D01*
X120771428Y-140671428D01*
X120742857Y-140614285D01*
X120714285Y-140585714D01*
X120657142Y-140557142D01*
X120171428Y-140557142D01*
X120771428Y-140271428D02*
X120171428Y-140271428D01*
X120771428Y-139928571D01*
X120171428Y-139928571D01*
X120771428Y-139642857D02*
X120171428Y-139642857D01*
X120171428Y-139442857D02*
X120771428Y-139242857D01*
X120171428Y-139042857D01*
X120457142Y-138842857D02*
X120457142Y-138642857D01*
X120771428Y-138557142D02*
X120771428Y-138842857D01*
X120171428Y-138842857D01*
X120171428Y-138557142D01*
X120771428Y-137957142D02*
X120485714Y-138157142D01*
X120771428Y-138300000D02*
X120171428Y-138300000D01*
X120171428Y-138071428D01*
X120200000Y-138014285D01*
X120228571Y-137985714D01*
X120285714Y-137957142D01*
X120371428Y-137957142D01*
X120428571Y-137985714D01*
X120457142Y-138014285D01*
X120485714Y-138071428D01*
X120485714Y-138300000D01*
X120742857Y-137728571D02*
X120771428Y-137642857D01*
X120771428Y-137500000D01*
X120742857Y-137442857D01*
X120714285Y-137414285D01*
X120657142Y-137385714D01*
X120600000Y-137385714D01*
X120542857Y-137414285D01*
X120514285Y-137442857D01*
X120485714Y-137500000D01*
X120457142Y-137614285D01*
X120428571Y-137671428D01*
X120400000Y-137700000D01*
X120342857Y-137728571D01*
X120285714Y-137728571D01*
X120228571Y-137700000D01*
X120200000Y-137671428D01*
X120171428Y-137614285D01*
X120171428Y-137471428D01*
X120200000Y-137385714D01*
X120600000Y-137157142D02*
X120600000Y-136871428D01*
X120771428Y-137214285D02*
X120171428Y-137014285D01*
X120771428Y-136814285D01*
X120771428Y-136328571D02*
X120771428Y-136614285D01*
X120171428Y-136614285D01*
X120771428Y-135671428D02*
X120171428Y-135671428D01*
X120171428Y-135442857D01*
X120200000Y-135385714D01*
X120228571Y-135357142D01*
X120285714Y-135328571D01*
X120371428Y-135328571D01*
X120428571Y-135357142D01*
X120457142Y-135385714D01*
X120485714Y-135442857D01*
X120485714Y-135671428D01*
X120171428Y-134957142D02*
X120171428Y-134842857D01*
X120200000Y-134785714D01*
X120257142Y-134728571D01*
X120371428Y-134700000D01*
X120571428Y-134700000D01*
X120685714Y-134728571D01*
X120742857Y-134785714D01*
X120771428Y-134842857D01*
X120771428Y-134957142D01*
X120742857Y-135014285D01*
X120685714Y-135071428D01*
X120571428Y-135100000D01*
X120371428Y-135100000D01*
X120257142Y-135071428D01*
X120200000Y-135014285D01*
X120171428Y-134957142D01*
X120171428Y-134500000D02*
X120771428Y-134357142D01*
X120342857Y-134242857D01*
X120771428Y-134128571D01*
X120171428Y-133985714D01*
X120457142Y-133757142D02*
X120457142Y-133557142D01*
X120771428Y-133471428D02*
X120771428Y-133757142D01*
X120171428Y-133757142D01*
X120171428Y-133471428D01*
X120771428Y-132871428D02*
X120485714Y-133071428D01*
X120771428Y-133214285D02*
X120171428Y-133214285D01*
X120171428Y-132985714D01*
X120200000Y-132928571D01*
X120228571Y-132900000D01*
X120285714Y-132871428D01*
X120371428Y-132871428D01*
X120428571Y-132900000D01*
X120457142Y-132928571D01*
X120485714Y-132985714D01*
X120485714Y-133214285D01*
X120457142Y-131957142D02*
X120485714Y-131871428D01*
X120514285Y-131842857D01*
X120571428Y-131814285D01*
X120657142Y-131814285D01*
X120714285Y-131842857D01*
X120742857Y-131871428D01*
X120771428Y-131928571D01*
X120771428Y-132157142D01*
X120171428Y-132157142D01*
X120171428Y-131957142D01*
X120200000Y-131900000D01*
X120228571Y-131871428D01*
X120285714Y-131842857D01*
X120342857Y-131842857D01*
X120400000Y-131871428D01*
X120428571Y-131900000D01*
X120457142Y-131957142D01*
X120457142Y-132157142D01*
X120171428Y-131442857D02*
X120171428Y-131328571D01*
X120200000Y-131271428D01*
X120257142Y-131214285D01*
X120371428Y-131185714D01*
X120571428Y-131185714D01*
X120685714Y-131214285D01*
X120742857Y-131271428D01*
X120771428Y-131328571D01*
X120771428Y-131442857D01*
X120742857Y-131500000D01*
X120685714Y-131557142D01*
X120571428Y-131585714D01*
X120371428Y-131585714D01*
X120257142Y-131557142D01*
X120200000Y-131500000D01*
X120171428Y-131442857D01*
X120600000Y-130957142D02*
X120600000Y-130671428D01*
X120771428Y-131014285D02*
X120171428Y-130814285D01*
X120771428Y-130614285D01*
X120771428Y-130071428D02*
X120485714Y-130271428D01*
X120771428Y-130414285D02*
X120171428Y-130414285D01*
X120171428Y-130185714D01*
X120200000Y-130128571D01*
X120228571Y-130100000D01*
X120285714Y-130071428D01*
X120371428Y-130071428D01*
X120428571Y-130100000D01*
X120457142Y-130128571D01*
X120485714Y-130185714D01*
X120485714Y-130414285D01*
X120771428Y-129814285D02*
X120171428Y-129814285D01*
X120171428Y-129671428D01*
X120200000Y-129585714D01*
X120257142Y-129528571D01*
X120314285Y-129500000D01*
X120428571Y-129471428D01*
X120514285Y-129471428D01*
X120628571Y-129500000D01*
X120685714Y-129528571D01*
X120742857Y-129585714D01*
X120771428Y-129671428D01*
X120771428Y-129814285D01*
X120171428Y-128842857D02*
X120771428Y-128642857D01*
X120171428Y-128442857D01*
X120771428Y-127928571D02*
X120771428Y-128271428D01*
X120771428Y-128100000D02*
X120171428Y-128100000D01*
X120257142Y-128157142D01*
X120314285Y-128214285D01*
X120342857Y-128271428D01*
X120714285Y-127671428D02*
X120742857Y-127642857D01*
X120771428Y-127671428D01*
X120742857Y-127700000D01*
X120714285Y-127671428D01*
X120771428Y-127671428D01*
X120771428Y-127071428D02*
X120771428Y-127414285D01*
X120771428Y-127242857D02*
X120171428Y-127242857D01*
X120257142Y-127300000D01*
X120314285Y-127357142D01*
X120342857Y-127414285D01*
X158671428Y-103400000D02*
X159157142Y-103400000D01*
X159214285Y-103371428D01*
X159242857Y-103342857D01*
X159271428Y-103285714D01*
X159271428Y-103171428D01*
X159242857Y-103114285D01*
X159214285Y-103085714D01*
X159157142Y-103057142D01*
X158671428Y-103057142D01*
X159271428Y-102771428D02*
X158671428Y-102771428D01*
X159271428Y-102428571D01*
X158671428Y-102428571D01*
X159271428Y-102142857D02*
X158671428Y-102142857D01*
X158671428Y-101942857D02*
X159271428Y-101742857D01*
X158671428Y-101542857D01*
X158957142Y-101342857D02*
X158957142Y-101142857D01*
X159271428Y-101057142D02*
X159271428Y-101342857D01*
X158671428Y-101342857D01*
X158671428Y-101057142D01*
X159271428Y-100457142D02*
X158985714Y-100657142D01*
X159271428Y-100800000D02*
X158671428Y-100800000D01*
X158671428Y-100571428D01*
X158700000Y-100514285D01*
X158728571Y-100485714D01*
X158785714Y-100457142D01*
X158871428Y-100457142D01*
X158928571Y-100485714D01*
X158957142Y-100514285D01*
X158985714Y-100571428D01*
X158985714Y-100800000D01*
X159242857Y-100228571D02*
X159271428Y-100142857D01*
X159271428Y-100000000D01*
X159242857Y-99942857D01*
X159214285Y-99914285D01*
X159157142Y-99885714D01*
X159100000Y-99885714D01*
X159042857Y-99914285D01*
X159014285Y-99942857D01*
X158985714Y-100000000D01*
X158957142Y-100114285D01*
X158928571Y-100171428D01*
X158900000Y-100200000D01*
X158842857Y-100228571D01*
X158785714Y-100228571D01*
X158728571Y-100200000D01*
X158700000Y-100171428D01*
X158671428Y-100114285D01*
X158671428Y-99971428D01*
X158700000Y-99885714D01*
X159100000Y-99657142D02*
X159100000Y-99371428D01*
X159271428Y-99714285D02*
X158671428Y-99514285D01*
X159271428Y-99314285D01*
X159271428Y-98828571D02*
X159271428Y-99114285D01*
X158671428Y-99114285D01*
X159271428Y-98171428D02*
X158671428Y-98171428D01*
X158671428Y-97942857D01*
X158700000Y-97885714D01*
X158728571Y-97857142D01*
X158785714Y-97828571D01*
X158871428Y-97828571D01*
X158928571Y-97857142D01*
X158957142Y-97885714D01*
X158985714Y-97942857D01*
X158985714Y-98171428D01*
X158671428Y-97457142D02*
X158671428Y-97342857D01*
X158700000Y-97285714D01*
X158757142Y-97228571D01*
X158871428Y-97200000D01*
X159071428Y-97200000D01*
X159185714Y-97228571D01*
X159242857Y-97285714D01*
X159271428Y-97342857D01*
X159271428Y-97457142D01*
X159242857Y-97514285D01*
X159185714Y-97571428D01*
X159071428Y-97600000D01*
X158871428Y-97600000D01*
X158757142Y-97571428D01*
X158700000Y-97514285D01*
X158671428Y-97457142D01*
X158671428Y-97000000D02*
X159271428Y-96857142D01*
X158842857Y-96742857D01*
X159271428Y-96628571D01*
X158671428Y-96485714D01*
X158957142Y-96257142D02*
X158957142Y-96057142D01*
X159271428Y-95971428D02*
X159271428Y-96257142D01*
X158671428Y-96257142D01*
X158671428Y-95971428D01*
X159271428Y-95371428D02*
X158985714Y-95571428D01*
X159271428Y-95714285D02*
X158671428Y-95714285D01*
X158671428Y-95485714D01*
X158700000Y-95428571D01*
X158728571Y-95400000D01*
X158785714Y-95371428D01*
X158871428Y-95371428D01*
X158928571Y-95400000D01*
X158957142Y-95428571D01*
X158985714Y-95485714D01*
X158985714Y-95714285D01*
X158957142Y-94457142D02*
X158985714Y-94371428D01*
X159014285Y-94342857D01*
X159071428Y-94314285D01*
X159157142Y-94314285D01*
X159214285Y-94342857D01*
X159242857Y-94371428D01*
X159271428Y-94428571D01*
X159271428Y-94657142D01*
X158671428Y-94657142D01*
X158671428Y-94457142D01*
X158700000Y-94400000D01*
X158728571Y-94371428D01*
X158785714Y-94342857D01*
X158842857Y-94342857D01*
X158900000Y-94371428D01*
X158928571Y-94400000D01*
X158957142Y-94457142D01*
X158957142Y-94657142D01*
X158671428Y-93942857D02*
X158671428Y-93828571D01*
X158700000Y-93771428D01*
X158757142Y-93714285D01*
X158871428Y-93685714D01*
X159071428Y-93685714D01*
X159185714Y-93714285D01*
X159242857Y-93771428D01*
X159271428Y-93828571D01*
X159271428Y-93942857D01*
X159242857Y-94000000D01*
X159185714Y-94057142D01*
X159071428Y-94085714D01*
X158871428Y-94085714D01*
X158757142Y-94057142D01*
X158700000Y-94000000D01*
X158671428Y-93942857D01*
X159100000Y-93457142D02*
X159100000Y-93171428D01*
X159271428Y-93514285D02*
X158671428Y-93314285D01*
X159271428Y-93114285D01*
X159271428Y-92571428D02*
X158985714Y-92771428D01*
X159271428Y-92914285D02*
X158671428Y-92914285D01*
X158671428Y-92685714D01*
X158700000Y-92628571D01*
X158728571Y-92600000D01*
X158785714Y-92571428D01*
X158871428Y-92571428D01*
X158928571Y-92600000D01*
X158957142Y-92628571D01*
X158985714Y-92685714D01*
X158985714Y-92914285D01*
X159271428Y-92314285D02*
X158671428Y-92314285D01*
X158671428Y-92171428D01*
X158700000Y-92085714D01*
X158757142Y-92028571D01*
X158814285Y-92000000D01*
X158928571Y-91971428D01*
X159014285Y-91971428D01*
X159128571Y-92000000D01*
X159185714Y-92028571D01*
X159242857Y-92085714D01*
X159271428Y-92171428D01*
X159271428Y-92314285D01*
X158671428Y-91342857D02*
X159271428Y-91142857D01*
X158671428Y-90942857D01*
X159271428Y-90428571D02*
X159271428Y-90771428D01*
X159271428Y-90600000D02*
X158671428Y-90600000D01*
X158757142Y-90657142D01*
X158814285Y-90714285D01*
X158842857Y-90771428D01*
X159214285Y-90171428D02*
X159242857Y-90142857D01*
X159271428Y-90171428D01*
X159242857Y-90200000D01*
X159214285Y-90171428D01*
X159271428Y-90171428D01*
X159271428Y-89571428D02*
X159271428Y-89914285D01*
X159271428Y-89742857D02*
X158671428Y-89742857D01*
X158757142Y-89800000D01*
X158814285Y-89857142D01*
X158842857Y-89914285D01*
D10*
X168675057Y-145912000D02*
X168617914Y-145883428D01*
X168532200Y-145883428D01*
X168446485Y-145912000D01*
X168389342Y-145969142D01*
X168360771Y-146026285D01*
X168332200Y-146140571D01*
X168332200Y-146226285D01*
X168360771Y-146340571D01*
X168389342Y-146397714D01*
X168446485Y-146454857D01*
X168532200Y-146483428D01*
X168589342Y-146483428D01*
X168675057Y-146454857D01*
X168703628Y-146426285D01*
X168703628Y-146226285D01*
X168589342Y-146226285D01*
X168960771Y-146483428D02*
X168960771Y-145883428D01*
X169303628Y-146483428D01*
X169303628Y-145883428D01*
X169589342Y-146483428D02*
X169589342Y-145883428D01*
X169732200Y-145883428D01*
X169817914Y-145912000D01*
X169875057Y-145969142D01*
X169903628Y-146026285D01*
X169932200Y-146140571D01*
X169932200Y-146226285D01*
X169903628Y-146340571D01*
X169875057Y-146397714D01*
X169817914Y-146454857D01*
X169732200Y-146483428D01*
X169589342Y-146483428D01*
X130175057Y-145912000D02*
X130117914Y-145883428D01*
X130032200Y-145883428D01*
X129946485Y-145912000D01*
X129889342Y-145969142D01*
X129860771Y-146026285D01*
X129832200Y-146140571D01*
X129832200Y-146226285D01*
X129860771Y-146340571D01*
X129889342Y-146397714D01*
X129946485Y-146454857D01*
X130032200Y-146483428D01*
X130089342Y-146483428D01*
X130175057Y-146454857D01*
X130203628Y-146426285D01*
X130203628Y-146226285D01*
X130089342Y-146226285D01*
X130460771Y-146483428D02*
X130460771Y-145883428D01*
X130803628Y-146483428D01*
X130803628Y-145883428D01*
X131089342Y-146483428D02*
X131089342Y-145883428D01*
X131232200Y-145883428D01*
X131317914Y-145912000D01*
X131375057Y-145969142D01*
X131403628Y-146026285D01*
X131432200Y-146140571D01*
X131432200Y-146226285D01*
X131403628Y-146340571D01*
X131375057Y-146397714D01*
X131317914Y-146454857D01*
X131232200Y-146483428D01*
X131089342Y-146483428D01*
X168675057Y-108412000D02*
X168617914Y-108383428D01*
X168532200Y-108383428D01*
X168446485Y-108412000D01*
X168389342Y-108469142D01*
X168360771Y-108526285D01*
X168332200Y-108640571D01*
X168332200Y-108726285D01*
X168360771Y-108840571D01*
X168389342Y-108897714D01*
X168446485Y-108954857D01*
X168532200Y-108983428D01*
X168589342Y-108983428D01*
X168675057Y-108954857D01*
X168703628Y-108926285D01*
X168703628Y-108726285D01*
X168589342Y-108726285D01*
X168960771Y-108983428D02*
X168960771Y-108383428D01*
X169303628Y-108983428D01*
X169303628Y-108383428D01*
X169589342Y-108983428D02*
X169589342Y-108383428D01*
X169732200Y-108383428D01*
X169817914Y-108412000D01*
X169875057Y-108469142D01*
X169903628Y-108526285D01*
X169932200Y-108640571D01*
X169932200Y-108726285D01*
X169903628Y-108840571D01*
X169875057Y-108897714D01*
X169817914Y-108954857D01*
X169732200Y-108983428D01*
X169589342Y-108983428D01*
X147650257Y-81691200D02*
X147593114Y-81662628D01*
X147507400Y-81662628D01*
X147421685Y-81691200D01*
X147364542Y-81748342D01*
X147335971Y-81805485D01*
X147307400Y-81919771D01*
X147307400Y-82005485D01*
X147335971Y-82119771D01*
X147364542Y-82176914D01*
X147421685Y-82234057D01*
X147507400Y-82262628D01*
X147564542Y-82262628D01*
X147650257Y-82234057D01*
X147678828Y-82205485D01*
X147678828Y-82005485D01*
X147564542Y-82005485D01*
X147935971Y-82262628D02*
X147935971Y-81662628D01*
X148278828Y-82262628D01*
X148278828Y-81662628D01*
X148564542Y-82262628D02*
X148564542Y-81662628D01*
X148707400Y-81662628D01*
X148793114Y-81691200D01*
X148850257Y-81748342D01*
X148878828Y-81805485D01*
X148907400Y-81919771D01*
X148907400Y-82005485D01*
X148878828Y-82119771D01*
X148850257Y-82176914D01*
X148793114Y-82234057D01*
X148707400Y-82262628D01*
X148564542Y-82262628D01*
X114488571Y-131894857D02*
X114945714Y-131894857D01*
X114717142Y-132123428D02*
X114717142Y-131666285D01*
X115517142Y-131523428D02*
X115231428Y-131523428D01*
X115202857Y-131809142D01*
X115231428Y-131780571D01*
X115288571Y-131752000D01*
X115431428Y-131752000D01*
X115488571Y-131780571D01*
X115517142Y-131809142D01*
X115545714Y-131866285D01*
X115545714Y-132009142D01*
X115517142Y-132066285D01*
X115488571Y-132094857D01*
X115431428Y-132123428D01*
X115288571Y-132123428D01*
X115231428Y-132094857D01*
X115202857Y-132066285D01*
X115717142Y-131523428D02*
X115917142Y-132123428D01*
X116117142Y-131523428D01*
X126172571Y-128338857D02*
X126629714Y-128338857D01*
X126401142Y-128567428D02*
X126401142Y-128110285D01*
X127201142Y-127967428D02*
X126915428Y-127967428D01*
X126886857Y-128253142D01*
X126915428Y-128224571D01*
X126972571Y-128196000D01*
X127115428Y-128196000D01*
X127172571Y-128224571D01*
X127201142Y-128253142D01*
X127229714Y-128310285D01*
X127229714Y-128453142D01*
X127201142Y-128510285D01*
X127172571Y-128538857D01*
X127115428Y-128567428D01*
X126972571Y-128567428D01*
X126915428Y-128538857D01*
X126886857Y-128510285D01*
X127401142Y-127967428D02*
X127601142Y-128567428D01*
X127801142Y-127967428D01*
X114996571Y-131386857D02*
X115453714Y-131386857D01*
X115225142Y-131615428D02*
X115225142Y-131158285D01*
X116025142Y-131015428D02*
X115739428Y-131015428D01*
X115710857Y-131301142D01*
X115739428Y-131272571D01*
X115796571Y-131244000D01*
X115939428Y-131244000D01*
X115996571Y-131272571D01*
X116025142Y-131301142D01*
X116053714Y-131358285D01*
X116053714Y-131501142D01*
X116025142Y-131558285D01*
X115996571Y-131586857D01*
X115939428Y-131615428D01*
X115796571Y-131615428D01*
X115739428Y-131586857D01*
X115710857Y-131558285D01*
X116225142Y-131015428D02*
X116425142Y-131615428D01*
X116625142Y-131015428D01*
X144973771Y-82008657D02*
X145430914Y-82008657D01*
X145202342Y-82237228D02*
X145202342Y-81780085D01*
X146002342Y-81637228D02*
X145716628Y-81637228D01*
X145688057Y-81922942D01*
X145716628Y-81894371D01*
X145773771Y-81865800D01*
X145916628Y-81865800D01*
X145973771Y-81894371D01*
X146002342Y-81922942D01*
X146030914Y-81980085D01*
X146030914Y-82122942D01*
X146002342Y-82180085D01*
X145973771Y-82208657D01*
X145916628Y-82237228D01*
X145773771Y-82237228D01*
X145716628Y-82208657D01*
X145688057Y-82180085D01*
X146202342Y-81637228D02*
X146402342Y-82237228D01*
X146602342Y-81637228D01*
D11*
X120171428Y-103400000D02*
X120657142Y-103400000D01*
X120714285Y-103371428D01*
X120742857Y-103342857D01*
X120771428Y-103285714D01*
X120771428Y-103171428D01*
X120742857Y-103114285D01*
X120714285Y-103085714D01*
X120657142Y-103057142D01*
X120171428Y-103057142D01*
X120771428Y-102771428D02*
X120171428Y-102771428D01*
X120771428Y-102428571D01*
X120171428Y-102428571D01*
X120771428Y-102142857D02*
X120171428Y-102142857D01*
X120171428Y-101942857D02*
X120771428Y-101742857D01*
X120171428Y-101542857D01*
X120457142Y-101342857D02*
X120457142Y-101142857D01*
X120771428Y-101057142D02*
X120771428Y-101342857D01*
X120171428Y-101342857D01*
X120171428Y-101057142D01*
X120771428Y-100457142D02*
X120485714Y-100657142D01*
X120771428Y-100800000D02*
X120171428Y-100800000D01*
X120171428Y-100571428D01*
X120200000Y-100514285D01*
X120228571Y-100485714D01*
X120285714Y-100457142D01*
X120371428Y-100457142D01*
X120428571Y-100485714D01*
X120457142Y-100514285D01*
X120485714Y-100571428D01*
X120485714Y-100800000D01*
X120742857Y-100228571D02*
X120771428Y-100142857D01*
X120771428Y-100000000D01*
X120742857Y-99942857D01*
X120714285Y-99914285D01*
X120657142Y-99885714D01*
X120600000Y-99885714D01*
X120542857Y-99914285D01*
X120514285Y-99942857D01*
X120485714Y-100000000D01*
X120457142Y-100114285D01*
X120428571Y-100171428D01*
X120400000Y-100200000D01*
X120342857Y-100228571D01*
X120285714Y-100228571D01*
X120228571Y-100200000D01*
X120200000Y-100171428D01*
X120171428Y-100114285D01*
X120171428Y-99971428D01*
X120200000Y-99885714D01*
X120600000Y-99657142D02*
X120600000Y-99371428D01*
X120771428Y-99714285D02*
X120171428Y-99514285D01*
X120771428Y-99314285D01*
X120771428Y-98828571D02*
X120771428Y-99114285D01*
X120171428Y-99114285D01*
X120771428Y-98171428D02*
X120171428Y-98171428D01*
X120171428Y-97942857D01*
X120200000Y-97885714D01*
X120228571Y-97857142D01*
X120285714Y-97828571D01*
X120371428Y-97828571D01*
X120428571Y-97857142D01*
X120457142Y-97885714D01*
X120485714Y-97942857D01*
X120485714Y-98171428D01*
X120171428Y-97457142D02*
X120171428Y-97342857D01*
X120200000Y-97285714D01*
X120257142Y-97228571D01*
X120371428Y-97200000D01*
X120571428Y-97200000D01*
X120685714Y-97228571D01*
X120742857Y-97285714D01*
X120771428Y-97342857D01*
X120771428Y-97457142D01*
X120742857Y-97514285D01*
X120685714Y-97571428D01*
X120571428Y-97600000D01*
X120371428Y-97600000D01*
X120257142Y-97571428D01*
X120200000Y-97514285D01*
X120171428Y-97457142D01*
X120171428Y-97000000D02*
X120771428Y-96857142D01*
X120342857Y-96742857D01*
X120771428Y-96628571D01*
X120171428Y-96485714D01*
X120457142Y-96257142D02*
X120457142Y-96057142D01*
X120771428Y-95971428D02*
X120771428Y-96257142D01*
X120171428Y-96257142D01*
X120171428Y-95971428D01*
X120771428Y-95371428D02*
X120485714Y-95571428D01*
X120771428Y-95714285D02*
X120171428Y-95714285D01*
X120171428Y-95485714D01*
X120200000Y-95428571D01*
X120228571Y-95400000D01*
X120285714Y-95371428D01*
X120371428Y-95371428D01*
X120428571Y-95400000D01*
X120457142Y-95428571D01*
X120485714Y-95485714D01*
X120485714Y-95714285D01*
X120457142Y-94457142D02*
X120485714Y-94371428D01*
X120514285Y-94342857D01*
X120571428Y-94314285D01*
X120657142Y-94314285D01*
X120714285Y-94342857D01*
X120742857Y-94371428D01*
X120771428Y-94428571D01*
X120771428Y-94657142D01*
X120171428Y-94657142D01*
X120171428Y-94457142D01*
X120200000Y-94400000D01*
X120228571Y-94371428D01*
X120285714Y-94342857D01*
X120342857Y-94342857D01*
X120400000Y-94371428D01*
X120428571Y-94400000D01*
X120457142Y-94457142D01*
X120457142Y-94657142D01*
X120171428Y-93942857D02*
X120171428Y-93828571D01*
X120200000Y-93771428D01*
X120257142Y-93714285D01*
X120371428Y-93685714D01*
X120571428Y-93685714D01*
X120685714Y-93714285D01*
X120742857Y-93771428D01*
X120771428Y-93828571D01*
X120771428Y-93942857D01*
X120742857Y-94000000D01*
X120685714Y-94057142D01*
X120571428Y-94085714D01*
X120371428Y-94085714D01*
X120257142Y-94057142D01*
X120200000Y-94000000D01*
X120171428Y-93942857D01*
X120600000Y-93457142D02*
X120600000Y-93171428D01*
X120771428Y-93514285D02*
X120171428Y-93314285D01*
X120771428Y-93114285D01*
X120771428Y-92571428D02*
X120485714Y-92771428D01*
X120771428Y-92914285D02*
X120171428Y-92914285D01*
X120171428Y-92685714D01*
X120200000Y-92628571D01*
X120228571Y-92600000D01*
X120285714Y-92571428D01*
X120371428Y-92571428D01*
X120428571Y-92600000D01*
X120457142Y-92628571D01*
X120485714Y-92685714D01*
X120485714Y-92914285D01*
X120771428Y-92314285D02*
X120171428Y-92314285D01*
X120171428Y-92171428D01*
X120200000Y-92085714D01*
X120257142Y-92028571D01*
X120314285Y-92000000D01*
X120428571Y-91971428D01*
X120514285Y-91971428D01*
X120628571Y-92000000D01*
X120685714Y-92028571D01*
X120742857Y-92085714D01*
X120771428Y-92171428D01*
X120771428Y-92314285D01*
X120171428Y-91342857D02*
X120771428Y-91142857D01*
X120171428Y-90942857D01*
X120771428Y-90428571D02*
X120771428Y-90771428D01*
X120771428Y-90600000D02*
X120171428Y-90600000D01*
X120257142Y-90657142D01*
X120314285Y-90714285D01*
X120342857Y-90771428D01*
X120714285Y-90171428D02*
X120742857Y-90142857D01*
X120771428Y-90171428D01*
X120742857Y-90200000D01*
X120714285Y-90171428D01*
X120771428Y-90171428D01*
X120771428Y-89571428D02*
X120771428Y-89914285D01*
X120771428Y-89742857D02*
X120171428Y-89742857D01*
X120257142Y-89800000D01*
X120314285Y-89857142D01*
X120342857Y-89914285D01*
D10*
X130175057Y-108412000D02*
X130117914Y-108383428D01*
X130032200Y-108383428D01*
X129946485Y-108412000D01*
X129889342Y-108469142D01*
X129860771Y-108526285D01*
X129832200Y-108640571D01*
X129832200Y-108726285D01*
X129860771Y-108840571D01*
X129889342Y-108897714D01*
X129946485Y-108954857D01*
X130032200Y-108983428D01*
X130089342Y-108983428D01*
X130175057Y-108954857D01*
X130203628Y-108926285D01*
X130203628Y-108726285D01*
X130089342Y-108726285D01*
X130460771Y-108983428D02*
X130460771Y-108383428D01*
X130803628Y-108983428D01*
X130803628Y-108383428D01*
X131089342Y-108983428D02*
X131089342Y-108383428D01*
X131232200Y-108383428D01*
X131317914Y-108412000D01*
X131375057Y-108469142D01*
X131403628Y-108526285D01*
X131432200Y-108640571D01*
X131432200Y-108726285D01*
X131403628Y-108840571D01*
X131375057Y-108897714D01*
X131317914Y-108954857D01*
X131232200Y-108983428D01*
X131089342Y-108983428D01*
X129708371Y-106697457D02*
X130165514Y-106697457D01*
X129936942Y-106926028D02*
X129936942Y-106468885D01*
X130736942Y-106326028D02*
X130451228Y-106326028D01*
X130422657Y-106611742D01*
X130451228Y-106583171D01*
X130508371Y-106554600D01*
X130651228Y-106554600D01*
X130708371Y-106583171D01*
X130736942Y-106611742D01*
X130765514Y-106668885D01*
X130765514Y-106811742D01*
X130736942Y-106868885D01*
X130708371Y-106897457D01*
X130651228Y-106926028D01*
X130508371Y-106926028D01*
X130451228Y-106897457D01*
X130422657Y-106868885D01*
X130936942Y-106326028D02*
X131136942Y-106926028D01*
X131336942Y-106326028D01*
D12*
X174930000Y-142120000D02*
X170210000Y-142120000D01*
X170210000Y-142120000D02*
X170210000Y-148240000D01*
X170210000Y-148240000D02*
X174930000Y-148240000D01*
X174930000Y-148240000D02*
X174930000Y-142120000D01*
X174930000Y-143880000D02*
X175130000Y-143880000D01*
X175130000Y-143880000D02*
X175130000Y-143580000D01*
X175130000Y-143580000D02*
X174930000Y-143580000D01*
X175030000Y-143880000D02*
X175030000Y-143580000D01*
X174930000Y-144680000D02*
X174320000Y-144680000D01*
X174320000Y-144680000D02*
X174320000Y-142730000D01*
X174320000Y-142730000D02*
X170820000Y-142730000D01*
X170820000Y-142730000D02*
X170820000Y-147630000D01*
X170820000Y-147630000D02*
X174320000Y-147630000D01*
X174320000Y-147630000D02*
X174320000Y-145680000D01*
X174320000Y-145680000D02*
X174930000Y-145680000D01*
X173620000Y-142120000D02*
X173620000Y-142730000D01*
X172320000Y-142120000D02*
X172320000Y-142730000D01*
X173620000Y-148240000D02*
X173620000Y-147630000D01*
X172320000Y-148240000D02*
X172320000Y-147630000D01*
X170820000Y-145080000D02*
X171320000Y-145080000D01*
X171320000Y-145080000D02*
X171320000Y-145280000D01*
X171320000Y-145280000D02*
X170820000Y-145280000D01*
X170820000Y-145180000D02*
X171320000Y-145180000D01*
X175230000Y-143070000D02*
X175230000Y-141820000D01*
X175230000Y-141820000D02*
X173980000Y-141820000D01*
X136430000Y-142120000D02*
X131710000Y-142120000D01*
X131710000Y-142120000D02*
X131710000Y-148240000D01*
X131710000Y-148240000D02*
X136430000Y-148240000D01*
X136430000Y-148240000D02*
X136430000Y-142120000D01*
X136430000Y-143880000D02*
X136630000Y-143880000D01*
X136630000Y-143880000D02*
X136630000Y-143580000D01*
X136630000Y-143580000D02*
X136430000Y-143580000D01*
X136530000Y-143880000D02*
X136530000Y-143580000D01*
X136430000Y-144680000D02*
X135820000Y-144680000D01*
X135820000Y-144680000D02*
X135820000Y-142730000D01*
X135820000Y-142730000D02*
X132320000Y-142730000D01*
X132320000Y-142730000D02*
X132320000Y-147630000D01*
X132320000Y-147630000D02*
X135820000Y-147630000D01*
X135820000Y-147630000D02*
X135820000Y-145680000D01*
X135820000Y-145680000D02*
X136430000Y-145680000D01*
X135120000Y-142120000D02*
X135120000Y-142730000D01*
X133820000Y-142120000D02*
X133820000Y-142730000D01*
X135120000Y-148240000D02*
X135120000Y-147630000D01*
X133820000Y-148240000D02*
X133820000Y-147630000D01*
X132320000Y-145080000D02*
X132820000Y-145080000D01*
X132820000Y-145080000D02*
X132820000Y-145280000D01*
X132820000Y-145280000D02*
X132320000Y-145280000D01*
X132320000Y-145180000D02*
X132820000Y-145180000D01*
X136730000Y-143070000D02*
X136730000Y-141820000D01*
X136730000Y-141820000D02*
X135480000Y-141820000D01*
X174930000Y-104620000D02*
X170210000Y-104620000D01*
X170210000Y-104620000D02*
X170210000Y-110740000D01*
X170210000Y-110740000D02*
X174930000Y-110740000D01*
X174930000Y-110740000D02*
X174930000Y-104620000D01*
X174930000Y-106380000D02*
X175130000Y-106380000D01*
X175130000Y-106380000D02*
X175130000Y-106080000D01*
X175130000Y-106080000D02*
X174930000Y-106080000D01*
X175030000Y-106380000D02*
X175030000Y-106080000D01*
X174930000Y-107180000D02*
X174320000Y-107180000D01*
X174320000Y-107180000D02*
X174320000Y-105230000D01*
X174320000Y-105230000D02*
X170820000Y-105230000D01*
X170820000Y-105230000D02*
X170820000Y-110130000D01*
X170820000Y-110130000D02*
X174320000Y-110130000D01*
X174320000Y-110130000D02*
X174320000Y-108180000D01*
X174320000Y-108180000D02*
X174930000Y-108180000D01*
X173620000Y-104620000D02*
X173620000Y-105230000D01*
X172320000Y-104620000D02*
X172320000Y-105230000D01*
X173620000Y-110740000D02*
X173620000Y-110130000D01*
X172320000Y-110740000D02*
X172320000Y-110130000D01*
X170820000Y-107580000D02*
X171320000Y-107580000D01*
X171320000Y-107580000D02*
X171320000Y-107780000D01*
X171320000Y-107780000D02*
X170820000Y-107780000D01*
X170820000Y-107680000D02*
X171320000Y-107680000D01*
X175230000Y-105570000D02*
X175230000Y-104320000D01*
X175230000Y-104320000D02*
X173980000Y-104320000D01*
X182236000Y-137290000D02*
X182236000Y-142010000D01*
X182236000Y-142010000D02*
X188356000Y-142010000D01*
X188356000Y-142010000D02*
X188356000Y-137290000D01*
X188356000Y-137290000D02*
X182236000Y-137290000D01*
X183996000Y-137290000D02*
X183996000Y-137090000D01*
X183996000Y-137090000D02*
X183696000Y-137090000D01*
X183696000Y-137090000D02*
X183696000Y-137290000D01*
X183996000Y-137190000D02*
X183696000Y-137190000D01*
X184796000Y-137290000D02*
X184796000Y-137900000D01*
X184796000Y-137900000D02*
X182846000Y-137900000D01*
X182846000Y-137900000D02*
X182846000Y-141400000D01*
X182846000Y-141400000D02*
X187746000Y-141400000D01*
X187746000Y-141400000D02*
X187746000Y-137900000D01*
X187746000Y-137900000D02*
X185796000Y-137900000D01*
X185796000Y-137900000D02*
X185796000Y-137290000D01*
X182236000Y-138600000D02*
X182846000Y-138600000D01*
X182236000Y-139900000D02*
X182846000Y-139900000D01*
X188356000Y-138600000D02*
X187746000Y-138600000D01*
X188356000Y-139900000D02*
X187746000Y-139900000D01*
X185196000Y-141400000D02*
X185196000Y-140900000D01*
X185196000Y-140900000D02*
X185396000Y-140900000D01*
X185396000Y-140900000D02*
X185396000Y-141400000D01*
X185296000Y-141400000D02*
X185296000Y-140900000D01*
X183186000Y-136990000D02*
X181936000Y-136990000D01*
X181936000Y-136990000D02*
X181936000Y-138240000D01*
X143736000Y-137290000D02*
X143736000Y-142010000D01*
X143736000Y-142010000D02*
X149856000Y-142010000D01*
X149856000Y-142010000D02*
X149856000Y-137290000D01*
X149856000Y-137290000D02*
X143736000Y-137290000D01*
X145496000Y-137290000D02*
X145496000Y-137090000D01*
X145496000Y-137090000D02*
X145196000Y-137090000D01*
X145196000Y-137090000D02*
X145196000Y-137290000D01*
X145496000Y-137190000D02*
X145196000Y-137190000D01*
X146296000Y-137290000D02*
X146296000Y-137900000D01*
X146296000Y-137900000D02*
X144346000Y-137900000D01*
X144346000Y-137900000D02*
X144346000Y-141400000D01*
X144346000Y-141400000D02*
X149246000Y-141400000D01*
X149246000Y-141400000D02*
X149246000Y-137900000D01*
X149246000Y-137900000D02*
X147296000Y-137900000D01*
X147296000Y-137900000D02*
X147296000Y-137290000D01*
X143736000Y-138600000D02*
X144346000Y-138600000D01*
X143736000Y-139900000D02*
X144346000Y-139900000D01*
X149856000Y-138600000D02*
X149246000Y-138600000D01*
X149856000Y-139900000D02*
X149246000Y-139900000D01*
X146696000Y-141400000D02*
X146696000Y-140900000D01*
X146696000Y-140900000D02*
X146896000Y-140900000D01*
X146896000Y-140900000D02*
X146896000Y-141400000D01*
X146796000Y-141400000D02*
X146796000Y-140900000D01*
X144686000Y-136990000D02*
X143436000Y-136990000D01*
X143436000Y-136990000D02*
X143436000Y-138240000D01*
X182236000Y-99790000D02*
X182236000Y-104510000D01*
X182236000Y-104510000D02*
X188356000Y-104510000D01*
X188356000Y-104510000D02*
X188356000Y-99790000D01*
X188356000Y-99790000D02*
X182236000Y-99790000D01*
X183996000Y-99790000D02*
X183996000Y-99590000D01*
X183996000Y-99590000D02*
X183696000Y-99590000D01*
X183696000Y-99590000D02*
X183696000Y-99790000D01*
X183996000Y-99690000D02*
X183696000Y-99690000D01*
X184796000Y-99790000D02*
X184796000Y-100400000D01*
X184796000Y-100400000D02*
X182846000Y-100400000D01*
X182846000Y-100400000D02*
X182846000Y-103900000D01*
X182846000Y-103900000D02*
X187746000Y-103900000D01*
X187746000Y-103900000D02*
X187746000Y-100400000D01*
X187746000Y-100400000D02*
X185796000Y-100400000D01*
X185796000Y-100400000D02*
X185796000Y-99790000D01*
X182236000Y-101100000D02*
X182846000Y-101100000D01*
X182236000Y-102400000D02*
X182846000Y-102400000D01*
X188356000Y-101100000D02*
X187746000Y-101100000D01*
X188356000Y-102400000D02*
X187746000Y-102400000D01*
X185196000Y-103900000D02*
X185196000Y-103400000D01*
X185196000Y-103400000D02*
X185396000Y-103400000D01*
X185396000Y-103400000D02*
X185396000Y-103900000D01*
X185296000Y-103900000D02*
X185296000Y-103400000D01*
X183186000Y-99490000D02*
X181936000Y-99490000D01*
X181936000Y-99490000D02*
X181936000Y-100740000D01*
X169010000Y-113590000D02*
X169010000Y-122310000D01*
X169010000Y-122310000D02*
X163590000Y-122310000D01*
X163590000Y-113590000D02*
X163590000Y-122310000D01*
X167710000Y-111890000D02*
X169010000Y-113590000D01*
X164890000Y-111890000D02*
X163590000Y-113590000D01*
X167710000Y-111890000D02*
X164890000Y-111890000D01*
X130510000Y-113590000D02*
X130510000Y-122310000D01*
X130510000Y-122310000D02*
X125090000Y-122310000D01*
X125090000Y-113590000D02*
X125090000Y-122310000D01*
X129210000Y-111890000D02*
X130510000Y-113590000D01*
X126390000Y-111890000D02*
X125090000Y-113590000D01*
X129210000Y-111890000D02*
X126390000Y-111890000D01*
X169010000Y-76090000D02*
X169010000Y-84810000D01*
X169010000Y-84810000D02*
X163590000Y-84810000D01*
X163590000Y-76090000D02*
X163590000Y-84810000D01*
X167710000Y-74390000D02*
X169010000Y-76090000D01*
X164890000Y-74390000D02*
X163590000Y-76090000D01*
X167710000Y-74390000D02*
X164890000Y-74390000D01*
X162810000Y-113590000D02*
X162810000Y-122310000D01*
X162810000Y-122310000D02*
X157390000Y-122310000D01*
X157390000Y-113590000D02*
X157390000Y-122310000D01*
X161510000Y-111890000D02*
X162810000Y-113590000D01*
X158690000Y-111890000D02*
X157390000Y-113590000D01*
X161510000Y-111890000D02*
X158690000Y-111890000D01*
X124310000Y-113590000D02*
X124310000Y-122310000D01*
X124310000Y-122310000D02*
X118890000Y-122310000D01*
X118890000Y-113590000D02*
X118890000Y-122310000D01*
X123010000Y-111890000D02*
X124310000Y-113590000D01*
X120190000Y-111890000D02*
X118890000Y-113590000D01*
X123010000Y-111890000D02*
X120190000Y-111890000D01*
X162810000Y-76090000D02*
X162810000Y-84810000D01*
X162810000Y-84810000D02*
X157390000Y-84810000D01*
X157390000Y-76090000D02*
X157390000Y-84810000D01*
X161510000Y-74390000D02*
X162810000Y-76090000D01*
X158690000Y-74390000D02*
X157390000Y-76090000D01*
X161510000Y-74390000D02*
X158690000Y-74390000D01*
X175210000Y-113590000D02*
X175210000Y-122310000D01*
X175210000Y-122310000D02*
X169790000Y-122310000D01*
X169790000Y-113590000D02*
X169790000Y-122310000D01*
X173910000Y-111890000D02*
X175210000Y-113590000D01*
X171090000Y-111890000D02*
X169790000Y-113590000D01*
X173910000Y-111890000D02*
X171090000Y-111890000D01*
X136710000Y-113590000D02*
X136710000Y-122310000D01*
X136710000Y-122310000D02*
X131290000Y-122310000D01*
X131290000Y-113590000D02*
X131290000Y-122310000D01*
X135410000Y-111890000D02*
X136710000Y-113590000D01*
X132590000Y-111890000D02*
X131290000Y-113590000D01*
X135410000Y-111890000D02*
X132590000Y-111890000D01*
X175210000Y-76090000D02*
X175210000Y-84810000D01*
X175210000Y-84810000D02*
X169790000Y-84810000D01*
X169790000Y-76090000D02*
X169790000Y-84810000D01*
X173910000Y-74390000D02*
X175210000Y-76090000D01*
X171090000Y-74390000D02*
X169790000Y-76090000D01*
X173910000Y-74390000D02*
X171090000Y-74390000D01*
X181410000Y-113590000D02*
X181410000Y-122310000D01*
X181410000Y-122310000D02*
X175990000Y-122310000D01*
X175990000Y-113590000D02*
X175990000Y-122310000D01*
X180110000Y-111890000D02*
X181410000Y-113590000D01*
X177290000Y-111890000D02*
X175990000Y-113590000D01*
X180110000Y-111890000D02*
X177290000Y-111890000D01*
X142910000Y-113590000D02*
X142910000Y-122310000D01*
X142910000Y-122310000D02*
X137490000Y-122310000D01*
X137490000Y-113590000D02*
X137490000Y-122310000D01*
X141610000Y-111890000D02*
X142910000Y-113590000D01*
X138790000Y-111890000D02*
X137490000Y-113590000D01*
X141610000Y-111890000D02*
X138790000Y-111890000D01*
X181410000Y-76090000D02*
X181410000Y-84810000D01*
X181410000Y-84810000D02*
X175990000Y-84810000D01*
X175990000Y-76090000D02*
X175990000Y-84810000D01*
X180110000Y-74390000D02*
X181410000Y-76090000D01*
X177290000Y-74390000D02*
X175990000Y-76090000D01*
X180110000Y-74390000D02*
X177290000Y-74390000D01*
X182236000Y-131702000D02*
X182236000Y-136422000D01*
X182236000Y-136422000D02*
X188356000Y-136422000D01*
X188356000Y-136422000D02*
X188356000Y-131702000D01*
X188356000Y-131702000D02*
X182236000Y-131702000D01*
X183996000Y-131702000D02*
X183996000Y-131502000D01*
X183996000Y-131502000D02*
X183696000Y-131502000D01*
X183696000Y-131502000D02*
X183696000Y-131702000D01*
X183996000Y-131602000D02*
X183696000Y-131602000D01*
X184796000Y-131702000D02*
X184796000Y-132312000D01*
X184796000Y-132312000D02*
X182846000Y-132312000D01*
X182846000Y-132312000D02*
X182846000Y-135812000D01*
X182846000Y-135812000D02*
X187746000Y-135812000D01*
X187746000Y-135812000D02*
X187746000Y-132312000D01*
X187746000Y-132312000D02*
X185796000Y-132312000D01*
X185796000Y-132312000D02*
X185796000Y-131702000D01*
X182236000Y-133012000D02*
X182846000Y-133012000D01*
X182236000Y-134312000D02*
X182846000Y-134312000D01*
X188356000Y-133012000D02*
X187746000Y-133012000D01*
X188356000Y-134312000D02*
X187746000Y-134312000D01*
X185196000Y-135812000D02*
X185196000Y-135312000D01*
X185196000Y-135312000D02*
X185396000Y-135312000D01*
X185396000Y-135312000D02*
X185396000Y-135812000D01*
X185296000Y-135812000D02*
X185296000Y-135312000D01*
X183186000Y-131402000D02*
X181936000Y-131402000D01*
X181936000Y-131402000D02*
X181936000Y-132652000D01*
X143736000Y-131702000D02*
X143736000Y-136422000D01*
X143736000Y-136422000D02*
X149856000Y-136422000D01*
X149856000Y-136422000D02*
X149856000Y-131702000D01*
X149856000Y-131702000D02*
X143736000Y-131702000D01*
X145496000Y-131702000D02*
X145496000Y-131502000D01*
X145496000Y-131502000D02*
X145196000Y-131502000D01*
X145196000Y-131502000D02*
X145196000Y-131702000D01*
X145496000Y-131602000D02*
X145196000Y-131602000D01*
X146296000Y-131702000D02*
X146296000Y-132312000D01*
X146296000Y-132312000D02*
X144346000Y-132312000D01*
X144346000Y-132312000D02*
X144346000Y-135812000D01*
X144346000Y-135812000D02*
X149246000Y-135812000D01*
X149246000Y-135812000D02*
X149246000Y-132312000D01*
X149246000Y-132312000D02*
X147296000Y-132312000D01*
X147296000Y-132312000D02*
X147296000Y-131702000D01*
X143736000Y-133012000D02*
X144346000Y-133012000D01*
X143736000Y-134312000D02*
X144346000Y-134312000D01*
X149856000Y-133012000D02*
X149246000Y-133012000D01*
X149856000Y-134312000D02*
X149246000Y-134312000D01*
X146696000Y-135812000D02*
X146696000Y-135312000D01*
X146696000Y-135312000D02*
X146896000Y-135312000D01*
X146896000Y-135312000D02*
X146896000Y-135812000D01*
X146796000Y-135812000D02*
X146796000Y-135312000D01*
X144686000Y-131402000D02*
X143436000Y-131402000D01*
X143436000Y-131402000D02*
X143436000Y-132652000D01*
X182236000Y-94202000D02*
X182236000Y-98922000D01*
X182236000Y-98922000D02*
X188356000Y-98922000D01*
X188356000Y-98922000D02*
X188356000Y-94202000D01*
X188356000Y-94202000D02*
X182236000Y-94202000D01*
X183996000Y-94202000D02*
X183996000Y-94002000D01*
X183996000Y-94002000D02*
X183696000Y-94002000D01*
X183696000Y-94002000D02*
X183696000Y-94202000D01*
X183996000Y-94102000D02*
X183696000Y-94102000D01*
X184796000Y-94202000D02*
X184796000Y-94812000D01*
X184796000Y-94812000D02*
X182846000Y-94812000D01*
X182846000Y-94812000D02*
X182846000Y-98312000D01*
X182846000Y-98312000D02*
X187746000Y-98312000D01*
X187746000Y-98312000D02*
X187746000Y-94812000D01*
X187746000Y-94812000D02*
X185796000Y-94812000D01*
X185796000Y-94812000D02*
X185796000Y-94202000D01*
X182236000Y-95512000D02*
X182846000Y-95512000D01*
X182236000Y-96812000D02*
X182846000Y-96812000D01*
X188356000Y-95512000D02*
X187746000Y-95512000D01*
X188356000Y-96812000D02*
X187746000Y-96812000D01*
X185196000Y-98312000D02*
X185196000Y-97812000D01*
X185196000Y-97812000D02*
X185396000Y-97812000D01*
X185396000Y-97812000D02*
X185396000Y-98312000D01*
X185296000Y-98312000D02*
X185296000Y-97812000D01*
X183186000Y-93902000D02*
X181936000Y-93902000D01*
X181936000Y-93902000D02*
X181936000Y-95152000D01*
X161110000Y-132138748D02*
X161110000Y-132661252D01*
X159690000Y-132138748D02*
X159690000Y-132661252D01*
X122610000Y-132138748D02*
X122610000Y-132661252D01*
X121190000Y-132138748D02*
X121190000Y-132661252D01*
X161110000Y-94638748D02*
X161110000Y-95161252D01*
X159690000Y-94638748D02*
X159690000Y-95161252D01*
X182236000Y-120526000D02*
X182236000Y-125246000D01*
X182236000Y-125246000D02*
X188356000Y-125246000D01*
X188356000Y-125246000D02*
X188356000Y-120526000D01*
X188356000Y-120526000D02*
X182236000Y-120526000D01*
X183996000Y-120526000D02*
X183996000Y-120326000D01*
X183996000Y-120326000D02*
X183696000Y-120326000D01*
X183696000Y-120326000D02*
X183696000Y-120526000D01*
X183996000Y-120426000D02*
X183696000Y-120426000D01*
X184796000Y-120526000D02*
X184796000Y-121136000D01*
X184796000Y-121136000D02*
X182846000Y-121136000D01*
X182846000Y-121136000D02*
X182846000Y-124636000D01*
X182846000Y-124636000D02*
X187746000Y-124636000D01*
X187746000Y-124636000D02*
X187746000Y-121136000D01*
X187746000Y-121136000D02*
X185796000Y-121136000D01*
X185796000Y-121136000D02*
X185796000Y-120526000D01*
X182236000Y-121836000D02*
X182846000Y-121836000D01*
X182236000Y-123136000D02*
X182846000Y-123136000D01*
X188356000Y-121836000D02*
X187746000Y-121836000D01*
X188356000Y-123136000D02*
X187746000Y-123136000D01*
X185196000Y-124636000D02*
X185196000Y-124136000D01*
X185196000Y-124136000D02*
X185396000Y-124136000D01*
X185396000Y-124136000D02*
X185396000Y-124636000D01*
X185296000Y-124636000D02*
X185296000Y-124136000D01*
X183186000Y-120226000D02*
X181936000Y-120226000D01*
X181936000Y-120226000D02*
X181936000Y-121476000D01*
X143736000Y-120526000D02*
X143736000Y-125246000D01*
X143736000Y-125246000D02*
X149856000Y-125246000D01*
X149856000Y-125246000D02*
X149856000Y-120526000D01*
X149856000Y-120526000D02*
X143736000Y-120526000D01*
X145496000Y-120526000D02*
X145496000Y-120326000D01*
X145496000Y-120326000D02*
X145196000Y-120326000D01*
X145196000Y-120326000D02*
X145196000Y-120526000D01*
X145496000Y-120426000D02*
X145196000Y-120426000D01*
X146296000Y-120526000D02*
X146296000Y-121136000D01*
X146296000Y-121136000D02*
X144346000Y-121136000D01*
X144346000Y-121136000D02*
X144346000Y-124636000D01*
X144346000Y-124636000D02*
X149246000Y-124636000D01*
X149246000Y-124636000D02*
X149246000Y-121136000D01*
X149246000Y-121136000D02*
X147296000Y-121136000D01*
X147296000Y-121136000D02*
X147296000Y-120526000D01*
X143736000Y-121836000D02*
X144346000Y-121836000D01*
X143736000Y-123136000D02*
X144346000Y-123136000D01*
X149856000Y-121836000D02*
X149246000Y-121836000D01*
X149856000Y-123136000D02*
X149246000Y-123136000D01*
X146696000Y-124636000D02*
X146696000Y-124136000D01*
X146696000Y-124136000D02*
X146896000Y-124136000D01*
X146896000Y-124136000D02*
X146896000Y-124636000D01*
X146796000Y-124636000D02*
X146796000Y-124136000D01*
X144686000Y-120226000D02*
X143436000Y-120226000D01*
X143436000Y-120226000D02*
X143436000Y-121476000D01*
X182236000Y-83026000D02*
X182236000Y-87746000D01*
X182236000Y-87746000D02*
X188356000Y-87746000D01*
X188356000Y-87746000D02*
X188356000Y-83026000D01*
X188356000Y-83026000D02*
X182236000Y-83026000D01*
X183996000Y-83026000D02*
X183996000Y-82826000D01*
X183996000Y-82826000D02*
X183696000Y-82826000D01*
X183696000Y-82826000D02*
X183696000Y-83026000D01*
X183996000Y-82926000D02*
X183696000Y-82926000D01*
X184796000Y-83026000D02*
X184796000Y-83636000D01*
X184796000Y-83636000D02*
X182846000Y-83636000D01*
X182846000Y-83636000D02*
X182846000Y-87136000D01*
X182846000Y-87136000D02*
X187746000Y-87136000D01*
X187746000Y-87136000D02*
X187746000Y-83636000D01*
X187746000Y-83636000D02*
X185796000Y-83636000D01*
X185796000Y-83636000D02*
X185796000Y-83026000D01*
X182236000Y-84336000D02*
X182846000Y-84336000D01*
X182236000Y-85636000D02*
X182846000Y-85636000D01*
X188356000Y-84336000D02*
X187746000Y-84336000D01*
X188356000Y-85636000D02*
X187746000Y-85636000D01*
X185196000Y-87136000D02*
X185196000Y-86636000D01*
X185196000Y-86636000D02*
X185396000Y-86636000D01*
X185396000Y-86636000D02*
X185396000Y-87136000D01*
X185296000Y-87136000D02*
X185296000Y-86636000D01*
X183186000Y-82726000D02*
X181936000Y-82726000D01*
X181936000Y-82726000D02*
X181936000Y-83976000D01*
X182236000Y-126114000D02*
X182236000Y-130834000D01*
X182236000Y-130834000D02*
X188356000Y-130834000D01*
X188356000Y-130834000D02*
X188356000Y-126114000D01*
X188356000Y-126114000D02*
X182236000Y-126114000D01*
X183996000Y-126114000D02*
X183996000Y-125914000D01*
X183996000Y-125914000D02*
X183696000Y-125914000D01*
X183696000Y-125914000D02*
X183696000Y-126114000D01*
X183996000Y-126014000D02*
X183696000Y-126014000D01*
X184796000Y-126114000D02*
X184796000Y-126724000D01*
X184796000Y-126724000D02*
X182846000Y-126724000D01*
X182846000Y-126724000D02*
X182846000Y-130224000D01*
X182846000Y-130224000D02*
X187746000Y-130224000D01*
X187746000Y-130224000D02*
X187746000Y-126724000D01*
X187746000Y-126724000D02*
X185796000Y-126724000D01*
X185796000Y-126724000D02*
X185796000Y-126114000D01*
X182236000Y-127424000D02*
X182846000Y-127424000D01*
X182236000Y-128724000D02*
X182846000Y-128724000D01*
X188356000Y-127424000D02*
X187746000Y-127424000D01*
X188356000Y-128724000D02*
X187746000Y-128724000D01*
X185196000Y-130224000D02*
X185196000Y-129724000D01*
X185196000Y-129724000D02*
X185396000Y-129724000D01*
X185396000Y-129724000D02*
X185396000Y-130224000D01*
X185296000Y-130224000D02*
X185296000Y-129724000D01*
X183186000Y-125814000D02*
X181936000Y-125814000D01*
X181936000Y-125814000D02*
X181936000Y-127064000D01*
X143736000Y-126114000D02*
X143736000Y-130834000D01*
X143736000Y-130834000D02*
X149856000Y-130834000D01*
X149856000Y-130834000D02*
X149856000Y-126114000D01*
X149856000Y-126114000D02*
X143736000Y-126114000D01*
X145496000Y-126114000D02*
X145496000Y-125914000D01*
X145496000Y-125914000D02*
X145196000Y-125914000D01*
X145196000Y-125914000D02*
X145196000Y-126114000D01*
X145496000Y-126014000D02*
X145196000Y-126014000D01*
X146296000Y-126114000D02*
X146296000Y-126724000D01*
X146296000Y-126724000D02*
X144346000Y-126724000D01*
X144346000Y-126724000D02*
X144346000Y-130224000D01*
X144346000Y-130224000D02*
X149246000Y-130224000D01*
X149246000Y-130224000D02*
X149246000Y-126724000D01*
X149246000Y-126724000D02*
X147296000Y-126724000D01*
X147296000Y-126724000D02*
X147296000Y-126114000D01*
X143736000Y-127424000D02*
X144346000Y-127424000D01*
X143736000Y-128724000D02*
X144346000Y-128724000D01*
X149856000Y-127424000D02*
X149246000Y-127424000D01*
X149856000Y-128724000D02*
X149246000Y-128724000D01*
X146696000Y-130224000D02*
X146696000Y-129724000D01*
X146696000Y-129724000D02*
X146896000Y-129724000D01*
X146896000Y-129724000D02*
X146896000Y-130224000D01*
X146796000Y-130224000D02*
X146796000Y-129724000D01*
X144686000Y-125814000D02*
X143436000Y-125814000D01*
X143436000Y-125814000D02*
X143436000Y-127064000D01*
X182236000Y-88614000D02*
X182236000Y-93334000D01*
X182236000Y-93334000D02*
X188356000Y-93334000D01*
X188356000Y-93334000D02*
X188356000Y-88614000D01*
X188356000Y-88614000D02*
X182236000Y-88614000D01*
X183996000Y-88614000D02*
X183996000Y-88414000D01*
X183996000Y-88414000D02*
X183696000Y-88414000D01*
X183696000Y-88414000D02*
X183696000Y-88614000D01*
X183996000Y-88514000D02*
X183696000Y-88514000D01*
X184796000Y-88614000D02*
X184796000Y-89224000D01*
X184796000Y-89224000D02*
X182846000Y-89224000D01*
X182846000Y-89224000D02*
X182846000Y-92724000D01*
X182846000Y-92724000D02*
X187746000Y-92724000D01*
X187746000Y-92724000D02*
X187746000Y-89224000D01*
X187746000Y-89224000D02*
X185796000Y-89224000D01*
X185796000Y-89224000D02*
X185796000Y-88614000D01*
X182236000Y-89924000D02*
X182846000Y-89924000D01*
X182236000Y-91224000D02*
X182846000Y-91224000D01*
X188356000Y-89924000D02*
X187746000Y-89924000D01*
X188356000Y-91224000D02*
X187746000Y-91224000D01*
X185196000Y-92724000D02*
X185196000Y-92224000D01*
X185196000Y-92224000D02*
X185396000Y-92224000D01*
X185396000Y-92224000D02*
X185396000Y-92724000D01*
X185296000Y-92724000D02*
X185296000Y-92224000D01*
X183186000Y-88314000D02*
X181936000Y-88314000D01*
X181936000Y-88314000D02*
X181936000Y-89564000D01*
X180518000Y-142120000D02*
X175798000Y-142120000D01*
X175798000Y-142120000D02*
X175798000Y-148240000D01*
X175798000Y-148240000D02*
X180518000Y-148240000D01*
X180518000Y-148240000D02*
X180518000Y-142120000D01*
X180518000Y-143880000D02*
X180718000Y-143880000D01*
X180718000Y-143880000D02*
X180718000Y-143580000D01*
X180718000Y-143580000D02*
X180518000Y-143580000D01*
X180618000Y-143880000D02*
X180618000Y-143580000D01*
X180518000Y-144680000D02*
X179908000Y-144680000D01*
X179908000Y-144680000D02*
X179908000Y-142730000D01*
X179908000Y-142730000D02*
X176408000Y-142730000D01*
X176408000Y-142730000D02*
X176408000Y-147630000D01*
X176408000Y-147630000D02*
X179908000Y-147630000D01*
X179908000Y-147630000D02*
X179908000Y-145680000D01*
X179908000Y-145680000D02*
X180518000Y-145680000D01*
X179208000Y-142120000D02*
X179208000Y-142730000D01*
X177908000Y-142120000D02*
X177908000Y-142730000D01*
X179208000Y-148240000D02*
X179208000Y-147630000D01*
X177908000Y-148240000D02*
X177908000Y-147630000D01*
X176408000Y-145080000D02*
X176908000Y-145080000D01*
X176908000Y-145080000D02*
X176908000Y-145280000D01*
X176908000Y-145280000D02*
X176408000Y-145280000D01*
X176408000Y-145180000D02*
X176908000Y-145180000D01*
X180818000Y-143070000D02*
X180818000Y-141820000D01*
X180818000Y-141820000D02*
X179568000Y-141820000D01*
X142018000Y-142120000D02*
X137298000Y-142120000D01*
X137298000Y-142120000D02*
X137298000Y-148240000D01*
X137298000Y-148240000D02*
X142018000Y-148240000D01*
X142018000Y-148240000D02*
X142018000Y-142120000D01*
X142018000Y-143880000D02*
X142218000Y-143880000D01*
X142218000Y-143880000D02*
X142218000Y-143580000D01*
X142218000Y-143580000D02*
X142018000Y-143580000D01*
X142118000Y-143880000D02*
X142118000Y-143580000D01*
X142018000Y-144680000D02*
X141408000Y-144680000D01*
X141408000Y-144680000D02*
X141408000Y-142730000D01*
X141408000Y-142730000D02*
X137908000Y-142730000D01*
X137908000Y-142730000D02*
X137908000Y-147630000D01*
X137908000Y-147630000D02*
X141408000Y-147630000D01*
X141408000Y-147630000D02*
X141408000Y-145680000D01*
X141408000Y-145680000D02*
X142018000Y-145680000D01*
X140708000Y-142120000D02*
X140708000Y-142730000D01*
X139408000Y-142120000D02*
X139408000Y-142730000D01*
X140708000Y-148240000D02*
X140708000Y-147630000D01*
X139408000Y-148240000D02*
X139408000Y-147630000D01*
X137908000Y-145080000D02*
X138408000Y-145080000D01*
X138408000Y-145080000D02*
X138408000Y-145280000D01*
X138408000Y-145280000D02*
X137908000Y-145280000D01*
X137908000Y-145180000D02*
X138408000Y-145180000D01*
X142318000Y-143070000D02*
X142318000Y-141820000D01*
X142318000Y-141820000D02*
X141068000Y-141820000D01*
X180518000Y-104620000D02*
X175798000Y-104620000D01*
X175798000Y-104620000D02*
X175798000Y-110740000D01*
X175798000Y-110740000D02*
X180518000Y-110740000D01*
X180518000Y-110740000D02*
X180518000Y-104620000D01*
X180518000Y-106380000D02*
X180718000Y-106380000D01*
X180718000Y-106380000D02*
X180718000Y-106080000D01*
X180718000Y-106080000D02*
X180518000Y-106080000D01*
X180618000Y-106380000D02*
X180618000Y-106080000D01*
X180518000Y-107180000D02*
X179908000Y-107180000D01*
X179908000Y-107180000D02*
X179908000Y-105230000D01*
X179908000Y-105230000D02*
X176408000Y-105230000D01*
X176408000Y-105230000D02*
X176408000Y-110130000D01*
X176408000Y-110130000D02*
X179908000Y-110130000D01*
X179908000Y-110130000D02*
X179908000Y-108180000D01*
X179908000Y-108180000D02*
X180518000Y-108180000D01*
X179208000Y-104620000D02*
X179208000Y-105230000D01*
X177908000Y-104620000D02*
X177908000Y-105230000D01*
X179208000Y-110740000D02*
X179208000Y-110130000D01*
X177908000Y-110740000D02*
X177908000Y-110130000D01*
X176408000Y-107580000D02*
X176908000Y-107580000D01*
X176908000Y-107580000D02*
X176908000Y-107780000D01*
X176908000Y-107780000D02*
X176408000Y-107780000D01*
X176408000Y-107680000D02*
X176908000Y-107680000D01*
X180818000Y-105570000D02*
X180818000Y-104320000D01*
X180818000Y-104320000D02*
X179568000Y-104320000D01*
X150790000Y-134510000D02*
X150790000Y-125790000D01*
X150790000Y-125790000D02*
X156210000Y-125790000D01*
X156210000Y-134510000D02*
X156210000Y-125790000D01*
X152090000Y-136210000D02*
X150790000Y-134510000D01*
X154910000Y-136210000D02*
X156210000Y-134510000D01*
X152090000Y-136210000D02*
X154910000Y-136210000D01*
X112290000Y-134510000D02*
X112290000Y-125790000D01*
X112290000Y-125790000D02*
X117710000Y-125790000D01*
X117710000Y-134510000D02*
X117710000Y-125790000D01*
X113590000Y-136210000D02*
X112290000Y-134510000D01*
X116410000Y-136210000D02*
X117710000Y-134510000D01*
X113590000Y-136210000D02*
X116410000Y-136210000D01*
X150790000Y-97010000D02*
X150790000Y-88290000D01*
X150790000Y-88290000D02*
X156210000Y-88290000D01*
X156210000Y-97010000D02*
X156210000Y-88290000D01*
X152090000Y-98710000D02*
X150790000Y-97010000D01*
X154910000Y-98710000D02*
X156210000Y-97010000D01*
X152090000Y-98710000D02*
X154910000Y-98710000D01*
X161671267Y-139510000D02*
X161328733Y-139510000D01*
X161671267Y-138490000D02*
X161328733Y-138490000D01*
X123171267Y-139510000D02*
X122828733Y-139510000D01*
X123171267Y-138490000D02*
X122828733Y-138490000D01*
X161671267Y-102010000D02*
X161328733Y-102010000D01*
X161671267Y-100990000D02*
X161328733Y-100990000D01*
X173796267Y-141010000D02*
X173453733Y-141010000D01*
X173796267Y-139990000D02*
X173453733Y-139990000D01*
X135296267Y-141010000D02*
X134953733Y-141010000D01*
X135296267Y-139990000D02*
X134953733Y-139990000D01*
X173796267Y-103510000D02*
X173453733Y-103510000D01*
X173796267Y-102490000D02*
X173453733Y-102490000D01*
X167546267Y-125510000D02*
X167203733Y-125510000D01*
X167546267Y-124490000D02*
X167203733Y-124490000D01*
X129046267Y-125510000D02*
X128703733Y-125510000D01*
X129046267Y-124490000D02*
X128703733Y-124490000D01*
X167546267Y-88010000D02*
X167203733Y-88010000D01*
X167546267Y-86990000D02*
X167203733Y-86990000D01*
X157200000Y-143700000D02*
X157200000Y-147300000D01*
X157200000Y-147300000D02*
X166550000Y-147300000D01*
X166550000Y-147300000D02*
X166550000Y-143700000D01*
X166550000Y-143700000D02*
X157200000Y-143700000D01*
X156890000Y-145700000D02*
X156890000Y-147610000D01*
X156890000Y-147610000D02*
X158800000Y-147610000D01*
X157200000Y-146000000D02*
X157500000Y-146000000D01*
X157500000Y-146000000D02*
X157500000Y-147000000D01*
X157500000Y-147000000D02*
X166250000Y-147000000D01*
X166250000Y-147000000D02*
X166250000Y-146000000D01*
X166250000Y-146000000D02*
X166550000Y-146000000D01*
X157200000Y-145250000D02*
X157500000Y-145250000D01*
X157500000Y-145250000D02*
X157500000Y-144150000D01*
X157500000Y-144150000D02*
X157800000Y-144150000D01*
X157800000Y-144150000D02*
X157800000Y-143700000D01*
X166550000Y-145250000D02*
X166250000Y-145250000D01*
X166250000Y-145250000D02*
X166250000Y-144150000D01*
X166250000Y-144150000D02*
X165950000Y-144150000D01*
X165950000Y-144150000D02*
X165950000Y-143700000D01*
X157800000Y-144150000D02*
X159000000Y-144150000D01*
X159000000Y-144150000D02*
X159000000Y-143850000D01*
X159000000Y-143850000D02*
X159750000Y-143850000D01*
X159750000Y-143850000D02*
X159750000Y-144150000D01*
X159750000Y-144150000D02*
X164000000Y-144150000D01*
X164000000Y-144150000D02*
X164000000Y-143850000D01*
X164000000Y-143850000D02*
X164750000Y-143850000D01*
X164750000Y-143850000D02*
X164750000Y-144150000D01*
X164750000Y-144150000D02*
X165950000Y-144150000D01*
X118700000Y-143700000D02*
X118700000Y-147300000D01*
X118700000Y-147300000D02*
X128050000Y-147300000D01*
X128050000Y-147300000D02*
X128050000Y-143700000D01*
X128050000Y-143700000D02*
X118700000Y-143700000D01*
X118390000Y-145700000D02*
X118390000Y-147610000D01*
X118390000Y-147610000D02*
X120300000Y-147610000D01*
X118700000Y-146000000D02*
X119000000Y-146000000D01*
X119000000Y-146000000D02*
X119000000Y-147000000D01*
X119000000Y-147000000D02*
X127750000Y-147000000D01*
X127750000Y-147000000D02*
X127750000Y-146000000D01*
X127750000Y-146000000D02*
X128050000Y-146000000D01*
X118700000Y-145250000D02*
X119000000Y-145250000D01*
X119000000Y-145250000D02*
X119000000Y-144150000D01*
X119000000Y-144150000D02*
X119300000Y-144150000D01*
X119300000Y-144150000D02*
X119300000Y-143700000D01*
X128050000Y-145250000D02*
X127750000Y-145250000D01*
X127750000Y-145250000D02*
X127750000Y-144150000D01*
X127750000Y-144150000D02*
X127450000Y-144150000D01*
X127450000Y-144150000D02*
X127450000Y-143700000D01*
X119300000Y-144150000D02*
X120500000Y-144150000D01*
X120500000Y-144150000D02*
X120500000Y-143850000D01*
X120500000Y-143850000D02*
X121250000Y-143850000D01*
X121250000Y-143850000D02*
X121250000Y-144150000D01*
X121250000Y-144150000D02*
X125500000Y-144150000D01*
X125500000Y-144150000D02*
X125500000Y-143850000D01*
X125500000Y-143850000D02*
X126250000Y-143850000D01*
X126250000Y-143850000D02*
X126250000Y-144150000D01*
X126250000Y-144150000D02*
X127450000Y-144150000D01*
X157200000Y-106200000D02*
X157200000Y-109800000D01*
X157200000Y-109800000D02*
X166550000Y-109800000D01*
X166550000Y-109800000D02*
X166550000Y-106200000D01*
X166550000Y-106200000D02*
X157200000Y-106200000D01*
X156890000Y-108200000D02*
X156890000Y-110110000D01*
X156890000Y-110110000D02*
X158800000Y-110110000D01*
X157200000Y-108500000D02*
X157500000Y-108500000D01*
X157500000Y-108500000D02*
X157500000Y-109500000D01*
X157500000Y-109500000D02*
X166250000Y-109500000D01*
X166250000Y-109500000D02*
X166250000Y-108500000D01*
X166250000Y-108500000D02*
X166550000Y-108500000D01*
X157200000Y-107750000D02*
X157500000Y-107750000D01*
X157500000Y-107750000D02*
X157500000Y-106650000D01*
X157500000Y-106650000D02*
X157800000Y-106650000D01*
X157800000Y-106650000D02*
X157800000Y-106200000D01*
X166550000Y-107750000D02*
X166250000Y-107750000D01*
X166250000Y-107750000D02*
X166250000Y-106650000D01*
X166250000Y-106650000D02*
X165950000Y-106650000D01*
X165950000Y-106650000D02*
X165950000Y-106200000D01*
X157800000Y-106650000D02*
X159000000Y-106650000D01*
X159000000Y-106650000D02*
X159000000Y-106350000D01*
X159000000Y-106350000D02*
X159750000Y-106350000D01*
X159750000Y-106350000D02*
X159750000Y-106650000D01*
X159750000Y-106650000D02*
X164000000Y-106650000D01*
X164000000Y-106650000D02*
X164000000Y-106350000D01*
X164000000Y-106350000D02*
X164750000Y-106350000D01*
X164750000Y-106350000D02*
X164750000Y-106650000D01*
X164750000Y-106650000D02*
X165950000Y-106650000D01*
X163010000Y-132203733D02*
X163010000Y-132546267D01*
X161990000Y-132203733D02*
X161990000Y-132546267D01*
X124510000Y-132203733D02*
X124510000Y-132546267D01*
X123490000Y-132203733D02*
X123490000Y-132546267D01*
X163010000Y-94703733D02*
X163010000Y-95046267D01*
X161990000Y-94703733D02*
X161990000Y-95046267D01*
X175328733Y-124490000D02*
X175671267Y-124490000D01*
X175328733Y-125510000D02*
X175671267Y-125510000D01*
X136828733Y-124490000D02*
X137171267Y-124490000D01*
X136828733Y-125510000D02*
X137171267Y-125510000D01*
X175328733Y-86990000D02*
X175671267Y-86990000D01*
X175328733Y-88010000D02*
X175671267Y-88010000D01*
D10*
X163825000Y-126845000D02*
X176015000Y-126845000D01*
X176015000Y-126845000D02*
X176015000Y-139035000D01*
X176015000Y-139035000D02*
X163825000Y-139035000D01*
X163825000Y-139035000D02*
X163825000Y-126845000D01*
X125325000Y-126845000D02*
X137515000Y-126845000D01*
X137515000Y-126845000D02*
X137515000Y-139035000D01*
X137515000Y-139035000D02*
X125325000Y-139035000D01*
X125325000Y-139035000D02*
X125325000Y-126845000D01*
X163825000Y-89345000D02*
X176015000Y-89345000D01*
X176015000Y-89345000D02*
X176015000Y-101535000D01*
X176015000Y-101535000D02*
X163825000Y-101535000D01*
X163825000Y-101535000D02*
X163825000Y-89345000D01*
D12*
X172175000Y-124265000D02*
X169715000Y-124265000D01*
X169715000Y-124265000D02*
X169715000Y-125735000D01*
X169715000Y-125735000D02*
X172175000Y-125735000D01*
X133675000Y-124265000D02*
X131215000Y-124265000D01*
X131215000Y-124265000D02*
X131215000Y-125735000D01*
X131215000Y-125735000D02*
X133675000Y-125735000D01*
X172175000Y-86765000D02*
X169715000Y-86765000D01*
X169715000Y-86765000D02*
X169715000Y-88235000D01*
X169715000Y-88235000D02*
X172175000Y-88235000D01*
X176990000Y-128796267D02*
X176990000Y-128453733D01*
X178010000Y-128796267D02*
X178010000Y-128453733D01*
X138490000Y-128796267D02*
X138490000Y-128453733D01*
X139510000Y-128796267D02*
X139510000Y-128453733D01*
X176990000Y-91296267D02*
X176990000Y-90953733D01*
X178010000Y-91296267D02*
X178010000Y-90953733D01*
X142318000Y-104320000D02*
X141068000Y-104320000D01*
X142318000Y-105570000D02*
X142318000Y-104320000D01*
X137908000Y-107680000D02*
X138408000Y-107680000D01*
X138408000Y-107780000D02*
X137908000Y-107780000D01*
X138408000Y-107580000D02*
X138408000Y-107780000D01*
X137908000Y-107580000D02*
X138408000Y-107580000D01*
X139408000Y-110740000D02*
X139408000Y-110130000D01*
X140708000Y-110740000D02*
X140708000Y-110130000D01*
X139408000Y-104620000D02*
X139408000Y-105230000D01*
X140708000Y-104620000D02*
X140708000Y-105230000D01*
X141408000Y-108180000D02*
X142018000Y-108180000D01*
X141408000Y-110130000D02*
X141408000Y-108180000D01*
X137908000Y-110130000D02*
X141408000Y-110130000D01*
X137908000Y-105230000D02*
X137908000Y-110130000D01*
X141408000Y-105230000D02*
X137908000Y-105230000D01*
X141408000Y-107180000D02*
X141408000Y-105230000D01*
X142018000Y-107180000D02*
X141408000Y-107180000D01*
X142118000Y-106380000D02*
X142118000Y-106080000D01*
X142218000Y-106080000D02*
X142018000Y-106080000D01*
X142218000Y-106380000D02*
X142218000Y-106080000D01*
X142018000Y-106380000D02*
X142218000Y-106380000D01*
X142018000Y-110740000D02*
X142018000Y-104620000D01*
X137298000Y-110740000D02*
X142018000Y-110740000D01*
X137298000Y-104620000D02*
X137298000Y-110740000D01*
X142018000Y-104620000D02*
X137298000Y-104620000D01*
X136730000Y-104320000D02*
X135480000Y-104320000D01*
X136730000Y-105570000D02*
X136730000Y-104320000D01*
X132320000Y-107680000D02*
X132820000Y-107680000D01*
X132820000Y-107780000D02*
X132320000Y-107780000D01*
X132820000Y-107580000D02*
X132820000Y-107780000D01*
X132320000Y-107580000D02*
X132820000Y-107580000D01*
X133820000Y-110740000D02*
X133820000Y-110130000D01*
X135120000Y-110740000D02*
X135120000Y-110130000D01*
X133820000Y-104620000D02*
X133820000Y-105230000D01*
X135120000Y-104620000D02*
X135120000Y-105230000D01*
X135820000Y-108180000D02*
X136430000Y-108180000D01*
X135820000Y-110130000D02*
X135820000Y-108180000D01*
X132320000Y-110130000D02*
X135820000Y-110130000D01*
X132320000Y-105230000D02*
X132320000Y-110130000D01*
X135820000Y-105230000D02*
X132320000Y-105230000D01*
X135820000Y-107180000D02*
X135820000Y-105230000D01*
X136430000Y-107180000D02*
X135820000Y-107180000D01*
X136530000Y-106380000D02*
X136530000Y-106080000D01*
X136630000Y-106080000D02*
X136430000Y-106080000D01*
X136630000Y-106380000D02*
X136630000Y-106080000D01*
X136430000Y-106380000D02*
X136630000Y-106380000D01*
X136430000Y-110740000D02*
X136430000Y-104620000D01*
X131710000Y-110740000D02*
X136430000Y-110740000D01*
X131710000Y-104620000D02*
X131710000Y-110740000D01*
X136430000Y-104620000D02*
X131710000Y-104620000D01*
X143436000Y-99490000D02*
X143436000Y-100740000D01*
X144686000Y-99490000D02*
X143436000Y-99490000D01*
X146796000Y-103900000D02*
X146796000Y-103400000D01*
X146896000Y-103400000D02*
X146896000Y-103900000D01*
X146696000Y-103400000D02*
X146896000Y-103400000D01*
X146696000Y-103900000D02*
X146696000Y-103400000D01*
X149856000Y-102400000D02*
X149246000Y-102400000D01*
X149856000Y-101100000D02*
X149246000Y-101100000D01*
X143736000Y-102400000D02*
X144346000Y-102400000D01*
X143736000Y-101100000D02*
X144346000Y-101100000D01*
X147296000Y-100400000D02*
X147296000Y-99790000D01*
X149246000Y-100400000D02*
X147296000Y-100400000D01*
X149246000Y-103900000D02*
X149246000Y-100400000D01*
X144346000Y-103900000D02*
X149246000Y-103900000D01*
X144346000Y-100400000D02*
X144346000Y-103900000D01*
X146296000Y-100400000D02*
X144346000Y-100400000D01*
X146296000Y-99790000D02*
X146296000Y-100400000D01*
X145496000Y-99690000D02*
X145196000Y-99690000D01*
X145196000Y-99590000D02*
X145196000Y-99790000D01*
X145496000Y-99590000D02*
X145196000Y-99590000D01*
X145496000Y-99790000D02*
X145496000Y-99590000D01*
X149856000Y-99790000D02*
X143736000Y-99790000D01*
X149856000Y-104510000D02*
X149856000Y-99790000D01*
X143736000Y-104510000D02*
X149856000Y-104510000D01*
X143736000Y-99790000D02*
X143736000Y-104510000D01*
X143436000Y-93902000D02*
X143436000Y-95152000D01*
X144686000Y-93902000D02*
X143436000Y-93902000D01*
X146796000Y-98312000D02*
X146796000Y-97812000D01*
X146896000Y-97812000D02*
X146896000Y-98312000D01*
X146696000Y-97812000D02*
X146896000Y-97812000D01*
X146696000Y-98312000D02*
X146696000Y-97812000D01*
X149856000Y-96812000D02*
X149246000Y-96812000D01*
X149856000Y-95512000D02*
X149246000Y-95512000D01*
X143736000Y-96812000D02*
X144346000Y-96812000D01*
X143736000Y-95512000D02*
X144346000Y-95512000D01*
X147296000Y-94812000D02*
X147296000Y-94202000D01*
X149246000Y-94812000D02*
X147296000Y-94812000D01*
X149246000Y-98312000D02*
X149246000Y-94812000D01*
X144346000Y-98312000D02*
X149246000Y-98312000D01*
X144346000Y-94812000D02*
X144346000Y-98312000D01*
X146296000Y-94812000D02*
X144346000Y-94812000D01*
X146296000Y-94202000D02*
X146296000Y-94812000D01*
X145496000Y-94102000D02*
X145196000Y-94102000D01*
X145196000Y-94002000D02*
X145196000Y-94202000D01*
X145496000Y-94002000D02*
X145196000Y-94002000D01*
X145496000Y-94202000D02*
X145496000Y-94002000D01*
X149856000Y-94202000D02*
X143736000Y-94202000D01*
X149856000Y-98922000D02*
X149856000Y-94202000D01*
X143736000Y-98922000D02*
X149856000Y-98922000D01*
X143736000Y-94202000D02*
X143736000Y-98922000D01*
X143436000Y-88314000D02*
X143436000Y-89564000D01*
X144686000Y-88314000D02*
X143436000Y-88314000D01*
X146796000Y-92724000D02*
X146796000Y-92224000D01*
X146896000Y-92224000D02*
X146896000Y-92724000D01*
X146696000Y-92224000D02*
X146896000Y-92224000D01*
X146696000Y-92724000D02*
X146696000Y-92224000D01*
X149856000Y-91224000D02*
X149246000Y-91224000D01*
X149856000Y-89924000D02*
X149246000Y-89924000D01*
X143736000Y-91224000D02*
X144346000Y-91224000D01*
X143736000Y-89924000D02*
X144346000Y-89924000D01*
X147296000Y-89224000D02*
X147296000Y-88614000D01*
X149246000Y-89224000D02*
X147296000Y-89224000D01*
X149246000Y-92724000D02*
X149246000Y-89224000D01*
X144346000Y-92724000D02*
X149246000Y-92724000D01*
X144346000Y-89224000D02*
X144346000Y-92724000D01*
X146296000Y-89224000D02*
X144346000Y-89224000D01*
X146296000Y-88614000D02*
X146296000Y-89224000D01*
X145496000Y-88514000D02*
X145196000Y-88514000D01*
X145196000Y-88414000D02*
X145196000Y-88614000D01*
X145496000Y-88414000D02*
X145196000Y-88414000D01*
X145496000Y-88614000D02*
X145496000Y-88414000D01*
X149856000Y-88614000D02*
X143736000Y-88614000D01*
X149856000Y-93334000D02*
X149856000Y-88614000D01*
X143736000Y-93334000D02*
X149856000Y-93334000D01*
X143736000Y-88614000D02*
X143736000Y-93334000D01*
X143436000Y-82726000D02*
X143436000Y-83976000D01*
X144686000Y-82726000D02*
X143436000Y-82726000D01*
X146796000Y-87136000D02*
X146796000Y-86636000D01*
X146896000Y-86636000D02*
X146896000Y-87136000D01*
X146696000Y-86636000D02*
X146896000Y-86636000D01*
X146696000Y-87136000D02*
X146696000Y-86636000D01*
X149856000Y-85636000D02*
X149246000Y-85636000D01*
X149856000Y-84336000D02*
X149246000Y-84336000D01*
X143736000Y-85636000D02*
X144346000Y-85636000D01*
X143736000Y-84336000D02*
X144346000Y-84336000D01*
X147296000Y-83636000D02*
X147296000Y-83026000D01*
X149246000Y-83636000D02*
X147296000Y-83636000D01*
X149246000Y-87136000D02*
X149246000Y-83636000D01*
X144346000Y-87136000D02*
X149246000Y-87136000D01*
X144346000Y-83636000D02*
X144346000Y-87136000D01*
X146296000Y-83636000D02*
X144346000Y-83636000D01*
X146296000Y-83026000D02*
X146296000Y-83636000D01*
X145496000Y-82926000D02*
X145196000Y-82926000D01*
X145196000Y-82826000D02*
X145196000Y-83026000D01*
X145496000Y-82826000D02*
X145196000Y-82826000D01*
X145496000Y-83026000D02*
X145496000Y-82826000D01*
X149856000Y-83026000D02*
X143736000Y-83026000D01*
X149856000Y-87746000D02*
X149856000Y-83026000D01*
X143736000Y-87746000D02*
X149856000Y-87746000D01*
X143736000Y-83026000D02*
X143736000Y-87746000D01*
X121190000Y-94638748D02*
X121190000Y-95161252D01*
X122610000Y-94638748D02*
X122610000Y-95161252D01*
X141610000Y-74390000D02*
X138790000Y-74390000D01*
X138790000Y-74390000D02*
X137490000Y-76090000D01*
X141610000Y-74390000D02*
X142910000Y-76090000D01*
X137490000Y-76090000D02*
X137490000Y-84810000D01*
X142910000Y-84810000D02*
X137490000Y-84810000D01*
X142910000Y-76090000D02*
X142910000Y-84810000D01*
X135410000Y-74390000D02*
X132590000Y-74390000D01*
X132590000Y-74390000D02*
X131290000Y-76090000D01*
X135410000Y-74390000D02*
X136710000Y-76090000D01*
X131290000Y-76090000D02*
X131290000Y-84810000D01*
X136710000Y-84810000D02*
X131290000Y-84810000D01*
X136710000Y-76090000D02*
X136710000Y-84810000D01*
X123010000Y-74390000D02*
X120190000Y-74390000D01*
X120190000Y-74390000D02*
X118890000Y-76090000D01*
X123010000Y-74390000D02*
X124310000Y-76090000D01*
X118890000Y-76090000D02*
X118890000Y-84810000D01*
X124310000Y-84810000D02*
X118890000Y-84810000D01*
X124310000Y-76090000D02*
X124310000Y-84810000D01*
X129210000Y-74390000D02*
X126390000Y-74390000D01*
X126390000Y-74390000D02*
X125090000Y-76090000D01*
X129210000Y-74390000D02*
X130510000Y-76090000D01*
X125090000Y-76090000D02*
X125090000Y-84810000D01*
X130510000Y-84810000D02*
X125090000Y-84810000D01*
X130510000Y-76090000D02*
X130510000Y-84810000D01*
X113590000Y-98710000D02*
X116410000Y-98710000D01*
X116410000Y-98710000D02*
X117710000Y-97010000D01*
X113590000Y-98710000D02*
X112290000Y-97010000D01*
X117710000Y-97010000D02*
X117710000Y-88290000D01*
X112290000Y-88290000D02*
X117710000Y-88290000D01*
X112290000Y-97010000D02*
X112290000Y-88290000D01*
D10*
X125325000Y-101535000D02*
X125325000Y-89345000D01*
X137515000Y-101535000D02*
X125325000Y-101535000D01*
X137515000Y-89345000D02*
X137515000Y-101535000D01*
X125325000Y-89345000D02*
X137515000Y-89345000D01*
D12*
X129046267Y-86990000D02*
X128703733Y-86990000D01*
X129046267Y-88010000D02*
X128703733Y-88010000D01*
X135296267Y-102490000D02*
X134953733Y-102490000D01*
X135296267Y-103510000D02*
X134953733Y-103510000D01*
X136828733Y-88010000D02*
X137171267Y-88010000D01*
X136828733Y-86990000D02*
X137171267Y-86990000D01*
X123171267Y-100990000D02*
X122828733Y-100990000D01*
X123171267Y-102010000D02*
X122828733Y-102010000D01*
X123490000Y-94703733D02*
X123490000Y-95046267D01*
X124510000Y-94703733D02*
X124510000Y-95046267D01*
X126250000Y-106650000D02*
X127450000Y-106650000D01*
X126250000Y-106350000D02*
X126250000Y-106650000D01*
X125500000Y-106350000D02*
X126250000Y-106350000D01*
X125500000Y-106650000D02*
X125500000Y-106350000D01*
X121250000Y-106650000D02*
X125500000Y-106650000D01*
X121250000Y-106350000D02*
X121250000Y-106650000D01*
X120500000Y-106350000D02*
X121250000Y-106350000D01*
X120500000Y-106650000D02*
X120500000Y-106350000D01*
X119300000Y-106650000D02*
X120500000Y-106650000D01*
X127450000Y-106650000D02*
X127450000Y-106200000D01*
X127750000Y-106650000D02*
X127450000Y-106650000D01*
X127750000Y-107750000D02*
X127750000Y-106650000D01*
X128050000Y-107750000D02*
X127750000Y-107750000D01*
X119300000Y-106650000D02*
X119300000Y-106200000D01*
X119000000Y-106650000D02*
X119300000Y-106650000D01*
X119000000Y-107750000D02*
X119000000Y-106650000D01*
X118700000Y-107750000D02*
X119000000Y-107750000D01*
X127750000Y-108500000D02*
X128050000Y-108500000D01*
X127750000Y-109500000D02*
X127750000Y-108500000D01*
X119000000Y-109500000D02*
X127750000Y-109500000D01*
X119000000Y-108500000D02*
X119000000Y-109500000D01*
X118700000Y-108500000D02*
X119000000Y-108500000D01*
X118390000Y-110110000D02*
X120300000Y-110110000D01*
X118390000Y-108200000D02*
X118390000Y-110110000D01*
X128050000Y-106200000D02*
X118700000Y-106200000D01*
X128050000Y-109800000D02*
X128050000Y-106200000D01*
X118700000Y-109800000D02*
X128050000Y-109800000D01*
X118700000Y-106200000D02*
X118700000Y-109800000D01*
X131215000Y-88235000D02*
X133675000Y-88235000D01*
X131215000Y-86765000D02*
X131215000Y-88235000D01*
X133675000Y-86765000D02*
X131215000Y-86765000D01*
X139510000Y-91296267D02*
X139510000Y-90953733D01*
X138490000Y-91296267D02*
X138490000Y-90953733D01*
D11*
X125916380Y-67515380D02*
X125583047Y-67039190D01*
X125344952Y-67515380D02*
X125344952Y-66515380D01*
X125725904Y-66515380D01*
X125821142Y-66563000D01*
X125868761Y-66610619D01*
X125916380Y-66705857D01*
X125916380Y-66848714D01*
X125868761Y-66943952D01*
X125821142Y-66991571D01*
X125725904Y-67039190D01*
X125344952Y-67039190D01*
X126344952Y-66991571D02*
X126678285Y-66991571D01*
X126821142Y-67515380D02*
X126344952Y-67515380D01*
X126344952Y-66515380D01*
X126821142Y-66515380D01*
X127583047Y-66991571D02*
X127249714Y-66991571D01*
X127249714Y-67515380D02*
X127249714Y-66515380D01*
X127725904Y-66515380D01*
X128630666Y-67515380D02*
X128059238Y-67515380D01*
X128344952Y-67515380D02*
X128344952Y-66515380D01*
X128249714Y-66658238D01*
X128154476Y-66753476D01*
X128059238Y-66801095D01*
X172916380Y-152515380D02*
X172583047Y-152039190D01*
X172344952Y-152515380D02*
X172344952Y-151515380D01*
X172725904Y-151515380D01*
X172821142Y-151563000D01*
X172868761Y-151610619D01*
X172916380Y-151705857D01*
X172916380Y-151848714D01*
X172868761Y-151943952D01*
X172821142Y-151991571D01*
X172725904Y-152039190D01*
X172344952Y-152039190D01*
X173344952Y-151991571D02*
X173678285Y-151991571D01*
X173821142Y-152515380D02*
X173344952Y-152515380D01*
X173344952Y-151515380D01*
X173821142Y-151515380D01*
X174583047Y-151991571D02*
X174249714Y-151991571D01*
X174249714Y-152515380D02*
X174249714Y-151515380D01*
X174725904Y-151515380D01*
X175059238Y-151610619D02*
X175106857Y-151563000D01*
X175202095Y-151515380D01*
X175440190Y-151515380D01*
X175535428Y-151563000D01*
X175583047Y-151610619D01*
X175630666Y-151705857D01*
X175630666Y-151801095D01*
X175583047Y-151943952D01*
X175011619Y-152515380D01*
X175630666Y-152515380D01*
X166407142Y-124171428D02*
X166407142Y-123028571D01*
X166978571Y-123600000D02*
X165835714Y-123600000D01*
X127907142Y-124171428D02*
X127907142Y-123028571D01*
X128478571Y-123600000D02*
X127335714Y-123600000D01*
X166407142Y-86671428D02*
X166407142Y-85528571D01*
X166978571Y-86100000D02*
X165835714Y-86100000D01*
X160207142Y-124171428D02*
X160207142Y-123028571D01*
X160778571Y-123600000D02*
X159635714Y-123600000D01*
X121707142Y-124171428D02*
X121707142Y-123028571D01*
X122278571Y-123600000D02*
X121135714Y-123600000D01*
X160207142Y-86671428D02*
X160207142Y-85528571D01*
X160778571Y-86100000D02*
X159635714Y-86100000D01*
X172607142Y-124171428D02*
X172607142Y-123028571D01*
X173178571Y-123600000D02*
X172035714Y-123600000D01*
X134107142Y-124171428D02*
X134107142Y-123028571D01*
X134678571Y-123600000D02*
X133535714Y-123600000D01*
X172607142Y-86671428D02*
X172607142Y-85528571D01*
X173178571Y-86100000D02*
X172035714Y-86100000D01*
X178807142Y-124171428D02*
X178807142Y-123028571D01*
X179378571Y-123600000D02*
X178235714Y-123600000D01*
X140307142Y-124171428D02*
X140307142Y-123028571D01*
X140878571Y-123600000D02*
X139735714Y-123600000D01*
X178807142Y-86671428D02*
X178807142Y-85528571D01*
X179378571Y-86100000D02*
X178235714Y-86100000D01*
X162407142Y-132566666D02*
X162454761Y-132614285D01*
X162502380Y-132757142D01*
X162502380Y-132852380D01*
X162454761Y-132995238D01*
X162359523Y-133090476D01*
X162264285Y-133138095D01*
X162073809Y-133185714D01*
X161930952Y-133185714D01*
X161740476Y-133138095D01*
X161645238Y-133090476D01*
X161550000Y-132995238D01*
X161502380Y-132852380D01*
X161502380Y-132757142D01*
X161550000Y-132614285D01*
X161597619Y-132566666D01*
X162502380Y-131614285D02*
X162502380Y-132185714D01*
X162502380Y-131900000D02*
X161502380Y-131900000D01*
X161645238Y-131995238D01*
X161740476Y-132090476D01*
X161788095Y-132185714D01*
X123907142Y-132566666D02*
X123954761Y-132614285D01*
X124002380Y-132757142D01*
X124002380Y-132852380D01*
X123954761Y-132995238D01*
X123859523Y-133090476D01*
X123764285Y-133138095D01*
X123573809Y-133185714D01*
X123430952Y-133185714D01*
X123240476Y-133138095D01*
X123145238Y-133090476D01*
X123050000Y-132995238D01*
X123002380Y-132852380D01*
X123002380Y-132757142D01*
X123050000Y-132614285D01*
X123097619Y-132566666D01*
X124002380Y-131614285D02*
X124002380Y-132185714D01*
X124002380Y-131900000D02*
X123002380Y-131900000D01*
X123145238Y-131995238D01*
X123240476Y-132090476D01*
X123288095Y-132185714D01*
X162407142Y-95066666D02*
X162454761Y-95114285D01*
X162502380Y-95257142D01*
X162502380Y-95352380D01*
X162454761Y-95495238D01*
X162359523Y-95590476D01*
X162264285Y-95638095D01*
X162073809Y-95685714D01*
X161930952Y-95685714D01*
X161740476Y-95638095D01*
X161645238Y-95590476D01*
X161550000Y-95495238D01*
X161502380Y-95352380D01*
X161502380Y-95257142D01*
X161550000Y-95114285D01*
X161597619Y-95066666D01*
X162502380Y-94114285D02*
X162502380Y-94685714D01*
X162502380Y-94400000D02*
X161502380Y-94400000D01*
X161645238Y-94495238D01*
X161740476Y-94590476D01*
X161788095Y-94685714D01*
X157428571Y-137904761D02*
X157476190Y-137761904D01*
X157523809Y-137714285D01*
X157619047Y-137666666D01*
X157761904Y-137666666D01*
X157857142Y-137714285D01*
X157904761Y-137761904D01*
X157952380Y-137857142D01*
X157952380Y-138238095D01*
X156952380Y-138238095D01*
X156952380Y-137904761D01*
X157000000Y-137809523D01*
X157047619Y-137761904D01*
X157142857Y-137714285D01*
X157238095Y-137714285D01*
X157333333Y-137761904D01*
X157380952Y-137809523D01*
X157428571Y-137904761D01*
X157428571Y-138238095D01*
X157666666Y-137285714D02*
X157666666Y-136809523D01*
X157952380Y-137380952D02*
X156952380Y-137047619D01*
X157952380Y-136714285D01*
X156952380Y-136523809D02*
X156952380Y-135952380D01*
X157952380Y-136238095D02*
X156952380Y-136238095D01*
X156952380Y-135761904D02*
X156952380Y-135190476D01*
X157952380Y-135476190D02*
X156952380Y-135476190D01*
X157952380Y-134095238D02*
X156952380Y-134095238D01*
X157952380Y-133619047D02*
X156952380Y-133619047D01*
X157952380Y-133047619D01*
X156952380Y-133047619D01*
X157952380Y-132571428D02*
X156952380Y-132571428D01*
X156952380Y-132190476D01*
X157000000Y-132095238D01*
X157047619Y-132047619D01*
X157142857Y-132000000D01*
X157285714Y-132000000D01*
X157380952Y-132047619D01*
X157428571Y-132095238D01*
X157476190Y-132190476D01*
X157476190Y-132571428D01*
X156952380Y-131571428D02*
X157761904Y-131571428D01*
X157857142Y-131523809D01*
X157904761Y-131476190D01*
X157952380Y-131380952D01*
X157952380Y-131190476D01*
X157904761Y-131095238D01*
X157857142Y-131047619D01*
X157761904Y-131000000D01*
X156952380Y-131000000D01*
X156952380Y-130666666D02*
X156952380Y-130095238D01*
X157952380Y-130380952D02*
X156952380Y-130380952D01*
X157952380Y-129000000D02*
X156952380Y-129000000D01*
X157666666Y-128666666D01*
X156952380Y-128333333D01*
X157952380Y-128333333D01*
X157666666Y-127904761D02*
X157666666Y-127428571D01*
X157952380Y-128000000D02*
X156952380Y-127666666D01*
X157952380Y-127333333D01*
X156952380Y-127095238D02*
X157952380Y-126428571D01*
X156952380Y-126428571D02*
X157952380Y-127095238D01*
X157952380Y-125523809D02*
X157952380Y-126095238D01*
X157952380Y-125809523D02*
X156952380Y-125809523D01*
X157095238Y-125904761D01*
X157190476Y-126000000D01*
X157238095Y-126095238D01*
X157285714Y-124666666D02*
X157952380Y-124666666D01*
X156904761Y-124904761D02*
X157619047Y-125142857D01*
X157619047Y-124523809D01*
X156952380Y-124285714D02*
X157952380Y-123952380D01*
X156952380Y-123619047D01*
X153607142Y-125071428D02*
X153607142Y-123928571D01*
X154178571Y-124500000D02*
X153035714Y-124500000D01*
X153607142Y-138071428D02*
X153607142Y-136928571D01*
X118928571Y-137904761D02*
X118976190Y-137761904D01*
X119023809Y-137714285D01*
X119119047Y-137666666D01*
X119261904Y-137666666D01*
X119357142Y-137714285D01*
X119404761Y-137761904D01*
X119452380Y-137857142D01*
X119452380Y-138238095D01*
X118452380Y-138238095D01*
X118452380Y-137904761D01*
X118500000Y-137809523D01*
X118547619Y-137761904D01*
X118642857Y-137714285D01*
X118738095Y-137714285D01*
X118833333Y-137761904D01*
X118880952Y-137809523D01*
X118928571Y-137904761D01*
X118928571Y-138238095D01*
X119166666Y-137285714D02*
X119166666Y-136809523D01*
X119452380Y-137380952D02*
X118452380Y-137047619D01*
X119452380Y-136714285D01*
X118452380Y-136523809D02*
X118452380Y-135952380D01*
X119452380Y-136238095D02*
X118452380Y-136238095D01*
X118452380Y-135761904D02*
X118452380Y-135190476D01*
X119452380Y-135476190D02*
X118452380Y-135476190D01*
X119452380Y-134095238D02*
X118452380Y-134095238D01*
X119452380Y-133619047D02*
X118452380Y-133619047D01*
X119452380Y-133047619D01*
X118452380Y-133047619D01*
X119452380Y-132571428D02*
X118452380Y-132571428D01*
X118452380Y-132190476D01*
X118500000Y-132095238D01*
X118547619Y-132047619D01*
X118642857Y-132000000D01*
X118785714Y-132000000D01*
X118880952Y-132047619D01*
X118928571Y-132095238D01*
X118976190Y-132190476D01*
X118976190Y-132571428D01*
X118452380Y-131571428D02*
X119261904Y-131571428D01*
X119357142Y-131523809D01*
X119404761Y-131476190D01*
X119452380Y-131380952D01*
X119452380Y-131190476D01*
X119404761Y-131095238D01*
X119357142Y-131047619D01*
X119261904Y-131000000D01*
X118452380Y-131000000D01*
X118452380Y-130666666D02*
X118452380Y-130095238D01*
X119452380Y-130380952D02*
X118452380Y-130380952D01*
X119452380Y-129000000D02*
X118452380Y-129000000D01*
X119166666Y-128666666D01*
X118452380Y-128333333D01*
X119452380Y-128333333D01*
X119166666Y-127904761D02*
X119166666Y-127428571D01*
X119452380Y-128000000D02*
X118452380Y-127666666D01*
X119452380Y-127333333D01*
X118452380Y-127095238D02*
X119452380Y-126428571D01*
X118452380Y-126428571D02*
X119452380Y-127095238D01*
X119452380Y-125523809D02*
X119452380Y-126095238D01*
X119452380Y-125809523D02*
X118452380Y-125809523D01*
X118595238Y-125904761D01*
X118690476Y-126000000D01*
X118738095Y-126095238D01*
X118785714Y-124666666D02*
X119452380Y-124666666D01*
X118404761Y-124904761D02*
X119119047Y-125142857D01*
X119119047Y-124523809D01*
X118452380Y-124285714D02*
X119452380Y-123952380D01*
X118452380Y-123619047D01*
X115107142Y-125071428D02*
X115107142Y-123928571D01*
X115678571Y-124500000D02*
X114535714Y-124500000D01*
X115107142Y-138071428D02*
X115107142Y-136928571D01*
X157428571Y-100404761D02*
X157476190Y-100261904D01*
X157523809Y-100214285D01*
X157619047Y-100166666D01*
X157761904Y-100166666D01*
X157857142Y-100214285D01*
X157904761Y-100261904D01*
X157952380Y-100357142D01*
X157952380Y-100738095D01*
X156952380Y-100738095D01*
X156952380Y-100404761D01*
X157000000Y-100309523D01*
X157047619Y-100261904D01*
X157142857Y-100214285D01*
X157238095Y-100214285D01*
X157333333Y-100261904D01*
X157380952Y-100309523D01*
X157428571Y-100404761D01*
X157428571Y-100738095D01*
X157666666Y-99785714D02*
X157666666Y-99309523D01*
X157952380Y-99880952D02*
X156952380Y-99547619D01*
X157952380Y-99214285D01*
X156952380Y-99023809D02*
X156952380Y-98452380D01*
X157952380Y-98738095D02*
X156952380Y-98738095D01*
X156952380Y-98261904D02*
X156952380Y-97690476D01*
X157952380Y-97976190D02*
X156952380Y-97976190D01*
X157952380Y-96595238D02*
X156952380Y-96595238D01*
X157952380Y-96119047D02*
X156952380Y-96119047D01*
X157952380Y-95547619D01*
X156952380Y-95547619D01*
X157952380Y-95071428D02*
X156952380Y-95071428D01*
X156952380Y-94690476D01*
X157000000Y-94595238D01*
X157047619Y-94547619D01*
X157142857Y-94500000D01*
X157285714Y-94500000D01*
X157380952Y-94547619D01*
X157428571Y-94595238D01*
X157476190Y-94690476D01*
X157476190Y-95071428D01*
X156952380Y-94071428D02*
X157761904Y-94071428D01*
X157857142Y-94023809D01*
X157904761Y-93976190D01*
X157952380Y-93880952D01*
X157952380Y-93690476D01*
X157904761Y-93595238D01*
X157857142Y-93547619D01*
X157761904Y-93500000D01*
X156952380Y-93500000D01*
X156952380Y-93166666D02*
X156952380Y-92595238D01*
X157952380Y-92880952D02*
X156952380Y-92880952D01*
X157952380Y-91500000D02*
X156952380Y-91500000D01*
X157666666Y-91166666D01*
X156952380Y-90833333D01*
X157952380Y-90833333D01*
X157666666Y-90404761D02*
X157666666Y-89928571D01*
X157952380Y-90500000D02*
X156952380Y-90166666D01*
X157952380Y-89833333D01*
X156952380Y-89595238D02*
X157952380Y-88928571D01*
X156952380Y-88928571D02*
X157952380Y-89595238D01*
X157952380Y-88023809D02*
X157952380Y-88595238D01*
X157952380Y-88309523D02*
X156952380Y-88309523D01*
X157095238Y-88404761D01*
X157190476Y-88500000D01*
X157238095Y-88595238D01*
X157285714Y-87166666D02*
X157952380Y-87166666D01*
X156904761Y-87404761D02*
X157619047Y-87642857D01*
X157619047Y-87023809D01*
X156952380Y-86785714D02*
X157952380Y-86452380D01*
X156952380Y-86119047D01*
X153607142Y-87571428D02*
X153607142Y-86428571D01*
X154178571Y-87000000D02*
X153035714Y-87000000D01*
X153607142Y-100571428D02*
X153607142Y-99428571D01*
X161333333Y-140882380D02*
X161000000Y-140406190D01*
X160761904Y-140882380D02*
X160761904Y-139882380D01*
X161142857Y-139882380D01*
X161238095Y-139930000D01*
X161285714Y-139977619D01*
X161333333Y-140072857D01*
X161333333Y-140215714D01*
X161285714Y-140310952D01*
X161238095Y-140358571D01*
X161142857Y-140406190D01*
X160761904Y-140406190D01*
X161714285Y-139977619D02*
X161761904Y-139930000D01*
X161857142Y-139882380D01*
X162095238Y-139882380D01*
X162190476Y-139930000D01*
X162238095Y-139977619D01*
X162285714Y-140072857D01*
X162285714Y-140168095D01*
X162238095Y-140310952D01*
X161666666Y-140882380D01*
X162285714Y-140882380D01*
X122833333Y-140882380D02*
X122500000Y-140406190D01*
X122261904Y-140882380D02*
X122261904Y-139882380D01*
X122642857Y-139882380D01*
X122738095Y-139930000D01*
X122785714Y-139977619D01*
X122833333Y-140072857D01*
X122833333Y-140215714D01*
X122785714Y-140310952D01*
X122738095Y-140358571D01*
X122642857Y-140406190D01*
X122261904Y-140406190D01*
X123214285Y-139977619D02*
X123261904Y-139930000D01*
X123357142Y-139882380D01*
X123595238Y-139882380D01*
X123690476Y-139930000D01*
X123738095Y-139977619D01*
X123785714Y-140072857D01*
X123785714Y-140168095D01*
X123738095Y-140310952D01*
X123166666Y-140882380D01*
X123785714Y-140882380D01*
X161333333Y-103382380D02*
X161000000Y-102906190D01*
X160761904Y-103382380D02*
X160761904Y-102382380D01*
X161142857Y-102382380D01*
X161238095Y-102430000D01*
X161285714Y-102477619D01*
X161333333Y-102572857D01*
X161333333Y-102715714D01*
X161285714Y-102810952D01*
X161238095Y-102858571D01*
X161142857Y-102906190D01*
X160761904Y-102906190D01*
X161714285Y-102477619D02*
X161761904Y-102430000D01*
X161857142Y-102382380D01*
X162095238Y-102382380D01*
X162190476Y-102430000D01*
X162238095Y-102477619D01*
X162285714Y-102572857D01*
X162285714Y-102668095D01*
X162238095Y-102810952D01*
X161666666Y-103382380D01*
X162285714Y-103382380D01*
X170333333Y-140952380D02*
X170000000Y-140476190D01*
X169761904Y-140952380D02*
X169761904Y-139952380D01*
X170142857Y-139952380D01*
X170238095Y-140000000D01*
X170285714Y-140047619D01*
X170333333Y-140142857D01*
X170333333Y-140285714D01*
X170285714Y-140380952D01*
X170238095Y-140428571D01*
X170142857Y-140476190D01*
X169761904Y-140476190D01*
X171190476Y-140285714D02*
X171190476Y-140952380D01*
X170952380Y-139904761D02*
X170714285Y-140619047D01*
X171333333Y-140619047D01*
X131833333Y-140952380D02*
X131500000Y-140476190D01*
X131261904Y-140952380D02*
X131261904Y-139952380D01*
X131642857Y-139952380D01*
X131738095Y-140000000D01*
X131785714Y-140047619D01*
X131833333Y-140142857D01*
X131833333Y-140285714D01*
X131785714Y-140380952D01*
X131738095Y-140428571D01*
X131642857Y-140476190D01*
X131261904Y-140476190D01*
X132690476Y-140285714D02*
X132690476Y-140952380D01*
X132452380Y-139904761D02*
X132214285Y-140619047D01*
X132833333Y-140619047D01*
X170333333Y-103452380D02*
X170000000Y-102976190D01*
X169761904Y-103452380D02*
X169761904Y-102452380D01*
X170142857Y-102452380D01*
X170238095Y-102500000D01*
X170285714Y-102547619D01*
X170333333Y-102642857D01*
X170333333Y-102785714D01*
X170285714Y-102880952D01*
X170238095Y-102928571D01*
X170142857Y-102976190D01*
X169761904Y-102976190D01*
X171190476Y-102785714D02*
X171190476Y-103452380D01*
X170952380Y-102404761D02*
X170714285Y-103119047D01*
X171333333Y-103119047D01*
X167333333Y-126952380D02*
X167000000Y-126476190D01*
X166761904Y-126952380D02*
X166761904Y-125952380D01*
X167142857Y-125952380D01*
X167238095Y-126000000D01*
X167285714Y-126047619D01*
X167333333Y-126142857D01*
X167333333Y-126285714D01*
X167285714Y-126380952D01*
X167238095Y-126428571D01*
X167142857Y-126476190D01*
X166761904Y-126476190D01*
X168238095Y-125952380D02*
X167761904Y-125952380D01*
X167714285Y-126428571D01*
X167761904Y-126380952D01*
X167857142Y-126333333D01*
X168095238Y-126333333D01*
X168190476Y-126380952D01*
X168238095Y-126428571D01*
X168285714Y-126523809D01*
X168285714Y-126761904D01*
X168238095Y-126857142D01*
X168190476Y-126904761D01*
X168095238Y-126952380D01*
X167857142Y-126952380D01*
X167761904Y-126904761D01*
X167714285Y-126857142D01*
X128833333Y-126952380D02*
X128500000Y-126476190D01*
X128261904Y-126952380D02*
X128261904Y-125952380D01*
X128642857Y-125952380D01*
X128738095Y-126000000D01*
X128785714Y-126047619D01*
X128833333Y-126142857D01*
X128833333Y-126285714D01*
X128785714Y-126380952D01*
X128738095Y-126428571D01*
X128642857Y-126476190D01*
X128261904Y-126476190D01*
X129738095Y-125952380D02*
X129261904Y-125952380D01*
X129214285Y-126428571D01*
X129261904Y-126380952D01*
X129357142Y-126333333D01*
X129595238Y-126333333D01*
X129690476Y-126380952D01*
X129738095Y-126428571D01*
X129785714Y-126523809D01*
X129785714Y-126761904D01*
X129738095Y-126857142D01*
X129690476Y-126904761D01*
X129595238Y-126952380D01*
X129357142Y-126952380D01*
X129261904Y-126904761D01*
X129214285Y-126857142D01*
X167333333Y-89452380D02*
X167000000Y-88976190D01*
X166761904Y-89452380D02*
X166761904Y-88452380D01*
X167142857Y-88452380D01*
X167238095Y-88500000D01*
X167285714Y-88547619D01*
X167333333Y-88642857D01*
X167333333Y-88785714D01*
X167285714Y-88880952D01*
X167238095Y-88928571D01*
X167142857Y-88976190D01*
X166761904Y-88976190D01*
X168238095Y-88452380D02*
X167761904Y-88452380D01*
X167714285Y-88928571D01*
X167761904Y-88880952D01*
X167857142Y-88833333D01*
X168095238Y-88833333D01*
X168190476Y-88880952D01*
X168238095Y-88928571D01*
X168285714Y-89023809D01*
X168285714Y-89261904D01*
X168238095Y-89357142D01*
X168190476Y-89404761D01*
X168095238Y-89452380D01*
X167857142Y-89452380D01*
X167761904Y-89404761D01*
X167714285Y-89357142D01*
X161536666Y-142052380D02*
X161536666Y-142766666D01*
X161489047Y-142909523D01*
X161393809Y-143004761D01*
X161250952Y-143052380D01*
X161155714Y-143052380D01*
X162536666Y-143052380D02*
X161965238Y-143052380D01*
X162250952Y-143052380D02*
X162250952Y-142052380D01*
X162155714Y-142195238D01*
X162060476Y-142290476D01*
X161965238Y-142338095D01*
X123036666Y-142052380D02*
X123036666Y-142766666D01*
X122989047Y-142909523D01*
X122893809Y-143004761D01*
X122750952Y-143052380D01*
X122655714Y-143052380D01*
X124036666Y-143052380D02*
X123465238Y-143052380D01*
X123750952Y-143052380D02*
X123750952Y-142052380D01*
X123655714Y-142195238D01*
X123560476Y-142290476D01*
X123465238Y-142338095D01*
X161536666Y-104552380D02*
X161536666Y-105266666D01*
X161489047Y-105409523D01*
X161393809Y-105504761D01*
X161250952Y-105552380D01*
X161155714Y-105552380D01*
X162536666Y-105552380D02*
X161965238Y-105552380D01*
X162250952Y-105552380D02*
X162250952Y-104552380D01*
X162155714Y-104695238D01*
X162060476Y-104790476D01*
X161965238Y-104838095D01*
X162952380Y-129666666D02*
X162476190Y-130000000D01*
X162952380Y-130238095D02*
X161952380Y-130238095D01*
X161952380Y-129857142D01*
X162000000Y-129761904D01*
X162047619Y-129714285D01*
X162142857Y-129666666D01*
X162285714Y-129666666D01*
X162380952Y-129714285D01*
X162428571Y-129761904D01*
X162476190Y-129857142D01*
X162476190Y-130238095D01*
X162952380Y-128714285D02*
X162952380Y-129285714D01*
X162952380Y-129000000D02*
X161952380Y-129000000D01*
X162095238Y-129095238D01*
X162190476Y-129190476D01*
X162238095Y-129285714D01*
X124452380Y-129666666D02*
X123976190Y-130000000D01*
X124452380Y-130238095D02*
X123452380Y-130238095D01*
X123452380Y-129857142D01*
X123500000Y-129761904D01*
X123547619Y-129714285D01*
X123642857Y-129666666D01*
X123785714Y-129666666D01*
X123880952Y-129714285D01*
X123928571Y-129761904D01*
X123976190Y-129857142D01*
X123976190Y-130238095D01*
X124452380Y-128714285D02*
X124452380Y-129285714D01*
X124452380Y-129000000D02*
X123452380Y-129000000D01*
X123595238Y-129095238D01*
X123690476Y-129190476D01*
X123738095Y-129285714D01*
X162952380Y-92166666D02*
X162476190Y-92500000D01*
X162952380Y-92738095D02*
X161952380Y-92738095D01*
X161952380Y-92357142D01*
X162000000Y-92261904D01*
X162047619Y-92214285D01*
X162142857Y-92166666D01*
X162285714Y-92166666D01*
X162380952Y-92214285D01*
X162428571Y-92261904D01*
X162476190Y-92357142D01*
X162476190Y-92738095D01*
X162952380Y-91214285D02*
X162952380Y-91785714D01*
X162952380Y-91500000D02*
X161952380Y-91500000D01*
X162095238Y-91595238D01*
X162190476Y-91690476D01*
X162238095Y-91785714D01*
X175333333Y-126952380D02*
X175000000Y-126476190D01*
X174761904Y-126952380D02*
X174761904Y-125952380D01*
X175142857Y-125952380D01*
X175238095Y-126000000D01*
X175285714Y-126047619D01*
X175333333Y-126142857D01*
X175333333Y-126285714D01*
X175285714Y-126380952D01*
X175238095Y-126428571D01*
X175142857Y-126476190D01*
X174761904Y-126476190D01*
X175666666Y-125952380D02*
X176285714Y-125952380D01*
X175952380Y-126333333D01*
X176095238Y-126333333D01*
X176190476Y-126380952D01*
X176238095Y-126428571D01*
X176285714Y-126523809D01*
X176285714Y-126761904D01*
X176238095Y-126857142D01*
X176190476Y-126904761D01*
X176095238Y-126952380D01*
X175809523Y-126952380D01*
X175714285Y-126904761D01*
X175666666Y-126857142D01*
X136833333Y-126952380D02*
X136500000Y-126476190D01*
X136261904Y-126952380D02*
X136261904Y-125952380D01*
X136642857Y-125952380D01*
X136738095Y-126000000D01*
X136785714Y-126047619D01*
X136833333Y-126142857D01*
X136833333Y-126285714D01*
X136785714Y-126380952D01*
X136738095Y-126428571D01*
X136642857Y-126476190D01*
X136261904Y-126476190D01*
X137166666Y-125952380D02*
X137785714Y-125952380D01*
X137452380Y-126333333D01*
X137595238Y-126333333D01*
X137690476Y-126380952D01*
X137738095Y-126428571D01*
X137785714Y-126523809D01*
X137785714Y-126761904D01*
X137738095Y-126857142D01*
X137690476Y-126904761D01*
X137595238Y-126952380D01*
X137309523Y-126952380D01*
X137214285Y-126904761D01*
X137166666Y-126857142D01*
X175333333Y-89452380D02*
X175000000Y-88976190D01*
X174761904Y-89452380D02*
X174761904Y-88452380D01*
X175142857Y-88452380D01*
X175238095Y-88500000D01*
X175285714Y-88547619D01*
X175333333Y-88642857D01*
X175333333Y-88785714D01*
X175285714Y-88880952D01*
X175238095Y-88928571D01*
X175142857Y-88976190D01*
X174761904Y-88976190D01*
X175666666Y-88452380D02*
X176285714Y-88452380D01*
X175952380Y-88833333D01*
X176095238Y-88833333D01*
X176190476Y-88880952D01*
X176238095Y-88928571D01*
X176285714Y-89023809D01*
X176285714Y-89261904D01*
X176238095Y-89357142D01*
X176190476Y-89404761D01*
X176095238Y-89452380D01*
X175809523Y-89452380D01*
X175714285Y-89404761D01*
X175666666Y-89357142D01*
D13*
X168952380Y-132244523D02*
X168952380Y-133272619D01*
X169012857Y-133393571D01*
X169073333Y-133454047D01*
X169194285Y-133514523D01*
X169436190Y-133514523D01*
X169557142Y-133454047D01*
X169617619Y-133393571D01*
X169678095Y-133272619D01*
X169678095Y-132244523D01*
X170948095Y-133514523D02*
X170222380Y-133514523D01*
X170585238Y-133514523D02*
X170585238Y-132244523D01*
X170464285Y-132425952D01*
X170343333Y-132546904D01*
X170222380Y-132607380D01*
X130452380Y-132244523D02*
X130452380Y-133272619D01*
X130512857Y-133393571D01*
X130573333Y-133454047D01*
X130694285Y-133514523D01*
X130936190Y-133514523D01*
X131057142Y-133454047D01*
X131117619Y-133393571D01*
X131178095Y-133272619D01*
X131178095Y-132244523D01*
X132448095Y-133514523D02*
X131722380Y-133514523D01*
X132085238Y-133514523D02*
X132085238Y-132244523D01*
X131964285Y-132425952D01*
X131843333Y-132546904D01*
X131722380Y-132607380D01*
X168952380Y-94744523D02*
X168952380Y-95772619D01*
X169012857Y-95893571D01*
X169073333Y-95954047D01*
X169194285Y-96014523D01*
X169436190Y-96014523D01*
X169557142Y-95954047D01*
X169617619Y-95893571D01*
X169678095Y-95772619D01*
X169678095Y-94744523D01*
X170948095Y-96014523D02*
X170222380Y-96014523D01*
X170585238Y-96014523D02*
X170585238Y-94744523D01*
X170464285Y-94925952D01*
X170343333Y-95046904D01*
X170222380Y-95107380D01*
D11*
X170636904Y-126952380D02*
X170636904Y-125952380D01*
X170875000Y-125952380D01*
X171017857Y-126000000D01*
X171113095Y-126095238D01*
X171160714Y-126190476D01*
X171208333Y-126380952D01*
X171208333Y-126523809D01*
X171160714Y-126714285D01*
X171113095Y-126809523D01*
X171017857Y-126904761D01*
X170875000Y-126952380D01*
X170636904Y-126952380D01*
X172160714Y-126952380D02*
X171589285Y-126952380D01*
X171875000Y-126952380D02*
X171875000Y-125952380D01*
X171779761Y-126095238D01*
X171684523Y-126190476D01*
X171589285Y-126238095D01*
X132136904Y-126952380D02*
X132136904Y-125952380D01*
X132375000Y-125952380D01*
X132517857Y-126000000D01*
X132613095Y-126095238D01*
X132660714Y-126190476D01*
X132708333Y-126380952D01*
X132708333Y-126523809D01*
X132660714Y-126714285D01*
X132613095Y-126809523D01*
X132517857Y-126904761D01*
X132375000Y-126952380D01*
X132136904Y-126952380D01*
X133660714Y-126952380D02*
X133089285Y-126952380D01*
X133375000Y-126952380D02*
X133375000Y-125952380D01*
X133279761Y-126095238D01*
X133184523Y-126190476D01*
X133089285Y-126238095D01*
X170636904Y-89452380D02*
X170636904Y-88452380D01*
X170875000Y-88452380D01*
X171017857Y-88500000D01*
X171113095Y-88595238D01*
X171160714Y-88690476D01*
X171208333Y-88880952D01*
X171208333Y-89023809D01*
X171160714Y-89214285D01*
X171113095Y-89309523D01*
X171017857Y-89404761D01*
X170875000Y-89452380D01*
X170636904Y-89452380D01*
X172160714Y-89452380D02*
X171589285Y-89452380D01*
X171875000Y-89452380D02*
X171875000Y-88452380D01*
X171779761Y-88595238D01*
X171684523Y-88690476D01*
X171589285Y-88738095D01*
X179357142Y-128791666D02*
X179404761Y-128839285D01*
X179452380Y-128982142D01*
X179452380Y-129077380D01*
X179404761Y-129220238D01*
X179309523Y-129315476D01*
X179214285Y-129363095D01*
X179023809Y-129410714D01*
X178880952Y-129410714D01*
X178690476Y-129363095D01*
X178595238Y-129315476D01*
X178500000Y-129220238D01*
X178452380Y-129077380D01*
X178452380Y-128982142D01*
X178500000Y-128839285D01*
X178547619Y-128791666D01*
X178547619Y-128410714D02*
X178500000Y-128363095D01*
X178452380Y-128267857D01*
X178452380Y-128029761D01*
X178500000Y-127934523D01*
X178547619Y-127886904D01*
X178642857Y-127839285D01*
X178738095Y-127839285D01*
X178880952Y-127886904D01*
X179452380Y-128458333D01*
X179452380Y-127839285D01*
X140857142Y-128791666D02*
X140904761Y-128839285D01*
X140952380Y-128982142D01*
X140952380Y-129077380D01*
X140904761Y-129220238D01*
X140809523Y-129315476D01*
X140714285Y-129363095D01*
X140523809Y-129410714D01*
X140380952Y-129410714D01*
X140190476Y-129363095D01*
X140095238Y-129315476D01*
X140000000Y-129220238D01*
X139952380Y-129077380D01*
X139952380Y-128982142D01*
X140000000Y-128839285D01*
X140047619Y-128791666D01*
X140047619Y-128410714D02*
X140000000Y-128363095D01*
X139952380Y-128267857D01*
X139952380Y-128029761D01*
X140000000Y-127934523D01*
X140047619Y-127886904D01*
X140142857Y-127839285D01*
X140238095Y-127839285D01*
X140380952Y-127886904D01*
X140952380Y-128458333D01*
X140952380Y-127839285D01*
X179357142Y-91291666D02*
X179404761Y-91339285D01*
X179452380Y-91482142D01*
X179452380Y-91577380D01*
X179404761Y-91720238D01*
X179309523Y-91815476D01*
X179214285Y-91863095D01*
X179023809Y-91910714D01*
X178880952Y-91910714D01*
X178690476Y-91863095D01*
X178595238Y-91815476D01*
X178500000Y-91720238D01*
X178452380Y-91577380D01*
X178452380Y-91482142D01*
X178500000Y-91339285D01*
X178547619Y-91291666D01*
X178547619Y-90910714D02*
X178500000Y-90863095D01*
X178452380Y-90767857D01*
X178452380Y-90529761D01*
X178500000Y-90434523D01*
X178547619Y-90386904D01*
X178642857Y-90339285D01*
X178738095Y-90339285D01*
X178880952Y-90386904D01*
X179452380Y-90958333D01*
X179452380Y-90339285D01*
X123907142Y-95066666D02*
X123954761Y-95114285D01*
X124002380Y-95257142D01*
X124002380Y-95352380D01*
X123954761Y-95495238D01*
X123859523Y-95590476D01*
X123764285Y-95638095D01*
X123573809Y-95685714D01*
X123430952Y-95685714D01*
X123240476Y-95638095D01*
X123145238Y-95590476D01*
X123050000Y-95495238D01*
X123002380Y-95352380D01*
X123002380Y-95257142D01*
X123050000Y-95114285D01*
X123097619Y-95066666D01*
X124002380Y-94114285D02*
X124002380Y-94685714D01*
X124002380Y-94400000D02*
X123002380Y-94400000D01*
X123145238Y-94495238D01*
X123240476Y-94590476D01*
X123288095Y-94685714D01*
X140307142Y-86671428D02*
X140307142Y-85528571D01*
X140878571Y-86100000D02*
X139735714Y-86100000D01*
X134107142Y-86671428D02*
X134107142Y-85528571D01*
X134678571Y-86100000D02*
X133535714Y-86100000D01*
X121707142Y-86671428D02*
X121707142Y-85528571D01*
X122278571Y-86100000D02*
X121135714Y-86100000D01*
X127907142Y-86671428D02*
X127907142Y-85528571D01*
X128478571Y-86100000D02*
X127335714Y-86100000D01*
X118928571Y-100404761D02*
X118976190Y-100261904D01*
X119023809Y-100214285D01*
X119119047Y-100166666D01*
X119261904Y-100166666D01*
X119357142Y-100214285D01*
X119404761Y-100261904D01*
X119452380Y-100357142D01*
X119452380Y-100738095D01*
X118452380Y-100738095D01*
X118452380Y-100404761D01*
X118500000Y-100309523D01*
X118547619Y-100261904D01*
X118642857Y-100214285D01*
X118738095Y-100214285D01*
X118833333Y-100261904D01*
X118880952Y-100309523D01*
X118928571Y-100404761D01*
X118928571Y-100738095D01*
X119166666Y-99785714D02*
X119166666Y-99309523D01*
X119452380Y-99880952D02*
X118452380Y-99547619D01*
X119452380Y-99214285D01*
X118452380Y-99023809D02*
X118452380Y-98452380D01*
X119452380Y-98738095D02*
X118452380Y-98738095D01*
X118452380Y-98261904D02*
X118452380Y-97690476D01*
X119452380Y-97976190D02*
X118452380Y-97976190D01*
X119452380Y-96595238D02*
X118452380Y-96595238D01*
X119452380Y-96119047D02*
X118452380Y-96119047D01*
X119452380Y-95547619D01*
X118452380Y-95547619D01*
X119452380Y-95071428D02*
X118452380Y-95071428D01*
X118452380Y-94690476D01*
X118500000Y-94595238D01*
X118547619Y-94547619D01*
X118642857Y-94500000D01*
X118785714Y-94500000D01*
X118880952Y-94547619D01*
X118928571Y-94595238D01*
X118976190Y-94690476D01*
X118976190Y-95071428D01*
X118452380Y-94071428D02*
X119261904Y-94071428D01*
X119357142Y-94023809D01*
X119404761Y-93976190D01*
X119452380Y-93880952D01*
X119452380Y-93690476D01*
X119404761Y-93595238D01*
X119357142Y-93547619D01*
X119261904Y-93500000D01*
X118452380Y-93500000D01*
X118452380Y-93166666D02*
X118452380Y-92595238D01*
X119452380Y-92880952D02*
X118452380Y-92880952D01*
X119452380Y-91500000D02*
X118452380Y-91500000D01*
X119166666Y-91166666D01*
X118452380Y-90833333D01*
X119452380Y-90833333D01*
X119166666Y-90404761D02*
X119166666Y-89928571D01*
X119452380Y-90500000D02*
X118452380Y-90166666D01*
X119452380Y-89833333D01*
X118452380Y-89595238D02*
X119452380Y-88928571D01*
X118452380Y-88928571D02*
X119452380Y-89595238D01*
X119452380Y-88023809D02*
X119452380Y-88595238D01*
X119452380Y-88309523D02*
X118452380Y-88309523D01*
X118595238Y-88404761D01*
X118690476Y-88500000D01*
X118738095Y-88595238D01*
X118785714Y-87166666D02*
X119452380Y-87166666D01*
X118404761Y-87404761D02*
X119119047Y-87642857D01*
X119119047Y-87023809D01*
X118452380Y-86785714D02*
X119452380Y-86452380D01*
X118452380Y-86119047D01*
X115107142Y-100571428D02*
X115107142Y-99428571D01*
X115107142Y-87571428D02*
X115107142Y-86428571D01*
X115678571Y-87000000D02*
X114535714Y-87000000D01*
D13*
X130452380Y-94744523D02*
X130452380Y-95772619D01*
X130512857Y-95893571D01*
X130573333Y-95954047D01*
X130694285Y-96014523D01*
X130936190Y-96014523D01*
X131057142Y-95954047D01*
X131117619Y-95893571D01*
X131178095Y-95772619D01*
X131178095Y-94744523D01*
X132448095Y-96014523D02*
X131722380Y-96014523D01*
X132085238Y-96014523D02*
X132085238Y-94744523D01*
X131964285Y-94925952D01*
X131843333Y-95046904D01*
X131722380Y-95107380D01*
D11*
X128833333Y-89452380D02*
X128500000Y-88976190D01*
X128261904Y-89452380D02*
X128261904Y-88452380D01*
X128642857Y-88452380D01*
X128738095Y-88500000D01*
X128785714Y-88547619D01*
X128833333Y-88642857D01*
X128833333Y-88785714D01*
X128785714Y-88880952D01*
X128738095Y-88928571D01*
X128642857Y-88976190D01*
X128261904Y-88976190D01*
X129738095Y-88452380D02*
X129261904Y-88452380D01*
X129214285Y-88928571D01*
X129261904Y-88880952D01*
X129357142Y-88833333D01*
X129595238Y-88833333D01*
X129690476Y-88880952D01*
X129738095Y-88928571D01*
X129785714Y-89023809D01*
X129785714Y-89261904D01*
X129738095Y-89357142D01*
X129690476Y-89404761D01*
X129595238Y-89452380D01*
X129357142Y-89452380D01*
X129261904Y-89404761D01*
X129214285Y-89357142D01*
X131833333Y-103452380D02*
X131500000Y-102976190D01*
X131261904Y-103452380D02*
X131261904Y-102452380D01*
X131642857Y-102452380D01*
X131738095Y-102500000D01*
X131785714Y-102547619D01*
X131833333Y-102642857D01*
X131833333Y-102785714D01*
X131785714Y-102880952D01*
X131738095Y-102928571D01*
X131642857Y-102976190D01*
X131261904Y-102976190D01*
X132690476Y-102785714D02*
X132690476Y-103452380D01*
X132452380Y-102404761D02*
X132214285Y-103119047D01*
X132833333Y-103119047D01*
X136833333Y-89452380D02*
X136500000Y-88976190D01*
X136261904Y-89452380D02*
X136261904Y-88452380D01*
X136642857Y-88452380D01*
X136738095Y-88500000D01*
X136785714Y-88547619D01*
X136833333Y-88642857D01*
X136833333Y-88785714D01*
X136785714Y-88880952D01*
X136738095Y-88928571D01*
X136642857Y-88976190D01*
X136261904Y-88976190D01*
X137166666Y-88452380D02*
X137785714Y-88452380D01*
X137452380Y-88833333D01*
X137595238Y-88833333D01*
X137690476Y-88880952D01*
X137738095Y-88928571D01*
X137785714Y-89023809D01*
X137785714Y-89261904D01*
X137738095Y-89357142D01*
X137690476Y-89404761D01*
X137595238Y-89452380D01*
X137309523Y-89452380D01*
X137214285Y-89404761D01*
X137166666Y-89357142D01*
X122833333Y-103382380D02*
X122500000Y-102906190D01*
X122261904Y-103382380D02*
X122261904Y-102382380D01*
X122642857Y-102382380D01*
X122738095Y-102430000D01*
X122785714Y-102477619D01*
X122833333Y-102572857D01*
X122833333Y-102715714D01*
X122785714Y-102810952D01*
X122738095Y-102858571D01*
X122642857Y-102906190D01*
X122261904Y-102906190D01*
X123214285Y-102477619D02*
X123261904Y-102430000D01*
X123357142Y-102382380D01*
X123595238Y-102382380D01*
X123690476Y-102430000D01*
X123738095Y-102477619D01*
X123785714Y-102572857D01*
X123785714Y-102668095D01*
X123738095Y-102810952D01*
X123166666Y-103382380D01*
X123785714Y-103382380D01*
X124452380Y-92166666D02*
X123976190Y-92500000D01*
X124452380Y-92738095D02*
X123452380Y-92738095D01*
X123452380Y-92357142D01*
X123500000Y-92261904D01*
X123547619Y-92214285D01*
X123642857Y-92166666D01*
X123785714Y-92166666D01*
X123880952Y-92214285D01*
X123928571Y-92261904D01*
X123976190Y-92357142D01*
X123976190Y-92738095D01*
X124452380Y-91214285D02*
X124452380Y-91785714D01*
X124452380Y-91500000D02*
X123452380Y-91500000D01*
X123595238Y-91595238D01*
X123690476Y-91690476D01*
X123738095Y-91785714D01*
X123036666Y-104552380D02*
X123036666Y-105266666D01*
X122989047Y-105409523D01*
X122893809Y-105504761D01*
X122750952Y-105552380D01*
X122655714Y-105552380D01*
X124036666Y-105552380D02*
X123465238Y-105552380D01*
X123750952Y-105552380D02*
X123750952Y-104552380D01*
X123655714Y-104695238D01*
X123560476Y-104790476D01*
X123465238Y-104838095D01*
X132136904Y-89452380D02*
X132136904Y-88452380D01*
X132375000Y-88452380D01*
X132517857Y-88500000D01*
X132613095Y-88595238D01*
X132660714Y-88690476D01*
X132708333Y-88880952D01*
X132708333Y-89023809D01*
X132660714Y-89214285D01*
X132613095Y-89309523D01*
X132517857Y-89404761D01*
X132375000Y-89452380D01*
X132136904Y-89452380D01*
X133660714Y-89452380D02*
X133089285Y-89452380D01*
X133375000Y-89452380D02*
X133375000Y-88452380D01*
X133279761Y-88595238D01*
X133184523Y-88690476D01*
X133089285Y-88738095D01*
X140857142Y-91291666D02*
X140904761Y-91339285D01*
X140952380Y-91482142D01*
X140952380Y-91577380D01*
X140904761Y-91720238D01*
X140809523Y-91815476D01*
X140714285Y-91863095D01*
X140523809Y-91910714D01*
X140380952Y-91910714D01*
X140190476Y-91863095D01*
X140095238Y-91815476D01*
X140000000Y-91720238D01*
X139952380Y-91577380D01*
X139952380Y-91482142D01*
X140000000Y-91339285D01*
X140047619Y-91291666D01*
X140047619Y-90910714D02*
X140000000Y-90863095D01*
X139952380Y-90767857D01*
X139952380Y-90529761D01*
X140000000Y-90434523D01*
X140047619Y-90386904D01*
X140142857Y-90339285D01*
X140238095Y-90339285D01*
X140380952Y-90386904D01*
X140952380Y-90958333D01*
X140952380Y-90339285D01*
M02*
