G04 #@! TF.GenerationSoftware,KiCad,Pcbnew,(5.1.2)-1*
G04 #@! TF.CreationDate,2020-06-21T17:40:52+09:00*
G04 #@! TF.ProjectId,universal_power_board,756e6976-6572-4736-916c-5f706f776572,rev?*
G04 #@! TF.SameCoordinates,Original*
G04 #@! TF.FileFunction,Legend,Bot*
G04 #@! TF.FilePolarity,Positive*
%FSLAX46Y46*%
G04 Gerber Fmt 4.6, Leading zero omitted, Abs format (unit mm)*
G04 Created by KiCad (PCBNEW (5.1.2)-1) date 2020-06-21 17:40:52*
%MOMM*%
%LPD*%
G04 APERTURE LIST*
%ADD10C,0.150000*%
%ADD11C,0.050000*%
G04 APERTURE END LIST*
D10*
X150016380Y-59420142D02*
X151016380Y-59086809D01*
X150016380Y-58753476D01*
X150635428Y-58420142D02*
X150635428Y-57658238D01*
X150921142Y-56610619D02*
X150968761Y-56658238D01*
X151016380Y-56801095D01*
X151016380Y-56896333D01*
X150968761Y-57039190D01*
X150873523Y-57134428D01*
X150778285Y-57182047D01*
X150587809Y-57229666D01*
X150444952Y-57229666D01*
X150254476Y-57182047D01*
X150159238Y-57134428D01*
X150064000Y-57039190D01*
X150016380Y-56896333D01*
X150016380Y-56801095D01*
X150064000Y-56658238D01*
X150111619Y-56610619D01*
X150016380Y-56182047D02*
X150825904Y-56182047D01*
X150921142Y-56134428D01*
X150968761Y-56086809D01*
X151016380Y-55991571D01*
X151016380Y-55801095D01*
X150968761Y-55705857D01*
X150921142Y-55658238D01*
X150825904Y-55610619D01*
X150016380Y-55610619D01*
X150016380Y-55277285D02*
X150016380Y-54705857D01*
X151016380Y-54991571D02*
X150016380Y-54991571D01*
X95206857Y-148515380D02*
X95540190Y-149515380D01*
X95873523Y-148515380D01*
X96206857Y-149134428D02*
X96968761Y-149134428D01*
X98016380Y-149420142D02*
X97968761Y-149467761D01*
X97825904Y-149515380D01*
X97730666Y-149515380D01*
X97587809Y-149467761D01*
X97492571Y-149372523D01*
X97444952Y-149277285D01*
X97397333Y-149086809D01*
X97397333Y-148943952D01*
X97444952Y-148753476D01*
X97492571Y-148658238D01*
X97587809Y-148563000D01*
X97730666Y-148515380D01*
X97825904Y-148515380D01*
X97968761Y-148563000D01*
X98016380Y-148610619D01*
X98444952Y-148515380D02*
X98444952Y-149324904D01*
X98492571Y-149420142D01*
X98540190Y-149467761D01*
X98635428Y-149515380D01*
X98825904Y-149515380D01*
X98921142Y-149467761D01*
X98968761Y-149420142D01*
X99016380Y-149324904D01*
X99016380Y-148515380D01*
X99349714Y-148515380D02*
X99921142Y-148515380D01*
X99635428Y-149515380D02*
X99635428Y-148515380D01*
X95206857Y-110915380D02*
X95540190Y-111915380D01*
X95873523Y-110915380D01*
X96206857Y-111534428D02*
X96968761Y-111534428D01*
X98016380Y-111820142D02*
X97968761Y-111867761D01*
X97825904Y-111915380D01*
X97730666Y-111915380D01*
X97587809Y-111867761D01*
X97492571Y-111772523D01*
X97444952Y-111677285D01*
X97397333Y-111486809D01*
X97397333Y-111343952D01*
X97444952Y-111153476D01*
X97492571Y-111058238D01*
X97587809Y-110963000D01*
X97730666Y-110915380D01*
X97825904Y-110915380D01*
X97968761Y-110963000D01*
X98016380Y-111010619D01*
X98444952Y-110915380D02*
X98444952Y-111724904D01*
X98492571Y-111820142D01*
X98540190Y-111867761D01*
X98635428Y-111915380D01*
X98825904Y-111915380D01*
X98921142Y-111867761D01*
X98968761Y-111820142D01*
X99016380Y-111724904D01*
X99016380Y-110915380D01*
X99349714Y-110915380D02*
X99921142Y-110915380D01*
X99635428Y-111915380D02*
X99635428Y-110915380D01*
X95206857Y-73515380D02*
X95540190Y-74515380D01*
X95873523Y-73515380D01*
X96206857Y-74134428D02*
X96968761Y-74134428D01*
X98016380Y-74420142D02*
X97968761Y-74467761D01*
X97825904Y-74515380D01*
X97730666Y-74515380D01*
X97587809Y-74467761D01*
X97492571Y-74372523D01*
X97444952Y-74277285D01*
X97397333Y-74086809D01*
X97397333Y-73943952D01*
X97444952Y-73753476D01*
X97492571Y-73658238D01*
X97587809Y-73563000D01*
X97730666Y-73515380D01*
X97825904Y-73515380D01*
X97968761Y-73563000D01*
X98016380Y-73610619D01*
X98444952Y-73515380D02*
X98444952Y-74324904D01*
X98492571Y-74420142D01*
X98540190Y-74467761D01*
X98635428Y-74515380D01*
X98825904Y-74515380D01*
X98921142Y-74467761D01*
X98968761Y-74420142D01*
X99016380Y-74324904D01*
X99016380Y-73515380D01*
X99349714Y-73515380D02*
X99921142Y-73515380D01*
X99635428Y-74515380D02*
X99635428Y-73515380D01*
D11*
X150500000Y-165000000D02*
X150500000Y-60000000D01*
X100000000Y-149000000D02*
X200000000Y-149000000D01*
X100000000Y-111500000D02*
X200000000Y-111500000D01*
X100000000Y-74000000D02*
X200000000Y-74000000D01*
M02*
