M48
; DRILL file {KiCad (5.1.2)-1} date 2020/06/21 17:40:57
; FORMAT={-:-/ absolute / inch / decimal}
; #@! TF.CreationDate,2020-06-21T17:40:57+09:00
; #@! TF.GenerationSoftware,Kicad,Pcbnew,(5.1.2)-1
; #@! TF.FileFunction,Plated,1,2,PTH
FMAT,2
INCH
T1C0.0157
T2C0.0236
T3C0.0295
T4C0.1063
T5C0.1260
%
G90
G05
T1
X4.47Y-3.19
X4.47Y-3.28
X4.47Y-3.38
X4.47Y-4.6664
X4.47Y-4.7564
X4.47Y-4.8564
X4.5079Y-3.9173
X4.5079Y-3.9961
X4.5079Y-4.0748
X4.5079Y-5.3937
X4.5079Y-5.4724
X4.5079Y-5.5512
X4.57Y-3.19
X4.57Y-3.28
X4.57Y-4.6664
X4.57Y-4.7564
X4.6063Y-3.9173
X4.6063Y-3.9961
X4.6063Y-4.0748
X4.6063Y-5.3937
X4.6063Y-5.4724
X4.6063Y-5.5512
X4.6398Y-3.4553
X4.6398Y-3.5258
X4.6398Y-4.9317
X4.6398Y-5.0022
X4.64Y-3.385
X4.64Y-4.8614
X4.6402Y-3.5965
X4.6402Y-5.0729
X4.65Y-3.15
X4.65Y-4.6264
X4.7047Y-3.9173
X4.7047Y-3.9961
X4.7047Y-4.0748
X4.7047Y-5.3937
X4.7047Y-5.4724
X4.7047Y-5.5512
X4.71Y-3.385
X4.71Y-3.4553
X4.71Y-3.5258
X4.71Y-4.8614
X4.71Y-4.9317
X4.71Y-5.0022
X4.7104Y-3.5965
X4.7104Y-5.0729
X4.7798Y-3.3851
X4.7798Y-3.4554
X4.7798Y-3.5259
X4.7798Y-4.8615
X4.7798Y-4.9318
X4.7798Y-5.0023
X4.7802Y-3.5966
X4.7802Y-5.073
X4.8498Y-3.3852
X4.8498Y-3.4555
X4.8498Y-3.526
X4.8498Y-4.8616
X4.8498Y-4.9319
X4.8498Y-5.0024
X4.8502Y-3.5967
X4.8502Y-5.0731
X4.95Y-3.44
X4.95Y-4.9164
X4.9606Y-4.0748
X4.9606Y-4.1535
X4.9606Y-5.5512
X4.9606Y-5.6299
X5.0394Y-4.0748
X5.0394Y-4.1535
X5.0394Y-5.5512
X5.0394Y-5.6299
X5.04Y-3.38
X5.04Y-4.8564
X5.0984Y-3.7008
X5.0984Y-3.7795
X5.0984Y-3.8583
X5.0984Y-5.1772
X5.0984Y-5.2559
X5.0984Y-5.3346
X5.1181Y-4.0748
X5.1181Y-4.1535
X5.1181Y-4.2323
X5.1181Y-5.5512
X5.1181Y-5.6299
X5.1181Y-5.7087
X5.12Y-4.31
X5.12Y-5.7864
X5.15Y-3.38
X5.15Y-4.8564
X5.1772Y-3.7008
X5.1772Y-3.7795
X5.1772Y-3.8583
X5.1772Y-5.1772
X5.1772Y-5.2559
X5.1772Y-5.3346
X5.1969Y-4.0748
X5.1969Y-4.1535
X5.1969Y-4.2323
X5.1969Y-5.5512
X5.1969Y-5.6299
X5.1969Y-5.7087
X5.2Y-4.31
X5.2Y-5.7864
X5.2559Y-3.7008
X5.2559Y-3.7795
X5.2559Y-3.8583
X5.2559Y-5.1772
X5.2559Y-5.2559
X5.2559Y-5.3346
X5.26Y-3.38
X5.26Y-4.8564
X5.38Y-3.38
X5.38Y-4.8564
X5.429Y-4.119
X5.429Y-5.5954
X5.509Y-3.64
X5.509Y-3.72
X5.509Y-3.8
X5.509Y-3.88
X5.509Y-3.96
X5.509Y-4.04
X5.509Y-4.119
X5.509Y-5.1164
X5.509Y-5.1964
X5.509Y-5.2764
X5.509Y-5.3564
X5.509Y-5.4364
X5.509Y-5.5164
X5.509Y-5.5954
X5.52Y-3.44
X5.52Y-4.9164
X5.5886Y-3.56
X5.5886Y-5.0364
X5.589Y-3.64
X5.589Y-3.72
X5.589Y-3.8
X5.589Y-3.88
X5.589Y-3.96
X5.589Y-4.039
X5.589Y-4.119
X5.589Y-5.1164
X5.589Y-5.1964
X5.589Y-5.2764
X5.589Y-5.3564
X5.589Y-5.4364
X5.589Y-5.5154
X5.589Y-5.5954
X5.64Y-4.3
X5.64Y-5.7764
X5.65Y-2.97
X5.65Y-3.08
X5.65Y-4.4464
X5.65Y-4.5564
X5.6686Y-3.48
X5.6686Y-3.56
X5.6686Y-4.9564
X5.6686Y-5.0364
X5.669Y-3.64
X5.669Y-3.72
X5.669Y-3.8
X5.669Y-3.88
X5.669Y-3.96
X5.669Y-4.04
X5.669Y-5.1164
X5.669Y-5.1964
X5.669Y-5.2764
X5.669Y-5.3564
X5.669Y-5.4364
X5.669Y-5.5164
X5.71Y-4.14
X5.71Y-5.6164
X5.73Y-3.18
X5.73Y-4.6564
X5.74Y-3.56
X5.74Y-5.0364
X5.85Y-3.21
X5.85Y-4.6864
X5.86Y-3.44
X5.86Y-3.66
X5.86Y-3.89
X5.86Y-4.1
X5.86Y-4.9164
X5.86Y-5.1364
X5.86Y-5.3664
X5.86Y-5.5764
X5.9857Y-3.19
X5.9857Y-3.28
X5.9857Y-3.38
X5.9857Y-4.6664
X5.9857Y-4.7564
X5.9857Y-4.8564
X6.0236Y-3.9173
X6.0236Y-3.9961
X6.0236Y-4.0748
X6.0236Y-5.3937
X6.0236Y-5.4724
X6.0236Y-5.5512
X6.0857Y-3.19
X6.0857Y-3.28
X6.0857Y-4.6664
X6.0857Y-4.7564
X6.122Y-3.9173
X6.122Y-3.9961
X6.122Y-4.0748
X6.122Y-5.3937
X6.122Y-5.4724
X6.122Y-5.5512
X6.1555Y-3.4553
X6.1555Y-3.5258
X6.1555Y-4.9317
X6.1555Y-5.0022
X6.1557Y-3.385
X6.1557Y-4.8614
X6.1559Y-3.5965
X6.1559Y-5.0729
X6.1657Y-3.15
X6.1657Y-4.6264
X6.2205Y-3.9173
X6.2205Y-3.9961
X6.2205Y-4.0748
X6.2205Y-5.3937
X6.2205Y-5.4724
X6.2205Y-5.5512
X6.2257Y-3.385
X6.2257Y-3.4553
X6.2257Y-3.5258
X6.2257Y-4.8614
X6.2257Y-4.9317
X6.2257Y-5.0022
X6.2261Y-3.5965
X6.2261Y-5.0729
X6.2955Y-3.3851
X6.2955Y-3.4554
X6.2955Y-3.5259
X6.2955Y-4.8615
X6.2955Y-4.9318
X6.2955Y-5.0023
X6.2959Y-3.5966
X6.2959Y-5.073
X6.3655Y-3.3852
X6.3655Y-3.4555
X6.3655Y-3.526
X6.3655Y-4.8616
X6.3655Y-4.9319
X6.3655Y-5.0024
X6.3659Y-3.5967
X6.3659Y-5.0731
X6.4657Y-3.44
X6.4657Y-4.9164
X6.4764Y-4.0748
X6.4764Y-4.1535
X6.4764Y-5.5512
X6.4764Y-5.6299
X6.5551Y-4.0748
X6.5551Y-4.1535
X6.5551Y-5.5512
X6.5551Y-5.6299
X6.5557Y-3.38
X6.5557Y-4.8564
X6.6142Y-3.7008
X6.6142Y-3.7795
X6.6142Y-3.8583
X6.6142Y-5.1772
X6.6142Y-5.2559
X6.6142Y-5.3346
X6.6339Y-4.0748
X6.6339Y-4.1535
X6.6339Y-4.2323
X6.6339Y-5.5512
X6.6339Y-5.6299
X6.6339Y-5.7087
X6.6357Y-4.31
X6.6357Y-5.7864
X6.6657Y-3.38
X6.6657Y-4.8564
X6.6929Y-3.7008
X6.6929Y-3.7795
X6.6929Y-3.8583
X6.6929Y-5.1772
X6.6929Y-5.2559
X6.6929Y-5.3346
X6.7126Y-4.0748
X6.7126Y-4.1535
X6.7126Y-4.2323
X6.7126Y-5.5512
X6.7126Y-5.6299
X6.7126Y-5.7087
X6.7157Y-4.31
X6.7157Y-5.7864
X6.7717Y-3.7008
X6.7717Y-3.7795
X6.7717Y-3.8583
X6.7717Y-5.1772
X6.7717Y-5.2559
X6.7717Y-5.3346
X6.7757Y-3.38
X6.7757Y-4.8564
X6.8957Y-3.38
X6.8957Y-4.8564
X6.9447Y-4.119
X6.9447Y-5.5954
X7.0247Y-3.64
X7.0247Y-3.72
X7.0247Y-3.8
X7.0247Y-3.88
X7.0247Y-3.96
X7.0247Y-4.04
X7.0247Y-4.119
X7.0247Y-5.1164
X7.0247Y-5.1964
X7.0247Y-5.2764
X7.0247Y-5.3564
X7.0247Y-5.4364
X7.0247Y-5.5164
X7.0247Y-5.5954
X7.0357Y-3.44
X7.0357Y-4.9164
X7.1043Y-3.56
X7.1043Y-5.0364
X7.1047Y-3.64
X7.1047Y-3.72
X7.1047Y-3.8
X7.1047Y-3.88
X7.1047Y-3.96
X7.1047Y-4.039
X7.1047Y-4.119
X7.1047Y-5.1164
X7.1047Y-5.1964
X7.1047Y-5.2764
X7.1047Y-5.3564
X7.1047Y-5.4364
X7.1047Y-5.5154
X7.1047Y-5.5954
X7.1557Y-4.3
X7.1557Y-5.7764
X7.1657Y-2.97
X7.1657Y-3.08
X7.1657Y-4.4464
X7.1657Y-4.5564
X7.1843Y-3.48
X7.1843Y-3.56
X7.1843Y-4.9564
X7.1843Y-5.0364
X7.1847Y-3.64
X7.1847Y-3.72
X7.1847Y-3.8
X7.1847Y-3.88
X7.1847Y-3.96
X7.1847Y-4.04
X7.1847Y-5.1164
X7.1847Y-5.1964
X7.1847Y-5.2764
X7.1847Y-5.3564
X7.1847Y-5.4364
X7.1847Y-5.5164
X7.2257Y-4.14
X7.2257Y-5.6164
X7.2457Y-3.18
X7.2457Y-4.6564
X7.2557Y-3.56
X7.2557Y-5.0364
X7.3657Y-3.21
X7.3657Y-4.6864
X7.3757Y-3.44
X7.3757Y-3.66
X7.3757Y-3.89
X7.3757Y-4.1
X7.3757Y-4.9164
X7.3757Y-5.1364
X7.3757Y-5.3664
X7.3757Y-5.5764
T2
X6.25Y-5.748
X6.2992Y-5.748
X6.3484Y-5.748
X6.3976Y-5.748
X6.4469Y-5.748
X6.4961Y-5.748
X4.7343Y-4.2717
X4.7835Y-4.2717
X4.8327Y-4.2717
X4.8819Y-4.2717
X4.9311Y-4.2717
X4.9803Y-4.2717
X6.25Y-4.2717
X6.2992Y-4.2717
X6.3484Y-4.2717
X6.3976Y-4.2717
X6.4469Y-4.2717
X6.4961Y-4.2717
X4.7343Y-5.748
X4.7835Y-5.748
X4.8327Y-5.748
X4.8819Y-5.748
X4.9311Y-5.748
X4.9803Y-5.748
T3
X7.2557Y-5.2564
X7.3345Y-5.2564
X5.3Y-4.2
X5.3Y-4.2787
X5.74Y-5.0364
X5.8187Y-5.0364
X7.2557Y-3.34
X7.3345Y-3.34
X7.2557Y-4.0
X7.3345Y-4.0
X5.74Y-4.8164
X5.8187Y-4.8164
X6.8157Y-4.2
X6.8157Y-4.2787
X7.0357Y-4.2
X7.0357Y-4.2787
X5.52Y-5.6764
X5.52Y-5.7551
X5.74Y-4.0
X5.8187Y-4.0
X6.8157Y-5.6764
X6.8157Y-5.7551
X7.2557Y-5.0364
X7.3345Y-5.0364
X5.3Y-5.6764
X5.3Y-5.7551
X5.74Y-5.4764
X5.8187Y-5.4764
X7.2557Y-4.8164
X7.3345Y-4.8164
X5.74Y-3.56
X5.8187Y-3.56
X7.0357Y-5.6764
X7.0357Y-5.7551
X5.74Y-5.2564
X5.8187Y-5.2564
X7.2557Y-3.56
X7.3345Y-3.56
X7.2557Y-3.78
X7.3345Y-3.78
X7.2557Y-5.4764
X7.3345Y-5.4764
X5.52Y-4.2
X5.52Y-4.2787
X5.74Y-3.34
X5.8187Y-3.34
X5.74Y-3.78
X5.8187Y-3.78
T4
X7.0354Y-4.5118
X7.0354Y-4.7087
X6.3031Y-4.5118
X6.3031Y-4.7087
X4.5276Y-5.0591
X4.5276Y-5.2559
X4.5276Y-3.5827
X4.5276Y-3.7795
X6.7913Y-4.5118
X6.7913Y-4.7087
X6.5472Y-4.5118
X6.5472Y-4.7087
X5.5197Y-3.0354
X5.5197Y-3.2323
X5.0315Y-3.0354
X5.0315Y-3.2323
X6.0433Y-3.5827
X6.0433Y-3.7795
X6.7913Y-3.0354
X6.7913Y-3.2323
X6.0433Y-5.0591
X6.0433Y-5.2559
X7.0354Y-3.0354
X7.0354Y-3.2323
X6.5472Y-3.0354
X6.5472Y-3.2323
X5.2756Y-3.0354
X5.2756Y-3.2323
X5.5197Y-4.5118
X5.5197Y-4.7087
X4.7874Y-4.5118
X4.7874Y-4.7087
X5.2756Y-4.5118
X5.2756Y-4.7087
X6.3031Y-3.0354
X6.3031Y-3.2323
X5.0315Y-4.5118
X5.0315Y-4.7087
X4.7874Y-3.0354
X4.7874Y-3.2323
T5
X6.0433Y-5.748
X5.8071Y-5.748
X4.5276Y-3.0315
X7.3228Y-4.2717
X5.8071Y-4.2717
X4.5276Y-4.5079
X7.3228Y-4.5079
X4.5276Y-4.2717
X7.3228Y-3.0315
X5.8071Y-3.0315
X6.0433Y-4.5079
X4.5276Y-5.748
X7.3228Y-5.748
X6.0433Y-4.2717
X5.8071Y-4.5079
X6.0433Y-3.0315
T0
M30
