<?xml version="1.0" standalone="no"?>
 <!DOCTYPE svg PUBLIC "-//W3C//DTD SVG 1.1//EN" 
 "http://www.w3.org/Graphics/SVG/1.1/DTD/svg11.dtd"> 
<svg
  xmlns:svg="http://www.w3.org/2000/svg"
  xmlns="http://www.w3.org/2000/svg"
  xmlns:xlink="http://www.w3.org/1999/xlink"
  version="1.1"
  width="29.700220cm" height="21.000720cm" viewBox="0 0 116930 82680">
<title>SVG Picture created as universal_power_board_v1.2-F_Paste.svg date 2021/03/11 21:57:24 </title>
  <desc>Picture generated by PCBNEW </desc>
<g style="fill:#000000; fill-opacity:1;stroke:#000000; stroke-opacity:1;
stroke-linecap:round; stroke-linejoin:round;"
 transform="translate(0 0) scale(1 1)">
</g>
<g style="fill:#000000; fill-opacity:0.0; 
stroke:#000000; stroke-width:-0.000393701; stroke-opacity:1; 
stroke-linecap:round; stroke-linejoin:round;">
</g>
<g style="fill:#000000; fill-opacity:0.0; 
stroke:#000000; stroke-width:39.3701; stroke-opacity:1; 
stroke-linecap:round; stroke-linejoin:round;">
</g>
<g style="fill:#000000; fill-opacity:0.0; 
stroke:#000000; stroke-width:59.0551; stroke-opacity:1; 
stroke-linecap:round; stroke-linejoin:round;">
<rect x="69685.9" y="65357.2" width="42519.7" height="12598.4" rx="0" />
</g>
<g style="fill:#000000; fill-opacity:0.0; 
stroke:#000000; stroke-width:39.3701; stroke-opacity:1; 
stroke-linecap:round; stroke-linejoin:round;">
</g>
<g style="fill:#000000; fill-opacity:0.0; 
stroke:#000000; stroke-width:59.0551; stroke-opacity:1; 
stroke-linecap:round; stroke-linejoin:round;">
<rect x="3937.01" y="3937.01" width="109056" height="74806" rx="0" />
</g>
<g style="fill:#000000; fill-opacity:0.0; 
stroke:#000000; stroke-width:39.3701; stroke-opacity:1; 
stroke-linecap:round; stroke-linejoin:round;">
</g>
<g style="fill:#000000; fill-opacity:0.0; 
stroke:#000000; stroke-width:59.0551; stroke-opacity:1; 
stroke-linecap:round; stroke-linejoin:round;">
<rect x="4724.41" y="4724.41" width="107481" height="73231.2" rx="0" />
</g>
<g style="fill:#000000; fill-opacity:0.0; 
stroke:#000000; stroke-width:39.3701; stroke-opacity:1; 
stroke-linecap:round; stroke-linejoin:round;">
</g>
<g style="fill:#000000; fill-opacity:0.0; 
stroke:#000000; stroke-width:59.0551; stroke-opacity:1; 
stroke-linecap:round; stroke-linejoin:round;">
<path d="M23622 4724
L23622 3937
" />
</g>
<g style="fill:#000000; fill-opacity:0.0; 
stroke:#000000; stroke-width:39.3701; stroke-opacity:1; 
stroke-linecap:round; stroke-linejoin:round;">
</g>
<g style="fill:#000000; fill-opacity:0.0; 
stroke:#000000; stroke-width:59.0551; stroke-opacity:1; 
stroke-linecap:round; stroke-linejoin:round;">
<path d="M43307 4724
L43307 3937
" />
</g>
<g style="fill:#000000; fill-opacity:0.0; 
stroke:#000000; stroke-width:39.3701; stroke-opacity:1; 
stroke-linecap:round; stroke-linejoin:round;">
</g>
<g style="fill:#000000; fill-opacity:0.0; 
stroke:#000000; stroke-width:59.0551; stroke-opacity:1; 
stroke-linecap:round; stroke-linejoin:round;">
<path d="M62992 4724
L62992 3937
" />
</g>
<g style="fill:#000000; fill-opacity:0.0; 
stroke:#000000; stroke-width:39.3701; stroke-opacity:1; 
stroke-linecap:round; stroke-linejoin:round;">
</g>
<g style="fill:#000000; fill-opacity:0.0; 
stroke:#000000; stroke-width:59.0551; stroke-opacity:1; 
stroke-linecap:round; stroke-linejoin:round;">
<path d="M82677 4724
L82677 3937
" />
</g>
<g style="fill:#000000; fill-opacity:0.0; 
stroke:#000000; stroke-width:39.3701; stroke-opacity:1; 
stroke-linecap:round; stroke-linejoin:round;">
</g>
<g style="fill:#000000; fill-opacity:0.0; 
stroke:#000000; stroke-width:59.0551; stroke-opacity:1; 
stroke-linecap:round; stroke-linejoin:round;">
<path d="M102362 4724
L102362 3937
" />
</g>
<g style="fill:#000000; fill-opacity:0.0; 
stroke:#000000; stroke-width:39.3701; stroke-opacity:1; 
stroke-linecap:round; stroke-linejoin:round;">
</g>
<g style="fill:#000000; fill-opacity:0.0; 
stroke:#000000; stroke-width:59.0551; stroke-opacity:1; 
stroke-linecap:round; stroke-linejoin:round;">
<text x="13779.5" y="4586.61"
textLength="487.439" font-size="682.415" lengthAdjust="spacingAndGlyphs"
text-anchor="start" opacity="0">1</text>
<path d="M14199 4562
L13906 4562
" />
<path d="M14052 4562
L14052 4050
L14004 4123
L13955 4172
L13906 4196
" />
</g>
<g style="fill:#000000; fill-opacity:0.0; 
stroke:#000000; stroke-width:39.3701; stroke-opacity:1; 
stroke-linecap:round; stroke-linejoin:round;">
</g>
<g style="fill:#000000; fill-opacity:0.0; 
stroke:#000000; stroke-width:59.0551; stroke-opacity:1; 
stroke-linecap:round; stroke-linejoin:round;">
<text x="33464.6" y="4586.61"
textLength="546.494" font-size="682.415" lengthAdjust="spacingAndGlyphs"
text-anchor="start" opacity="0">2</text>
<path d="M33591 4099
L33615 4074
L33664 4050
L33786 4050
L33835 4074
L33859 4099
L33884 4147
L33884 4196
L33859 4269
L33567 4562
L33884 4562
" />
</g>
<g style="fill:#000000; fill-opacity:0.0; 
stroke:#000000; stroke-width:39.3701; stroke-opacity:1; 
stroke-linecap:round; stroke-linejoin:round;">
</g>
<g style="fill:#000000; fill-opacity:0.0; 
stroke:#000000; stroke-width:59.0551; stroke-opacity:1; 
stroke-linecap:round; stroke-linejoin:round;">
<text x="53149.6" y="4586.61"
textLength="546.494" font-size="682.415" lengthAdjust="spacingAndGlyphs"
text-anchor="start" opacity="0">3</text>
<path d="M53252 4050
L53569 4050
L53398 4245
L53471 4245
L53520 4269
L53544 4294
L53569 4342
L53569 4464
L53544 4513
L53520 4537
L53471 4562
L53325 4562
L53276 4537
L53252 4513
" />
</g>
<g style="fill:#000000; fill-opacity:0.0; 
stroke:#000000; stroke-width:39.3701; stroke-opacity:1; 
stroke-linecap:round; stroke-linejoin:round;">
</g>
<g style="fill:#000000; fill-opacity:0.0; 
stroke:#000000; stroke-width:59.0551; stroke-opacity:1; 
stroke-linecap:round; stroke-linejoin:round;">
<text x="72834.6" y="4586.61"
textLength="546.494" font-size="682.415" lengthAdjust="spacingAndGlyphs"
text-anchor="start" opacity="0">4</text>
<path d="M73205 4221
L73205 4562
" />
<path d="M73083 4026
L72961 4391
L73278 4391
" />
</g>
<g style="fill:#000000; fill-opacity:0.0; 
stroke:#000000; stroke-width:39.3701; stroke-opacity:1; 
stroke-linecap:round; stroke-linejoin:round;">
</g>
<g style="fill:#000000; fill-opacity:0.0; 
stroke:#000000; stroke-width:59.0551; stroke-opacity:1; 
stroke-linecap:round; stroke-linejoin:round;">
<text x="92519.7" y="4586.61"
textLength="546.494" font-size="682.415" lengthAdjust="spacingAndGlyphs"
text-anchor="start" opacity="0">5</text>
<path d="M92914 4050
L92671 4050
L92646 4294
L92671 4269
L92719 4245
L92841 4245
L92890 4269
L92914 4294
L92939 4342
L92939 4464
L92914 4513
L92890 4537
L92841 4562
L92719 4562
L92671 4537
L92646 4513
" />
</g>
<g style="fill:#000000; fill-opacity:0.0; 
stroke:#000000; stroke-width:39.3701; stroke-opacity:1; 
stroke-linecap:round; stroke-linejoin:round;">
</g>
<g style="fill:#000000; fill-opacity:0.0; 
stroke:#000000; stroke-width:59.0551; stroke-opacity:1; 
stroke-linecap:round; stroke-linejoin:round;">
<text x="112205" y="4586.61"
textLength="546.494" font-size="682.415" lengthAdjust="spacingAndGlyphs"
text-anchor="start" opacity="0">6</text>
<path d="M112575 4050
L112477 4050
L112429 4074
L112404 4099
L112356 4172
L112331 4269
L112331 4464
L112356 4513
L112380 4537
L112429 4562
L112526 4562
L112575 4537
L112599 4513
L112624 4464
L112624 4342
L112599 4294
L112575 4269
L112526 4245
L112429 4245
L112380 4269
L112356 4294
L112331 4342
" />
</g>
<g style="fill:#000000; fill-opacity:0.0; 
stroke:#000000; stroke-width:39.3701; stroke-opacity:1; 
stroke-linecap:round; stroke-linejoin:round;">
</g>
<g style="fill:#000000; fill-opacity:0.0; 
stroke:#000000; stroke-width:59.0551; stroke-opacity:1; 
stroke-linecap:round; stroke-linejoin:round;">
<path d="M23622 77955
L23622 78742
" />
</g>
<g style="fill:#000000; fill-opacity:0.0; 
stroke:#000000; stroke-width:39.3701; stroke-opacity:1; 
stroke-linecap:round; stroke-linejoin:round;">
</g>
<g style="fill:#000000; fill-opacity:0.0; 
stroke:#000000; stroke-width:59.0551; stroke-opacity:1; 
stroke-linecap:round; stroke-linejoin:round;">
<path d="M43307 77955
L43307 78742
" />
</g>
<g style="fill:#000000; fill-opacity:0.0; 
stroke:#000000; stroke-width:39.3701; stroke-opacity:1; 
stroke-linecap:round; stroke-linejoin:round;">
</g>
<g style="fill:#000000; fill-opacity:0.0; 
stroke:#000000; stroke-width:59.0551; stroke-opacity:1; 
stroke-linecap:round; stroke-linejoin:round;">
<path d="M62992 77955
L62992 78742
" />
</g>
<g style="fill:#000000; fill-opacity:0.0; 
stroke:#000000; stroke-width:39.3701; stroke-opacity:1; 
stroke-linecap:round; stroke-linejoin:round;">
</g>
<g style="fill:#000000; fill-opacity:0.0; 
stroke:#000000; stroke-width:59.0551; stroke-opacity:1; 
stroke-linecap:round; stroke-linejoin:round;">
<path d="M82677 77955
L82677 78742
" />
</g>
<g style="fill:#000000; fill-opacity:0.0; 
stroke:#000000; stroke-width:39.3701; stroke-opacity:1; 
stroke-linecap:round; stroke-linejoin:round;">
</g>
<g style="fill:#000000; fill-opacity:0.0; 
stroke:#000000; stroke-width:59.0551; stroke-opacity:1; 
stroke-linecap:round; stroke-linejoin:round;">
<path d="M102362 77955
L102362 78742
" />
</g>
<g style="fill:#000000; fill-opacity:0.0; 
stroke:#000000; stroke-width:39.3701; stroke-opacity:1; 
stroke-linecap:round; stroke-linejoin:round;">
</g>
<g style="fill:#000000; fill-opacity:0.0; 
stroke:#000000; stroke-width:59.0551; stroke-opacity:1; 
stroke-linecap:round; stroke-linejoin:round;">
<text x="13779.5" y="78605.2"
textLength="546.494" font-size="682.415" lengthAdjust="spacingAndGlyphs"
text-anchor="start" opacity="0">1</text>
<path d="M14199 78580
L13906 78580
" />
<path d="M14052 78580
L14052 78069
L14004 78142
L13955 78190
L13906 78215
" />
</g>
<g style="fill:#000000; fill-opacity:0.0; 
stroke:#000000; stroke-width:39.3701; stroke-opacity:1; 
stroke-linecap:round; stroke-linejoin:round;">
</g>
<g style="fill:#000000; fill-opacity:0.0; 
stroke:#000000; stroke-width:59.0551; stroke-opacity:1; 
stroke-linecap:round; stroke-linejoin:round;">
<text x="33464.6" y="78605.2"
textLength="546.494" font-size="682.415" lengthAdjust="spacingAndGlyphs"
text-anchor="start" opacity="0">2</text>
<path d="M33591 78117
L33615 78093
L33664 78069
L33786 78069
L33835 78093
L33859 78117
L33884 78166
L33884 78215
L33859 78288
L33567 78580
L33884 78580
" />
</g>
<g style="fill:#000000; fill-opacity:0.0; 
stroke:#000000; stroke-width:39.3701; stroke-opacity:1; 
stroke-linecap:round; stroke-linejoin:round;">
</g>
<g style="fill:#000000; fill-opacity:0.0; 
stroke:#000000; stroke-width:59.0551; stroke-opacity:1; 
stroke-linecap:round; stroke-linejoin:round;">
<text x="53149.6" y="78605.2"
textLength="546.494" font-size="682.415" lengthAdjust="spacingAndGlyphs"
text-anchor="start" opacity="0">3</text>
<path d="M53252 78069
L53569 78069
L53398 78263
L53471 78263
L53520 78288
L53544 78312
L53569 78361
L53569 78483
L53544 78532
L53520 78556
L53471 78580
L53325 78580
L53276 78556
L53252 78532
" />
</g>
<g style="fill:#000000; fill-opacity:0.0; 
stroke:#000000; stroke-width:39.3701; stroke-opacity:1; 
stroke-linecap:round; stroke-linejoin:round;">
</g>
<g style="fill:#000000; fill-opacity:0.0; 
stroke:#000000; stroke-width:59.0551; stroke-opacity:1; 
stroke-linecap:round; stroke-linejoin:round;">
<text x="72834.6" y="78605.2"
textLength="546.494" font-size="682.415" lengthAdjust="spacingAndGlyphs"
text-anchor="start" opacity="0">4</text>
<path d="M73205 78239
L73205 78580
" />
<path d="M73083 78044
L72961 78410
L73278 78410
" />
</g>
<g style="fill:#000000; fill-opacity:0.0; 
stroke:#000000; stroke-width:39.3701; stroke-opacity:1; 
stroke-linecap:round; stroke-linejoin:round;">
</g>
<g style="fill:#000000; fill-opacity:0.0; 
stroke:#000000; stroke-width:59.0551; stroke-opacity:1; 
stroke-linecap:round; stroke-linejoin:round;">
<text x="92519.7" y="78605.2"
textLength="546.494" font-size="682.415" lengthAdjust="spacingAndGlyphs"
text-anchor="start" opacity="0">5</text>
<path d="M92914 78069
L92671 78069
L92646 78312
L92671 78288
L92719 78263
L92841 78263
L92890 78288
L92914 78312
L92939 78361
L92939 78483
L92914 78532
L92890 78556
L92841 78580
L92719 78580
L92671 78556
L92646 78532
" />
</g>
<g style="fill:#000000; fill-opacity:0.0; 
stroke:#000000; stroke-width:39.3701; stroke-opacity:1; 
stroke-linecap:round; stroke-linejoin:round;">
</g>
<g style="fill:#000000; fill-opacity:0.0; 
stroke:#000000; stroke-width:59.0551; stroke-opacity:1; 
stroke-linecap:round; stroke-linejoin:round;">
<text x="112205" y="78605.2"
textLength="546.494" font-size="682.415" lengthAdjust="spacingAndGlyphs"
text-anchor="start" opacity="0">6</text>
<path d="M112575 78069
L112477 78069
L112429 78093
L112404 78117
L112356 78190
L112331 78288
L112331 78483
L112356 78532
L112380 78556
L112429 78580
L112526 78580
L112575 78556
L112599 78532
L112624 78483
L112624 78361
L112599 78312
L112575 78288
L112526 78263
L112429 78263
L112380 78288
L112356 78312
L112331 78361
" />
</g>
<g style="fill:#000000; fill-opacity:0.0; 
stroke:#000000; stroke-width:39.3701; stroke-opacity:1; 
stroke-linecap:round; stroke-linejoin:round;">
</g>
<g style="fill:#000000; fill-opacity:0.0; 
stroke:#000000; stroke-width:59.0551; stroke-opacity:1; 
stroke-linecap:round; stroke-linejoin:round;">
<path d="M3937 23622
L4724 23622
" />
</g>
<g style="fill:#000000; fill-opacity:0.0; 
stroke:#000000; stroke-width:39.3701; stroke-opacity:1; 
stroke-linecap:round; stroke-linejoin:round;">
</g>
<g style="fill:#000000; fill-opacity:0.0; 
stroke:#000000; stroke-width:59.0551; stroke-opacity:1; 
stroke-linecap:round; stroke-linejoin:round;">
<path d="M3937 43307
L4724 43307
" />
</g>
<g style="fill:#000000; fill-opacity:0.0; 
stroke:#000000; stroke-width:39.3701; stroke-opacity:1; 
stroke-linecap:round; stroke-linejoin:round;">
</g>
<g style="fill:#000000; fill-opacity:0.0; 
stroke:#000000; stroke-width:59.0551; stroke-opacity:1; 
stroke-linecap:round; stroke-linejoin:round;">
<path d="M3937 62992
L4724 62992
" />
</g>
<g style="fill:#000000; fill-opacity:0.0; 
stroke:#000000; stroke-width:39.3701; stroke-opacity:1; 
stroke-linecap:round; stroke-linejoin:round;">
</g>
<g style="fill:#000000; fill-opacity:0.0; 
stroke:#000000; stroke-width:59.0551; stroke-opacity:1; 
stroke-linecap:round; stroke-linejoin:round;">
<text x="4330.71" y="14035.4"
textLength="497.75" font-size="682.415" lengthAdjust="spacingAndGlyphs"
text-anchor="middle" opacity="0">A</text>
<path d="M4208 13864
L4452 13864
" />
<path d="M4160 14011
L4330 13499
L4501 14011
" />
</g>
<g style="fill:#000000; fill-opacity:0.0; 
stroke:#000000; stroke-width:39.3701; stroke-opacity:1; 
stroke-linecap:round; stroke-linejoin:round;">
</g>
<g style="fill:#000000; fill-opacity:0.0; 
stroke:#000000; stroke-width:59.0551; stroke-opacity:1; 
stroke-linecap:round; stroke-linejoin:round;">
<text x="4330.71" y="33720.5"
textLength="570.866" font-size="682.415" lengthAdjust="spacingAndGlyphs"
text-anchor="middle" opacity="0">B</text>
<path d="M4367 33428
L4440 33452
L4464 33476
L4489 33525
L4489 33598
L4464 33647
L4440 33671
L4391 33696
L4196 33696
L4196 33184
L4367 33184
L4416 33208
L4440 33233
L4464 33281
L4464 33330
L4440 33379
L4416 33403
L4367 33428
L4196 33428
" />
</g>
<g style="fill:#000000; fill-opacity:0.0; 
stroke:#000000; stroke-width:39.3701; stroke-opacity:1; 
stroke-linecap:round; stroke-linejoin:round;">
</g>
<g style="fill:#000000; fill-opacity:0.0; 
stroke:#000000; stroke-width:59.0551; stroke-opacity:1; 
stroke-linecap:round; stroke-linejoin:round;">
<text x="4330.71" y="53405.5"
textLength="570.866" font-size="682.415" lengthAdjust="spacingAndGlyphs"
text-anchor="middle" opacity="0">C</text>
<path d="M4489 53332
L4464 53356
L4391 53381
L4342 53381
L4269 53356
L4221 53308
L4196 53259
L4172 53161
L4172 53088
L4196 52991
L4221 52942
L4269 52893
L4342 52869
L4391 52869
L4464 52893
L4489 52918
" />
</g>
<g style="fill:#000000; fill-opacity:0.0; 
stroke:#000000; stroke-width:39.3701; stroke-opacity:1; 
stroke-linecap:round; stroke-linejoin:round;">
</g>
<g style="fill:#000000; fill-opacity:0.0; 
stroke:#000000; stroke-width:59.0551; stroke-opacity:1; 
stroke-linecap:round; stroke-linejoin:round;">
<text x="4330.71" y="73090.6"
textLength="570.866" font-size="682.415" lengthAdjust="spacingAndGlyphs"
text-anchor="middle" opacity="0">D</text>
<path d="M4196 73066
L4196 72554
L4318 72554
L4391 72578
L4440 72627
L4464 72676
L4489 72773
L4489 72846
L4464 72944
L4440 72993
L4391 73041
L4318 73066
L4196 73066
" />
</g>
<g style="fill:#000000; fill-opacity:0.0; 
stroke:#000000; stroke-width:39.3701; stroke-opacity:1; 
stroke-linecap:round; stroke-linejoin:round;">
</g>
<g style="fill:#000000; fill-opacity:0.0; 
stroke:#000000; stroke-width:59.0551; stroke-opacity:1; 
stroke-linecap:round; stroke-linejoin:round;">
<path d="M112992 23622
L112205 23622
" />
</g>
<g style="fill:#000000; fill-opacity:0.0; 
stroke:#000000; stroke-width:39.3701; stroke-opacity:1; 
stroke-linecap:round; stroke-linejoin:round;">
</g>
<g style="fill:#000000; fill-opacity:0.0; 
stroke:#000000; stroke-width:59.0551; stroke-opacity:1; 
stroke-linecap:round; stroke-linejoin:round;">
<path d="M112992 43307
L112205 43307
" />
</g>
<g style="fill:#000000; fill-opacity:0.0; 
stroke:#000000; stroke-width:39.3701; stroke-opacity:1; 
stroke-linecap:round; stroke-linejoin:round;">
</g>
<g style="fill:#000000; fill-opacity:0.0; 
stroke:#000000; stroke-width:59.0551; stroke-opacity:1; 
stroke-linecap:round; stroke-linejoin:round;">
<path d="M112992 62992
L112205 62992
" />
</g>
<g style="fill:#000000; fill-opacity:0.0; 
stroke:#000000; stroke-width:39.3701; stroke-opacity:1; 
stroke-linecap:round; stroke-linejoin:round;">
</g>
<g style="fill:#000000; fill-opacity:0.0; 
stroke:#000000; stroke-width:59.0551; stroke-opacity:1; 
stroke-linecap:round; stroke-linejoin:round;">
<text x="112599" y="14035.4"
textLength="497.75" font-size="682.415" lengthAdjust="spacingAndGlyphs"
text-anchor="middle" opacity="0">A</text>
<path d="M112477 13864
L112721 13864
" />
<path d="M112428 14011
L112599 13499
L112769 14011
" />
</g>
<g style="fill:#000000; fill-opacity:0.0; 
stroke:#000000; stroke-width:39.3701; stroke-opacity:1; 
stroke-linecap:round; stroke-linejoin:round;">
</g>
<g style="fill:#000000; fill-opacity:0.0; 
stroke:#000000; stroke-width:59.0551; stroke-opacity:1; 
stroke-linecap:round; stroke-linejoin:round;">
<text x="112599" y="33720.5"
textLength="570.866" font-size="682.415" lengthAdjust="spacingAndGlyphs"
text-anchor="middle" opacity="0">B</text>
<path d="M112635 33428
L112708 33452
L112733 33476
L112757 33525
L112757 33598
L112733 33647
L112708 33671
L112660 33696
L112465 33696
L112465 33184
L112635 33184
L112684 33208
L112708 33233
L112733 33281
L112733 33330
L112708 33379
L112684 33403
L112635 33428
L112465 33428
" />
</g>
<g style="fill:#000000; fill-opacity:0.0; 
stroke:#000000; stroke-width:39.3701; stroke-opacity:1; 
stroke-linecap:round; stroke-linejoin:round;">
</g>
<g style="fill:#000000; fill-opacity:0.0; 
stroke:#000000; stroke-width:59.0551; stroke-opacity:1; 
stroke-linecap:round; stroke-linejoin:round;">
<text x="112599" y="53405.5"
textLength="570.866" font-size="682.415" lengthAdjust="spacingAndGlyphs"
text-anchor="middle" opacity="0">C</text>
<path d="M112757 53332
L112733 53356
L112660 53381
L112611 53381
L112538 53356
L112489 53308
L112465 53259
L112440 53161
L112440 53088
L112465 52991
L112489 52942
L112538 52893
L112611 52869
L112660 52869
L112733 52893
L112757 52918
" />
</g>
<g style="fill:#000000; fill-opacity:0.0; 
stroke:#000000; stroke-width:39.3701; stroke-opacity:1; 
stroke-linecap:round; stroke-linejoin:round;">
</g>
<g style="fill:#000000; fill-opacity:0.0; 
stroke:#000000; stroke-width:59.0551; stroke-opacity:1; 
stroke-linecap:round; stroke-linejoin:round;">
<text x="112599" y="73090.6"
textLength="570.866" font-size="682.415" lengthAdjust="spacingAndGlyphs"
text-anchor="middle" opacity="0">D</text>
<path d="M112465 73066
L112465 72554
L112587 72554
L112660 72578
L112708 72627
L112733 72676
L112757 72773
L112757 72846
L112733 72944
L112708 72993
L112660 73041
L112587 73066
L112465 73066
" />
</g>
<g style="fill:#000000; fill-opacity:0.0; 
stroke:#000000; stroke-width:39.3701; stroke-opacity:1; 
stroke-linecap:round; stroke-linejoin:round;">
</g>
<g style="fill:#000000; fill-opacity:0.0; 
stroke:#000000; stroke-width:59.0551; stroke-opacity:1; 
stroke-linecap:round; stroke-linejoin:round;">
<text x="78741" y="76321.7"
textLength="2758.72" font-size="787.402" lengthAdjust="spacingAndGlyphs"
text-anchor="start" opacity="0">Date: </text>
<path d="M78911 76293
L78911 75703
L79051 75703
L79136 75731
L79192 75787
L79220 75843
L79248 75956
L79248 76040
L79220 76153
L79192 76209
L79136 76265
L79051 76293
L78911 76293
" />
<path d="M79754 76293
L79754 75984
L79726 75928
L79670 75899
L79557 75899
L79501 75928
" />
<path d="M79754 76265
L79698 76293
L79557 76293
L79501 76265
L79473 76209
L79473 76153
L79501 76096
L79557 76068
L79698 76068
L79754 76040
" />
<path d="M79951 75899
L80176 75899
" />
<path d="M80036 75703
L80036 76209
L80064 76265
L80120 76293
L80176 76293
" />
<path d="M80598 76265
L80542 76293
L80429 76293
L80373 76265
L80345 76209
L80345 75984
L80373 75928
L80429 75899
L80542 75899
L80598 75928
L80626 75984
L80626 76040
L80345 76096
" />
<path d="M80879 76237
L80907 76265
L80879 76293
L80851 76265
L80879 76237
L80879 76293
" />
<path d="M80879 75928
L80907 75956
L80879 75984
L80851 75956
L80879 75928
L80879 75984
" />
</g>
<g style="fill:#000000; fill-opacity:0.0; 
stroke:#000000; stroke-width:39.3701; stroke-opacity:1; 
stroke-linecap:round; stroke-linejoin:round;">
</g>
<g style="fill:#000000; fill-opacity:0.0; 
stroke:#000000; stroke-width:59.0551; stroke-opacity:1; 
stroke-linecap:round; stroke-linejoin:round;">
<path d="M69685 76577
L112205 76577
" />
</g>
<g style="fill:#000000; fill-opacity:0.0; 
stroke:#000000; stroke-width:39.3701; stroke-opacity:1; 
stroke-linecap:round; stroke-linejoin:round;">
</g>
<g style="fill:#000000; fill-opacity:0.0; 
stroke:#000000; stroke-width:59.0551; stroke-opacity:1; 
stroke-linecap:round; stroke-linejoin:round;">
<text x="70079.6" y="77424.1"
textLength="13529.2" font-size="787.402" lengthAdjust="spacingAndGlyphs"
text-anchor="start" opacity="0">KiCad E.D.A.  kicad (5.1.9)-1</text>
<path d="M70249 77395
L70249 76805
" />
<path d="M70587 77395
L70334 77058
" />
<path d="M70587 76805
L70249 77142
" />
<path d="M70840 77395
L70840 77002
" />
<path d="M70840 76805
L70812 76833
L70840 76861
L70868 76833
L70840 76805
L70840 76861
" />
<path d="M71458 77339
L71430 77367
L71346 77395
L71290 77395
L71205 77367
L71149 77311
L71121 77255
L71093 77142
L71093 77058
L71121 76946
L71149 76889
L71205 76833
L71290 76805
L71346 76805
L71430 76833
L71458 76861
" />
<path d="M71965 77395
L71965 77086
L71937 77030
L71880 77002
L71768 77002
L71712 77030
" />
<path d="M71965 77367
L71908 77395
L71768 77395
L71712 77367
L71683 77311
L71683 77255
L71712 77199
L71768 77171
L71908 77171
L71965 77142
" />
<path d="M72499 77395
L72499 76805
" />
<path d="M72499 77367
L72443 77395
L72330 77395
L72274 77367
L72246 77339
L72218 77283
L72218 77114
L72246 77058
L72274 77030
L72330 77002
L72443 77002
L72499 77030
" />
<path d="M73230 77086
L73427 77086
" />
<path d="M73511 77395
L73230 77395
L73230 76805
L73511 76805
" />
<path d="M73764 77339
L73793 77367
L73764 77395
L73736 77367
L73764 77339
L73764 77395
" />
<path d="M74046 77395
L74046 76805
L74186 76805
L74271 76833
L74327 76889
L74355 76946
L74383 77058
L74383 77142
L74355 77255
L74327 77311
L74271 77367
L74186 77395
L74046 77395
" />
<path d="M74636 77339
L74664 77367
L74636 77395
L74608 77367
L74636 77339
L74636 77395
" />
<path d="M74889 77227
L75171 77227
" />
<path d="M74833 77395
L75030 76805
L75227 77395
" />
<path d="M75424 77339
L75452 77367
L75424 77395
L75395 77367
L75424 77339
L75424 77395
" />
<path d="M76605 77395
L76605 76805
" />
<path d="M76661 77171
L76830 77395
" />
<path d="M76830 77002
L76605 77227
" />
<path d="M77083 77395
L77083 77002
" />
<path d="M77083 76805
L77055 76833
L77083 76861
L77111 76833
L77083 76805
L77083 76861
" />
<path d="M77617 77367
L77561 77395
L77448 77395
L77392 77367
L77364 77339
L77336 77283
L77336 77114
L77364 77058
L77392 77030
L77448 77002
L77561 77002
L77617 77030
" />
<path d="M78123 77395
L78123 77086
L78095 77030
L78039 77002
L77926 77002
L77870 77030
" />
<path d="M78123 77367
L78067 77395
L77926 77395
L77870 77367
L77842 77311
L77842 77255
L77870 77199
L77926 77171
L78067 77171
L78123 77142
" />
<path d="M78658 77395
L78658 76805
" />
<path d="M78658 77367
L78601 77395
L78489 77395
L78433 77367
L78404 77339
L78376 77283
L78376 77114
L78404 77058
L78433 77030
L78489 77002
L78601 77002
L78658 77030
" />
<path d="M79557 77620
L79529 77592
L79473 77508
L79445 77452
L79417 77367
L79389 77227
L79389 77114
L79417 76974
L79445 76889
L79473 76833
L79529 76749
L79557 76721
" />
<path d="M80064 76805
L79782 76805
L79754 77086
L79782 77058
L79839 77030
L79979 77030
L80036 77058
L80064 77086
L80092 77142
L80092 77283
L80064 77339
L80036 77367
L79979 77395
L79839 77395
L79782 77367
L79754 77339
" />
<path d="M80345 77339
L80373 77367
L80345 77395
L80317 77367
L80345 77339
L80345 77395
" />
<path d="M80935 77395
L80598 77395
" />
<path d="M80767 77395
L80767 76805
L80710 76889
L80654 76946
L80598 76974
" />
<path d="M81188 77339
L81217 77367
L81188 77395
L81160 77367
L81188 77339
L81188 77395
" />
<path d="M81498 77395
L81610 77395
L81667 77367
L81695 77339
L81751 77255
L81779 77142
L81779 76917
L81751 76861
L81723 76833
L81667 76805
L81554 76805
L81498 76833
L81470 76861
L81442 76917
L81442 77058
L81470 77114
L81498 77142
L81554 77171
L81667 77171
L81723 77142
L81751 77114
L81779 77058
" />
<path d="M81976 77620
L82004 77592
L82060 77508
L82088 77452
L82117 77367
L82145 77227
L82145 77114
L82117 76974
L82088 76889
L82060 76833
L82004 76749
L81976 76721
" />
<path d="M82426 77171
L82876 77171
" />
<path d="M83466 77395
L83129 77395
" />
<path d="M83298 77395
L83298 76805
L83241 76889
L83185 76946
L83129 76974
" />
</g>
<g style="fill:#000000; fill-opacity:0.0; 
stroke:#000000; stroke-width:39.3701; stroke-opacity:1; 
stroke-linecap:round; stroke-linejoin:round;">
</g>
<g style="fill:#000000; fill-opacity:0.0; 
stroke:#000000; stroke-width:59.0551; stroke-opacity:1; 
stroke-linecap:round; stroke-linejoin:round;">
<path d="M69685 75396
L112205 75396
" />
</g>
<g style="fill:#000000; fill-opacity:0.0; 
stroke:#000000; stroke-width:39.3701; stroke-opacity:1; 
stroke-linecap:round; stroke-linejoin:round;">
</g>
<g style="fill:#000000; fill-opacity:0.0; 
stroke:#000000; stroke-width:118.11; stroke-opacity:1; 
stroke-linecap:round; stroke-linejoin:round;">
<text x="103544" y="76321.7"
textLength="2336.9" font-size="787.402" lengthAdjust="spacingAndGlyphs"
text-anchor="start" opacity="0">Rev: </text>
<path d="M104099 76293
L103902 76012
" />
<path d="M103761 76293
L103761 75703
L103986 75703
L104042 75731
L104070 75759
L104099 75815
L104099 75899
L104070 75956
L104042 75984
L103986 76012
L103761 76012
" />
<path d="M104577 76265
L104520 76293
L104408 76293
L104352 76265
L104323 76209
L104323 75984
L104352 75928
L104408 75899
L104520 75899
L104577 75928
L104605 75984
L104605 76040
L104323 76096
" />
<path d="M104802 75899
L104942 76293
L105083 75899
" />
<path d="M105308 76237
L105336 76265
L105308 76293
L105280 76265
L105308 76237
L105308 76293
" />
<path d="M105308 75928
L105336 75956
L105308 75984
L105280 75956
L105308 75928
L105308 75984
" />
</g>
<g style="fill:#000000; fill-opacity:0.0; 
stroke:#000000; stroke-width:39.3701; stroke-opacity:1; 
stroke-linecap:round; stroke-linejoin:round;">
</g>
<g style="fill:#000000; fill-opacity:0.0; 
stroke:#000000; stroke-width:59.0551; stroke-opacity:1; 
stroke-linecap:round; stroke-linejoin:round;">
<text x="70079.6" y="76321.7"
textLength="3781.21" font-size="787.402" lengthAdjust="spacingAndGlyphs"
text-anchor="start" opacity="0">Size: A4</text>
<path d="M70221 76265
L70305 76293
L70446 76293
L70502 76265
L70530 76237
L70559 76181
L70559 76124
L70530 76068
L70502 76040
L70446 76012
L70334 75984
L70277 75956
L70249 75928
L70221 75871
L70221 75815
L70249 75759
L70277 75731
L70334 75703
L70474 75703
L70559 75731
" />
<path d="M70812 76293
L70812 75899
" />
<path d="M70812 75703
L70784 75731
L70812 75759
L70840 75731
L70812 75703
L70812 75759
" />
<path d="M71037 75899
L71346 75899
L71037 76293
L71346 76293
" />
<path d="M71796 76265
L71740 76293
L71627 76293
L71571 76265
L71543 76209
L71543 75984
L71571 75928
L71627 75899
L71740 75899
L71796 75928
L71824 75984
L71824 76040
L71543 76096
" />
<path d="M72077 76237
L72105 76265
L72077 76293
L72049 76265
L72077 76237
L72077 76293
" />
<path d="M72077 75928
L72105 75956
L72077 75984
L72049 75956
L72077 75928
L72077 75984
" />
<path d="M72780 76124
L73061 76124
" />
<path d="M72724 76293
L72921 75703
L73118 76293
" />
<path d="M73568 75899
L73568 76293
" />
<path d="M73427 75674
L73286 76096
L73652 76096
" />
</g>
<g style="fill:#000000; fill-opacity:0.0; 
stroke:#000000; stroke-width:39.3701; stroke-opacity:1; 
stroke-linecap:round; stroke-linejoin:round;">
</g>
<g style="fill:#000000; fill-opacity:0.0; 
stroke:#000000; stroke-width:59.0551; stroke-opacity:1; 
stroke-linecap:round; stroke-linejoin:round;">
<text x="103544" y="77424.1"
textLength="3349.27" font-size="787.402" lengthAdjust="spacingAndGlyphs"
text-anchor="start" opacity="0">Id: 1/1</text>
<path d="M103714 77395
L103714 76805
" />
<path d="M104248 77395
L104248 76805
" />
<path d="M104248 77367
L104192 77395
L104079 77395
L104023 77367
L103995 77339
L103967 77283
L103967 77114
L103995 77058
L104023 77030
L104079 77002
L104192 77002
L104248 77030
" />
<path d="M104529 77339
L104557 77367
L104529 77395
L104501 77367
L104529 77339
L104529 77395
" />
<path d="M104529 77030
L104557 77058
L104529 77086
L104501 77058
L104529 77030
L104529 77086
" />
<path d="M105570 77395
L105232 77395
" />
<path d="M105401 77395
L105401 76805
L105345 76889
L105289 76946
L105232 76974
" />
<path d="M106245 76777
L105739 77536
" />
<path d="M106751 77395
L106413 77395
" />
<path d="M106582 77395
L106582 76805
L106526 76889
L106470 76946
L106413 76974
" />
</g>
<g style="fill:#000000; fill-opacity:0.0; 
stroke:#000000; stroke-width:39.3701; stroke-opacity:1; 
stroke-linecap:round; stroke-linejoin:round;">
</g>
<g style="fill:#000000; fill-opacity:0.0; 
stroke:#000000; stroke-width:59.0551; stroke-opacity:1; 
stroke-linecap:round; stroke-linejoin:round;">
<path d="M69685 73821
L112205 73821
" />
</g>
<g style="fill:#000000; fill-opacity:0.0; 
stroke:#000000; stroke-width:39.3701; stroke-opacity:1; 
stroke-linecap:round; stroke-linejoin:round;">
</g>
<g style="fill:#000000; fill-opacity:0.0; 
stroke:#000000; stroke-width:157.48; stroke-opacity:1; 
stroke-linecap:round; stroke-linejoin:round;">
<text x="70079.6" y="74924.1"
textLength="3701.14" font-size="1049.87" lengthAdjust="spacingAndGlyphs"
text-anchor="start" opacity="0">Title: </text>
<path d="M70360 74099
L70810 74099
" />
<path d="M70486 74886
L70585 74099
" />
<path d="M70974 74886
L71039 74361
" />
<path d="M71072 74099
L71030 74136
L71063 74174
L71105 74136
L71072 74099
L71063 74174
" />
<path d="M71302 74361
L71602 74361
" />
<path d="M71447 74099
L71363 74774
L71391 74849
L71461 74886
L71536 74886
" />
<path d="M71911 74886
L71841 74849
L71813 74774
L71897 74099
" />
<path d="M72516 74849
L72436 74886
L72286 74886
L72216 74849
L72187 74774
L72225 74474
L72272 74399
L72352 74361
L72501 74361
L72572 74399
L72600 74474
L72591 74549
L72206 74624
" />
<path d="M72895 74811
L72928 74849
L72886 74886
L72853 74849
L72895 74811
L72886 74886
" />
<path d="M72947 74399
L72980 74436
L72937 74474
L72905 74436
L72947 74399
L72937 74474
" />
</g>
<g style="fill:#000000; fill-opacity:0.0; 
stroke:#000000; stroke-width:39.3701; stroke-opacity:1; 
stroke-linecap:round; stroke-linejoin:round;">
</g>
<g style="fill:#000000; fill-opacity:0.0; 
stroke:#000000; stroke-width:59.0551; stroke-opacity:1; 
stroke-linecap:round; stroke-linejoin:round;">
<text x="70079.6" y="73408.3"
textLength="19439.8" font-size="787.402" lengthAdjust="spacingAndGlyphs"
text-anchor="start" opacity="0">File: universal_power_board_v1.2.kicad_pcb</text>
<path d="M70446 73070
L70249 73070
" />
<path d="M70249 73380
L70249 72789
L70530 72789
" />
<path d="M70755 73380
L70755 72986
" />
<path d="M70755 72789
L70727 72817
L70755 72845
L70784 72817
L70755 72789
L70755 72845
" />
<path d="M71121 73380
L71065 73352
L71037 73295
L71037 72789
" />
<path d="M71571 73352
L71515 73380
L71402 73380
L71346 73352
L71318 73295
L71318 73070
L71346 73014
L71402 72986
L71515 72986
L71571 73014
L71599 73070
L71599 73127
L71318 73183
" />
<path d="M71852 73323
L71880 73352
L71852 73380
L71824 73352
L71852 73323
L71852 73380
" />
<path d="M71852 73014
L71880 73042
L71852 73070
L71824 73042
L71852 73014
L71852 73070
" />
<path d="M72836 72986
L72836 73380
" />
<path d="M72583 72986
L72583 73295
L72611 73352
L72668 73380
L72752 73380
L72808 73352
L72836 73323
" />
<path d="M73118 72986
L73118 73380
" />
<path d="M73118 73042
L73146 73014
L73202 72986
L73286 72986
L73343 73014
L73371 73070
L73371 73380
" />
<path d="M73652 73380
L73652 72986
" />
<path d="M73652 72789
L73624 72817
L73652 72845
L73680 72817
L73652 72789
L73652 72845
" />
<path d="M73877 72986
L74018 73380
L74158 72986
" />
<path d="M74608 73352
L74552 73380
L74439 73380
L74383 73352
L74355 73295
L74355 73070
L74383 73014
L74439 72986
L74552 72986
L74608 73014
L74636 73070
L74636 73127
L74355 73183
" />
<path d="M74889 73380
L74889 72986
" />
<path d="M74889 73099
L74917 73042
L74946 73014
L75002 72986
L75058 72986
" />
<path d="M75227 73352
L75283 73380
L75395 73380
L75452 73352
L75480 73295
L75480 73267
L75452 73211
L75395 73183
L75311 73183
L75255 73155
L75227 73099
L75227 73070
L75255 73014
L75311 72986
L75395 72986
L75452 73014
" />
<path d="M75986 73380
L75986 73070
L75958 73014
L75902 72986
L75789 72986
L75733 73014
" />
<path d="M75986 73352
L75930 73380
L75789 73380
L75733 73352
L75705 73295
L75705 73239
L75733 73183
L75789 73155
L75930 73155
L75986 73127
" />
<path d="M76352 73380
L76295 73352
L76267 73295
L76267 72789
" />
<path d="M76436 73436
L76886 73436
" />
<path d="M77027 72986
L77027 73577
" />
<path d="M77027 73014
L77083 72986
L77195 72986
L77251 73014
L77280 73042
L77308 73099
L77308 73267
L77280 73323
L77251 73352
L77195 73380
L77083 73380
L77027 73352
" />
<path d="M77645 73380
L77589 73352
L77561 73323
L77533 73267
L77533 73099
L77561 73042
L77589 73014
L77645 72986
L77730 72986
L77786 73014
L77814 73042
L77842 73099
L77842 73267
L77814 73323
L77786 73352
L77730 73380
L77645 73380
" />
<path d="M78039 72986
L78151 73380
L78264 73099
L78376 73380
L78489 72986
" />
<path d="M78939 73352
L78883 73380
L78770 73380
L78714 73352
L78686 73295
L78686 73070
L78714 73014
L78770 72986
L78883 72986
L78939 73014
L78967 73070
L78967 73127
L78686 73183
" />
<path d="M79220 73380
L79220 72986
" />
<path d="M79220 73099
L79248 73042
L79276 73014
L79332 72986
L79389 72986
" />
<path d="M79445 73436
L79895 73436
" />
<path d="M80036 73380
L80036 72789
" />
<path d="M80036 73014
L80092 72986
L80204 72986
L80260 73014
L80289 73042
L80317 73099
L80317 73267
L80289 73323
L80260 73352
L80204 73380
L80092 73380
L80036 73352
" />
<path d="M80654 73380
L80598 73352
L80570 73323
L80542 73267
L80542 73099
L80570 73042
L80598 73014
L80654 72986
L80739 72986
L80795 73014
L80823 73042
L80851 73099
L80851 73267
L80823 73323
L80795 73352
L80739 73380
L80654 73380
" />
<path d="M81357 73380
L81357 73070
L81329 73014
L81273 72986
L81160 72986
L81104 73014
" />
<path d="M81357 73352
L81301 73380
L81160 73380
L81104 73352
L81076 73295
L81076 73239
L81104 73183
L81160 73155
L81301 73155
L81357 73127
" />
<path d="M81638 73380
L81638 72986
" />
<path d="M81638 73099
L81667 73042
L81695 73014
L81751 72986
L81807 72986
" />
<path d="M82257 73380
L82257 72789
" />
<path d="M82257 73352
L82201 73380
L82088 73380
L82032 73352
L82004 73323
L81976 73267
L81976 73099
L82004 73042
L82032 73014
L82088 72986
L82201 72986
L82257 73014
" />
<path d="M82398 73436
L82848 73436
" />
<path d="M82932 72986
L83073 73380
L83213 72986
" />
<path d="M83748 73380
L83410 73380
" />
<path d="M83579 73380
L83579 72789
L83523 72874
L83466 72930
L83410 72958
" />
<path d="M84001 73323
L84029 73352
L84001 73380
L83973 73352
L84001 73323
L84001 73380
" />
<path d="M84254 72845
L84282 72817
L84338 72789
L84479 72789
L84535 72817
L84563 72845
L84591 72902
L84591 72958
L84563 73042
L84226 73380
L84591 73380
" />
<path d="M84844 73323
L84872 73352
L84844 73380
L84816 73352
L84844 73323
L84844 73380
" />
<path d="M85126 73380
L85126 72789
" />
<path d="M85182 73155
L85350 73380
" />
<path d="M85350 72986
L85126 73211
" />
<path d="M85604 73380
L85604 72986
" />
<path d="M85604 72789
L85575 72817
L85604 72845
L85632 72817
L85604 72789
L85604 72845
" />
<path d="M86138 73352
L86082 73380
L85969 73380
L85913 73352
L85885 73323
L85857 73267
L85857 73099
L85885 73042
L85913 73014
L85969 72986
L86082 72986
L86138 73014
" />
<path d="M86644 73380
L86644 73070
L86616 73014
L86560 72986
L86447 72986
L86391 73014
" />
<path d="M86644 73352
L86588 73380
L86447 73380
L86391 73352
L86363 73295
L86363 73239
L86391 73183
L86447 73155
L86588 73155
L86644 73127
" />
<path d="M87178 73380
L87178 72789
" />
<path d="M87178 73352
L87122 73380
L87010 73380
L86953 73352
L86925 73323
L86897 73267
L86897 73099
L86925 73042
L86953 73014
L87010 72986
L87122 72986
L87178 73014
" />
<path d="M87319 73436
L87769 73436
" />
<path d="M87910 72986
L87910 73577
" />
<path d="M87910 73014
L87966 72986
L88078 72986
L88135 73014
L88163 73042
L88191 73099
L88191 73267
L88163 73323
L88135 73352
L88078 73380
L87966 73380
L87910 73352
" />
<path d="M88697 73352
L88641 73380
L88528 73380
L88472 73352
L88444 73323
L88416 73267
L88416 73099
L88444 73042
L88472 73014
L88528 72986
L88641 72986
L88697 73014
" />
<path d="M88950 73380
L88950 72789
" />
<path d="M88950 73014
L89006 72986
L89119 72986
L89175 73014
L89203 73042
L89231 73099
L89231 73267
L89203 73323
L89175 73352
L89119 73380
L89006 73380
L88950 73352
" />
</g>
<g style="fill:#000000; fill-opacity:0.0; 
stroke:#000000; stroke-width:39.3701; stroke-opacity:1; 
stroke-linecap:round; stroke-linejoin:round;">
</g>
<g style="fill:#000000; fill-opacity:0.0; 
stroke:#000000; stroke-width:59.0551; stroke-opacity:1; 
stroke-linecap:round; stroke-linejoin:round;">
<path d="M69685 71459
L112205 71459
" />
</g>
<g style="fill:#000000; fill-opacity:0.0; 
stroke:#000000; stroke-width:39.3701; stroke-opacity:1; 
stroke-linecap:round; stroke-linejoin:round;">
</g>
<g style="fill:#000000; fill-opacity:0.0; 
stroke:#000000; stroke-width:59.0551; stroke-opacity:1; 
stroke-linecap:round; stroke-linejoin:round;">
<text x="70079.6" y="72345.4"
textLength="3236.78" font-size="787.402" lengthAdjust="spacingAndGlyphs"
text-anchor="start" opacity="0">Sheet: </text>
<path d="M70221 72289
L70305 72317
L70446 72317
L70502 72289
L70530 72260
L70559 72204
L70559 72148
L70530 72092
L70502 72064
L70446 72036
L70334 72007
L70277 71979
L70249 71951
L70221 71895
L70221 71839
L70249 71782
L70277 71754
L70334 71726
L70474 71726
L70559 71754
" />
<path d="M70812 72317
L70812 71726
" />
<path d="M71065 72317
L71065 72007
L71037 71951
L70980 71923
L70896 71923
L70840 71951
L70812 71979
" />
<path d="M71571 72289
L71515 72317
L71402 72317
L71346 72289
L71318 72232
L71318 72007
L71346 71951
L71402 71923
L71515 71923
L71571 71951
L71599 72007
L71599 72064
L71318 72120
" />
<path d="M72077 72289
L72021 72317
L71908 72317
L71852 72289
L71824 72232
L71824 72007
L71852 71951
L71908 71923
L72021 71923
L72077 71951
L72105 72007
L72105 72064
L71824 72120
" />
<path d="M72274 71923
L72499 71923
" />
<path d="M72358 71726
L72358 72232
L72386 72289
L72443 72317
L72499 72317
" />
<path d="M72696 72260
L72724 72289
L72696 72317
L72668 72289
L72696 72260
L72696 72317
" />
<path d="M72696 71951
L72724 71979
L72696 72007
L72668 71979
L72696 71951
L72696 72007
" />
</g>
<g style="fill:#000000; fill-opacity:0.0; 
stroke:#000000; stroke-width:39.3701; stroke-opacity:1; 
stroke-linecap:round; stroke-linejoin:round;">
</g>
<g style="fill:#000000; fill-opacity:0.0; 
stroke:#000000; stroke-width:59.0551; stroke-opacity:1; 
stroke-linecap:round; stroke-linejoin:round;">
<path d="M77559 75396
L77559 76577
" />
</g>
<g style="fill:#000000; fill-opacity:0.0; 
stroke:#000000; stroke-width:39.3701; stroke-opacity:1; 
stroke-linecap:round; stroke-linejoin:round;">
</g>
<g style="fill:#000000; fill-opacity:0.0; 
stroke:#000000; stroke-width:59.0551; stroke-opacity:1; 
stroke-linecap:round; stroke-linejoin:round;">
<path d="M102756 75396
L102756 77955
" />
<g >
</g>
<g style="fill:#840000; fill-opacity:0.0; 
stroke:#840000; stroke-width:59.0551; stroke-opacity:1; 
stroke-linecap:round; stroke-linejoin:round;">
</g>
<g style="fill:#840000; fill-opacity:0.0; 
stroke:#840000; stroke-width:0; stroke-opacity:1; 
stroke-linecap:round; stroke-linejoin:round;">
</g>
<g style="fill:#840000; fill-opacity:1.0; 
stroke:#840000; stroke-width:0; stroke-opacity:1; 
stroke-linecap:round; stroke-linejoin:round;">
<path style="fill:#840000; fill-opacity:1.0; 
stroke:#840000; stroke-width:0; stroke-opacity:1; 
stroke-linecap:round; stroke-linejoin:round;fill-rule:evenodd;"
d="M 46446.3,27529.8
46446.3,28379.8
45946.3,28379.8
45946.3,27529.8
Z" /> 
<path style="fill:#840000; fill-opacity:1.0; 
stroke:#840000; stroke-width:0; stroke-opacity:1; 
stroke-linecap:round; stroke-linejoin:round;fill-rule:evenodd;"
d="M 44974.7,28379.8
44974.7,27529.8
45474.7,27529.8
45474.7,28379.8
Z" /> 
<path style="fill:#840000; fill-opacity:1.0; 
stroke:#840000; stroke-width:0; stroke-opacity:1; 
stroke-linecap:round; stroke-linejoin:round;fill-rule:evenodd;"
d="M 47873.4,28598.4
47023.4,28598.4
47023.4,28098.4
47873.4,28098.4
Z" /> 
<path style="fill:#840000; fill-opacity:1.0; 
stroke:#840000; stroke-width:0; stroke-opacity:1; 
stroke-linecap:round; stroke-linejoin:round;fill-rule:evenodd;"
d="M 44643.3,27529.8
44643.3,28379.8
44143.3,28379.8
44143.3,27529.8
Z" /> 
<path style="fill:#840000; fill-opacity:1.0; 
stroke:#840000; stroke-width:0; stroke-opacity:1; 
stroke-linecap:round; stroke-linejoin:round;fill-rule:evenodd;"
d="M 43491.4,28598.4
42641.4,28598.4
42641.4,28098.4
43491.4,28098.4
Z" /> 
<path style="fill:#840000; fill-opacity:1.0; 
stroke:#840000; stroke-width:0; stroke-opacity:1; 
stroke-linecap:round; stroke-linejoin:round;fill-rule:evenodd;"
d="M 46409.5,32763.4
45909.5,32763.4
45909.5,31716.5
46409.5,31716.5
Z" /> 
<path style="fill:#840000; fill-opacity:1.0; 
stroke:#840000; stroke-width:0; stroke-opacity:1; 
stroke-linecap:round; stroke-linejoin:round;fill-rule:evenodd;"
d="M 47873.4,31298.4
46826.6,31298.4
46826.6,30798.4
47873.4,30798.4
Z" /> 
<path style="fill:#840000; fill-opacity:1.0; 
stroke:#840000; stroke-width:0; stroke-opacity:1; 
stroke-linecap:round; stroke-linejoin:round;fill-rule:evenodd;"
d="M 43688.2,31298.4
42641.4,31298.4
42641.4,30798.4
43688.2,30798.4
Z" /> 
<path style="fill:#840000; fill-opacity:1.0; 
stroke:#840000; stroke-width:0; stroke-opacity:1; 
stroke-linecap:round; stroke-linejoin:round;fill-rule:evenodd;"
d="M 43688.2,32200
42641.4,32200
42641.4,31700
43688.2,31700
Z" /> 
<path style="fill:#840000; fill-opacity:1.0; 
stroke:#840000; stroke-width:0; stroke-opacity:1; 
stroke-linecap:round; stroke-linejoin:round;fill-rule:evenodd;"
d="M 44610.3,32763.4
44110.3,32763.4
44110.3,31716.5
44610.3,31716.5
Z" /> 
<path style="fill:#840000; fill-opacity:1.0; 
stroke:#840000; stroke-width:0; stroke-opacity:1; 
stroke-linecap:round; stroke-linejoin:round;fill-rule:evenodd;"
d="M 45511.9,32763.4
45011.9,32763.4
45011.9,31716.5
45511.9,31716.5
Z" /> 
<path style="fill:#840000; fill-opacity:1.0; 
stroke:#840000; stroke-width:0; stroke-opacity:1; 
stroke-linecap:round; stroke-linejoin:round;fill-rule:evenodd;"
d="M 47873.4,32200
46826.6,32200
46826.6,31700
47873.4,31700
Z" /> 
<path style="fill:#840000; fill-opacity:1.0; 
stroke:#840000; stroke-width:0; stroke-opacity:1; 
stroke-linecap:round; stroke-linejoin:round;fill-rule:evenodd;"
d="M 47873.4,30396.9
46826.6,30396.9
46826.6,29896.9
47873.4,29896.9
Z" /> 
<path style="fill:#840000; fill-opacity:1.0; 
stroke:#840000; stroke-width:0; stroke-opacity:1; 
stroke-linecap:round; stroke-linejoin:round;fill-rule:evenodd;"
d="M 46779.6,29646.9
46779.6,27946.1
47460.7,27946.1
47460.7,29646.9
Z" /> 
<path style="fill:#840000; fill-opacity:1.0; 
stroke:#840000; stroke-width:0; stroke-opacity:1; 
stroke-linecap:round; stroke-linejoin:round;fill-rule:evenodd;"
d="M 46443,28747.2
44978.4,28747.2
44978.4,27948
46443,27948
Z" /> 
<path style="fill:#840000; fill-opacity:1.0; 
stroke:#840000; stroke-width:0; stroke-opacity:1; 
stroke-linecap:round; stroke-linejoin:round;fill-rule:evenodd;"
d="M 44639.8,28747.2
43057.1,28747.2
43057.1,27948
44639.8,27948
Z" /> 
<path style="fill:#840000; fill-opacity:1.0; 
stroke:#840000; stroke-width:0; stroke-opacity:1; 
stroke-linecap:round; stroke-linejoin:round;fill-rule:evenodd;"
d="M 43688.2,30396.9
42641.4,30396.9
42641.4,29896.9
43688.2,29896.9
Z" /> 
</g>
<g >
</g>
<g style="fill:#840000; fill-opacity:1.0; 
stroke:#840000; stroke-width:0; stroke-opacity:1; 
stroke-linecap:round; stroke-linejoin:round;">
<path style="fill:#840000; fill-opacity:1.0; 
stroke:#840000; stroke-width:0; stroke-opacity:1; 
stroke-linecap:round; stroke-linejoin:round;fill-rule:evenodd;"
d="M 43707.6,26413.4
43716.7,26414.8
43725.6,26417
43734.2,26420.1
43742.5,26424
43750.4,26428.8
43757.7,26434.2
43764.5,26440.4
43770.7,26447.2
43776.2,26454.5
43780.9,26462.4
43784.8,26470.7
43787.9,26479.4
43790.1,26488.3
43791.5,26497.3
43791.9,26506.5
43791.9,26693.5
43791.5,26702.7
43790.1,26711.7
43787.9,26720.6
43784.8,26729.3
43780.9,26737.6
43776.2,26745.5
43770.7,26752.8
43764.5,26759.6
43757.7,26765.8
43750.4,26771.2
43742.5,26776
43734.2,26779.9
43725.6,26783
43716.7,26785.2
43707.6,26786.6
43698.4,26787
43501.6,26787
43492.4,26786.6
43483.3,26785.2
43474.4,26783
43465.8,26779.9
43457.5,26776
43449.6,26771.2
43442.3,26765.8
43435.5,26759.6
43429.3,26752.8
43423.8,26745.5
43419.1,26737.6
43415.2,26729.3
43412.1,26720.6
43409.9,26711.7
43408.5,26702.7
43408.1,26693.5
43408.1,26506.5
43408.5,26497.3
43409.9,26488.3
43412.1,26479.4
43415.2,26470.7
43419.1,26462.4
43423.8,26454.5
43429.3,26447.2
43435.5,26440.4
43442.3,26434.2
43449.6,26428.8
43457.5,26424
43465.8,26420.1
43474.4,26417
43483.3,26414.8
43492.4,26413.4
43501.6,26413
43698.4,26413
Z" /> 
<path style="fill:#840000; fill-opacity:1.0; 
stroke:#840000; stroke-width:0; stroke-opacity:1; 
stroke-linecap:round; stroke-linejoin:round;fill-rule:evenodd;"
d="M 44426.1,26413.4
44435.2,26414.8
44444.1,26417
44452.7,26420.1
44461,26424
44468.9,26428.8
44476.2,26434.2
44483,26440.4
44489.2,26447.2
44494.7,26454.5
44499.4,26462.4
44503.3,26470.7
44506.4,26479.4
44508.6,26488.3
44510,26497.3
44510.4,26506.5
44510.4,26693.5
44510,26702.7
44508.6,26711.7
44506.4,26720.6
44503.3,26729.3
44499.4,26737.6
44494.7,26745.5
44489.2,26752.8
44483,26759.6
44476.2,26765.8
44468.9,26771.2
44461,26776
44452.7,26779.9
44444.1,26783
44435.2,26785.2
44426.1,26786.6
44416.9,26787
44220.1,26787
44210.9,26786.6
44201.8,26785.2
44192.9,26783
44184.3,26779.9
44176,26776
44168.1,26771.2
44160.8,26765.8
44154,26759.6
44147.8,26752.8
44142.3,26745.5
44137.6,26737.6
44133.7,26729.3
44130.6,26720.6
44128.4,26711.7
44127,26702.7
44126.6,26693.5
44126.6,26506.5
44127,26497.3
44128.4,26488.3
44130.6,26479.4
44133.7,26470.7
44137.6,26462.4
44142.3,26454.5
44147.8,26447.2
44154,26440.4
44160.8,26434.2
44168.1,26428.8
44176,26424
44184.3,26420.1
44192.9,26417
44201.8,26414.8
44210.9,26413.4
44220.1,26413
44416.9,26413
Z" /> 
</g>
<g >
</g>
<g style="fill:#840000; fill-opacity:1.0; 
stroke:#840000; stroke-width:0; stroke-opacity:1; 
stroke-linecap:round; stroke-linejoin:round;">
<path style="fill:#840000; fill-opacity:1.0; 
stroke:#840000; stroke-width:0; stroke-opacity:1; 
stroke-linecap:round; stroke-linejoin:round;fill-rule:evenodd;"
d="M 46739.1,33413.4
46748.2,33414.8
46757.1,33417
46765.7,33420.1
46774,33424
46781.9,33428.8
46789.2,33434.2
46796,33440.4
46802.2,33447.2
46807.7,33454.5
46812.4,33462.4
46816.3,33470.7
46819.4,33479.4
46821.6,33488.3
46823,33497.3
46823.4,33506.5
46823.4,33693.5
46823,33702.7
46821.6,33711.7
46819.4,33720.6
46816.3,33729.3
46812.4,33737.6
46807.7,33745.5
46802.2,33752.8
46796,33759.6
46789.2,33765.8
46781.9,33771.2
46774,33776
46765.7,33779.9
46757.1,33783
46748.2,33785.2
46739.1,33786.6
46729.9,33787
46533.1,33787
46523.9,33786.6
46514.8,33785.2
46505.9,33783
46497.3,33779.9
46489,33776
46481.1,33771.2
46473.8,33765.8
46467,33759.6
46460.8,33752.8
46455.3,33745.5
46450.6,33737.6
46446.7,33729.3
46443.6,33720.6
46441.4,33711.7
46440,33702.7
46439.6,33693.5
46439.6,33506.5
46440,33497.3
46441.4,33488.3
46443.6,33479.4
46446.7,33470.7
46450.6,33462.4
46455.3,33454.5
46460.8,33447.2
46467,33440.4
46473.8,33434.2
46481.1,33428.8
46489,33424
46497.3,33420.1
46505.9,33417
46514.8,33414.8
46523.9,33413.4
46533.1,33413
46729.9,33413
Z" /> 
<path style="fill:#840000; fill-opacity:1.0; 
stroke:#840000; stroke-width:0; stroke-opacity:1; 
stroke-linecap:round; stroke-linejoin:round;fill-rule:evenodd;"
d="M 47457.6,33413.4
47466.7,33414.8
47475.6,33417
47484.2,33420.1
47492.5,33424
47500.4,33428.8
47507.7,33434.2
47514.5,33440.4
47520.7,33447.2
47526.2,33454.5
47530.9,33462.4
47534.8,33470.7
47537.9,33479.4
47540.1,33488.3
47541.5,33497.3
47541.9,33506.5
47541.9,33693.5
47541.5,33702.7
47540.1,33711.7
47537.9,33720.6
47534.8,33729.3
47530.9,33737.6
47526.2,33745.5
47520.7,33752.8
47514.5,33759.6
47507.7,33765.8
47500.4,33771.2
47492.5,33776
47484.2,33779.9
47475.6,33783
47466.7,33785.2
47457.6,33786.6
47448.4,33787
47251.6,33787
47242.4,33786.6
47233.3,33785.2
47224.4,33783
47215.8,33779.9
47207.5,33776
47199.6,33771.2
47192.3,33765.8
47185.5,33759.6
47179.3,33752.8
47173.8,33745.5
47169.1,33737.6
47165.2,33729.3
47162.1,33720.6
47159.9,33711.7
47158.5,33702.7
47158.1,33693.5
47158.1,33506.5
47158.5,33497.3
47159.9,33488.3
47162.1,33479.4
47165.2,33470.7
47169.1,33462.4
47173.8,33454.5
47179.3,33447.2
47185.5,33440.4
47192.3,33434.2
47199.6,33428.8
47207.5,33424
47215.8,33420.1
47224.4,33417
47233.3,33414.8
47242.4,33413.4
47251.6,33413
47448.4,33413
Z" /> 
</g>
<g >
</g>
<g style="fill:#840000; fill-opacity:1.0; 
stroke:#840000; stroke-width:0; stroke-opacity:1; 
stroke-linecap:round; stroke-linejoin:round;">
<path style="fill:#840000; fill-opacity:1.0; 
stroke:#840000; stroke-width:0; stroke-opacity:1; 
stroke-linecap:round; stroke-linejoin:round;fill-rule:evenodd;"
d="M 47907.6,26413.4
47916.7,26414.8
47925.6,26417
47934.2,26420.1
47942.5,26424
47950.4,26428.8
47957.7,26434.2
47964.5,26440.4
47970.7,26447.2
47976.2,26454.5
47980.9,26462.4
47984.8,26470.7
47987.9,26479.4
47990.1,26488.3
47991.5,26497.3
47991.9,26506.5
47991.9,26693.5
47991.5,26702.7
47990.1,26711.7
47987.9,26720.6
47984.8,26729.3
47980.9,26737.6
47976.2,26745.5
47970.7,26752.8
47964.5,26759.6
47957.7,26765.8
47950.4,26771.2
47942.5,26776
47934.2,26779.9
47925.6,26783
47916.7,26785.2
47907.6,26786.6
47898.4,26787
47701.6,26787
47692.4,26786.6
47683.3,26785.2
47674.4,26783
47665.8,26779.9
47657.5,26776
47649.6,26771.2
47642.3,26765.8
47635.5,26759.6
47629.3,26752.8
47623.8,26745.5
47619.1,26737.6
47615.2,26729.3
47612.1,26720.6
47609.9,26711.7
47608.5,26702.7
47608.1,26693.5
47608.1,26506.5
47608.5,26497.3
47609.9,26488.3
47612.1,26479.4
47615.2,26470.7
47619.1,26462.4
47623.8,26454.5
47629.3,26447.2
47635.5,26440.4
47642.3,26434.2
47649.6,26428.8
47657.5,26424
47665.8,26420.1
47674.4,26417
47683.3,26414.8
47692.4,26413.4
47701.6,26413
47898.4,26413
Z" /> 
<path style="fill:#840000; fill-opacity:1.0; 
stroke:#840000; stroke-width:0; stroke-opacity:1; 
stroke-linecap:round; stroke-linejoin:round;fill-rule:evenodd;"
d="M 47189.1,26413.4
47198.2,26414.8
47207.1,26417
47215.7,26420.1
47224,26424
47231.9,26428.8
47239.2,26434.2
47246,26440.4
47252.2,26447.2
47257.7,26454.5
47262.4,26462.4
47266.3,26470.7
47269.4,26479.4
47271.6,26488.3
47273,26497.3
47273.4,26506.5
47273.4,26693.5
47273,26702.7
47271.6,26711.7
47269.4,26720.6
47266.3,26729.3
47262.4,26737.6
47257.7,26745.5
47252.2,26752.8
47246,26759.6
47239.2,26765.8
47231.9,26771.2
47224,26776
47215.7,26779.9
47207.1,26783
47198.2,26785.2
47189.1,26786.6
47179.9,26787
46983.1,26787
46973.9,26786.6
46964.8,26785.2
46955.9,26783
46947.3,26779.9
46939,26776
46931.1,26771.2
46923.8,26765.8
46917,26759.6
46910.8,26752.8
46905.3,26745.5
46900.6,26737.6
46896.7,26729.3
46893.6,26720.6
46891.4,26711.7
46890,26702.7
46889.6,26693.5
46889.6,26506.5
46890,26497.3
46891.4,26488.3
46893.6,26479.4
46896.7,26470.7
46900.6,26462.4
46905.3,26454.5
46910.8,26447.2
46917,26440.4
46923.8,26434.2
46931.1,26428.8
46939,26424
46947.3,26420.1
46955.9,26417
46964.8,26414.8
46973.9,26413.4
46983.1,26413
47179.9,26413
Z" /> 
</g>
<g >
</g>
<g style="fill:#840000; fill-opacity:1.0; 
stroke:#840000; stroke-width:0; stroke-opacity:1; 
stroke-linecap:round; stroke-linejoin:round;">
<path style="fill:#840000; fill-opacity:1.0; 
stroke:#840000; stroke-width:0; stroke-opacity:1; 
stroke-linecap:round; stroke-linejoin:round;fill-rule:evenodd;"
d="M 41607.6,30813.4
41616.7,30814.8
41625.6,30817
41634.2,30820.1
41642.5,30824
41650.4,30828.8
41657.7,30834.2
41664.5,30840.4
41670.7,30847.2
41676.2,30854.5
41680.9,30862.4
41684.8,30870.7
41687.9,30879.4
41690.1,30888.3
41691.5,30897.3
41691.9,30906.5
41691.9,31093.5
41691.5,31102.7
41690.1,31111.7
41687.9,31120.6
41684.8,31129.3
41680.9,31137.6
41676.2,31145.5
41670.7,31152.8
41664.5,31159.6
41657.7,31165.8
41650.4,31171.2
41642.5,31176
41634.2,31179.9
41625.6,31183
41616.7,31185.2
41607.6,31186.6
41598.4,31187
41401.6,31187
41392.4,31186.6
41383.3,31185.2
41374.4,31183
41365.8,31179.9
41357.5,31176
41349.6,31171.2
41342.3,31165.8
41335.5,31159.6
41329.3,31152.8
41323.8,31145.5
41319.1,31137.6
41315.2,31129.3
41312.1,31120.6
41309.9,31111.7
41308.5,31102.7
41308.1,31093.5
41308.1,30906.5
41308.5,30897.3
41309.9,30888.3
41312.1,30879.4
41315.2,30870.7
41319.1,30862.4
41323.8,30854.5
41329.3,30847.2
41335.5,30840.4
41342.3,30834.2
41349.6,30828.8
41357.5,30824
41365.8,30820.1
41374.4,30817
41383.3,30814.8
41392.4,30813.4
41401.6,30813
41598.4,30813
Z" /> 
<path style="fill:#840000; fill-opacity:1.0; 
stroke:#840000; stroke-width:0; stroke-opacity:1; 
stroke-linecap:round; stroke-linejoin:round;fill-rule:evenodd;"
d="M 40889.1,30813.4
40898.2,30814.8
40907.1,30817
40915.7,30820.1
40924,30824
40931.9,30828.8
40939.2,30834.2
40946,30840.4
40952.2,30847.2
40957.7,30854.5
40962.4,30862.4
40966.3,30870.7
40969.4,30879.4
40971.6,30888.3
40973,30897.3
40973.4,30906.5
40973.4,31093.5
40973,31102.7
40971.6,31111.7
40969.4,31120.6
40966.3,31129.3
40962.4,31137.6
40957.7,31145.5
40952.2,31152.8
40946,31159.6
40939.2,31165.8
40931.9,31171.2
40924,31176
40915.7,31179.9
40907.1,31183
40898.2,31185.2
40889.1,31186.6
40879.9,31187
40683.1,31187
40673.9,31186.6
40664.8,31185.2
40655.9,31183
40647.3,31179.9
40639,31176
40631.1,31171.2
40623.8,31165.8
40617,31159.6
40610.8,31152.8
40605.3,31145.5
40600.6,31137.6
40596.7,31129.3
40593.6,31120.6
40591.4,31111.7
40590,31102.7
40589.6,31093.5
40589.6,30906.5
40590,30897.3
40591.4,30888.3
40593.6,30879.4
40596.7,30870.7
40600.6,30862.4
40605.3,30854.5
40610.8,30847.2
40617,30840.4
40623.8,30834.2
40631.1,30828.8
40639,30824
40647.3,30820.1
40655.9,30817
40664.8,30814.8
40673.9,30813.4
40683.1,30813
40879.9,30813
Z" /> 
</g>
<g >
</g>
<g style="fill:#840000; fill-opacity:1.0; 
stroke:#840000; stroke-width:0; stroke-opacity:1; 
stroke-linecap:round; stroke-linejoin:round;">
<path style="fill:#840000; fill-opacity:1.0; 
stroke:#840000; stroke-width:0; stroke-opacity:1; 
stroke-linecap:round; stroke-linejoin:round;fill-rule:evenodd;"
d="M 41702.7,29058.5
41711.7,29059.9
41720.6,29062.1
41729.3,29065.2
41737.6,29069.1
41745.5,29073.8
41752.8,29079.3
41759.6,29085.5
41765.8,29092.3
41771.2,29099.6
41776,29107.5
41779.9,29115.8
41783,29124.4
41785.2,29133.3
41786.6,29142.4
41787,29151.6
41787,29348.4
41786.6,29357.6
41785.2,29366.7
41783,29375.6
41779.9,29384.2
41776,29392.5
41771.2,29400.4
41765.8,29407.7
41759.6,29414.5
41752.8,29420.7
41745.5,29426.2
41737.6,29430.9
41729.3,29434.8
41720.6,29437.9
41711.7,29440.1
41702.7,29441.5
41693.5,29441.9
41506.5,29441.9
41497.3,29441.5
41488.3,29440.1
41479.4,29437.9
41470.7,29434.8
41462.4,29430.9
41454.5,29426.2
41447.2,29420.7
41440.4,29414.5
41434.2,29407.7
41428.8,29400.4
41424,29392.5
41420.1,29384.2
41417,29375.6
41414.8,29366.7
41413.4,29357.6
41413,29348.4
41413,29151.6
41413.4,29142.4
41414.8,29133.3
41417,29124.4
41420.1,29115.8
41424,29107.5
41428.8,29099.6
41434.2,29092.3
41440.4,29085.5
41447.2,29079.3
41454.5,29073.8
41462.4,29069.1
41470.7,29065.2
41479.4,29062.1
41488.3,29059.9
41497.3,29058.5
41506.5,29058.1
41693.5,29058.1
Z" /> 
<path style="fill:#840000; fill-opacity:1.0; 
stroke:#840000; stroke-width:0; stroke-opacity:1; 
stroke-linecap:round; stroke-linejoin:round;fill-rule:evenodd;"
d="M 41702.7,29777
41711.7,29778.4
41720.6,29780.6
41729.3,29783.7
41737.6,29787.6
41745.5,29792.3
41752.8,29797.8
41759.6,29804
41765.8,29810.8
41771.2,29818.1
41776,29826
41779.9,29834.3
41783,29842.9
41785.2,29851.8
41786.6,29860.9
41787,29870.1
41787,30066.9
41786.6,30076.1
41785.2,30085.2
41783,30094.1
41779.9,30102.7
41776,30111
41771.2,30118.9
41765.8,30126.2
41759.6,30133
41752.8,30139.2
41745.5,30144.7
41737.6,30149.4
41729.3,30153.3
41720.6,30156.4
41711.7,30158.6
41702.7,30160
41693.5,30160.4
41506.5,30160.4
41497.3,30160
41488.3,30158.6
41479.4,30156.4
41470.7,30153.3
41462.4,30149.4
41454.5,30144.7
41447.2,30139.2
41440.4,30133
41434.2,30126.2
41428.8,30118.9
41424,30111
41420.1,30102.7
41417,30094.1
41414.8,30085.2
41413.4,30076.1
41413,30066.9
41413,29870.1
41413.4,29860.9
41414.8,29851.8
41417,29842.9
41420.1,29834.3
41424,29826
41428.8,29818.1
41434.2,29810.8
41440.4,29804
41447.2,29797.8
41454.5,29792.3
41462.4,29787.6
41470.7,29783.7
41479.4,29780.6
41488.3,29778.4
41497.3,29777
41506.5,29776.6
41693.5,29776.6
Z" /> 
</g>
<g >
</g>
<g >
</g>
<g >
</g>
<g >
</g>
<g >
</g>
<g >
</g>
<g >
</g>
<g >
</g>
<g >
</g>
<g >
</g>
<g >
</g>
<g >
</g>
<g >
</g>
<g >
</g>
<g >
</g>
<g >
</g>
<g >
</g>
<g style="fill:#840000; fill-opacity:1.0; 
stroke:#840000; stroke-width:0; stroke-opacity:1; 
stroke-linecap:round; stroke-linejoin:round;">
<path style="fill:#840000; fill-opacity:1.0; 
stroke:#840000; stroke-width:0; stroke-opacity:1; 
stroke-linecap:round; stroke-linejoin:round;fill-rule:evenodd;"
d="M 46161.3,26413.4
46170.4,26414.8
46179.3,26417
46187.9,26420.1
46196.2,26424
46204.1,26428.8
46211.5,26434.2
46218.3,26440.4
46224.4,26447.2
46229.9,26454.5
46234.6,26462.4
46238.6,26470.7
46241.6,26479.4
46243.9,26488.3
46245.2,26497.3
46245.7,26506.5
46245.7,26693.5
46245.2,26702.7
46243.9,26711.7
46241.6,26720.6
46238.6,26729.3
46234.6,26737.6
46229.9,26745.5
46224.4,26752.8
46218.3,26759.6
46211.5,26765.8
46204.1,26771.2
46196.2,26776
46187.9,26779.9
46179.3,26783
46170.4,26785.2
46161.3,26786.6
46152.2,26787
45925.8,26787
45916.6,26786.6
45907.5,26785.2
45898.6,26783
45890,26779.9
45881.7,26776
45873.8,26771.2
45866.5,26765.8
45859.7,26759.6
45853.5,26752.8
45848,26745.5
45843.3,26737.6
45839.4,26729.3
45836.3,26720.6
45834.1,26711.7
45832.7,26702.7
45832.3,26693.5
45832.3,26506.5
45832.7,26497.3
45834.1,26488.3
45836.3,26479.4
45839.4,26470.7
45843.3,26462.4
45848,26454.5
45853.5,26447.2
45859.7,26440.4
45866.5,26434.2
45873.8,26428.8
45881.7,26424
45890,26420.1
45898.6,26417
45907.5,26414.8
45916.6,26413.4
45925.8,26413
46152.2,26413
Z" /> 
<path style="fill:#840000; fill-opacity:1.0; 
stroke:#840000; stroke-width:0; stroke-opacity:1; 
stroke-linecap:round; stroke-linejoin:round;fill-rule:evenodd;"
d="M 45472.4,26413.4
45481.4,26414.8
45490.3,26417
45499,26420.1
45507.3,26424
45515.1,26428.8
45522.5,26434.2
45529.3,26440.4
45535.5,26447.2
45540.9,26454.5
45545.7,26462.4
45549.6,26470.7
45552.7,26479.4
45554.9,26488.3
45556.2,26497.3
45556.7,26506.5
45556.7,26693.5
45556.2,26702.7
45554.9,26711.7
45552.7,26720.6
45549.6,26729.3
45545.7,26737.6
45540.9,26745.5
45535.5,26752.8
45529.3,26759.6
45522.5,26765.8
45515.1,26771.2
45507.3,26776
45499,26779.9
45490.3,26783
45481.4,26785.2
45472.4,26786.6
45463.2,26787
45236.8,26787
45227.6,26786.6
45218.6,26785.2
45209.7,26783
45201,26779.9
45192.7,26776
45184.9,26771.2
45177.5,26765.8
45170.7,26759.6
45164.5,26752.8
45159.1,26745.5
45154.3,26737.6
45150.4,26729.3
45147.3,26720.6
45145.1,26711.7
45143.8,26702.7
45143.3,26693.5
45143.3,26506.5
45143.8,26497.3
45145.1,26488.3
45147.3,26479.4
45150.4,26470.7
45154.3,26462.4
45159.1,26454.5
45164.5,26447.2
45170.7,26440.4
45177.5,26434.2
45184.9,26428.8
45192.7,26424
45201,26420.1
45209.7,26417
45218.6,26414.8
45227.6,26413.4
45236.8,26413
45463.2,26413
Z" /> 
</g>
<g >
</g>
<g style="fill:#840000; fill-opacity:1.0; 
stroke:#840000; stroke-width:0; stroke-opacity:1; 
stroke-linecap:round; stroke-linejoin:round;">
<path style="fill:#840000; fill-opacity:1.0; 
stroke:#840000; stroke-width:0; stroke-opacity:1; 
stroke-linecap:round; stroke-linejoin:round;fill-rule:evenodd;"
d="M 47911.3,27113.4
47920.4,27114.8
47929.3,27117
47937.9,27120.1
47946.2,27124
47954.1,27128.8
47961.5,27134.2
47968.3,27140.4
47974.4,27147.2
47979.9,27154.5
47984.6,27162.4
47988.6,27170.7
47991.6,27179.4
47993.9,27188.3
47995.2,27197.3
47995.7,27206.5
47995.7,27393.5
47995.2,27402.7
47993.9,27411.7
47991.6,27420.6
47988.6,27429.3
47984.6,27437.6
47979.9,27445.5
47974.4,27452.8
47968.3,27459.6
47961.5,27465.8
47954.1,27471.2
47946.2,27476
47937.9,27479.9
47929.3,27483
47920.4,27485.2
47911.3,27486.6
47902.2,27487
47675.8,27487
47666.6,27486.6
47657.5,27485.2
47648.6,27483
47640,27479.9
47631.7,27476
47623.8,27471.2
47616.5,27465.8
47609.7,27459.6
47603.5,27452.8
47598,27445.5
47593.3,27437.6
47589.4,27429.3
47586.3,27420.6
47584.1,27411.7
47582.7,27402.7
47582.3,27393.5
47582.3,27206.5
47582.7,27197.3
47584.1,27188.3
47586.3,27179.4
47589.4,27170.7
47593.3,27162.4
47598,27154.5
47603.5,27147.2
47609.7,27140.4
47616.5,27134.2
47623.8,27128.8
47631.7,27124
47640,27120.1
47648.6,27117
47657.5,27114.8
47666.6,27113.4
47675.8,27113
47902.2,27113
Z" /> 
<path style="fill:#840000; fill-opacity:1.0; 
stroke:#840000; stroke-width:0; stroke-opacity:1; 
stroke-linecap:round; stroke-linejoin:round;fill-rule:evenodd;"
d="M 47222.4,27113.4
47231.4,27114.8
47240.3,27117
47249,27120.1
47257.3,27124
47265.1,27128.8
47272.5,27134.2
47279.3,27140.4
47285.5,27147.2
47290.9,27154.5
47295.7,27162.4
47299.6,27170.7
47302.7,27179.4
47304.9,27188.3
47306.2,27197.3
47306.7,27206.5
47306.7,27393.5
47306.2,27402.7
47304.9,27411.7
47302.7,27420.6
47299.6,27429.3
47295.7,27437.6
47290.9,27445.5
47285.5,27452.8
47279.3,27459.6
47272.5,27465.8
47265.1,27471.2
47257.3,27476
47249,27479.9
47240.3,27483
47231.4,27485.2
47222.4,27486.6
47213.2,27487
46986.8,27487
46977.6,27486.6
46968.6,27485.2
46959.7,27483
46951,27479.9
46942.7,27476
46934.9,27471.2
46927.5,27465.8
46920.7,27459.6
46914.5,27452.8
46909.1,27445.5
46904.3,27437.6
46900.4,27429.3
46897.3,27420.6
46895.1,27411.7
46893.8,27402.7
46893.3,27393.5
46893.3,27206.5
46893.8,27197.3
46895.1,27188.3
46897.3,27179.4
46900.4,27170.7
46904.3,27162.4
46909.1,27154.5
46914.5,27147.2
46920.7,27140.4
46927.5,27134.2
46934.9,27128.8
46942.7,27124
46951,27120.1
46959.7,27117
46968.6,27114.8
46977.6,27113.4
46986.8,27113
47213.2,27113
Z" /> 
</g>
<g >
</g>
<g style="fill:#840000; fill-opacity:1.0; 
stroke:#840000; stroke-width:0; stroke-opacity:1; 
stroke-linecap:round; stroke-linejoin:round;">
<path style="fill:#840000; fill-opacity:1.0; 
stroke:#840000; stroke-width:0; stroke-opacity:1; 
stroke-linecap:round; stroke-linejoin:round;fill-rule:evenodd;"
d="M 40936.8,29024.1
40946.4,29025.5
40955.7,29027.9
40964.8,29031.1
40973.6,29035.2
40981.8,29040.2
40989.6,29046
40996.8,29052.5
41003.2,29059.6
41009,29067.4
41014,29075.6
41018.1,29084.4
41021.4,29093.5
41023.7,29102.8
41025.1,29112.4
41025.6,29122
41025.6,29378
41025.1,29387.6
41023.7,29397.2
41021.4,29406.5
41018.1,29415.6
41014,29424.4
41009,29432.6
41003.2,29440.4
40996.8,29447.5
40989.6,29454
40981.8,29459.8
40973.6,29464.8
40964.8,29468.9
40955.7,29472.1
40946.4,29474.5
40936.8,29475.9
40927.2,29476.4
40572.8,29476.4
40563.2,29475.9
40553.6,29474.5
40544.3,29472.1
40535.2,29468.9
40526.4,29464.8
40518.2,29459.8
40510.4,29454
40503.2,29447.5
40496.8,29440.4
40491,29432.6
40486,29424.4
40481.9,29415.6
40478.6,29406.5
40476.3,29397.2
40474.9,29387.6
40474.4,29378
40474.4,29122
40474.9,29112.4
40476.3,29102.8
40478.6,29093.5
40481.9,29084.4
40486,29075.6
40491,29067.4
40496.8,29059.6
40503.2,29052.5
40510.4,29046
40518.2,29040.2
40526.4,29035.2
40535.2,29031.1
40544.3,29027.9
40553.6,29025.5
40563.2,29024.1
40572.8,29023.6
40927.2,29023.6
Z" /> 
<path style="fill:#840000; fill-opacity:1.0; 
stroke:#840000; stroke-width:0; stroke-opacity:1; 
stroke-linecap:round; stroke-linejoin:round;fill-rule:evenodd;"
d="M 40936.8,29831.2
40946.4,29832.6
40955.7,29834.9
40964.8,29838.2
40973.6,29842.3
40981.8,29847.3
40989.6,29853
40996.8,29859.5
41003.2,29866.7
41009,29874.5
41014,29882.7
41018.1,29891.5
41021.4,29900.6
41023.7,29909.9
41025.1,29919.5
41025.6,29929.1
41025.6,30185
41025.1,30194.7
41023.7,30204.2
41021.4,30213.6
41018.1,30222.7
41014,30231.4
41009,30239.7
41003.2,30247.5
40996.8,30254.6
40989.6,30261.1
40981.8,30266.9
40973.6,30271.8
40964.8,30276
40955.7,30279.2
40946.4,30281.6
40936.8,30283
40927.2,30283.5
40572.8,30283.5
40563.2,30283
40553.6,30281.6
40544.3,30279.2
40535.2,30276
40526.4,30271.8
40518.2,30266.9
40510.4,30261.1
40503.2,30254.6
40496.8,30247.5
40491,30239.7
40486,30231.4
40481.9,30222.7
40478.6,30213.6
40476.3,30204.2
40474.9,30194.7
40474.4,30185
40474.4,29929.1
40474.9,29919.5
40476.3,29909.9
40478.6,29900.6
40481.9,29891.5
40486,29882.7
40491,29874.5
40496.8,29866.7
40503.2,29859.5
40510.4,29853
40518.2,29847.3
40526.4,29842.3
40535.2,29838.2
40544.3,29834.9
40553.6,29832.6
40563.2,29831.2
40572.8,29830.7
40927.2,29830.7
Z" /> 
</g>
<g >
</g>
<g >
</g>
<g >
</g>
</g>
<g style="fill:#000000; fill-opacity:1.0; 
stroke:#000000; stroke-width:0; stroke-opacity:1; 
stroke-linecap:round; stroke-linejoin:round;">
</g>
<g style="fill:#C2C200; fill-opacity:1.0; 
stroke:#C2C200; stroke-width:0; stroke-opacity:1; 
stroke-linecap:round; stroke-linejoin:round;">
</g>
<g style="fill:#C2C200; fill-opacity:0.0; 
stroke:#C2C200; stroke-width:78.7402; stroke-opacity:1; 
stroke-linecap:round; stroke-linejoin:round;">
<path d="M51750 37250 A1181.1 1181.1 0.0 0 0 52931.1 36068.9" />
<path d="M52931.1 22289.4 A1181.1 1181.1 0.0 0 0 51750 21108.3" />
<path d="M36789.4 36068.9 A1181.1 1181.1 0.0 0 0 37970.5 37250" />
<path d="M37970 21108
L51750 21108
" />
<path d="M52931 22289
L52931 36068
" />
<path d="M36789 36068
L36789 22289
" />
<path d="M37970.5 21108.3 A1181.1 1181.1 0.0 0 0 36789.4 22289.4" />
<path d="M51750 37250
L37970 37250
" />
<g >
</g>
<g >
</g>
<g >
</g>
<g >
</g>
<g >
</g>
<g >
</g>
<g >
</g>
<g >
</g>
<g >
</g>
<g >
</g>
<g >
</g>
<g >
</g>
<g >
</g>
<g >
</g>
<g >
</g>
<g >
</g>
<g >
</g>
<g >
</g>
<g >
</g>
<g >
</g>
<g >
</g>
<g >
</g>
<g >
</g>
<g >
</g>
<g >
</g>
<g >
</g>
</g> 
</svg>
