%TF.GenerationSoftware,KiCad,Pcbnew,(5.1.9)-1*%
%TF.CreationDate,2021-06-05T23:50:19+09:00*%
%TF.ProjectId,universal_power_board,756e6976-6572-4736-916c-5f706f776572,rev?*%
%TF.SameCoordinates,Original*%
%TF.FileFunction,Copper,L1,Top*%
%TF.FilePolarity,Positive*%
%FSLAX46Y46*%
G04 Gerber Fmt 4.6, Leading zero omitted, Abs format (unit mm)*
G04 Created by KiCad (PCBNEW (5.1.9)-1) date 2021-06-05 23:50:19*
%MOMM*%
%LPD*%
G01*
G04 APERTURE LIST*
%TA.AperFunction,NonConductor*%
%ADD10C,0.100000*%
%TD*%
%TA.AperFunction,ComponentPad*%
%ADD11C,5.700000*%
%TD*%
%TA.AperFunction,SMDPad,CuDef*%
%ADD12R,1.270000X2.159000*%
%TD*%
%TA.AperFunction,SMDPad,CuDef*%
%ADD13R,2.159000X1.270000*%
%TD*%
%TA.AperFunction,SMDPad,CuDef*%
%ADD14R,1.270000X2.659000*%
%TD*%
%TA.AperFunction,SMDPad,CuDef*%
%ADD15R,2.659000X1.270000*%
%TD*%
%TA.AperFunction,SMDPad,CuDef*%
%ADD16R,1.730000X4.320000*%
%TD*%
%TA.AperFunction,SMDPad,CuDef*%
%ADD17R,3.720000X2.030000*%
%TD*%
%TA.AperFunction,SMDPad,CuDef*%
%ADD18R,4.020000X2.030000*%
%TD*%
%TA.AperFunction,ComponentPad*%
%ADD19C,4.000000*%
%TD*%
%TA.AperFunction,ComponentPad*%
%ADD20R,3.800000X3.800000*%
%TD*%
%TA.AperFunction,ComponentPad*%
%ADD21O,1.200000X1.750000*%
%TD*%
%TA.AperFunction,ComponentPad*%
%ADD22O,1.750000X1.200000*%
%TD*%
%TA.AperFunction,ComponentPad*%
%ADD23C,3.800000*%
%TD*%
%TA.AperFunction,ViaPad*%
%ADD24C,0.800000*%
%TD*%
%TA.AperFunction,Conductor*%
%ADD25C,4.000000*%
%TD*%
%TA.AperFunction,Conductor*%
%ADD26C,1.000000*%
%TD*%
%TA.AperFunction,Conductor*%
%ADD27C,0.250000*%
%TD*%
%TA.AperFunction,Conductor*%
%ADD28C,0.254000*%
%TD*%
%TA.AperFunction,Conductor*%
%ADD29C,0.100000*%
%TD*%
G04 APERTURE END LIST*
D10*
G36*
X129379980Y-85217000D02*
G01*
X125384560Y-85120480D01*
X126753620Y-67899280D01*
X129443480Y-65742820D01*
X129379980Y-85217000D01*
G37*
X129379980Y-85217000D02*
X125384560Y-85120480D01*
X126753620Y-67899280D01*
X129443480Y-65742820D01*
X129379980Y-85217000D01*
G36*
X130703320Y-64942720D02*
G01*
X127238760Y-68480940D01*
X129951480Y-71412100D01*
X126779020Y-74609960D01*
X126949200Y-75674220D01*
X129806700Y-78557120D01*
X126705360Y-81754980D01*
X129928620Y-85242400D01*
X125882400Y-85460840D01*
X121231660Y-90426540D01*
X120456960Y-90307160D01*
X118252240Y-88247220D01*
X114546380Y-88343740D01*
X114424460Y-90766900D01*
X111881920Y-88320880D01*
X107035600Y-88440260D01*
X105704640Y-90063320D01*
X105727500Y-88320880D01*
X121206260Y-87909400D01*
X123921520Y-85145880D01*
X123944380Y-78145640D01*
X122298460Y-76547980D01*
X119705120Y-76426060D01*
X119753380Y-72080120D01*
X122565160Y-71958200D01*
X123774200Y-70479920D01*
X123992640Y-67792600D01*
X126949200Y-64871600D01*
X130703320Y-64942720D01*
G37*
X130703320Y-64942720D02*
X127238760Y-68480940D01*
X129951480Y-71412100D01*
X126779020Y-74609960D01*
X126949200Y-75674220D01*
X129806700Y-78557120D01*
X126705360Y-81754980D01*
X129928620Y-85242400D01*
X125882400Y-85460840D01*
X121231660Y-90426540D01*
X120456960Y-90307160D01*
X118252240Y-88247220D01*
X114546380Y-88343740D01*
X114424460Y-90766900D01*
X111881920Y-88320880D01*
X107035600Y-88440260D01*
X105704640Y-90063320D01*
X105727500Y-88320880D01*
X121206260Y-87909400D01*
X123921520Y-85145880D01*
X123944380Y-78145640D01*
X122298460Y-76547980D01*
X119705120Y-76426060D01*
X119753380Y-72080120D01*
X122565160Y-71958200D01*
X123774200Y-70479920D01*
X123992640Y-67792600D01*
X126949200Y-64871600D01*
X130703320Y-64942720D01*
G36*
X129415540Y-85359240D02*
G01*
X125430280Y-89428320D01*
X106103420Y-89428320D01*
X107094020Y-88237060D01*
X120807480Y-88308180D01*
X124152660Y-85272880D01*
X129415540Y-85359240D01*
G37*
X129415540Y-85359240D02*
X125430280Y-89428320D01*
X106103420Y-89428320D01*
X107094020Y-88237060D01*
X120807480Y-88308180D01*
X124152660Y-85272880D01*
X129415540Y-85359240D01*
G36*
X109621320Y-71038720D02*
G01*
X109639100Y-72966580D01*
X108386880Y-72984360D01*
X108427520Y-71031100D01*
X109621320Y-71038720D01*
G37*
X109621320Y-71038720D02*
X109639100Y-72966580D01*
X108386880Y-72984360D01*
X108427520Y-71031100D01*
X109621320Y-71038720D01*
G36*
X106680000Y-64135000D02*
G01*
X106680000Y-69215000D01*
X109220000Y-71755000D01*
X107315000Y-74295000D01*
X103505000Y-74295000D01*
X101600000Y-72390000D01*
X97790000Y-73025000D01*
X97790000Y-69850000D01*
X104775000Y-62865000D01*
X107315000Y-62865000D01*
X106680000Y-64135000D01*
G37*
X106680000Y-64135000D02*
X106680000Y-69215000D01*
X109220000Y-71755000D01*
X107315000Y-74295000D01*
X103505000Y-74295000D01*
X101600000Y-72390000D01*
X97790000Y-73025000D01*
X97790000Y-69850000D01*
X104775000Y-62865000D01*
X107315000Y-62865000D01*
X106680000Y-64135000D01*
D11*
%TO.P,H3,1*%
%TO.N,N/C*%
X96445001Y-56615001D03*
%TD*%
D12*
%TO.P,U1,3*%
%TO.N,GND*%
X117338670Y-71005300D03*
X114870670Y-71005300D03*
D13*
%TO.P,U1,4*%
%TO.N,+5V*%
X120519000Y-72005000D03*
D12*
%TO.P,U1,2*%
%TO.N,+BATT*%
X112759058Y-71005300D03*
D13*
X109388560Y-72005000D03*
D14*
%TO.P,U1,12*%
%TO.N,Net-(U1-Pad12)*%
X117245130Y-81889410D03*
D15*
%TO.P,U1,11*%
%TO.N,Net-(U1-Pad11)*%
X120269000Y-78863000D03*
%TO.P,U1,10*%
%TO.N,Net-(U1-Pad10)*%
X109638560Y-78863000D03*
%TO.P,U1,9*%
%TO.N,Net-(U1-Pad9)*%
X109638560Y-81153000D03*
D14*
%TO.P,U1,8*%
%TO.N,Net-(U1-Pad8)*%
X112675130Y-81889410D03*
%TO.P,U1,7*%
%TO.N,GND*%
X114965130Y-81889410D03*
D15*
%TO.P,U1,6*%
%TO.N,Net-(R4-Pad1)*%
X120269000Y-81153000D03*
%TO.P,U1,5*%
%TO.N,+5V*%
X120269000Y-76573000D03*
D16*
%TO.P,U1,4*%
X119685130Y-73143000D03*
D17*
%TO.P,U1,3*%
%TO.N,GND*%
X116105130Y-72003000D03*
D18*
%TO.P,U1,2*%
%TO.N,+BATT*%
X111375130Y-72003000D03*
D15*
%TO.P,U1,1*%
%TO.N,GND*%
X109638560Y-76573000D03*
%TD*%
%TO.P,R5,2*%
%TO.N,GND*%
%TA.AperFunction,SMDPad,CuDef*%
G36*
G01*
X111231500Y-67326500D02*
X111231500Y-67801500D01*
G75*
G02*
X110994000Y-68039000I-237500J0D01*
G01*
X110494000Y-68039000D01*
G75*
G02*
X110256500Y-67801500I0J237500D01*
G01*
X110256500Y-67326500D01*
G75*
G02*
X110494000Y-67089000I237500J0D01*
G01*
X110994000Y-67089000D01*
G75*
G02*
X111231500Y-67326500I0J-237500D01*
G01*
G37*
%TD.AperFunction*%
%TO.P,R5,1*%
%TO.N,Net-(D1-Pad1)*%
%TA.AperFunction,SMDPad,CuDef*%
G36*
G01*
X113056500Y-67326500D02*
X113056500Y-67801500D01*
G75*
G02*
X112819000Y-68039000I-237500J0D01*
G01*
X112319000Y-68039000D01*
G75*
G02*
X112081500Y-67801500I0J237500D01*
G01*
X112081500Y-67326500D01*
G75*
G02*
X112319000Y-67089000I237500J0D01*
G01*
X112819000Y-67089000D01*
G75*
G02*
X113056500Y-67326500I0J-237500D01*
G01*
G37*
%TD.AperFunction*%
%TD*%
%TO.P,R4,2*%
%TO.N,GND*%
%TA.AperFunction,SMDPad,CuDef*%
G36*
G01*
X118931500Y-85106500D02*
X118931500Y-85581500D01*
G75*
G02*
X118694000Y-85819000I-237500J0D01*
G01*
X118194000Y-85819000D01*
G75*
G02*
X117956500Y-85581500I0J237500D01*
G01*
X117956500Y-85106500D01*
G75*
G02*
X118194000Y-84869000I237500J0D01*
G01*
X118694000Y-84869000D01*
G75*
G02*
X118931500Y-85106500I0J-237500D01*
G01*
G37*
%TD.AperFunction*%
%TO.P,R4,1*%
%TO.N,Net-(R4-Pad1)*%
%TA.AperFunction,SMDPad,CuDef*%
G36*
G01*
X120756500Y-85106500D02*
X120756500Y-85581500D01*
G75*
G02*
X120519000Y-85819000I-237500J0D01*
G01*
X120019000Y-85819000D01*
G75*
G02*
X119781500Y-85581500I0J237500D01*
G01*
X119781500Y-85106500D01*
G75*
G02*
X120019000Y-84869000I237500J0D01*
G01*
X120519000Y-84869000D01*
G75*
G02*
X120756500Y-85106500I0J-237500D01*
G01*
G37*
%TD.AperFunction*%
%TD*%
%TO.P,R3,2*%
%TO.N,GND*%
%TA.AperFunction,SMDPad,CuDef*%
G36*
G01*
X120924500Y-67801500D02*
X120924500Y-67326500D01*
G75*
G02*
X121162000Y-67089000I237500J0D01*
G01*
X121662000Y-67089000D01*
G75*
G02*
X121899500Y-67326500I0J-237500D01*
G01*
X121899500Y-67801500D01*
G75*
G02*
X121662000Y-68039000I-237500J0D01*
G01*
X121162000Y-68039000D01*
G75*
G02*
X120924500Y-67801500I0J237500D01*
G01*
G37*
%TD.AperFunction*%
%TO.P,R3,1*%
%TO.N,+5V*%
%TA.AperFunction,SMDPad,CuDef*%
G36*
G01*
X119099500Y-67801500D02*
X119099500Y-67326500D01*
G75*
G02*
X119337000Y-67089000I237500J0D01*
G01*
X119837000Y-67089000D01*
G75*
G02*
X120074500Y-67326500I0J-237500D01*
G01*
X120074500Y-67801500D01*
G75*
G02*
X119837000Y-68039000I-237500J0D01*
G01*
X119337000Y-68039000D01*
G75*
G02*
X119099500Y-67801500I0J237500D01*
G01*
G37*
%TD.AperFunction*%
%TD*%
%TO.P,R2,1*%
%TO.N,Net-(J1-Pad2)*%
%TA.AperFunction,SMDPad,CuDef*%
G36*
G01*
X105897500Y-78502500D02*
X105897500Y-78977500D01*
G75*
G02*
X105660000Y-79215000I-237500J0D01*
G01*
X105160000Y-79215000D01*
G75*
G02*
X104922500Y-78977500I0J237500D01*
G01*
X104922500Y-78502500D01*
G75*
G02*
X105160000Y-78265000I237500J0D01*
G01*
X105660000Y-78265000D01*
G75*
G02*
X105897500Y-78502500I0J-237500D01*
G01*
G37*
%TD.AperFunction*%
%TO.P,R2,2*%
%TO.N,GND*%
%TA.AperFunction,SMDPad,CuDef*%
G36*
G01*
X104072500Y-78502500D02*
X104072500Y-78977500D01*
G75*
G02*
X103835000Y-79215000I-237500J0D01*
G01*
X103335000Y-79215000D01*
G75*
G02*
X103097500Y-78977500I0J237500D01*
G01*
X103097500Y-78502500D01*
G75*
G02*
X103335000Y-78265000I237500J0D01*
G01*
X103835000Y-78265000D01*
G75*
G02*
X104072500Y-78502500I0J-237500D01*
G01*
G37*
%TD.AperFunction*%
%TD*%
%TO.P,R1,1*%
%TO.N,+BATT*%
%TA.AperFunction,SMDPad,CuDef*%
G36*
G01*
X105426500Y-73807500D02*
X105901500Y-73807500D01*
G75*
G02*
X106139000Y-74045000I0J-237500D01*
G01*
X106139000Y-74545000D01*
G75*
G02*
X105901500Y-74782500I-237500J0D01*
G01*
X105426500Y-74782500D01*
G75*
G02*
X105189000Y-74545000I0J237500D01*
G01*
X105189000Y-74045000D01*
G75*
G02*
X105426500Y-73807500I237500J0D01*
G01*
G37*
%TD.AperFunction*%
%TO.P,R1,2*%
%TO.N,Net-(J1-Pad2)*%
%TA.AperFunction,SMDPad,CuDef*%
G36*
G01*
X105426500Y-75632500D02*
X105901500Y-75632500D01*
G75*
G02*
X106139000Y-75870000I0J-237500D01*
G01*
X106139000Y-76370000D01*
G75*
G02*
X105901500Y-76607500I-237500J0D01*
G01*
X105426500Y-76607500D01*
G75*
G02*
X105189000Y-76370000I0J237500D01*
G01*
X105189000Y-75870000D01*
G75*
G02*
X105426500Y-75632500I237500J0D01*
G01*
G37*
%TD.AperFunction*%
%TD*%
D19*
%TO.P,J12,2*%
%TO.N,+BATT*%
X123705000Y-61642000D03*
D20*
%TO.P,J12,1*%
%TO.N,GND*%
X123705000Y-56642000D03*
%TD*%
D19*
%TO.P,J11,2*%
%TO.N,+BATT*%
X117355000Y-61642000D03*
D20*
%TO.P,J11,1*%
%TO.N,GND*%
X117355000Y-56642000D03*
%TD*%
D21*
%TO.P,J10,2*%
%TO.N,GND*%
X123376440Y-91191080D03*
%TO.P,J10,1*%
%TO.N,+5V*%
%TA.AperFunction,ComponentPad*%
G36*
G01*
X120776440Y-91816081D02*
X120776440Y-90566079D01*
G75*
G02*
X121026439Y-90316080I249999J0D01*
G01*
X121726441Y-90316080D01*
G75*
G02*
X121976440Y-90566079I0J-249999D01*
G01*
X121976440Y-91816081D01*
G75*
G02*
X121726441Y-92066080I-249999J0D01*
G01*
X121026439Y-92066080D01*
G75*
G02*
X120776440Y-91816081I0J249999D01*
G01*
G37*
%TD.AperFunction*%
%TD*%
%TO.P,J9,2*%
%TO.N,GND*%
X116457480Y-91180920D03*
%TO.P,J9,1*%
%TO.N,+5V*%
%TA.AperFunction,ComponentPad*%
G36*
G01*
X113857480Y-91805921D02*
X113857480Y-90555919D01*
G75*
G02*
X114107479Y-90305920I249999J0D01*
G01*
X114807481Y-90305920D01*
G75*
G02*
X115057480Y-90555919I0J-249999D01*
G01*
X115057480Y-91805921D01*
G75*
G02*
X114807481Y-92055920I-249999J0D01*
G01*
X114107479Y-92055920D01*
G75*
G02*
X113857480Y-91805921I0J249999D01*
G01*
G37*
%TD.AperFunction*%
%TD*%
D22*
%TO.P,J8,2*%
%TO.N,GND*%
X131028440Y-83488780D03*
%TO.P,J8,1*%
%TO.N,+5V*%
%TA.AperFunction,ComponentPad*%
G36*
G01*
X131653441Y-86088780D02*
X130403439Y-86088780D01*
G75*
G02*
X130153440Y-85838781I0J249999D01*
G01*
X130153440Y-85138779D01*
G75*
G02*
X130403439Y-84888780I249999J0D01*
G01*
X131653441Y-84888780D01*
G75*
G02*
X131903440Y-85138779I0J-249999D01*
G01*
X131903440Y-85838781D01*
G75*
G02*
X131653441Y-86088780I-249999J0D01*
G01*
G37*
%TD.AperFunction*%
%TD*%
%TO.P,J7,2*%
%TO.N,GND*%
X131038600Y-76549500D03*
%TO.P,J7,1*%
%TO.N,+5V*%
%TA.AperFunction,ComponentPad*%
G36*
G01*
X131663601Y-79149500D02*
X130413599Y-79149500D01*
G75*
G02*
X130163600Y-78899501I0J249999D01*
G01*
X130163600Y-78199499D01*
G75*
G02*
X130413599Y-77949500I249999J0D01*
G01*
X131663601Y-77949500D01*
G75*
G02*
X131913600Y-78199499I0J-249999D01*
G01*
X131913600Y-78899501D01*
G75*
G02*
X131663601Y-79149500I-249999J0D01*
G01*
G37*
%TD.AperFunction*%
%TD*%
D19*
%TO.P,J6,2*%
%TO.N,+BATT*%
X111005000Y-61642000D03*
D20*
%TO.P,J6,1*%
%TO.N,GND*%
X111005000Y-56642000D03*
%TD*%
D22*
%TO.P,J5,2*%
%TO.N,GND*%
X131030980Y-69633080D03*
%TO.P,J5,1*%
%TO.N,+5V*%
%TA.AperFunction,ComponentPad*%
G36*
G01*
X131655981Y-72233080D02*
X130405979Y-72233080D01*
G75*
G02*
X130155980Y-71983081I0J249999D01*
G01*
X130155980Y-71283079D01*
G75*
G02*
X130405979Y-71033080I249999J0D01*
G01*
X131655981Y-71033080D01*
G75*
G02*
X131905980Y-71283079I0J-249999D01*
G01*
X131905980Y-71983081D01*
G75*
G02*
X131655981Y-72233080I-249999J0D01*
G01*
G37*
%TD.AperFunction*%
%TD*%
%TO.P,J4,2*%
%TO.N,GND*%
X131030980Y-62721740D03*
%TO.P,J4,1*%
%TO.N,+5V*%
%TA.AperFunction,ComponentPad*%
G36*
G01*
X131655981Y-65321740D02*
X130405979Y-65321740D01*
G75*
G02*
X130155980Y-65071741I0J249999D01*
G01*
X130155980Y-64371739D01*
G75*
G02*
X130405979Y-64121740I249999J0D01*
G01*
X131655981Y-64121740D01*
G75*
G02*
X131905980Y-64371739I0J-249999D01*
G01*
X131905980Y-65071741D01*
G75*
G02*
X131655981Y-65321740I-249999J0D01*
G01*
G37*
%TD.AperFunction*%
%TD*%
D19*
%TO.P,J3,2*%
%TO.N,+BATT*%
X104648000Y-61642000D03*
D20*
%TO.P,J3,1*%
%TO.N,GND*%
X104648000Y-56642000D03*
%TD*%
D23*
%TO.P,J2,2*%
%TO.N,+BATT*%
X96520000Y-72644000D03*
D20*
%TO.P,J2,1*%
%TO.N,GND*%
X96520000Y-77644000D03*
%TD*%
D21*
%TO.P,J1,3*%
%TO.N,GND*%
X109564940Y-91180920D03*
%TO.P,J1,2*%
%TO.N,Net-(J1-Pad2)*%
X107564940Y-91180920D03*
%TO.P,J1,1*%
%TO.N,+5V*%
%TA.AperFunction,ComponentPad*%
G36*
G01*
X104964940Y-91805921D02*
X104964940Y-90555919D01*
G75*
G02*
X105214939Y-90305920I249999J0D01*
G01*
X105914941Y-90305920D01*
G75*
G02*
X106164940Y-90555919I0J-249999D01*
G01*
X106164940Y-91805921D01*
G75*
G02*
X105914941Y-92055920I-249999J0D01*
G01*
X105214939Y-92055920D01*
G75*
G02*
X104964940Y-91805921I0J249999D01*
G01*
G37*
%TD.AperFunction*%
%TD*%
D11*
%TO.P,H4,1*%
%TO.N,N/C*%
X131445000Y-91615000D03*
%TD*%
%TO.P,H2,1*%
%TO.N,N/C*%
X131445000Y-56615001D03*
%TD*%
%TO.P,H1,1*%
%TO.N,N/C*%
X96445001Y-91615000D03*
%TD*%
%TO.P,D1,2*%
%TO.N,+5V*%
%TA.AperFunction,SMDPad,CuDef*%
G36*
G01*
X116414000Y-67801500D02*
X116414000Y-67326500D01*
G75*
G02*
X116651500Y-67089000I237500J0D01*
G01*
X117226500Y-67089000D01*
G75*
G02*
X117464000Y-67326500I0J-237500D01*
G01*
X117464000Y-67801500D01*
G75*
G02*
X117226500Y-68039000I-237500J0D01*
G01*
X116651500Y-68039000D01*
G75*
G02*
X116414000Y-67801500I0J237500D01*
G01*
G37*
%TD.AperFunction*%
%TO.P,D1,1*%
%TO.N,Net-(D1-Pad1)*%
%TA.AperFunction,SMDPad,CuDef*%
G36*
G01*
X114664000Y-67801500D02*
X114664000Y-67326500D01*
G75*
G02*
X114901500Y-67089000I237500J0D01*
G01*
X115476500Y-67089000D01*
G75*
G02*
X115714000Y-67326500I0J-237500D01*
G01*
X115714000Y-67801500D01*
G75*
G02*
X115476500Y-68039000I-237500J0D01*
G01*
X114901500Y-68039000D01*
G75*
G02*
X114664000Y-67801500I0J237500D01*
G01*
G37*
%TD.AperFunction*%
%TD*%
%TO.P,C2,2*%
%TO.N,GND*%
%TA.AperFunction,SMDPad,CuDef*%
G36*
G01*
X120859000Y-69579500D02*
X120859000Y-69104500D01*
G75*
G02*
X121096500Y-68867000I237500J0D01*
G01*
X121671500Y-68867000D01*
G75*
G02*
X121909000Y-69104500I0J-237500D01*
G01*
X121909000Y-69579500D01*
G75*
G02*
X121671500Y-69817000I-237500J0D01*
G01*
X121096500Y-69817000D01*
G75*
G02*
X120859000Y-69579500I0J237500D01*
G01*
G37*
%TD.AperFunction*%
%TO.P,C2,1*%
%TO.N,+5V*%
%TA.AperFunction,SMDPad,CuDef*%
G36*
G01*
X119109000Y-69579500D02*
X119109000Y-69104500D01*
G75*
G02*
X119346500Y-68867000I237500J0D01*
G01*
X119921500Y-68867000D01*
G75*
G02*
X120159000Y-69104500I0J-237500D01*
G01*
X120159000Y-69579500D01*
G75*
G02*
X119921500Y-69817000I-237500J0D01*
G01*
X119346500Y-69817000D01*
G75*
G02*
X119109000Y-69579500I0J237500D01*
G01*
G37*
%TD.AperFunction*%
%TD*%
%TO.P,C1,1*%
%TO.N,+BATT*%
%TA.AperFunction,SMDPad,CuDef*%
G36*
G01*
X103054999Y-73720000D02*
X103955001Y-73720000D01*
G75*
G02*
X104205000Y-73969999I0J-249999D01*
G01*
X104205000Y-74620001D01*
G75*
G02*
X103955001Y-74870000I-249999J0D01*
G01*
X103054999Y-74870000D01*
G75*
G02*
X102805000Y-74620001I0J249999D01*
G01*
X102805000Y-73969999D01*
G75*
G02*
X103054999Y-73720000I249999J0D01*
G01*
G37*
%TD.AperFunction*%
%TO.P,C1,2*%
%TO.N,GND*%
%TA.AperFunction,SMDPad,CuDef*%
G36*
G01*
X103054999Y-75770000D02*
X103955001Y-75770000D01*
G75*
G02*
X104205000Y-76019999I0J-249999D01*
G01*
X104205000Y-76670001D01*
G75*
G02*
X103955001Y-76920000I-249999J0D01*
G01*
X103054999Y-76920000D01*
G75*
G02*
X102805000Y-76670001I0J249999D01*
G01*
X102805000Y-76019999D01*
G75*
G02*
X103054999Y-75770000I249999J0D01*
G01*
G37*
%TD.AperFunction*%
%TD*%
D24*
%TO.N,GND*%
X112920780Y-75250040D03*
X114825780Y-75250040D03*
X116730780Y-75250040D03*
X116730780Y-77155040D03*
X114825780Y-77155040D03*
X112920780Y-77155040D03*
X112920780Y-79060040D03*
X114825780Y-79060040D03*
X116730780Y-79060040D03*
%TO.N,+BATT*%
X102870000Y-66040000D03*
X100965000Y-66040000D03*
X100965000Y-67945000D03*
X100965000Y-64135000D03*
X102870000Y-64135000D03*
X99060000Y-69850000D03*
X99060000Y-67945000D03*
X99060000Y-66040000D03*
X97155000Y-67945000D03*
X97155000Y-69850000D03*
X104775000Y-64135000D03*
X106680000Y-64135000D03*
X104775000Y-69850000D03*
X102870000Y-71755000D03*
X104775000Y-71755000D03*
X100965000Y-71755000D03*
X100965000Y-69850000D03*
X102870000Y-69850000D03*
X102870000Y-67945000D03*
X104775000Y-67945000D03*
X104775000Y-66040000D03*
X106680000Y-66040000D03*
X106680000Y-67945000D03*
X106680000Y-69850000D03*
X106680000Y-71755000D03*
%TO.N,+5V*%
X126730000Y-69850000D03*
X124825000Y-69850000D03*
X124825000Y-67945000D03*
X126730000Y-67945000D03*
X126730000Y-71755000D03*
X124825000Y-71755000D03*
X124825000Y-73660000D03*
X126730000Y-73660000D03*
X124825000Y-77470000D03*
X124825000Y-81280000D03*
X126730000Y-81280000D03*
X126730000Y-79375000D03*
X124825000Y-79375000D03*
X126730000Y-77470000D03*
X126730000Y-75565000D03*
X124825000Y-75565000D03*
X124825000Y-83185000D03*
X126730000Y-83185000D03*
X126730000Y-85090000D03*
X124825000Y-85090000D03*
%TD*%
D25*
%TO.N,GND*%
X123825000Y-56642000D02*
X104648000Y-56642000D01*
D26*
%TO.N,+BATT*%
X101854000Y-72644000D02*
X103505000Y-74295000D01*
X103505000Y-74295000D02*
X105664000Y-74295000D01*
X107098560Y-74295000D02*
X109388560Y-72005000D01*
X105664000Y-74295000D02*
X107098560Y-74295000D01*
X96520000Y-72644000D02*
X101854000Y-72644000D01*
X106680000Y-69296440D02*
X109388560Y-72005000D01*
X106680000Y-64135000D02*
X106680000Y-69296440D01*
X111125000Y-61642000D02*
X109173000Y-61642000D01*
D25*
X96520000Y-69770000D02*
X104648000Y-61642000D01*
X96520000Y-72644000D02*
X96520000Y-69770000D01*
D26*
X102870000Y-67945000D02*
X102870000Y-66040000D01*
X102870000Y-66040000D02*
X104775000Y-66040000D01*
X104775000Y-66040000D02*
X104775000Y-69850000D01*
X101470460Y-67945000D02*
X100965000Y-67945000D01*
X102870000Y-69344540D02*
X101470460Y-67945000D01*
X100965000Y-67945000D02*
X100965000Y-69850000D01*
X102870000Y-69850000D02*
X102870000Y-68531740D01*
X102870000Y-68531740D02*
X102870000Y-69344540D01*
X102870000Y-67945000D02*
X102870000Y-68531740D01*
X109173000Y-61642000D02*
X106680000Y-64135000D01*
D25*
X104648000Y-61642000D02*
X123705000Y-61642000D01*
D27*
%TO.N,+5V*%
X116939000Y-67564000D02*
X119587000Y-67564000D01*
X119587000Y-73044870D02*
X119685130Y-73143000D01*
X119587000Y-67564000D02*
X119587000Y-73044870D01*
X120519000Y-72309130D02*
X119685130Y-73143000D01*
X120519000Y-72005000D02*
X120519000Y-72309130D01*
D26*
X123825000Y-77799500D02*
X123825000Y-85090000D01*
X122598500Y-76573000D02*
X123825000Y-77799500D01*
X120269000Y-76573000D02*
X122598500Y-76573000D01*
X119685130Y-75989130D02*
X120269000Y-76573000D01*
X119685130Y-73143000D02*
X119685130Y-75989130D01*
X123825000Y-70778500D02*
X122598500Y-72005000D01*
X122598500Y-72005000D02*
X120519000Y-72005000D01*
X123825000Y-67945000D02*
X123825000Y-70778500D01*
X127048260Y-64721740D02*
X123825000Y-67945000D01*
X131030980Y-64721740D02*
X127048260Y-64721740D01*
X126851920Y-71633080D02*
X126730000Y-71755000D01*
X124575000Y-78549500D02*
X123825000Y-77799500D01*
X131038600Y-78549500D02*
X124575000Y-78549500D01*
X124223780Y-85488780D02*
X123825000Y-85090000D01*
X126730000Y-69022720D02*
X131030980Y-64721740D01*
X126730000Y-82065340D02*
X126730000Y-76768200D01*
X130153440Y-85488780D02*
X126730000Y-82065340D01*
X131028440Y-85488780D02*
X130153440Y-85488780D01*
X126730000Y-75115900D02*
X126730000Y-73483980D01*
X130163600Y-78549500D02*
X126730000Y-75115900D01*
X131038600Y-78549500D02*
X130163600Y-78549500D01*
X126730000Y-73483980D02*
X126730000Y-69022720D01*
X129776220Y-78549500D02*
X126730000Y-81595720D01*
X131038600Y-78549500D02*
X129776220Y-78549500D01*
X126730000Y-81595720D02*
X126730000Y-76768200D01*
X126730000Y-85090000D02*
X126730000Y-81595720D01*
X126730000Y-74465940D02*
X126730000Y-73483980D01*
X126730000Y-76768200D02*
X126730000Y-74465940D01*
X105564940Y-90305920D02*
X107605860Y-88265000D01*
X105564940Y-91180920D02*
X105564940Y-90305920D01*
X114457480Y-88325960D02*
X114396520Y-88265000D01*
X114457480Y-91180920D02*
X114457480Y-88325960D01*
X122722640Y-86192360D02*
X123825000Y-85090000D01*
X121376440Y-87538560D02*
X122722640Y-86192360D01*
X121376440Y-91191080D02*
X121376440Y-87538560D01*
X120650000Y-88265000D02*
X123825000Y-85090000D01*
X118790720Y-88605360D02*
X118790720Y-88265000D01*
X121376440Y-91191080D02*
X118790720Y-88605360D01*
X118790720Y-88265000D02*
X120650000Y-88265000D01*
X111541560Y-88265000D02*
X111439960Y-88265000D01*
X114457480Y-91180920D02*
X111541560Y-88265000D01*
X111439960Y-88265000D02*
X114396520Y-88265000D01*
X107605860Y-88265000D02*
X111439960Y-88265000D01*
X105564940Y-91180920D02*
X105564940Y-88859360D01*
X106159300Y-88265000D02*
X107605860Y-88265000D01*
X105564940Y-88859360D02*
X106159300Y-88265000D01*
X126203740Y-85488780D02*
X126598680Y-85488780D01*
X121376440Y-90316080D02*
X126203740Y-85488780D01*
X121376440Y-91191080D02*
X121376440Y-90316080D01*
X126598680Y-85488780D02*
X124223780Y-85488780D01*
X131028440Y-85488780D02*
X126598680Y-85488780D01*
X114396520Y-88265000D02*
X118790720Y-88265000D01*
X131030980Y-71633080D02*
X130418080Y-71633080D01*
X131030980Y-71633080D02*
X129562860Y-71633080D01*
X129562860Y-71633080D02*
X126730000Y-74465940D01*
X131030980Y-71633080D02*
X126851920Y-71633080D01*
X130418080Y-71633080D02*
X126730000Y-67945000D01*
D27*
%TO.N,Net-(D1-Pad1)*%
X115189000Y-67564000D02*
X112569000Y-67564000D01*
%TO.N,Net-(J1-Pad2)*%
X105410000Y-76374000D02*
X105664000Y-76120000D01*
X105410000Y-78740000D02*
X105410000Y-76374000D01*
X102141020Y-82008980D02*
X105410000Y-78740000D01*
X107564940Y-92305920D02*
X106906860Y-92964000D01*
X107564940Y-91180920D02*
X107564940Y-92305920D01*
X106906860Y-92964000D02*
X103291640Y-92964000D01*
X102141020Y-91813380D02*
X102141020Y-88988900D01*
X103291640Y-92964000D02*
X102141020Y-91813380D01*
X102141020Y-88988900D02*
X102141020Y-82008980D01*
X102141020Y-89265760D02*
X102141020Y-88988900D01*
%TO.N,Net-(R4-Pad1)*%
X120269000Y-81153000D02*
X120269000Y-85344000D01*
%TD*%
D28*
%TO.N,GND*%
X128738024Y-54393443D02*
X128356633Y-54964235D01*
X128093927Y-55598464D01*
X127960000Y-56271759D01*
X127960000Y-56958243D01*
X128093927Y-57631538D01*
X128356633Y-58265767D01*
X128738024Y-58836559D01*
X129223442Y-59321977D01*
X129794234Y-59703368D01*
X130428463Y-59966074D01*
X131101758Y-60100001D01*
X131788242Y-60100001D01*
X132461537Y-59966074D01*
X133095766Y-59703368D01*
X133666558Y-59321977D01*
X133710000Y-59278535D01*
X133710001Y-88951467D01*
X133666558Y-88908024D01*
X133095766Y-88526633D01*
X132461537Y-88263927D01*
X131788242Y-88130000D01*
X131101758Y-88130000D01*
X130428463Y-88263927D01*
X129794234Y-88526633D01*
X129223442Y-88908024D01*
X128738024Y-89393442D01*
X128356633Y-89964234D01*
X128093927Y-90598463D01*
X127960000Y-91271758D01*
X127960000Y-91958242D01*
X128093927Y-92631537D01*
X128356633Y-93265766D01*
X128738024Y-93836558D01*
X128781466Y-93880000D01*
X99108535Y-93880000D01*
X99151977Y-93836558D01*
X99533368Y-93265766D01*
X99796074Y-92631537D01*
X99930001Y-91958242D01*
X99930001Y-91271758D01*
X99796074Y-90598463D01*
X99533368Y-89964234D01*
X99151977Y-89393442D01*
X98666559Y-88908024D01*
X98095767Y-88526633D01*
X97461538Y-88263927D01*
X96788243Y-88130000D01*
X96101759Y-88130000D01*
X95428464Y-88263927D01*
X94794235Y-88526633D01*
X94223443Y-88908024D01*
X94180001Y-88951466D01*
X94180001Y-73855939D01*
X94318477Y-74115010D01*
X94647759Y-74516241D01*
X95048989Y-74845523D01*
X95506750Y-75090201D01*
X96003450Y-75240873D01*
X96520000Y-75291749D01*
X97036549Y-75240873D01*
X97533249Y-75090201D01*
X97991010Y-74845523D01*
X98392241Y-74516241D01*
X98721523Y-74115011D01*
X98901124Y-73779000D01*
X101383869Y-73779000D01*
X102166928Y-74562060D01*
X102166928Y-74620001D01*
X102183992Y-74793255D01*
X102234528Y-74959851D01*
X102316595Y-75113387D01*
X102427038Y-75247962D01*
X102561613Y-75358405D01*
X102715149Y-75440472D01*
X102881745Y-75491008D01*
X103054999Y-75508072D01*
X103955001Y-75508072D01*
X104128255Y-75491008D01*
X104294851Y-75440472D01*
X104314443Y-75430000D01*
X104673664Y-75430000D01*
X104617577Y-75534933D01*
X104567752Y-75699184D01*
X104550928Y-75870000D01*
X104550928Y-76370000D01*
X104567752Y-76540816D01*
X104617577Y-76705067D01*
X104650001Y-76765728D01*
X104650000Y-77793821D01*
X104540877Y-77883377D01*
X104431988Y-78016058D01*
X104351077Y-78167433D01*
X104301252Y-78331684D01*
X104284428Y-78502500D01*
X104284428Y-78790770D01*
X101630018Y-81445181D01*
X101601020Y-81468979D01*
X101577222Y-81497977D01*
X101577221Y-81497978D01*
X101506046Y-81584704D01*
X101435474Y-81716734D01*
X101392018Y-81859995D01*
X101377344Y-82008980D01*
X101381021Y-82046312D01*
X101381020Y-88951567D01*
X101381020Y-89303092D01*
X101381021Y-89303101D01*
X101381020Y-91776057D01*
X101377344Y-91813380D01*
X101381020Y-91850702D01*
X101381020Y-91850712D01*
X101392017Y-91962365D01*
X101425856Y-92073918D01*
X101435474Y-92105626D01*
X101506046Y-92237656D01*
X101532120Y-92269427D01*
X101601019Y-92353381D01*
X101630022Y-92377183D01*
X102727845Y-93475008D01*
X102751639Y-93504001D01*
X102780632Y-93527795D01*
X102780636Y-93527799D01*
X102851325Y-93585811D01*
X102867364Y-93598974D01*
X102999393Y-93669546D01*
X103142654Y-93713003D01*
X103254307Y-93724000D01*
X103254316Y-93724000D01*
X103291639Y-93727676D01*
X103328962Y-93724000D01*
X106869538Y-93724000D01*
X106906860Y-93727676D01*
X106944182Y-93724000D01*
X106944193Y-93724000D01*
X107055846Y-93713003D01*
X107199107Y-93669546D01*
X107331136Y-93598974D01*
X107446861Y-93504001D01*
X107470663Y-93474998D01*
X108075942Y-92869720D01*
X108104941Y-92845921D01*
X108199914Y-92730196D01*
X108270486Y-92598167D01*
X108313943Y-92454906D01*
X108315660Y-92437469D01*
X108442442Y-92333422D01*
X108596773Y-92145369D01*
X108711451Y-91930820D01*
X108782070Y-91698021D01*
X108799940Y-91516584D01*
X108799940Y-90845255D01*
X108782070Y-90663818D01*
X108711451Y-90431019D01*
X108596773Y-90216471D01*
X108512119Y-90113320D01*
X111784748Y-90113320D01*
X113219408Y-91547981D01*
X113219408Y-91805921D01*
X113236472Y-91979175D01*
X113287008Y-92145771D01*
X113369075Y-92299307D01*
X113479518Y-92433882D01*
X113614093Y-92544325D01*
X113767629Y-92626392D01*
X113934225Y-92676928D01*
X114107479Y-92693992D01*
X114807481Y-92693992D01*
X114980735Y-92676928D01*
X115147331Y-92626392D01*
X115300867Y-92544325D01*
X115435442Y-92433882D01*
X115545885Y-92299307D01*
X115627952Y-92145771D01*
X115678488Y-91979175D01*
X115695552Y-91805921D01*
X115695552Y-90555919D01*
X115678488Y-90382665D01*
X115627952Y-90216069D01*
X115592480Y-90149706D01*
X115592480Y-90113320D01*
X118693549Y-90113320D01*
X120138368Y-91558140D01*
X120138368Y-91816081D01*
X120155432Y-91989335D01*
X120205968Y-92155931D01*
X120288035Y-92309467D01*
X120398478Y-92444042D01*
X120533053Y-92554485D01*
X120686589Y-92636552D01*
X120853185Y-92687088D01*
X121026439Y-92704152D01*
X121726441Y-92704152D01*
X121899695Y-92687088D01*
X122066291Y-92636552D01*
X122219827Y-92554485D01*
X122354402Y-92444042D01*
X122464845Y-92309467D01*
X122546912Y-92155931D01*
X122597448Y-91989335D01*
X122614512Y-91816081D01*
X122614512Y-90683139D01*
X123184331Y-90113320D01*
X125430280Y-90113320D01*
X125494762Y-90106997D01*
X125563287Y-90100283D01*
X125563310Y-90100276D01*
X125563331Y-90100274D01*
X125628071Y-90080728D01*
X125691272Y-90061651D01*
X125691292Y-90061640D01*
X125691313Y-90061634D01*
X125751867Y-90029437D01*
X125809315Y-89998896D01*
X125809332Y-89998882D01*
X125809353Y-89998871D01*
X125870950Y-89948634D01*
X125912922Y-89914407D01*
X125912948Y-89914381D01*
X125912954Y-89914376D01*
X125912960Y-89914369D01*
X125919662Y-89907621D01*
X129135858Y-86623780D01*
X129997226Y-86623780D01*
X130063589Y-86659252D01*
X130230185Y-86709788D01*
X130403439Y-86726852D01*
X131653441Y-86726852D01*
X131826695Y-86709788D01*
X131993291Y-86659252D01*
X132146827Y-86577185D01*
X132281402Y-86466742D01*
X132391845Y-86332167D01*
X132473912Y-86178631D01*
X132524448Y-86012035D01*
X132541512Y-85838781D01*
X132541512Y-85138779D01*
X132524448Y-84965525D01*
X132473912Y-84798929D01*
X132391845Y-84645393D01*
X132281402Y-84510818D01*
X132146827Y-84400375D01*
X131993291Y-84318308D01*
X131826695Y-84267772D01*
X131653441Y-84250708D01*
X130520500Y-84250708D01*
X130069604Y-83799813D01*
X130082489Y-79848364D01*
X130178964Y-79751888D01*
X130240345Y-79770508D01*
X130413599Y-79787572D01*
X131663601Y-79787572D01*
X131836855Y-79770508D01*
X132003451Y-79719972D01*
X132156987Y-79637905D01*
X132291562Y-79527462D01*
X132402005Y-79392887D01*
X132484072Y-79239351D01*
X132534608Y-79072755D01*
X132551672Y-78899501D01*
X132551672Y-78199499D01*
X132534608Y-78026245D01*
X132484072Y-77859649D01*
X132402005Y-77706113D01*
X132291562Y-77571538D01*
X132156987Y-77461095D01*
X132003451Y-77379028D01*
X131836855Y-77328492D01*
X131663601Y-77311428D01*
X130530661Y-77311428D01*
X130092191Y-76872958D01*
X130105421Y-72815471D01*
X130232725Y-72854088D01*
X130405979Y-72871152D01*
X131655981Y-72871152D01*
X131829235Y-72854088D01*
X131995831Y-72803552D01*
X132149367Y-72721485D01*
X132283942Y-72611042D01*
X132394385Y-72476467D01*
X132476452Y-72322931D01*
X132526988Y-72156335D01*
X132544052Y-71983081D01*
X132544052Y-71283079D01*
X132526988Y-71109825D01*
X132476452Y-70943229D01*
X132394385Y-70789693D01*
X132283942Y-70655118D01*
X132149367Y-70544675D01*
X131995831Y-70462608D01*
X131829235Y-70412072D01*
X131655981Y-70395008D01*
X130785140Y-70395008D01*
X130115497Y-69725366D01*
X130123620Y-67234231D01*
X131398040Y-65959812D01*
X131655981Y-65959812D01*
X131829235Y-65942748D01*
X131995831Y-65892212D01*
X132149367Y-65810145D01*
X132283942Y-65699702D01*
X132394385Y-65565127D01*
X132476452Y-65411591D01*
X132526988Y-65244995D01*
X132544052Y-65071741D01*
X132544052Y-64371739D01*
X132526988Y-64198485D01*
X132476452Y-64031889D01*
X132394385Y-63878353D01*
X132283942Y-63743778D01*
X132149367Y-63633335D01*
X131995831Y-63551268D01*
X131829235Y-63500732D01*
X131655981Y-63483668D01*
X130405979Y-63483668D01*
X130232725Y-63500732D01*
X130066129Y-63551268D01*
X129999766Y-63586740D01*
X127104011Y-63586740D01*
X127048259Y-63581249D01*
X126992508Y-63586740D01*
X126825761Y-63603163D01*
X126611813Y-63668064D01*
X126414637Y-63773456D01*
X126241811Y-63915291D01*
X126206269Y-63958599D01*
X123061865Y-67103004D01*
X123018551Y-67138551D01*
X122876716Y-67311377D01*
X122792624Y-67468704D01*
X122771324Y-67508554D01*
X122706423Y-67722502D01*
X122684509Y-67945000D01*
X122690000Y-68000751D01*
X122690001Y-70308367D01*
X122128369Y-70870000D01*
X121990204Y-70870000D01*
X121952994Y-70839463D01*
X121842680Y-70780498D01*
X121722982Y-70744188D01*
X121598500Y-70731928D01*
X121135948Y-70731928D01*
X121080667Y-70628506D01*
X121001315Y-70531815D01*
X120904624Y-70452463D01*
X120794310Y-70393498D01*
X120674612Y-70357188D01*
X120550130Y-70344928D01*
X120347000Y-70344928D01*
X120347000Y-70340086D01*
X120407942Y-70307512D01*
X120540623Y-70198623D01*
X120649512Y-70065942D01*
X120730423Y-69914567D01*
X120780248Y-69750316D01*
X120797072Y-69579500D01*
X120797072Y-69104500D01*
X120780248Y-68933684D01*
X120730423Y-68769433D01*
X120649512Y-68618058D01*
X120540623Y-68485377D01*
X120458376Y-68417878D01*
X120565012Y-68287942D01*
X120645923Y-68136567D01*
X120695748Y-67972316D01*
X120712572Y-67801500D01*
X120712572Y-67326500D01*
X120695748Y-67155684D01*
X120645923Y-66991433D01*
X120565012Y-66840058D01*
X120456123Y-66707377D01*
X120323442Y-66598488D01*
X120172067Y-66517577D01*
X120007816Y-66467752D01*
X119837000Y-66450928D01*
X119337000Y-66450928D01*
X119166184Y-66467752D01*
X119001933Y-66517577D01*
X118850558Y-66598488D01*
X118717877Y-66707377D01*
X118638580Y-66804000D01*
X117924920Y-66804000D01*
X117845623Y-66707377D01*
X117712942Y-66598488D01*
X117561567Y-66517577D01*
X117397316Y-66467752D01*
X117226500Y-66450928D01*
X116651500Y-66450928D01*
X116480684Y-66467752D01*
X116316433Y-66517577D01*
X116165058Y-66598488D01*
X116064000Y-66681425D01*
X115962942Y-66598488D01*
X115811567Y-66517577D01*
X115647316Y-66467752D01*
X115476500Y-66450928D01*
X114901500Y-66450928D01*
X114730684Y-66467752D01*
X114566433Y-66517577D01*
X114415058Y-66598488D01*
X114282377Y-66707377D01*
X114203080Y-66804000D01*
X113517420Y-66804000D01*
X113438123Y-66707377D01*
X113305442Y-66598488D01*
X113154067Y-66517577D01*
X112989816Y-66467752D01*
X112819000Y-66450928D01*
X112319000Y-66450928D01*
X112148184Y-66467752D01*
X111983933Y-66517577D01*
X111832558Y-66598488D01*
X111699877Y-66707377D01*
X111590988Y-66840058D01*
X111510077Y-66991433D01*
X111460252Y-67155684D01*
X111443428Y-67326500D01*
X111443428Y-67801500D01*
X111460252Y-67972316D01*
X111510077Y-68136567D01*
X111590988Y-68287942D01*
X111699877Y-68420623D01*
X111832558Y-68529512D01*
X111983933Y-68610423D01*
X112148184Y-68660248D01*
X112319000Y-68677072D01*
X112819000Y-68677072D01*
X112989816Y-68660248D01*
X113154067Y-68610423D01*
X113305442Y-68529512D01*
X113438123Y-68420623D01*
X113517420Y-68324000D01*
X114203080Y-68324000D01*
X114282377Y-68420623D01*
X114415058Y-68529512D01*
X114566433Y-68610423D01*
X114730684Y-68660248D01*
X114901500Y-68677072D01*
X115476500Y-68677072D01*
X115647316Y-68660248D01*
X115811567Y-68610423D01*
X115962942Y-68529512D01*
X116064000Y-68446575D01*
X116165058Y-68529512D01*
X116316433Y-68610423D01*
X116480684Y-68660248D01*
X116651500Y-68677072D01*
X117226500Y-68677072D01*
X117397316Y-68660248D01*
X117561567Y-68610423D01*
X117712942Y-68529512D01*
X117845623Y-68420623D01*
X117924920Y-68324000D01*
X118638580Y-68324000D01*
X118717877Y-68420623D01*
X118762078Y-68456898D01*
X118727377Y-68485377D01*
X118618488Y-68618058D01*
X118537577Y-68769433D01*
X118487752Y-68933684D01*
X118470928Y-69104500D01*
X118470928Y-69579500D01*
X118487752Y-69750316D01*
X118537577Y-69914567D01*
X118618488Y-70065942D01*
X118727377Y-70198623D01*
X118827000Y-70280382D01*
X118827001Y-70344928D01*
X118820130Y-70344928D01*
X118695648Y-70357188D01*
X118575950Y-70393498D01*
X118465636Y-70452463D01*
X118368945Y-70531815D01*
X118289593Y-70628506D01*
X118230628Y-70738820D01*
X118194318Y-70858518D01*
X118182058Y-70983000D01*
X118182058Y-75303000D01*
X118194318Y-75427482D01*
X118230628Y-75547180D01*
X118289593Y-75657494D01*
X118341742Y-75721038D01*
X118313688Y-75813518D01*
X118301428Y-75938000D01*
X118301428Y-77208000D01*
X118313688Y-77332482D01*
X118349998Y-77452180D01*
X118408963Y-77562494D01*
X118488315Y-77659185D01*
X118559982Y-77718000D01*
X118488315Y-77776815D01*
X118408963Y-77873506D01*
X118349998Y-77983820D01*
X118313688Y-78103518D01*
X118301428Y-78228000D01*
X118301428Y-79498000D01*
X118313688Y-79622482D01*
X118349998Y-79742180D01*
X118408963Y-79852494D01*
X118488315Y-79949185D01*
X118559982Y-80008000D01*
X118488315Y-80066815D01*
X118408963Y-80163506D01*
X118396069Y-80187628D01*
X118331315Y-80108725D01*
X118234624Y-80029373D01*
X118124310Y-79970408D01*
X118004612Y-79934098D01*
X117880130Y-79921838D01*
X116610130Y-79921838D01*
X116485648Y-79934098D01*
X116365950Y-79970408D01*
X116255636Y-80029373D01*
X116158945Y-80108725D01*
X116079593Y-80205416D01*
X116020628Y-80315730D01*
X115984318Y-80435428D01*
X115972058Y-80559910D01*
X115972058Y-83218910D01*
X115984318Y-83343392D01*
X116020628Y-83463090D01*
X116079593Y-83573404D01*
X116158945Y-83670095D01*
X116255636Y-83749447D01*
X116365950Y-83808412D01*
X116485648Y-83844722D01*
X116610130Y-83856982D01*
X117880130Y-83856982D01*
X118004612Y-83844722D01*
X118124310Y-83808412D01*
X118234624Y-83749447D01*
X118331315Y-83670095D01*
X118410667Y-83573404D01*
X118469632Y-83463090D01*
X118505942Y-83343392D01*
X118518202Y-83218910D01*
X118518202Y-82263713D01*
X118585006Y-82318537D01*
X118695320Y-82377502D01*
X118815018Y-82413812D01*
X118939500Y-82426072D01*
X119509000Y-82426072D01*
X119509001Y-84397821D01*
X119399877Y-84487377D01*
X119290988Y-84620058D01*
X119210077Y-84771433D01*
X119160252Y-84935684D01*
X119143428Y-85106500D01*
X119143428Y-85581500D01*
X119160252Y-85752316D01*
X119210077Y-85916567D01*
X119290988Y-86067942D01*
X119399877Y-86200623D01*
X119532558Y-86309512D01*
X119683933Y-86390423D01*
X119848184Y-86440248D01*
X120019000Y-86457072D01*
X120519000Y-86457072D01*
X120689816Y-86440248D01*
X120854067Y-86390423D01*
X120994517Y-86315351D01*
X120613299Y-86696570D01*
X120569992Y-86732111D01*
X120534452Y-86775417D01*
X120179869Y-87130000D01*
X118846472Y-87130000D01*
X118790720Y-87124509D01*
X118734969Y-87130000D01*
X114452271Y-87130000D01*
X114396520Y-87124509D01*
X114340769Y-87130000D01*
X111597311Y-87130000D01*
X111541560Y-87124509D01*
X111485809Y-87130000D01*
X107661612Y-87130000D01*
X107605860Y-87124509D01*
X107550108Y-87130000D01*
X106215051Y-87130000D01*
X106159300Y-87124509D01*
X106103548Y-87130000D01*
X105936801Y-87146423D01*
X105722853Y-87211324D01*
X105525677Y-87316716D01*
X105352851Y-87458551D01*
X105317304Y-87501865D01*
X104801800Y-88017369D01*
X104758492Y-88052911D01*
X104616657Y-88225737D01*
X104568136Y-88316514D01*
X104511264Y-88422914D01*
X104446363Y-88636862D01*
X104424449Y-88859360D01*
X104429941Y-88915121D01*
X104429940Y-90149705D01*
X104394468Y-90216069D01*
X104343932Y-90382665D01*
X104326868Y-90555919D01*
X104326868Y-91805921D01*
X104343932Y-91979175D01*
X104394468Y-92145771D01*
X104425592Y-92204000D01*
X103606443Y-92204000D01*
X102901020Y-91498579D01*
X102901020Y-82323781D01*
X105371730Y-79853072D01*
X105660000Y-79853072D01*
X105830816Y-79836248D01*
X105995067Y-79786423D01*
X106146442Y-79705512D01*
X106279123Y-79596623D01*
X106388012Y-79463942D01*
X106468923Y-79312567D01*
X106518748Y-79148316D01*
X106535572Y-78977500D01*
X106535572Y-78502500D01*
X106518748Y-78331684D01*
X106487296Y-78228000D01*
X107670988Y-78228000D01*
X107670988Y-79498000D01*
X107683248Y-79622482D01*
X107719558Y-79742180D01*
X107778523Y-79852494D01*
X107857875Y-79949185D01*
X107929542Y-80008000D01*
X107857875Y-80066815D01*
X107778523Y-80163506D01*
X107719558Y-80273820D01*
X107683248Y-80393518D01*
X107670988Y-80518000D01*
X107670988Y-81788000D01*
X107683248Y-81912482D01*
X107719558Y-82032180D01*
X107778523Y-82142494D01*
X107857875Y-82239185D01*
X107954566Y-82318537D01*
X108064880Y-82377502D01*
X108184578Y-82413812D01*
X108309060Y-82426072D01*
X110968060Y-82426072D01*
X111092542Y-82413812D01*
X111212240Y-82377502D01*
X111322554Y-82318537D01*
X111402058Y-82253290D01*
X111402058Y-83218910D01*
X111414318Y-83343392D01*
X111450628Y-83463090D01*
X111509593Y-83573404D01*
X111588945Y-83670095D01*
X111685636Y-83749447D01*
X111795950Y-83808412D01*
X111915648Y-83844722D01*
X112040130Y-83856982D01*
X113310130Y-83856982D01*
X113434612Y-83844722D01*
X113554310Y-83808412D01*
X113664624Y-83749447D01*
X113761315Y-83670095D01*
X113840667Y-83573404D01*
X113899632Y-83463090D01*
X113935942Y-83343392D01*
X113948202Y-83218910D01*
X113948202Y-80559910D01*
X113935942Y-80435428D01*
X113899632Y-80315730D01*
X113840667Y-80205416D01*
X113761315Y-80108725D01*
X113664624Y-80029373D01*
X113554310Y-79970408D01*
X113434612Y-79934098D01*
X113310130Y-79921838D01*
X112040130Y-79921838D01*
X111915648Y-79934098D01*
X111795950Y-79970408D01*
X111685636Y-80029373D01*
X111588945Y-80108725D01*
X111516500Y-80197000D01*
X111498597Y-80163506D01*
X111419245Y-80066815D01*
X111347578Y-80008000D01*
X111419245Y-79949185D01*
X111498597Y-79852494D01*
X111557562Y-79742180D01*
X111593872Y-79622482D01*
X111606132Y-79498000D01*
X111606132Y-78228000D01*
X111593872Y-78103518D01*
X111557562Y-77983820D01*
X111498597Y-77873506D01*
X111419245Y-77776815D01*
X111322554Y-77697463D01*
X111212240Y-77638498D01*
X111092542Y-77602188D01*
X110968060Y-77589928D01*
X108309060Y-77589928D01*
X108184578Y-77602188D01*
X108064880Y-77638498D01*
X107954566Y-77697463D01*
X107857875Y-77776815D01*
X107778523Y-77873506D01*
X107719558Y-77983820D01*
X107683248Y-78103518D01*
X107670988Y-78228000D01*
X106487296Y-78228000D01*
X106468923Y-78167433D01*
X106388012Y-78016058D01*
X106279123Y-77883377D01*
X106170000Y-77793822D01*
X106170000Y-77199116D01*
X106236567Y-77178923D01*
X106387942Y-77098012D01*
X106520623Y-76989123D01*
X106629512Y-76856442D01*
X106710423Y-76705067D01*
X106760248Y-76540816D01*
X106777072Y-76370000D01*
X106777072Y-75870000D01*
X106760248Y-75699184D01*
X106710423Y-75534933D01*
X106654336Y-75430000D01*
X107042809Y-75430000D01*
X107098560Y-75435491D01*
X107154311Y-75430000D01*
X107154312Y-75430000D01*
X107321059Y-75413577D01*
X107535007Y-75348676D01*
X107732183Y-75243284D01*
X107905009Y-75101449D01*
X107940556Y-75058135D01*
X109342836Y-73655856D01*
X109360401Y-73655606D01*
X109365130Y-73656072D01*
X113385130Y-73656072D01*
X113509612Y-73643812D01*
X113629310Y-73607502D01*
X113739624Y-73548537D01*
X113836315Y-73469185D01*
X113915667Y-73372494D01*
X113974632Y-73262180D01*
X114010942Y-73142482D01*
X114023202Y-73018000D01*
X114023202Y-72175451D01*
X114032130Y-72084800D01*
X114032130Y-69925800D01*
X114019870Y-69801318D01*
X113983560Y-69681620D01*
X113924595Y-69571306D01*
X113845243Y-69474615D01*
X113748552Y-69395263D01*
X113638238Y-69336298D01*
X113518540Y-69299988D01*
X113394058Y-69287728D01*
X112124058Y-69287728D01*
X111999576Y-69299988D01*
X111879878Y-69336298D01*
X111769564Y-69395263D01*
X111672873Y-69474615D01*
X111593521Y-69571306D01*
X111534556Y-69681620D01*
X111498246Y-69801318D01*
X111485986Y-69925800D01*
X111485986Y-70349928D01*
X109365130Y-70349928D01*
X109344697Y-70351940D01*
X109340606Y-70351914D01*
X107815000Y-68826309D01*
X107815000Y-64605131D01*
X108143131Y-64277000D01*
X123964525Y-64277000D01*
X124092111Y-64251622D01*
X124221550Y-64238873D01*
X124346012Y-64201118D01*
X124473601Y-64175739D01*
X124593787Y-64125956D01*
X124718250Y-64088201D01*
X124832958Y-64026889D01*
X124953141Y-63977107D01*
X125061301Y-63904837D01*
X125176011Y-63843523D01*
X125276556Y-63761008D01*
X125384715Y-63688738D01*
X125476699Y-63596754D01*
X125577241Y-63514241D01*
X125659756Y-63413697D01*
X125751738Y-63321715D01*
X125824008Y-63213556D01*
X125906523Y-63113011D01*
X125967837Y-62998301D01*
X126040107Y-62890141D01*
X126089889Y-62769958D01*
X126151201Y-62655250D01*
X126188956Y-62530787D01*
X126238739Y-62410601D01*
X126264118Y-62283012D01*
X126301873Y-62158550D01*
X126314622Y-62029111D01*
X126340000Y-61901525D01*
X126340000Y-61771442D01*
X126352749Y-61642000D01*
X126340000Y-61512558D01*
X126340000Y-61382475D01*
X126314622Y-61254889D01*
X126301873Y-61125450D01*
X126264118Y-61000988D01*
X126238739Y-60873399D01*
X126188956Y-60753213D01*
X126151201Y-60628750D01*
X126089889Y-60514042D01*
X126040107Y-60393859D01*
X125967837Y-60285699D01*
X125906523Y-60170989D01*
X125824008Y-60070444D01*
X125751738Y-59962285D01*
X125659754Y-59870301D01*
X125577241Y-59769759D01*
X125476698Y-59687245D01*
X125384715Y-59595262D01*
X125276556Y-59522992D01*
X125176011Y-59440477D01*
X125061301Y-59379163D01*
X124953141Y-59306893D01*
X124832958Y-59257111D01*
X124718250Y-59195799D01*
X124593787Y-59158044D01*
X124473601Y-59108261D01*
X124346012Y-59082882D01*
X124221550Y-59045127D01*
X124092111Y-59032378D01*
X123964525Y-59007000D01*
X104777434Y-59007000D01*
X104648000Y-58994252D01*
X104518566Y-59007000D01*
X104388475Y-59007000D01*
X104260889Y-59032378D01*
X104131450Y-59045127D01*
X104006988Y-59082882D01*
X103879399Y-59108261D01*
X103759213Y-59158044D01*
X103634750Y-59195799D01*
X103520042Y-59257111D01*
X103399859Y-59306893D01*
X103291699Y-59379163D01*
X103176989Y-59440477D01*
X103076444Y-59522992D01*
X102968285Y-59595262D01*
X102876302Y-59687245D01*
X102775759Y-59769759D01*
X102693246Y-59870301D01*
X102601262Y-59962285D01*
X102601260Y-59962288D01*
X94748302Y-67815246D01*
X94647760Y-67897759D01*
X94565247Y-67998301D01*
X94565245Y-67998303D01*
X94502885Y-68074289D01*
X94318478Y-68298989D01*
X94231205Y-68462265D01*
X94180001Y-68558062D01*
X94180001Y-59278535D01*
X94223443Y-59321977D01*
X94794235Y-59703368D01*
X95428464Y-59966074D01*
X96101759Y-60100001D01*
X96788243Y-60100001D01*
X97461538Y-59966074D01*
X98095767Y-59703368D01*
X98666559Y-59321977D01*
X99151977Y-58836559D01*
X99533368Y-58265767D01*
X99796074Y-57631538D01*
X99930001Y-56958243D01*
X99930001Y-56271759D01*
X99796074Y-55598464D01*
X99533368Y-54964235D01*
X99151977Y-54393443D01*
X99108535Y-54350001D01*
X128781466Y-54350001D01*
X128738024Y-54393443D01*
%TA.AperFunction,Conductor*%
D29*
G36*
X128738024Y-54393443D02*
G01*
X128356633Y-54964235D01*
X128093927Y-55598464D01*
X127960000Y-56271759D01*
X127960000Y-56958243D01*
X128093927Y-57631538D01*
X128356633Y-58265767D01*
X128738024Y-58836559D01*
X129223442Y-59321977D01*
X129794234Y-59703368D01*
X130428463Y-59966074D01*
X131101758Y-60100001D01*
X131788242Y-60100001D01*
X132461537Y-59966074D01*
X133095766Y-59703368D01*
X133666558Y-59321977D01*
X133710000Y-59278535D01*
X133710001Y-88951467D01*
X133666558Y-88908024D01*
X133095766Y-88526633D01*
X132461537Y-88263927D01*
X131788242Y-88130000D01*
X131101758Y-88130000D01*
X130428463Y-88263927D01*
X129794234Y-88526633D01*
X129223442Y-88908024D01*
X128738024Y-89393442D01*
X128356633Y-89964234D01*
X128093927Y-90598463D01*
X127960000Y-91271758D01*
X127960000Y-91958242D01*
X128093927Y-92631537D01*
X128356633Y-93265766D01*
X128738024Y-93836558D01*
X128781466Y-93880000D01*
X99108535Y-93880000D01*
X99151977Y-93836558D01*
X99533368Y-93265766D01*
X99796074Y-92631537D01*
X99930001Y-91958242D01*
X99930001Y-91271758D01*
X99796074Y-90598463D01*
X99533368Y-89964234D01*
X99151977Y-89393442D01*
X98666559Y-88908024D01*
X98095767Y-88526633D01*
X97461538Y-88263927D01*
X96788243Y-88130000D01*
X96101759Y-88130000D01*
X95428464Y-88263927D01*
X94794235Y-88526633D01*
X94223443Y-88908024D01*
X94180001Y-88951466D01*
X94180001Y-73855939D01*
X94318477Y-74115010D01*
X94647759Y-74516241D01*
X95048989Y-74845523D01*
X95506750Y-75090201D01*
X96003450Y-75240873D01*
X96520000Y-75291749D01*
X97036549Y-75240873D01*
X97533249Y-75090201D01*
X97991010Y-74845523D01*
X98392241Y-74516241D01*
X98721523Y-74115011D01*
X98901124Y-73779000D01*
X101383869Y-73779000D01*
X102166928Y-74562060D01*
X102166928Y-74620001D01*
X102183992Y-74793255D01*
X102234528Y-74959851D01*
X102316595Y-75113387D01*
X102427038Y-75247962D01*
X102561613Y-75358405D01*
X102715149Y-75440472D01*
X102881745Y-75491008D01*
X103054999Y-75508072D01*
X103955001Y-75508072D01*
X104128255Y-75491008D01*
X104294851Y-75440472D01*
X104314443Y-75430000D01*
X104673664Y-75430000D01*
X104617577Y-75534933D01*
X104567752Y-75699184D01*
X104550928Y-75870000D01*
X104550928Y-76370000D01*
X104567752Y-76540816D01*
X104617577Y-76705067D01*
X104650001Y-76765728D01*
X104650000Y-77793821D01*
X104540877Y-77883377D01*
X104431988Y-78016058D01*
X104351077Y-78167433D01*
X104301252Y-78331684D01*
X104284428Y-78502500D01*
X104284428Y-78790770D01*
X101630018Y-81445181D01*
X101601020Y-81468979D01*
X101577222Y-81497977D01*
X101577221Y-81497978D01*
X101506046Y-81584704D01*
X101435474Y-81716734D01*
X101392018Y-81859995D01*
X101377344Y-82008980D01*
X101381021Y-82046312D01*
X101381020Y-88951567D01*
X101381020Y-89303092D01*
X101381021Y-89303101D01*
X101381020Y-91776057D01*
X101377344Y-91813380D01*
X101381020Y-91850702D01*
X101381020Y-91850712D01*
X101392017Y-91962365D01*
X101425856Y-92073918D01*
X101435474Y-92105626D01*
X101506046Y-92237656D01*
X101532120Y-92269427D01*
X101601019Y-92353381D01*
X101630022Y-92377183D01*
X102727845Y-93475008D01*
X102751639Y-93504001D01*
X102780632Y-93527795D01*
X102780636Y-93527799D01*
X102851325Y-93585811D01*
X102867364Y-93598974D01*
X102999393Y-93669546D01*
X103142654Y-93713003D01*
X103254307Y-93724000D01*
X103254316Y-93724000D01*
X103291639Y-93727676D01*
X103328962Y-93724000D01*
X106869538Y-93724000D01*
X106906860Y-93727676D01*
X106944182Y-93724000D01*
X106944193Y-93724000D01*
X107055846Y-93713003D01*
X107199107Y-93669546D01*
X107331136Y-93598974D01*
X107446861Y-93504001D01*
X107470663Y-93474998D01*
X108075942Y-92869720D01*
X108104941Y-92845921D01*
X108199914Y-92730196D01*
X108270486Y-92598167D01*
X108313943Y-92454906D01*
X108315660Y-92437469D01*
X108442442Y-92333422D01*
X108596773Y-92145369D01*
X108711451Y-91930820D01*
X108782070Y-91698021D01*
X108799940Y-91516584D01*
X108799940Y-90845255D01*
X108782070Y-90663818D01*
X108711451Y-90431019D01*
X108596773Y-90216471D01*
X108512119Y-90113320D01*
X111784748Y-90113320D01*
X113219408Y-91547981D01*
X113219408Y-91805921D01*
X113236472Y-91979175D01*
X113287008Y-92145771D01*
X113369075Y-92299307D01*
X113479518Y-92433882D01*
X113614093Y-92544325D01*
X113767629Y-92626392D01*
X113934225Y-92676928D01*
X114107479Y-92693992D01*
X114807481Y-92693992D01*
X114980735Y-92676928D01*
X115147331Y-92626392D01*
X115300867Y-92544325D01*
X115435442Y-92433882D01*
X115545885Y-92299307D01*
X115627952Y-92145771D01*
X115678488Y-91979175D01*
X115695552Y-91805921D01*
X115695552Y-90555919D01*
X115678488Y-90382665D01*
X115627952Y-90216069D01*
X115592480Y-90149706D01*
X115592480Y-90113320D01*
X118693549Y-90113320D01*
X120138368Y-91558140D01*
X120138368Y-91816081D01*
X120155432Y-91989335D01*
X120205968Y-92155931D01*
X120288035Y-92309467D01*
X120398478Y-92444042D01*
X120533053Y-92554485D01*
X120686589Y-92636552D01*
X120853185Y-92687088D01*
X121026439Y-92704152D01*
X121726441Y-92704152D01*
X121899695Y-92687088D01*
X122066291Y-92636552D01*
X122219827Y-92554485D01*
X122354402Y-92444042D01*
X122464845Y-92309467D01*
X122546912Y-92155931D01*
X122597448Y-91989335D01*
X122614512Y-91816081D01*
X122614512Y-90683139D01*
X123184331Y-90113320D01*
X125430280Y-90113320D01*
X125494762Y-90106997D01*
X125563287Y-90100283D01*
X125563310Y-90100276D01*
X125563331Y-90100274D01*
X125628071Y-90080728D01*
X125691272Y-90061651D01*
X125691292Y-90061640D01*
X125691313Y-90061634D01*
X125751867Y-90029437D01*
X125809315Y-89998896D01*
X125809332Y-89998882D01*
X125809353Y-89998871D01*
X125870950Y-89948634D01*
X125912922Y-89914407D01*
X125912948Y-89914381D01*
X125912954Y-89914376D01*
X125912960Y-89914369D01*
X125919662Y-89907621D01*
X129135858Y-86623780D01*
X129997226Y-86623780D01*
X130063589Y-86659252D01*
X130230185Y-86709788D01*
X130403439Y-86726852D01*
X131653441Y-86726852D01*
X131826695Y-86709788D01*
X131993291Y-86659252D01*
X132146827Y-86577185D01*
X132281402Y-86466742D01*
X132391845Y-86332167D01*
X132473912Y-86178631D01*
X132524448Y-86012035D01*
X132541512Y-85838781D01*
X132541512Y-85138779D01*
X132524448Y-84965525D01*
X132473912Y-84798929D01*
X132391845Y-84645393D01*
X132281402Y-84510818D01*
X132146827Y-84400375D01*
X131993291Y-84318308D01*
X131826695Y-84267772D01*
X131653441Y-84250708D01*
X130520500Y-84250708D01*
X130069604Y-83799813D01*
X130082489Y-79848364D01*
X130178964Y-79751888D01*
X130240345Y-79770508D01*
X130413599Y-79787572D01*
X131663601Y-79787572D01*
X131836855Y-79770508D01*
X132003451Y-79719972D01*
X132156987Y-79637905D01*
X132291562Y-79527462D01*
X132402005Y-79392887D01*
X132484072Y-79239351D01*
X132534608Y-79072755D01*
X132551672Y-78899501D01*
X132551672Y-78199499D01*
X132534608Y-78026245D01*
X132484072Y-77859649D01*
X132402005Y-77706113D01*
X132291562Y-77571538D01*
X132156987Y-77461095D01*
X132003451Y-77379028D01*
X131836855Y-77328492D01*
X131663601Y-77311428D01*
X130530661Y-77311428D01*
X130092191Y-76872958D01*
X130105421Y-72815471D01*
X130232725Y-72854088D01*
X130405979Y-72871152D01*
X131655981Y-72871152D01*
X131829235Y-72854088D01*
X131995831Y-72803552D01*
X132149367Y-72721485D01*
X132283942Y-72611042D01*
X132394385Y-72476467D01*
X132476452Y-72322931D01*
X132526988Y-72156335D01*
X132544052Y-71983081D01*
X132544052Y-71283079D01*
X132526988Y-71109825D01*
X132476452Y-70943229D01*
X132394385Y-70789693D01*
X132283942Y-70655118D01*
X132149367Y-70544675D01*
X131995831Y-70462608D01*
X131829235Y-70412072D01*
X131655981Y-70395008D01*
X130785140Y-70395008D01*
X130115497Y-69725366D01*
X130123620Y-67234231D01*
X131398040Y-65959812D01*
X131655981Y-65959812D01*
X131829235Y-65942748D01*
X131995831Y-65892212D01*
X132149367Y-65810145D01*
X132283942Y-65699702D01*
X132394385Y-65565127D01*
X132476452Y-65411591D01*
X132526988Y-65244995D01*
X132544052Y-65071741D01*
X132544052Y-64371739D01*
X132526988Y-64198485D01*
X132476452Y-64031889D01*
X132394385Y-63878353D01*
X132283942Y-63743778D01*
X132149367Y-63633335D01*
X131995831Y-63551268D01*
X131829235Y-63500732D01*
X131655981Y-63483668D01*
X130405979Y-63483668D01*
X130232725Y-63500732D01*
X130066129Y-63551268D01*
X129999766Y-63586740D01*
X127104011Y-63586740D01*
X127048259Y-63581249D01*
X126992508Y-63586740D01*
X126825761Y-63603163D01*
X126611813Y-63668064D01*
X126414637Y-63773456D01*
X126241811Y-63915291D01*
X126206269Y-63958599D01*
X123061865Y-67103004D01*
X123018551Y-67138551D01*
X122876716Y-67311377D01*
X122792624Y-67468704D01*
X122771324Y-67508554D01*
X122706423Y-67722502D01*
X122684509Y-67945000D01*
X122690000Y-68000751D01*
X122690001Y-70308367D01*
X122128369Y-70870000D01*
X121990204Y-70870000D01*
X121952994Y-70839463D01*
X121842680Y-70780498D01*
X121722982Y-70744188D01*
X121598500Y-70731928D01*
X121135948Y-70731928D01*
X121080667Y-70628506D01*
X121001315Y-70531815D01*
X120904624Y-70452463D01*
X120794310Y-70393498D01*
X120674612Y-70357188D01*
X120550130Y-70344928D01*
X120347000Y-70344928D01*
X120347000Y-70340086D01*
X120407942Y-70307512D01*
X120540623Y-70198623D01*
X120649512Y-70065942D01*
X120730423Y-69914567D01*
X120780248Y-69750316D01*
X120797072Y-69579500D01*
X120797072Y-69104500D01*
X120780248Y-68933684D01*
X120730423Y-68769433D01*
X120649512Y-68618058D01*
X120540623Y-68485377D01*
X120458376Y-68417878D01*
X120565012Y-68287942D01*
X120645923Y-68136567D01*
X120695748Y-67972316D01*
X120712572Y-67801500D01*
X120712572Y-67326500D01*
X120695748Y-67155684D01*
X120645923Y-66991433D01*
X120565012Y-66840058D01*
X120456123Y-66707377D01*
X120323442Y-66598488D01*
X120172067Y-66517577D01*
X120007816Y-66467752D01*
X119837000Y-66450928D01*
X119337000Y-66450928D01*
X119166184Y-66467752D01*
X119001933Y-66517577D01*
X118850558Y-66598488D01*
X118717877Y-66707377D01*
X118638580Y-66804000D01*
X117924920Y-66804000D01*
X117845623Y-66707377D01*
X117712942Y-66598488D01*
X117561567Y-66517577D01*
X117397316Y-66467752D01*
X117226500Y-66450928D01*
X116651500Y-66450928D01*
X116480684Y-66467752D01*
X116316433Y-66517577D01*
X116165058Y-66598488D01*
X116064000Y-66681425D01*
X115962942Y-66598488D01*
X115811567Y-66517577D01*
X115647316Y-66467752D01*
X115476500Y-66450928D01*
X114901500Y-66450928D01*
X114730684Y-66467752D01*
X114566433Y-66517577D01*
X114415058Y-66598488D01*
X114282377Y-66707377D01*
X114203080Y-66804000D01*
X113517420Y-66804000D01*
X113438123Y-66707377D01*
X113305442Y-66598488D01*
X113154067Y-66517577D01*
X112989816Y-66467752D01*
X112819000Y-66450928D01*
X112319000Y-66450928D01*
X112148184Y-66467752D01*
X111983933Y-66517577D01*
X111832558Y-66598488D01*
X111699877Y-66707377D01*
X111590988Y-66840058D01*
X111510077Y-66991433D01*
X111460252Y-67155684D01*
X111443428Y-67326500D01*
X111443428Y-67801500D01*
X111460252Y-67972316D01*
X111510077Y-68136567D01*
X111590988Y-68287942D01*
X111699877Y-68420623D01*
X111832558Y-68529512D01*
X111983933Y-68610423D01*
X112148184Y-68660248D01*
X112319000Y-68677072D01*
X112819000Y-68677072D01*
X112989816Y-68660248D01*
X113154067Y-68610423D01*
X113305442Y-68529512D01*
X113438123Y-68420623D01*
X113517420Y-68324000D01*
X114203080Y-68324000D01*
X114282377Y-68420623D01*
X114415058Y-68529512D01*
X114566433Y-68610423D01*
X114730684Y-68660248D01*
X114901500Y-68677072D01*
X115476500Y-68677072D01*
X115647316Y-68660248D01*
X115811567Y-68610423D01*
X115962942Y-68529512D01*
X116064000Y-68446575D01*
X116165058Y-68529512D01*
X116316433Y-68610423D01*
X116480684Y-68660248D01*
X116651500Y-68677072D01*
X117226500Y-68677072D01*
X117397316Y-68660248D01*
X117561567Y-68610423D01*
X117712942Y-68529512D01*
X117845623Y-68420623D01*
X117924920Y-68324000D01*
X118638580Y-68324000D01*
X118717877Y-68420623D01*
X118762078Y-68456898D01*
X118727377Y-68485377D01*
X118618488Y-68618058D01*
X118537577Y-68769433D01*
X118487752Y-68933684D01*
X118470928Y-69104500D01*
X118470928Y-69579500D01*
X118487752Y-69750316D01*
X118537577Y-69914567D01*
X118618488Y-70065942D01*
X118727377Y-70198623D01*
X118827000Y-70280382D01*
X118827001Y-70344928D01*
X118820130Y-70344928D01*
X118695648Y-70357188D01*
X118575950Y-70393498D01*
X118465636Y-70452463D01*
X118368945Y-70531815D01*
X118289593Y-70628506D01*
X118230628Y-70738820D01*
X118194318Y-70858518D01*
X118182058Y-70983000D01*
X118182058Y-75303000D01*
X118194318Y-75427482D01*
X118230628Y-75547180D01*
X118289593Y-75657494D01*
X118341742Y-75721038D01*
X118313688Y-75813518D01*
X118301428Y-75938000D01*
X118301428Y-77208000D01*
X118313688Y-77332482D01*
X118349998Y-77452180D01*
X118408963Y-77562494D01*
X118488315Y-77659185D01*
X118559982Y-77718000D01*
X118488315Y-77776815D01*
X118408963Y-77873506D01*
X118349998Y-77983820D01*
X118313688Y-78103518D01*
X118301428Y-78228000D01*
X118301428Y-79498000D01*
X118313688Y-79622482D01*
X118349998Y-79742180D01*
X118408963Y-79852494D01*
X118488315Y-79949185D01*
X118559982Y-80008000D01*
X118488315Y-80066815D01*
X118408963Y-80163506D01*
X118396069Y-80187628D01*
X118331315Y-80108725D01*
X118234624Y-80029373D01*
X118124310Y-79970408D01*
X118004612Y-79934098D01*
X117880130Y-79921838D01*
X116610130Y-79921838D01*
X116485648Y-79934098D01*
X116365950Y-79970408D01*
X116255636Y-80029373D01*
X116158945Y-80108725D01*
X116079593Y-80205416D01*
X116020628Y-80315730D01*
X115984318Y-80435428D01*
X115972058Y-80559910D01*
X115972058Y-83218910D01*
X115984318Y-83343392D01*
X116020628Y-83463090D01*
X116079593Y-83573404D01*
X116158945Y-83670095D01*
X116255636Y-83749447D01*
X116365950Y-83808412D01*
X116485648Y-83844722D01*
X116610130Y-83856982D01*
X117880130Y-83856982D01*
X118004612Y-83844722D01*
X118124310Y-83808412D01*
X118234624Y-83749447D01*
X118331315Y-83670095D01*
X118410667Y-83573404D01*
X118469632Y-83463090D01*
X118505942Y-83343392D01*
X118518202Y-83218910D01*
X118518202Y-82263713D01*
X118585006Y-82318537D01*
X118695320Y-82377502D01*
X118815018Y-82413812D01*
X118939500Y-82426072D01*
X119509000Y-82426072D01*
X119509001Y-84397821D01*
X119399877Y-84487377D01*
X119290988Y-84620058D01*
X119210077Y-84771433D01*
X119160252Y-84935684D01*
X119143428Y-85106500D01*
X119143428Y-85581500D01*
X119160252Y-85752316D01*
X119210077Y-85916567D01*
X119290988Y-86067942D01*
X119399877Y-86200623D01*
X119532558Y-86309512D01*
X119683933Y-86390423D01*
X119848184Y-86440248D01*
X120019000Y-86457072D01*
X120519000Y-86457072D01*
X120689816Y-86440248D01*
X120854067Y-86390423D01*
X120994517Y-86315351D01*
X120613299Y-86696570D01*
X120569992Y-86732111D01*
X120534452Y-86775417D01*
X120179869Y-87130000D01*
X118846472Y-87130000D01*
X118790720Y-87124509D01*
X118734969Y-87130000D01*
X114452271Y-87130000D01*
X114396520Y-87124509D01*
X114340769Y-87130000D01*
X111597311Y-87130000D01*
X111541560Y-87124509D01*
X111485809Y-87130000D01*
X107661612Y-87130000D01*
X107605860Y-87124509D01*
X107550108Y-87130000D01*
X106215051Y-87130000D01*
X106159300Y-87124509D01*
X106103548Y-87130000D01*
X105936801Y-87146423D01*
X105722853Y-87211324D01*
X105525677Y-87316716D01*
X105352851Y-87458551D01*
X105317304Y-87501865D01*
X104801800Y-88017369D01*
X104758492Y-88052911D01*
X104616657Y-88225737D01*
X104568136Y-88316514D01*
X104511264Y-88422914D01*
X104446363Y-88636862D01*
X104424449Y-88859360D01*
X104429941Y-88915121D01*
X104429940Y-90149705D01*
X104394468Y-90216069D01*
X104343932Y-90382665D01*
X104326868Y-90555919D01*
X104326868Y-91805921D01*
X104343932Y-91979175D01*
X104394468Y-92145771D01*
X104425592Y-92204000D01*
X103606443Y-92204000D01*
X102901020Y-91498579D01*
X102901020Y-82323781D01*
X105371730Y-79853072D01*
X105660000Y-79853072D01*
X105830816Y-79836248D01*
X105995067Y-79786423D01*
X106146442Y-79705512D01*
X106279123Y-79596623D01*
X106388012Y-79463942D01*
X106468923Y-79312567D01*
X106518748Y-79148316D01*
X106535572Y-78977500D01*
X106535572Y-78502500D01*
X106518748Y-78331684D01*
X106487296Y-78228000D01*
X107670988Y-78228000D01*
X107670988Y-79498000D01*
X107683248Y-79622482D01*
X107719558Y-79742180D01*
X107778523Y-79852494D01*
X107857875Y-79949185D01*
X107929542Y-80008000D01*
X107857875Y-80066815D01*
X107778523Y-80163506D01*
X107719558Y-80273820D01*
X107683248Y-80393518D01*
X107670988Y-80518000D01*
X107670988Y-81788000D01*
X107683248Y-81912482D01*
X107719558Y-82032180D01*
X107778523Y-82142494D01*
X107857875Y-82239185D01*
X107954566Y-82318537D01*
X108064880Y-82377502D01*
X108184578Y-82413812D01*
X108309060Y-82426072D01*
X110968060Y-82426072D01*
X111092542Y-82413812D01*
X111212240Y-82377502D01*
X111322554Y-82318537D01*
X111402058Y-82253290D01*
X111402058Y-83218910D01*
X111414318Y-83343392D01*
X111450628Y-83463090D01*
X111509593Y-83573404D01*
X111588945Y-83670095D01*
X111685636Y-83749447D01*
X111795950Y-83808412D01*
X111915648Y-83844722D01*
X112040130Y-83856982D01*
X113310130Y-83856982D01*
X113434612Y-83844722D01*
X113554310Y-83808412D01*
X113664624Y-83749447D01*
X113761315Y-83670095D01*
X113840667Y-83573404D01*
X113899632Y-83463090D01*
X113935942Y-83343392D01*
X113948202Y-83218910D01*
X113948202Y-80559910D01*
X113935942Y-80435428D01*
X113899632Y-80315730D01*
X113840667Y-80205416D01*
X113761315Y-80108725D01*
X113664624Y-80029373D01*
X113554310Y-79970408D01*
X113434612Y-79934098D01*
X113310130Y-79921838D01*
X112040130Y-79921838D01*
X111915648Y-79934098D01*
X111795950Y-79970408D01*
X111685636Y-80029373D01*
X111588945Y-80108725D01*
X111516500Y-80197000D01*
X111498597Y-80163506D01*
X111419245Y-80066815D01*
X111347578Y-80008000D01*
X111419245Y-79949185D01*
X111498597Y-79852494D01*
X111557562Y-79742180D01*
X111593872Y-79622482D01*
X111606132Y-79498000D01*
X111606132Y-78228000D01*
X111593872Y-78103518D01*
X111557562Y-77983820D01*
X111498597Y-77873506D01*
X111419245Y-77776815D01*
X111322554Y-77697463D01*
X111212240Y-77638498D01*
X111092542Y-77602188D01*
X110968060Y-77589928D01*
X108309060Y-77589928D01*
X108184578Y-77602188D01*
X108064880Y-77638498D01*
X107954566Y-77697463D01*
X107857875Y-77776815D01*
X107778523Y-77873506D01*
X107719558Y-77983820D01*
X107683248Y-78103518D01*
X107670988Y-78228000D01*
X106487296Y-78228000D01*
X106468923Y-78167433D01*
X106388012Y-78016058D01*
X106279123Y-77883377D01*
X106170000Y-77793822D01*
X106170000Y-77199116D01*
X106236567Y-77178923D01*
X106387942Y-77098012D01*
X106520623Y-76989123D01*
X106629512Y-76856442D01*
X106710423Y-76705067D01*
X106760248Y-76540816D01*
X106777072Y-76370000D01*
X106777072Y-75870000D01*
X106760248Y-75699184D01*
X106710423Y-75534933D01*
X106654336Y-75430000D01*
X107042809Y-75430000D01*
X107098560Y-75435491D01*
X107154311Y-75430000D01*
X107154312Y-75430000D01*
X107321059Y-75413577D01*
X107535007Y-75348676D01*
X107732183Y-75243284D01*
X107905009Y-75101449D01*
X107940556Y-75058135D01*
X109342836Y-73655856D01*
X109360401Y-73655606D01*
X109365130Y-73656072D01*
X113385130Y-73656072D01*
X113509612Y-73643812D01*
X113629310Y-73607502D01*
X113739624Y-73548537D01*
X113836315Y-73469185D01*
X113915667Y-73372494D01*
X113974632Y-73262180D01*
X114010942Y-73142482D01*
X114023202Y-73018000D01*
X114023202Y-72175451D01*
X114032130Y-72084800D01*
X114032130Y-69925800D01*
X114019870Y-69801318D01*
X113983560Y-69681620D01*
X113924595Y-69571306D01*
X113845243Y-69474615D01*
X113748552Y-69395263D01*
X113638238Y-69336298D01*
X113518540Y-69299988D01*
X113394058Y-69287728D01*
X112124058Y-69287728D01*
X111999576Y-69299988D01*
X111879878Y-69336298D01*
X111769564Y-69395263D01*
X111672873Y-69474615D01*
X111593521Y-69571306D01*
X111534556Y-69681620D01*
X111498246Y-69801318D01*
X111485986Y-69925800D01*
X111485986Y-70349928D01*
X109365130Y-70349928D01*
X109344697Y-70351940D01*
X109340606Y-70351914D01*
X107815000Y-68826309D01*
X107815000Y-64605131D01*
X108143131Y-64277000D01*
X123964525Y-64277000D01*
X124092111Y-64251622D01*
X124221550Y-64238873D01*
X124346012Y-64201118D01*
X124473601Y-64175739D01*
X124593787Y-64125956D01*
X124718250Y-64088201D01*
X124832958Y-64026889D01*
X124953141Y-63977107D01*
X125061301Y-63904837D01*
X125176011Y-63843523D01*
X125276556Y-63761008D01*
X125384715Y-63688738D01*
X125476699Y-63596754D01*
X125577241Y-63514241D01*
X125659756Y-63413697D01*
X125751738Y-63321715D01*
X125824008Y-63213556D01*
X125906523Y-63113011D01*
X125967837Y-62998301D01*
X126040107Y-62890141D01*
X126089889Y-62769958D01*
X126151201Y-62655250D01*
X126188956Y-62530787D01*
X126238739Y-62410601D01*
X126264118Y-62283012D01*
X126301873Y-62158550D01*
X126314622Y-62029111D01*
X126340000Y-61901525D01*
X126340000Y-61771442D01*
X126352749Y-61642000D01*
X126340000Y-61512558D01*
X126340000Y-61382475D01*
X126314622Y-61254889D01*
X126301873Y-61125450D01*
X126264118Y-61000988D01*
X126238739Y-60873399D01*
X126188956Y-60753213D01*
X126151201Y-60628750D01*
X126089889Y-60514042D01*
X126040107Y-60393859D01*
X125967837Y-60285699D01*
X125906523Y-60170989D01*
X125824008Y-60070444D01*
X125751738Y-59962285D01*
X125659754Y-59870301D01*
X125577241Y-59769759D01*
X125476698Y-59687245D01*
X125384715Y-59595262D01*
X125276556Y-59522992D01*
X125176011Y-59440477D01*
X125061301Y-59379163D01*
X124953141Y-59306893D01*
X124832958Y-59257111D01*
X124718250Y-59195799D01*
X124593787Y-59158044D01*
X124473601Y-59108261D01*
X124346012Y-59082882D01*
X124221550Y-59045127D01*
X124092111Y-59032378D01*
X123964525Y-59007000D01*
X104777434Y-59007000D01*
X104648000Y-58994252D01*
X104518566Y-59007000D01*
X104388475Y-59007000D01*
X104260889Y-59032378D01*
X104131450Y-59045127D01*
X104006988Y-59082882D01*
X103879399Y-59108261D01*
X103759213Y-59158044D01*
X103634750Y-59195799D01*
X103520042Y-59257111D01*
X103399859Y-59306893D01*
X103291699Y-59379163D01*
X103176989Y-59440477D01*
X103076444Y-59522992D01*
X102968285Y-59595262D01*
X102876302Y-59687245D01*
X102775759Y-59769759D01*
X102693246Y-59870301D01*
X102601262Y-59962285D01*
X102601260Y-59962288D01*
X94748302Y-67815246D01*
X94647760Y-67897759D01*
X94565247Y-67998301D01*
X94565245Y-67998303D01*
X94502885Y-68074289D01*
X94318478Y-68298989D01*
X94231205Y-68462265D01*
X94180001Y-68558062D01*
X94180001Y-59278535D01*
X94223443Y-59321977D01*
X94794235Y-59703368D01*
X95428464Y-59966074D01*
X96101759Y-60100001D01*
X96788243Y-60100001D01*
X97461538Y-59966074D01*
X98095767Y-59703368D01*
X98666559Y-59321977D01*
X99151977Y-58836559D01*
X99533368Y-58265767D01*
X99796074Y-57631538D01*
X99930001Y-56958243D01*
X99930001Y-56271759D01*
X99796074Y-55598464D01*
X99533368Y-54964235D01*
X99151977Y-54393443D01*
X99108535Y-54350001D01*
X128781466Y-54350001D01*
X128738024Y-54393443D01*
G37*
%TD.AperFunction*%
%TD*%
M02*
