%TF.GenerationSoftware,KiCad,Pcbnew,(5.1.9)-1*%
%TF.CreationDate,2021-06-05T23:50:19+09:00*%
%TF.ProjectId,universal_power_board,756e6976-6572-4736-916c-5f706f776572,rev?*%
%TF.SameCoordinates,Original*%
%TF.FileFunction,Copper,L2,Bot*%
%TF.FilePolarity,Positive*%
%FSLAX46Y46*%
G04 Gerber Fmt 4.6, Leading zero omitted, Abs format (unit mm)*
G04 Created by KiCad (PCBNEW (5.1.9)-1) date 2021-06-05 23:50:19*
%MOMM*%
%LPD*%
G01*
G04 APERTURE LIST*
%TA.AperFunction,NonConductor*%
%ADD10C,0.100000*%
%TD*%
%TA.AperFunction,ComponentPad*%
%ADD11C,5.700000*%
%TD*%
%TA.AperFunction,ComponentPad*%
%ADD12C,4.000000*%
%TD*%
%TA.AperFunction,ComponentPad*%
%ADD13R,3.800000X3.800000*%
%TD*%
%TA.AperFunction,ComponentPad*%
%ADD14O,1.200000X1.750000*%
%TD*%
%TA.AperFunction,ComponentPad*%
%ADD15O,1.750000X1.200000*%
%TD*%
%TA.AperFunction,ComponentPad*%
%ADD16C,3.800000*%
%TD*%
%TA.AperFunction,ViaPad*%
%ADD17C,0.800000*%
%TD*%
%TA.AperFunction,Conductor*%
%ADD18C,4.000000*%
%TD*%
%TA.AperFunction,Conductor*%
%ADD19C,1.000000*%
%TD*%
%TA.AperFunction,Conductor*%
%ADD20C,3.000000*%
%TD*%
%TA.AperFunction,Conductor*%
%ADD21C,0.254000*%
%TD*%
%TA.AperFunction,Conductor*%
%ADD22C,0.100000*%
%TD*%
G04 APERTURE END LIST*
D10*
G36*
X108010960Y-89070180D02*
G01*
X106822240Y-89814400D01*
X106027220Y-90159840D01*
X105674160Y-90152220D01*
X105709720Y-89301320D01*
X106817160Y-88531700D01*
X108016040Y-88473280D01*
X108010960Y-89070180D01*
G37*
X108010960Y-89070180D02*
X106822240Y-89814400D01*
X106027220Y-90159840D01*
X105674160Y-90152220D01*
X105709720Y-89301320D01*
X106817160Y-88531700D01*
X108016040Y-88473280D01*
X108010960Y-89070180D01*
G36*
X129776220Y-65064640D02*
G01*
X128628140Y-67104260D01*
X127327660Y-67134740D01*
X127424180Y-65737740D01*
X129014220Y-64879220D01*
X129776220Y-65064640D01*
G37*
X129776220Y-65064640D02*
X128628140Y-67104260D01*
X127327660Y-67134740D01*
X127424180Y-65737740D01*
X129014220Y-64879220D01*
X129776220Y-65064640D01*
G36*
X107363260Y-88496140D02*
G01*
X105130600Y-90020140D01*
X105117900Y-86659720D01*
X106293920Y-85247480D01*
X107363260Y-88496140D01*
G37*
X107363260Y-88496140D02*
X105130600Y-90020140D01*
X105117900Y-86659720D01*
X106293920Y-85247480D01*
X107363260Y-88496140D01*
G36*
X129026920Y-65135760D02*
G01*
X127728980Y-66177160D01*
X125425200Y-64462660D01*
X127398780Y-64274700D01*
X129026920Y-65135760D01*
G37*
X129026920Y-65135760D02*
X127728980Y-66177160D01*
X125425200Y-64462660D01*
X127398780Y-64274700D01*
X129026920Y-65135760D01*
G36*
X120944640Y-63111380D02*
G01*
X112501680Y-71821040D01*
X106489500Y-71821040D01*
X106596180Y-62870080D01*
X120944640Y-63111380D01*
G37*
X120944640Y-63111380D02*
X112501680Y-71821040D01*
X106489500Y-71821040D01*
X106596180Y-62870080D01*
X120944640Y-63111380D01*
G36*
X106680000Y-71501000D02*
G01*
X97917000Y-71882000D01*
X97917000Y-70485000D01*
X105283000Y-63500000D01*
X107315000Y-63373000D01*
X106680000Y-71501000D01*
G37*
X106680000Y-71501000D02*
X97917000Y-71882000D01*
X97917000Y-70485000D01*
X105283000Y-63500000D01*
X107315000Y-63373000D01*
X106680000Y-71501000D01*
D11*
%TO.P,H3,1*%
%TO.N,N/C*%
X96445001Y-56615001D03*
%TD*%
D12*
%TO.P,J12,2*%
%TO.N,+BATT*%
X123705000Y-61642000D03*
D13*
%TO.P,J12,1*%
%TO.N,GND*%
X123705000Y-56642000D03*
%TD*%
D12*
%TO.P,J11,2*%
%TO.N,+BATT*%
X117355000Y-61642000D03*
D13*
%TO.P,J11,1*%
%TO.N,GND*%
X117355000Y-56642000D03*
%TD*%
D14*
%TO.P,J10,2*%
%TO.N,GND*%
X123376440Y-91191080D03*
%TO.P,J10,1*%
%TO.N,+5V*%
%TA.AperFunction,ComponentPad*%
G36*
G01*
X120776440Y-91816081D02*
X120776440Y-90566079D01*
G75*
G02*
X121026439Y-90316080I249999J0D01*
G01*
X121726441Y-90316080D01*
G75*
G02*
X121976440Y-90566079I0J-249999D01*
G01*
X121976440Y-91816081D01*
G75*
G02*
X121726441Y-92066080I-249999J0D01*
G01*
X121026439Y-92066080D01*
G75*
G02*
X120776440Y-91816081I0J249999D01*
G01*
G37*
%TD.AperFunction*%
%TD*%
%TO.P,J9,2*%
%TO.N,GND*%
X116457480Y-91180920D03*
%TO.P,J9,1*%
%TO.N,+5V*%
%TA.AperFunction,ComponentPad*%
G36*
G01*
X113857480Y-91805921D02*
X113857480Y-90555919D01*
G75*
G02*
X114107479Y-90305920I249999J0D01*
G01*
X114807481Y-90305920D01*
G75*
G02*
X115057480Y-90555919I0J-249999D01*
G01*
X115057480Y-91805921D01*
G75*
G02*
X114807481Y-92055920I-249999J0D01*
G01*
X114107479Y-92055920D01*
G75*
G02*
X113857480Y-91805921I0J249999D01*
G01*
G37*
%TD.AperFunction*%
%TD*%
D15*
%TO.P,J8,2*%
%TO.N,GND*%
X131028440Y-83488780D03*
%TO.P,J8,1*%
%TO.N,+5V*%
%TA.AperFunction,ComponentPad*%
G36*
G01*
X131653441Y-86088780D02*
X130403439Y-86088780D01*
G75*
G02*
X130153440Y-85838781I0J249999D01*
G01*
X130153440Y-85138779D01*
G75*
G02*
X130403439Y-84888780I249999J0D01*
G01*
X131653441Y-84888780D01*
G75*
G02*
X131903440Y-85138779I0J-249999D01*
G01*
X131903440Y-85838781D01*
G75*
G02*
X131653441Y-86088780I-249999J0D01*
G01*
G37*
%TD.AperFunction*%
%TD*%
%TO.P,J7,2*%
%TO.N,GND*%
X131038600Y-76549500D03*
%TO.P,J7,1*%
%TO.N,+5V*%
%TA.AperFunction,ComponentPad*%
G36*
G01*
X131663601Y-79149500D02*
X130413599Y-79149500D01*
G75*
G02*
X130163600Y-78899501I0J249999D01*
G01*
X130163600Y-78199499D01*
G75*
G02*
X130413599Y-77949500I249999J0D01*
G01*
X131663601Y-77949500D01*
G75*
G02*
X131913600Y-78199499I0J-249999D01*
G01*
X131913600Y-78899501D01*
G75*
G02*
X131663601Y-79149500I-249999J0D01*
G01*
G37*
%TD.AperFunction*%
%TD*%
D12*
%TO.P,J6,2*%
%TO.N,+BATT*%
X111005000Y-61642000D03*
D13*
%TO.P,J6,1*%
%TO.N,GND*%
X111005000Y-56642000D03*
%TD*%
D15*
%TO.P,J5,2*%
%TO.N,GND*%
X131030980Y-69633080D03*
%TO.P,J5,1*%
%TO.N,+5V*%
%TA.AperFunction,ComponentPad*%
G36*
G01*
X131655981Y-72233080D02*
X130405979Y-72233080D01*
G75*
G02*
X130155980Y-71983081I0J249999D01*
G01*
X130155980Y-71283079D01*
G75*
G02*
X130405979Y-71033080I249999J0D01*
G01*
X131655981Y-71033080D01*
G75*
G02*
X131905980Y-71283079I0J-249999D01*
G01*
X131905980Y-71983081D01*
G75*
G02*
X131655981Y-72233080I-249999J0D01*
G01*
G37*
%TD.AperFunction*%
%TD*%
%TO.P,J4,2*%
%TO.N,GND*%
X131030980Y-62721740D03*
%TO.P,J4,1*%
%TO.N,+5V*%
%TA.AperFunction,ComponentPad*%
G36*
G01*
X131655981Y-65321740D02*
X130405979Y-65321740D01*
G75*
G02*
X130155980Y-65071741I0J249999D01*
G01*
X130155980Y-64371739D01*
G75*
G02*
X130405979Y-64121740I249999J0D01*
G01*
X131655981Y-64121740D01*
G75*
G02*
X131905980Y-64371739I0J-249999D01*
G01*
X131905980Y-65071741D01*
G75*
G02*
X131655981Y-65321740I-249999J0D01*
G01*
G37*
%TD.AperFunction*%
%TD*%
D12*
%TO.P,J3,2*%
%TO.N,+BATT*%
X104648000Y-61642000D03*
D13*
%TO.P,J3,1*%
%TO.N,GND*%
X104648000Y-56642000D03*
%TD*%
D16*
%TO.P,J2,2*%
%TO.N,+BATT*%
X96520000Y-72644000D03*
D13*
%TO.P,J2,1*%
%TO.N,GND*%
X96520000Y-77644000D03*
%TD*%
D14*
%TO.P,J1,3*%
%TO.N,GND*%
X109564940Y-91180920D03*
%TO.P,J1,2*%
%TO.N,Net-(J1-Pad2)*%
X107564940Y-91180920D03*
%TO.P,J1,1*%
%TO.N,+5V*%
%TA.AperFunction,ComponentPad*%
G36*
G01*
X104964940Y-91805921D02*
X104964940Y-90555919D01*
G75*
G02*
X105214939Y-90305920I249999J0D01*
G01*
X105914941Y-90305920D01*
G75*
G02*
X106164940Y-90555919I0J-249999D01*
G01*
X106164940Y-91805921D01*
G75*
G02*
X105914941Y-92055920I-249999J0D01*
G01*
X105214939Y-92055920D01*
G75*
G02*
X104964940Y-91805921I0J249999D01*
G01*
G37*
%TD.AperFunction*%
%TD*%
D11*
%TO.P,H4,1*%
%TO.N,N/C*%
X131445000Y-91615000D03*
%TD*%
%TO.P,H2,1*%
%TO.N,N/C*%
X131445000Y-56615001D03*
%TD*%
%TO.P,H1,1*%
%TO.N,N/C*%
X96445001Y-91615000D03*
%TD*%
D17*
%TO.N,GND*%
X112920780Y-75250040D03*
X114825780Y-75250040D03*
X116730780Y-75250040D03*
X116730780Y-77155040D03*
X114825780Y-77155040D03*
X112920780Y-77155040D03*
X112920780Y-79060040D03*
X114825780Y-79060040D03*
X116730780Y-79060040D03*
%TO.N,+BATT*%
X102870000Y-66040000D03*
X100965000Y-66040000D03*
X100965000Y-67945000D03*
X100965000Y-64135000D03*
X102870000Y-64135000D03*
X99060000Y-69850000D03*
X99060000Y-67945000D03*
X99060000Y-66040000D03*
X97155000Y-67945000D03*
X97155000Y-69850000D03*
X104775000Y-64135000D03*
X106680000Y-64135000D03*
X104775000Y-69850000D03*
X102870000Y-71755000D03*
X104775000Y-71755000D03*
X100965000Y-71755000D03*
X100965000Y-69850000D03*
X102870000Y-69850000D03*
X102870000Y-67945000D03*
X104775000Y-67945000D03*
X104775000Y-66040000D03*
X106680000Y-66040000D03*
X106680000Y-67945000D03*
X106680000Y-69850000D03*
X106680000Y-71755000D03*
%TO.N,+5V*%
X126730000Y-69850000D03*
X124825000Y-69850000D03*
X124825000Y-67945000D03*
X126730000Y-67945000D03*
X126730000Y-71755000D03*
X124825000Y-71755000D03*
X124825000Y-73660000D03*
X126730000Y-73660000D03*
X124825000Y-77470000D03*
X124825000Y-81280000D03*
X126730000Y-81280000D03*
X126730000Y-79375000D03*
X124825000Y-79375000D03*
X126730000Y-77470000D03*
X126730000Y-75565000D03*
X124825000Y-75565000D03*
X124825000Y-83185000D03*
X126730000Y-83185000D03*
X126730000Y-85090000D03*
X124825000Y-85090000D03*
%TD*%
D18*
%TO.N,GND*%
X104648000Y-56642000D02*
X123825000Y-56642000D01*
%TO.N,+BATT*%
X96520000Y-69770000D02*
X104648000Y-61642000D01*
X96520000Y-72644000D02*
X96520000Y-69770000D01*
D19*
X109173000Y-61642000D02*
X106680000Y-64135000D01*
X111125000Y-61642000D02*
X109173000Y-61642000D01*
X106680000Y-64135000D02*
X106680000Y-71755000D01*
X97409000Y-71755000D02*
X96520000Y-72644000D01*
X106680000Y-71755000D02*
X97409000Y-71755000D01*
D18*
X104648000Y-61642000D02*
X123705000Y-61642000D01*
D20*
X112703000Y-72644000D02*
X123705000Y-61642000D01*
X96520000Y-72644000D02*
X112703000Y-72644000D01*
D18*
%TO.N,+5V*%
X123848222Y-86730840D02*
X125786559Y-84792503D01*
D19*
X125907800Y-71633080D02*
X125786559Y-71754321D01*
X126225300Y-78549500D02*
X125786559Y-78988241D01*
X131038600Y-78549500D02*
X126225300Y-78549500D01*
X125090282Y-85488780D02*
X123848222Y-86730840D01*
X121376440Y-87076280D02*
X121031000Y-86730840D01*
X121376440Y-91191080D02*
X121376440Y-87076280D01*
D18*
X121031000Y-86730840D02*
X123848222Y-86730840D01*
D19*
X114457480Y-88064340D02*
X115790980Y-86730840D01*
X114457480Y-91180920D02*
X114457480Y-88064340D01*
X127431800Y-64721740D02*
X125786559Y-66366981D01*
X131030980Y-64721740D02*
X127431800Y-64721740D01*
X116484400Y-87340440D02*
X117094000Y-86730840D01*
D18*
X115790980Y-86730840D02*
X117094000Y-86730840D01*
D19*
X105564940Y-87500460D02*
X105564940Y-91180920D01*
X106334560Y-86730840D02*
X105564940Y-87500460D01*
D18*
X117094000Y-86730840D02*
X121031000Y-86730840D01*
X125786559Y-84792503D02*
X125786559Y-78988241D01*
X125786559Y-78988241D02*
X125786559Y-71754321D01*
X125786559Y-71754321D02*
X125786559Y-66366981D01*
X116517420Y-86713060D02*
X107061000Y-86713060D01*
D19*
X131028440Y-85488780D02*
X125090282Y-85488780D01*
X131030980Y-71633080D02*
X125907800Y-71633080D01*
%TD*%
D21*
%TO.N,+5V*%
X106329940Y-90845256D02*
X106329940Y-91328240D01*
X105400242Y-91328240D01*
X105452491Y-90796949D01*
X105508524Y-90816893D01*
X105513017Y-90817556D01*
X105517315Y-90819022D01*
X105579094Y-90827305D01*
X105640781Y-90836406D01*
X105645318Y-90836184D01*
X105649819Y-90836787D01*
X105659379Y-90837061D01*
X106012439Y-90844681D01*
X106021541Y-90843986D01*
X106030630Y-90844832D01*
X106088139Y-90838904D01*
X106145741Y-90834508D01*
X106154529Y-90832060D01*
X106163613Y-90831124D01*
X106218867Y-90814141D01*
X106274527Y-90798639D01*
X106282677Y-90794529D01*
X106291402Y-90791847D01*
X106300201Y-90788097D01*
X106337151Y-90772042D01*
X106329940Y-90845256D01*
%TA.AperFunction,Conductor*%
D22*
G36*
X106329940Y-90845256D02*
G01*
X106329940Y-91328240D01*
X105400242Y-91328240D01*
X105452491Y-90796949D01*
X105508524Y-90816893D01*
X105513017Y-90817556D01*
X105517315Y-90819022D01*
X105579094Y-90827305D01*
X105640781Y-90836406D01*
X105645318Y-90836184D01*
X105649819Y-90836787D01*
X105659379Y-90837061D01*
X106012439Y-90844681D01*
X106021541Y-90843986D01*
X106030630Y-90844832D01*
X106088139Y-90838904D01*
X106145741Y-90834508D01*
X106154529Y-90832060D01*
X106163613Y-90831124D01*
X106218867Y-90814141D01*
X106274527Y-90798639D01*
X106282677Y-90794529D01*
X106291402Y-90791847D01*
X106300201Y-90788097D01*
X106337151Y-90772042D01*
X106329940Y-90845256D01*
G37*
%TD.AperFunction*%
D21*
X131340539Y-68398080D02*
X130695315Y-68398080D01*
X130513878Y-68415950D01*
X130281079Y-68486569D01*
X130066531Y-68601247D01*
X129878478Y-68755578D01*
X129724147Y-68943631D01*
X129609469Y-69158179D01*
X129538850Y-69390978D01*
X129515005Y-69633080D01*
X129538850Y-69875182D01*
X129609469Y-70107981D01*
X129724147Y-70322529D01*
X129878478Y-70510582D01*
X130066531Y-70664913D01*
X130281079Y-70779591D01*
X130513878Y-70850210D01*
X130695315Y-70868080D01*
X131330716Y-70868080D01*
X131313033Y-75314500D01*
X130702935Y-75314500D01*
X130521498Y-75332370D01*
X130288699Y-75402989D01*
X130074151Y-75517667D01*
X129886098Y-75671998D01*
X129731767Y-75860051D01*
X129617089Y-76074599D01*
X129546470Y-76307398D01*
X129522625Y-76549500D01*
X129546470Y-76791602D01*
X129617089Y-77024401D01*
X129731767Y-77238949D01*
X129886098Y-77427002D01*
X130074151Y-77581333D01*
X130288699Y-77696011D01*
X130521498Y-77766630D01*
X130702935Y-77784500D01*
X131303210Y-77784500D01*
X131285437Y-82253780D01*
X130692775Y-82253780D01*
X130511338Y-82271650D01*
X130278539Y-82342269D01*
X130063991Y-82456947D01*
X129875938Y-82611278D01*
X129721607Y-82799331D01*
X129606929Y-83013879D01*
X129536310Y-83246678D01*
X129512465Y-83488780D01*
X129536310Y-83730882D01*
X129606929Y-83963681D01*
X129721607Y-84178229D01*
X129875938Y-84366282D01*
X130063991Y-84520613D01*
X130278539Y-84635291D01*
X130511338Y-84705910D01*
X130692775Y-84723780D01*
X131275614Y-84723780D01*
X131272537Y-85497439D01*
X124502397Y-90402725D01*
X124408273Y-90226631D01*
X124253942Y-90038578D01*
X124065888Y-89884247D01*
X123851340Y-89769569D01*
X123618541Y-89698950D01*
X123376440Y-89675105D01*
X123134338Y-89698950D01*
X122901539Y-89769569D01*
X122686991Y-89884247D01*
X122498938Y-90038578D01*
X122344607Y-90226632D01*
X122229929Y-90441180D01*
X122159310Y-90673979D01*
X122141440Y-90855416D01*
X122141440Y-91328240D01*
X117692480Y-91328240D01*
X117692480Y-90845255D01*
X117674610Y-90663818D01*
X117603991Y-90431019D01*
X117489313Y-90216471D01*
X117334982Y-90028418D01*
X117146928Y-89874087D01*
X116932380Y-89759409D01*
X116699581Y-89688790D01*
X116457480Y-89664945D01*
X116215378Y-89688790D01*
X115982579Y-89759409D01*
X115768031Y-89874087D01*
X115579978Y-90028418D01*
X115425647Y-90216472D01*
X115310969Y-90431020D01*
X115240350Y-90663819D01*
X115222480Y-90845256D01*
X115222480Y-91328240D01*
X110799940Y-91328240D01*
X110799940Y-90845255D01*
X110782070Y-90663818D01*
X110711451Y-90431019D01*
X110596773Y-90216471D01*
X110442442Y-90028418D01*
X110254388Y-89874087D01*
X110039840Y-89759409D01*
X109807041Y-89688790D01*
X109564940Y-89664945D01*
X109322838Y-89688790D01*
X109090039Y-89759409D01*
X108875491Y-89874087D01*
X108687438Y-90028418D01*
X108564940Y-90177683D01*
X108442442Y-90028418D01*
X108254388Y-89874087D01*
X108126747Y-89805862D01*
X108374455Y-89650780D01*
X108377606Y-89648349D01*
X108381149Y-89646535D01*
X108430513Y-89607532D01*
X108480305Y-89569119D01*
X108482923Y-89566123D01*
X108486047Y-89563655D01*
X108526903Y-89515798D01*
X108568277Y-89468454D01*
X108570263Y-89465007D01*
X108572849Y-89461978D01*
X108603629Y-89407101D01*
X108635022Y-89352619D01*
X108636301Y-89348851D01*
X108638249Y-89345378D01*
X108657785Y-89285564D01*
X108677996Y-89226026D01*
X108678519Y-89222082D01*
X108679755Y-89218297D01*
X108687300Y-89155834D01*
X108695563Y-89093496D01*
X108695310Y-89089524D01*
X108695787Y-89085573D01*
X108695935Y-89076010D01*
X108701015Y-88479109D01*
X108699478Y-88461934D01*
X108700444Y-88444717D01*
X108693532Y-88395470D01*
X108689102Y-88345952D01*
X108684260Y-88329408D01*
X108681863Y-88312327D01*
X108665517Y-88265361D01*
X108651553Y-88217646D01*
X108643587Y-88202352D01*
X108637919Y-88186066D01*
X108612758Y-88143162D01*
X108589796Y-88099076D01*
X108579018Y-88085629D01*
X108570290Y-88070746D01*
X108537269Y-88033541D01*
X108506186Y-87994760D01*
X108492996Y-87983658D01*
X108481548Y-87970759D01*
X108441947Y-87940689D01*
X108403906Y-87908669D01*
X108388808Y-87900339D01*
X108375075Y-87889911D01*
X108330377Y-87868100D01*
X108286852Y-87844086D01*
X108270430Y-87838849D01*
X108254927Y-87831284D01*
X108206846Y-87818571D01*
X108159484Y-87803467D01*
X108142352Y-87801519D01*
X108125681Y-87797111D01*
X108076056Y-87793980D01*
X108026651Y-87788362D01*
X108009465Y-87789779D01*
X107992257Y-87788693D01*
X107982701Y-87789092D01*
X107853750Y-87795376D01*
X107398056Y-86410978D01*
X124437967Y-85275139D01*
X124462526Y-85271056D01*
X124485817Y-85262260D01*
X124506944Y-85249090D01*
X124525096Y-85232051D01*
X124539576Y-85211798D01*
X124549825Y-85189109D01*
X124555452Y-85164857D01*
X124556519Y-85147852D01*
X124473066Y-66474531D01*
X126027733Y-65764949D01*
X126701046Y-66266036D01*
X126644289Y-67087525D01*
X126645131Y-67116813D01*
X126642753Y-67146009D01*
X126647049Y-67183467D01*
X126648133Y-67221159D01*
X126654647Y-67249720D01*
X126657985Y-67278827D01*
X126669477Y-67314743D01*
X126677860Y-67351500D01*
X126689797Y-67378251D01*
X126698726Y-67406157D01*
X126716976Y-67439159D01*
X126732338Y-67473585D01*
X126749241Y-67497505D01*
X126763422Y-67523148D01*
X126787734Y-67551976D01*
X126809491Y-67582764D01*
X126830721Y-67602948D01*
X126849610Y-67625345D01*
X126879055Y-67648899D01*
X126906381Y-67674878D01*
X126931130Y-67690555D01*
X126954008Y-67708856D01*
X126987468Y-67726243D01*
X127019318Y-67746418D01*
X127046636Y-67756988D01*
X127072636Y-67770498D01*
X127108840Y-67781055D01*
X127143999Y-67794659D01*
X127172851Y-67799722D01*
X127200979Y-67807924D01*
X127238542Y-67811248D01*
X127275676Y-67817764D01*
X127304964Y-67817126D01*
X127334147Y-67819709D01*
X127343710Y-67819552D01*
X128644190Y-67789072D01*
X128658963Y-67787273D01*
X128673840Y-67787734D01*
X128725215Y-67779206D01*
X128776899Y-67772912D01*
X128791040Y-67768278D01*
X128805723Y-67765841D01*
X128854459Y-67747498D01*
X128903940Y-67731284D01*
X128916914Y-67723991D01*
X128930843Y-67718748D01*
X128975093Y-67691285D01*
X129020477Y-67665772D01*
X129031784Y-67656100D01*
X129044433Y-67648250D01*
X129082511Y-67612711D01*
X129122070Y-67578873D01*
X129131283Y-67567189D01*
X129142166Y-67557032D01*
X129172608Y-67514784D01*
X129204850Y-67473896D01*
X129211621Y-67460640D01*
X129220320Y-67448567D01*
X129225070Y-67440265D01*
X130373150Y-65400646D01*
X130383046Y-65378182D01*
X130395638Y-65357122D01*
X130409931Y-65317152D01*
X130427045Y-65278301D01*
X130432388Y-65254347D01*
X130440651Y-65231240D01*
X130446908Y-65189257D01*
X130456151Y-65147820D01*
X130456740Y-65123284D01*
X130460357Y-65099012D01*
X130458340Y-65056608D01*
X130459358Y-65014170D01*
X130455170Y-64989989D01*
X130454004Y-64965474D01*
X130443788Y-64924266D01*
X130436545Y-64882443D01*
X130427742Y-64859540D01*
X130421835Y-64835714D01*
X130403810Y-64797277D01*
X130388580Y-64757654D01*
X130375491Y-64736890D01*
X130365073Y-64714674D01*
X130339927Y-64680471D01*
X130337126Y-64676027D01*
X131355565Y-64619760D01*
X131340539Y-68398080D01*
%TA.AperFunction,Conductor*%
D22*
G36*
X131340539Y-68398080D02*
G01*
X130695315Y-68398080D01*
X130513878Y-68415950D01*
X130281079Y-68486569D01*
X130066531Y-68601247D01*
X129878478Y-68755578D01*
X129724147Y-68943631D01*
X129609469Y-69158179D01*
X129538850Y-69390978D01*
X129515005Y-69633080D01*
X129538850Y-69875182D01*
X129609469Y-70107981D01*
X129724147Y-70322529D01*
X129878478Y-70510582D01*
X130066531Y-70664913D01*
X130281079Y-70779591D01*
X130513878Y-70850210D01*
X130695315Y-70868080D01*
X131330716Y-70868080D01*
X131313033Y-75314500D01*
X130702935Y-75314500D01*
X130521498Y-75332370D01*
X130288699Y-75402989D01*
X130074151Y-75517667D01*
X129886098Y-75671998D01*
X129731767Y-75860051D01*
X129617089Y-76074599D01*
X129546470Y-76307398D01*
X129522625Y-76549500D01*
X129546470Y-76791602D01*
X129617089Y-77024401D01*
X129731767Y-77238949D01*
X129886098Y-77427002D01*
X130074151Y-77581333D01*
X130288699Y-77696011D01*
X130521498Y-77766630D01*
X130702935Y-77784500D01*
X131303210Y-77784500D01*
X131285437Y-82253780D01*
X130692775Y-82253780D01*
X130511338Y-82271650D01*
X130278539Y-82342269D01*
X130063991Y-82456947D01*
X129875938Y-82611278D01*
X129721607Y-82799331D01*
X129606929Y-83013879D01*
X129536310Y-83246678D01*
X129512465Y-83488780D01*
X129536310Y-83730882D01*
X129606929Y-83963681D01*
X129721607Y-84178229D01*
X129875938Y-84366282D01*
X130063991Y-84520613D01*
X130278539Y-84635291D01*
X130511338Y-84705910D01*
X130692775Y-84723780D01*
X131275614Y-84723780D01*
X131272537Y-85497439D01*
X124502397Y-90402725D01*
X124408273Y-90226631D01*
X124253942Y-90038578D01*
X124065888Y-89884247D01*
X123851340Y-89769569D01*
X123618541Y-89698950D01*
X123376440Y-89675105D01*
X123134338Y-89698950D01*
X122901539Y-89769569D01*
X122686991Y-89884247D01*
X122498938Y-90038578D01*
X122344607Y-90226632D01*
X122229929Y-90441180D01*
X122159310Y-90673979D01*
X122141440Y-90855416D01*
X122141440Y-91328240D01*
X117692480Y-91328240D01*
X117692480Y-90845255D01*
X117674610Y-90663818D01*
X117603991Y-90431019D01*
X117489313Y-90216471D01*
X117334982Y-90028418D01*
X117146928Y-89874087D01*
X116932380Y-89759409D01*
X116699581Y-89688790D01*
X116457480Y-89664945D01*
X116215378Y-89688790D01*
X115982579Y-89759409D01*
X115768031Y-89874087D01*
X115579978Y-90028418D01*
X115425647Y-90216472D01*
X115310969Y-90431020D01*
X115240350Y-90663819D01*
X115222480Y-90845256D01*
X115222480Y-91328240D01*
X110799940Y-91328240D01*
X110799940Y-90845255D01*
X110782070Y-90663818D01*
X110711451Y-90431019D01*
X110596773Y-90216471D01*
X110442442Y-90028418D01*
X110254388Y-89874087D01*
X110039840Y-89759409D01*
X109807041Y-89688790D01*
X109564940Y-89664945D01*
X109322838Y-89688790D01*
X109090039Y-89759409D01*
X108875491Y-89874087D01*
X108687438Y-90028418D01*
X108564940Y-90177683D01*
X108442442Y-90028418D01*
X108254388Y-89874087D01*
X108126747Y-89805862D01*
X108374455Y-89650780D01*
X108377606Y-89648349D01*
X108381149Y-89646535D01*
X108430513Y-89607532D01*
X108480305Y-89569119D01*
X108482923Y-89566123D01*
X108486047Y-89563655D01*
X108526903Y-89515798D01*
X108568277Y-89468454D01*
X108570263Y-89465007D01*
X108572849Y-89461978D01*
X108603629Y-89407101D01*
X108635022Y-89352619D01*
X108636301Y-89348851D01*
X108638249Y-89345378D01*
X108657785Y-89285564D01*
X108677996Y-89226026D01*
X108678519Y-89222082D01*
X108679755Y-89218297D01*
X108687300Y-89155834D01*
X108695563Y-89093496D01*
X108695310Y-89089524D01*
X108695787Y-89085573D01*
X108695935Y-89076010D01*
X108701015Y-88479109D01*
X108699478Y-88461934D01*
X108700444Y-88444717D01*
X108693532Y-88395470D01*
X108689102Y-88345952D01*
X108684260Y-88329408D01*
X108681863Y-88312327D01*
X108665517Y-88265361D01*
X108651553Y-88217646D01*
X108643587Y-88202352D01*
X108637919Y-88186066D01*
X108612758Y-88143162D01*
X108589796Y-88099076D01*
X108579018Y-88085629D01*
X108570290Y-88070746D01*
X108537269Y-88033541D01*
X108506186Y-87994760D01*
X108492996Y-87983658D01*
X108481548Y-87970759D01*
X108441947Y-87940689D01*
X108403906Y-87908669D01*
X108388808Y-87900339D01*
X108375075Y-87889911D01*
X108330377Y-87868100D01*
X108286852Y-87844086D01*
X108270430Y-87838849D01*
X108254927Y-87831284D01*
X108206846Y-87818571D01*
X108159484Y-87803467D01*
X108142352Y-87801519D01*
X108125681Y-87797111D01*
X108076056Y-87793980D01*
X108026651Y-87788362D01*
X108009465Y-87789779D01*
X107992257Y-87788693D01*
X107982701Y-87789092D01*
X107853750Y-87795376D01*
X107398056Y-86410978D01*
X124437967Y-85275139D01*
X124462526Y-85271056D01*
X124485817Y-85262260D01*
X124506944Y-85249090D01*
X124525096Y-85232051D01*
X124539576Y-85211798D01*
X124549825Y-85189109D01*
X124555452Y-85164857D01*
X124556519Y-85147852D01*
X124473066Y-66474531D01*
X126027733Y-65764949D01*
X126701046Y-66266036D01*
X126644289Y-67087525D01*
X126645131Y-67116813D01*
X126642753Y-67146009D01*
X126647049Y-67183467D01*
X126648133Y-67221159D01*
X126654647Y-67249720D01*
X126657985Y-67278827D01*
X126669477Y-67314743D01*
X126677860Y-67351500D01*
X126689797Y-67378251D01*
X126698726Y-67406157D01*
X126716976Y-67439159D01*
X126732338Y-67473585D01*
X126749241Y-67497505D01*
X126763422Y-67523148D01*
X126787734Y-67551976D01*
X126809491Y-67582764D01*
X126830721Y-67602948D01*
X126849610Y-67625345D01*
X126879055Y-67648899D01*
X126906381Y-67674878D01*
X126931130Y-67690555D01*
X126954008Y-67708856D01*
X126987468Y-67726243D01*
X127019318Y-67746418D01*
X127046636Y-67756988D01*
X127072636Y-67770498D01*
X127108840Y-67781055D01*
X127143999Y-67794659D01*
X127172851Y-67799722D01*
X127200979Y-67807924D01*
X127238542Y-67811248D01*
X127275676Y-67817764D01*
X127304964Y-67817126D01*
X127334147Y-67819709D01*
X127343710Y-67819552D01*
X128644190Y-67789072D01*
X128658963Y-67787273D01*
X128673840Y-67787734D01*
X128725215Y-67779206D01*
X128776899Y-67772912D01*
X128791040Y-67768278D01*
X128805723Y-67765841D01*
X128854459Y-67747498D01*
X128903940Y-67731284D01*
X128916914Y-67723991D01*
X128930843Y-67718748D01*
X128975093Y-67691285D01*
X129020477Y-67665772D01*
X129031784Y-67656100D01*
X129044433Y-67648250D01*
X129082511Y-67612711D01*
X129122070Y-67578873D01*
X129131283Y-67567189D01*
X129142166Y-67557032D01*
X129172608Y-67514784D01*
X129204850Y-67473896D01*
X129211621Y-67460640D01*
X129220320Y-67448567D01*
X129225070Y-67440265D01*
X130373150Y-65400646D01*
X130383046Y-65378182D01*
X130395638Y-65357122D01*
X130409931Y-65317152D01*
X130427045Y-65278301D01*
X130432388Y-65254347D01*
X130440651Y-65231240D01*
X130446908Y-65189257D01*
X130456151Y-65147820D01*
X130456740Y-65123284D01*
X130460357Y-65099012D01*
X130458340Y-65056608D01*
X130459358Y-65014170D01*
X130455170Y-64989989D01*
X130454004Y-64965474D01*
X130443788Y-64924266D01*
X130436545Y-64882443D01*
X130427742Y-64859540D01*
X130421835Y-64835714D01*
X130403810Y-64797277D01*
X130388580Y-64757654D01*
X130375491Y-64736890D01*
X130365073Y-64714674D01*
X130339927Y-64680471D01*
X130337126Y-64676027D01*
X131355565Y-64619760D01*
X131340539Y-68398080D01*
G37*
%TD.AperFunction*%
%TD*%
D21*
%TO.N,GND*%
X128738024Y-54393443D02*
X128356633Y-54964235D01*
X128093927Y-55598464D01*
X127960000Y-56271759D01*
X127960000Y-56958243D01*
X128093927Y-57631538D01*
X128356633Y-58265767D01*
X128738024Y-58836559D01*
X129223442Y-59321977D01*
X129794234Y-59703368D01*
X130428463Y-59966074D01*
X131101758Y-60100001D01*
X131788242Y-60100001D01*
X132461537Y-59966074D01*
X133095766Y-59703368D01*
X133666558Y-59321977D01*
X133710000Y-59278535D01*
X133710001Y-88951467D01*
X133666558Y-88908024D01*
X133095766Y-88526633D01*
X132461537Y-88263927D01*
X131788242Y-88130000D01*
X131101758Y-88130000D01*
X130428463Y-88263927D01*
X129794234Y-88526633D01*
X129223442Y-88908024D01*
X128738024Y-89393442D01*
X128356633Y-89964234D01*
X128093927Y-90598463D01*
X127960000Y-91271758D01*
X127960000Y-91958242D01*
X128093927Y-92631537D01*
X128356633Y-93265766D01*
X128738024Y-93836558D01*
X128781466Y-93880000D01*
X99108535Y-93880000D01*
X99151977Y-93836558D01*
X99533368Y-93265766D01*
X99796074Y-92631537D01*
X99930001Y-91958242D01*
X99930001Y-91271758D01*
X99796074Y-90598463D01*
X99533368Y-89964234D01*
X99151977Y-89393442D01*
X98666559Y-88908024D01*
X98095767Y-88526633D01*
X97461538Y-88263927D01*
X96788243Y-88130000D01*
X96101759Y-88130000D01*
X95428464Y-88263927D01*
X94794235Y-88526633D01*
X94223443Y-88908024D01*
X94180001Y-88951466D01*
X94180001Y-73855939D01*
X94318477Y-74115010D01*
X94647759Y-74516241D01*
X95048989Y-74845523D01*
X95506750Y-75090201D01*
X96003450Y-75240873D01*
X96520000Y-75291749D01*
X97036549Y-75240873D01*
X97533249Y-75090201D01*
X97991010Y-74845523D01*
X98072068Y-74779000D01*
X112598128Y-74779000D01*
X112703000Y-74789329D01*
X112807872Y-74779000D01*
X112807882Y-74779000D01*
X113121533Y-74748108D01*
X113523982Y-74626026D01*
X113894881Y-74427777D01*
X114219977Y-74160977D01*
X114286837Y-74079508D01*
X124117195Y-64249151D01*
X124221550Y-64238873D01*
X124228757Y-64236687D01*
X123914319Y-64494740D01*
X123585037Y-64895970D01*
X123340359Y-65353731D01*
X123189687Y-65850431D01*
X123151560Y-66237539D01*
X123151559Y-71883762D01*
X123151560Y-71883772D01*
X123151559Y-79117682D01*
X123151560Y-79117692D01*
X123151559Y-83701050D01*
X122756770Y-84095840D01*
X116827384Y-84095840D01*
X116646862Y-84078060D01*
X106931558Y-84078060D01*
X106544450Y-84116187D01*
X106047750Y-84266859D01*
X105589989Y-84511537D01*
X105188759Y-84840819D01*
X104859477Y-85242049D01*
X104614799Y-85699810D01*
X104464127Y-86196510D01*
X104413251Y-86713060D01*
X104433889Y-86922597D01*
X104435643Y-87386804D01*
X104424449Y-87500460D01*
X104429940Y-87556212D01*
X104429941Y-90149704D01*
X104394468Y-90216069D01*
X104343932Y-90382665D01*
X104326868Y-90555919D01*
X104326868Y-91805921D01*
X104343932Y-91979175D01*
X104394468Y-92145771D01*
X104476535Y-92299307D01*
X104586978Y-92433882D01*
X104721553Y-92544325D01*
X104875089Y-92626392D01*
X105041685Y-92676928D01*
X105214939Y-92693992D01*
X105914941Y-92693992D01*
X106088195Y-92676928D01*
X106254791Y-92626392D01*
X106408327Y-92544325D01*
X106542902Y-92433882D01*
X106653345Y-92299307D01*
X106655750Y-92294808D01*
X106687439Y-92333422D01*
X106875492Y-92487753D01*
X107090040Y-92602431D01*
X107322839Y-92673050D01*
X107564940Y-92696895D01*
X107807042Y-92673050D01*
X108039841Y-92602431D01*
X108254389Y-92487753D01*
X108442442Y-92333422D01*
X108596773Y-92145369D01*
X108626240Y-92090240D01*
X113270163Y-92090240D01*
X113287008Y-92145771D01*
X113369075Y-92299307D01*
X113479518Y-92433882D01*
X113614093Y-92544325D01*
X113767629Y-92626392D01*
X113934225Y-92676928D01*
X114107479Y-92693992D01*
X114807481Y-92693992D01*
X114980735Y-92676928D01*
X115147331Y-92626392D01*
X115300867Y-92544325D01*
X115435442Y-92433882D01*
X115545885Y-92299307D01*
X115627952Y-92145771D01*
X115644797Y-92090240D01*
X120186041Y-92090240D01*
X120205968Y-92155931D01*
X120288035Y-92309467D01*
X120398478Y-92444042D01*
X120533053Y-92554485D01*
X120686589Y-92636552D01*
X120853185Y-92687088D01*
X121026439Y-92704152D01*
X121726441Y-92704152D01*
X121899695Y-92687088D01*
X122066291Y-92636552D01*
X122219827Y-92554485D01*
X122354402Y-92444042D01*
X122464845Y-92309467D01*
X122546912Y-92155931D01*
X122566839Y-92090240D01*
X123266200Y-92090240D01*
X123413631Y-92072888D01*
X123531295Y-92032258D01*
X123638772Y-91969453D01*
X130874465Y-86726852D01*
X131653441Y-86726852D01*
X131826695Y-86709788D01*
X131993291Y-86659252D01*
X132146827Y-86577185D01*
X132281402Y-86466742D01*
X132391845Y-86332167D01*
X132473912Y-86178631D01*
X132524448Y-86012035D01*
X132541512Y-85838781D01*
X132541512Y-85138779D01*
X132524448Y-84965525D01*
X132473912Y-84798929D01*
X132391845Y-84645393D01*
X132281402Y-84510818D01*
X132146827Y-84400375D01*
X132039135Y-84342812D01*
X132057635Y-79691010D01*
X132156987Y-79637905D01*
X132291562Y-79527462D01*
X132402005Y-79392887D01*
X132484072Y-79239351D01*
X132534608Y-79072755D01*
X132551672Y-78899501D01*
X132551672Y-78199499D01*
X132534608Y-78026245D01*
X132484072Y-77859649D01*
X132402005Y-77706113D01*
X132291562Y-77571538D01*
X132156987Y-77461095D01*
X132066695Y-77412833D01*
X132085215Y-72755775D01*
X132149367Y-72721485D01*
X132283942Y-72611042D01*
X132394385Y-72476467D01*
X132476452Y-72322931D01*
X132526988Y-72156335D01*
X132544052Y-71983081D01*
X132544052Y-71283079D01*
X132526988Y-71109825D01*
X132476452Y-70943229D01*
X132394385Y-70789693D01*
X132283942Y-70655118D01*
X132149367Y-70544675D01*
X132094126Y-70515148D01*
X132112759Y-65829712D01*
X132149367Y-65810145D01*
X132283942Y-65699702D01*
X132394385Y-65565127D01*
X132476452Y-65411591D01*
X132526988Y-65244995D01*
X132544052Y-65071741D01*
X132544052Y-64371739D01*
X132526988Y-64198485D01*
X132476452Y-64031889D01*
X132394385Y-63878353D01*
X132283942Y-63743778D01*
X132149367Y-63633335D01*
X131995831Y-63551268D01*
X131829235Y-63500732D01*
X131655981Y-63483668D01*
X130405979Y-63483668D01*
X130232725Y-63500732D01*
X130066129Y-63551268D01*
X129999766Y-63586740D01*
X127487551Y-63586740D01*
X127431799Y-63581249D01*
X127209300Y-63603163D01*
X127202171Y-63605325D01*
X125894512Y-63729864D01*
X125786559Y-63719232D01*
X125270010Y-63770108D01*
X125262803Y-63772294D01*
X125276556Y-63761008D01*
X125384715Y-63688738D01*
X125476699Y-63596754D01*
X125577241Y-63514241D01*
X125659756Y-63413697D01*
X125751738Y-63321715D01*
X125824008Y-63213556D01*
X125906523Y-63113011D01*
X125967837Y-62998301D01*
X126040107Y-62890141D01*
X126089889Y-62769958D01*
X126151201Y-62655250D01*
X126188956Y-62530787D01*
X126238739Y-62410601D01*
X126264118Y-62283012D01*
X126301873Y-62158550D01*
X126314622Y-62029111D01*
X126340000Y-61901525D01*
X126340000Y-61771442D01*
X126352749Y-61642000D01*
X126340000Y-61512558D01*
X126340000Y-61382475D01*
X126314622Y-61254889D01*
X126301873Y-61125450D01*
X126264118Y-61000988D01*
X126238739Y-60873399D01*
X126188956Y-60753213D01*
X126151201Y-60628750D01*
X126089889Y-60514042D01*
X126040107Y-60393859D01*
X125967837Y-60285699D01*
X125906523Y-60170989D01*
X125824008Y-60070444D01*
X125751738Y-59962285D01*
X125659754Y-59870301D01*
X125577241Y-59769759D01*
X125476698Y-59687245D01*
X125384715Y-59595262D01*
X125276556Y-59522992D01*
X125176011Y-59440477D01*
X125061301Y-59379163D01*
X124953141Y-59306893D01*
X124832958Y-59257111D01*
X124718250Y-59195799D01*
X124593787Y-59158044D01*
X124473601Y-59108261D01*
X124346012Y-59082882D01*
X124221550Y-59045127D01*
X124092111Y-59032378D01*
X123964525Y-59007000D01*
X104777434Y-59007000D01*
X104648000Y-58994252D01*
X104518566Y-59007000D01*
X104388475Y-59007000D01*
X104260889Y-59032378D01*
X104131450Y-59045127D01*
X104006988Y-59082882D01*
X103879399Y-59108261D01*
X103759213Y-59158044D01*
X103634750Y-59195799D01*
X103520042Y-59257111D01*
X103399859Y-59306893D01*
X103291699Y-59379163D01*
X103176989Y-59440477D01*
X103076444Y-59522992D01*
X102968285Y-59595262D01*
X102876302Y-59687245D01*
X102775759Y-59769759D01*
X102693246Y-59870301D01*
X102601262Y-59962285D01*
X102601260Y-59962288D01*
X94748302Y-67815246D01*
X94647760Y-67897759D01*
X94318478Y-68298989D01*
X94245642Y-68435256D01*
X94180001Y-68558062D01*
X94180001Y-59278535D01*
X94223443Y-59321977D01*
X94794235Y-59703368D01*
X95428464Y-59966074D01*
X96101759Y-60100001D01*
X96788243Y-60100001D01*
X97461538Y-59966074D01*
X98095767Y-59703368D01*
X98666559Y-59321977D01*
X99151977Y-58836559D01*
X99533368Y-58265767D01*
X99796074Y-57631538D01*
X99930001Y-56958243D01*
X99930001Y-56271759D01*
X99796074Y-55598464D01*
X99533368Y-54964235D01*
X99151977Y-54393443D01*
X99108535Y-54350001D01*
X128781466Y-54350001D01*
X128738024Y-54393443D01*
%TA.AperFunction,Conductor*%
D22*
G36*
X128738024Y-54393443D02*
G01*
X128356633Y-54964235D01*
X128093927Y-55598464D01*
X127960000Y-56271759D01*
X127960000Y-56958243D01*
X128093927Y-57631538D01*
X128356633Y-58265767D01*
X128738024Y-58836559D01*
X129223442Y-59321977D01*
X129794234Y-59703368D01*
X130428463Y-59966074D01*
X131101758Y-60100001D01*
X131788242Y-60100001D01*
X132461537Y-59966074D01*
X133095766Y-59703368D01*
X133666558Y-59321977D01*
X133710000Y-59278535D01*
X133710001Y-88951467D01*
X133666558Y-88908024D01*
X133095766Y-88526633D01*
X132461537Y-88263927D01*
X131788242Y-88130000D01*
X131101758Y-88130000D01*
X130428463Y-88263927D01*
X129794234Y-88526633D01*
X129223442Y-88908024D01*
X128738024Y-89393442D01*
X128356633Y-89964234D01*
X128093927Y-90598463D01*
X127960000Y-91271758D01*
X127960000Y-91958242D01*
X128093927Y-92631537D01*
X128356633Y-93265766D01*
X128738024Y-93836558D01*
X128781466Y-93880000D01*
X99108535Y-93880000D01*
X99151977Y-93836558D01*
X99533368Y-93265766D01*
X99796074Y-92631537D01*
X99930001Y-91958242D01*
X99930001Y-91271758D01*
X99796074Y-90598463D01*
X99533368Y-89964234D01*
X99151977Y-89393442D01*
X98666559Y-88908024D01*
X98095767Y-88526633D01*
X97461538Y-88263927D01*
X96788243Y-88130000D01*
X96101759Y-88130000D01*
X95428464Y-88263927D01*
X94794235Y-88526633D01*
X94223443Y-88908024D01*
X94180001Y-88951466D01*
X94180001Y-73855939D01*
X94318477Y-74115010D01*
X94647759Y-74516241D01*
X95048989Y-74845523D01*
X95506750Y-75090201D01*
X96003450Y-75240873D01*
X96520000Y-75291749D01*
X97036549Y-75240873D01*
X97533249Y-75090201D01*
X97991010Y-74845523D01*
X98072068Y-74779000D01*
X112598128Y-74779000D01*
X112703000Y-74789329D01*
X112807872Y-74779000D01*
X112807882Y-74779000D01*
X113121533Y-74748108D01*
X113523982Y-74626026D01*
X113894881Y-74427777D01*
X114219977Y-74160977D01*
X114286837Y-74079508D01*
X124117195Y-64249151D01*
X124221550Y-64238873D01*
X124228757Y-64236687D01*
X123914319Y-64494740D01*
X123585037Y-64895970D01*
X123340359Y-65353731D01*
X123189687Y-65850431D01*
X123151560Y-66237539D01*
X123151559Y-71883762D01*
X123151560Y-71883772D01*
X123151559Y-79117682D01*
X123151560Y-79117692D01*
X123151559Y-83701050D01*
X122756770Y-84095840D01*
X116827384Y-84095840D01*
X116646862Y-84078060D01*
X106931558Y-84078060D01*
X106544450Y-84116187D01*
X106047750Y-84266859D01*
X105589989Y-84511537D01*
X105188759Y-84840819D01*
X104859477Y-85242049D01*
X104614799Y-85699810D01*
X104464127Y-86196510D01*
X104413251Y-86713060D01*
X104433889Y-86922597D01*
X104435643Y-87386804D01*
X104424449Y-87500460D01*
X104429940Y-87556212D01*
X104429941Y-90149704D01*
X104394468Y-90216069D01*
X104343932Y-90382665D01*
X104326868Y-90555919D01*
X104326868Y-91805921D01*
X104343932Y-91979175D01*
X104394468Y-92145771D01*
X104476535Y-92299307D01*
X104586978Y-92433882D01*
X104721553Y-92544325D01*
X104875089Y-92626392D01*
X105041685Y-92676928D01*
X105214939Y-92693992D01*
X105914941Y-92693992D01*
X106088195Y-92676928D01*
X106254791Y-92626392D01*
X106408327Y-92544325D01*
X106542902Y-92433882D01*
X106653345Y-92299307D01*
X106655750Y-92294808D01*
X106687439Y-92333422D01*
X106875492Y-92487753D01*
X107090040Y-92602431D01*
X107322839Y-92673050D01*
X107564940Y-92696895D01*
X107807042Y-92673050D01*
X108039841Y-92602431D01*
X108254389Y-92487753D01*
X108442442Y-92333422D01*
X108596773Y-92145369D01*
X108626240Y-92090240D01*
X113270163Y-92090240D01*
X113287008Y-92145771D01*
X113369075Y-92299307D01*
X113479518Y-92433882D01*
X113614093Y-92544325D01*
X113767629Y-92626392D01*
X113934225Y-92676928D01*
X114107479Y-92693992D01*
X114807481Y-92693992D01*
X114980735Y-92676928D01*
X115147331Y-92626392D01*
X115300867Y-92544325D01*
X115435442Y-92433882D01*
X115545885Y-92299307D01*
X115627952Y-92145771D01*
X115644797Y-92090240D01*
X120186041Y-92090240D01*
X120205968Y-92155931D01*
X120288035Y-92309467D01*
X120398478Y-92444042D01*
X120533053Y-92554485D01*
X120686589Y-92636552D01*
X120853185Y-92687088D01*
X121026439Y-92704152D01*
X121726441Y-92704152D01*
X121899695Y-92687088D01*
X122066291Y-92636552D01*
X122219827Y-92554485D01*
X122354402Y-92444042D01*
X122464845Y-92309467D01*
X122546912Y-92155931D01*
X122566839Y-92090240D01*
X123266200Y-92090240D01*
X123413631Y-92072888D01*
X123531295Y-92032258D01*
X123638772Y-91969453D01*
X130874465Y-86726852D01*
X131653441Y-86726852D01*
X131826695Y-86709788D01*
X131993291Y-86659252D01*
X132146827Y-86577185D01*
X132281402Y-86466742D01*
X132391845Y-86332167D01*
X132473912Y-86178631D01*
X132524448Y-86012035D01*
X132541512Y-85838781D01*
X132541512Y-85138779D01*
X132524448Y-84965525D01*
X132473912Y-84798929D01*
X132391845Y-84645393D01*
X132281402Y-84510818D01*
X132146827Y-84400375D01*
X132039135Y-84342812D01*
X132057635Y-79691010D01*
X132156987Y-79637905D01*
X132291562Y-79527462D01*
X132402005Y-79392887D01*
X132484072Y-79239351D01*
X132534608Y-79072755D01*
X132551672Y-78899501D01*
X132551672Y-78199499D01*
X132534608Y-78026245D01*
X132484072Y-77859649D01*
X132402005Y-77706113D01*
X132291562Y-77571538D01*
X132156987Y-77461095D01*
X132066695Y-77412833D01*
X132085215Y-72755775D01*
X132149367Y-72721485D01*
X132283942Y-72611042D01*
X132394385Y-72476467D01*
X132476452Y-72322931D01*
X132526988Y-72156335D01*
X132544052Y-71983081D01*
X132544052Y-71283079D01*
X132526988Y-71109825D01*
X132476452Y-70943229D01*
X132394385Y-70789693D01*
X132283942Y-70655118D01*
X132149367Y-70544675D01*
X132094126Y-70515148D01*
X132112759Y-65829712D01*
X132149367Y-65810145D01*
X132283942Y-65699702D01*
X132394385Y-65565127D01*
X132476452Y-65411591D01*
X132526988Y-65244995D01*
X132544052Y-65071741D01*
X132544052Y-64371739D01*
X132526988Y-64198485D01*
X132476452Y-64031889D01*
X132394385Y-63878353D01*
X132283942Y-63743778D01*
X132149367Y-63633335D01*
X131995831Y-63551268D01*
X131829235Y-63500732D01*
X131655981Y-63483668D01*
X130405979Y-63483668D01*
X130232725Y-63500732D01*
X130066129Y-63551268D01*
X129999766Y-63586740D01*
X127487551Y-63586740D01*
X127431799Y-63581249D01*
X127209300Y-63603163D01*
X127202171Y-63605325D01*
X125894512Y-63729864D01*
X125786559Y-63719232D01*
X125270010Y-63770108D01*
X125262803Y-63772294D01*
X125276556Y-63761008D01*
X125384715Y-63688738D01*
X125476699Y-63596754D01*
X125577241Y-63514241D01*
X125659756Y-63413697D01*
X125751738Y-63321715D01*
X125824008Y-63213556D01*
X125906523Y-63113011D01*
X125967837Y-62998301D01*
X126040107Y-62890141D01*
X126089889Y-62769958D01*
X126151201Y-62655250D01*
X126188956Y-62530787D01*
X126238739Y-62410601D01*
X126264118Y-62283012D01*
X126301873Y-62158550D01*
X126314622Y-62029111D01*
X126340000Y-61901525D01*
X126340000Y-61771442D01*
X126352749Y-61642000D01*
X126340000Y-61512558D01*
X126340000Y-61382475D01*
X126314622Y-61254889D01*
X126301873Y-61125450D01*
X126264118Y-61000988D01*
X126238739Y-60873399D01*
X126188956Y-60753213D01*
X126151201Y-60628750D01*
X126089889Y-60514042D01*
X126040107Y-60393859D01*
X125967837Y-60285699D01*
X125906523Y-60170989D01*
X125824008Y-60070444D01*
X125751738Y-59962285D01*
X125659754Y-59870301D01*
X125577241Y-59769759D01*
X125476698Y-59687245D01*
X125384715Y-59595262D01*
X125276556Y-59522992D01*
X125176011Y-59440477D01*
X125061301Y-59379163D01*
X124953141Y-59306893D01*
X124832958Y-59257111D01*
X124718250Y-59195799D01*
X124593787Y-59158044D01*
X124473601Y-59108261D01*
X124346012Y-59082882D01*
X124221550Y-59045127D01*
X124092111Y-59032378D01*
X123964525Y-59007000D01*
X104777434Y-59007000D01*
X104648000Y-58994252D01*
X104518566Y-59007000D01*
X104388475Y-59007000D01*
X104260889Y-59032378D01*
X104131450Y-59045127D01*
X104006988Y-59082882D01*
X103879399Y-59108261D01*
X103759213Y-59158044D01*
X103634750Y-59195799D01*
X103520042Y-59257111D01*
X103399859Y-59306893D01*
X103291699Y-59379163D01*
X103176989Y-59440477D01*
X103076444Y-59522992D01*
X102968285Y-59595262D01*
X102876302Y-59687245D01*
X102775759Y-59769759D01*
X102693246Y-59870301D01*
X102601262Y-59962285D01*
X102601260Y-59962288D01*
X94748302Y-67815246D01*
X94647760Y-67897759D01*
X94318478Y-68298989D01*
X94245642Y-68435256D01*
X94180001Y-68558062D01*
X94180001Y-59278535D01*
X94223443Y-59321977D01*
X94794235Y-59703368D01*
X95428464Y-59966074D01*
X96101759Y-60100001D01*
X96788243Y-60100001D01*
X97461538Y-59966074D01*
X98095767Y-59703368D01*
X98666559Y-59321977D01*
X99151977Y-58836559D01*
X99533368Y-58265767D01*
X99796074Y-57631538D01*
X99930001Y-56958243D01*
X99930001Y-56271759D01*
X99796074Y-55598464D01*
X99533368Y-54964235D01*
X99151977Y-54393443D01*
X99108535Y-54350001D01*
X128781466Y-54350001D01*
X128738024Y-54393443D01*
G37*
%TD.AperFunction*%
%TD*%
M02*
