M48
; DRILL file {KiCad (5.1.9)-1} date 06/05/21 23:50:22
; FORMAT={-:-/ absolute / inch / decimal}
; #@! TF.CreationDate,2021-06-05T23:50:22+09:00
; #@! TF.GenerationSoftware,Kicad,Pcbnew,(5.1.9)-1
; #@! TF.FileFunction,Plated,1,2,PTH
FMAT,2
INCH
T1C0.0157
T2C0.0295
T3C0.1063
T4C0.1260
%
G90
G05
T1
X3.825Y-2.675
X3.825Y-2.75
X3.9Y-2.6
X3.9Y-2.675
X3.9Y-2.75
X3.975Y-2.525
X3.975Y-2.6
X3.975Y-2.675
X3.975Y-2.75
X3.975Y-2.825
X4.05Y-2.525
X4.05Y-2.6
X4.05Y-2.675
X4.05Y-2.75
X4.05Y-2.825
X4.125Y-2.525
X4.125Y-2.6
X4.125Y-2.675
X4.125Y-2.75
X4.125Y-2.825
X4.2Y-2.525
X4.2Y-2.6
X4.2Y-2.675
X4.2Y-2.75
X4.2Y-2.825
X4.4457Y-2.9626
X4.4457Y-3.0376
X4.4457Y-3.1126
X4.5207Y-2.9626
X4.5207Y-3.0376
X4.5207Y-3.1126
X4.5957Y-2.9626
X4.5957Y-3.0376
X4.5957Y-3.1126
X4.9144Y-2.675
X4.9144Y-2.75
X4.9144Y-2.825
X4.9144Y-2.9
X4.9144Y-2.975
X4.9144Y-3.05
X4.9144Y-3.125
X4.9144Y-3.2
X4.9144Y-3.275
X4.9144Y-3.35
X4.9894Y-2.675
X4.9894Y-2.75
X4.9894Y-2.825
X4.9894Y-2.9
X4.9894Y-2.975
X4.9894Y-3.05
X4.9894Y-3.125
X4.9894Y-3.2
X4.9894Y-3.275
X4.9894Y-3.35
T2
X4.1561Y-3.5898
X4.2348Y-3.5898
X4.3136Y-3.5898
X4.5062Y-3.5898
X4.5849Y-3.5898
X4.7786Y-3.5902
X4.8573Y-3.5902
X5.1586Y-3.287
X5.1586Y-3.3657
X5.1587Y-2.4694
X5.1587Y-2.5481
X5.1587Y-2.7415
X5.1587Y-2.8202
X5.159Y-3.0138
X5.159Y-3.0925
T3
X3.8Y-2.86
X3.8Y-3.0569
X4.12Y-2.23
X4.12Y-2.4269
X4.3703Y-2.23
X4.3703Y-2.4269
X4.6203Y-2.23
X4.6203Y-2.4269
X4.8703Y-2.23
X4.8703Y-2.4269
T4
X3.797Y-2.2289
X3.797Y-3.6069
X5.175Y-2.2289
X5.175Y-3.6069
T0
M30
