G04 #@! TF.GenerationSoftware,KiCad,Pcbnew,(5.1.2)-1*
G04 #@! TF.CreationDate,2020-06-07T00:30:59+09:00*
G04 #@! TF.ProjectId,universal_power_board,756e6976-6572-4736-916c-5f706f776572,rev?*
G04 #@! TF.SameCoordinates,Original*
G04 #@! TF.FileFunction,Soldermask,Bot*
G04 #@! TF.FilePolarity,Negative*
%FSLAX46Y46*%
G04 Gerber Fmt 4.6, Leading zero omitted, Abs format (unit mm)*
G04 Created by KiCad (PCBNEW (5.1.2)-1) date 2020-06-07 00:30:59*
%MOMM*%
%LPD*%
G04 APERTURE LIST*
%ADD10C,0.100000*%
G04 APERTURE END LIST*
D10*
G36*
X148346189Y-143210483D02*
G01*
X148346192Y-143210484D01*
X148346191Y-143210484D01*
X148874139Y-143429167D01*
X149349280Y-143746646D01*
X149753354Y-144150720D01*
X149901465Y-144372384D01*
X150070834Y-144625863D01*
X150289517Y-145153811D01*
X150377403Y-145595645D01*
X150384516Y-145619094D01*
X150396067Y-145640705D01*
X150411612Y-145659647D01*
X150430554Y-145675192D01*
X150452165Y-145686743D01*
X150475614Y-145693856D01*
X150500000Y-145696258D01*
X150524386Y-145693856D01*
X150547835Y-145686743D01*
X150569446Y-145675192D01*
X150588388Y-145659647D01*
X150603933Y-145640705D01*
X150615484Y-145619094D01*
X150622597Y-145595645D01*
X150710483Y-145153811D01*
X150929166Y-144625863D01*
X151098535Y-144372384D01*
X151246646Y-144150720D01*
X151650720Y-143746646D01*
X152125861Y-143429167D01*
X152653809Y-143210484D01*
X152653808Y-143210484D01*
X152653811Y-143210483D01*
X153214275Y-143099000D01*
X153785725Y-143099000D01*
X154346189Y-143210483D01*
X154346192Y-143210484D01*
X154346191Y-143210484D01*
X154874139Y-143429167D01*
X155349280Y-143746646D01*
X155753354Y-144150720D01*
X155901465Y-144372384D01*
X156070834Y-144625863D01*
X156289517Y-145153811D01*
X156401000Y-145714275D01*
X156401000Y-146285725D01*
X156289517Y-146846189D01*
X156165419Y-147145788D01*
X156070833Y-147374139D01*
X155753354Y-147849280D01*
X155349280Y-148253354D01*
X154874139Y-148570833D01*
X154874138Y-148570834D01*
X154874137Y-148570834D01*
X154346189Y-148789517D01*
X153785725Y-148901000D01*
X153214275Y-148901000D01*
X152653811Y-148789517D01*
X152125863Y-148570834D01*
X152125862Y-148570834D01*
X152125861Y-148570833D01*
X151650720Y-148253354D01*
X151246646Y-147849280D01*
X150929167Y-147374139D01*
X150834581Y-147145788D01*
X150710483Y-146846189D01*
X150622597Y-146404355D01*
X150615484Y-146380906D01*
X150603933Y-146359295D01*
X150588388Y-146340353D01*
X150569446Y-146324808D01*
X150547835Y-146313257D01*
X150524386Y-146306144D01*
X150500000Y-146303742D01*
X150475614Y-146306144D01*
X150452165Y-146313257D01*
X150430554Y-146324808D01*
X150411612Y-146340353D01*
X150396067Y-146359295D01*
X150384516Y-146380906D01*
X150377403Y-146404355D01*
X150289517Y-146846189D01*
X150165419Y-147145788D01*
X150070833Y-147374139D01*
X149753354Y-147849280D01*
X149349280Y-148253354D01*
X148874139Y-148570833D01*
X148874138Y-148570834D01*
X148874137Y-148570834D01*
X148346189Y-148789517D01*
X147785725Y-148901000D01*
X147214275Y-148901000D01*
X146653811Y-148789517D01*
X146125863Y-148570834D01*
X146125862Y-148570834D01*
X146125861Y-148570833D01*
X145650720Y-148253354D01*
X145246646Y-147849280D01*
X144929167Y-147374139D01*
X144834581Y-147145788D01*
X144710483Y-146846189D01*
X144599000Y-146285725D01*
X144599000Y-145714275D01*
X144710483Y-145153811D01*
X144929166Y-144625863D01*
X145098535Y-144372384D01*
X145246646Y-144150720D01*
X145650720Y-143746646D01*
X146125861Y-143429167D01*
X146653809Y-143210484D01*
X146653808Y-143210484D01*
X146653811Y-143210483D01*
X147214275Y-143099000D01*
X147785725Y-143099000D01*
X148346189Y-143210483D01*
X148346189Y-143210483D01*
G37*
G36*
X115846189Y-143210483D02*
G01*
X115846192Y-143210484D01*
X115846191Y-143210484D01*
X116374139Y-143429167D01*
X116849280Y-143746646D01*
X117253354Y-144150720D01*
X117401465Y-144372384D01*
X117570834Y-144625863D01*
X117789517Y-145153811D01*
X117901000Y-145714275D01*
X117901000Y-146285725D01*
X117789517Y-146846189D01*
X117665419Y-147145788D01*
X117570833Y-147374139D01*
X117253354Y-147849280D01*
X116849280Y-148253354D01*
X116374139Y-148570833D01*
X116374138Y-148570834D01*
X116374137Y-148570834D01*
X115846189Y-148789517D01*
X115285725Y-148901000D01*
X114714275Y-148901000D01*
X114153811Y-148789517D01*
X113625863Y-148570834D01*
X113625862Y-148570834D01*
X113625861Y-148570833D01*
X113150720Y-148253354D01*
X112746646Y-147849280D01*
X112429167Y-147374139D01*
X112334581Y-147145788D01*
X112210483Y-146846189D01*
X112099000Y-146285725D01*
X112099000Y-145714275D01*
X112210483Y-145153811D01*
X112429166Y-144625863D01*
X112598535Y-144372384D01*
X112746646Y-144150720D01*
X113150720Y-143746646D01*
X113625861Y-143429167D01*
X114153809Y-143210484D01*
X114153808Y-143210484D01*
X114153811Y-143210483D01*
X114714275Y-143099000D01*
X115285725Y-143099000D01*
X115846189Y-143210483D01*
X115846189Y-143210483D01*
G37*
G36*
X186846189Y-143210483D02*
G01*
X186846192Y-143210484D01*
X186846191Y-143210484D01*
X187374139Y-143429167D01*
X187849280Y-143746646D01*
X188253354Y-144150720D01*
X188401465Y-144372384D01*
X188570834Y-144625863D01*
X188789517Y-145153811D01*
X188901000Y-145714275D01*
X188901000Y-146285725D01*
X188789517Y-146846189D01*
X188665419Y-147145788D01*
X188570833Y-147374139D01*
X188253354Y-147849280D01*
X187849280Y-148253354D01*
X187374139Y-148570833D01*
X187374138Y-148570834D01*
X187374137Y-148570834D01*
X186846189Y-148789517D01*
X186285725Y-148901000D01*
X185714275Y-148901000D01*
X185153811Y-148789517D01*
X184625863Y-148570834D01*
X184625862Y-148570834D01*
X184625861Y-148570833D01*
X184150720Y-148253354D01*
X183746646Y-147849280D01*
X183429167Y-147374139D01*
X183334581Y-147145788D01*
X183210483Y-146846189D01*
X183099000Y-146285725D01*
X183099000Y-145714275D01*
X183210483Y-145153811D01*
X183429166Y-144625863D01*
X183598535Y-144372384D01*
X183746646Y-144150720D01*
X184150720Y-143746646D01*
X184625861Y-143429167D01*
X185153809Y-143210484D01*
X185153808Y-143210484D01*
X185153811Y-143210483D01*
X185714275Y-143099000D01*
X186285725Y-143099000D01*
X186846189Y-143210483D01*
X186846189Y-143210483D01*
G37*
G36*
X178766242Y-145853404D02*
G01*
X178803337Y-145864657D01*
X178837515Y-145882925D01*
X178867481Y-145907519D01*
X178892075Y-145937485D01*
X178910343Y-145971663D01*
X178921596Y-146008758D01*
X178926000Y-146053474D01*
X178926000Y-146946526D01*
X178921596Y-146991242D01*
X178910343Y-147028337D01*
X178892075Y-147062515D01*
X178867481Y-147092481D01*
X178837515Y-147117075D01*
X178803337Y-147135343D01*
X178766242Y-147146596D01*
X178721526Y-147151000D01*
X177278474Y-147151000D01*
X177233758Y-147146596D01*
X177196663Y-147135343D01*
X177162485Y-147117075D01*
X177132519Y-147092481D01*
X177107925Y-147062515D01*
X177089657Y-147028337D01*
X177078404Y-146991242D01*
X177074000Y-146946526D01*
X177074000Y-146053474D01*
X177078404Y-146008758D01*
X177089657Y-145971663D01*
X177107925Y-145937485D01*
X177132519Y-145907519D01*
X177162485Y-145882925D01*
X177196663Y-145864657D01*
X177233758Y-145853404D01*
X177278474Y-145849000D01*
X178721526Y-145849000D01*
X178766242Y-145853404D01*
X178766242Y-145853404D01*
G37*
G36*
X140266242Y-145853404D02*
G01*
X140303337Y-145864657D01*
X140337515Y-145882925D01*
X140367481Y-145907519D01*
X140392075Y-145937485D01*
X140410343Y-145971663D01*
X140421596Y-146008758D01*
X140426000Y-146053474D01*
X140426000Y-146946526D01*
X140421596Y-146991242D01*
X140410343Y-147028337D01*
X140392075Y-147062515D01*
X140367481Y-147092481D01*
X140337515Y-147117075D01*
X140303337Y-147135343D01*
X140266242Y-147146596D01*
X140221526Y-147151000D01*
X138778474Y-147151000D01*
X138733758Y-147146596D01*
X138696663Y-147135343D01*
X138662485Y-147117075D01*
X138632519Y-147092481D01*
X138607925Y-147062515D01*
X138589657Y-147028337D01*
X138578404Y-146991242D01*
X138574000Y-146946526D01*
X138574000Y-146053474D01*
X138578404Y-146008758D01*
X138589657Y-145971663D01*
X138607925Y-145937485D01*
X138632519Y-145907519D01*
X138662485Y-145882925D01*
X138696663Y-145864657D01*
X138733758Y-145853404D01*
X138778474Y-145849000D01*
X140221526Y-145849000D01*
X140266242Y-145853404D01*
X140266242Y-145853404D01*
G37*
G36*
X173266242Y-145853404D02*
G01*
X173303337Y-145864657D01*
X173337515Y-145882925D01*
X173367481Y-145907519D01*
X173392075Y-145937485D01*
X173410343Y-145971663D01*
X173421596Y-146008758D01*
X173426000Y-146053474D01*
X173426000Y-146946526D01*
X173421596Y-146991242D01*
X173410343Y-147028337D01*
X173392075Y-147062515D01*
X173367481Y-147092481D01*
X173337515Y-147117075D01*
X173303337Y-147135343D01*
X173266242Y-147146596D01*
X173221526Y-147151000D01*
X171778474Y-147151000D01*
X171733758Y-147146596D01*
X171696663Y-147135343D01*
X171662485Y-147117075D01*
X171632519Y-147092481D01*
X171607925Y-147062515D01*
X171589657Y-147028337D01*
X171578404Y-146991242D01*
X171574000Y-146946526D01*
X171574000Y-146053474D01*
X171578404Y-146008758D01*
X171589657Y-145971663D01*
X171607925Y-145937485D01*
X171632519Y-145907519D01*
X171662485Y-145882925D01*
X171696663Y-145864657D01*
X171733758Y-145853404D01*
X171778474Y-145849000D01*
X173221526Y-145849000D01*
X173266242Y-145853404D01*
X173266242Y-145853404D01*
G37*
G36*
X134766242Y-145853404D02*
G01*
X134803337Y-145864657D01*
X134837515Y-145882925D01*
X134867481Y-145907519D01*
X134892075Y-145937485D01*
X134910343Y-145971663D01*
X134921596Y-146008758D01*
X134926000Y-146053474D01*
X134926000Y-146946526D01*
X134921596Y-146991242D01*
X134910343Y-147028337D01*
X134892075Y-147062515D01*
X134867481Y-147092481D01*
X134837515Y-147117075D01*
X134803337Y-147135343D01*
X134766242Y-147146596D01*
X134721526Y-147151000D01*
X133278474Y-147151000D01*
X133233758Y-147146596D01*
X133196663Y-147135343D01*
X133162485Y-147117075D01*
X133132519Y-147092481D01*
X133107925Y-147062515D01*
X133089657Y-147028337D01*
X133078404Y-146991242D01*
X133074000Y-146946526D01*
X133074000Y-146053474D01*
X133078404Y-146008758D01*
X133089657Y-145971663D01*
X133107925Y-145937485D01*
X133132519Y-145907519D01*
X133162485Y-145882925D01*
X133196663Y-145864657D01*
X133233758Y-145853404D01*
X133278474Y-145849000D01*
X134721526Y-145849000D01*
X134766242Y-145853404D01*
X134766242Y-145853404D01*
G37*
G36*
X165098212Y-145256249D02*
G01*
X165192651Y-145284897D01*
X165279687Y-145331418D01*
X165355975Y-145394025D01*
X165418582Y-145470313D01*
X165465103Y-145557348D01*
X165493751Y-145651787D01*
X165501000Y-145725388D01*
X165501000Y-146274612D01*
X165493751Y-146348213D01*
X165465103Y-146442652D01*
X165418582Y-146529687D01*
X165355975Y-146605975D01*
X165279687Y-146668582D01*
X165192652Y-146715103D01*
X165098213Y-146743751D01*
X165000000Y-146753424D01*
X164901788Y-146743751D01*
X164807349Y-146715103D01*
X164720314Y-146668582D01*
X164644026Y-146605975D01*
X164581419Y-146529687D01*
X164534898Y-146442652D01*
X164506250Y-146348213D01*
X164499397Y-146278633D01*
X164494616Y-146254600D01*
X164485239Y-146231961D01*
X164471625Y-146211587D01*
X164454298Y-146194260D01*
X164433924Y-146180646D01*
X164411285Y-146171269D01*
X164387252Y-146166489D01*
X164362747Y-146166489D01*
X164338714Y-146171270D01*
X164316075Y-146180647D01*
X164295701Y-146194261D01*
X164278374Y-146211588D01*
X164264760Y-146231962D01*
X164255383Y-146254601D01*
X164250605Y-146278623D01*
X164243751Y-146348213D01*
X164215103Y-146442652D01*
X164168582Y-146529687D01*
X164105975Y-146605975D01*
X164029687Y-146668582D01*
X163942652Y-146715103D01*
X163848213Y-146743751D01*
X163750000Y-146753424D01*
X163651788Y-146743751D01*
X163557349Y-146715103D01*
X163470314Y-146668582D01*
X163394026Y-146605975D01*
X163331419Y-146529687D01*
X163284898Y-146442652D01*
X163256250Y-146348213D01*
X163249397Y-146278633D01*
X163244616Y-146254600D01*
X163235239Y-146231961D01*
X163221625Y-146211587D01*
X163204298Y-146194260D01*
X163183924Y-146180646D01*
X163161285Y-146171269D01*
X163137252Y-146166489D01*
X163112747Y-146166489D01*
X163088714Y-146171270D01*
X163066075Y-146180647D01*
X163045701Y-146194261D01*
X163028374Y-146211588D01*
X163014760Y-146231962D01*
X163005383Y-146254601D01*
X163000605Y-146278623D01*
X162993751Y-146348213D01*
X162965103Y-146442652D01*
X162918582Y-146529687D01*
X162855975Y-146605975D01*
X162779687Y-146668582D01*
X162692652Y-146715103D01*
X162598213Y-146743751D01*
X162500000Y-146753424D01*
X162401788Y-146743751D01*
X162307349Y-146715103D01*
X162220314Y-146668582D01*
X162144026Y-146605975D01*
X162081419Y-146529687D01*
X162034898Y-146442652D01*
X162006250Y-146348213D01*
X161999397Y-146278633D01*
X161994616Y-146254600D01*
X161985239Y-146231961D01*
X161971625Y-146211587D01*
X161954298Y-146194260D01*
X161933924Y-146180646D01*
X161911285Y-146171269D01*
X161887252Y-146166489D01*
X161862747Y-146166489D01*
X161838714Y-146171270D01*
X161816075Y-146180647D01*
X161795701Y-146194261D01*
X161778374Y-146211588D01*
X161764760Y-146231962D01*
X161755383Y-146254601D01*
X161750605Y-146278623D01*
X161743751Y-146348213D01*
X161715103Y-146442652D01*
X161668582Y-146529687D01*
X161605975Y-146605975D01*
X161529687Y-146668582D01*
X161442652Y-146715103D01*
X161348213Y-146743751D01*
X161250000Y-146753424D01*
X161151788Y-146743751D01*
X161057349Y-146715103D01*
X160970314Y-146668582D01*
X160894026Y-146605975D01*
X160831419Y-146529687D01*
X160784898Y-146442652D01*
X160756250Y-146348213D01*
X160749397Y-146278633D01*
X160744616Y-146254600D01*
X160735239Y-146231961D01*
X160721625Y-146211587D01*
X160704298Y-146194260D01*
X160683924Y-146180646D01*
X160661285Y-146171269D01*
X160637252Y-146166489D01*
X160612747Y-146166489D01*
X160588714Y-146171270D01*
X160566075Y-146180647D01*
X160545701Y-146194261D01*
X160528374Y-146211588D01*
X160514760Y-146231962D01*
X160505383Y-146254601D01*
X160500605Y-146278623D01*
X160493751Y-146348213D01*
X160465103Y-146442652D01*
X160418582Y-146529687D01*
X160355975Y-146605975D01*
X160279687Y-146668582D01*
X160192652Y-146715103D01*
X160098213Y-146743751D01*
X160000000Y-146753424D01*
X159901788Y-146743751D01*
X159807349Y-146715103D01*
X159720314Y-146668582D01*
X159644026Y-146605975D01*
X159581419Y-146529687D01*
X159534898Y-146442652D01*
X159506250Y-146348213D01*
X159500396Y-146288776D01*
X159495615Y-146264742D01*
X159486238Y-146242103D01*
X159472624Y-146221729D01*
X159455297Y-146204402D01*
X159434923Y-146190789D01*
X159412284Y-146181411D01*
X159388251Y-146176631D01*
X159363747Y-146176631D01*
X159339713Y-146181412D01*
X159317074Y-146190789D01*
X159296700Y-146204403D01*
X159279373Y-146221730D01*
X159265760Y-146242104D01*
X159256382Y-146264743D01*
X159251000Y-146301028D01*
X159251000Y-146556860D01*
X159246795Y-146599560D01*
X159236131Y-146634713D01*
X159218814Y-146667110D01*
X159195509Y-146695509D01*
X159167110Y-146718814D01*
X159134713Y-146736131D01*
X159099560Y-146746795D01*
X159056860Y-146751000D01*
X158443140Y-146751000D01*
X158400440Y-146746795D01*
X158365287Y-146736131D01*
X158332890Y-146718814D01*
X158304491Y-146695509D01*
X158281186Y-146667110D01*
X158263869Y-146634713D01*
X158253205Y-146599560D01*
X158249000Y-146556860D01*
X158249000Y-145443140D01*
X158253205Y-145400440D01*
X158263869Y-145365287D01*
X158281186Y-145332890D01*
X158304491Y-145304491D01*
X158332890Y-145281186D01*
X158365287Y-145263869D01*
X158400440Y-145253205D01*
X158443140Y-145249000D01*
X159056860Y-145249000D01*
X159099560Y-145253205D01*
X159134713Y-145263869D01*
X159167110Y-145281186D01*
X159195509Y-145304491D01*
X159218814Y-145332890D01*
X159236131Y-145365287D01*
X159246795Y-145400440D01*
X159251000Y-145443140D01*
X159251000Y-145698973D01*
X159253402Y-145723359D01*
X159260515Y-145746808D01*
X159272066Y-145768419D01*
X159287611Y-145787361D01*
X159306553Y-145802906D01*
X159328164Y-145814457D01*
X159351613Y-145821570D01*
X159375999Y-145823972D01*
X159400385Y-145821570D01*
X159423834Y-145814457D01*
X159445445Y-145802906D01*
X159464387Y-145787361D01*
X159479932Y-145768419D01*
X159491483Y-145746808D01*
X159500394Y-145711231D01*
X159506249Y-145651788D01*
X159534897Y-145557349D01*
X159581418Y-145470313D01*
X159644025Y-145394025D01*
X159720313Y-145331418D01*
X159807348Y-145284897D01*
X159901787Y-145256249D01*
X160000000Y-145246576D01*
X160098212Y-145256249D01*
X160192651Y-145284897D01*
X160279687Y-145331418D01*
X160355975Y-145394025D01*
X160418582Y-145470313D01*
X160465103Y-145557348D01*
X160493751Y-145651787D01*
X160500605Y-145721377D01*
X160505384Y-145745401D01*
X160514761Y-145768039D01*
X160528375Y-145788414D01*
X160545702Y-145805741D01*
X160566076Y-145819354D01*
X160588715Y-145828732D01*
X160612748Y-145833512D01*
X160637252Y-145833512D01*
X160661286Y-145828731D01*
X160683924Y-145819354D01*
X160704299Y-145805740D01*
X160721626Y-145788413D01*
X160735239Y-145768039D01*
X160744617Y-145745400D01*
X160749395Y-145721378D01*
X160756249Y-145651788D01*
X160784897Y-145557349D01*
X160831418Y-145470313D01*
X160894025Y-145394025D01*
X160970313Y-145331418D01*
X161057348Y-145284897D01*
X161151787Y-145256249D01*
X161250000Y-145246576D01*
X161348212Y-145256249D01*
X161442651Y-145284897D01*
X161529687Y-145331418D01*
X161605975Y-145394025D01*
X161668582Y-145470313D01*
X161715103Y-145557348D01*
X161743751Y-145651787D01*
X161750605Y-145721377D01*
X161755384Y-145745401D01*
X161764761Y-145768039D01*
X161778375Y-145788414D01*
X161795702Y-145805741D01*
X161816076Y-145819354D01*
X161838715Y-145828732D01*
X161862748Y-145833512D01*
X161887252Y-145833512D01*
X161911286Y-145828731D01*
X161933924Y-145819354D01*
X161954299Y-145805740D01*
X161971626Y-145788413D01*
X161985239Y-145768039D01*
X161994617Y-145745400D01*
X161999395Y-145721378D01*
X162006249Y-145651788D01*
X162034897Y-145557349D01*
X162081418Y-145470313D01*
X162144025Y-145394025D01*
X162220313Y-145331418D01*
X162307348Y-145284897D01*
X162401787Y-145256249D01*
X162500000Y-145246576D01*
X162598212Y-145256249D01*
X162692651Y-145284897D01*
X162779687Y-145331418D01*
X162855975Y-145394025D01*
X162918582Y-145470313D01*
X162965103Y-145557348D01*
X162993751Y-145651787D01*
X163000605Y-145721377D01*
X163005384Y-145745401D01*
X163014761Y-145768039D01*
X163028375Y-145788414D01*
X163045702Y-145805741D01*
X163066076Y-145819354D01*
X163088715Y-145828732D01*
X163112748Y-145833512D01*
X163137252Y-145833512D01*
X163161286Y-145828731D01*
X163183924Y-145819354D01*
X163204299Y-145805740D01*
X163221626Y-145788413D01*
X163235239Y-145768039D01*
X163244617Y-145745400D01*
X163249395Y-145721378D01*
X163256249Y-145651788D01*
X163284897Y-145557349D01*
X163331418Y-145470313D01*
X163394025Y-145394025D01*
X163470313Y-145331418D01*
X163557348Y-145284897D01*
X163651787Y-145256249D01*
X163750000Y-145246576D01*
X163848212Y-145256249D01*
X163942651Y-145284897D01*
X164029687Y-145331418D01*
X164105975Y-145394025D01*
X164168582Y-145470313D01*
X164215103Y-145557348D01*
X164243751Y-145651787D01*
X164250605Y-145721377D01*
X164255384Y-145745401D01*
X164264761Y-145768039D01*
X164278375Y-145788414D01*
X164295702Y-145805741D01*
X164316076Y-145819354D01*
X164338715Y-145828732D01*
X164362748Y-145833512D01*
X164387252Y-145833512D01*
X164411286Y-145828731D01*
X164433924Y-145819354D01*
X164454299Y-145805740D01*
X164471626Y-145788413D01*
X164485239Y-145768039D01*
X164494617Y-145745400D01*
X164499395Y-145721378D01*
X164506249Y-145651788D01*
X164534897Y-145557349D01*
X164581418Y-145470313D01*
X164644025Y-145394025D01*
X164720313Y-145331418D01*
X164807348Y-145284897D01*
X164901787Y-145256249D01*
X165000000Y-145246576D01*
X165098212Y-145256249D01*
X165098212Y-145256249D01*
G37*
G36*
X126598212Y-145256249D02*
G01*
X126692651Y-145284897D01*
X126779687Y-145331418D01*
X126855975Y-145394025D01*
X126918582Y-145470313D01*
X126965103Y-145557348D01*
X126993751Y-145651787D01*
X127001000Y-145725388D01*
X127001000Y-146274612D01*
X126993751Y-146348213D01*
X126965103Y-146442652D01*
X126918582Y-146529687D01*
X126855975Y-146605975D01*
X126779687Y-146668582D01*
X126692652Y-146715103D01*
X126598213Y-146743751D01*
X126500000Y-146753424D01*
X126401788Y-146743751D01*
X126307349Y-146715103D01*
X126220314Y-146668582D01*
X126144026Y-146605975D01*
X126081419Y-146529687D01*
X126034898Y-146442652D01*
X126006250Y-146348213D01*
X125999397Y-146278633D01*
X125994616Y-146254600D01*
X125985239Y-146231961D01*
X125971625Y-146211587D01*
X125954298Y-146194260D01*
X125933924Y-146180646D01*
X125911285Y-146171269D01*
X125887252Y-146166489D01*
X125862747Y-146166489D01*
X125838714Y-146171270D01*
X125816075Y-146180647D01*
X125795701Y-146194261D01*
X125778374Y-146211588D01*
X125764760Y-146231962D01*
X125755383Y-146254601D01*
X125750605Y-146278623D01*
X125743751Y-146348213D01*
X125715103Y-146442652D01*
X125668582Y-146529687D01*
X125605975Y-146605975D01*
X125529687Y-146668582D01*
X125442652Y-146715103D01*
X125348213Y-146743751D01*
X125250000Y-146753424D01*
X125151788Y-146743751D01*
X125057349Y-146715103D01*
X124970314Y-146668582D01*
X124894026Y-146605975D01*
X124831419Y-146529687D01*
X124784898Y-146442652D01*
X124756250Y-146348213D01*
X124749397Y-146278633D01*
X124744616Y-146254600D01*
X124735239Y-146231961D01*
X124721625Y-146211587D01*
X124704298Y-146194260D01*
X124683924Y-146180646D01*
X124661285Y-146171269D01*
X124637252Y-146166489D01*
X124612747Y-146166489D01*
X124588714Y-146171270D01*
X124566075Y-146180647D01*
X124545701Y-146194261D01*
X124528374Y-146211588D01*
X124514760Y-146231962D01*
X124505383Y-146254601D01*
X124500605Y-146278623D01*
X124493751Y-146348213D01*
X124465103Y-146442652D01*
X124418582Y-146529687D01*
X124355975Y-146605975D01*
X124279687Y-146668582D01*
X124192652Y-146715103D01*
X124098213Y-146743751D01*
X124000000Y-146753424D01*
X123901788Y-146743751D01*
X123807349Y-146715103D01*
X123720314Y-146668582D01*
X123644026Y-146605975D01*
X123581419Y-146529687D01*
X123534898Y-146442652D01*
X123506250Y-146348213D01*
X123499397Y-146278633D01*
X123494616Y-146254600D01*
X123485239Y-146231961D01*
X123471625Y-146211587D01*
X123454298Y-146194260D01*
X123433924Y-146180646D01*
X123411285Y-146171269D01*
X123387252Y-146166489D01*
X123362747Y-146166489D01*
X123338714Y-146171270D01*
X123316075Y-146180647D01*
X123295701Y-146194261D01*
X123278374Y-146211588D01*
X123264760Y-146231962D01*
X123255383Y-146254601D01*
X123250605Y-146278623D01*
X123243751Y-146348213D01*
X123215103Y-146442652D01*
X123168582Y-146529687D01*
X123105975Y-146605975D01*
X123029687Y-146668582D01*
X122942652Y-146715103D01*
X122848213Y-146743751D01*
X122750000Y-146753424D01*
X122651788Y-146743751D01*
X122557349Y-146715103D01*
X122470314Y-146668582D01*
X122394026Y-146605975D01*
X122331419Y-146529687D01*
X122284898Y-146442652D01*
X122256250Y-146348213D01*
X122249397Y-146278633D01*
X122244616Y-146254600D01*
X122235239Y-146231961D01*
X122221625Y-146211587D01*
X122204298Y-146194260D01*
X122183924Y-146180646D01*
X122161285Y-146171269D01*
X122137252Y-146166489D01*
X122112747Y-146166489D01*
X122088714Y-146171270D01*
X122066075Y-146180647D01*
X122045701Y-146194261D01*
X122028374Y-146211588D01*
X122014760Y-146231962D01*
X122005383Y-146254601D01*
X122000605Y-146278623D01*
X121993751Y-146348213D01*
X121965103Y-146442652D01*
X121918582Y-146529687D01*
X121855975Y-146605975D01*
X121779687Y-146668582D01*
X121692652Y-146715103D01*
X121598213Y-146743751D01*
X121500000Y-146753424D01*
X121401788Y-146743751D01*
X121307349Y-146715103D01*
X121220314Y-146668582D01*
X121144026Y-146605975D01*
X121081419Y-146529687D01*
X121034898Y-146442652D01*
X121006250Y-146348213D01*
X121000396Y-146288776D01*
X120995615Y-146264742D01*
X120986238Y-146242103D01*
X120972624Y-146221729D01*
X120955297Y-146204402D01*
X120934923Y-146190789D01*
X120912284Y-146181411D01*
X120888251Y-146176631D01*
X120863747Y-146176631D01*
X120839713Y-146181412D01*
X120817074Y-146190789D01*
X120796700Y-146204403D01*
X120779373Y-146221730D01*
X120765760Y-146242104D01*
X120756382Y-146264743D01*
X120751000Y-146301028D01*
X120751000Y-146556860D01*
X120746795Y-146599560D01*
X120736131Y-146634713D01*
X120718814Y-146667110D01*
X120695509Y-146695509D01*
X120667110Y-146718814D01*
X120634713Y-146736131D01*
X120599560Y-146746795D01*
X120556860Y-146751000D01*
X119943140Y-146751000D01*
X119900440Y-146746795D01*
X119865287Y-146736131D01*
X119832890Y-146718814D01*
X119804491Y-146695509D01*
X119781186Y-146667110D01*
X119763869Y-146634713D01*
X119753205Y-146599560D01*
X119749000Y-146556860D01*
X119749000Y-145443140D01*
X119753205Y-145400440D01*
X119763869Y-145365287D01*
X119781186Y-145332890D01*
X119804491Y-145304491D01*
X119832890Y-145281186D01*
X119865287Y-145263869D01*
X119900440Y-145253205D01*
X119943140Y-145249000D01*
X120556860Y-145249000D01*
X120599560Y-145253205D01*
X120634713Y-145263869D01*
X120667110Y-145281186D01*
X120695509Y-145304491D01*
X120718814Y-145332890D01*
X120736131Y-145365287D01*
X120746795Y-145400440D01*
X120751000Y-145443140D01*
X120751000Y-145698973D01*
X120753402Y-145723359D01*
X120760515Y-145746808D01*
X120772066Y-145768419D01*
X120787611Y-145787361D01*
X120806553Y-145802906D01*
X120828164Y-145814457D01*
X120851613Y-145821570D01*
X120875999Y-145823972D01*
X120900385Y-145821570D01*
X120923834Y-145814457D01*
X120945445Y-145802906D01*
X120964387Y-145787361D01*
X120979932Y-145768419D01*
X120991483Y-145746808D01*
X121000394Y-145711231D01*
X121006249Y-145651788D01*
X121034897Y-145557349D01*
X121081418Y-145470313D01*
X121144025Y-145394025D01*
X121220313Y-145331418D01*
X121307348Y-145284897D01*
X121401787Y-145256249D01*
X121500000Y-145246576D01*
X121598212Y-145256249D01*
X121692651Y-145284897D01*
X121779687Y-145331418D01*
X121855975Y-145394025D01*
X121918582Y-145470313D01*
X121965103Y-145557348D01*
X121993751Y-145651787D01*
X122000605Y-145721377D01*
X122005384Y-145745401D01*
X122014761Y-145768039D01*
X122028375Y-145788414D01*
X122045702Y-145805741D01*
X122066076Y-145819354D01*
X122088715Y-145828732D01*
X122112748Y-145833512D01*
X122137252Y-145833512D01*
X122161286Y-145828731D01*
X122183924Y-145819354D01*
X122204299Y-145805740D01*
X122221626Y-145788413D01*
X122235239Y-145768039D01*
X122244617Y-145745400D01*
X122249395Y-145721378D01*
X122256249Y-145651788D01*
X122284897Y-145557349D01*
X122331418Y-145470313D01*
X122394025Y-145394025D01*
X122470313Y-145331418D01*
X122557348Y-145284897D01*
X122651787Y-145256249D01*
X122750000Y-145246576D01*
X122848212Y-145256249D01*
X122942651Y-145284897D01*
X123029687Y-145331418D01*
X123105975Y-145394025D01*
X123168582Y-145470313D01*
X123215103Y-145557348D01*
X123243751Y-145651787D01*
X123250605Y-145721377D01*
X123255384Y-145745401D01*
X123264761Y-145768039D01*
X123278375Y-145788414D01*
X123295702Y-145805741D01*
X123316076Y-145819354D01*
X123338715Y-145828732D01*
X123362748Y-145833512D01*
X123387252Y-145833512D01*
X123411286Y-145828731D01*
X123433924Y-145819354D01*
X123454299Y-145805740D01*
X123471626Y-145788413D01*
X123485239Y-145768039D01*
X123494617Y-145745400D01*
X123499395Y-145721378D01*
X123506249Y-145651788D01*
X123534897Y-145557349D01*
X123581418Y-145470313D01*
X123644025Y-145394025D01*
X123720313Y-145331418D01*
X123807348Y-145284897D01*
X123901787Y-145256249D01*
X124000000Y-145246576D01*
X124098212Y-145256249D01*
X124192651Y-145284897D01*
X124279687Y-145331418D01*
X124355975Y-145394025D01*
X124418582Y-145470313D01*
X124465103Y-145557348D01*
X124493751Y-145651787D01*
X124500605Y-145721377D01*
X124505384Y-145745401D01*
X124514761Y-145768039D01*
X124528375Y-145788414D01*
X124545702Y-145805741D01*
X124566076Y-145819354D01*
X124588715Y-145828732D01*
X124612748Y-145833512D01*
X124637252Y-145833512D01*
X124661286Y-145828731D01*
X124683924Y-145819354D01*
X124704299Y-145805740D01*
X124721626Y-145788413D01*
X124735239Y-145768039D01*
X124744617Y-145745400D01*
X124749395Y-145721378D01*
X124756249Y-145651788D01*
X124784897Y-145557349D01*
X124831418Y-145470313D01*
X124894025Y-145394025D01*
X124970313Y-145331418D01*
X125057348Y-145284897D01*
X125151787Y-145256249D01*
X125250000Y-145246576D01*
X125348212Y-145256249D01*
X125442651Y-145284897D01*
X125529687Y-145331418D01*
X125605975Y-145394025D01*
X125668582Y-145470313D01*
X125715103Y-145557348D01*
X125743751Y-145651787D01*
X125750605Y-145721377D01*
X125755384Y-145745401D01*
X125764761Y-145768039D01*
X125778375Y-145788414D01*
X125795702Y-145805741D01*
X125816076Y-145819354D01*
X125838715Y-145828732D01*
X125862748Y-145833512D01*
X125887252Y-145833512D01*
X125911286Y-145828731D01*
X125933924Y-145819354D01*
X125954299Y-145805740D01*
X125971626Y-145788413D01*
X125985239Y-145768039D01*
X125994617Y-145745400D01*
X125999395Y-145721378D01*
X126006249Y-145651788D01*
X126034897Y-145557349D01*
X126081418Y-145470313D01*
X126144025Y-145394025D01*
X126220313Y-145331418D01*
X126307348Y-145284897D01*
X126401787Y-145256249D01*
X126500000Y-145246576D01*
X126598212Y-145256249D01*
X126598212Y-145256249D01*
G37*
G36*
X172838855Y-143852140D02*
G01*
X172902618Y-143858420D01*
X172993404Y-143885960D01*
X173025336Y-143895646D01*
X173138425Y-143956094D01*
X173237554Y-144037446D01*
X173318906Y-144136575D01*
X173379354Y-144249664D01*
X173379355Y-144249668D01*
X173416580Y-144372382D01*
X173429149Y-144500000D01*
X173416580Y-144627618D01*
X173389040Y-144718404D01*
X173379354Y-144750336D01*
X173318906Y-144863425D01*
X173237554Y-144962554D01*
X173138425Y-145043906D01*
X173025336Y-145104354D01*
X172993404Y-145114040D01*
X172902618Y-145141580D01*
X172838855Y-145147860D01*
X172806974Y-145151000D01*
X172193026Y-145151000D01*
X172161145Y-145147860D01*
X172097382Y-145141580D01*
X172006596Y-145114040D01*
X171974664Y-145104354D01*
X171861575Y-145043906D01*
X171762446Y-144962554D01*
X171681094Y-144863425D01*
X171620646Y-144750336D01*
X171610960Y-144718404D01*
X171583420Y-144627618D01*
X171570851Y-144500000D01*
X171583420Y-144372382D01*
X171620645Y-144249668D01*
X171620646Y-144249664D01*
X171681094Y-144136575D01*
X171762446Y-144037446D01*
X171861575Y-143956094D01*
X171974664Y-143895646D01*
X172006596Y-143885960D01*
X172097382Y-143858420D01*
X172161145Y-143852140D01*
X172193026Y-143849000D01*
X172806974Y-143849000D01*
X172838855Y-143852140D01*
X172838855Y-143852140D01*
G37*
G36*
X178338855Y-143852140D02*
G01*
X178402618Y-143858420D01*
X178493404Y-143885960D01*
X178525336Y-143895646D01*
X178638425Y-143956094D01*
X178737554Y-144037446D01*
X178818906Y-144136575D01*
X178879354Y-144249664D01*
X178879355Y-144249668D01*
X178916580Y-144372382D01*
X178929149Y-144500000D01*
X178916580Y-144627618D01*
X178889040Y-144718404D01*
X178879354Y-144750336D01*
X178818906Y-144863425D01*
X178737554Y-144962554D01*
X178638425Y-145043906D01*
X178525336Y-145104354D01*
X178493404Y-145114040D01*
X178402618Y-145141580D01*
X178338855Y-145147860D01*
X178306974Y-145151000D01*
X177693026Y-145151000D01*
X177661145Y-145147860D01*
X177597382Y-145141580D01*
X177506596Y-145114040D01*
X177474664Y-145104354D01*
X177361575Y-145043906D01*
X177262446Y-144962554D01*
X177181094Y-144863425D01*
X177120646Y-144750336D01*
X177110960Y-144718404D01*
X177083420Y-144627618D01*
X177070851Y-144500000D01*
X177083420Y-144372382D01*
X177120645Y-144249668D01*
X177120646Y-144249664D01*
X177181094Y-144136575D01*
X177262446Y-144037446D01*
X177361575Y-143956094D01*
X177474664Y-143895646D01*
X177506596Y-143885960D01*
X177597382Y-143858420D01*
X177661145Y-143852140D01*
X177693026Y-143849000D01*
X178306974Y-143849000D01*
X178338855Y-143852140D01*
X178338855Y-143852140D01*
G37*
G36*
X139838855Y-143852140D02*
G01*
X139902618Y-143858420D01*
X139993404Y-143885960D01*
X140025336Y-143895646D01*
X140138425Y-143956094D01*
X140237554Y-144037446D01*
X140318906Y-144136575D01*
X140379354Y-144249664D01*
X140379355Y-144249668D01*
X140416580Y-144372382D01*
X140429149Y-144500000D01*
X140416580Y-144627618D01*
X140389040Y-144718404D01*
X140379354Y-144750336D01*
X140318906Y-144863425D01*
X140237554Y-144962554D01*
X140138425Y-145043906D01*
X140025336Y-145104354D01*
X139993404Y-145114040D01*
X139902618Y-145141580D01*
X139838855Y-145147860D01*
X139806974Y-145151000D01*
X139193026Y-145151000D01*
X139161145Y-145147860D01*
X139097382Y-145141580D01*
X139006596Y-145114040D01*
X138974664Y-145104354D01*
X138861575Y-145043906D01*
X138762446Y-144962554D01*
X138681094Y-144863425D01*
X138620646Y-144750336D01*
X138610960Y-144718404D01*
X138583420Y-144627618D01*
X138570851Y-144500000D01*
X138583420Y-144372382D01*
X138620645Y-144249668D01*
X138620646Y-144249664D01*
X138681094Y-144136575D01*
X138762446Y-144037446D01*
X138861575Y-143956094D01*
X138974664Y-143895646D01*
X139006596Y-143885960D01*
X139097382Y-143858420D01*
X139161145Y-143852140D01*
X139193026Y-143849000D01*
X139806974Y-143849000D01*
X139838855Y-143852140D01*
X139838855Y-143852140D01*
G37*
G36*
X134338855Y-143852140D02*
G01*
X134402618Y-143858420D01*
X134493404Y-143885960D01*
X134525336Y-143895646D01*
X134638425Y-143956094D01*
X134737554Y-144037446D01*
X134818906Y-144136575D01*
X134879354Y-144249664D01*
X134879355Y-144249668D01*
X134916580Y-144372382D01*
X134929149Y-144500000D01*
X134916580Y-144627618D01*
X134889040Y-144718404D01*
X134879354Y-144750336D01*
X134818906Y-144863425D01*
X134737554Y-144962554D01*
X134638425Y-145043906D01*
X134525336Y-145104354D01*
X134493404Y-145114040D01*
X134402618Y-145141580D01*
X134338855Y-145147860D01*
X134306974Y-145151000D01*
X133693026Y-145151000D01*
X133661145Y-145147860D01*
X133597382Y-145141580D01*
X133506596Y-145114040D01*
X133474664Y-145104354D01*
X133361575Y-145043906D01*
X133262446Y-144962554D01*
X133181094Y-144863425D01*
X133120646Y-144750336D01*
X133110960Y-144718404D01*
X133083420Y-144627618D01*
X133070851Y-144500000D01*
X133083420Y-144372382D01*
X133120645Y-144249668D01*
X133120646Y-144249664D01*
X133181094Y-144136575D01*
X133262446Y-144037446D01*
X133361575Y-143956094D01*
X133474664Y-143895646D01*
X133506596Y-143885960D01*
X133597382Y-143858420D01*
X133661145Y-143852140D01*
X133693026Y-143849000D01*
X134306974Y-143849000D01*
X134338855Y-143852140D01*
X134338855Y-143852140D01*
G37*
G36*
X186627617Y-139083420D02*
G01*
X186708399Y-139107925D01*
X186750335Y-139120646D01*
X186863424Y-139181094D01*
X186962554Y-139262447D01*
X187043906Y-139361575D01*
X187104354Y-139474664D01*
X187114040Y-139506596D01*
X187141580Y-139597382D01*
X187151000Y-139693027D01*
X187151000Y-140306973D01*
X187141580Y-140402618D01*
X187114040Y-140493404D01*
X187104354Y-140525336D01*
X187043906Y-140638425D01*
X186962554Y-140737554D01*
X186863425Y-140818906D01*
X186750336Y-140879354D01*
X186718404Y-140889040D01*
X186627618Y-140916580D01*
X186500000Y-140929149D01*
X186372383Y-140916580D01*
X186281597Y-140889040D01*
X186249665Y-140879354D01*
X186136576Y-140818906D01*
X186037447Y-140737554D01*
X185956096Y-140638427D01*
X185956095Y-140638425D01*
X185895647Y-140525336D01*
X185895645Y-140525333D01*
X185883237Y-140484427D01*
X185858420Y-140402618D01*
X185849000Y-140306973D01*
X185849000Y-139693028D01*
X185858420Y-139597383D01*
X185895645Y-139474669D01*
X185895646Y-139474665D01*
X185956094Y-139361576D01*
X186037447Y-139262446D01*
X186136575Y-139181094D01*
X186249664Y-139120646D01*
X186291600Y-139107925D01*
X186372382Y-139083420D01*
X186500000Y-139070851D01*
X186627617Y-139083420D01*
X186627617Y-139083420D01*
G37*
G36*
X148127617Y-139083420D02*
G01*
X148208399Y-139107925D01*
X148250335Y-139120646D01*
X148363424Y-139181094D01*
X148462554Y-139262447D01*
X148543906Y-139361575D01*
X148604354Y-139474664D01*
X148614040Y-139506596D01*
X148641580Y-139597382D01*
X148651000Y-139693027D01*
X148651000Y-140306973D01*
X148641580Y-140402618D01*
X148614040Y-140493404D01*
X148604354Y-140525336D01*
X148543906Y-140638425D01*
X148462554Y-140737554D01*
X148363425Y-140818906D01*
X148250336Y-140879354D01*
X148218404Y-140889040D01*
X148127618Y-140916580D01*
X148000000Y-140929149D01*
X147872383Y-140916580D01*
X147781597Y-140889040D01*
X147749665Y-140879354D01*
X147636576Y-140818906D01*
X147537447Y-140737554D01*
X147456096Y-140638427D01*
X147456095Y-140638425D01*
X147395647Y-140525336D01*
X147395645Y-140525333D01*
X147383237Y-140484427D01*
X147358420Y-140402618D01*
X147349000Y-140306973D01*
X147349000Y-139693028D01*
X147358420Y-139597383D01*
X147395645Y-139474669D01*
X147395646Y-139474665D01*
X147456094Y-139361576D01*
X147537447Y-139262446D01*
X147636575Y-139181094D01*
X147749664Y-139120646D01*
X147791600Y-139107925D01*
X147872382Y-139083420D01*
X148000000Y-139070851D01*
X148127617Y-139083420D01*
X148127617Y-139083420D01*
G37*
G36*
X184991242Y-139078404D02*
G01*
X185028337Y-139089657D01*
X185062515Y-139107925D01*
X185092481Y-139132519D01*
X185117075Y-139162485D01*
X185135343Y-139196663D01*
X185146596Y-139233758D01*
X185151000Y-139278474D01*
X185151000Y-140721526D01*
X185146596Y-140766242D01*
X185135343Y-140803337D01*
X185117075Y-140837515D01*
X185092481Y-140867481D01*
X185062515Y-140892075D01*
X185028337Y-140910343D01*
X184991242Y-140921596D01*
X184946526Y-140926000D01*
X184053474Y-140926000D01*
X184008758Y-140921596D01*
X183971663Y-140910343D01*
X183937485Y-140892075D01*
X183907519Y-140867481D01*
X183882925Y-140837515D01*
X183864657Y-140803337D01*
X183853404Y-140766242D01*
X183849000Y-140721526D01*
X183849000Y-139278474D01*
X183853404Y-139233758D01*
X183864657Y-139196663D01*
X183882925Y-139162485D01*
X183907519Y-139132519D01*
X183937485Y-139107925D01*
X183971663Y-139089657D01*
X184008758Y-139078404D01*
X184053474Y-139074000D01*
X184946526Y-139074000D01*
X184991242Y-139078404D01*
X184991242Y-139078404D01*
G37*
G36*
X146491242Y-139078404D02*
G01*
X146528337Y-139089657D01*
X146562515Y-139107925D01*
X146592481Y-139132519D01*
X146617075Y-139162485D01*
X146635343Y-139196663D01*
X146646596Y-139233758D01*
X146651000Y-139278474D01*
X146651000Y-140721526D01*
X146646596Y-140766242D01*
X146635343Y-140803337D01*
X146617075Y-140837515D01*
X146592481Y-140867481D01*
X146562515Y-140892075D01*
X146528337Y-140910343D01*
X146491242Y-140921596D01*
X146446526Y-140926000D01*
X145553474Y-140926000D01*
X145508758Y-140921596D01*
X145471663Y-140910343D01*
X145437485Y-140892075D01*
X145407519Y-140867481D01*
X145382925Y-140837515D01*
X145364657Y-140803337D01*
X145353404Y-140766242D01*
X145349000Y-140721526D01*
X145349000Y-139278474D01*
X145353404Y-139233758D01*
X145364657Y-139196663D01*
X145382925Y-139162485D01*
X145407519Y-139132519D01*
X145437485Y-139107925D01*
X145471663Y-139089657D01*
X145508758Y-139078404D01*
X145553474Y-139074000D01*
X146446526Y-139074000D01*
X146491242Y-139078404D01*
X146491242Y-139078404D01*
G37*
G36*
X155451000Y-135451000D02*
G01*
X151549000Y-135451000D01*
X151549000Y-131549000D01*
X155451000Y-131549000D01*
X155451000Y-135451000D01*
X155451000Y-135451000D01*
G37*
G36*
X116951000Y-135451000D02*
G01*
X113049000Y-135451000D01*
X113049000Y-131549000D01*
X116951000Y-131549000D01*
X116951000Y-135451000D01*
X116951000Y-135451000D01*
G37*
G36*
X148127617Y-133583420D02*
G01*
X148208399Y-133607925D01*
X148250335Y-133620646D01*
X148363424Y-133681094D01*
X148462554Y-133762447D01*
X148543906Y-133861575D01*
X148604354Y-133974664D01*
X148614040Y-134006596D01*
X148641580Y-134097382D01*
X148651000Y-134193027D01*
X148651000Y-134806973D01*
X148641580Y-134902618D01*
X148614040Y-134993404D01*
X148604354Y-135025336D01*
X148543906Y-135138425D01*
X148462554Y-135237554D01*
X148363425Y-135318906D01*
X148250336Y-135379354D01*
X148218404Y-135389040D01*
X148127618Y-135416580D01*
X148000000Y-135429149D01*
X147872383Y-135416580D01*
X147781597Y-135389040D01*
X147749665Y-135379354D01*
X147636576Y-135318906D01*
X147537447Y-135237554D01*
X147456096Y-135138427D01*
X147456095Y-135138425D01*
X147395647Y-135025336D01*
X147395645Y-135025333D01*
X147383237Y-134984427D01*
X147358420Y-134902618D01*
X147349000Y-134806973D01*
X147349000Y-134193028D01*
X147358420Y-134097383D01*
X147395645Y-133974669D01*
X147395646Y-133974665D01*
X147456094Y-133861576D01*
X147537447Y-133762446D01*
X147636575Y-133681094D01*
X147749664Y-133620646D01*
X147791600Y-133607925D01*
X147872382Y-133583420D01*
X148000000Y-133570851D01*
X148127617Y-133583420D01*
X148127617Y-133583420D01*
G37*
G36*
X186627617Y-133583420D02*
G01*
X186708399Y-133607925D01*
X186750335Y-133620646D01*
X186863424Y-133681094D01*
X186962554Y-133762447D01*
X187043906Y-133861575D01*
X187104354Y-133974664D01*
X187114040Y-134006596D01*
X187141580Y-134097382D01*
X187151000Y-134193027D01*
X187151000Y-134806973D01*
X187141580Y-134902618D01*
X187114040Y-134993404D01*
X187104354Y-135025336D01*
X187043906Y-135138425D01*
X186962554Y-135237554D01*
X186863425Y-135318906D01*
X186750336Y-135379354D01*
X186718404Y-135389040D01*
X186627618Y-135416580D01*
X186500000Y-135429149D01*
X186372383Y-135416580D01*
X186281597Y-135389040D01*
X186249665Y-135379354D01*
X186136576Y-135318906D01*
X186037447Y-135237554D01*
X185956096Y-135138427D01*
X185956095Y-135138425D01*
X185895647Y-135025336D01*
X185895645Y-135025333D01*
X185883237Y-134984427D01*
X185858420Y-134902618D01*
X185849000Y-134806973D01*
X185849000Y-134193028D01*
X185858420Y-134097383D01*
X185895645Y-133974669D01*
X185895646Y-133974665D01*
X185956094Y-133861576D01*
X186037447Y-133762446D01*
X186136575Y-133681094D01*
X186249664Y-133620646D01*
X186291600Y-133607925D01*
X186372382Y-133583420D01*
X186500000Y-133570851D01*
X186627617Y-133583420D01*
X186627617Y-133583420D01*
G37*
G36*
X146491242Y-133578404D02*
G01*
X146528337Y-133589657D01*
X146562515Y-133607925D01*
X146592481Y-133632519D01*
X146617075Y-133662485D01*
X146635343Y-133696663D01*
X146646596Y-133733758D01*
X146651000Y-133778474D01*
X146651000Y-135221526D01*
X146646596Y-135266242D01*
X146635343Y-135303337D01*
X146617075Y-135337515D01*
X146592481Y-135367481D01*
X146562515Y-135392075D01*
X146528337Y-135410343D01*
X146491242Y-135421596D01*
X146446526Y-135426000D01*
X145553474Y-135426000D01*
X145508758Y-135421596D01*
X145471663Y-135410343D01*
X145437485Y-135392075D01*
X145407519Y-135367481D01*
X145382925Y-135337515D01*
X145364657Y-135303337D01*
X145353404Y-135266242D01*
X145349000Y-135221526D01*
X145349000Y-133778474D01*
X145353404Y-133733758D01*
X145364657Y-133696663D01*
X145382925Y-133662485D01*
X145407519Y-133632519D01*
X145437485Y-133607925D01*
X145471663Y-133589657D01*
X145508758Y-133578404D01*
X145553474Y-133574000D01*
X146446526Y-133574000D01*
X146491242Y-133578404D01*
X146491242Y-133578404D01*
G37*
G36*
X184991242Y-133578404D02*
G01*
X185028337Y-133589657D01*
X185062515Y-133607925D01*
X185092481Y-133632519D01*
X185117075Y-133662485D01*
X185135343Y-133696663D01*
X185146596Y-133733758D01*
X185151000Y-133778474D01*
X185151000Y-135221526D01*
X185146596Y-135266242D01*
X185135343Y-135303337D01*
X185117075Y-135337515D01*
X185092481Y-135367481D01*
X185062515Y-135392075D01*
X185028337Y-135410343D01*
X184991242Y-135421596D01*
X184946526Y-135426000D01*
X184053474Y-135426000D01*
X184008758Y-135421596D01*
X183971663Y-135410343D01*
X183937485Y-135392075D01*
X183907519Y-135367481D01*
X183882925Y-135337515D01*
X183864657Y-135303337D01*
X183853404Y-135266242D01*
X183849000Y-135221526D01*
X183849000Y-133778474D01*
X183853404Y-133733758D01*
X183864657Y-133696663D01*
X183882925Y-133662485D01*
X183907519Y-133632519D01*
X183937485Y-133607925D01*
X183971663Y-133589657D01*
X184008758Y-133578404D01*
X184053474Y-133574000D01*
X184946526Y-133574000D01*
X184991242Y-133578404D01*
X184991242Y-133578404D01*
G37*
G36*
X115569085Y-126623975D02*
G01*
X115924143Y-126771045D01*
X115924145Y-126771046D01*
X116243690Y-126984559D01*
X116515441Y-127256310D01*
X116728954Y-127575855D01*
X116728955Y-127575857D01*
X116876025Y-127930915D01*
X116951000Y-128307842D01*
X116951000Y-128692158D01*
X116876025Y-129069085D01*
X116777488Y-129306973D01*
X116728954Y-129424145D01*
X116515441Y-129743690D01*
X116243690Y-130015441D01*
X115924145Y-130228954D01*
X115924144Y-130228955D01*
X115924143Y-130228955D01*
X115569085Y-130376025D01*
X115192158Y-130451000D01*
X114807842Y-130451000D01*
X114430915Y-130376025D01*
X114075857Y-130228955D01*
X114075856Y-130228955D01*
X114075855Y-130228954D01*
X113756310Y-130015441D01*
X113484559Y-129743690D01*
X113271046Y-129424145D01*
X113222512Y-129306973D01*
X113123975Y-129069085D01*
X113049000Y-128692158D01*
X113049000Y-128307842D01*
X113123975Y-127930915D01*
X113271045Y-127575857D01*
X113271046Y-127575855D01*
X113484559Y-127256310D01*
X113756310Y-126984559D01*
X114075855Y-126771046D01*
X114075857Y-126771045D01*
X114430915Y-126623975D01*
X114807842Y-126549000D01*
X115192158Y-126549000D01*
X115569085Y-126623975D01*
X115569085Y-126623975D01*
G37*
G36*
X154069085Y-126623975D02*
G01*
X154424143Y-126771045D01*
X154424145Y-126771046D01*
X154743690Y-126984559D01*
X155015441Y-127256310D01*
X155228954Y-127575855D01*
X155228955Y-127575857D01*
X155376025Y-127930915D01*
X155451000Y-128307842D01*
X155451000Y-128692158D01*
X155376025Y-129069085D01*
X155277488Y-129306973D01*
X155228954Y-129424145D01*
X155015441Y-129743690D01*
X154743690Y-130015441D01*
X154424145Y-130228954D01*
X154424144Y-130228955D01*
X154424143Y-130228955D01*
X154069085Y-130376025D01*
X153692158Y-130451000D01*
X153307842Y-130451000D01*
X152930915Y-130376025D01*
X152575857Y-130228955D01*
X152575856Y-130228955D01*
X152575855Y-130228954D01*
X152256310Y-130015441D01*
X151984559Y-129743690D01*
X151771046Y-129424145D01*
X151722512Y-129306973D01*
X151623975Y-129069085D01*
X151549000Y-128692158D01*
X151549000Y-128307842D01*
X151623975Y-127930915D01*
X151771045Y-127575857D01*
X151771046Y-127575855D01*
X151984559Y-127256310D01*
X152256310Y-126984559D01*
X152575855Y-126771046D01*
X152575857Y-126771045D01*
X152930915Y-126623975D01*
X153307842Y-126549000D01*
X153692158Y-126549000D01*
X154069085Y-126623975D01*
X154069085Y-126623975D01*
G37*
G36*
X186627617Y-128083420D02*
G01*
X186708399Y-128107925D01*
X186750335Y-128120646D01*
X186863424Y-128181094D01*
X186962554Y-128262447D01*
X187043906Y-128361575D01*
X187104354Y-128474664D01*
X187114040Y-128506596D01*
X187141580Y-128597382D01*
X187141580Y-128597384D01*
X187150915Y-128692158D01*
X187151000Y-128693027D01*
X187151000Y-129306973D01*
X187141580Y-129402618D01*
X187114040Y-129493404D01*
X187104354Y-129525336D01*
X187043906Y-129638425D01*
X186962554Y-129737554D01*
X186863425Y-129818906D01*
X186750336Y-129879354D01*
X186718404Y-129889040D01*
X186627618Y-129916580D01*
X186500000Y-129929149D01*
X186372383Y-129916580D01*
X186281597Y-129889040D01*
X186249665Y-129879354D01*
X186136576Y-129818906D01*
X186037447Y-129737554D01*
X185956096Y-129638427D01*
X185956095Y-129638425D01*
X185895647Y-129525336D01*
X185895645Y-129525333D01*
X185883237Y-129484427D01*
X185858420Y-129402618D01*
X185849000Y-129306973D01*
X185849000Y-128693028D01*
X185858420Y-128597383D01*
X185895645Y-128474669D01*
X185895646Y-128474665D01*
X185956094Y-128361576D01*
X186037447Y-128262446D01*
X186136575Y-128181094D01*
X186249664Y-128120646D01*
X186291600Y-128107925D01*
X186372382Y-128083420D01*
X186500000Y-128070851D01*
X186627617Y-128083420D01*
X186627617Y-128083420D01*
G37*
G36*
X148127617Y-128083420D02*
G01*
X148208399Y-128107925D01*
X148250335Y-128120646D01*
X148363424Y-128181094D01*
X148462554Y-128262447D01*
X148543906Y-128361575D01*
X148604354Y-128474664D01*
X148614040Y-128506596D01*
X148641580Y-128597382D01*
X148641580Y-128597384D01*
X148650915Y-128692158D01*
X148651000Y-128693027D01*
X148651000Y-129306973D01*
X148641580Y-129402618D01*
X148614040Y-129493404D01*
X148604354Y-129525336D01*
X148543906Y-129638425D01*
X148462554Y-129737554D01*
X148363425Y-129818906D01*
X148250336Y-129879354D01*
X148218404Y-129889040D01*
X148127618Y-129916580D01*
X148000000Y-129929149D01*
X147872383Y-129916580D01*
X147781597Y-129889040D01*
X147749665Y-129879354D01*
X147636576Y-129818906D01*
X147537447Y-129737554D01*
X147456096Y-129638427D01*
X147456095Y-129638425D01*
X147395647Y-129525336D01*
X147395645Y-129525333D01*
X147383237Y-129484427D01*
X147358420Y-129402618D01*
X147349000Y-129306973D01*
X147349000Y-128693028D01*
X147358420Y-128597383D01*
X147395645Y-128474669D01*
X147395646Y-128474665D01*
X147456094Y-128361576D01*
X147537447Y-128262446D01*
X147636575Y-128181094D01*
X147749664Y-128120646D01*
X147791600Y-128107925D01*
X147872382Y-128083420D01*
X148000000Y-128070851D01*
X148127617Y-128083420D01*
X148127617Y-128083420D01*
G37*
G36*
X146491242Y-128078404D02*
G01*
X146528337Y-128089657D01*
X146562515Y-128107925D01*
X146592481Y-128132519D01*
X146617075Y-128162485D01*
X146635343Y-128196663D01*
X146646596Y-128233758D01*
X146651000Y-128278474D01*
X146651000Y-129721526D01*
X146646596Y-129766242D01*
X146635343Y-129803337D01*
X146617075Y-129837515D01*
X146592481Y-129867481D01*
X146562515Y-129892075D01*
X146528337Y-129910343D01*
X146491242Y-129921596D01*
X146446526Y-129926000D01*
X145553474Y-129926000D01*
X145508758Y-129921596D01*
X145471663Y-129910343D01*
X145437485Y-129892075D01*
X145407519Y-129867481D01*
X145382925Y-129837515D01*
X145364657Y-129803337D01*
X145353404Y-129766242D01*
X145349000Y-129721526D01*
X145349000Y-128278474D01*
X145353404Y-128233758D01*
X145364657Y-128196663D01*
X145382925Y-128162485D01*
X145407519Y-128132519D01*
X145437485Y-128107925D01*
X145471663Y-128089657D01*
X145508758Y-128078404D01*
X145553474Y-128074000D01*
X146446526Y-128074000D01*
X146491242Y-128078404D01*
X146491242Y-128078404D01*
G37*
G36*
X184991242Y-128078404D02*
G01*
X185028337Y-128089657D01*
X185062515Y-128107925D01*
X185092481Y-128132519D01*
X185117075Y-128162485D01*
X185135343Y-128196663D01*
X185146596Y-128233758D01*
X185151000Y-128278474D01*
X185151000Y-129721526D01*
X185146596Y-129766242D01*
X185135343Y-129803337D01*
X185117075Y-129837515D01*
X185092481Y-129867481D01*
X185062515Y-129892075D01*
X185028337Y-129910343D01*
X184991242Y-129921596D01*
X184946526Y-129926000D01*
X184053474Y-129926000D01*
X184008758Y-129921596D01*
X183971663Y-129910343D01*
X183937485Y-129892075D01*
X183907519Y-129867481D01*
X183882925Y-129837515D01*
X183864657Y-129803337D01*
X183853404Y-129766242D01*
X183849000Y-129721526D01*
X183849000Y-128278474D01*
X183853404Y-128233758D01*
X183864657Y-128196663D01*
X183882925Y-128162485D01*
X183907519Y-128132519D01*
X183937485Y-128107925D01*
X183971663Y-128089657D01*
X184008758Y-128078404D01*
X184053474Y-128074000D01*
X184946526Y-128074000D01*
X184991242Y-128078404D01*
X184991242Y-128078404D01*
G37*
G36*
X148127617Y-122583420D02*
G01*
X148208399Y-122607925D01*
X148250335Y-122620646D01*
X148363424Y-122681094D01*
X148462554Y-122762447D01*
X148543906Y-122861575D01*
X148604354Y-122974664D01*
X148614040Y-123006596D01*
X148641580Y-123097382D01*
X148651000Y-123193027D01*
X148651000Y-123806973D01*
X148641580Y-123902618D01*
X148614040Y-123993404D01*
X148604354Y-124025336D01*
X148543906Y-124138425D01*
X148462554Y-124237554D01*
X148363425Y-124318906D01*
X148250336Y-124379354D01*
X148218404Y-124389040D01*
X148127618Y-124416580D01*
X148000000Y-124429149D01*
X147872383Y-124416580D01*
X147781597Y-124389040D01*
X147749665Y-124379354D01*
X147636576Y-124318906D01*
X147537447Y-124237554D01*
X147456096Y-124138427D01*
X147456095Y-124138425D01*
X147395647Y-124025336D01*
X147395645Y-124025333D01*
X147383237Y-123984427D01*
X147358420Y-123902618D01*
X147349000Y-123806973D01*
X147349000Y-123193028D01*
X147358420Y-123097383D01*
X147395645Y-122974669D01*
X147395646Y-122974665D01*
X147456094Y-122861576D01*
X147537447Y-122762446D01*
X147636575Y-122681094D01*
X147749664Y-122620646D01*
X147791600Y-122607925D01*
X147872382Y-122583420D01*
X148000000Y-122570851D01*
X148127617Y-122583420D01*
X148127617Y-122583420D01*
G37*
G36*
X186627617Y-122583420D02*
G01*
X186708399Y-122607925D01*
X186750335Y-122620646D01*
X186863424Y-122681094D01*
X186962554Y-122762447D01*
X187043906Y-122861575D01*
X187104354Y-122974664D01*
X187114040Y-123006596D01*
X187141580Y-123097382D01*
X187151000Y-123193027D01*
X187151000Y-123806973D01*
X187141580Y-123902618D01*
X187114040Y-123993404D01*
X187104354Y-124025336D01*
X187043906Y-124138425D01*
X186962554Y-124237554D01*
X186863425Y-124318906D01*
X186750336Y-124379354D01*
X186718404Y-124389040D01*
X186627618Y-124416580D01*
X186500000Y-124429149D01*
X186372383Y-124416580D01*
X186281597Y-124389040D01*
X186249665Y-124379354D01*
X186136576Y-124318906D01*
X186037447Y-124237554D01*
X185956096Y-124138427D01*
X185956095Y-124138425D01*
X185895647Y-124025336D01*
X185895645Y-124025333D01*
X185883237Y-123984427D01*
X185858420Y-123902618D01*
X185849000Y-123806973D01*
X185849000Y-123193028D01*
X185858420Y-123097383D01*
X185895645Y-122974669D01*
X185895646Y-122974665D01*
X185956094Y-122861576D01*
X186037447Y-122762446D01*
X186136575Y-122681094D01*
X186249664Y-122620646D01*
X186291600Y-122607925D01*
X186372382Y-122583420D01*
X186500000Y-122570851D01*
X186627617Y-122583420D01*
X186627617Y-122583420D01*
G37*
G36*
X146491242Y-122578404D02*
G01*
X146528337Y-122589657D01*
X146562515Y-122607925D01*
X146592481Y-122632519D01*
X146617075Y-122662485D01*
X146635343Y-122696663D01*
X146646596Y-122733758D01*
X146651000Y-122778474D01*
X146651000Y-124221526D01*
X146646596Y-124266242D01*
X146635343Y-124303337D01*
X146617075Y-124337515D01*
X146592481Y-124367481D01*
X146562515Y-124392075D01*
X146528337Y-124410343D01*
X146491242Y-124421596D01*
X146446526Y-124426000D01*
X145553474Y-124426000D01*
X145508758Y-124421596D01*
X145471663Y-124410343D01*
X145437485Y-124392075D01*
X145407519Y-124367481D01*
X145382925Y-124337515D01*
X145364657Y-124303337D01*
X145353404Y-124266242D01*
X145349000Y-124221526D01*
X145349000Y-122778474D01*
X145353404Y-122733758D01*
X145364657Y-122696663D01*
X145382925Y-122662485D01*
X145407519Y-122632519D01*
X145437485Y-122607925D01*
X145471663Y-122589657D01*
X145508758Y-122578404D01*
X145553474Y-122574000D01*
X146446526Y-122574000D01*
X146491242Y-122578404D01*
X146491242Y-122578404D01*
G37*
G36*
X184991242Y-122578404D02*
G01*
X185028337Y-122589657D01*
X185062515Y-122607925D01*
X185092481Y-122632519D01*
X185117075Y-122662485D01*
X185135343Y-122696663D01*
X185146596Y-122733758D01*
X185151000Y-122778474D01*
X185151000Y-124221526D01*
X185146596Y-124266242D01*
X185135343Y-124303337D01*
X185117075Y-124337515D01*
X185092481Y-124367481D01*
X185062515Y-124392075D01*
X185028337Y-124410343D01*
X184991242Y-124421596D01*
X184946526Y-124426000D01*
X184053474Y-124426000D01*
X184008758Y-124421596D01*
X183971663Y-124410343D01*
X183937485Y-124392075D01*
X183907519Y-124367481D01*
X183882925Y-124337515D01*
X183864657Y-124303337D01*
X183853404Y-124266242D01*
X183849000Y-124221526D01*
X183849000Y-122778474D01*
X183853404Y-122733758D01*
X183864657Y-122696663D01*
X183882925Y-122662485D01*
X183907519Y-122632519D01*
X183937485Y-122607925D01*
X183971663Y-122589657D01*
X184008758Y-122578404D01*
X184053474Y-122574000D01*
X184946526Y-122574000D01*
X184991242Y-122578404D01*
X184991242Y-122578404D01*
G37*
G36*
X168451000Y-121451000D02*
G01*
X164549000Y-121451000D01*
X164549000Y-117549000D01*
X168451000Y-117549000D01*
X168451000Y-121451000D01*
X168451000Y-121451000D01*
G37*
G36*
X161951000Y-121451000D02*
G01*
X158049000Y-121451000D01*
X158049000Y-117549000D01*
X161951000Y-117549000D01*
X161951000Y-121451000D01*
X161951000Y-121451000D01*
G37*
G36*
X123451000Y-121451000D02*
G01*
X119549000Y-121451000D01*
X119549000Y-117549000D01*
X123451000Y-117549000D01*
X123451000Y-121451000D01*
X123451000Y-121451000D01*
G37*
G36*
X174951000Y-121451000D02*
G01*
X171049000Y-121451000D01*
X171049000Y-117549000D01*
X174951000Y-117549000D01*
X174951000Y-121451000D01*
X174951000Y-121451000D01*
G37*
G36*
X136451000Y-121451000D02*
G01*
X132549000Y-121451000D01*
X132549000Y-117549000D01*
X136451000Y-117549000D01*
X136451000Y-121451000D01*
X136451000Y-121451000D01*
G37*
G36*
X181451000Y-121451000D02*
G01*
X177549000Y-121451000D01*
X177549000Y-117549000D01*
X181451000Y-117549000D01*
X181451000Y-121451000D01*
X181451000Y-121451000D01*
G37*
G36*
X142951000Y-121451000D02*
G01*
X139049000Y-121451000D01*
X139049000Y-117549000D01*
X142951000Y-117549000D01*
X142951000Y-121451000D01*
X142951000Y-121451000D01*
G37*
G36*
X129951000Y-121451000D02*
G01*
X126049000Y-121451000D01*
X126049000Y-117549000D01*
X129951000Y-117549000D01*
X129951000Y-121451000D01*
X129951000Y-121451000D01*
G37*
G36*
X115846189Y-105710483D02*
G01*
X115846192Y-105710484D01*
X115846191Y-105710484D01*
X116374139Y-105929167D01*
X116849280Y-106246646D01*
X117253354Y-106650720D01*
X117401465Y-106872384D01*
X117570834Y-107125863D01*
X117789517Y-107653811D01*
X117901000Y-108214275D01*
X117901000Y-108785725D01*
X117789517Y-109346189D01*
X117665419Y-109645788D01*
X117570833Y-109874139D01*
X117253354Y-110349280D01*
X116849280Y-110753354D01*
X116374139Y-111070833D01*
X116374138Y-111070834D01*
X116374137Y-111070834D01*
X115846189Y-111289517D01*
X115404355Y-111377403D01*
X115380906Y-111384516D01*
X115359295Y-111396067D01*
X115340353Y-111411612D01*
X115324808Y-111430554D01*
X115313257Y-111452165D01*
X115306144Y-111475614D01*
X115303742Y-111500000D01*
X115306144Y-111524386D01*
X115313257Y-111547835D01*
X115324808Y-111569446D01*
X115340353Y-111588388D01*
X115359295Y-111603933D01*
X115380906Y-111615484D01*
X115404355Y-111622597D01*
X115846189Y-111710483D01*
X115846192Y-111710484D01*
X115846191Y-111710484D01*
X116374139Y-111929167D01*
X116849280Y-112246646D01*
X117253354Y-112650720D01*
X117424517Y-112906884D01*
X117570834Y-113125863D01*
X117789517Y-113653811D01*
X117901000Y-114214275D01*
X117901000Y-114785725D01*
X117789517Y-115346189D01*
X117789516Y-115346191D01*
X117570833Y-115874139D01*
X117253354Y-116349280D01*
X116849280Y-116753354D01*
X116374139Y-117070833D01*
X116374138Y-117070834D01*
X116374137Y-117070834D01*
X115846189Y-117289517D01*
X115285725Y-117401000D01*
X114714275Y-117401000D01*
X114153811Y-117289517D01*
X113625863Y-117070834D01*
X113625862Y-117070834D01*
X113625861Y-117070833D01*
X113150720Y-116753354D01*
X112746646Y-116349280D01*
X112429167Y-115874139D01*
X112210484Y-115346191D01*
X112210483Y-115346189D01*
X112099000Y-114785725D01*
X112099000Y-114214275D01*
X112210483Y-113653811D01*
X112429166Y-113125863D01*
X112575483Y-112906884D01*
X112746646Y-112650720D01*
X113150720Y-112246646D01*
X113625861Y-111929167D01*
X114153809Y-111710484D01*
X114153808Y-111710484D01*
X114153811Y-111710483D01*
X114595645Y-111622597D01*
X114619094Y-111615484D01*
X114640705Y-111603933D01*
X114659647Y-111588388D01*
X114675192Y-111569446D01*
X114686743Y-111547835D01*
X114693856Y-111524386D01*
X114696258Y-111500000D01*
X114693856Y-111475614D01*
X114686743Y-111452165D01*
X114675192Y-111430554D01*
X114659647Y-111411612D01*
X114640705Y-111396067D01*
X114619094Y-111384516D01*
X114595645Y-111377403D01*
X114153811Y-111289517D01*
X113625863Y-111070834D01*
X113625862Y-111070834D01*
X113625861Y-111070833D01*
X113150720Y-110753354D01*
X112746646Y-110349280D01*
X112429167Y-109874139D01*
X112334581Y-109645788D01*
X112210483Y-109346189D01*
X112099000Y-108785725D01*
X112099000Y-108214275D01*
X112210483Y-107653811D01*
X112429166Y-107125863D01*
X112598535Y-106872384D01*
X112746646Y-106650720D01*
X113150720Y-106246646D01*
X113625861Y-105929167D01*
X114153809Y-105710484D01*
X114153808Y-105710484D01*
X114153811Y-105710483D01*
X114714275Y-105599000D01*
X115285725Y-105599000D01*
X115846189Y-105710483D01*
X115846189Y-105710483D01*
G37*
G36*
X186846189Y-105710483D02*
G01*
X186846192Y-105710484D01*
X186846191Y-105710484D01*
X187374139Y-105929167D01*
X187849280Y-106246646D01*
X188253354Y-106650720D01*
X188401465Y-106872384D01*
X188570834Y-107125863D01*
X188789517Y-107653811D01*
X188901000Y-108214275D01*
X188901000Y-108785725D01*
X188789517Y-109346189D01*
X188665419Y-109645788D01*
X188570833Y-109874139D01*
X188253354Y-110349280D01*
X187849280Y-110753354D01*
X187374139Y-111070833D01*
X187374138Y-111070834D01*
X187374137Y-111070834D01*
X186846189Y-111289517D01*
X186404355Y-111377403D01*
X186380906Y-111384516D01*
X186359295Y-111396067D01*
X186340353Y-111411612D01*
X186324808Y-111430554D01*
X186313257Y-111452165D01*
X186306144Y-111475614D01*
X186303742Y-111500000D01*
X186306144Y-111524386D01*
X186313257Y-111547835D01*
X186324808Y-111569446D01*
X186340353Y-111588388D01*
X186359295Y-111603933D01*
X186380906Y-111615484D01*
X186404355Y-111622597D01*
X186846189Y-111710483D01*
X186846192Y-111710484D01*
X186846191Y-111710484D01*
X187374139Y-111929167D01*
X187849280Y-112246646D01*
X188253354Y-112650720D01*
X188424517Y-112906884D01*
X188570834Y-113125863D01*
X188789517Y-113653811D01*
X188901000Y-114214275D01*
X188901000Y-114785725D01*
X188789517Y-115346189D01*
X188789516Y-115346191D01*
X188570833Y-115874139D01*
X188253354Y-116349280D01*
X187849280Y-116753354D01*
X187374139Y-117070833D01*
X187374138Y-117070834D01*
X187374137Y-117070834D01*
X186846189Y-117289517D01*
X186285725Y-117401000D01*
X185714275Y-117401000D01*
X185153811Y-117289517D01*
X184625863Y-117070834D01*
X184625862Y-117070834D01*
X184625861Y-117070833D01*
X184150720Y-116753354D01*
X183746646Y-116349280D01*
X183429167Y-115874139D01*
X183210484Y-115346191D01*
X183210483Y-115346189D01*
X183099000Y-114785725D01*
X183099000Y-114214275D01*
X183210483Y-113653811D01*
X183429166Y-113125863D01*
X183575483Y-112906884D01*
X183746646Y-112650720D01*
X184150720Y-112246646D01*
X184625861Y-111929167D01*
X185153809Y-111710484D01*
X185153808Y-111710484D01*
X185153811Y-111710483D01*
X185595645Y-111622597D01*
X185619094Y-111615484D01*
X185640705Y-111603933D01*
X185659647Y-111588388D01*
X185675192Y-111569446D01*
X185686743Y-111547835D01*
X185693856Y-111524386D01*
X185696258Y-111500000D01*
X185693856Y-111475614D01*
X185686743Y-111452165D01*
X185675192Y-111430554D01*
X185659647Y-111411612D01*
X185640705Y-111396067D01*
X185619094Y-111384516D01*
X185595645Y-111377403D01*
X185153811Y-111289517D01*
X184625863Y-111070834D01*
X184625862Y-111070834D01*
X184625861Y-111070833D01*
X184150720Y-110753354D01*
X183746646Y-110349280D01*
X183429167Y-109874139D01*
X183334581Y-109645788D01*
X183210483Y-109346189D01*
X183099000Y-108785725D01*
X183099000Y-108214275D01*
X183210483Y-107653811D01*
X183429166Y-107125863D01*
X183598535Y-106872384D01*
X183746646Y-106650720D01*
X184150720Y-106246646D01*
X184625861Y-105929167D01*
X185153809Y-105710484D01*
X185153808Y-105710484D01*
X185153811Y-105710483D01*
X185714275Y-105599000D01*
X186285725Y-105599000D01*
X186846189Y-105710483D01*
X186846189Y-105710483D01*
G37*
G36*
X148346189Y-105710483D02*
G01*
X148346192Y-105710484D01*
X148346191Y-105710484D01*
X148874139Y-105929167D01*
X149349280Y-106246646D01*
X149753354Y-106650720D01*
X149901465Y-106872384D01*
X150070834Y-107125863D01*
X150289517Y-107653811D01*
X150377403Y-108095645D01*
X150384516Y-108119094D01*
X150396067Y-108140705D01*
X150411612Y-108159647D01*
X150430554Y-108175192D01*
X150452165Y-108186743D01*
X150475614Y-108193856D01*
X150500000Y-108196258D01*
X150524386Y-108193856D01*
X150547835Y-108186743D01*
X150569446Y-108175192D01*
X150588388Y-108159647D01*
X150603933Y-108140705D01*
X150615484Y-108119094D01*
X150622597Y-108095645D01*
X150710483Y-107653811D01*
X150929166Y-107125863D01*
X151098535Y-106872384D01*
X151246646Y-106650720D01*
X151650720Y-106246646D01*
X152125861Y-105929167D01*
X152653809Y-105710484D01*
X152653808Y-105710484D01*
X152653811Y-105710483D01*
X153214275Y-105599000D01*
X153785725Y-105599000D01*
X154346189Y-105710483D01*
X154346192Y-105710484D01*
X154346191Y-105710484D01*
X154874139Y-105929167D01*
X155349280Y-106246646D01*
X155753354Y-106650720D01*
X155901465Y-106872384D01*
X156070834Y-107125863D01*
X156289517Y-107653811D01*
X156401000Y-108214275D01*
X156401000Y-108785725D01*
X156289517Y-109346189D01*
X156165419Y-109645788D01*
X156070833Y-109874139D01*
X155753354Y-110349280D01*
X155349280Y-110753354D01*
X154874139Y-111070833D01*
X154874138Y-111070834D01*
X154874137Y-111070834D01*
X154346189Y-111289517D01*
X153904355Y-111377403D01*
X153880906Y-111384516D01*
X153859295Y-111396067D01*
X153840353Y-111411612D01*
X153824808Y-111430554D01*
X153813257Y-111452165D01*
X153806144Y-111475614D01*
X153803742Y-111500000D01*
X153806144Y-111524386D01*
X153813257Y-111547835D01*
X153824808Y-111569446D01*
X153840353Y-111588388D01*
X153859295Y-111603933D01*
X153880906Y-111615484D01*
X153904355Y-111622597D01*
X154346189Y-111710483D01*
X154346192Y-111710484D01*
X154346191Y-111710484D01*
X154874139Y-111929167D01*
X155349280Y-112246646D01*
X155753354Y-112650720D01*
X155924517Y-112906884D01*
X156070834Y-113125863D01*
X156289517Y-113653811D01*
X156401000Y-114214275D01*
X156401000Y-114785725D01*
X156289517Y-115346189D01*
X156289516Y-115346191D01*
X156070833Y-115874139D01*
X155753354Y-116349280D01*
X155349280Y-116753354D01*
X154874139Y-117070833D01*
X154874138Y-117070834D01*
X154874137Y-117070834D01*
X154346189Y-117289517D01*
X153785725Y-117401000D01*
X153214275Y-117401000D01*
X152653811Y-117289517D01*
X152125863Y-117070834D01*
X152125862Y-117070834D01*
X152125861Y-117070833D01*
X151650720Y-116753354D01*
X151246646Y-116349280D01*
X150929167Y-115874139D01*
X150710484Y-115346191D01*
X150710483Y-115346189D01*
X150622597Y-114904355D01*
X150615484Y-114880906D01*
X150603933Y-114859295D01*
X150588388Y-114840353D01*
X150569446Y-114824808D01*
X150547835Y-114813257D01*
X150524386Y-114806144D01*
X150500000Y-114803742D01*
X150475614Y-114806144D01*
X150452165Y-114813257D01*
X150430554Y-114824808D01*
X150411612Y-114840353D01*
X150396067Y-114859295D01*
X150384516Y-114880906D01*
X150377403Y-114904355D01*
X150289517Y-115346189D01*
X150289516Y-115346191D01*
X150070833Y-115874139D01*
X149753354Y-116349280D01*
X149349280Y-116753354D01*
X148874139Y-117070833D01*
X148874138Y-117070834D01*
X148874137Y-117070834D01*
X148346189Y-117289517D01*
X147785725Y-117401000D01*
X147214275Y-117401000D01*
X146653811Y-117289517D01*
X146125863Y-117070834D01*
X146125862Y-117070834D01*
X146125861Y-117070833D01*
X145650720Y-116753354D01*
X145246646Y-116349280D01*
X144929167Y-115874139D01*
X144710484Y-115346191D01*
X144710483Y-115346189D01*
X144599000Y-114785725D01*
X144599000Y-114214275D01*
X144710483Y-113653811D01*
X144929166Y-113125863D01*
X145075483Y-112906884D01*
X145246646Y-112650720D01*
X145650720Y-112246646D01*
X146125861Y-111929167D01*
X146653809Y-111710484D01*
X146653808Y-111710484D01*
X146653811Y-111710483D01*
X147095645Y-111622597D01*
X147119094Y-111615484D01*
X147140705Y-111603933D01*
X147159647Y-111588388D01*
X147175192Y-111569446D01*
X147186743Y-111547835D01*
X147193856Y-111524386D01*
X147196258Y-111500000D01*
X147803742Y-111500000D01*
X147806144Y-111524386D01*
X147813257Y-111547835D01*
X147824808Y-111569446D01*
X147840353Y-111588388D01*
X147859295Y-111603933D01*
X147880906Y-111615484D01*
X147904355Y-111622597D01*
X148346189Y-111710483D01*
X148346192Y-111710484D01*
X148346191Y-111710484D01*
X148874139Y-111929167D01*
X149349280Y-112246646D01*
X149753354Y-112650720D01*
X149924517Y-112906884D01*
X150070834Y-113125863D01*
X150289517Y-113653811D01*
X150377403Y-114095645D01*
X150384516Y-114119094D01*
X150396067Y-114140705D01*
X150411612Y-114159647D01*
X150430554Y-114175192D01*
X150452165Y-114186743D01*
X150475614Y-114193856D01*
X150500000Y-114196258D01*
X150524386Y-114193856D01*
X150547835Y-114186743D01*
X150569446Y-114175192D01*
X150588388Y-114159647D01*
X150603933Y-114140705D01*
X150615484Y-114119094D01*
X150622597Y-114095645D01*
X150710483Y-113653811D01*
X150929166Y-113125863D01*
X151075483Y-112906884D01*
X151246646Y-112650720D01*
X151650720Y-112246646D01*
X152125861Y-111929167D01*
X152653809Y-111710484D01*
X152653808Y-111710484D01*
X152653811Y-111710483D01*
X153095645Y-111622597D01*
X153119094Y-111615484D01*
X153140705Y-111603933D01*
X153159647Y-111588388D01*
X153175192Y-111569446D01*
X153186743Y-111547835D01*
X153193856Y-111524386D01*
X153196258Y-111500000D01*
X153193856Y-111475614D01*
X153186743Y-111452165D01*
X153175192Y-111430554D01*
X153159647Y-111411612D01*
X153140705Y-111396067D01*
X153119094Y-111384516D01*
X153095645Y-111377403D01*
X152653811Y-111289517D01*
X152125863Y-111070834D01*
X152125862Y-111070834D01*
X152125861Y-111070833D01*
X151650720Y-110753354D01*
X151246646Y-110349280D01*
X150929167Y-109874139D01*
X150834581Y-109645788D01*
X150710483Y-109346189D01*
X150622597Y-108904355D01*
X150615484Y-108880906D01*
X150603933Y-108859295D01*
X150588388Y-108840353D01*
X150569446Y-108824808D01*
X150547835Y-108813257D01*
X150524386Y-108806144D01*
X150500000Y-108803742D01*
X150475614Y-108806144D01*
X150452165Y-108813257D01*
X150430554Y-108824808D01*
X150411612Y-108840353D01*
X150396067Y-108859295D01*
X150384516Y-108880906D01*
X150377403Y-108904355D01*
X150289517Y-109346189D01*
X150165419Y-109645788D01*
X150070833Y-109874139D01*
X149753354Y-110349280D01*
X149349280Y-110753354D01*
X148874139Y-111070833D01*
X148874138Y-111070834D01*
X148874137Y-111070834D01*
X148346189Y-111289517D01*
X147904355Y-111377403D01*
X147880906Y-111384516D01*
X147859295Y-111396067D01*
X147840353Y-111411612D01*
X147824808Y-111430554D01*
X147813257Y-111452165D01*
X147806144Y-111475614D01*
X147803742Y-111500000D01*
X147196258Y-111500000D01*
X147193856Y-111475614D01*
X147186743Y-111452165D01*
X147175192Y-111430554D01*
X147159647Y-111411612D01*
X147140705Y-111396067D01*
X147119094Y-111384516D01*
X147095645Y-111377403D01*
X146653811Y-111289517D01*
X146125863Y-111070834D01*
X146125862Y-111070834D01*
X146125861Y-111070833D01*
X145650720Y-110753354D01*
X145246646Y-110349280D01*
X144929167Y-109874139D01*
X144834581Y-109645788D01*
X144710483Y-109346189D01*
X144599000Y-108785725D01*
X144599000Y-108214275D01*
X144710483Y-107653811D01*
X144929166Y-107125863D01*
X145098535Y-106872384D01*
X145246646Y-106650720D01*
X145650720Y-106246646D01*
X146125861Y-105929167D01*
X146653809Y-105710484D01*
X146653808Y-105710484D01*
X146653811Y-105710483D01*
X147214275Y-105599000D01*
X147785725Y-105599000D01*
X148346189Y-105710483D01*
X148346189Y-105710483D01*
G37*
G36*
X122098254Y-112527818D02*
G01*
X122394968Y-112650721D01*
X122471513Y-112682427D01*
X122807436Y-112906884D01*
X123093116Y-113192564D01*
X123317574Y-113528489D01*
X123472182Y-113901746D01*
X123551000Y-114297993D01*
X123551000Y-114702007D01*
X123472182Y-115098254D01*
X123369484Y-115346189D01*
X123317573Y-115471513D01*
X123093116Y-115807436D01*
X122807436Y-116093116D01*
X122471513Y-116317573D01*
X122471512Y-116317574D01*
X122471511Y-116317574D01*
X122098254Y-116472182D01*
X121702007Y-116551000D01*
X121297993Y-116551000D01*
X120901746Y-116472182D01*
X120528489Y-116317574D01*
X120528488Y-116317574D01*
X120528487Y-116317573D01*
X120192564Y-116093116D01*
X119906884Y-115807436D01*
X119682427Y-115471513D01*
X119630516Y-115346189D01*
X119527818Y-115098254D01*
X119449000Y-114702007D01*
X119449000Y-114297993D01*
X119527818Y-113901746D01*
X119682426Y-113528489D01*
X119906884Y-113192564D01*
X120192564Y-112906884D01*
X120528487Y-112682427D01*
X120605032Y-112650721D01*
X120901746Y-112527818D01*
X121297993Y-112449000D01*
X121702007Y-112449000D01*
X122098254Y-112527818D01*
X122098254Y-112527818D01*
G37*
G36*
X128598254Y-112527818D02*
G01*
X128894968Y-112650721D01*
X128971513Y-112682427D01*
X129307436Y-112906884D01*
X129593116Y-113192564D01*
X129817574Y-113528489D01*
X129972182Y-113901746D01*
X130051000Y-114297993D01*
X130051000Y-114702007D01*
X129972182Y-115098254D01*
X129869484Y-115346189D01*
X129817573Y-115471513D01*
X129593116Y-115807436D01*
X129307436Y-116093116D01*
X128971513Y-116317573D01*
X128971512Y-116317574D01*
X128971511Y-116317574D01*
X128598254Y-116472182D01*
X128202007Y-116551000D01*
X127797993Y-116551000D01*
X127401746Y-116472182D01*
X127028489Y-116317574D01*
X127028488Y-116317574D01*
X127028487Y-116317573D01*
X126692564Y-116093116D01*
X126406884Y-115807436D01*
X126182427Y-115471513D01*
X126130516Y-115346189D01*
X126027818Y-115098254D01*
X125949000Y-114702007D01*
X125949000Y-114297993D01*
X126027818Y-113901746D01*
X126182426Y-113528489D01*
X126406884Y-113192564D01*
X126692564Y-112906884D01*
X127028487Y-112682427D01*
X127105032Y-112650721D01*
X127401746Y-112527818D01*
X127797993Y-112449000D01*
X128202007Y-112449000D01*
X128598254Y-112527818D01*
X128598254Y-112527818D01*
G37*
G36*
X141598254Y-112527818D02*
G01*
X141894968Y-112650721D01*
X141971513Y-112682427D01*
X142307436Y-112906884D01*
X142593116Y-113192564D01*
X142817574Y-113528489D01*
X142972182Y-113901746D01*
X143051000Y-114297993D01*
X143051000Y-114702007D01*
X142972182Y-115098254D01*
X142869484Y-115346189D01*
X142817573Y-115471513D01*
X142593116Y-115807436D01*
X142307436Y-116093116D01*
X141971513Y-116317573D01*
X141971512Y-116317574D01*
X141971511Y-116317574D01*
X141598254Y-116472182D01*
X141202007Y-116551000D01*
X140797993Y-116551000D01*
X140401746Y-116472182D01*
X140028489Y-116317574D01*
X140028488Y-116317574D01*
X140028487Y-116317573D01*
X139692564Y-116093116D01*
X139406884Y-115807436D01*
X139182427Y-115471513D01*
X139130516Y-115346189D01*
X139027818Y-115098254D01*
X138949000Y-114702007D01*
X138949000Y-114297993D01*
X139027818Y-113901746D01*
X139182426Y-113528489D01*
X139406884Y-113192564D01*
X139692564Y-112906884D01*
X140028487Y-112682427D01*
X140105032Y-112650721D01*
X140401746Y-112527818D01*
X140797993Y-112449000D01*
X141202007Y-112449000D01*
X141598254Y-112527818D01*
X141598254Y-112527818D01*
G37*
G36*
X160598254Y-112527818D02*
G01*
X160894968Y-112650721D01*
X160971513Y-112682427D01*
X161307436Y-112906884D01*
X161593116Y-113192564D01*
X161817574Y-113528489D01*
X161972182Y-113901746D01*
X162051000Y-114297993D01*
X162051000Y-114702007D01*
X161972182Y-115098254D01*
X161869484Y-115346189D01*
X161817573Y-115471513D01*
X161593116Y-115807436D01*
X161307436Y-116093116D01*
X160971513Y-116317573D01*
X160971512Y-116317574D01*
X160971511Y-116317574D01*
X160598254Y-116472182D01*
X160202007Y-116551000D01*
X159797993Y-116551000D01*
X159401746Y-116472182D01*
X159028489Y-116317574D01*
X159028488Y-116317574D01*
X159028487Y-116317573D01*
X158692564Y-116093116D01*
X158406884Y-115807436D01*
X158182427Y-115471513D01*
X158130516Y-115346189D01*
X158027818Y-115098254D01*
X157949000Y-114702007D01*
X157949000Y-114297993D01*
X158027818Y-113901746D01*
X158182426Y-113528489D01*
X158406884Y-113192564D01*
X158692564Y-112906884D01*
X159028487Y-112682427D01*
X159105032Y-112650721D01*
X159401746Y-112527818D01*
X159797993Y-112449000D01*
X160202007Y-112449000D01*
X160598254Y-112527818D01*
X160598254Y-112527818D01*
G37*
G36*
X167098254Y-112527818D02*
G01*
X167394968Y-112650721D01*
X167471513Y-112682427D01*
X167807436Y-112906884D01*
X168093116Y-113192564D01*
X168317574Y-113528489D01*
X168472182Y-113901746D01*
X168551000Y-114297993D01*
X168551000Y-114702007D01*
X168472182Y-115098254D01*
X168369484Y-115346189D01*
X168317573Y-115471513D01*
X168093116Y-115807436D01*
X167807436Y-116093116D01*
X167471513Y-116317573D01*
X167471512Y-116317574D01*
X167471511Y-116317574D01*
X167098254Y-116472182D01*
X166702007Y-116551000D01*
X166297993Y-116551000D01*
X165901746Y-116472182D01*
X165528489Y-116317574D01*
X165528488Y-116317574D01*
X165528487Y-116317573D01*
X165192564Y-116093116D01*
X164906884Y-115807436D01*
X164682427Y-115471513D01*
X164630516Y-115346189D01*
X164527818Y-115098254D01*
X164449000Y-114702007D01*
X164449000Y-114297993D01*
X164527818Y-113901746D01*
X164682426Y-113528489D01*
X164906884Y-113192564D01*
X165192564Y-112906884D01*
X165528487Y-112682427D01*
X165605032Y-112650721D01*
X165901746Y-112527818D01*
X166297993Y-112449000D01*
X166702007Y-112449000D01*
X167098254Y-112527818D01*
X167098254Y-112527818D01*
G37*
G36*
X180098254Y-112527818D02*
G01*
X180394968Y-112650721D01*
X180471513Y-112682427D01*
X180807436Y-112906884D01*
X181093116Y-113192564D01*
X181317574Y-113528489D01*
X181472182Y-113901746D01*
X181551000Y-114297993D01*
X181551000Y-114702007D01*
X181472182Y-115098254D01*
X181369484Y-115346189D01*
X181317573Y-115471513D01*
X181093116Y-115807436D01*
X180807436Y-116093116D01*
X180471513Y-116317573D01*
X180471512Y-116317574D01*
X180471511Y-116317574D01*
X180098254Y-116472182D01*
X179702007Y-116551000D01*
X179297993Y-116551000D01*
X178901746Y-116472182D01*
X178528489Y-116317574D01*
X178528488Y-116317574D01*
X178528487Y-116317573D01*
X178192564Y-116093116D01*
X177906884Y-115807436D01*
X177682427Y-115471513D01*
X177630516Y-115346189D01*
X177527818Y-115098254D01*
X177449000Y-114702007D01*
X177449000Y-114297993D01*
X177527818Y-113901746D01*
X177682426Y-113528489D01*
X177906884Y-113192564D01*
X178192564Y-112906884D01*
X178528487Y-112682427D01*
X178605032Y-112650721D01*
X178901746Y-112527818D01*
X179297993Y-112449000D01*
X179702007Y-112449000D01*
X180098254Y-112527818D01*
X180098254Y-112527818D01*
G37*
G36*
X173598254Y-112527818D02*
G01*
X173894968Y-112650721D01*
X173971513Y-112682427D01*
X174307436Y-112906884D01*
X174593116Y-113192564D01*
X174817574Y-113528489D01*
X174972182Y-113901746D01*
X175051000Y-114297993D01*
X175051000Y-114702007D01*
X174972182Y-115098254D01*
X174869484Y-115346189D01*
X174817573Y-115471513D01*
X174593116Y-115807436D01*
X174307436Y-116093116D01*
X173971513Y-116317573D01*
X173971512Y-116317574D01*
X173971511Y-116317574D01*
X173598254Y-116472182D01*
X173202007Y-116551000D01*
X172797993Y-116551000D01*
X172401746Y-116472182D01*
X172028489Y-116317574D01*
X172028488Y-116317574D01*
X172028487Y-116317573D01*
X171692564Y-116093116D01*
X171406884Y-115807436D01*
X171182427Y-115471513D01*
X171130516Y-115346189D01*
X171027818Y-115098254D01*
X170949000Y-114702007D01*
X170949000Y-114297993D01*
X171027818Y-113901746D01*
X171182426Y-113528489D01*
X171406884Y-113192564D01*
X171692564Y-112906884D01*
X172028487Y-112682427D01*
X172105032Y-112650721D01*
X172401746Y-112527818D01*
X172797993Y-112449000D01*
X173202007Y-112449000D01*
X173598254Y-112527818D01*
X173598254Y-112527818D01*
G37*
G36*
X135098254Y-112527818D02*
G01*
X135394968Y-112650721D01*
X135471513Y-112682427D01*
X135807436Y-112906884D01*
X136093116Y-113192564D01*
X136317574Y-113528489D01*
X136472182Y-113901746D01*
X136551000Y-114297993D01*
X136551000Y-114702007D01*
X136472182Y-115098254D01*
X136369484Y-115346189D01*
X136317573Y-115471513D01*
X136093116Y-115807436D01*
X135807436Y-116093116D01*
X135471513Y-116317573D01*
X135471512Y-116317574D01*
X135471511Y-116317574D01*
X135098254Y-116472182D01*
X134702007Y-116551000D01*
X134297993Y-116551000D01*
X133901746Y-116472182D01*
X133528489Y-116317574D01*
X133528488Y-116317574D01*
X133528487Y-116317573D01*
X133192564Y-116093116D01*
X132906884Y-115807436D01*
X132682427Y-115471513D01*
X132630516Y-115346189D01*
X132527818Y-115098254D01*
X132449000Y-114702007D01*
X132449000Y-114297993D01*
X132527818Y-113901746D01*
X132682426Y-113528489D01*
X132906884Y-113192564D01*
X133192564Y-112906884D01*
X133528487Y-112682427D01*
X133605032Y-112650721D01*
X133901746Y-112527818D01*
X134297993Y-112449000D01*
X134702007Y-112449000D01*
X135098254Y-112527818D01*
X135098254Y-112527818D01*
G37*
G36*
X178766242Y-108353404D02*
G01*
X178803337Y-108364657D01*
X178837515Y-108382925D01*
X178867481Y-108407519D01*
X178892075Y-108437485D01*
X178910343Y-108471663D01*
X178921596Y-108508758D01*
X178926000Y-108553474D01*
X178926000Y-109446526D01*
X178921596Y-109491242D01*
X178910343Y-109528337D01*
X178892075Y-109562515D01*
X178867481Y-109592481D01*
X178837515Y-109617075D01*
X178803337Y-109635343D01*
X178766242Y-109646596D01*
X178721526Y-109651000D01*
X177278474Y-109651000D01*
X177233758Y-109646596D01*
X177196663Y-109635343D01*
X177162485Y-109617075D01*
X177132519Y-109592481D01*
X177107925Y-109562515D01*
X177089657Y-109528337D01*
X177078404Y-109491242D01*
X177074000Y-109446526D01*
X177074000Y-108553474D01*
X177078404Y-108508758D01*
X177089657Y-108471663D01*
X177107925Y-108437485D01*
X177132519Y-108407519D01*
X177162485Y-108382925D01*
X177196663Y-108364657D01*
X177233758Y-108353404D01*
X177278474Y-108349000D01*
X178721526Y-108349000D01*
X178766242Y-108353404D01*
X178766242Y-108353404D01*
G37*
G36*
X134766242Y-108353404D02*
G01*
X134803337Y-108364657D01*
X134837515Y-108382925D01*
X134867481Y-108407519D01*
X134892075Y-108437485D01*
X134910343Y-108471663D01*
X134921596Y-108508758D01*
X134926000Y-108553474D01*
X134926000Y-109446526D01*
X134921596Y-109491242D01*
X134910343Y-109528337D01*
X134892075Y-109562515D01*
X134867481Y-109592481D01*
X134837515Y-109617075D01*
X134803337Y-109635343D01*
X134766242Y-109646596D01*
X134721526Y-109651000D01*
X133278474Y-109651000D01*
X133233758Y-109646596D01*
X133196663Y-109635343D01*
X133162485Y-109617075D01*
X133132519Y-109592481D01*
X133107925Y-109562515D01*
X133089657Y-109528337D01*
X133078404Y-109491242D01*
X133074000Y-109446526D01*
X133074000Y-108553474D01*
X133078404Y-108508758D01*
X133089657Y-108471663D01*
X133107925Y-108437485D01*
X133132519Y-108407519D01*
X133162485Y-108382925D01*
X133196663Y-108364657D01*
X133233758Y-108353404D01*
X133278474Y-108349000D01*
X134721526Y-108349000D01*
X134766242Y-108353404D01*
X134766242Y-108353404D01*
G37*
G36*
X140266242Y-108353404D02*
G01*
X140303337Y-108364657D01*
X140337515Y-108382925D01*
X140367481Y-108407519D01*
X140392075Y-108437485D01*
X140410343Y-108471663D01*
X140421596Y-108508758D01*
X140426000Y-108553474D01*
X140426000Y-109446526D01*
X140421596Y-109491242D01*
X140410343Y-109528337D01*
X140392075Y-109562515D01*
X140367481Y-109592481D01*
X140337515Y-109617075D01*
X140303337Y-109635343D01*
X140266242Y-109646596D01*
X140221526Y-109651000D01*
X138778474Y-109651000D01*
X138733758Y-109646596D01*
X138696663Y-109635343D01*
X138662485Y-109617075D01*
X138632519Y-109592481D01*
X138607925Y-109562515D01*
X138589657Y-109528337D01*
X138578404Y-109491242D01*
X138574000Y-109446526D01*
X138574000Y-108553474D01*
X138578404Y-108508758D01*
X138589657Y-108471663D01*
X138607925Y-108437485D01*
X138632519Y-108407519D01*
X138662485Y-108382925D01*
X138696663Y-108364657D01*
X138733758Y-108353404D01*
X138778474Y-108349000D01*
X140221526Y-108349000D01*
X140266242Y-108353404D01*
X140266242Y-108353404D01*
G37*
G36*
X173266242Y-108353404D02*
G01*
X173303337Y-108364657D01*
X173337515Y-108382925D01*
X173367481Y-108407519D01*
X173392075Y-108437485D01*
X173410343Y-108471663D01*
X173421596Y-108508758D01*
X173426000Y-108553474D01*
X173426000Y-109446526D01*
X173421596Y-109491242D01*
X173410343Y-109528337D01*
X173392075Y-109562515D01*
X173367481Y-109592481D01*
X173337515Y-109617075D01*
X173303337Y-109635343D01*
X173266242Y-109646596D01*
X173221526Y-109651000D01*
X171778474Y-109651000D01*
X171733758Y-109646596D01*
X171696663Y-109635343D01*
X171662485Y-109617075D01*
X171632519Y-109592481D01*
X171607925Y-109562515D01*
X171589657Y-109528337D01*
X171578404Y-109491242D01*
X171574000Y-109446526D01*
X171574000Y-108553474D01*
X171578404Y-108508758D01*
X171589657Y-108471663D01*
X171607925Y-108437485D01*
X171632519Y-108407519D01*
X171662485Y-108382925D01*
X171696663Y-108364657D01*
X171733758Y-108353404D01*
X171778474Y-108349000D01*
X173221526Y-108349000D01*
X173266242Y-108353404D01*
X173266242Y-108353404D01*
G37*
G36*
X126598212Y-107756249D02*
G01*
X126692651Y-107784897D01*
X126779687Y-107831418D01*
X126855975Y-107894025D01*
X126918582Y-107970313D01*
X126965103Y-108057348D01*
X126993751Y-108151787D01*
X127001000Y-108225388D01*
X127001000Y-108774612D01*
X126993751Y-108848213D01*
X126965103Y-108942652D01*
X126918582Y-109029687D01*
X126855975Y-109105975D01*
X126779687Y-109168582D01*
X126692652Y-109215103D01*
X126598213Y-109243751D01*
X126500000Y-109253424D01*
X126401788Y-109243751D01*
X126307349Y-109215103D01*
X126220314Y-109168582D01*
X126144026Y-109105975D01*
X126081419Y-109029687D01*
X126034898Y-108942652D01*
X126006250Y-108848213D01*
X125999397Y-108778633D01*
X125994616Y-108754600D01*
X125985239Y-108731961D01*
X125971625Y-108711587D01*
X125954298Y-108694260D01*
X125933924Y-108680646D01*
X125911285Y-108671269D01*
X125887252Y-108666489D01*
X125862747Y-108666489D01*
X125838714Y-108671270D01*
X125816075Y-108680647D01*
X125795701Y-108694261D01*
X125778374Y-108711588D01*
X125764760Y-108731962D01*
X125755383Y-108754601D01*
X125750605Y-108778623D01*
X125743751Y-108848213D01*
X125715103Y-108942652D01*
X125668582Y-109029687D01*
X125605975Y-109105975D01*
X125529687Y-109168582D01*
X125442652Y-109215103D01*
X125348213Y-109243751D01*
X125250000Y-109253424D01*
X125151788Y-109243751D01*
X125057349Y-109215103D01*
X124970314Y-109168582D01*
X124894026Y-109105975D01*
X124831419Y-109029687D01*
X124784898Y-108942652D01*
X124756250Y-108848213D01*
X124749397Y-108778633D01*
X124744616Y-108754600D01*
X124735239Y-108731961D01*
X124721625Y-108711587D01*
X124704298Y-108694260D01*
X124683924Y-108680646D01*
X124661285Y-108671269D01*
X124637252Y-108666489D01*
X124612747Y-108666489D01*
X124588714Y-108671270D01*
X124566075Y-108680647D01*
X124545701Y-108694261D01*
X124528374Y-108711588D01*
X124514760Y-108731962D01*
X124505383Y-108754601D01*
X124500605Y-108778623D01*
X124493751Y-108848213D01*
X124465103Y-108942652D01*
X124418582Y-109029687D01*
X124355975Y-109105975D01*
X124279687Y-109168582D01*
X124192652Y-109215103D01*
X124098213Y-109243751D01*
X124000000Y-109253424D01*
X123901788Y-109243751D01*
X123807349Y-109215103D01*
X123720314Y-109168582D01*
X123644026Y-109105975D01*
X123581419Y-109029687D01*
X123534898Y-108942652D01*
X123506250Y-108848213D01*
X123499397Y-108778633D01*
X123494616Y-108754600D01*
X123485239Y-108731961D01*
X123471625Y-108711587D01*
X123454298Y-108694260D01*
X123433924Y-108680646D01*
X123411285Y-108671269D01*
X123387252Y-108666489D01*
X123362747Y-108666489D01*
X123338714Y-108671270D01*
X123316075Y-108680647D01*
X123295701Y-108694261D01*
X123278374Y-108711588D01*
X123264760Y-108731962D01*
X123255383Y-108754601D01*
X123250605Y-108778623D01*
X123243751Y-108848213D01*
X123215103Y-108942652D01*
X123168582Y-109029687D01*
X123105975Y-109105975D01*
X123029687Y-109168582D01*
X122942652Y-109215103D01*
X122848213Y-109243751D01*
X122750000Y-109253424D01*
X122651788Y-109243751D01*
X122557349Y-109215103D01*
X122470314Y-109168582D01*
X122394026Y-109105975D01*
X122331419Y-109029687D01*
X122284898Y-108942652D01*
X122256250Y-108848213D01*
X122249397Y-108778633D01*
X122244616Y-108754600D01*
X122235239Y-108731961D01*
X122221625Y-108711587D01*
X122204298Y-108694260D01*
X122183924Y-108680646D01*
X122161285Y-108671269D01*
X122137252Y-108666489D01*
X122112747Y-108666489D01*
X122088714Y-108671270D01*
X122066075Y-108680647D01*
X122045701Y-108694261D01*
X122028374Y-108711588D01*
X122014760Y-108731962D01*
X122005383Y-108754601D01*
X122000605Y-108778623D01*
X121993751Y-108848213D01*
X121965103Y-108942652D01*
X121918582Y-109029687D01*
X121855975Y-109105975D01*
X121779687Y-109168582D01*
X121692652Y-109215103D01*
X121598213Y-109243751D01*
X121500000Y-109253424D01*
X121401788Y-109243751D01*
X121307349Y-109215103D01*
X121220314Y-109168582D01*
X121144026Y-109105975D01*
X121081419Y-109029687D01*
X121034898Y-108942652D01*
X121006250Y-108848213D01*
X121000396Y-108788776D01*
X120995615Y-108764742D01*
X120986238Y-108742103D01*
X120972624Y-108721729D01*
X120955297Y-108704402D01*
X120934923Y-108690789D01*
X120912284Y-108681411D01*
X120888251Y-108676631D01*
X120863747Y-108676631D01*
X120839713Y-108681412D01*
X120817074Y-108690789D01*
X120796700Y-108704403D01*
X120779373Y-108721730D01*
X120765760Y-108742104D01*
X120756382Y-108764743D01*
X120751000Y-108801028D01*
X120751000Y-109056860D01*
X120746795Y-109099560D01*
X120736131Y-109134713D01*
X120718814Y-109167110D01*
X120695509Y-109195509D01*
X120667110Y-109218814D01*
X120634713Y-109236131D01*
X120599560Y-109246795D01*
X120556860Y-109251000D01*
X119943140Y-109251000D01*
X119900440Y-109246795D01*
X119865287Y-109236131D01*
X119832890Y-109218814D01*
X119804491Y-109195509D01*
X119781186Y-109167110D01*
X119763869Y-109134713D01*
X119753205Y-109099560D01*
X119749000Y-109056860D01*
X119749000Y-107943140D01*
X119753205Y-107900440D01*
X119763869Y-107865287D01*
X119781186Y-107832890D01*
X119804491Y-107804491D01*
X119832890Y-107781186D01*
X119865287Y-107763869D01*
X119900440Y-107753205D01*
X119943140Y-107749000D01*
X120556860Y-107749000D01*
X120599560Y-107753205D01*
X120634713Y-107763869D01*
X120667110Y-107781186D01*
X120695509Y-107804491D01*
X120718814Y-107832890D01*
X120736131Y-107865287D01*
X120746795Y-107900440D01*
X120751000Y-107943140D01*
X120751000Y-108198973D01*
X120753402Y-108223359D01*
X120760515Y-108246808D01*
X120772066Y-108268419D01*
X120787611Y-108287361D01*
X120806553Y-108302906D01*
X120828164Y-108314457D01*
X120851613Y-108321570D01*
X120875999Y-108323972D01*
X120900385Y-108321570D01*
X120923834Y-108314457D01*
X120945445Y-108302906D01*
X120964387Y-108287361D01*
X120979932Y-108268419D01*
X120991483Y-108246808D01*
X121000394Y-108211231D01*
X121006249Y-108151788D01*
X121034897Y-108057349D01*
X121081418Y-107970313D01*
X121144025Y-107894025D01*
X121220313Y-107831418D01*
X121307348Y-107784897D01*
X121401787Y-107756249D01*
X121500000Y-107746576D01*
X121598212Y-107756249D01*
X121692651Y-107784897D01*
X121779687Y-107831418D01*
X121855975Y-107894025D01*
X121918582Y-107970313D01*
X121965103Y-108057348D01*
X121993751Y-108151787D01*
X122000605Y-108221377D01*
X122005384Y-108245401D01*
X122014761Y-108268039D01*
X122028375Y-108288414D01*
X122045702Y-108305741D01*
X122066076Y-108319354D01*
X122088715Y-108328732D01*
X122112748Y-108333512D01*
X122137252Y-108333512D01*
X122161286Y-108328731D01*
X122183924Y-108319354D01*
X122204299Y-108305740D01*
X122221626Y-108288413D01*
X122235239Y-108268039D01*
X122244617Y-108245400D01*
X122249395Y-108221378D01*
X122256249Y-108151788D01*
X122284897Y-108057349D01*
X122331418Y-107970313D01*
X122394025Y-107894025D01*
X122470313Y-107831418D01*
X122557348Y-107784897D01*
X122651787Y-107756249D01*
X122750000Y-107746576D01*
X122848212Y-107756249D01*
X122942651Y-107784897D01*
X123029687Y-107831418D01*
X123105975Y-107894025D01*
X123168582Y-107970313D01*
X123215103Y-108057348D01*
X123243751Y-108151787D01*
X123250605Y-108221377D01*
X123255384Y-108245401D01*
X123264761Y-108268039D01*
X123278375Y-108288414D01*
X123295702Y-108305741D01*
X123316076Y-108319354D01*
X123338715Y-108328732D01*
X123362748Y-108333512D01*
X123387252Y-108333512D01*
X123411286Y-108328731D01*
X123433924Y-108319354D01*
X123454299Y-108305740D01*
X123471626Y-108288413D01*
X123485239Y-108268039D01*
X123494617Y-108245400D01*
X123499395Y-108221378D01*
X123506249Y-108151788D01*
X123534897Y-108057349D01*
X123581418Y-107970313D01*
X123644025Y-107894025D01*
X123720313Y-107831418D01*
X123807348Y-107784897D01*
X123901787Y-107756249D01*
X124000000Y-107746576D01*
X124098212Y-107756249D01*
X124192651Y-107784897D01*
X124279687Y-107831418D01*
X124355975Y-107894025D01*
X124418582Y-107970313D01*
X124465103Y-108057348D01*
X124493751Y-108151787D01*
X124500605Y-108221377D01*
X124505384Y-108245401D01*
X124514761Y-108268039D01*
X124528375Y-108288414D01*
X124545702Y-108305741D01*
X124566076Y-108319354D01*
X124588715Y-108328732D01*
X124612748Y-108333512D01*
X124637252Y-108333512D01*
X124661286Y-108328731D01*
X124683924Y-108319354D01*
X124704299Y-108305740D01*
X124721626Y-108288413D01*
X124735239Y-108268039D01*
X124744617Y-108245400D01*
X124749395Y-108221378D01*
X124756249Y-108151788D01*
X124784897Y-108057349D01*
X124831418Y-107970313D01*
X124894025Y-107894025D01*
X124970313Y-107831418D01*
X125057348Y-107784897D01*
X125151787Y-107756249D01*
X125250000Y-107746576D01*
X125348212Y-107756249D01*
X125442651Y-107784897D01*
X125529687Y-107831418D01*
X125605975Y-107894025D01*
X125668582Y-107970313D01*
X125715103Y-108057348D01*
X125743751Y-108151787D01*
X125750605Y-108221377D01*
X125755384Y-108245401D01*
X125764761Y-108268039D01*
X125778375Y-108288414D01*
X125795702Y-108305741D01*
X125816076Y-108319354D01*
X125838715Y-108328732D01*
X125862748Y-108333512D01*
X125887252Y-108333512D01*
X125911286Y-108328731D01*
X125933924Y-108319354D01*
X125954299Y-108305740D01*
X125971626Y-108288413D01*
X125985239Y-108268039D01*
X125994617Y-108245400D01*
X125999395Y-108221378D01*
X126006249Y-108151788D01*
X126034897Y-108057349D01*
X126081418Y-107970313D01*
X126144025Y-107894025D01*
X126220313Y-107831418D01*
X126307348Y-107784897D01*
X126401787Y-107756249D01*
X126500000Y-107746576D01*
X126598212Y-107756249D01*
X126598212Y-107756249D01*
G37*
G36*
X165098212Y-107756249D02*
G01*
X165192651Y-107784897D01*
X165279687Y-107831418D01*
X165355975Y-107894025D01*
X165418582Y-107970313D01*
X165465103Y-108057348D01*
X165493751Y-108151787D01*
X165501000Y-108225388D01*
X165501000Y-108774612D01*
X165493751Y-108848213D01*
X165465103Y-108942652D01*
X165418582Y-109029687D01*
X165355975Y-109105975D01*
X165279687Y-109168582D01*
X165192652Y-109215103D01*
X165098213Y-109243751D01*
X165000000Y-109253424D01*
X164901788Y-109243751D01*
X164807349Y-109215103D01*
X164720314Y-109168582D01*
X164644026Y-109105975D01*
X164581419Y-109029687D01*
X164534898Y-108942652D01*
X164506250Y-108848213D01*
X164499397Y-108778633D01*
X164494616Y-108754600D01*
X164485239Y-108731961D01*
X164471625Y-108711587D01*
X164454298Y-108694260D01*
X164433924Y-108680646D01*
X164411285Y-108671269D01*
X164387252Y-108666489D01*
X164362747Y-108666489D01*
X164338714Y-108671270D01*
X164316075Y-108680647D01*
X164295701Y-108694261D01*
X164278374Y-108711588D01*
X164264760Y-108731962D01*
X164255383Y-108754601D01*
X164250605Y-108778623D01*
X164243751Y-108848213D01*
X164215103Y-108942652D01*
X164168582Y-109029687D01*
X164105975Y-109105975D01*
X164029687Y-109168582D01*
X163942652Y-109215103D01*
X163848213Y-109243751D01*
X163750000Y-109253424D01*
X163651788Y-109243751D01*
X163557349Y-109215103D01*
X163470314Y-109168582D01*
X163394026Y-109105975D01*
X163331419Y-109029687D01*
X163284898Y-108942652D01*
X163256250Y-108848213D01*
X163249397Y-108778633D01*
X163244616Y-108754600D01*
X163235239Y-108731961D01*
X163221625Y-108711587D01*
X163204298Y-108694260D01*
X163183924Y-108680646D01*
X163161285Y-108671269D01*
X163137252Y-108666489D01*
X163112747Y-108666489D01*
X163088714Y-108671270D01*
X163066075Y-108680647D01*
X163045701Y-108694261D01*
X163028374Y-108711588D01*
X163014760Y-108731962D01*
X163005383Y-108754601D01*
X163000605Y-108778623D01*
X162993751Y-108848213D01*
X162965103Y-108942652D01*
X162918582Y-109029687D01*
X162855975Y-109105975D01*
X162779687Y-109168582D01*
X162692652Y-109215103D01*
X162598213Y-109243751D01*
X162500000Y-109253424D01*
X162401788Y-109243751D01*
X162307349Y-109215103D01*
X162220314Y-109168582D01*
X162144026Y-109105975D01*
X162081419Y-109029687D01*
X162034898Y-108942652D01*
X162006250Y-108848213D01*
X161999397Y-108778633D01*
X161994616Y-108754600D01*
X161985239Y-108731961D01*
X161971625Y-108711587D01*
X161954298Y-108694260D01*
X161933924Y-108680646D01*
X161911285Y-108671269D01*
X161887252Y-108666489D01*
X161862747Y-108666489D01*
X161838714Y-108671270D01*
X161816075Y-108680647D01*
X161795701Y-108694261D01*
X161778374Y-108711588D01*
X161764760Y-108731962D01*
X161755383Y-108754601D01*
X161750605Y-108778623D01*
X161743751Y-108848213D01*
X161715103Y-108942652D01*
X161668582Y-109029687D01*
X161605975Y-109105975D01*
X161529687Y-109168582D01*
X161442652Y-109215103D01*
X161348213Y-109243751D01*
X161250000Y-109253424D01*
X161151788Y-109243751D01*
X161057349Y-109215103D01*
X160970314Y-109168582D01*
X160894026Y-109105975D01*
X160831419Y-109029687D01*
X160784898Y-108942652D01*
X160756250Y-108848213D01*
X160749397Y-108778633D01*
X160744616Y-108754600D01*
X160735239Y-108731961D01*
X160721625Y-108711587D01*
X160704298Y-108694260D01*
X160683924Y-108680646D01*
X160661285Y-108671269D01*
X160637252Y-108666489D01*
X160612747Y-108666489D01*
X160588714Y-108671270D01*
X160566075Y-108680647D01*
X160545701Y-108694261D01*
X160528374Y-108711588D01*
X160514760Y-108731962D01*
X160505383Y-108754601D01*
X160500605Y-108778623D01*
X160493751Y-108848213D01*
X160465103Y-108942652D01*
X160418582Y-109029687D01*
X160355975Y-109105975D01*
X160279687Y-109168582D01*
X160192652Y-109215103D01*
X160098213Y-109243751D01*
X160000000Y-109253424D01*
X159901788Y-109243751D01*
X159807349Y-109215103D01*
X159720314Y-109168582D01*
X159644026Y-109105975D01*
X159581419Y-109029687D01*
X159534898Y-108942652D01*
X159506250Y-108848213D01*
X159500396Y-108788776D01*
X159495615Y-108764742D01*
X159486238Y-108742103D01*
X159472624Y-108721729D01*
X159455297Y-108704402D01*
X159434923Y-108690789D01*
X159412284Y-108681411D01*
X159388251Y-108676631D01*
X159363747Y-108676631D01*
X159339713Y-108681412D01*
X159317074Y-108690789D01*
X159296700Y-108704403D01*
X159279373Y-108721730D01*
X159265760Y-108742104D01*
X159256382Y-108764743D01*
X159251000Y-108801028D01*
X159251000Y-109056860D01*
X159246795Y-109099560D01*
X159236131Y-109134713D01*
X159218814Y-109167110D01*
X159195509Y-109195509D01*
X159167110Y-109218814D01*
X159134713Y-109236131D01*
X159099560Y-109246795D01*
X159056860Y-109251000D01*
X158443140Y-109251000D01*
X158400440Y-109246795D01*
X158365287Y-109236131D01*
X158332890Y-109218814D01*
X158304491Y-109195509D01*
X158281186Y-109167110D01*
X158263869Y-109134713D01*
X158253205Y-109099560D01*
X158249000Y-109056860D01*
X158249000Y-107943140D01*
X158253205Y-107900440D01*
X158263869Y-107865287D01*
X158281186Y-107832890D01*
X158304491Y-107804491D01*
X158332890Y-107781186D01*
X158365287Y-107763869D01*
X158400440Y-107753205D01*
X158443140Y-107749000D01*
X159056860Y-107749000D01*
X159099560Y-107753205D01*
X159134713Y-107763869D01*
X159167110Y-107781186D01*
X159195509Y-107804491D01*
X159218814Y-107832890D01*
X159236131Y-107865287D01*
X159246795Y-107900440D01*
X159251000Y-107943140D01*
X159251000Y-108198973D01*
X159253402Y-108223359D01*
X159260515Y-108246808D01*
X159272066Y-108268419D01*
X159287611Y-108287361D01*
X159306553Y-108302906D01*
X159328164Y-108314457D01*
X159351613Y-108321570D01*
X159375999Y-108323972D01*
X159400385Y-108321570D01*
X159423834Y-108314457D01*
X159445445Y-108302906D01*
X159464387Y-108287361D01*
X159479932Y-108268419D01*
X159491483Y-108246808D01*
X159500394Y-108211231D01*
X159506249Y-108151788D01*
X159534897Y-108057349D01*
X159581418Y-107970313D01*
X159644025Y-107894025D01*
X159720313Y-107831418D01*
X159807348Y-107784897D01*
X159901787Y-107756249D01*
X160000000Y-107746576D01*
X160098212Y-107756249D01*
X160192651Y-107784897D01*
X160279687Y-107831418D01*
X160355975Y-107894025D01*
X160418582Y-107970313D01*
X160465103Y-108057348D01*
X160493751Y-108151787D01*
X160500605Y-108221377D01*
X160505384Y-108245401D01*
X160514761Y-108268039D01*
X160528375Y-108288414D01*
X160545702Y-108305741D01*
X160566076Y-108319354D01*
X160588715Y-108328732D01*
X160612748Y-108333512D01*
X160637252Y-108333512D01*
X160661286Y-108328731D01*
X160683924Y-108319354D01*
X160704299Y-108305740D01*
X160721626Y-108288413D01*
X160735239Y-108268039D01*
X160744617Y-108245400D01*
X160749395Y-108221378D01*
X160756249Y-108151788D01*
X160784897Y-108057349D01*
X160831418Y-107970313D01*
X160894025Y-107894025D01*
X160970313Y-107831418D01*
X161057348Y-107784897D01*
X161151787Y-107756249D01*
X161250000Y-107746576D01*
X161348212Y-107756249D01*
X161442651Y-107784897D01*
X161529687Y-107831418D01*
X161605975Y-107894025D01*
X161668582Y-107970313D01*
X161715103Y-108057348D01*
X161743751Y-108151787D01*
X161750605Y-108221377D01*
X161755384Y-108245401D01*
X161764761Y-108268039D01*
X161778375Y-108288414D01*
X161795702Y-108305741D01*
X161816076Y-108319354D01*
X161838715Y-108328732D01*
X161862748Y-108333512D01*
X161887252Y-108333512D01*
X161911286Y-108328731D01*
X161933924Y-108319354D01*
X161954299Y-108305740D01*
X161971626Y-108288413D01*
X161985239Y-108268039D01*
X161994617Y-108245400D01*
X161999395Y-108221378D01*
X162006249Y-108151788D01*
X162034897Y-108057349D01*
X162081418Y-107970313D01*
X162144025Y-107894025D01*
X162220313Y-107831418D01*
X162307348Y-107784897D01*
X162401787Y-107756249D01*
X162500000Y-107746576D01*
X162598212Y-107756249D01*
X162692651Y-107784897D01*
X162779687Y-107831418D01*
X162855975Y-107894025D01*
X162918582Y-107970313D01*
X162965103Y-108057348D01*
X162993751Y-108151787D01*
X163000605Y-108221377D01*
X163005384Y-108245401D01*
X163014761Y-108268039D01*
X163028375Y-108288414D01*
X163045702Y-108305741D01*
X163066076Y-108319354D01*
X163088715Y-108328732D01*
X163112748Y-108333512D01*
X163137252Y-108333512D01*
X163161286Y-108328731D01*
X163183924Y-108319354D01*
X163204299Y-108305740D01*
X163221626Y-108288413D01*
X163235239Y-108268039D01*
X163244617Y-108245400D01*
X163249395Y-108221378D01*
X163256249Y-108151788D01*
X163284897Y-108057349D01*
X163331418Y-107970313D01*
X163394025Y-107894025D01*
X163470313Y-107831418D01*
X163557348Y-107784897D01*
X163651787Y-107756249D01*
X163750000Y-107746576D01*
X163848212Y-107756249D01*
X163942651Y-107784897D01*
X164029687Y-107831418D01*
X164105975Y-107894025D01*
X164168582Y-107970313D01*
X164215103Y-108057348D01*
X164243751Y-108151787D01*
X164250605Y-108221377D01*
X164255384Y-108245401D01*
X164264761Y-108268039D01*
X164278375Y-108288414D01*
X164295702Y-108305741D01*
X164316076Y-108319354D01*
X164338715Y-108328732D01*
X164362748Y-108333512D01*
X164387252Y-108333512D01*
X164411286Y-108328731D01*
X164433924Y-108319354D01*
X164454299Y-108305740D01*
X164471626Y-108288413D01*
X164485239Y-108268039D01*
X164494617Y-108245400D01*
X164499395Y-108221378D01*
X164506249Y-108151788D01*
X164534897Y-108057349D01*
X164581418Y-107970313D01*
X164644025Y-107894025D01*
X164720313Y-107831418D01*
X164807348Y-107784897D01*
X164901787Y-107756249D01*
X165000000Y-107746576D01*
X165098212Y-107756249D01*
X165098212Y-107756249D01*
G37*
G36*
X139838855Y-106352140D02*
G01*
X139902618Y-106358420D01*
X139993404Y-106385960D01*
X140025336Y-106395646D01*
X140138425Y-106456094D01*
X140237554Y-106537446D01*
X140318906Y-106636575D01*
X140379354Y-106749664D01*
X140379355Y-106749668D01*
X140416580Y-106872382D01*
X140429149Y-107000000D01*
X140416580Y-107127618D01*
X140389040Y-107218404D01*
X140379354Y-107250336D01*
X140318906Y-107363425D01*
X140237554Y-107462554D01*
X140138425Y-107543906D01*
X140025336Y-107604354D01*
X139993404Y-107614040D01*
X139902618Y-107641580D01*
X139838855Y-107647860D01*
X139806974Y-107651000D01*
X139193026Y-107651000D01*
X139161145Y-107647860D01*
X139097382Y-107641580D01*
X139006596Y-107614040D01*
X138974664Y-107604354D01*
X138861575Y-107543906D01*
X138762446Y-107462554D01*
X138681094Y-107363425D01*
X138620646Y-107250336D01*
X138610960Y-107218404D01*
X138583420Y-107127618D01*
X138570851Y-107000000D01*
X138583420Y-106872382D01*
X138620645Y-106749668D01*
X138620646Y-106749664D01*
X138681094Y-106636575D01*
X138762446Y-106537446D01*
X138861575Y-106456094D01*
X138974664Y-106395646D01*
X139006596Y-106385960D01*
X139097382Y-106358420D01*
X139161145Y-106352140D01*
X139193026Y-106349000D01*
X139806974Y-106349000D01*
X139838855Y-106352140D01*
X139838855Y-106352140D01*
G37*
G36*
X134338855Y-106352140D02*
G01*
X134402618Y-106358420D01*
X134493404Y-106385960D01*
X134525336Y-106395646D01*
X134638425Y-106456094D01*
X134737554Y-106537446D01*
X134818906Y-106636575D01*
X134879354Y-106749664D01*
X134879355Y-106749668D01*
X134916580Y-106872382D01*
X134929149Y-107000000D01*
X134916580Y-107127618D01*
X134889040Y-107218404D01*
X134879354Y-107250336D01*
X134818906Y-107363425D01*
X134737554Y-107462554D01*
X134638425Y-107543906D01*
X134525336Y-107604354D01*
X134493404Y-107614040D01*
X134402618Y-107641580D01*
X134338855Y-107647860D01*
X134306974Y-107651000D01*
X133693026Y-107651000D01*
X133661145Y-107647860D01*
X133597382Y-107641580D01*
X133506596Y-107614040D01*
X133474664Y-107604354D01*
X133361575Y-107543906D01*
X133262446Y-107462554D01*
X133181094Y-107363425D01*
X133120646Y-107250336D01*
X133110960Y-107218404D01*
X133083420Y-107127618D01*
X133070851Y-107000000D01*
X133083420Y-106872382D01*
X133120645Y-106749668D01*
X133120646Y-106749664D01*
X133181094Y-106636575D01*
X133262446Y-106537446D01*
X133361575Y-106456094D01*
X133474664Y-106395646D01*
X133506596Y-106385960D01*
X133597382Y-106358420D01*
X133661145Y-106352140D01*
X133693026Y-106349000D01*
X134306974Y-106349000D01*
X134338855Y-106352140D01*
X134338855Y-106352140D01*
G37*
G36*
X178338855Y-106352140D02*
G01*
X178402618Y-106358420D01*
X178493404Y-106385960D01*
X178525336Y-106395646D01*
X178638425Y-106456094D01*
X178737554Y-106537446D01*
X178818906Y-106636575D01*
X178879354Y-106749664D01*
X178879355Y-106749668D01*
X178916580Y-106872382D01*
X178929149Y-107000000D01*
X178916580Y-107127618D01*
X178889040Y-107218404D01*
X178879354Y-107250336D01*
X178818906Y-107363425D01*
X178737554Y-107462554D01*
X178638425Y-107543906D01*
X178525336Y-107604354D01*
X178493404Y-107614040D01*
X178402618Y-107641580D01*
X178338855Y-107647860D01*
X178306974Y-107651000D01*
X177693026Y-107651000D01*
X177661145Y-107647860D01*
X177597382Y-107641580D01*
X177506596Y-107614040D01*
X177474664Y-107604354D01*
X177361575Y-107543906D01*
X177262446Y-107462554D01*
X177181094Y-107363425D01*
X177120646Y-107250336D01*
X177110960Y-107218404D01*
X177083420Y-107127618D01*
X177070851Y-107000000D01*
X177083420Y-106872382D01*
X177120645Y-106749668D01*
X177120646Y-106749664D01*
X177181094Y-106636575D01*
X177262446Y-106537446D01*
X177361575Y-106456094D01*
X177474664Y-106395646D01*
X177506596Y-106385960D01*
X177597382Y-106358420D01*
X177661145Y-106352140D01*
X177693026Y-106349000D01*
X178306974Y-106349000D01*
X178338855Y-106352140D01*
X178338855Y-106352140D01*
G37*
G36*
X172838855Y-106352140D02*
G01*
X172902618Y-106358420D01*
X172993404Y-106385960D01*
X173025336Y-106395646D01*
X173138425Y-106456094D01*
X173237554Y-106537446D01*
X173318906Y-106636575D01*
X173379354Y-106749664D01*
X173379355Y-106749668D01*
X173416580Y-106872382D01*
X173429149Y-107000000D01*
X173416580Y-107127618D01*
X173389040Y-107218404D01*
X173379354Y-107250336D01*
X173318906Y-107363425D01*
X173237554Y-107462554D01*
X173138425Y-107543906D01*
X173025336Y-107604354D01*
X172993404Y-107614040D01*
X172902618Y-107641580D01*
X172838855Y-107647860D01*
X172806974Y-107651000D01*
X172193026Y-107651000D01*
X172161145Y-107647860D01*
X172097382Y-107641580D01*
X172006596Y-107614040D01*
X171974664Y-107604354D01*
X171861575Y-107543906D01*
X171762446Y-107462554D01*
X171681094Y-107363425D01*
X171620646Y-107250336D01*
X171610960Y-107218404D01*
X171583420Y-107127618D01*
X171570851Y-107000000D01*
X171583420Y-106872382D01*
X171620645Y-106749668D01*
X171620646Y-106749664D01*
X171681094Y-106636575D01*
X171762446Y-106537446D01*
X171861575Y-106456094D01*
X171974664Y-106395646D01*
X172006596Y-106385960D01*
X172097382Y-106358420D01*
X172161145Y-106352140D01*
X172193026Y-106349000D01*
X172806974Y-106349000D01*
X172838855Y-106352140D01*
X172838855Y-106352140D01*
G37*
G36*
X148127617Y-101583420D02*
G01*
X148208399Y-101607925D01*
X148250335Y-101620646D01*
X148363424Y-101681094D01*
X148462554Y-101762447D01*
X148543906Y-101861575D01*
X148604354Y-101974664D01*
X148614040Y-102006596D01*
X148641580Y-102097382D01*
X148651000Y-102193027D01*
X148651000Y-102806973D01*
X148641580Y-102902618D01*
X148614040Y-102993404D01*
X148604354Y-103025336D01*
X148543906Y-103138425D01*
X148462554Y-103237554D01*
X148363425Y-103318906D01*
X148250336Y-103379354D01*
X148218404Y-103389040D01*
X148127618Y-103416580D01*
X148000000Y-103429149D01*
X147872383Y-103416580D01*
X147781597Y-103389040D01*
X147749665Y-103379354D01*
X147636576Y-103318906D01*
X147537447Y-103237554D01*
X147456096Y-103138427D01*
X147456095Y-103138425D01*
X147395647Y-103025336D01*
X147395645Y-103025333D01*
X147383237Y-102984427D01*
X147358420Y-102902618D01*
X147349000Y-102806973D01*
X147349000Y-102193028D01*
X147358420Y-102097383D01*
X147395645Y-101974669D01*
X147395646Y-101974665D01*
X147456094Y-101861576D01*
X147537447Y-101762446D01*
X147636575Y-101681094D01*
X147749664Y-101620646D01*
X147791600Y-101607925D01*
X147872382Y-101583420D01*
X148000000Y-101570851D01*
X148127617Y-101583420D01*
X148127617Y-101583420D01*
G37*
G36*
X186627617Y-101583420D02*
G01*
X186708399Y-101607925D01*
X186750335Y-101620646D01*
X186863424Y-101681094D01*
X186962554Y-101762447D01*
X187043906Y-101861575D01*
X187104354Y-101974664D01*
X187114040Y-102006596D01*
X187141580Y-102097382D01*
X187151000Y-102193027D01*
X187151000Y-102806973D01*
X187141580Y-102902618D01*
X187114040Y-102993404D01*
X187104354Y-103025336D01*
X187043906Y-103138425D01*
X186962554Y-103237554D01*
X186863425Y-103318906D01*
X186750336Y-103379354D01*
X186718404Y-103389040D01*
X186627618Y-103416580D01*
X186500000Y-103429149D01*
X186372383Y-103416580D01*
X186281597Y-103389040D01*
X186249665Y-103379354D01*
X186136576Y-103318906D01*
X186037447Y-103237554D01*
X185956096Y-103138427D01*
X185956095Y-103138425D01*
X185895647Y-103025336D01*
X185895645Y-103025333D01*
X185883237Y-102984427D01*
X185858420Y-102902618D01*
X185849000Y-102806973D01*
X185849000Y-102193028D01*
X185858420Y-102097383D01*
X185895645Y-101974669D01*
X185895646Y-101974665D01*
X185956094Y-101861576D01*
X186037447Y-101762446D01*
X186136575Y-101681094D01*
X186249664Y-101620646D01*
X186291600Y-101607925D01*
X186372382Y-101583420D01*
X186500000Y-101570851D01*
X186627617Y-101583420D01*
X186627617Y-101583420D01*
G37*
G36*
X146491242Y-101578404D02*
G01*
X146528337Y-101589657D01*
X146562515Y-101607925D01*
X146592481Y-101632519D01*
X146617075Y-101662485D01*
X146635343Y-101696663D01*
X146646596Y-101733758D01*
X146651000Y-101778474D01*
X146651000Y-103221526D01*
X146646596Y-103266242D01*
X146635343Y-103303337D01*
X146617075Y-103337515D01*
X146592481Y-103367481D01*
X146562515Y-103392075D01*
X146528337Y-103410343D01*
X146491242Y-103421596D01*
X146446526Y-103426000D01*
X145553474Y-103426000D01*
X145508758Y-103421596D01*
X145471663Y-103410343D01*
X145437485Y-103392075D01*
X145407519Y-103367481D01*
X145382925Y-103337515D01*
X145364657Y-103303337D01*
X145353404Y-103266242D01*
X145349000Y-103221526D01*
X145349000Y-101778474D01*
X145353404Y-101733758D01*
X145364657Y-101696663D01*
X145382925Y-101662485D01*
X145407519Y-101632519D01*
X145437485Y-101607925D01*
X145471663Y-101589657D01*
X145508758Y-101578404D01*
X145553474Y-101574000D01*
X146446526Y-101574000D01*
X146491242Y-101578404D01*
X146491242Y-101578404D01*
G37*
G36*
X184991242Y-101578404D02*
G01*
X185028337Y-101589657D01*
X185062515Y-101607925D01*
X185092481Y-101632519D01*
X185117075Y-101662485D01*
X185135343Y-101696663D01*
X185146596Y-101733758D01*
X185151000Y-101778474D01*
X185151000Y-103221526D01*
X185146596Y-103266242D01*
X185135343Y-103303337D01*
X185117075Y-103337515D01*
X185092481Y-103367481D01*
X185062515Y-103392075D01*
X185028337Y-103410343D01*
X184991242Y-103421596D01*
X184946526Y-103426000D01*
X184053474Y-103426000D01*
X184008758Y-103421596D01*
X183971663Y-103410343D01*
X183937485Y-103392075D01*
X183907519Y-103367481D01*
X183882925Y-103337515D01*
X183864657Y-103303337D01*
X183853404Y-103266242D01*
X183849000Y-103221526D01*
X183849000Y-101778474D01*
X183853404Y-101733758D01*
X183864657Y-101696663D01*
X183882925Y-101662485D01*
X183907519Y-101632519D01*
X183937485Y-101607925D01*
X183971663Y-101589657D01*
X184008758Y-101578404D01*
X184053474Y-101574000D01*
X184946526Y-101574000D01*
X184991242Y-101578404D01*
X184991242Y-101578404D01*
G37*
G36*
X155451000Y-97951000D02*
G01*
X151549000Y-97951000D01*
X151549000Y-94049000D01*
X155451000Y-94049000D01*
X155451000Y-97951000D01*
X155451000Y-97951000D01*
G37*
G36*
X116951000Y-97951000D02*
G01*
X113049000Y-97951000D01*
X113049000Y-94049000D01*
X116951000Y-94049000D01*
X116951000Y-97951000D01*
X116951000Y-97951000D01*
G37*
G36*
X148127617Y-96083420D02*
G01*
X148208399Y-96107925D01*
X148250335Y-96120646D01*
X148363424Y-96181094D01*
X148462554Y-96262447D01*
X148543906Y-96361575D01*
X148604354Y-96474664D01*
X148614040Y-96506596D01*
X148641580Y-96597382D01*
X148651000Y-96693027D01*
X148651000Y-97306973D01*
X148641580Y-97402618D01*
X148614040Y-97493404D01*
X148604354Y-97525336D01*
X148543906Y-97638425D01*
X148462554Y-97737554D01*
X148363425Y-97818906D01*
X148250336Y-97879354D01*
X148218404Y-97889040D01*
X148127618Y-97916580D01*
X148000000Y-97929149D01*
X147872383Y-97916580D01*
X147781597Y-97889040D01*
X147749665Y-97879354D01*
X147636576Y-97818906D01*
X147537447Y-97737554D01*
X147456096Y-97638427D01*
X147456095Y-97638425D01*
X147395647Y-97525336D01*
X147395645Y-97525333D01*
X147383237Y-97484427D01*
X147358420Y-97402618D01*
X147349000Y-97306973D01*
X147349000Y-96693028D01*
X147358420Y-96597383D01*
X147395645Y-96474669D01*
X147395646Y-96474665D01*
X147456094Y-96361576D01*
X147537447Y-96262446D01*
X147636575Y-96181094D01*
X147749664Y-96120646D01*
X147791600Y-96107925D01*
X147872382Y-96083420D01*
X148000000Y-96070851D01*
X148127617Y-96083420D01*
X148127617Y-96083420D01*
G37*
G36*
X186627617Y-96083420D02*
G01*
X186708399Y-96107925D01*
X186750335Y-96120646D01*
X186863424Y-96181094D01*
X186962554Y-96262447D01*
X187043906Y-96361575D01*
X187104354Y-96474664D01*
X187114040Y-96506596D01*
X187141580Y-96597382D01*
X187151000Y-96693027D01*
X187151000Y-97306973D01*
X187141580Y-97402618D01*
X187114040Y-97493404D01*
X187104354Y-97525336D01*
X187043906Y-97638425D01*
X186962554Y-97737554D01*
X186863425Y-97818906D01*
X186750336Y-97879354D01*
X186718404Y-97889040D01*
X186627618Y-97916580D01*
X186500000Y-97929149D01*
X186372383Y-97916580D01*
X186281597Y-97889040D01*
X186249665Y-97879354D01*
X186136576Y-97818906D01*
X186037447Y-97737554D01*
X185956096Y-97638427D01*
X185956095Y-97638425D01*
X185895647Y-97525336D01*
X185895645Y-97525333D01*
X185883237Y-97484427D01*
X185858420Y-97402618D01*
X185849000Y-97306973D01*
X185849000Y-96693028D01*
X185858420Y-96597383D01*
X185895645Y-96474669D01*
X185895646Y-96474665D01*
X185956094Y-96361576D01*
X186037447Y-96262446D01*
X186136575Y-96181094D01*
X186249664Y-96120646D01*
X186291600Y-96107925D01*
X186372382Y-96083420D01*
X186500000Y-96070851D01*
X186627617Y-96083420D01*
X186627617Y-96083420D01*
G37*
G36*
X184991242Y-96078404D02*
G01*
X185028337Y-96089657D01*
X185062515Y-96107925D01*
X185092481Y-96132519D01*
X185117075Y-96162485D01*
X185135343Y-96196663D01*
X185146596Y-96233758D01*
X185151000Y-96278474D01*
X185151000Y-97721526D01*
X185146596Y-97766242D01*
X185135343Y-97803337D01*
X185117075Y-97837515D01*
X185092481Y-97867481D01*
X185062515Y-97892075D01*
X185028337Y-97910343D01*
X184991242Y-97921596D01*
X184946526Y-97926000D01*
X184053474Y-97926000D01*
X184008758Y-97921596D01*
X183971663Y-97910343D01*
X183937485Y-97892075D01*
X183907519Y-97867481D01*
X183882925Y-97837515D01*
X183864657Y-97803337D01*
X183853404Y-97766242D01*
X183849000Y-97721526D01*
X183849000Y-96278474D01*
X183853404Y-96233758D01*
X183864657Y-96196663D01*
X183882925Y-96162485D01*
X183907519Y-96132519D01*
X183937485Y-96107925D01*
X183971663Y-96089657D01*
X184008758Y-96078404D01*
X184053474Y-96074000D01*
X184946526Y-96074000D01*
X184991242Y-96078404D01*
X184991242Y-96078404D01*
G37*
G36*
X146491242Y-96078404D02*
G01*
X146528337Y-96089657D01*
X146562515Y-96107925D01*
X146592481Y-96132519D01*
X146617075Y-96162485D01*
X146635343Y-96196663D01*
X146646596Y-96233758D01*
X146651000Y-96278474D01*
X146651000Y-97721526D01*
X146646596Y-97766242D01*
X146635343Y-97803337D01*
X146617075Y-97837515D01*
X146592481Y-97867481D01*
X146562515Y-97892075D01*
X146528337Y-97910343D01*
X146491242Y-97921596D01*
X146446526Y-97926000D01*
X145553474Y-97926000D01*
X145508758Y-97921596D01*
X145471663Y-97910343D01*
X145437485Y-97892075D01*
X145407519Y-97867481D01*
X145382925Y-97837515D01*
X145364657Y-97803337D01*
X145353404Y-97766242D01*
X145349000Y-97721526D01*
X145349000Y-96278474D01*
X145353404Y-96233758D01*
X145364657Y-96196663D01*
X145382925Y-96162485D01*
X145407519Y-96132519D01*
X145437485Y-96107925D01*
X145471663Y-96089657D01*
X145508758Y-96078404D01*
X145553474Y-96074000D01*
X146446526Y-96074000D01*
X146491242Y-96078404D01*
X146491242Y-96078404D01*
G37*
G36*
X115569085Y-89123975D02*
G01*
X115924143Y-89271045D01*
X115924145Y-89271046D01*
X116243690Y-89484559D01*
X116515441Y-89756310D01*
X116728954Y-90075855D01*
X116728955Y-90075857D01*
X116876025Y-90430915D01*
X116951000Y-90807842D01*
X116951000Y-91192158D01*
X116876025Y-91569085D01*
X116777488Y-91806973D01*
X116728954Y-91924145D01*
X116515441Y-92243690D01*
X116243690Y-92515441D01*
X115924145Y-92728954D01*
X115924144Y-92728955D01*
X115924143Y-92728955D01*
X115569085Y-92876025D01*
X115192158Y-92951000D01*
X114807842Y-92951000D01*
X114430915Y-92876025D01*
X114075857Y-92728955D01*
X114075856Y-92728955D01*
X114075855Y-92728954D01*
X113756310Y-92515441D01*
X113484559Y-92243690D01*
X113271046Y-91924145D01*
X113222512Y-91806973D01*
X113123975Y-91569085D01*
X113049000Y-91192158D01*
X113049000Y-90807842D01*
X113123975Y-90430915D01*
X113271045Y-90075857D01*
X113271046Y-90075855D01*
X113484559Y-89756310D01*
X113756310Y-89484559D01*
X114075855Y-89271046D01*
X114075857Y-89271045D01*
X114430915Y-89123975D01*
X114807842Y-89049000D01*
X115192158Y-89049000D01*
X115569085Y-89123975D01*
X115569085Y-89123975D01*
G37*
G36*
X154069085Y-89123975D02*
G01*
X154424143Y-89271045D01*
X154424145Y-89271046D01*
X154743690Y-89484559D01*
X155015441Y-89756310D01*
X155228954Y-90075855D01*
X155228955Y-90075857D01*
X155376025Y-90430915D01*
X155451000Y-90807842D01*
X155451000Y-91192158D01*
X155376025Y-91569085D01*
X155277488Y-91806973D01*
X155228954Y-91924145D01*
X155015441Y-92243690D01*
X154743690Y-92515441D01*
X154424145Y-92728954D01*
X154424144Y-92728955D01*
X154424143Y-92728955D01*
X154069085Y-92876025D01*
X153692158Y-92951000D01*
X153307842Y-92951000D01*
X152930915Y-92876025D01*
X152575857Y-92728955D01*
X152575856Y-92728955D01*
X152575855Y-92728954D01*
X152256310Y-92515441D01*
X151984559Y-92243690D01*
X151771046Y-91924145D01*
X151722512Y-91806973D01*
X151623975Y-91569085D01*
X151549000Y-91192158D01*
X151549000Y-90807842D01*
X151623975Y-90430915D01*
X151771045Y-90075857D01*
X151771046Y-90075855D01*
X151984559Y-89756310D01*
X152256310Y-89484559D01*
X152575855Y-89271046D01*
X152575857Y-89271045D01*
X152930915Y-89123975D01*
X153307842Y-89049000D01*
X153692158Y-89049000D01*
X154069085Y-89123975D01*
X154069085Y-89123975D01*
G37*
G36*
X186627617Y-90583420D02*
G01*
X186708399Y-90607925D01*
X186750335Y-90620646D01*
X186863424Y-90681094D01*
X186962554Y-90762447D01*
X187043906Y-90861575D01*
X187104354Y-90974664D01*
X187114040Y-91006596D01*
X187141580Y-91097382D01*
X187141580Y-91097384D01*
X187150915Y-91192158D01*
X187151000Y-91193027D01*
X187151000Y-91806973D01*
X187141580Y-91902618D01*
X187114040Y-91993404D01*
X187104354Y-92025336D01*
X187043906Y-92138425D01*
X186962554Y-92237554D01*
X186863425Y-92318906D01*
X186750336Y-92379354D01*
X186718404Y-92389040D01*
X186627618Y-92416580D01*
X186500000Y-92429149D01*
X186372383Y-92416580D01*
X186281597Y-92389040D01*
X186249665Y-92379354D01*
X186136576Y-92318906D01*
X186037447Y-92237554D01*
X185956096Y-92138427D01*
X185956095Y-92138425D01*
X185895647Y-92025336D01*
X185895645Y-92025333D01*
X185883237Y-91984427D01*
X185858420Y-91902618D01*
X185849000Y-91806973D01*
X185849000Y-91193028D01*
X185858420Y-91097383D01*
X185895645Y-90974669D01*
X185895646Y-90974665D01*
X185956094Y-90861576D01*
X186037447Y-90762446D01*
X186136575Y-90681094D01*
X186249664Y-90620646D01*
X186291600Y-90607925D01*
X186372382Y-90583420D01*
X186500000Y-90570851D01*
X186627617Y-90583420D01*
X186627617Y-90583420D01*
G37*
G36*
X148127617Y-90583420D02*
G01*
X148208399Y-90607925D01*
X148250335Y-90620646D01*
X148363424Y-90681094D01*
X148462554Y-90762447D01*
X148543906Y-90861575D01*
X148604354Y-90974664D01*
X148614040Y-91006596D01*
X148641580Y-91097382D01*
X148641580Y-91097384D01*
X148650915Y-91192158D01*
X148651000Y-91193027D01*
X148651000Y-91806973D01*
X148641580Y-91902618D01*
X148614040Y-91993404D01*
X148604354Y-92025336D01*
X148543906Y-92138425D01*
X148462554Y-92237554D01*
X148363425Y-92318906D01*
X148250336Y-92379354D01*
X148218404Y-92389040D01*
X148127618Y-92416580D01*
X148000000Y-92429149D01*
X147872383Y-92416580D01*
X147781597Y-92389040D01*
X147749665Y-92379354D01*
X147636576Y-92318906D01*
X147537447Y-92237554D01*
X147456096Y-92138427D01*
X147456095Y-92138425D01*
X147395647Y-92025336D01*
X147395645Y-92025333D01*
X147383237Y-91984427D01*
X147358420Y-91902618D01*
X147349000Y-91806973D01*
X147349000Y-91193028D01*
X147358420Y-91097383D01*
X147395645Y-90974669D01*
X147395646Y-90974665D01*
X147456094Y-90861576D01*
X147537447Y-90762446D01*
X147636575Y-90681094D01*
X147749664Y-90620646D01*
X147791600Y-90607925D01*
X147872382Y-90583420D01*
X148000000Y-90570851D01*
X148127617Y-90583420D01*
X148127617Y-90583420D01*
G37*
G36*
X184991242Y-90578404D02*
G01*
X185028337Y-90589657D01*
X185062515Y-90607925D01*
X185092481Y-90632519D01*
X185117075Y-90662485D01*
X185135343Y-90696663D01*
X185146596Y-90733758D01*
X185151000Y-90778474D01*
X185151000Y-92221526D01*
X185146596Y-92266242D01*
X185135343Y-92303337D01*
X185117075Y-92337515D01*
X185092481Y-92367481D01*
X185062515Y-92392075D01*
X185028337Y-92410343D01*
X184991242Y-92421596D01*
X184946526Y-92426000D01*
X184053474Y-92426000D01*
X184008758Y-92421596D01*
X183971663Y-92410343D01*
X183937485Y-92392075D01*
X183907519Y-92367481D01*
X183882925Y-92337515D01*
X183864657Y-92303337D01*
X183853404Y-92266242D01*
X183849000Y-92221526D01*
X183849000Y-90778474D01*
X183853404Y-90733758D01*
X183864657Y-90696663D01*
X183882925Y-90662485D01*
X183907519Y-90632519D01*
X183937485Y-90607925D01*
X183971663Y-90589657D01*
X184008758Y-90578404D01*
X184053474Y-90574000D01*
X184946526Y-90574000D01*
X184991242Y-90578404D01*
X184991242Y-90578404D01*
G37*
G36*
X146491242Y-90578404D02*
G01*
X146528337Y-90589657D01*
X146562515Y-90607925D01*
X146592481Y-90632519D01*
X146617075Y-90662485D01*
X146635343Y-90696663D01*
X146646596Y-90733758D01*
X146651000Y-90778474D01*
X146651000Y-92221526D01*
X146646596Y-92266242D01*
X146635343Y-92303337D01*
X146617075Y-92337515D01*
X146592481Y-92367481D01*
X146562515Y-92392075D01*
X146528337Y-92410343D01*
X146491242Y-92421596D01*
X146446526Y-92426000D01*
X145553474Y-92426000D01*
X145508758Y-92421596D01*
X145471663Y-92410343D01*
X145437485Y-92392075D01*
X145407519Y-92367481D01*
X145382925Y-92337515D01*
X145364657Y-92303337D01*
X145353404Y-92266242D01*
X145349000Y-92221526D01*
X145349000Y-90778474D01*
X145353404Y-90733758D01*
X145364657Y-90696663D01*
X145382925Y-90662485D01*
X145407519Y-90632519D01*
X145437485Y-90607925D01*
X145471663Y-90589657D01*
X145508758Y-90578404D01*
X145553474Y-90574000D01*
X146446526Y-90574000D01*
X146491242Y-90578404D01*
X146491242Y-90578404D01*
G37*
G36*
X148127617Y-85083420D02*
G01*
X148208399Y-85107925D01*
X148250335Y-85120646D01*
X148363424Y-85181094D01*
X148462554Y-85262447D01*
X148543906Y-85361575D01*
X148604354Y-85474664D01*
X148614040Y-85506596D01*
X148641580Y-85597382D01*
X148651000Y-85693027D01*
X148651000Y-86306973D01*
X148641580Y-86402618D01*
X148614040Y-86493404D01*
X148604354Y-86525336D01*
X148543906Y-86638425D01*
X148462554Y-86737554D01*
X148363425Y-86818906D01*
X148250336Y-86879354D01*
X148218404Y-86889040D01*
X148127618Y-86916580D01*
X148000000Y-86929149D01*
X147872383Y-86916580D01*
X147781597Y-86889040D01*
X147749665Y-86879354D01*
X147636576Y-86818906D01*
X147537447Y-86737554D01*
X147456096Y-86638427D01*
X147456095Y-86638425D01*
X147395647Y-86525336D01*
X147395645Y-86525333D01*
X147383237Y-86484427D01*
X147358420Y-86402618D01*
X147349000Y-86306973D01*
X147349000Y-85693028D01*
X147358420Y-85597383D01*
X147395645Y-85474669D01*
X147395646Y-85474665D01*
X147456094Y-85361576D01*
X147537447Y-85262446D01*
X147636575Y-85181094D01*
X147749664Y-85120646D01*
X147791600Y-85107925D01*
X147872382Y-85083420D01*
X148000000Y-85070851D01*
X148127617Y-85083420D01*
X148127617Y-85083420D01*
G37*
G36*
X186627617Y-85083420D02*
G01*
X186708399Y-85107925D01*
X186750335Y-85120646D01*
X186863424Y-85181094D01*
X186962554Y-85262447D01*
X187043906Y-85361575D01*
X187104354Y-85474664D01*
X187114040Y-85506596D01*
X187141580Y-85597382D01*
X187151000Y-85693027D01*
X187151000Y-86306973D01*
X187141580Y-86402618D01*
X187114040Y-86493404D01*
X187104354Y-86525336D01*
X187043906Y-86638425D01*
X186962554Y-86737554D01*
X186863425Y-86818906D01*
X186750336Y-86879354D01*
X186718404Y-86889040D01*
X186627618Y-86916580D01*
X186500000Y-86929149D01*
X186372383Y-86916580D01*
X186281597Y-86889040D01*
X186249665Y-86879354D01*
X186136576Y-86818906D01*
X186037447Y-86737554D01*
X185956096Y-86638427D01*
X185956095Y-86638425D01*
X185895647Y-86525336D01*
X185895645Y-86525333D01*
X185883237Y-86484427D01*
X185858420Y-86402618D01*
X185849000Y-86306973D01*
X185849000Y-85693028D01*
X185858420Y-85597383D01*
X185895645Y-85474669D01*
X185895646Y-85474665D01*
X185956094Y-85361576D01*
X186037447Y-85262446D01*
X186136575Y-85181094D01*
X186249664Y-85120646D01*
X186291600Y-85107925D01*
X186372382Y-85083420D01*
X186500000Y-85070851D01*
X186627617Y-85083420D01*
X186627617Y-85083420D01*
G37*
G36*
X146491242Y-85078404D02*
G01*
X146528337Y-85089657D01*
X146562515Y-85107925D01*
X146592481Y-85132519D01*
X146617075Y-85162485D01*
X146635343Y-85196663D01*
X146646596Y-85233758D01*
X146651000Y-85278474D01*
X146651000Y-86721526D01*
X146646596Y-86766242D01*
X146635343Y-86803337D01*
X146617075Y-86837515D01*
X146592481Y-86867481D01*
X146562515Y-86892075D01*
X146528337Y-86910343D01*
X146491242Y-86921596D01*
X146446526Y-86926000D01*
X145553474Y-86926000D01*
X145508758Y-86921596D01*
X145471663Y-86910343D01*
X145437485Y-86892075D01*
X145407519Y-86867481D01*
X145382925Y-86837515D01*
X145364657Y-86803337D01*
X145353404Y-86766242D01*
X145349000Y-86721526D01*
X145349000Y-85278474D01*
X145353404Y-85233758D01*
X145364657Y-85196663D01*
X145382925Y-85162485D01*
X145407519Y-85132519D01*
X145437485Y-85107925D01*
X145471663Y-85089657D01*
X145508758Y-85078404D01*
X145553474Y-85074000D01*
X146446526Y-85074000D01*
X146491242Y-85078404D01*
X146491242Y-85078404D01*
G37*
G36*
X184991242Y-85078404D02*
G01*
X185028337Y-85089657D01*
X185062515Y-85107925D01*
X185092481Y-85132519D01*
X185117075Y-85162485D01*
X185135343Y-85196663D01*
X185146596Y-85233758D01*
X185151000Y-85278474D01*
X185151000Y-86721526D01*
X185146596Y-86766242D01*
X185135343Y-86803337D01*
X185117075Y-86837515D01*
X185092481Y-86867481D01*
X185062515Y-86892075D01*
X185028337Y-86910343D01*
X184991242Y-86921596D01*
X184946526Y-86926000D01*
X184053474Y-86926000D01*
X184008758Y-86921596D01*
X183971663Y-86910343D01*
X183937485Y-86892075D01*
X183907519Y-86867481D01*
X183882925Y-86837515D01*
X183864657Y-86803337D01*
X183853404Y-86766242D01*
X183849000Y-86721526D01*
X183849000Y-85278474D01*
X183853404Y-85233758D01*
X183864657Y-85196663D01*
X183882925Y-85162485D01*
X183907519Y-85132519D01*
X183937485Y-85107925D01*
X183971663Y-85089657D01*
X184008758Y-85078404D01*
X184053474Y-85074000D01*
X184946526Y-85074000D01*
X184991242Y-85078404D01*
X184991242Y-85078404D01*
G37*
G36*
X136451000Y-83951000D02*
G01*
X132549000Y-83951000D01*
X132549000Y-80049000D01*
X136451000Y-80049000D01*
X136451000Y-83951000D01*
X136451000Y-83951000D01*
G37*
G36*
X161951000Y-83951000D02*
G01*
X158049000Y-83951000D01*
X158049000Y-80049000D01*
X161951000Y-80049000D01*
X161951000Y-83951000D01*
X161951000Y-83951000D01*
G37*
G36*
X174951000Y-83951000D02*
G01*
X171049000Y-83951000D01*
X171049000Y-80049000D01*
X174951000Y-80049000D01*
X174951000Y-83951000D01*
X174951000Y-83951000D01*
G37*
G36*
X181451000Y-83951000D02*
G01*
X177549000Y-83951000D01*
X177549000Y-80049000D01*
X181451000Y-80049000D01*
X181451000Y-83951000D01*
X181451000Y-83951000D01*
G37*
G36*
X168451000Y-83951000D02*
G01*
X164549000Y-83951000D01*
X164549000Y-80049000D01*
X168451000Y-80049000D01*
X168451000Y-83951000D01*
X168451000Y-83951000D01*
G37*
G36*
X123451000Y-83951000D02*
G01*
X119549000Y-83951000D01*
X119549000Y-80049000D01*
X123451000Y-80049000D01*
X123451000Y-83951000D01*
X123451000Y-83951000D01*
G37*
G36*
X129951000Y-83951000D02*
G01*
X126049000Y-83951000D01*
X126049000Y-80049000D01*
X129951000Y-80049000D01*
X129951000Y-83951000D01*
X129951000Y-83951000D01*
G37*
G36*
X142951000Y-83951000D02*
G01*
X139049000Y-83951000D01*
X139049000Y-80049000D01*
X142951000Y-80049000D01*
X142951000Y-83951000D01*
X142951000Y-83951000D01*
G37*
G36*
X115846189Y-74210483D02*
G01*
X115846192Y-74210484D01*
X115846191Y-74210484D01*
X116374139Y-74429167D01*
X116849280Y-74746646D01*
X117253354Y-75150720D01*
X117424517Y-75406884D01*
X117570834Y-75625863D01*
X117789517Y-76153811D01*
X117901000Y-76714275D01*
X117901000Y-77285725D01*
X117789517Y-77846189D01*
X117789516Y-77846191D01*
X117570833Y-78374139D01*
X117253354Y-78849280D01*
X116849280Y-79253354D01*
X116374139Y-79570833D01*
X116374138Y-79570834D01*
X116374137Y-79570834D01*
X115846189Y-79789517D01*
X115285725Y-79901000D01*
X114714275Y-79901000D01*
X114153811Y-79789517D01*
X113625863Y-79570834D01*
X113625862Y-79570834D01*
X113625861Y-79570833D01*
X113150720Y-79253354D01*
X112746646Y-78849280D01*
X112429167Y-78374139D01*
X112210484Y-77846191D01*
X112210483Y-77846189D01*
X112099000Y-77285725D01*
X112099000Y-76714275D01*
X112210483Y-76153811D01*
X112429166Y-75625863D01*
X112575483Y-75406884D01*
X112746646Y-75150720D01*
X113150720Y-74746646D01*
X113625861Y-74429167D01*
X114153809Y-74210484D01*
X114153808Y-74210484D01*
X114153811Y-74210483D01*
X114714275Y-74099000D01*
X115285725Y-74099000D01*
X115846189Y-74210483D01*
X115846189Y-74210483D01*
G37*
G36*
X148346189Y-74210483D02*
G01*
X148346192Y-74210484D01*
X148346191Y-74210484D01*
X148874139Y-74429167D01*
X149349280Y-74746646D01*
X149753354Y-75150720D01*
X149924517Y-75406884D01*
X150070834Y-75625863D01*
X150289517Y-76153811D01*
X150377403Y-76595645D01*
X150384516Y-76619094D01*
X150396067Y-76640705D01*
X150411612Y-76659647D01*
X150430554Y-76675192D01*
X150452165Y-76686743D01*
X150475614Y-76693856D01*
X150500000Y-76696258D01*
X150524386Y-76693856D01*
X150547835Y-76686743D01*
X150569446Y-76675192D01*
X150588388Y-76659647D01*
X150603933Y-76640705D01*
X150615484Y-76619094D01*
X150622597Y-76595645D01*
X150710483Y-76153811D01*
X150929166Y-75625863D01*
X151075483Y-75406884D01*
X151246646Y-75150720D01*
X151650720Y-74746646D01*
X152125861Y-74429167D01*
X152653809Y-74210484D01*
X152653808Y-74210484D01*
X152653811Y-74210483D01*
X153214275Y-74099000D01*
X153785725Y-74099000D01*
X154346189Y-74210483D01*
X154346192Y-74210484D01*
X154346191Y-74210484D01*
X154874139Y-74429167D01*
X155349280Y-74746646D01*
X155753354Y-75150720D01*
X155924517Y-75406884D01*
X156070834Y-75625863D01*
X156289517Y-76153811D01*
X156401000Y-76714275D01*
X156401000Y-77285725D01*
X156289517Y-77846189D01*
X156289516Y-77846191D01*
X156070833Y-78374139D01*
X155753354Y-78849280D01*
X155349280Y-79253354D01*
X154874139Y-79570833D01*
X154874138Y-79570834D01*
X154874137Y-79570834D01*
X154346189Y-79789517D01*
X153785725Y-79901000D01*
X153214275Y-79901000D01*
X152653811Y-79789517D01*
X152125863Y-79570834D01*
X152125862Y-79570834D01*
X152125861Y-79570833D01*
X151650720Y-79253354D01*
X151246646Y-78849280D01*
X150929167Y-78374139D01*
X150710484Y-77846191D01*
X150710483Y-77846189D01*
X150622597Y-77404355D01*
X150615484Y-77380906D01*
X150603933Y-77359295D01*
X150588388Y-77340353D01*
X150569446Y-77324808D01*
X150547835Y-77313257D01*
X150524386Y-77306144D01*
X150500000Y-77303742D01*
X150475614Y-77306144D01*
X150452165Y-77313257D01*
X150430554Y-77324808D01*
X150411612Y-77340353D01*
X150396067Y-77359295D01*
X150384516Y-77380906D01*
X150377403Y-77404355D01*
X150289517Y-77846189D01*
X150289516Y-77846191D01*
X150070833Y-78374139D01*
X149753354Y-78849280D01*
X149349280Y-79253354D01*
X148874139Y-79570833D01*
X148874138Y-79570834D01*
X148874137Y-79570834D01*
X148346189Y-79789517D01*
X147785725Y-79901000D01*
X147214275Y-79901000D01*
X146653811Y-79789517D01*
X146125863Y-79570834D01*
X146125862Y-79570834D01*
X146125861Y-79570833D01*
X145650720Y-79253354D01*
X145246646Y-78849280D01*
X144929167Y-78374139D01*
X144710484Y-77846191D01*
X144710483Y-77846189D01*
X144599000Y-77285725D01*
X144599000Y-76714275D01*
X144710483Y-76153811D01*
X144929166Y-75625863D01*
X145075483Y-75406884D01*
X145246646Y-75150720D01*
X145650720Y-74746646D01*
X146125861Y-74429167D01*
X146653809Y-74210484D01*
X146653808Y-74210484D01*
X146653811Y-74210483D01*
X147214275Y-74099000D01*
X147785725Y-74099000D01*
X148346189Y-74210483D01*
X148346189Y-74210483D01*
G37*
G36*
X186846189Y-74210483D02*
G01*
X186846192Y-74210484D01*
X186846191Y-74210484D01*
X187374139Y-74429167D01*
X187849280Y-74746646D01*
X188253354Y-75150720D01*
X188424517Y-75406884D01*
X188570834Y-75625863D01*
X188789517Y-76153811D01*
X188901000Y-76714275D01*
X188901000Y-77285725D01*
X188789517Y-77846189D01*
X188789516Y-77846191D01*
X188570833Y-78374139D01*
X188253354Y-78849280D01*
X187849280Y-79253354D01*
X187374139Y-79570833D01*
X187374138Y-79570834D01*
X187374137Y-79570834D01*
X186846189Y-79789517D01*
X186285725Y-79901000D01*
X185714275Y-79901000D01*
X185153811Y-79789517D01*
X184625863Y-79570834D01*
X184625862Y-79570834D01*
X184625861Y-79570833D01*
X184150720Y-79253354D01*
X183746646Y-78849280D01*
X183429167Y-78374139D01*
X183210484Y-77846191D01*
X183210483Y-77846189D01*
X183099000Y-77285725D01*
X183099000Y-76714275D01*
X183210483Y-76153811D01*
X183429166Y-75625863D01*
X183575483Y-75406884D01*
X183746646Y-75150720D01*
X184150720Y-74746646D01*
X184625861Y-74429167D01*
X185153809Y-74210484D01*
X185153808Y-74210484D01*
X185153811Y-74210483D01*
X185714275Y-74099000D01*
X186285725Y-74099000D01*
X186846189Y-74210483D01*
X186846189Y-74210483D01*
G37*
G36*
X141598254Y-75027818D02*
G01*
X141894968Y-75150721D01*
X141971513Y-75182427D01*
X142307436Y-75406884D01*
X142593116Y-75692564D01*
X142817574Y-76028489D01*
X142972182Y-76401746D01*
X143051000Y-76797993D01*
X143051000Y-77202007D01*
X142972182Y-77598254D01*
X142869484Y-77846189D01*
X142817573Y-77971513D01*
X142593116Y-78307436D01*
X142307436Y-78593116D01*
X141971513Y-78817573D01*
X141971512Y-78817574D01*
X141971511Y-78817574D01*
X141598254Y-78972182D01*
X141202007Y-79051000D01*
X140797993Y-79051000D01*
X140401746Y-78972182D01*
X140028489Y-78817574D01*
X140028488Y-78817574D01*
X140028487Y-78817573D01*
X139692564Y-78593116D01*
X139406884Y-78307436D01*
X139182427Y-77971513D01*
X139130516Y-77846189D01*
X139027818Y-77598254D01*
X138949000Y-77202007D01*
X138949000Y-76797993D01*
X139027818Y-76401746D01*
X139182426Y-76028489D01*
X139406884Y-75692564D01*
X139692564Y-75406884D01*
X140028487Y-75182427D01*
X140105032Y-75150721D01*
X140401746Y-75027818D01*
X140797993Y-74949000D01*
X141202007Y-74949000D01*
X141598254Y-75027818D01*
X141598254Y-75027818D01*
G37*
G36*
X122098254Y-75027818D02*
G01*
X122394968Y-75150721D01*
X122471513Y-75182427D01*
X122807436Y-75406884D01*
X123093116Y-75692564D01*
X123317574Y-76028489D01*
X123472182Y-76401746D01*
X123551000Y-76797993D01*
X123551000Y-77202007D01*
X123472182Y-77598254D01*
X123369484Y-77846189D01*
X123317573Y-77971513D01*
X123093116Y-78307436D01*
X122807436Y-78593116D01*
X122471513Y-78817573D01*
X122471512Y-78817574D01*
X122471511Y-78817574D01*
X122098254Y-78972182D01*
X121702007Y-79051000D01*
X121297993Y-79051000D01*
X120901746Y-78972182D01*
X120528489Y-78817574D01*
X120528488Y-78817574D01*
X120528487Y-78817573D01*
X120192564Y-78593116D01*
X119906884Y-78307436D01*
X119682427Y-77971513D01*
X119630516Y-77846189D01*
X119527818Y-77598254D01*
X119449000Y-77202007D01*
X119449000Y-76797993D01*
X119527818Y-76401746D01*
X119682426Y-76028489D01*
X119906884Y-75692564D01*
X120192564Y-75406884D01*
X120528487Y-75182427D01*
X120605032Y-75150721D01*
X120901746Y-75027818D01*
X121297993Y-74949000D01*
X121702007Y-74949000D01*
X122098254Y-75027818D01*
X122098254Y-75027818D01*
G37*
G36*
X128598254Y-75027818D02*
G01*
X128894968Y-75150721D01*
X128971513Y-75182427D01*
X129307436Y-75406884D01*
X129593116Y-75692564D01*
X129817574Y-76028489D01*
X129972182Y-76401746D01*
X130051000Y-76797993D01*
X130051000Y-77202007D01*
X129972182Y-77598254D01*
X129869484Y-77846189D01*
X129817573Y-77971513D01*
X129593116Y-78307436D01*
X129307436Y-78593116D01*
X128971513Y-78817573D01*
X128971512Y-78817574D01*
X128971511Y-78817574D01*
X128598254Y-78972182D01*
X128202007Y-79051000D01*
X127797993Y-79051000D01*
X127401746Y-78972182D01*
X127028489Y-78817574D01*
X127028488Y-78817574D01*
X127028487Y-78817573D01*
X126692564Y-78593116D01*
X126406884Y-78307436D01*
X126182427Y-77971513D01*
X126130516Y-77846189D01*
X126027818Y-77598254D01*
X125949000Y-77202007D01*
X125949000Y-76797993D01*
X126027818Y-76401746D01*
X126182426Y-76028489D01*
X126406884Y-75692564D01*
X126692564Y-75406884D01*
X127028487Y-75182427D01*
X127105032Y-75150721D01*
X127401746Y-75027818D01*
X127797993Y-74949000D01*
X128202007Y-74949000D01*
X128598254Y-75027818D01*
X128598254Y-75027818D01*
G37*
G36*
X135098254Y-75027818D02*
G01*
X135394968Y-75150721D01*
X135471513Y-75182427D01*
X135807436Y-75406884D01*
X136093116Y-75692564D01*
X136317574Y-76028489D01*
X136472182Y-76401746D01*
X136551000Y-76797993D01*
X136551000Y-77202007D01*
X136472182Y-77598254D01*
X136369484Y-77846189D01*
X136317573Y-77971513D01*
X136093116Y-78307436D01*
X135807436Y-78593116D01*
X135471513Y-78817573D01*
X135471512Y-78817574D01*
X135471511Y-78817574D01*
X135098254Y-78972182D01*
X134702007Y-79051000D01*
X134297993Y-79051000D01*
X133901746Y-78972182D01*
X133528489Y-78817574D01*
X133528488Y-78817574D01*
X133528487Y-78817573D01*
X133192564Y-78593116D01*
X132906884Y-78307436D01*
X132682427Y-77971513D01*
X132630516Y-77846189D01*
X132527818Y-77598254D01*
X132449000Y-77202007D01*
X132449000Y-76797993D01*
X132527818Y-76401746D01*
X132682426Y-76028489D01*
X132906884Y-75692564D01*
X133192564Y-75406884D01*
X133528487Y-75182427D01*
X133605032Y-75150721D01*
X133901746Y-75027818D01*
X134297993Y-74949000D01*
X134702007Y-74949000D01*
X135098254Y-75027818D01*
X135098254Y-75027818D01*
G37*
G36*
X160598254Y-75027818D02*
G01*
X160894968Y-75150721D01*
X160971513Y-75182427D01*
X161307436Y-75406884D01*
X161593116Y-75692564D01*
X161817574Y-76028489D01*
X161972182Y-76401746D01*
X162051000Y-76797993D01*
X162051000Y-77202007D01*
X161972182Y-77598254D01*
X161869484Y-77846189D01*
X161817573Y-77971513D01*
X161593116Y-78307436D01*
X161307436Y-78593116D01*
X160971513Y-78817573D01*
X160971512Y-78817574D01*
X160971511Y-78817574D01*
X160598254Y-78972182D01*
X160202007Y-79051000D01*
X159797993Y-79051000D01*
X159401746Y-78972182D01*
X159028489Y-78817574D01*
X159028488Y-78817574D01*
X159028487Y-78817573D01*
X158692564Y-78593116D01*
X158406884Y-78307436D01*
X158182427Y-77971513D01*
X158130516Y-77846189D01*
X158027818Y-77598254D01*
X157949000Y-77202007D01*
X157949000Y-76797993D01*
X158027818Y-76401746D01*
X158182426Y-76028489D01*
X158406884Y-75692564D01*
X158692564Y-75406884D01*
X159028487Y-75182427D01*
X159105032Y-75150721D01*
X159401746Y-75027818D01*
X159797993Y-74949000D01*
X160202007Y-74949000D01*
X160598254Y-75027818D01*
X160598254Y-75027818D01*
G37*
G36*
X167098254Y-75027818D02*
G01*
X167394968Y-75150721D01*
X167471513Y-75182427D01*
X167807436Y-75406884D01*
X168093116Y-75692564D01*
X168317574Y-76028489D01*
X168472182Y-76401746D01*
X168551000Y-76797993D01*
X168551000Y-77202007D01*
X168472182Y-77598254D01*
X168369484Y-77846189D01*
X168317573Y-77971513D01*
X168093116Y-78307436D01*
X167807436Y-78593116D01*
X167471513Y-78817573D01*
X167471512Y-78817574D01*
X167471511Y-78817574D01*
X167098254Y-78972182D01*
X166702007Y-79051000D01*
X166297993Y-79051000D01*
X165901746Y-78972182D01*
X165528489Y-78817574D01*
X165528488Y-78817574D01*
X165528487Y-78817573D01*
X165192564Y-78593116D01*
X164906884Y-78307436D01*
X164682427Y-77971513D01*
X164630516Y-77846189D01*
X164527818Y-77598254D01*
X164449000Y-77202007D01*
X164449000Y-76797993D01*
X164527818Y-76401746D01*
X164682426Y-76028489D01*
X164906884Y-75692564D01*
X165192564Y-75406884D01*
X165528487Y-75182427D01*
X165605032Y-75150721D01*
X165901746Y-75027818D01*
X166297993Y-74949000D01*
X166702007Y-74949000D01*
X167098254Y-75027818D01*
X167098254Y-75027818D01*
G37*
G36*
X180098254Y-75027818D02*
G01*
X180394968Y-75150721D01*
X180471513Y-75182427D01*
X180807436Y-75406884D01*
X181093116Y-75692564D01*
X181317574Y-76028489D01*
X181472182Y-76401746D01*
X181551000Y-76797993D01*
X181551000Y-77202007D01*
X181472182Y-77598254D01*
X181369484Y-77846189D01*
X181317573Y-77971513D01*
X181093116Y-78307436D01*
X180807436Y-78593116D01*
X180471513Y-78817573D01*
X180471512Y-78817574D01*
X180471511Y-78817574D01*
X180098254Y-78972182D01*
X179702007Y-79051000D01*
X179297993Y-79051000D01*
X178901746Y-78972182D01*
X178528489Y-78817574D01*
X178528488Y-78817574D01*
X178528487Y-78817573D01*
X178192564Y-78593116D01*
X177906884Y-78307436D01*
X177682427Y-77971513D01*
X177630516Y-77846189D01*
X177527818Y-77598254D01*
X177449000Y-77202007D01*
X177449000Y-76797993D01*
X177527818Y-76401746D01*
X177682426Y-76028489D01*
X177906884Y-75692564D01*
X178192564Y-75406884D01*
X178528487Y-75182427D01*
X178605032Y-75150721D01*
X178901746Y-75027818D01*
X179297993Y-74949000D01*
X179702007Y-74949000D01*
X180098254Y-75027818D01*
X180098254Y-75027818D01*
G37*
G36*
X173598254Y-75027818D02*
G01*
X173894968Y-75150721D01*
X173971513Y-75182427D01*
X174307436Y-75406884D01*
X174593116Y-75692564D01*
X174817574Y-76028489D01*
X174972182Y-76401746D01*
X175051000Y-76797993D01*
X175051000Y-77202007D01*
X174972182Y-77598254D01*
X174869484Y-77846189D01*
X174817573Y-77971513D01*
X174593116Y-78307436D01*
X174307436Y-78593116D01*
X173971513Y-78817573D01*
X173971512Y-78817574D01*
X173971511Y-78817574D01*
X173598254Y-78972182D01*
X173202007Y-79051000D01*
X172797993Y-79051000D01*
X172401746Y-78972182D01*
X172028489Y-78817574D01*
X172028488Y-78817574D01*
X172028487Y-78817573D01*
X171692564Y-78593116D01*
X171406884Y-78307436D01*
X171182427Y-77971513D01*
X171130516Y-77846189D01*
X171027818Y-77598254D01*
X170949000Y-77202007D01*
X170949000Y-76797993D01*
X171027818Y-76401746D01*
X171182426Y-76028489D01*
X171406884Y-75692564D01*
X171692564Y-75406884D01*
X172028487Y-75182427D01*
X172105032Y-75150721D01*
X172401746Y-75027818D01*
X172797993Y-74949000D01*
X173202007Y-74949000D01*
X173598254Y-75027818D01*
X173598254Y-75027818D01*
G37*
M02*
