M48
; DRILL file {KiCad (5.1.2)-1} date 2020/06/07 0:31:02
; FORMAT={-:-/ absolute / inch / decimal}
; #@! TF.CreationDate,2020-06-07T00:31:02+09:00
; #@! TF.GenerationSoftware,Kicad,Pcbnew,(5.1.2)-1
; #@! TF.FileFunction,Plated,1,2,PTH
FMAT,2
INCH
T1C0.0236
T2C0.0295
T3C0.1063
T4C0.1260
%
G90
G05
T1
X6.25Y-4.2717
X6.2992Y-4.2717
X6.3484Y-4.2717
X6.3976Y-4.2717
X6.4469Y-4.2717
X6.4961Y-4.2717
X6.25Y-5.748
X6.2992Y-5.748
X6.3484Y-5.748
X6.3976Y-5.748
X6.4469Y-5.748
X6.4961Y-5.748
X4.7343Y-4.2717
X4.7835Y-4.2717
X4.8327Y-4.2717
X4.8819Y-4.2717
X4.9311Y-4.2717
X4.9803Y-4.2717
X4.7343Y-5.748
X4.7835Y-5.748
X4.8327Y-5.748
X4.8819Y-5.748
X4.9311Y-5.748
X4.9803Y-5.748
T2
X7.2638Y-5.2953
X7.3425Y-5.2953
X5.4921Y-4.2126
X5.4921Y-4.2913
X7.0079Y-4.2126
X7.0079Y-4.2913
X6.7913Y-4.2126
X6.7913Y-4.2913
X7.2638Y-4.0354
X7.3425Y-4.0354
X7.2638Y-5.5118
X7.3425Y-5.5118
X5.748Y-5.5118
X5.8268Y-5.5118
X5.748Y-5.0787
X5.8268Y-5.0787
X7.2638Y-4.8622
X7.3425Y-4.8622
X5.748Y-3.8189
X5.8268Y-3.8189
X7.2638Y-5.0787
X7.3425Y-5.0787
X7.2638Y-3.3858
X7.3425Y-3.3858
X7.0079Y-5.689
X7.0079Y-5.7677
X6.7913Y-5.689
X6.7913Y-5.7677
X5.748Y-4.0354
X5.8268Y-4.0354
X5.748Y-4.8622
X5.8268Y-4.8622
X5.748Y-3.3858
X5.8268Y-3.3858
X7.2638Y-3.6024
X7.3425Y-3.6024
X5.748Y-5.2953
X5.8268Y-5.2953
X5.748Y-3.6024
X5.8268Y-3.6024
X5.4921Y-5.689
X5.4921Y-5.7677
X7.2638Y-3.8189
X7.3425Y-3.8189
X5.2756Y-5.689
X5.2756Y-5.7677
X5.2756Y-4.2126
X5.2756Y-4.2913
T3
X5.2953Y-3.0315
X5.2953Y-3.2283
X5.0394Y-3.0315
X5.0394Y-3.2283
X6.5551Y-4.5079
X6.5551Y-4.7047
X5.5512Y-4.5079
X5.5512Y-4.7047
X6.2992Y-4.5079
X6.2992Y-4.7047
X5.5512Y-3.0315
X5.5512Y-3.2283
X5.2953Y-4.5079
X5.2953Y-4.7047
X4.7835Y-3.0315
X4.7835Y-3.2283
X4.7835Y-4.5079
X4.7835Y-4.7047
X6.5551Y-3.0315
X6.5551Y-3.2283
X6.0433Y-3.5827
X6.0433Y-3.7795
X6.2992Y-3.0315
X6.2992Y-3.2283
X6.811Y-3.0315
X6.811Y-3.2283
X6.811Y-4.5079
X6.811Y-4.7047
X4.5276Y-5.0591
X4.5276Y-5.2559
X7.0669Y-3.0315
X7.0669Y-3.2283
X4.5276Y-3.5827
X4.5276Y-3.7795
X5.0394Y-4.5079
X5.0394Y-4.7047
X6.0433Y-5.0591
X6.0433Y-5.2559
X7.0669Y-4.5079
X7.0669Y-4.7047
T4
X6.0433Y-5.748
X7.3228Y-4.2717
X4.5276Y-3.0315
X4.5276Y-5.748
X5.8071Y-5.748
X6.0433Y-4.5079
X7.3228Y-5.748
X6.0433Y-3.0315
X6.0433Y-4.2717
X4.5276Y-4.2717
X5.8071Y-4.5079
X7.3228Y-4.5079
X5.8071Y-3.0315
X4.5276Y-4.5079
X5.8071Y-4.2717
X7.3228Y-3.0315
T0
M30
