G04 #@! TF.GenerationSoftware,KiCad,Pcbnew,(5.1.2)-1*
G04 #@! TF.CreationDate,2020-06-07T00:30:59+09:00*
G04 #@! TF.ProjectId,universal_power_board,756e6976-6572-4736-916c-5f706f776572,rev?*
G04 #@! TF.SameCoordinates,Original*
G04 #@! TF.FileFunction,Legend,Top*
G04 #@! TF.FilePolarity,Positive*
%FSLAX46Y46*%
G04 Gerber Fmt 4.6, Leading zero omitted, Abs format (unit mm)*
G04 Created by KiCad (PCBNEW (5.1.2)-1) date 2020-06-07 00:30:59*
%MOMM*%
%LPD*%
G04 APERTURE LIST*
%ADD10C,0.100000*%
%ADD11C,0.150000*%
%ADD12C,0.120000*%
%ADD13C,0.254000*%
G04 APERTURE END LIST*
D10*
X168228571Y-147042857D02*
X168685714Y-147042857D01*
X168457142Y-147271428D02*
X168457142Y-146814285D01*
X169257142Y-146671428D02*
X168971428Y-146671428D01*
X168942857Y-146957142D01*
X168971428Y-146928571D01*
X169028571Y-146900000D01*
X169171428Y-146900000D01*
X169228571Y-146928571D01*
X169257142Y-146957142D01*
X169285714Y-147014285D01*
X169285714Y-147157142D01*
X169257142Y-147214285D01*
X169228571Y-147242857D01*
X169171428Y-147271428D01*
X169028571Y-147271428D01*
X168971428Y-147242857D01*
X168942857Y-147214285D01*
X169457142Y-146671428D02*
X169657142Y-147271428D01*
X169857142Y-146671428D01*
X129728571Y-147042857D02*
X130185714Y-147042857D01*
X129957142Y-147271428D02*
X129957142Y-146814285D01*
X130757142Y-146671428D02*
X130471428Y-146671428D01*
X130442857Y-146957142D01*
X130471428Y-146928571D01*
X130528571Y-146900000D01*
X130671428Y-146900000D01*
X130728571Y-146928571D01*
X130757142Y-146957142D01*
X130785714Y-147014285D01*
X130785714Y-147157142D01*
X130757142Y-147214285D01*
X130728571Y-147242857D01*
X130671428Y-147271428D01*
X130528571Y-147271428D01*
X130471428Y-147242857D01*
X130442857Y-147214285D01*
X130957142Y-146671428D02*
X131157142Y-147271428D01*
X131357142Y-146671428D01*
X168228571Y-109542857D02*
X168685714Y-109542857D01*
X168457142Y-109771428D02*
X168457142Y-109314285D01*
X169257142Y-109171428D02*
X168971428Y-109171428D01*
X168942857Y-109457142D01*
X168971428Y-109428571D01*
X169028571Y-109400000D01*
X169171428Y-109400000D01*
X169228571Y-109428571D01*
X169257142Y-109457142D01*
X169285714Y-109514285D01*
X169285714Y-109657142D01*
X169257142Y-109714285D01*
X169228571Y-109742857D01*
X169171428Y-109771428D01*
X169028571Y-109771428D01*
X168971428Y-109742857D01*
X168942857Y-109714285D01*
X169457142Y-109171428D02*
X169657142Y-109771428D01*
X169857142Y-109171428D01*
X169042857Y-143700000D02*
X168985714Y-143671428D01*
X168900000Y-143671428D01*
X168814285Y-143700000D01*
X168757142Y-143757142D01*
X168728571Y-143814285D01*
X168700000Y-143928571D01*
X168700000Y-144014285D01*
X168728571Y-144128571D01*
X168757142Y-144185714D01*
X168814285Y-144242857D01*
X168900000Y-144271428D01*
X168957142Y-144271428D01*
X169042857Y-144242857D01*
X169071428Y-144214285D01*
X169071428Y-144014285D01*
X168957142Y-144014285D01*
X169328571Y-144271428D02*
X169328571Y-143671428D01*
X169671428Y-144271428D01*
X169671428Y-143671428D01*
X169957142Y-144271428D02*
X169957142Y-143671428D01*
X170100000Y-143671428D01*
X170185714Y-143700000D01*
X170242857Y-143757142D01*
X170271428Y-143814285D01*
X170300000Y-143928571D01*
X170300000Y-144014285D01*
X170271428Y-144128571D01*
X170242857Y-144185714D01*
X170185714Y-144242857D01*
X170100000Y-144271428D01*
X169957142Y-144271428D01*
X130542857Y-143700000D02*
X130485714Y-143671428D01*
X130400000Y-143671428D01*
X130314285Y-143700000D01*
X130257142Y-143757142D01*
X130228571Y-143814285D01*
X130200000Y-143928571D01*
X130200000Y-144014285D01*
X130228571Y-144128571D01*
X130257142Y-144185714D01*
X130314285Y-144242857D01*
X130400000Y-144271428D01*
X130457142Y-144271428D01*
X130542857Y-144242857D01*
X130571428Y-144214285D01*
X130571428Y-144014285D01*
X130457142Y-144014285D01*
X130828571Y-144271428D02*
X130828571Y-143671428D01*
X131171428Y-144271428D01*
X131171428Y-143671428D01*
X131457142Y-144271428D02*
X131457142Y-143671428D01*
X131600000Y-143671428D01*
X131685714Y-143700000D01*
X131742857Y-143757142D01*
X131771428Y-143814285D01*
X131800000Y-143928571D01*
X131800000Y-144014285D01*
X131771428Y-144128571D01*
X131742857Y-144185714D01*
X131685714Y-144242857D01*
X131600000Y-144271428D01*
X131457142Y-144271428D01*
X169042857Y-106200000D02*
X168985714Y-106171428D01*
X168900000Y-106171428D01*
X168814285Y-106200000D01*
X168757142Y-106257142D01*
X168728571Y-106314285D01*
X168700000Y-106428571D01*
X168700000Y-106514285D01*
X168728571Y-106628571D01*
X168757142Y-106685714D01*
X168814285Y-106742857D01*
X168900000Y-106771428D01*
X168957142Y-106771428D01*
X169042857Y-106742857D01*
X169071428Y-106714285D01*
X169071428Y-106514285D01*
X168957142Y-106514285D01*
X169328571Y-106771428D02*
X169328571Y-106171428D01*
X169671428Y-106771428D01*
X169671428Y-106171428D01*
X169957142Y-106771428D02*
X169957142Y-106171428D01*
X170100000Y-106171428D01*
X170185714Y-106200000D01*
X170242857Y-106257142D01*
X170271428Y-106314285D01*
X170300000Y-106428571D01*
X170300000Y-106514285D01*
X170271428Y-106628571D01*
X170242857Y-106685714D01*
X170185714Y-106742857D01*
X170100000Y-106771428D01*
X169957142Y-106771428D01*
D11*
X158671428Y-140900000D02*
X159157142Y-140900000D01*
X159214285Y-140871428D01*
X159242857Y-140842857D01*
X159271428Y-140785714D01*
X159271428Y-140671428D01*
X159242857Y-140614285D01*
X159214285Y-140585714D01*
X159157142Y-140557142D01*
X158671428Y-140557142D01*
X159271428Y-140271428D02*
X158671428Y-140271428D01*
X159271428Y-139928571D01*
X158671428Y-139928571D01*
X159271428Y-139642857D02*
X158671428Y-139642857D01*
X158671428Y-139442857D02*
X159271428Y-139242857D01*
X158671428Y-139042857D01*
X158957142Y-138842857D02*
X158957142Y-138642857D01*
X159271428Y-138557142D02*
X159271428Y-138842857D01*
X158671428Y-138842857D01*
X158671428Y-138557142D01*
X159271428Y-137957142D02*
X158985714Y-138157142D01*
X159271428Y-138300000D02*
X158671428Y-138300000D01*
X158671428Y-138071428D01*
X158700000Y-138014285D01*
X158728571Y-137985714D01*
X158785714Y-137957142D01*
X158871428Y-137957142D01*
X158928571Y-137985714D01*
X158957142Y-138014285D01*
X158985714Y-138071428D01*
X158985714Y-138300000D01*
X159242857Y-137728571D02*
X159271428Y-137642857D01*
X159271428Y-137500000D01*
X159242857Y-137442857D01*
X159214285Y-137414285D01*
X159157142Y-137385714D01*
X159100000Y-137385714D01*
X159042857Y-137414285D01*
X159014285Y-137442857D01*
X158985714Y-137500000D01*
X158957142Y-137614285D01*
X158928571Y-137671428D01*
X158900000Y-137700000D01*
X158842857Y-137728571D01*
X158785714Y-137728571D01*
X158728571Y-137700000D01*
X158700000Y-137671428D01*
X158671428Y-137614285D01*
X158671428Y-137471428D01*
X158700000Y-137385714D01*
X159100000Y-137157142D02*
X159100000Y-136871428D01*
X159271428Y-137214285D02*
X158671428Y-137014285D01*
X159271428Y-136814285D01*
X159271428Y-136328571D02*
X159271428Y-136614285D01*
X158671428Y-136614285D01*
X159271428Y-135671428D02*
X158671428Y-135671428D01*
X158671428Y-135442857D01*
X158700000Y-135385714D01*
X158728571Y-135357142D01*
X158785714Y-135328571D01*
X158871428Y-135328571D01*
X158928571Y-135357142D01*
X158957142Y-135385714D01*
X158985714Y-135442857D01*
X158985714Y-135671428D01*
X158671428Y-134957142D02*
X158671428Y-134842857D01*
X158700000Y-134785714D01*
X158757142Y-134728571D01*
X158871428Y-134700000D01*
X159071428Y-134700000D01*
X159185714Y-134728571D01*
X159242857Y-134785714D01*
X159271428Y-134842857D01*
X159271428Y-134957142D01*
X159242857Y-135014285D01*
X159185714Y-135071428D01*
X159071428Y-135100000D01*
X158871428Y-135100000D01*
X158757142Y-135071428D01*
X158700000Y-135014285D01*
X158671428Y-134957142D01*
X158671428Y-134500000D02*
X159271428Y-134357142D01*
X158842857Y-134242857D01*
X159271428Y-134128571D01*
X158671428Y-133985714D01*
X158957142Y-133757142D02*
X158957142Y-133557142D01*
X159271428Y-133471428D02*
X159271428Y-133757142D01*
X158671428Y-133757142D01*
X158671428Y-133471428D01*
X159271428Y-132871428D02*
X158985714Y-133071428D01*
X159271428Y-133214285D02*
X158671428Y-133214285D01*
X158671428Y-132985714D01*
X158700000Y-132928571D01*
X158728571Y-132900000D01*
X158785714Y-132871428D01*
X158871428Y-132871428D01*
X158928571Y-132900000D01*
X158957142Y-132928571D01*
X158985714Y-132985714D01*
X158985714Y-133214285D01*
X158957142Y-131957142D02*
X158985714Y-131871428D01*
X159014285Y-131842857D01*
X159071428Y-131814285D01*
X159157142Y-131814285D01*
X159214285Y-131842857D01*
X159242857Y-131871428D01*
X159271428Y-131928571D01*
X159271428Y-132157142D01*
X158671428Y-132157142D01*
X158671428Y-131957142D01*
X158700000Y-131900000D01*
X158728571Y-131871428D01*
X158785714Y-131842857D01*
X158842857Y-131842857D01*
X158900000Y-131871428D01*
X158928571Y-131900000D01*
X158957142Y-131957142D01*
X158957142Y-132157142D01*
X158671428Y-131442857D02*
X158671428Y-131328571D01*
X158700000Y-131271428D01*
X158757142Y-131214285D01*
X158871428Y-131185714D01*
X159071428Y-131185714D01*
X159185714Y-131214285D01*
X159242857Y-131271428D01*
X159271428Y-131328571D01*
X159271428Y-131442857D01*
X159242857Y-131500000D01*
X159185714Y-131557142D01*
X159071428Y-131585714D01*
X158871428Y-131585714D01*
X158757142Y-131557142D01*
X158700000Y-131500000D01*
X158671428Y-131442857D01*
X159100000Y-130957142D02*
X159100000Y-130671428D01*
X159271428Y-131014285D02*
X158671428Y-130814285D01*
X159271428Y-130614285D01*
X159271428Y-130071428D02*
X158985714Y-130271428D01*
X159271428Y-130414285D02*
X158671428Y-130414285D01*
X158671428Y-130185714D01*
X158700000Y-130128571D01*
X158728571Y-130100000D01*
X158785714Y-130071428D01*
X158871428Y-130071428D01*
X158928571Y-130100000D01*
X158957142Y-130128571D01*
X158985714Y-130185714D01*
X158985714Y-130414285D01*
X159271428Y-129814285D02*
X158671428Y-129814285D01*
X158671428Y-129671428D01*
X158700000Y-129585714D01*
X158757142Y-129528571D01*
X158814285Y-129500000D01*
X158928571Y-129471428D01*
X159014285Y-129471428D01*
X159128571Y-129500000D01*
X159185714Y-129528571D01*
X159242857Y-129585714D01*
X159271428Y-129671428D01*
X159271428Y-129814285D01*
X158671428Y-128842857D02*
X159271428Y-128642857D01*
X158671428Y-128442857D01*
X159271428Y-127928571D02*
X159271428Y-128271428D01*
X159271428Y-128100000D02*
X158671428Y-128100000D01*
X158757142Y-128157142D01*
X158814285Y-128214285D01*
X158842857Y-128271428D01*
X159214285Y-127671428D02*
X159242857Y-127642857D01*
X159271428Y-127671428D01*
X159242857Y-127700000D01*
X159214285Y-127671428D01*
X159271428Y-127671428D01*
X158671428Y-127271428D02*
X158671428Y-127214285D01*
X158700000Y-127157142D01*
X158728571Y-127128571D01*
X158785714Y-127100000D01*
X158900000Y-127071428D01*
X159042857Y-127071428D01*
X159157142Y-127100000D01*
X159214285Y-127128571D01*
X159242857Y-127157142D01*
X159271428Y-127214285D01*
X159271428Y-127271428D01*
X159242857Y-127328571D01*
X159214285Y-127357142D01*
X159157142Y-127385714D01*
X159042857Y-127414285D01*
X158900000Y-127414285D01*
X158785714Y-127385714D01*
X158728571Y-127357142D01*
X158700000Y-127328571D01*
X158671428Y-127271428D01*
X120171428Y-140900000D02*
X120657142Y-140900000D01*
X120714285Y-140871428D01*
X120742857Y-140842857D01*
X120771428Y-140785714D01*
X120771428Y-140671428D01*
X120742857Y-140614285D01*
X120714285Y-140585714D01*
X120657142Y-140557142D01*
X120171428Y-140557142D01*
X120771428Y-140271428D02*
X120171428Y-140271428D01*
X120771428Y-139928571D01*
X120171428Y-139928571D01*
X120771428Y-139642857D02*
X120171428Y-139642857D01*
X120171428Y-139442857D02*
X120771428Y-139242857D01*
X120171428Y-139042857D01*
X120457142Y-138842857D02*
X120457142Y-138642857D01*
X120771428Y-138557142D02*
X120771428Y-138842857D01*
X120171428Y-138842857D01*
X120171428Y-138557142D01*
X120771428Y-137957142D02*
X120485714Y-138157142D01*
X120771428Y-138300000D02*
X120171428Y-138300000D01*
X120171428Y-138071428D01*
X120200000Y-138014285D01*
X120228571Y-137985714D01*
X120285714Y-137957142D01*
X120371428Y-137957142D01*
X120428571Y-137985714D01*
X120457142Y-138014285D01*
X120485714Y-138071428D01*
X120485714Y-138300000D01*
X120742857Y-137728571D02*
X120771428Y-137642857D01*
X120771428Y-137500000D01*
X120742857Y-137442857D01*
X120714285Y-137414285D01*
X120657142Y-137385714D01*
X120600000Y-137385714D01*
X120542857Y-137414285D01*
X120514285Y-137442857D01*
X120485714Y-137500000D01*
X120457142Y-137614285D01*
X120428571Y-137671428D01*
X120400000Y-137700000D01*
X120342857Y-137728571D01*
X120285714Y-137728571D01*
X120228571Y-137700000D01*
X120200000Y-137671428D01*
X120171428Y-137614285D01*
X120171428Y-137471428D01*
X120200000Y-137385714D01*
X120600000Y-137157142D02*
X120600000Y-136871428D01*
X120771428Y-137214285D02*
X120171428Y-137014285D01*
X120771428Y-136814285D01*
X120771428Y-136328571D02*
X120771428Y-136614285D01*
X120171428Y-136614285D01*
X120771428Y-135671428D02*
X120171428Y-135671428D01*
X120171428Y-135442857D01*
X120200000Y-135385714D01*
X120228571Y-135357142D01*
X120285714Y-135328571D01*
X120371428Y-135328571D01*
X120428571Y-135357142D01*
X120457142Y-135385714D01*
X120485714Y-135442857D01*
X120485714Y-135671428D01*
X120171428Y-134957142D02*
X120171428Y-134842857D01*
X120200000Y-134785714D01*
X120257142Y-134728571D01*
X120371428Y-134700000D01*
X120571428Y-134700000D01*
X120685714Y-134728571D01*
X120742857Y-134785714D01*
X120771428Y-134842857D01*
X120771428Y-134957142D01*
X120742857Y-135014285D01*
X120685714Y-135071428D01*
X120571428Y-135100000D01*
X120371428Y-135100000D01*
X120257142Y-135071428D01*
X120200000Y-135014285D01*
X120171428Y-134957142D01*
X120171428Y-134500000D02*
X120771428Y-134357142D01*
X120342857Y-134242857D01*
X120771428Y-134128571D01*
X120171428Y-133985714D01*
X120457142Y-133757142D02*
X120457142Y-133557142D01*
X120771428Y-133471428D02*
X120771428Y-133757142D01*
X120171428Y-133757142D01*
X120171428Y-133471428D01*
X120771428Y-132871428D02*
X120485714Y-133071428D01*
X120771428Y-133214285D02*
X120171428Y-133214285D01*
X120171428Y-132985714D01*
X120200000Y-132928571D01*
X120228571Y-132900000D01*
X120285714Y-132871428D01*
X120371428Y-132871428D01*
X120428571Y-132900000D01*
X120457142Y-132928571D01*
X120485714Y-132985714D01*
X120485714Y-133214285D01*
X120457142Y-131957142D02*
X120485714Y-131871428D01*
X120514285Y-131842857D01*
X120571428Y-131814285D01*
X120657142Y-131814285D01*
X120714285Y-131842857D01*
X120742857Y-131871428D01*
X120771428Y-131928571D01*
X120771428Y-132157142D01*
X120171428Y-132157142D01*
X120171428Y-131957142D01*
X120200000Y-131900000D01*
X120228571Y-131871428D01*
X120285714Y-131842857D01*
X120342857Y-131842857D01*
X120400000Y-131871428D01*
X120428571Y-131900000D01*
X120457142Y-131957142D01*
X120457142Y-132157142D01*
X120171428Y-131442857D02*
X120171428Y-131328571D01*
X120200000Y-131271428D01*
X120257142Y-131214285D01*
X120371428Y-131185714D01*
X120571428Y-131185714D01*
X120685714Y-131214285D01*
X120742857Y-131271428D01*
X120771428Y-131328571D01*
X120771428Y-131442857D01*
X120742857Y-131500000D01*
X120685714Y-131557142D01*
X120571428Y-131585714D01*
X120371428Y-131585714D01*
X120257142Y-131557142D01*
X120200000Y-131500000D01*
X120171428Y-131442857D01*
X120600000Y-130957142D02*
X120600000Y-130671428D01*
X120771428Y-131014285D02*
X120171428Y-130814285D01*
X120771428Y-130614285D01*
X120771428Y-130071428D02*
X120485714Y-130271428D01*
X120771428Y-130414285D02*
X120171428Y-130414285D01*
X120171428Y-130185714D01*
X120200000Y-130128571D01*
X120228571Y-130100000D01*
X120285714Y-130071428D01*
X120371428Y-130071428D01*
X120428571Y-130100000D01*
X120457142Y-130128571D01*
X120485714Y-130185714D01*
X120485714Y-130414285D01*
X120771428Y-129814285D02*
X120171428Y-129814285D01*
X120171428Y-129671428D01*
X120200000Y-129585714D01*
X120257142Y-129528571D01*
X120314285Y-129500000D01*
X120428571Y-129471428D01*
X120514285Y-129471428D01*
X120628571Y-129500000D01*
X120685714Y-129528571D01*
X120742857Y-129585714D01*
X120771428Y-129671428D01*
X120771428Y-129814285D01*
X120171428Y-128842857D02*
X120771428Y-128642857D01*
X120171428Y-128442857D01*
X120771428Y-127928571D02*
X120771428Y-128271428D01*
X120771428Y-128100000D02*
X120171428Y-128100000D01*
X120257142Y-128157142D01*
X120314285Y-128214285D01*
X120342857Y-128271428D01*
X120714285Y-127671428D02*
X120742857Y-127642857D01*
X120771428Y-127671428D01*
X120742857Y-127700000D01*
X120714285Y-127671428D01*
X120771428Y-127671428D01*
X120171428Y-127271428D02*
X120171428Y-127214285D01*
X120200000Y-127157142D01*
X120228571Y-127128571D01*
X120285714Y-127100000D01*
X120400000Y-127071428D01*
X120542857Y-127071428D01*
X120657142Y-127100000D01*
X120714285Y-127128571D01*
X120742857Y-127157142D01*
X120771428Y-127214285D01*
X120771428Y-127271428D01*
X120742857Y-127328571D01*
X120714285Y-127357142D01*
X120657142Y-127385714D01*
X120542857Y-127414285D01*
X120400000Y-127414285D01*
X120285714Y-127385714D01*
X120228571Y-127357142D01*
X120200000Y-127328571D01*
X120171428Y-127271428D01*
X158671428Y-103400000D02*
X159157142Y-103400000D01*
X159214285Y-103371428D01*
X159242857Y-103342857D01*
X159271428Y-103285714D01*
X159271428Y-103171428D01*
X159242857Y-103114285D01*
X159214285Y-103085714D01*
X159157142Y-103057142D01*
X158671428Y-103057142D01*
X159271428Y-102771428D02*
X158671428Y-102771428D01*
X159271428Y-102428571D01*
X158671428Y-102428571D01*
X159271428Y-102142857D02*
X158671428Y-102142857D01*
X158671428Y-101942857D02*
X159271428Y-101742857D01*
X158671428Y-101542857D01*
X158957142Y-101342857D02*
X158957142Y-101142857D01*
X159271428Y-101057142D02*
X159271428Y-101342857D01*
X158671428Y-101342857D01*
X158671428Y-101057142D01*
X159271428Y-100457142D02*
X158985714Y-100657142D01*
X159271428Y-100800000D02*
X158671428Y-100800000D01*
X158671428Y-100571428D01*
X158700000Y-100514285D01*
X158728571Y-100485714D01*
X158785714Y-100457142D01*
X158871428Y-100457142D01*
X158928571Y-100485714D01*
X158957142Y-100514285D01*
X158985714Y-100571428D01*
X158985714Y-100800000D01*
X159242857Y-100228571D02*
X159271428Y-100142857D01*
X159271428Y-100000000D01*
X159242857Y-99942857D01*
X159214285Y-99914285D01*
X159157142Y-99885714D01*
X159100000Y-99885714D01*
X159042857Y-99914285D01*
X159014285Y-99942857D01*
X158985714Y-100000000D01*
X158957142Y-100114285D01*
X158928571Y-100171428D01*
X158900000Y-100200000D01*
X158842857Y-100228571D01*
X158785714Y-100228571D01*
X158728571Y-100200000D01*
X158700000Y-100171428D01*
X158671428Y-100114285D01*
X158671428Y-99971428D01*
X158700000Y-99885714D01*
X159100000Y-99657142D02*
X159100000Y-99371428D01*
X159271428Y-99714285D02*
X158671428Y-99514285D01*
X159271428Y-99314285D01*
X159271428Y-98828571D02*
X159271428Y-99114285D01*
X158671428Y-99114285D01*
X159271428Y-98171428D02*
X158671428Y-98171428D01*
X158671428Y-97942857D01*
X158700000Y-97885714D01*
X158728571Y-97857142D01*
X158785714Y-97828571D01*
X158871428Y-97828571D01*
X158928571Y-97857142D01*
X158957142Y-97885714D01*
X158985714Y-97942857D01*
X158985714Y-98171428D01*
X158671428Y-97457142D02*
X158671428Y-97342857D01*
X158700000Y-97285714D01*
X158757142Y-97228571D01*
X158871428Y-97200000D01*
X159071428Y-97200000D01*
X159185714Y-97228571D01*
X159242857Y-97285714D01*
X159271428Y-97342857D01*
X159271428Y-97457142D01*
X159242857Y-97514285D01*
X159185714Y-97571428D01*
X159071428Y-97600000D01*
X158871428Y-97600000D01*
X158757142Y-97571428D01*
X158700000Y-97514285D01*
X158671428Y-97457142D01*
X158671428Y-97000000D02*
X159271428Y-96857142D01*
X158842857Y-96742857D01*
X159271428Y-96628571D01*
X158671428Y-96485714D01*
X158957142Y-96257142D02*
X158957142Y-96057142D01*
X159271428Y-95971428D02*
X159271428Y-96257142D01*
X158671428Y-96257142D01*
X158671428Y-95971428D01*
X159271428Y-95371428D02*
X158985714Y-95571428D01*
X159271428Y-95714285D02*
X158671428Y-95714285D01*
X158671428Y-95485714D01*
X158700000Y-95428571D01*
X158728571Y-95400000D01*
X158785714Y-95371428D01*
X158871428Y-95371428D01*
X158928571Y-95400000D01*
X158957142Y-95428571D01*
X158985714Y-95485714D01*
X158985714Y-95714285D01*
X158957142Y-94457142D02*
X158985714Y-94371428D01*
X159014285Y-94342857D01*
X159071428Y-94314285D01*
X159157142Y-94314285D01*
X159214285Y-94342857D01*
X159242857Y-94371428D01*
X159271428Y-94428571D01*
X159271428Y-94657142D01*
X158671428Y-94657142D01*
X158671428Y-94457142D01*
X158700000Y-94400000D01*
X158728571Y-94371428D01*
X158785714Y-94342857D01*
X158842857Y-94342857D01*
X158900000Y-94371428D01*
X158928571Y-94400000D01*
X158957142Y-94457142D01*
X158957142Y-94657142D01*
X158671428Y-93942857D02*
X158671428Y-93828571D01*
X158700000Y-93771428D01*
X158757142Y-93714285D01*
X158871428Y-93685714D01*
X159071428Y-93685714D01*
X159185714Y-93714285D01*
X159242857Y-93771428D01*
X159271428Y-93828571D01*
X159271428Y-93942857D01*
X159242857Y-94000000D01*
X159185714Y-94057142D01*
X159071428Y-94085714D01*
X158871428Y-94085714D01*
X158757142Y-94057142D01*
X158700000Y-94000000D01*
X158671428Y-93942857D01*
X159100000Y-93457142D02*
X159100000Y-93171428D01*
X159271428Y-93514285D02*
X158671428Y-93314285D01*
X159271428Y-93114285D01*
X159271428Y-92571428D02*
X158985714Y-92771428D01*
X159271428Y-92914285D02*
X158671428Y-92914285D01*
X158671428Y-92685714D01*
X158700000Y-92628571D01*
X158728571Y-92600000D01*
X158785714Y-92571428D01*
X158871428Y-92571428D01*
X158928571Y-92600000D01*
X158957142Y-92628571D01*
X158985714Y-92685714D01*
X158985714Y-92914285D01*
X159271428Y-92314285D02*
X158671428Y-92314285D01*
X158671428Y-92171428D01*
X158700000Y-92085714D01*
X158757142Y-92028571D01*
X158814285Y-92000000D01*
X158928571Y-91971428D01*
X159014285Y-91971428D01*
X159128571Y-92000000D01*
X159185714Y-92028571D01*
X159242857Y-92085714D01*
X159271428Y-92171428D01*
X159271428Y-92314285D01*
X158671428Y-91342857D02*
X159271428Y-91142857D01*
X158671428Y-90942857D01*
X159271428Y-90428571D02*
X159271428Y-90771428D01*
X159271428Y-90600000D02*
X158671428Y-90600000D01*
X158757142Y-90657142D01*
X158814285Y-90714285D01*
X158842857Y-90771428D01*
X159214285Y-90171428D02*
X159242857Y-90142857D01*
X159271428Y-90171428D01*
X159242857Y-90200000D01*
X159214285Y-90171428D01*
X159271428Y-90171428D01*
X158671428Y-89771428D02*
X158671428Y-89714285D01*
X158700000Y-89657142D01*
X158728571Y-89628571D01*
X158785714Y-89600000D01*
X158900000Y-89571428D01*
X159042857Y-89571428D01*
X159157142Y-89600000D01*
X159214285Y-89628571D01*
X159242857Y-89657142D01*
X159271428Y-89714285D01*
X159271428Y-89771428D01*
X159242857Y-89828571D01*
X159214285Y-89857142D01*
X159157142Y-89885714D01*
X159042857Y-89914285D01*
X158900000Y-89914285D01*
X158785714Y-89885714D01*
X158728571Y-89857142D01*
X158700000Y-89828571D01*
X158671428Y-89771428D01*
X120171428Y-103400000D02*
X120657142Y-103400000D01*
X120714285Y-103371428D01*
X120742857Y-103342857D01*
X120771428Y-103285714D01*
X120771428Y-103171428D01*
X120742857Y-103114285D01*
X120714285Y-103085714D01*
X120657142Y-103057142D01*
X120171428Y-103057142D01*
X120771428Y-102771428D02*
X120171428Y-102771428D01*
X120771428Y-102428571D01*
X120171428Y-102428571D01*
X120771428Y-102142857D02*
X120171428Y-102142857D01*
X120171428Y-101942857D02*
X120771428Y-101742857D01*
X120171428Y-101542857D01*
X120457142Y-101342857D02*
X120457142Y-101142857D01*
X120771428Y-101057142D02*
X120771428Y-101342857D01*
X120171428Y-101342857D01*
X120171428Y-101057142D01*
X120771428Y-100457142D02*
X120485714Y-100657142D01*
X120771428Y-100800000D02*
X120171428Y-100800000D01*
X120171428Y-100571428D01*
X120200000Y-100514285D01*
X120228571Y-100485714D01*
X120285714Y-100457142D01*
X120371428Y-100457142D01*
X120428571Y-100485714D01*
X120457142Y-100514285D01*
X120485714Y-100571428D01*
X120485714Y-100800000D01*
X120742857Y-100228571D02*
X120771428Y-100142857D01*
X120771428Y-100000000D01*
X120742857Y-99942857D01*
X120714285Y-99914285D01*
X120657142Y-99885714D01*
X120600000Y-99885714D01*
X120542857Y-99914285D01*
X120514285Y-99942857D01*
X120485714Y-100000000D01*
X120457142Y-100114285D01*
X120428571Y-100171428D01*
X120400000Y-100200000D01*
X120342857Y-100228571D01*
X120285714Y-100228571D01*
X120228571Y-100200000D01*
X120200000Y-100171428D01*
X120171428Y-100114285D01*
X120171428Y-99971428D01*
X120200000Y-99885714D01*
X120600000Y-99657142D02*
X120600000Y-99371428D01*
X120771428Y-99714285D02*
X120171428Y-99514285D01*
X120771428Y-99314285D01*
X120771428Y-98828571D02*
X120771428Y-99114285D01*
X120171428Y-99114285D01*
X120771428Y-98171428D02*
X120171428Y-98171428D01*
X120171428Y-97942857D01*
X120200000Y-97885714D01*
X120228571Y-97857142D01*
X120285714Y-97828571D01*
X120371428Y-97828571D01*
X120428571Y-97857142D01*
X120457142Y-97885714D01*
X120485714Y-97942857D01*
X120485714Y-98171428D01*
X120171428Y-97457142D02*
X120171428Y-97342857D01*
X120200000Y-97285714D01*
X120257142Y-97228571D01*
X120371428Y-97200000D01*
X120571428Y-97200000D01*
X120685714Y-97228571D01*
X120742857Y-97285714D01*
X120771428Y-97342857D01*
X120771428Y-97457142D01*
X120742857Y-97514285D01*
X120685714Y-97571428D01*
X120571428Y-97600000D01*
X120371428Y-97600000D01*
X120257142Y-97571428D01*
X120200000Y-97514285D01*
X120171428Y-97457142D01*
X120171428Y-97000000D02*
X120771428Y-96857142D01*
X120342857Y-96742857D01*
X120771428Y-96628571D01*
X120171428Y-96485714D01*
X120457142Y-96257142D02*
X120457142Y-96057142D01*
X120771428Y-95971428D02*
X120771428Y-96257142D01*
X120171428Y-96257142D01*
X120171428Y-95971428D01*
X120771428Y-95371428D02*
X120485714Y-95571428D01*
X120771428Y-95714285D02*
X120171428Y-95714285D01*
X120171428Y-95485714D01*
X120200000Y-95428571D01*
X120228571Y-95400000D01*
X120285714Y-95371428D01*
X120371428Y-95371428D01*
X120428571Y-95400000D01*
X120457142Y-95428571D01*
X120485714Y-95485714D01*
X120485714Y-95714285D01*
X120457142Y-94457142D02*
X120485714Y-94371428D01*
X120514285Y-94342857D01*
X120571428Y-94314285D01*
X120657142Y-94314285D01*
X120714285Y-94342857D01*
X120742857Y-94371428D01*
X120771428Y-94428571D01*
X120771428Y-94657142D01*
X120171428Y-94657142D01*
X120171428Y-94457142D01*
X120200000Y-94400000D01*
X120228571Y-94371428D01*
X120285714Y-94342857D01*
X120342857Y-94342857D01*
X120400000Y-94371428D01*
X120428571Y-94400000D01*
X120457142Y-94457142D01*
X120457142Y-94657142D01*
X120171428Y-93942857D02*
X120171428Y-93828571D01*
X120200000Y-93771428D01*
X120257142Y-93714285D01*
X120371428Y-93685714D01*
X120571428Y-93685714D01*
X120685714Y-93714285D01*
X120742857Y-93771428D01*
X120771428Y-93828571D01*
X120771428Y-93942857D01*
X120742857Y-94000000D01*
X120685714Y-94057142D01*
X120571428Y-94085714D01*
X120371428Y-94085714D01*
X120257142Y-94057142D01*
X120200000Y-94000000D01*
X120171428Y-93942857D01*
X120600000Y-93457142D02*
X120600000Y-93171428D01*
X120771428Y-93514285D02*
X120171428Y-93314285D01*
X120771428Y-93114285D01*
X120771428Y-92571428D02*
X120485714Y-92771428D01*
X120771428Y-92914285D02*
X120171428Y-92914285D01*
X120171428Y-92685714D01*
X120200000Y-92628571D01*
X120228571Y-92600000D01*
X120285714Y-92571428D01*
X120371428Y-92571428D01*
X120428571Y-92600000D01*
X120457142Y-92628571D01*
X120485714Y-92685714D01*
X120485714Y-92914285D01*
X120771428Y-92314285D02*
X120171428Y-92314285D01*
X120171428Y-92171428D01*
X120200000Y-92085714D01*
X120257142Y-92028571D01*
X120314285Y-92000000D01*
X120428571Y-91971428D01*
X120514285Y-91971428D01*
X120628571Y-92000000D01*
X120685714Y-92028571D01*
X120742857Y-92085714D01*
X120771428Y-92171428D01*
X120771428Y-92314285D01*
X120171428Y-91342857D02*
X120771428Y-91142857D01*
X120171428Y-90942857D01*
X120771428Y-90428571D02*
X120771428Y-90771428D01*
X120771428Y-90600000D02*
X120171428Y-90600000D01*
X120257142Y-90657142D01*
X120314285Y-90714285D01*
X120342857Y-90771428D01*
X120714285Y-90171428D02*
X120742857Y-90142857D01*
X120771428Y-90171428D01*
X120742857Y-90200000D01*
X120714285Y-90171428D01*
X120771428Y-90171428D01*
X120171428Y-89771428D02*
X120171428Y-89714285D01*
X120200000Y-89657142D01*
X120228571Y-89628571D01*
X120285714Y-89600000D01*
X120400000Y-89571428D01*
X120542857Y-89571428D01*
X120657142Y-89600000D01*
X120714285Y-89628571D01*
X120742857Y-89657142D01*
X120771428Y-89714285D01*
X120771428Y-89771428D01*
X120742857Y-89828571D01*
X120714285Y-89857142D01*
X120657142Y-89885714D01*
X120542857Y-89914285D01*
X120400000Y-89914285D01*
X120285714Y-89885714D01*
X120228571Y-89857142D01*
X120200000Y-89828571D01*
X120171428Y-89771428D01*
D10*
X130542857Y-106200000D02*
X130485714Y-106171428D01*
X130400000Y-106171428D01*
X130314285Y-106200000D01*
X130257142Y-106257142D01*
X130228571Y-106314285D01*
X130200000Y-106428571D01*
X130200000Y-106514285D01*
X130228571Y-106628571D01*
X130257142Y-106685714D01*
X130314285Y-106742857D01*
X130400000Y-106771428D01*
X130457142Y-106771428D01*
X130542857Y-106742857D01*
X130571428Y-106714285D01*
X130571428Y-106514285D01*
X130457142Y-106514285D01*
X130828571Y-106771428D02*
X130828571Y-106171428D01*
X131171428Y-106771428D01*
X131171428Y-106171428D01*
X131457142Y-106771428D02*
X131457142Y-106171428D01*
X131600000Y-106171428D01*
X131685714Y-106200000D01*
X131742857Y-106257142D01*
X131771428Y-106314285D01*
X131800000Y-106428571D01*
X131800000Y-106514285D01*
X131771428Y-106628571D01*
X131742857Y-106685714D01*
X131685714Y-106742857D01*
X131600000Y-106771428D01*
X131457142Y-106771428D01*
X129728571Y-109542857D02*
X130185714Y-109542857D01*
X129957142Y-109771428D02*
X129957142Y-109314285D01*
X130757142Y-109171428D02*
X130471428Y-109171428D01*
X130442857Y-109457142D01*
X130471428Y-109428571D01*
X130528571Y-109400000D01*
X130671428Y-109400000D01*
X130728571Y-109428571D01*
X130757142Y-109457142D01*
X130785714Y-109514285D01*
X130785714Y-109657142D01*
X130757142Y-109714285D01*
X130728571Y-109742857D01*
X130671428Y-109771428D01*
X130528571Y-109771428D01*
X130471428Y-109742857D01*
X130442857Y-109714285D01*
X130957142Y-109171428D02*
X131157142Y-109771428D01*
X131357142Y-109171428D01*
D12*
X157200000Y-143700000D02*
X157200000Y-147300000D01*
X157200000Y-147300000D02*
X166550000Y-147300000D01*
X166550000Y-147300000D02*
X166550000Y-143700000D01*
X166550000Y-143700000D02*
X157200000Y-143700000D01*
X156890000Y-145700000D02*
X156890000Y-147610000D01*
X156890000Y-147610000D02*
X158800000Y-147610000D01*
X157200000Y-146000000D02*
X157500000Y-146000000D01*
X157500000Y-146000000D02*
X157500000Y-147000000D01*
X157500000Y-147000000D02*
X166250000Y-147000000D01*
X166250000Y-147000000D02*
X166250000Y-146000000D01*
X166250000Y-146000000D02*
X166550000Y-146000000D01*
X157200000Y-145250000D02*
X157500000Y-145250000D01*
X157500000Y-145250000D02*
X157500000Y-144150000D01*
X157500000Y-144150000D02*
X157800000Y-144150000D01*
X157800000Y-144150000D02*
X157800000Y-143700000D01*
X166550000Y-145250000D02*
X166250000Y-145250000D01*
X166250000Y-145250000D02*
X166250000Y-144150000D01*
X166250000Y-144150000D02*
X165950000Y-144150000D01*
X165950000Y-144150000D02*
X165950000Y-143700000D01*
X157800000Y-144150000D02*
X159000000Y-144150000D01*
X159000000Y-144150000D02*
X159000000Y-143850000D01*
X159000000Y-143850000D02*
X159750000Y-143850000D01*
X159750000Y-143850000D02*
X159750000Y-144150000D01*
X159750000Y-144150000D02*
X164000000Y-144150000D01*
X164000000Y-144150000D02*
X164000000Y-143850000D01*
X164000000Y-143850000D02*
X164750000Y-143850000D01*
X164750000Y-143850000D02*
X164750000Y-144150000D01*
X164750000Y-144150000D02*
X165950000Y-144150000D01*
X118700000Y-143700000D02*
X118700000Y-147300000D01*
X118700000Y-147300000D02*
X128050000Y-147300000D01*
X128050000Y-147300000D02*
X128050000Y-143700000D01*
X128050000Y-143700000D02*
X118700000Y-143700000D01*
X118390000Y-145700000D02*
X118390000Y-147610000D01*
X118390000Y-147610000D02*
X120300000Y-147610000D01*
X118700000Y-146000000D02*
X119000000Y-146000000D01*
X119000000Y-146000000D02*
X119000000Y-147000000D01*
X119000000Y-147000000D02*
X127750000Y-147000000D01*
X127750000Y-147000000D02*
X127750000Y-146000000D01*
X127750000Y-146000000D02*
X128050000Y-146000000D01*
X118700000Y-145250000D02*
X119000000Y-145250000D01*
X119000000Y-145250000D02*
X119000000Y-144150000D01*
X119000000Y-144150000D02*
X119300000Y-144150000D01*
X119300000Y-144150000D02*
X119300000Y-143700000D01*
X128050000Y-145250000D02*
X127750000Y-145250000D01*
X127750000Y-145250000D02*
X127750000Y-144150000D01*
X127750000Y-144150000D02*
X127450000Y-144150000D01*
X127450000Y-144150000D02*
X127450000Y-143700000D01*
X119300000Y-144150000D02*
X120500000Y-144150000D01*
X120500000Y-144150000D02*
X120500000Y-143850000D01*
X120500000Y-143850000D02*
X121250000Y-143850000D01*
X121250000Y-143850000D02*
X121250000Y-144150000D01*
X121250000Y-144150000D02*
X125500000Y-144150000D01*
X125500000Y-144150000D02*
X125500000Y-143850000D01*
X125500000Y-143850000D02*
X126250000Y-143850000D01*
X126250000Y-143850000D02*
X126250000Y-144150000D01*
X126250000Y-144150000D02*
X127450000Y-144150000D01*
X157200000Y-106200000D02*
X157200000Y-109800000D01*
X157200000Y-109800000D02*
X166550000Y-109800000D01*
X166550000Y-109800000D02*
X166550000Y-106200000D01*
X166550000Y-106200000D02*
X157200000Y-106200000D01*
X156890000Y-108200000D02*
X156890000Y-110110000D01*
X156890000Y-110110000D02*
X158800000Y-110110000D01*
X157200000Y-108500000D02*
X157500000Y-108500000D01*
X157500000Y-108500000D02*
X157500000Y-109500000D01*
X157500000Y-109500000D02*
X166250000Y-109500000D01*
X166250000Y-109500000D02*
X166250000Y-108500000D01*
X166250000Y-108500000D02*
X166550000Y-108500000D01*
X157200000Y-107750000D02*
X157500000Y-107750000D01*
X157500000Y-107750000D02*
X157500000Y-106650000D01*
X157500000Y-106650000D02*
X157800000Y-106650000D01*
X157800000Y-106650000D02*
X157800000Y-106200000D01*
X166550000Y-107750000D02*
X166250000Y-107750000D01*
X166250000Y-107750000D02*
X166250000Y-106650000D01*
X166250000Y-106650000D02*
X165950000Y-106650000D01*
X165950000Y-106650000D02*
X165950000Y-106200000D01*
X157800000Y-106650000D02*
X159000000Y-106650000D01*
X159000000Y-106650000D02*
X159000000Y-106350000D01*
X159000000Y-106350000D02*
X159750000Y-106350000D01*
X159750000Y-106350000D02*
X159750000Y-106650000D01*
X159750000Y-106650000D02*
X164000000Y-106650000D01*
X164000000Y-106650000D02*
X164000000Y-106350000D01*
X164000000Y-106350000D02*
X164750000Y-106350000D01*
X164750000Y-106350000D02*
X164750000Y-106650000D01*
X164750000Y-106650000D02*
X165950000Y-106650000D01*
X163790000Y-120510000D02*
X163790000Y-111790000D01*
X163790000Y-111790000D02*
X169210000Y-111790000D01*
X169210000Y-120510000D02*
X169210000Y-111790000D01*
X165090000Y-122210000D02*
X163790000Y-120510000D01*
X167910000Y-122210000D02*
X169210000Y-120510000D01*
X165090000Y-122210000D02*
X167910000Y-122210000D01*
X125290000Y-120510000D02*
X125290000Y-111790000D01*
X125290000Y-111790000D02*
X130710000Y-111790000D01*
X130710000Y-120510000D02*
X130710000Y-111790000D01*
X126590000Y-122210000D02*
X125290000Y-120510000D01*
X129410000Y-122210000D02*
X130710000Y-120510000D01*
X126590000Y-122210000D02*
X129410000Y-122210000D01*
X163790000Y-83010000D02*
X163790000Y-74290000D01*
X163790000Y-74290000D02*
X169210000Y-74290000D01*
X169210000Y-83010000D02*
X169210000Y-74290000D01*
X165090000Y-84710000D02*
X163790000Y-83010000D01*
X167910000Y-84710000D02*
X169210000Y-83010000D01*
X165090000Y-84710000D02*
X167910000Y-84710000D01*
X173796267Y-141010000D02*
X173453733Y-141010000D01*
X173796267Y-139990000D02*
X173453733Y-139990000D01*
X135296267Y-141010000D02*
X134953733Y-141010000D01*
X135296267Y-139990000D02*
X134953733Y-139990000D01*
X173796267Y-103510000D02*
X173453733Y-103510000D01*
X173796267Y-102490000D02*
X173453733Y-102490000D01*
X176190000Y-148560000D02*
X180910000Y-148560000D01*
X180910000Y-148560000D02*
X180910000Y-142440000D01*
X180910000Y-142440000D02*
X176190000Y-142440000D01*
X176190000Y-142440000D02*
X176190000Y-148560000D01*
X176190000Y-146800000D02*
X175990000Y-146800000D01*
X175990000Y-146800000D02*
X175990000Y-147100000D01*
X175990000Y-147100000D02*
X176190000Y-147100000D01*
X176090000Y-146800000D02*
X176090000Y-147100000D01*
X176190000Y-146000000D02*
X176800000Y-146000000D01*
X176800000Y-146000000D02*
X176800000Y-147950000D01*
X176800000Y-147950000D02*
X180300000Y-147950000D01*
X180300000Y-147950000D02*
X180300000Y-143050000D01*
X180300000Y-143050000D02*
X176800000Y-143050000D01*
X176800000Y-143050000D02*
X176800000Y-145000000D01*
X176800000Y-145000000D02*
X176190000Y-145000000D01*
X177500000Y-148560000D02*
X177500000Y-147950000D01*
X178800000Y-148560000D02*
X178800000Y-147950000D01*
X177500000Y-142440000D02*
X177500000Y-143050000D01*
X178800000Y-142440000D02*
X178800000Y-143050000D01*
X180300000Y-145600000D02*
X179800000Y-145600000D01*
X179800000Y-145600000D02*
X179800000Y-145400000D01*
X179800000Y-145400000D02*
X180300000Y-145400000D01*
X180300000Y-145500000D02*
X179800000Y-145500000D01*
X175890000Y-147610000D02*
X175890000Y-148860000D01*
X175890000Y-148860000D02*
X177140000Y-148860000D01*
X137690000Y-148560000D02*
X142410000Y-148560000D01*
X142410000Y-148560000D02*
X142410000Y-142440000D01*
X142410000Y-142440000D02*
X137690000Y-142440000D01*
X137690000Y-142440000D02*
X137690000Y-148560000D01*
X137690000Y-146800000D02*
X137490000Y-146800000D01*
X137490000Y-146800000D02*
X137490000Y-147100000D01*
X137490000Y-147100000D02*
X137690000Y-147100000D01*
X137590000Y-146800000D02*
X137590000Y-147100000D01*
X137690000Y-146000000D02*
X138300000Y-146000000D01*
X138300000Y-146000000D02*
X138300000Y-147950000D01*
X138300000Y-147950000D02*
X141800000Y-147950000D01*
X141800000Y-147950000D02*
X141800000Y-143050000D01*
X141800000Y-143050000D02*
X138300000Y-143050000D01*
X138300000Y-143050000D02*
X138300000Y-145000000D01*
X138300000Y-145000000D02*
X137690000Y-145000000D01*
X139000000Y-148560000D02*
X139000000Y-147950000D01*
X140300000Y-148560000D02*
X140300000Y-147950000D01*
X139000000Y-142440000D02*
X139000000Y-143050000D01*
X140300000Y-142440000D02*
X140300000Y-143050000D01*
X141800000Y-145600000D02*
X141300000Y-145600000D01*
X141300000Y-145600000D02*
X141300000Y-145400000D01*
X141300000Y-145400000D02*
X141800000Y-145400000D01*
X141800000Y-145500000D02*
X141300000Y-145500000D01*
X137390000Y-147610000D02*
X137390000Y-148860000D01*
X137390000Y-148860000D02*
X138640000Y-148860000D01*
X176190000Y-111060000D02*
X180910000Y-111060000D01*
X180910000Y-111060000D02*
X180910000Y-104940000D01*
X180910000Y-104940000D02*
X176190000Y-104940000D01*
X176190000Y-104940000D02*
X176190000Y-111060000D01*
X176190000Y-109300000D02*
X175990000Y-109300000D01*
X175990000Y-109300000D02*
X175990000Y-109600000D01*
X175990000Y-109600000D02*
X176190000Y-109600000D01*
X176090000Y-109300000D02*
X176090000Y-109600000D01*
X176190000Y-108500000D02*
X176800000Y-108500000D01*
X176800000Y-108500000D02*
X176800000Y-110450000D01*
X176800000Y-110450000D02*
X180300000Y-110450000D01*
X180300000Y-110450000D02*
X180300000Y-105550000D01*
X180300000Y-105550000D02*
X176800000Y-105550000D01*
X176800000Y-105550000D02*
X176800000Y-107500000D01*
X176800000Y-107500000D02*
X176190000Y-107500000D01*
X177500000Y-111060000D02*
X177500000Y-110450000D01*
X178800000Y-111060000D02*
X178800000Y-110450000D01*
X177500000Y-104940000D02*
X177500000Y-105550000D01*
X178800000Y-104940000D02*
X178800000Y-105550000D01*
X180300000Y-108100000D02*
X179800000Y-108100000D01*
X179800000Y-108100000D02*
X179800000Y-107900000D01*
X179800000Y-107900000D02*
X180300000Y-107900000D01*
X180300000Y-108000000D02*
X179800000Y-108000000D01*
X175890000Y-110110000D02*
X175890000Y-111360000D01*
X175890000Y-111360000D02*
X177140000Y-111360000D01*
X172175000Y-124265000D02*
X169715000Y-124265000D01*
X169715000Y-124265000D02*
X169715000Y-125735000D01*
X169715000Y-125735000D02*
X172175000Y-125735000D01*
X133675000Y-124265000D02*
X131215000Y-124265000D01*
X131215000Y-124265000D02*
X131215000Y-125735000D01*
X131215000Y-125735000D02*
X133675000Y-125735000D01*
X172175000Y-86765000D02*
X169715000Y-86765000D01*
X169715000Y-86765000D02*
X169715000Y-88235000D01*
X169715000Y-88235000D02*
X172175000Y-88235000D01*
X182440000Y-127190000D02*
X182440000Y-131910000D01*
X182440000Y-131910000D02*
X188560000Y-131910000D01*
X188560000Y-131910000D02*
X188560000Y-127190000D01*
X188560000Y-127190000D02*
X182440000Y-127190000D01*
X184200000Y-127190000D02*
X184200000Y-126990000D01*
X184200000Y-126990000D02*
X183900000Y-126990000D01*
X183900000Y-126990000D02*
X183900000Y-127190000D01*
X184200000Y-127090000D02*
X183900000Y-127090000D01*
X185000000Y-127190000D02*
X185000000Y-127800000D01*
X185000000Y-127800000D02*
X183050000Y-127800000D01*
X183050000Y-127800000D02*
X183050000Y-131300000D01*
X183050000Y-131300000D02*
X187950000Y-131300000D01*
X187950000Y-131300000D02*
X187950000Y-127800000D01*
X187950000Y-127800000D02*
X186000000Y-127800000D01*
X186000000Y-127800000D02*
X186000000Y-127190000D01*
X182440000Y-128500000D02*
X183050000Y-128500000D01*
X182440000Y-129800000D02*
X183050000Y-129800000D01*
X188560000Y-128500000D02*
X187950000Y-128500000D01*
X188560000Y-129800000D02*
X187950000Y-129800000D01*
X185400000Y-131300000D02*
X185400000Y-130800000D01*
X185400000Y-130800000D02*
X185600000Y-130800000D01*
X185600000Y-130800000D02*
X185600000Y-131300000D01*
X185500000Y-131300000D02*
X185500000Y-130800000D01*
X183390000Y-126890000D02*
X182140000Y-126890000D01*
X182140000Y-126890000D02*
X182140000Y-128140000D01*
X143940000Y-127190000D02*
X143940000Y-131910000D01*
X143940000Y-131910000D02*
X150060000Y-131910000D01*
X150060000Y-131910000D02*
X150060000Y-127190000D01*
X150060000Y-127190000D02*
X143940000Y-127190000D01*
X145700000Y-127190000D02*
X145700000Y-126990000D01*
X145700000Y-126990000D02*
X145400000Y-126990000D01*
X145400000Y-126990000D02*
X145400000Y-127190000D01*
X145700000Y-127090000D02*
X145400000Y-127090000D01*
X146500000Y-127190000D02*
X146500000Y-127800000D01*
X146500000Y-127800000D02*
X144550000Y-127800000D01*
X144550000Y-127800000D02*
X144550000Y-131300000D01*
X144550000Y-131300000D02*
X149450000Y-131300000D01*
X149450000Y-131300000D02*
X149450000Y-127800000D01*
X149450000Y-127800000D02*
X147500000Y-127800000D01*
X147500000Y-127800000D02*
X147500000Y-127190000D01*
X143940000Y-128500000D02*
X144550000Y-128500000D01*
X143940000Y-129800000D02*
X144550000Y-129800000D01*
X150060000Y-128500000D02*
X149450000Y-128500000D01*
X150060000Y-129800000D02*
X149450000Y-129800000D01*
X146900000Y-131300000D02*
X146900000Y-130800000D01*
X146900000Y-130800000D02*
X147100000Y-130800000D01*
X147100000Y-130800000D02*
X147100000Y-131300000D01*
X147000000Y-131300000D02*
X147000000Y-130800000D01*
X144890000Y-126890000D02*
X143640000Y-126890000D01*
X143640000Y-126890000D02*
X143640000Y-128140000D01*
X182440000Y-89690000D02*
X182440000Y-94410000D01*
X182440000Y-94410000D02*
X188560000Y-94410000D01*
X188560000Y-94410000D02*
X188560000Y-89690000D01*
X188560000Y-89690000D02*
X182440000Y-89690000D01*
X184200000Y-89690000D02*
X184200000Y-89490000D01*
X184200000Y-89490000D02*
X183900000Y-89490000D01*
X183900000Y-89490000D02*
X183900000Y-89690000D01*
X184200000Y-89590000D02*
X183900000Y-89590000D01*
X185000000Y-89690000D02*
X185000000Y-90300000D01*
X185000000Y-90300000D02*
X183050000Y-90300000D01*
X183050000Y-90300000D02*
X183050000Y-93800000D01*
X183050000Y-93800000D02*
X187950000Y-93800000D01*
X187950000Y-93800000D02*
X187950000Y-90300000D01*
X187950000Y-90300000D02*
X186000000Y-90300000D01*
X186000000Y-90300000D02*
X186000000Y-89690000D01*
X182440000Y-91000000D02*
X183050000Y-91000000D01*
X182440000Y-92300000D02*
X183050000Y-92300000D01*
X188560000Y-91000000D02*
X187950000Y-91000000D01*
X188560000Y-92300000D02*
X187950000Y-92300000D01*
X185400000Y-93800000D02*
X185400000Y-93300000D01*
X185400000Y-93300000D02*
X185600000Y-93300000D01*
X185600000Y-93300000D02*
X185600000Y-93800000D01*
X185500000Y-93800000D02*
X185500000Y-93300000D01*
X183390000Y-89390000D02*
X182140000Y-89390000D01*
X182140000Y-89390000D02*
X182140000Y-90640000D01*
X182440000Y-132690000D02*
X182440000Y-137410000D01*
X182440000Y-137410000D02*
X188560000Y-137410000D01*
X188560000Y-137410000D02*
X188560000Y-132690000D01*
X188560000Y-132690000D02*
X182440000Y-132690000D01*
X184200000Y-132690000D02*
X184200000Y-132490000D01*
X184200000Y-132490000D02*
X183900000Y-132490000D01*
X183900000Y-132490000D02*
X183900000Y-132690000D01*
X184200000Y-132590000D02*
X183900000Y-132590000D01*
X185000000Y-132690000D02*
X185000000Y-133300000D01*
X185000000Y-133300000D02*
X183050000Y-133300000D01*
X183050000Y-133300000D02*
X183050000Y-136800000D01*
X183050000Y-136800000D02*
X187950000Y-136800000D01*
X187950000Y-136800000D02*
X187950000Y-133300000D01*
X187950000Y-133300000D02*
X186000000Y-133300000D01*
X186000000Y-133300000D02*
X186000000Y-132690000D01*
X182440000Y-134000000D02*
X183050000Y-134000000D01*
X182440000Y-135300000D02*
X183050000Y-135300000D01*
X188560000Y-134000000D02*
X187950000Y-134000000D01*
X188560000Y-135300000D02*
X187950000Y-135300000D01*
X185400000Y-136800000D02*
X185400000Y-136300000D01*
X185400000Y-136300000D02*
X185600000Y-136300000D01*
X185600000Y-136300000D02*
X185600000Y-136800000D01*
X185500000Y-136800000D02*
X185500000Y-136300000D01*
X183390000Y-132390000D02*
X182140000Y-132390000D01*
X182140000Y-132390000D02*
X182140000Y-133640000D01*
X143940000Y-132690000D02*
X143940000Y-137410000D01*
X143940000Y-137410000D02*
X150060000Y-137410000D01*
X150060000Y-137410000D02*
X150060000Y-132690000D01*
X150060000Y-132690000D02*
X143940000Y-132690000D01*
X145700000Y-132690000D02*
X145700000Y-132490000D01*
X145700000Y-132490000D02*
X145400000Y-132490000D01*
X145400000Y-132490000D02*
X145400000Y-132690000D01*
X145700000Y-132590000D02*
X145400000Y-132590000D01*
X146500000Y-132690000D02*
X146500000Y-133300000D01*
X146500000Y-133300000D02*
X144550000Y-133300000D01*
X144550000Y-133300000D02*
X144550000Y-136800000D01*
X144550000Y-136800000D02*
X149450000Y-136800000D01*
X149450000Y-136800000D02*
X149450000Y-133300000D01*
X149450000Y-133300000D02*
X147500000Y-133300000D01*
X147500000Y-133300000D02*
X147500000Y-132690000D01*
X143940000Y-134000000D02*
X144550000Y-134000000D01*
X143940000Y-135300000D02*
X144550000Y-135300000D01*
X150060000Y-134000000D02*
X149450000Y-134000000D01*
X150060000Y-135300000D02*
X149450000Y-135300000D01*
X146900000Y-136800000D02*
X146900000Y-136300000D01*
X146900000Y-136300000D02*
X147100000Y-136300000D01*
X147100000Y-136300000D02*
X147100000Y-136800000D01*
X147000000Y-136800000D02*
X147000000Y-136300000D01*
X144890000Y-132390000D02*
X143640000Y-132390000D01*
X143640000Y-132390000D02*
X143640000Y-133640000D01*
X182440000Y-95190000D02*
X182440000Y-99910000D01*
X182440000Y-99910000D02*
X188560000Y-99910000D01*
X188560000Y-99910000D02*
X188560000Y-95190000D01*
X188560000Y-95190000D02*
X182440000Y-95190000D01*
X184200000Y-95190000D02*
X184200000Y-94990000D01*
X184200000Y-94990000D02*
X183900000Y-94990000D01*
X183900000Y-94990000D02*
X183900000Y-95190000D01*
X184200000Y-95090000D02*
X183900000Y-95090000D01*
X185000000Y-95190000D02*
X185000000Y-95800000D01*
X185000000Y-95800000D02*
X183050000Y-95800000D01*
X183050000Y-95800000D02*
X183050000Y-99300000D01*
X183050000Y-99300000D02*
X187950000Y-99300000D01*
X187950000Y-99300000D02*
X187950000Y-95800000D01*
X187950000Y-95800000D02*
X186000000Y-95800000D01*
X186000000Y-95800000D02*
X186000000Y-95190000D01*
X182440000Y-96500000D02*
X183050000Y-96500000D01*
X182440000Y-97800000D02*
X183050000Y-97800000D01*
X188560000Y-96500000D02*
X187950000Y-96500000D01*
X188560000Y-97800000D02*
X187950000Y-97800000D01*
X185400000Y-99300000D02*
X185400000Y-98800000D01*
X185400000Y-98800000D02*
X185600000Y-98800000D01*
X185600000Y-98800000D02*
X185600000Y-99300000D01*
X185500000Y-99300000D02*
X185500000Y-98800000D01*
X183390000Y-94890000D02*
X182140000Y-94890000D01*
X182140000Y-94890000D02*
X182140000Y-96140000D01*
X167546267Y-125510000D02*
X167203733Y-125510000D01*
X167546267Y-124490000D02*
X167203733Y-124490000D01*
X129046267Y-125510000D02*
X128703733Y-125510000D01*
X129046267Y-124490000D02*
X128703733Y-124490000D01*
X167546267Y-88010000D02*
X167203733Y-88010000D01*
X167546267Y-86990000D02*
X167203733Y-86990000D01*
X175328733Y-124490000D02*
X175671267Y-124490000D01*
X175328733Y-125510000D02*
X175671267Y-125510000D01*
X136828733Y-124490000D02*
X137171267Y-124490000D01*
X136828733Y-125510000D02*
X137171267Y-125510000D01*
X175328733Y-86990000D02*
X175671267Y-86990000D01*
X175328733Y-88010000D02*
X175671267Y-88010000D01*
X170690000Y-148560000D02*
X175410000Y-148560000D01*
X175410000Y-148560000D02*
X175410000Y-142440000D01*
X175410000Y-142440000D02*
X170690000Y-142440000D01*
X170690000Y-142440000D02*
X170690000Y-148560000D01*
X170690000Y-146800000D02*
X170490000Y-146800000D01*
X170490000Y-146800000D02*
X170490000Y-147100000D01*
X170490000Y-147100000D02*
X170690000Y-147100000D01*
X170590000Y-146800000D02*
X170590000Y-147100000D01*
X170690000Y-146000000D02*
X171300000Y-146000000D01*
X171300000Y-146000000D02*
X171300000Y-147950000D01*
X171300000Y-147950000D02*
X174800000Y-147950000D01*
X174800000Y-147950000D02*
X174800000Y-143050000D01*
X174800000Y-143050000D02*
X171300000Y-143050000D01*
X171300000Y-143050000D02*
X171300000Y-145000000D01*
X171300000Y-145000000D02*
X170690000Y-145000000D01*
X172000000Y-148560000D02*
X172000000Y-147950000D01*
X173300000Y-148560000D02*
X173300000Y-147950000D01*
X172000000Y-142440000D02*
X172000000Y-143050000D01*
X173300000Y-142440000D02*
X173300000Y-143050000D01*
X174800000Y-145600000D02*
X174300000Y-145600000D01*
X174300000Y-145600000D02*
X174300000Y-145400000D01*
X174300000Y-145400000D02*
X174800000Y-145400000D01*
X174800000Y-145500000D02*
X174300000Y-145500000D01*
X170390000Y-147610000D02*
X170390000Y-148860000D01*
X170390000Y-148860000D02*
X171640000Y-148860000D01*
X132190000Y-148560000D02*
X136910000Y-148560000D01*
X136910000Y-148560000D02*
X136910000Y-142440000D01*
X136910000Y-142440000D02*
X132190000Y-142440000D01*
X132190000Y-142440000D02*
X132190000Y-148560000D01*
X132190000Y-146800000D02*
X131990000Y-146800000D01*
X131990000Y-146800000D02*
X131990000Y-147100000D01*
X131990000Y-147100000D02*
X132190000Y-147100000D01*
X132090000Y-146800000D02*
X132090000Y-147100000D01*
X132190000Y-146000000D02*
X132800000Y-146000000D01*
X132800000Y-146000000D02*
X132800000Y-147950000D01*
X132800000Y-147950000D02*
X136300000Y-147950000D01*
X136300000Y-147950000D02*
X136300000Y-143050000D01*
X136300000Y-143050000D02*
X132800000Y-143050000D01*
X132800000Y-143050000D02*
X132800000Y-145000000D01*
X132800000Y-145000000D02*
X132190000Y-145000000D01*
X133500000Y-148560000D02*
X133500000Y-147950000D01*
X134800000Y-148560000D02*
X134800000Y-147950000D01*
X133500000Y-142440000D02*
X133500000Y-143050000D01*
X134800000Y-142440000D02*
X134800000Y-143050000D01*
X136300000Y-145600000D02*
X135800000Y-145600000D01*
X135800000Y-145600000D02*
X135800000Y-145400000D01*
X135800000Y-145400000D02*
X136300000Y-145400000D01*
X136300000Y-145500000D02*
X135800000Y-145500000D01*
X131890000Y-147610000D02*
X131890000Y-148860000D01*
X131890000Y-148860000D02*
X133140000Y-148860000D01*
X170690000Y-111060000D02*
X175410000Y-111060000D01*
X175410000Y-111060000D02*
X175410000Y-104940000D01*
X175410000Y-104940000D02*
X170690000Y-104940000D01*
X170690000Y-104940000D02*
X170690000Y-111060000D01*
X170690000Y-109300000D02*
X170490000Y-109300000D01*
X170490000Y-109300000D02*
X170490000Y-109600000D01*
X170490000Y-109600000D02*
X170690000Y-109600000D01*
X170590000Y-109300000D02*
X170590000Y-109600000D01*
X170690000Y-108500000D02*
X171300000Y-108500000D01*
X171300000Y-108500000D02*
X171300000Y-110450000D01*
X171300000Y-110450000D02*
X174800000Y-110450000D01*
X174800000Y-110450000D02*
X174800000Y-105550000D01*
X174800000Y-105550000D02*
X171300000Y-105550000D01*
X171300000Y-105550000D02*
X171300000Y-107500000D01*
X171300000Y-107500000D02*
X170690000Y-107500000D01*
X172000000Y-111060000D02*
X172000000Y-110450000D01*
X173300000Y-111060000D02*
X173300000Y-110450000D01*
X172000000Y-104940000D02*
X172000000Y-105550000D01*
X173300000Y-104940000D02*
X173300000Y-105550000D01*
X174800000Y-108100000D02*
X174300000Y-108100000D01*
X174300000Y-108100000D02*
X174300000Y-107900000D01*
X174300000Y-107900000D02*
X174800000Y-107900000D01*
X174800000Y-108000000D02*
X174300000Y-108000000D01*
X170390000Y-110110000D02*
X170390000Y-111360000D01*
X170390000Y-111360000D02*
X171640000Y-111360000D01*
X182440000Y-121690000D02*
X182440000Y-126410000D01*
X182440000Y-126410000D02*
X188560000Y-126410000D01*
X188560000Y-126410000D02*
X188560000Y-121690000D01*
X188560000Y-121690000D02*
X182440000Y-121690000D01*
X184200000Y-121690000D02*
X184200000Y-121490000D01*
X184200000Y-121490000D02*
X183900000Y-121490000D01*
X183900000Y-121490000D02*
X183900000Y-121690000D01*
X184200000Y-121590000D02*
X183900000Y-121590000D01*
X185000000Y-121690000D02*
X185000000Y-122300000D01*
X185000000Y-122300000D02*
X183050000Y-122300000D01*
X183050000Y-122300000D02*
X183050000Y-125800000D01*
X183050000Y-125800000D02*
X187950000Y-125800000D01*
X187950000Y-125800000D02*
X187950000Y-122300000D01*
X187950000Y-122300000D02*
X186000000Y-122300000D01*
X186000000Y-122300000D02*
X186000000Y-121690000D01*
X182440000Y-123000000D02*
X183050000Y-123000000D01*
X182440000Y-124300000D02*
X183050000Y-124300000D01*
X188560000Y-123000000D02*
X187950000Y-123000000D01*
X188560000Y-124300000D02*
X187950000Y-124300000D01*
X185400000Y-125800000D02*
X185400000Y-125300000D01*
X185400000Y-125300000D02*
X185600000Y-125300000D01*
X185600000Y-125300000D02*
X185600000Y-125800000D01*
X185500000Y-125800000D02*
X185500000Y-125300000D01*
X183390000Y-121390000D02*
X182140000Y-121390000D01*
X182140000Y-121390000D02*
X182140000Y-122640000D01*
X143940000Y-121690000D02*
X143940000Y-126410000D01*
X143940000Y-126410000D02*
X150060000Y-126410000D01*
X150060000Y-126410000D02*
X150060000Y-121690000D01*
X150060000Y-121690000D02*
X143940000Y-121690000D01*
X145700000Y-121690000D02*
X145700000Y-121490000D01*
X145700000Y-121490000D02*
X145400000Y-121490000D01*
X145400000Y-121490000D02*
X145400000Y-121690000D01*
X145700000Y-121590000D02*
X145400000Y-121590000D01*
X146500000Y-121690000D02*
X146500000Y-122300000D01*
X146500000Y-122300000D02*
X144550000Y-122300000D01*
X144550000Y-122300000D02*
X144550000Y-125800000D01*
X144550000Y-125800000D02*
X149450000Y-125800000D01*
X149450000Y-125800000D02*
X149450000Y-122300000D01*
X149450000Y-122300000D02*
X147500000Y-122300000D01*
X147500000Y-122300000D02*
X147500000Y-121690000D01*
X143940000Y-123000000D02*
X144550000Y-123000000D01*
X143940000Y-124300000D02*
X144550000Y-124300000D01*
X150060000Y-123000000D02*
X149450000Y-123000000D01*
X150060000Y-124300000D02*
X149450000Y-124300000D01*
X146900000Y-125800000D02*
X146900000Y-125300000D01*
X146900000Y-125300000D02*
X147100000Y-125300000D01*
X147100000Y-125300000D02*
X147100000Y-125800000D01*
X147000000Y-125800000D02*
X147000000Y-125300000D01*
X144890000Y-121390000D02*
X143640000Y-121390000D01*
X143640000Y-121390000D02*
X143640000Y-122640000D01*
X182440000Y-84190000D02*
X182440000Y-88910000D01*
X182440000Y-88910000D02*
X188560000Y-88910000D01*
X188560000Y-88910000D02*
X188560000Y-84190000D01*
X188560000Y-84190000D02*
X182440000Y-84190000D01*
X184200000Y-84190000D02*
X184200000Y-83990000D01*
X184200000Y-83990000D02*
X183900000Y-83990000D01*
X183900000Y-83990000D02*
X183900000Y-84190000D01*
X184200000Y-84090000D02*
X183900000Y-84090000D01*
X185000000Y-84190000D02*
X185000000Y-84800000D01*
X185000000Y-84800000D02*
X183050000Y-84800000D01*
X183050000Y-84800000D02*
X183050000Y-88300000D01*
X183050000Y-88300000D02*
X187950000Y-88300000D01*
X187950000Y-88300000D02*
X187950000Y-84800000D01*
X187950000Y-84800000D02*
X186000000Y-84800000D01*
X186000000Y-84800000D02*
X186000000Y-84190000D01*
X182440000Y-85500000D02*
X183050000Y-85500000D01*
X182440000Y-86800000D02*
X183050000Y-86800000D01*
X188560000Y-85500000D02*
X187950000Y-85500000D01*
X188560000Y-86800000D02*
X187950000Y-86800000D01*
X185400000Y-88300000D02*
X185400000Y-87800000D01*
X185400000Y-87800000D02*
X185600000Y-87800000D01*
X185600000Y-87800000D02*
X185600000Y-88300000D01*
X185500000Y-88300000D02*
X185500000Y-87800000D01*
X183390000Y-83890000D02*
X182140000Y-83890000D01*
X182140000Y-83890000D02*
X182140000Y-85140000D01*
D10*
X163825000Y-126845000D02*
X176015000Y-126845000D01*
X176015000Y-126845000D02*
X176015000Y-139035000D01*
X176015000Y-139035000D02*
X163825000Y-139035000D01*
X163825000Y-139035000D02*
X163825000Y-126845000D01*
X125325000Y-126845000D02*
X137515000Y-126845000D01*
X137515000Y-126845000D02*
X137515000Y-139035000D01*
X137515000Y-139035000D02*
X125325000Y-139035000D01*
X125325000Y-139035000D02*
X125325000Y-126845000D01*
X163825000Y-89345000D02*
X176015000Y-89345000D01*
X176015000Y-89345000D02*
X176015000Y-101535000D01*
X176015000Y-101535000D02*
X163825000Y-101535000D01*
X163825000Y-101535000D02*
X163825000Y-89345000D01*
D12*
X182440000Y-138190000D02*
X182440000Y-142910000D01*
X182440000Y-142910000D02*
X188560000Y-142910000D01*
X188560000Y-142910000D02*
X188560000Y-138190000D01*
X188560000Y-138190000D02*
X182440000Y-138190000D01*
X184200000Y-138190000D02*
X184200000Y-137990000D01*
X184200000Y-137990000D02*
X183900000Y-137990000D01*
X183900000Y-137990000D02*
X183900000Y-138190000D01*
X184200000Y-138090000D02*
X183900000Y-138090000D01*
X185000000Y-138190000D02*
X185000000Y-138800000D01*
X185000000Y-138800000D02*
X183050000Y-138800000D01*
X183050000Y-138800000D02*
X183050000Y-142300000D01*
X183050000Y-142300000D02*
X187950000Y-142300000D01*
X187950000Y-142300000D02*
X187950000Y-138800000D01*
X187950000Y-138800000D02*
X186000000Y-138800000D01*
X186000000Y-138800000D02*
X186000000Y-138190000D01*
X182440000Y-139500000D02*
X183050000Y-139500000D01*
X182440000Y-140800000D02*
X183050000Y-140800000D01*
X188560000Y-139500000D02*
X187950000Y-139500000D01*
X188560000Y-140800000D02*
X187950000Y-140800000D01*
X185400000Y-142300000D02*
X185400000Y-141800000D01*
X185400000Y-141800000D02*
X185600000Y-141800000D01*
X185600000Y-141800000D02*
X185600000Y-142300000D01*
X185500000Y-142300000D02*
X185500000Y-141800000D01*
X183390000Y-137890000D02*
X182140000Y-137890000D01*
X182140000Y-137890000D02*
X182140000Y-139140000D01*
X143940000Y-138190000D02*
X143940000Y-142910000D01*
X143940000Y-142910000D02*
X150060000Y-142910000D01*
X150060000Y-142910000D02*
X150060000Y-138190000D01*
X150060000Y-138190000D02*
X143940000Y-138190000D01*
X145700000Y-138190000D02*
X145700000Y-137990000D01*
X145700000Y-137990000D02*
X145400000Y-137990000D01*
X145400000Y-137990000D02*
X145400000Y-138190000D01*
X145700000Y-138090000D02*
X145400000Y-138090000D01*
X146500000Y-138190000D02*
X146500000Y-138800000D01*
X146500000Y-138800000D02*
X144550000Y-138800000D01*
X144550000Y-138800000D02*
X144550000Y-142300000D01*
X144550000Y-142300000D02*
X149450000Y-142300000D01*
X149450000Y-142300000D02*
X149450000Y-138800000D01*
X149450000Y-138800000D02*
X147500000Y-138800000D01*
X147500000Y-138800000D02*
X147500000Y-138190000D01*
X143940000Y-139500000D02*
X144550000Y-139500000D01*
X143940000Y-140800000D02*
X144550000Y-140800000D01*
X150060000Y-139500000D02*
X149450000Y-139500000D01*
X150060000Y-140800000D02*
X149450000Y-140800000D01*
X146900000Y-142300000D02*
X146900000Y-141800000D01*
X146900000Y-141800000D02*
X147100000Y-141800000D01*
X147100000Y-141800000D02*
X147100000Y-142300000D01*
X147000000Y-142300000D02*
X147000000Y-141800000D01*
X144890000Y-137890000D02*
X143640000Y-137890000D01*
X143640000Y-137890000D02*
X143640000Y-139140000D01*
X182440000Y-100690000D02*
X182440000Y-105410000D01*
X182440000Y-105410000D02*
X188560000Y-105410000D01*
X188560000Y-105410000D02*
X188560000Y-100690000D01*
X188560000Y-100690000D02*
X182440000Y-100690000D01*
X184200000Y-100690000D02*
X184200000Y-100490000D01*
X184200000Y-100490000D02*
X183900000Y-100490000D01*
X183900000Y-100490000D02*
X183900000Y-100690000D01*
X184200000Y-100590000D02*
X183900000Y-100590000D01*
X185000000Y-100690000D02*
X185000000Y-101300000D01*
X185000000Y-101300000D02*
X183050000Y-101300000D01*
X183050000Y-101300000D02*
X183050000Y-104800000D01*
X183050000Y-104800000D02*
X187950000Y-104800000D01*
X187950000Y-104800000D02*
X187950000Y-101300000D01*
X187950000Y-101300000D02*
X186000000Y-101300000D01*
X186000000Y-101300000D02*
X186000000Y-100690000D01*
X182440000Y-102000000D02*
X183050000Y-102000000D01*
X182440000Y-103300000D02*
X183050000Y-103300000D01*
X188560000Y-102000000D02*
X187950000Y-102000000D01*
X188560000Y-103300000D02*
X187950000Y-103300000D01*
X185400000Y-104800000D02*
X185400000Y-104300000D01*
X185400000Y-104300000D02*
X185600000Y-104300000D01*
X185600000Y-104300000D02*
X185600000Y-104800000D01*
X185500000Y-104800000D02*
X185500000Y-104300000D01*
X183390000Y-100390000D02*
X182140000Y-100390000D01*
X182140000Y-100390000D02*
X182140000Y-101640000D01*
X163010000Y-132203733D02*
X163010000Y-132546267D01*
X161990000Y-132203733D02*
X161990000Y-132546267D01*
X124510000Y-132203733D02*
X124510000Y-132546267D01*
X123490000Y-132203733D02*
X123490000Y-132546267D01*
X163010000Y-94703733D02*
X163010000Y-95046267D01*
X161990000Y-94703733D02*
X161990000Y-95046267D01*
X150790000Y-134510000D02*
X150790000Y-125790000D01*
X150790000Y-125790000D02*
X156210000Y-125790000D01*
X156210000Y-134510000D02*
X156210000Y-125790000D01*
X152090000Y-136210000D02*
X150790000Y-134510000D01*
X154910000Y-136210000D02*
X156210000Y-134510000D01*
X152090000Y-136210000D02*
X154910000Y-136210000D01*
X112290000Y-134510000D02*
X112290000Y-125790000D01*
X112290000Y-125790000D02*
X117710000Y-125790000D01*
X117710000Y-134510000D02*
X117710000Y-125790000D01*
X113590000Y-136210000D02*
X112290000Y-134510000D01*
X116410000Y-136210000D02*
X117710000Y-134510000D01*
X113590000Y-136210000D02*
X116410000Y-136210000D01*
X150790000Y-97010000D02*
X150790000Y-88290000D01*
X150790000Y-88290000D02*
X156210000Y-88290000D01*
X156210000Y-97010000D02*
X156210000Y-88290000D01*
X152090000Y-98710000D02*
X150790000Y-97010000D01*
X154910000Y-98710000D02*
X156210000Y-97010000D01*
X152090000Y-98710000D02*
X154910000Y-98710000D01*
X157290000Y-120510000D02*
X157290000Y-111790000D01*
X157290000Y-111790000D02*
X162710000Y-111790000D01*
X162710000Y-120510000D02*
X162710000Y-111790000D01*
X158590000Y-122210000D02*
X157290000Y-120510000D01*
X161410000Y-122210000D02*
X162710000Y-120510000D01*
X158590000Y-122210000D02*
X161410000Y-122210000D01*
X118790000Y-120510000D02*
X118790000Y-111790000D01*
X118790000Y-111790000D02*
X124210000Y-111790000D01*
X124210000Y-120510000D02*
X124210000Y-111790000D01*
X120090000Y-122210000D02*
X118790000Y-120510000D01*
X122910000Y-122210000D02*
X124210000Y-120510000D01*
X120090000Y-122210000D02*
X122910000Y-122210000D01*
X157290000Y-83010000D02*
X157290000Y-74290000D01*
X157290000Y-74290000D02*
X162710000Y-74290000D01*
X162710000Y-83010000D02*
X162710000Y-74290000D01*
X158590000Y-84710000D02*
X157290000Y-83010000D01*
X161410000Y-84710000D02*
X162710000Y-83010000D01*
X158590000Y-84710000D02*
X161410000Y-84710000D01*
X170290000Y-120510000D02*
X170290000Y-111790000D01*
X170290000Y-111790000D02*
X175710000Y-111790000D01*
X175710000Y-120510000D02*
X175710000Y-111790000D01*
X171590000Y-122210000D02*
X170290000Y-120510000D01*
X174410000Y-122210000D02*
X175710000Y-120510000D01*
X171590000Y-122210000D02*
X174410000Y-122210000D01*
X131790000Y-120510000D02*
X131790000Y-111790000D01*
X131790000Y-111790000D02*
X137210000Y-111790000D01*
X137210000Y-120510000D02*
X137210000Y-111790000D01*
X133090000Y-122210000D02*
X131790000Y-120510000D01*
X135910000Y-122210000D02*
X137210000Y-120510000D01*
X133090000Y-122210000D02*
X135910000Y-122210000D01*
X170290000Y-83010000D02*
X170290000Y-74290000D01*
X170290000Y-74290000D02*
X175710000Y-74290000D01*
X175710000Y-83010000D02*
X175710000Y-74290000D01*
X171590000Y-84710000D02*
X170290000Y-83010000D01*
X174410000Y-84710000D02*
X175710000Y-83010000D01*
X171590000Y-84710000D02*
X174410000Y-84710000D01*
X176990000Y-128796267D02*
X176990000Y-128453733D01*
X178010000Y-128796267D02*
X178010000Y-128453733D01*
X138490000Y-128796267D02*
X138490000Y-128453733D01*
X139510000Y-128796267D02*
X139510000Y-128453733D01*
X176990000Y-91296267D02*
X176990000Y-90953733D01*
X178010000Y-91296267D02*
X178010000Y-90953733D01*
X161010000Y-132203733D02*
X161010000Y-132546267D01*
X159990000Y-132203733D02*
X159990000Y-132546267D01*
X122510000Y-132203733D02*
X122510000Y-132546267D01*
X121490000Y-132203733D02*
X121490000Y-132546267D01*
X161010000Y-94703733D02*
X161010000Y-95046267D01*
X159990000Y-94703733D02*
X159990000Y-95046267D01*
X161671267Y-139510000D02*
X161328733Y-139510000D01*
X161671267Y-138490000D02*
X161328733Y-138490000D01*
X123171267Y-139510000D02*
X122828733Y-139510000D01*
X123171267Y-138490000D02*
X122828733Y-138490000D01*
X161671267Y-102010000D02*
X161328733Y-102010000D01*
X161671267Y-100990000D02*
X161328733Y-100990000D01*
X176790000Y-120510000D02*
X176790000Y-111790000D01*
X176790000Y-111790000D02*
X182210000Y-111790000D01*
X182210000Y-120510000D02*
X182210000Y-111790000D01*
X178090000Y-122210000D02*
X176790000Y-120510000D01*
X180910000Y-122210000D02*
X182210000Y-120510000D01*
X178090000Y-122210000D02*
X180910000Y-122210000D01*
X138290000Y-120510000D02*
X138290000Y-111790000D01*
X138290000Y-111790000D02*
X143710000Y-111790000D01*
X143710000Y-120510000D02*
X143710000Y-111790000D01*
X139590000Y-122210000D02*
X138290000Y-120510000D01*
X142410000Y-122210000D02*
X143710000Y-120510000D01*
X139590000Y-122210000D02*
X142410000Y-122210000D01*
X176790000Y-83010000D02*
X176790000Y-74290000D01*
X176790000Y-74290000D02*
X182210000Y-74290000D01*
X182210000Y-83010000D02*
X182210000Y-74290000D01*
X178090000Y-84710000D02*
X176790000Y-83010000D01*
X180910000Y-84710000D02*
X182210000Y-83010000D01*
X178090000Y-84710000D02*
X180910000Y-84710000D01*
X139590000Y-84710000D02*
X142410000Y-84710000D01*
X142410000Y-84710000D02*
X143710000Y-83010000D01*
X139590000Y-84710000D02*
X138290000Y-83010000D01*
X143710000Y-83010000D02*
X143710000Y-74290000D01*
X138290000Y-74290000D02*
X143710000Y-74290000D01*
X138290000Y-83010000D02*
X138290000Y-74290000D01*
X133090000Y-84710000D02*
X135910000Y-84710000D01*
X135910000Y-84710000D02*
X137210000Y-83010000D01*
X133090000Y-84710000D02*
X131790000Y-83010000D01*
X137210000Y-83010000D02*
X137210000Y-74290000D01*
X131790000Y-74290000D02*
X137210000Y-74290000D01*
X131790000Y-83010000D02*
X131790000Y-74290000D01*
X120090000Y-84710000D02*
X122910000Y-84710000D01*
X122910000Y-84710000D02*
X124210000Y-83010000D01*
X120090000Y-84710000D02*
X118790000Y-83010000D01*
X124210000Y-83010000D02*
X124210000Y-74290000D01*
X118790000Y-74290000D02*
X124210000Y-74290000D01*
X118790000Y-83010000D02*
X118790000Y-74290000D01*
X126590000Y-84710000D02*
X129410000Y-84710000D01*
X129410000Y-84710000D02*
X130710000Y-83010000D01*
X126590000Y-84710000D02*
X125290000Y-83010000D01*
X130710000Y-83010000D02*
X130710000Y-74290000D01*
X125290000Y-74290000D02*
X130710000Y-74290000D01*
X125290000Y-83010000D02*
X125290000Y-74290000D01*
X113590000Y-98710000D02*
X116410000Y-98710000D01*
X116410000Y-98710000D02*
X117710000Y-97010000D01*
X113590000Y-98710000D02*
X112290000Y-97010000D01*
X117710000Y-97010000D02*
X117710000Y-88290000D01*
X112290000Y-88290000D02*
X117710000Y-88290000D01*
X112290000Y-97010000D02*
X112290000Y-88290000D01*
D10*
X125325000Y-101535000D02*
X125325000Y-89345000D01*
X137515000Y-101535000D02*
X125325000Y-101535000D01*
X137515000Y-89345000D02*
X137515000Y-101535000D01*
X125325000Y-89345000D02*
X137515000Y-89345000D01*
D12*
X129046267Y-86990000D02*
X128703733Y-86990000D01*
X129046267Y-88010000D02*
X128703733Y-88010000D01*
X135296267Y-102490000D02*
X134953733Y-102490000D01*
X135296267Y-103510000D02*
X134953733Y-103510000D01*
X136828733Y-88010000D02*
X137171267Y-88010000D01*
X136828733Y-86990000D02*
X137171267Y-86990000D01*
X123171267Y-100990000D02*
X122828733Y-100990000D01*
X123171267Y-102010000D02*
X122828733Y-102010000D01*
X123490000Y-94703733D02*
X123490000Y-95046267D01*
X124510000Y-94703733D02*
X124510000Y-95046267D01*
X143640000Y-100390000D02*
X143640000Y-101640000D01*
X144890000Y-100390000D02*
X143640000Y-100390000D01*
X147000000Y-104800000D02*
X147000000Y-104300000D01*
X147100000Y-104300000D02*
X147100000Y-104800000D01*
X146900000Y-104300000D02*
X147100000Y-104300000D01*
X146900000Y-104800000D02*
X146900000Y-104300000D01*
X150060000Y-103300000D02*
X149450000Y-103300000D01*
X150060000Y-102000000D02*
X149450000Y-102000000D01*
X143940000Y-103300000D02*
X144550000Y-103300000D01*
X143940000Y-102000000D02*
X144550000Y-102000000D01*
X147500000Y-101300000D02*
X147500000Y-100690000D01*
X149450000Y-101300000D02*
X147500000Y-101300000D01*
X149450000Y-104800000D02*
X149450000Y-101300000D01*
X144550000Y-104800000D02*
X149450000Y-104800000D01*
X144550000Y-101300000D02*
X144550000Y-104800000D01*
X146500000Y-101300000D02*
X144550000Y-101300000D01*
X146500000Y-100690000D02*
X146500000Y-101300000D01*
X145700000Y-100590000D02*
X145400000Y-100590000D01*
X145400000Y-100490000D02*
X145400000Y-100690000D01*
X145700000Y-100490000D02*
X145400000Y-100490000D01*
X145700000Y-100690000D02*
X145700000Y-100490000D01*
X150060000Y-100690000D02*
X143940000Y-100690000D01*
X150060000Y-105410000D02*
X150060000Y-100690000D01*
X143940000Y-105410000D02*
X150060000Y-105410000D01*
X143940000Y-100690000D02*
X143940000Y-105410000D01*
X143640000Y-83890000D02*
X143640000Y-85140000D01*
X144890000Y-83890000D02*
X143640000Y-83890000D01*
X147000000Y-88300000D02*
X147000000Y-87800000D01*
X147100000Y-87800000D02*
X147100000Y-88300000D01*
X146900000Y-87800000D02*
X147100000Y-87800000D01*
X146900000Y-88300000D02*
X146900000Y-87800000D01*
X150060000Y-86800000D02*
X149450000Y-86800000D01*
X150060000Y-85500000D02*
X149450000Y-85500000D01*
X143940000Y-86800000D02*
X144550000Y-86800000D01*
X143940000Y-85500000D02*
X144550000Y-85500000D01*
X147500000Y-84800000D02*
X147500000Y-84190000D01*
X149450000Y-84800000D02*
X147500000Y-84800000D01*
X149450000Y-88300000D02*
X149450000Y-84800000D01*
X144550000Y-88300000D02*
X149450000Y-88300000D01*
X144550000Y-84800000D02*
X144550000Y-88300000D01*
X146500000Y-84800000D02*
X144550000Y-84800000D01*
X146500000Y-84190000D02*
X146500000Y-84800000D01*
X145700000Y-84090000D02*
X145400000Y-84090000D01*
X145400000Y-83990000D02*
X145400000Y-84190000D01*
X145700000Y-83990000D02*
X145400000Y-83990000D01*
X145700000Y-84190000D02*
X145700000Y-83990000D01*
X150060000Y-84190000D02*
X143940000Y-84190000D01*
X150060000Y-88910000D02*
X150060000Y-84190000D01*
X143940000Y-88910000D02*
X150060000Y-88910000D01*
X143940000Y-84190000D02*
X143940000Y-88910000D01*
X137390000Y-111360000D02*
X138640000Y-111360000D01*
X137390000Y-110110000D02*
X137390000Y-111360000D01*
X141800000Y-108000000D02*
X141300000Y-108000000D01*
X141300000Y-107900000D02*
X141800000Y-107900000D01*
X141300000Y-108100000D02*
X141300000Y-107900000D01*
X141800000Y-108100000D02*
X141300000Y-108100000D01*
X140300000Y-104940000D02*
X140300000Y-105550000D01*
X139000000Y-104940000D02*
X139000000Y-105550000D01*
X140300000Y-111060000D02*
X140300000Y-110450000D01*
X139000000Y-111060000D02*
X139000000Y-110450000D01*
X138300000Y-107500000D02*
X137690000Y-107500000D01*
X138300000Y-105550000D02*
X138300000Y-107500000D01*
X141800000Y-105550000D02*
X138300000Y-105550000D01*
X141800000Y-110450000D02*
X141800000Y-105550000D01*
X138300000Y-110450000D02*
X141800000Y-110450000D01*
X138300000Y-108500000D02*
X138300000Y-110450000D01*
X137690000Y-108500000D02*
X138300000Y-108500000D01*
X137590000Y-109300000D02*
X137590000Y-109600000D01*
X137490000Y-109600000D02*
X137690000Y-109600000D01*
X137490000Y-109300000D02*
X137490000Y-109600000D01*
X137690000Y-109300000D02*
X137490000Y-109300000D01*
X137690000Y-104940000D02*
X137690000Y-111060000D01*
X142410000Y-104940000D02*
X137690000Y-104940000D01*
X142410000Y-111060000D02*
X142410000Y-104940000D01*
X137690000Y-111060000D02*
X142410000Y-111060000D01*
X131890000Y-111360000D02*
X133140000Y-111360000D01*
X131890000Y-110110000D02*
X131890000Y-111360000D01*
X136300000Y-108000000D02*
X135800000Y-108000000D01*
X135800000Y-107900000D02*
X136300000Y-107900000D01*
X135800000Y-108100000D02*
X135800000Y-107900000D01*
X136300000Y-108100000D02*
X135800000Y-108100000D01*
X134800000Y-104940000D02*
X134800000Y-105550000D01*
X133500000Y-104940000D02*
X133500000Y-105550000D01*
X134800000Y-111060000D02*
X134800000Y-110450000D01*
X133500000Y-111060000D02*
X133500000Y-110450000D01*
X132800000Y-107500000D02*
X132190000Y-107500000D01*
X132800000Y-105550000D02*
X132800000Y-107500000D01*
X136300000Y-105550000D02*
X132800000Y-105550000D01*
X136300000Y-110450000D02*
X136300000Y-105550000D01*
X132800000Y-110450000D02*
X136300000Y-110450000D01*
X132800000Y-108500000D02*
X132800000Y-110450000D01*
X132190000Y-108500000D02*
X132800000Y-108500000D01*
X132090000Y-109300000D02*
X132090000Y-109600000D01*
X131990000Y-109600000D02*
X132190000Y-109600000D01*
X131990000Y-109300000D02*
X131990000Y-109600000D01*
X132190000Y-109300000D02*
X131990000Y-109300000D01*
X132190000Y-104940000D02*
X132190000Y-111060000D01*
X136910000Y-104940000D02*
X132190000Y-104940000D01*
X136910000Y-111060000D02*
X136910000Y-104940000D01*
X132190000Y-111060000D02*
X136910000Y-111060000D01*
X143640000Y-94890000D02*
X143640000Y-96140000D01*
X144890000Y-94890000D02*
X143640000Y-94890000D01*
X147000000Y-99300000D02*
X147000000Y-98800000D01*
X147100000Y-98800000D02*
X147100000Y-99300000D01*
X146900000Y-98800000D02*
X147100000Y-98800000D01*
X146900000Y-99300000D02*
X146900000Y-98800000D01*
X150060000Y-97800000D02*
X149450000Y-97800000D01*
X150060000Y-96500000D02*
X149450000Y-96500000D01*
X143940000Y-97800000D02*
X144550000Y-97800000D01*
X143940000Y-96500000D02*
X144550000Y-96500000D01*
X147500000Y-95800000D02*
X147500000Y-95190000D01*
X149450000Y-95800000D02*
X147500000Y-95800000D01*
X149450000Y-99300000D02*
X149450000Y-95800000D01*
X144550000Y-99300000D02*
X149450000Y-99300000D01*
X144550000Y-95800000D02*
X144550000Y-99300000D01*
X146500000Y-95800000D02*
X144550000Y-95800000D01*
X146500000Y-95190000D02*
X146500000Y-95800000D01*
X145700000Y-95090000D02*
X145400000Y-95090000D01*
X145400000Y-94990000D02*
X145400000Y-95190000D01*
X145700000Y-94990000D02*
X145400000Y-94990000D01*
X145700000Y-95190000D02*
X145700000Y-94990000D01*
X150060000Y-95190000D02*
X143940000Y-95190000D01*
X150060000Y-99910000D02*
X150060000Y-95190000D01*
X143940000Y-99910000D02*
X150060000Y-99910000D01*
X143940000Y-95190000D02*
X143940000Y-99910000D01*
X143640000Y-89390000D02*
X143640000Y-90640000D01*
X144890000Y-89390000D02*
X143640000Y-89390000D01*
X147000000Y-93800000D02*
X147000000Y-93300000D01*
X147100000Y-93300000D02*
X147100000Y-93800000D01*
X146900000Y-93300000D02*
X147100000Y-93300000D01*
X146900000Y-93800000D02*
X146900000Y-93300000D01*
X150060000Y-92300000D02*
X149450000Y-92300000D01*
X150060000Y-91000000D02*
X149450000Y-91000000D01*
X143940000Y-92300000D02*
X144550000Y-92300000D01*
X143940000Y-91000000D02*
X144550000Y-91000000D01*
X147500000Y-90300000D02*
X147500000Y-89690000D01*
X149450000Y-90300000D02*
X147500000Y-90300000D01*
X149450000Y-93800000D02*
X149450000Y-90300000D01*
X144550000Y-93800000D02*
X149450000Y-93800000D01*
X144550000Y-90300000D02*
X144550000Y-93800000D01*
X146500000Y-90300000D02*
X144550000Y-90300000D01*
X146500000Y-89690000D02*
X146500000Y-90300000D01*
X145700000Y-89590000D02*
X145400000Y-89590000D01*
X145400000Y-89490000D02*
X145400000Y-89690000D01*
X145700000Y-89490000D02*
X145400000Y-89490000D01*
X145700000Y-89690000D02*
X145700000Y-89490000D01*
X150060000Y-89690000D02*
X143940000Y-89690000D01*
X150060000Y-94410000D02*
X150060000Y-89690000D01*
X143940000Y-94410000D02*
X150060000Y-94410000D01*
X143940000Y-89690000D02*
X143940000Y-94410000D01*
X126250000Y-106650000D02*
X127450000Y-106650000D01*
X126250000Y-106350000D02*
X126250000Y-106650000D01*
X125500000Y-106350000D02*
X126250000Y-106350000D01*
X125500000Y-106650000D02*
X125500000Y-106350000D01*
X121250000Y-106650000D02*
X125500000Y-106650000D01*
X121250000Y-106350000D02*
X121250000Y-106650000D01*
X120500000Y-106350000D02*
X121250000Y-106350000D01*
X120500000Y-106650000D02*
X120500000Y-106350000D01*
X119300000Y-106650000D02*
X120500000Y-106650000D01*
X127450000Y-106650000D02*
X127450000Y-106200000D01*
X127750000Y-106650000D02*
X127450000Y-106650000D01*
X127750000Y-107750000D02*
X127750000Y-106650000D01*
X128050000Y-107750000D02*
X127750000Y-107750000D01*
X119300000Y-106650000D02*
X119300000Y-106200000D01*
X119000000Y-106650000D02*
X119300000Y-106650000D01*
X119000000Y-107750000D02*
X119000000Y-106650000D01*
X118700000Y-107750000D02*
X119000000Y-107750000D01*
X127750000Y-108500000D02*
X128050000Y-108500000D01*
X127750000Y-109500000D02*
X127750000Y-108500000D01*
X119000000Y-109500000D02*
X127750000Y-109500000D01*
X119000000Y-108500000D02*
X119000000Y-109500000D01*
X118700000Y-108500000D02*
X119000000Y-108500000D01*
X118390000Y-110110000D02*
X120300000Y-110110000D01*
X118390000Y-108200000D02*
X118390000Y-110110000D01*
X128050000Y-106200000D02*
X118700000Y-106200000D01*
X128050000Y-109800000D02*
X128050000Y-106200000D01*
X118700000Y-109800000D02*
X128050000Y-109800000D01*
X118700000Y-106200000D02*
X118700000Y-109800000D01*
X131215000Y-88235000D02*
X133675000Y-88235000D01*
X131215000Y-86765000D02*
X131215000Y-88235000D01*
X133675000Y-86765000D02*
X131215000Y-86765000D01*
X139510000Y-91296267D02*
X139510000Y-90953733D01*
X138490000Y-91296267D02*
X138490000Y-90953733D01*
X121490000Y-94703733D02*
X121490000Y-95046267D01*
X122510000Y-94703733D02*
X122510000Y-95046267D01*
D11*
X156536666Y-142952380D02*
X156536666Y-141952380D01*
X156917619Y-141952380D01*
X157012857Y-142000000D01*
X157060476Y-142047619D01*
X157108095Y-142142857D01*
X157108095Y-142285714D01*
X157060476Y-142380952D01*
X157012857Y-142428571D01*
X156917619Y-142476190D01*
X156536666Y-142476190D01*
X157536666Y-142952380D02*
X157536666Y-142285714D01*
X157536666Y-141952380D02*
X157489047Y-142000000D01*
X157536666Y-142047619D01*
X157584285Y-142000000D01*
X157536666Y-141952380D01*
X157536666Y-142047619D01*
X157917619Y-142952380D02*
X158441428Y-142285714D01*
X157917619Y-142285714D02*
X158441428Y-142952380D01*
X158822380Y-142952380D02*
X158822380Y-141952380D01*
X159250952Y-142952380D02*
X159250952Y-142428571D01*
X159203333Y-142333333D01*
X159108095Y-142285714D01*
X158965238Y-142285714D01*
X158870000Y-142333333D01*
X158822380Y-142380952D01*
X160155714Y-142952380D02*
X160155714Y-142428571D01*
X160108095Y-142333333D01*
X160012857Y-142285714D01*
X159822380Y-142285714D01*
X159727142Y-142333333D01*
X160155714Y-142904761D02*
X160060476Y-142952380D01*
X159822380Y-142952380D01*
X159727142Y-142904761D01*
X159679523Y-142809523D01*
X159679523Y-142714285D01*
X159727142Y-142619047D01*
X159822380Y-142571428D01*
X160060476Y-142571428D01*
X160155714Y-142523809D01*
X160536666Y-142285714D02*
X160727142Y-142952380D01*
X160917619Y-142476190D01*
X161108095Y-142952380D01*
X161298571Y-142285714D01*
X161679523Y-142952380D02*
X161679523Y-141952380D01*
X161774761Y-142571428D02*
X162060476Y-142952380D01*
X162060476Y-142285714D02*
X161679523Y-142666666D01*
X163250952Y-142952380D02*
X163250952Y-141952380D01*
X163631904Y-141952380D01*
X163727142Y-142000000D01*
X163774761Y-142047619D01*
X163822380Y-142142857D01*
X163822380Y-142285714D01*
X163774761Y-142380952D01*
X163727142Y-142428571D01*
X163631904Y-142476190D01*
X163250952Y-142476190D01*
X164393809Y-142952380D02*
X164298571Y-142904761D01*
X164250952Y-142857142D01*
X164203333Y-142761904D01*
X164203333Y-142476190D01*
X164250952Y-142380952D01*
X164298571Y-142333333D01*
X164393809Y-142285714D01*
X164536666Y-142285714D01*
X164631904Y-142333333D01*
X164679523Y-142380952D01*
X164727142Y-142476190D01*
X164727142Y-142761904D01*
X164679523Y-142857142D01*
X164631904Y-142904761D01*
X164536666Y-142952380D01*
X164393809Y-142952380D01*
X165060476Y-142285714D02*
X165250952Y-142952380D01*
X165441428Y-142476190D01*
X165631904Y-142952380D01*
X165822380Y-142285714D01*
X166584285Y-142904761D02*
X166489047Y-142952380D01*
X166298571Y-142952380D01*
X166203333Y-142904761D01*
X166155714Y-142809523D01*
X166155714Y-142428571D01*
X166203333Y-142333333D01*
X166298571Y-142285714D01*
X166489047Y-142285714D01*
X166584285Y-142333333D01*
X166631904Y-142428571D01*
X166631904Y-142523809D01*
X166155714Y-142619047D01*
X167060476Y-142952380D02*
X167060476Y-142285714D01*
X167060476Y-142476190D02*
X167108095Y-142380952D01*
X167155714Y-142333333D01*
X167250952Y-142285714D01*
X167346190Y-142285714D01*
X118036666Y-142952380D02*
X118036666Y-141952380D01*
X118417619Y-141952380D01*
X118512857Y-142000000D01*
X118560476Y-142047619D01*
X118608095Y-142142857D01*
X118608095Y-142285714D01*
X118560476Y-142380952D01*
X118512857Y-142428571D01*
X118417619Y-142476190D01*
X118036666Y-142476190D01*
X119036666Y-142952380D02*
X119036666Y-142285714D01*
X119036666Y-141952380D02*
X118989047Y-142000000D01*
X119036666Y-142047619D01*
X119084285Y-142000000D01*
X119036666Y-141952380D01*
X119036666Y-142047619D01*
X119417619Y-142952380D02*
X119941428Y-142285714D01*
X119417619Y-142285714D02*
X119941428Y-142952380D01*
X120322380Y-142952380D02*
X120322380Y-141952380D01*
X120750952Y-142952380D02*
X120750952Y-142428571D01*
X120703333Y-142333333D01*
X120608095Y-142285714D01*
X120465238Y-142285714D01*
X120370000Y-142333333D01*
X120322380Y-142380952D01*
X121655714Y-142952380D02*
X121655714Y-142428571D01*
X121608095Y-142333333D01*
X121512857Y-142285714D01*
X121322380Y-142285714D01*
X121227142Y-142333333D01*
X121655714Y-142904761D02*
X121560476Y-142952380D01*
X121322380Y-142952380D01*
X121227142Y-142904761D01*
X121179523Y-142809523D01*
X121179523Y-142714285D01*
X121227142Y-142619047D01*
X121322380Y-142571428D01*
X121560476Y-142571428D01*
X121655714Y-142523809D01*
X122036666Y-142285714D02*
X122227142Y-142952380D01*
X122417619Y-142476190D01*
X122608095Y-142952380D01*
X122798571Y-142285714D01*
X123179523Y-142952380D02*
X123179523Y-141952380D01*
X123274761Y-142571428D02*
X123560476Y-142952380D01*
X123560476Y-142285714D02*
X123179523Y-142666666D01*
X124750952Y-142952380D02*
X124750952Y-141952380D01*
X125131904Y-141952380D01*
X125227142Y-142000000D01*
X125274761Y-142047619D01*
X125322380Y-142142857D01*
X125322380Y-142285714D01*
X125274761Y-142380952D01*
X125227142Y-142428571D01*
X125131904Y-142476190D01*
X124750952Y-142476190D01*
X125893809Y-142952380D02*
X125798571Y-142904761D01*
X125750952Y-142857142D01*
X125703333Y-142761904D01*
X125703333Y-142476190D01*
X125750952Y-142380952D01*
X125798571Y-142333333D01*
X125893809Y-142285714D01*
X126036666Y-142285714D01*
X126131904Y-142333333D01*
X126179523Y-142380952D01*
X126227142Y-142476190D01*
X126227142Y-142761904D01*
X126179523Y-142857142D01*
X126131904Y-142904761D01*
X126036666Y-142952380D01*
X125893809Y-142952380D01*
X126560476Y-142285714D02*
X126750952Y-142952380D01*
X126941428Y-142476190D01*
X127131904Y-142952380D01*
X127322380Y-142285714D01*
X128084285Y-142904761D02*
X127989047Y-142952380D01*
X127798571Y-142952380D01*
X127703333Y-142904761D01*
X127655714Y-142809523D01*
X127655714Y-142428571D01*
X127703333Y-142333333D01*
X127798571Y-142285714D01*
X127989047Y-142285714D01*
X128084285Y-142333333D01*
X128131904Y-142428571D01*
X128131904Y-142523809D01*
X127655714Y-142619047D01*
X128560476Y-142952380D02*
X128560476Y-142285714D01*
X128560476Y-142476190D02*
X128608095Y-142380952D01*
X128655714Y-142333333D01*
X128750952Y-142285714D01*
X128846190Y-142285714D01*
X156536666Y-105452380D02*
X156536666Y-104452380D01*
X156917619Y-104452380D01*
X157012857Y-104500000D01*
X157060476Y-104547619D01*
X157108095Y-104642857D01*
X157108095Y-104785714D01*
X157060476Y-104880952D01*
X157012857Y-104928571D01*
X156917619Y-104976190D01*
X156536666Y-104976190D01*
X157536666Y-105452380D02*
X157536666Y-104785714D01*
X157536666Y-104452380D02*
X157489047Y-104500000D01*
X157536666Y-104547619D01*
X157584285Y-104500000D01*
X157536666Y-104452380D01*
X157536666Y-104547619D01*
X157917619Y-105452380D02*
X158441428Y-104785714D01*
X157917619Y-104785714D02*
X158441428Y-105452380D01*
X158822380Y-105452380D02*
X158822380Y-104452380D01*
X159250952Y-105452380D02*
X159250952Y-104928571D01*
X159203333Y-104833333D01*
X159108095Y-104785714D01*
X158965238Y-104785714D01*
X158870000Y-104833333D01*
X158822380Y-104880952D01*
X160155714Y-105452380D02*
X160155714Y-104928571D01*
X160108095Y-104833333D01*
X160012857Y-104785714D01*
X159822380Y-104785714D01*
X159727142Y-104833333D01*
X160155714Y-105404761D02*
X160060476Y-105452380D01*
X159822380Y-105452380D01*
X159727142Y-105404761D01*
X159679523Y-105309523D01*
X159679523Y-105214285D01*
X159727142Y-105119047D01*
X159822380Y-105071428D01*
X160060476Y-105071428D01*
X160155714Y-105023809D01*
X160536666Y-104785714D02*
X160727142Y-105452380D01*
X160917619Y-104976190D01*
X161108095Y-105452380D01*
X161298571Y-104785714D01*
X161679523Y-105452380D02*
X161679523Y-104452380D01*
X161774761Y-105071428D02*
X162060476Y-105452380D01*
X162060476Y-104785714D02*
X161679523Y-105166666D01*
X163250952Y-105452380D02*
X163250952Y-104452380D01*
X163631904Y-104452380D01*
X163727142Y-104500000D01*
X163774761Y-104547619D01*
X163822380Y-104642857D01*
X163822380Y-104785714D01*
X163774761Y-104880952D01*
X163727142Y-104928571D01*
X163631904Y-104976190D01*
X163250952Y-104976190D01*
X164393809Y-105452380D02*
X164298571Y-105404761D01*
X164250952Y-105357142D01*
X164203333Y-105261904D01*
X164203333Y-104976190D01*
X164250952Y-104880952D01*
X164298571Y-104833333D01*
X164393809Y-104785714D01*
X164536666Y-104785714D01*
X164631904Y-104833333D01*
X164679523Y-104880952D01*
X164727142Y-104976190D01*
X164727142Y-105261904D01*
X164679523Y-105357142D01*
X164631904Y-105404761D01*
X164536666Y-105452380D01*
X164393809Y-105452380D01*
X165060476Y-104785714D02*
X165250952Y-105452380D01*
X165441428Y-104976190D01*
X165631904Y-105452380D01*
X165822380Y-104785714D01*
X166584285Y-105404761D02*
X166489047Y-105452380D01*
X166298571Y-105452380D01*
X166203333Y-105404761D01*
X166155714Y-105309523D01*
X166155714Y-104928571D01*
X166203333Y-104833333D01*
X166298571Y-104785714D01*
X166489047Y-104785714D01*
X166584285Y-104833333D01*
X166631904Y-104928571D01*
X166631904Y-105023809D01*
X166155714Y-105119047D01*
X167060476Y-105452380D02*
X167060476Y-104785714D01*
X167060476Y-104976190D02*
X167108095Y-104880952D01*
X167155714Y-104833333D01*
X167250952Y-104785714D01*
X167346190Y-104785714D01*
X166607142Y-124071428D02*
X166607142Y-122928571D01*
X128107142Y-124071428D02*
X128107142Y-122928571D01*
X166607142Y-86571428D02*
X166607142Y-85428571D01*
X170333333Y-140952380D02*
X170000000Y-140476190D01*
X169761904Y-140952380D02*
X169761904Y-139952380D01*
X170142857Y-139952380D01*
X170238095Y-140000000D01*
X170285714Y-140047619D01*
X170333333Y-140142857D01*
X170333333Y-140285714D01*
X170285714Y-140380952D01*
X170238095Y-140428571D01*
X170142857Y-140476190D01*
X169761904Y-140476190D01*
X171190476Y-140285714D02*
X171190476Y-140952380D01*
X170952380Y-139904761D02*
X170714285Y-140619047D01*
X171333333Y-140619047D01*
X131833333Y-140952380D02*
X131500000Y-140476190D01*
X131261904Y-140952380D02*
X131261904Y-139952380D01*
X131642857Y-139952380D01*
X131738095Y-140000000D01*
X131785714Y-140047619D01*
X131833333Y-140142857D01*
X131833333Y-140285714D01*
X131785714Y-140380952D01*
X131738095Y-140428571D01*
X131642857Y-140476190D01*
X131261904Y-140476190D01*
X132690476Y-140285714D02*
X132690476Y-140952380D01*
X132452380Y-139904761D02*
X132214285Y-140619047D01*
X132833333Y-140619047D01*
X170333333Y-103452380D02*
X170000000Y-102976190D01*
X169761904Y-103452380D02*
X169761904Y-102452380D01*
X170142857Y-102452380D01*
X170238095Y-102500000D01*
X170285714Y-102547619D01*
X170333333Y-102642857D01*
X170333333Y-102785714D01*
X170285714Y-102880952D01*
X170238095Y-102928571D01*
X170142857Y-102976190D01*
X169761904Y-102976190D01*
X171190476Y-102785714D02*
X171190476Y-103452380D01*
X170952380Y-102404761D02*
X170714285Y-103119047D01*
X171333333Y-103119047D01*
X170636904Y-126952380D02*
X170636904Y-125952380D01*
X170875000Y-125952380D01*
X171017857Y-126000000D01*
X171113095Y-126095238D01*
X171160714Y-126190476D01*
X171208333Y-126380952D01*
X171208333Y-126523809D01*
X171160714Y-126714285D01*
X171113095Y-126809523D01*
X171017857Y-126904761D01*
X170875000Y-126952380D01*
X170636904Y-126952380D01*
X172160714Y-126952380D02*
X171589285Y-126952380D01*
X171875000Y-126952380D02*
X171875000Y-125952380D01*
X171779761Y-126095238D01*
X171684523Y-126190476D01*
X171589285Y-126238095D01*
X132136904Y-126952380D02*
X132136904Y-125952380D01*
X132375000Y-125952380D01*
X132517857Y-126000000D01*
X132613095Y-126095238D01*
X132660714Y-126190476D01*
X132708333Y-126380952D01*
X132708333Y-126523809D01*
X132660714Y-126714285D01*
X132613095Y-126809523D01*
X132517857Y-126904761D01*
X132375000Y-126952380D01*
X132136904Y-126952380D01*
X133660714Y-126952380D02*
X133089285Y-126952380D01*
X133375000Y-126952380D02*
X133375000Y-125952380D01*
X133279761Y-126095238D01*
X133184523Y-126190476D01*
X133089285Y-126238095D01*
X170636904Y-89452380D02*
X170636904Y-88452380D01*
X170875000Y-88452380D01*
X171017857Y-88500000D01*
X171113095Y-88595238D01*
X171160714Y-88690476D01*
X171208333Y-88880952D01*
X171208333Y-89023809D01*
X171160714Y-89214285D01*
X171113095Y-89309523D01*
X171017857Y-89404761D01*
X170875000Y-89452380D01*
X170636904Y-89452380D01*
X172160714Y-89452380D02*
X171589285Y-89452380D01*
X171875000Y-89452380D02*
X171875000Y-88452380D01*
X171779761Y-88595238D01*
X171684523Y-88690476D01*
X171589285Y-88738095D01*
X167333333Y-126952380D02*
X167000000Y-126476190D01*
X166761904Y-126952380D02*
X166761904Y-125952380D01*
X167142857Y-125952380D01*
X167238095Y-126000000D01*
X167285714Y-126047619D01*
X167333333Y-126142857D01*
X167333333Y-126285714D01*
X167285714Y-126380952D01*
X167238095Y-126428571D01*
X167142857Y-126476190D01*
X166761904Y-126476190D01*
X168238095Y-125952380D02*
X167761904Y-125952380D01*
X167714285Y-126428571D01*
X167761904Y-126380952D01*
X167857142Y-126333333D01*
X168095238Y-126333333D01*
X168190476Y-126380952D01*
X168238095Y-126428571D01*
X168285714Y-126523809D01*
X168285714Y-126761904D01*
X168238095Y-126857142D01*
X168190476Y-126904761D01*
X168095238Y-126952380D01*
X167857142Y-126952380D01*
X167761904Y-126904761D01*
X167714285Y-126857142D01*
X128833333Y-126952380D02*
X128500000Y-126476190D01*
X128261904Y-126952380D02*
X128261904Y-125952380D01*
X128642857Y-125952380D01*
X128738095Y-126000000D01*
X128785714Y-126047619D01*
X128833333Y-126142857D01*
X128833333Y-126285714D01*
X128785714Y-126380952D01*
X128738095Y-126428571D01*
X128642857Y-126476190D01*
X128261904Y-126476190D01*
X129738095Y-125952380D02*
X129261904Y-125952380D01*
X129214285Y-126428571D01*
X129261904Y-126380952D01*
X129357142Y-126333333D01*
X129595238Y-126333333D01*
X129690476Y-126380952D01*
X129738095Y-126428571D01*
X129785714Y-126523809D01*
X129785714Y-126761904D01*
X129738095Y-126857142D01*
X129690476Y-126904761D01*
X129595238Y-126952380D01*
X129357142Y-126952380D01*
X129261904Y-126904761D01*
X129214285Y-126857142D01*
X167333333Y-89452380D02*
X167000000Y-88976190D01*
X166761904Y-89452380D02*
X166761904Y-88452380D01*
X167142857Y-88452380D01*
X167238095Y-88500000D01*
X167285714Y-88547619D01*
X167333333Y-88642857D01*
X167333333Y-88785714D01*
X167285714Y-88880952D01*
X167238095Y-88928571D01*
X167142857Y-88976190D01*
X166761904Y-88976190D01*
X168238095Y-88452380D02*
X167761904Y-88452380D01*
X167714285Y-88928571D01*
X167761904Y-88880952D01*
X167857142Y-88833333D01*
X168095238Y-88833333D01*
X168190476Y-88880952D01*
X168238095Y-88928571D01*
X168285714Y-89023809D01*
X168285714Y-89261904D01*
X168238095Y-89357142D01*
X168190476Y-89404761D01*
X168095238Y-89452380D01*
X167857142Y-89452380D01*
X167761904Y-89404761D01*
X167714285Y-89357142D01*
X175333333Y-126952380D02*
X175000000Y-126476190D01*
X174761904Y-126952380D02*
X174761904Y-125952380D01*
X175142857Y-125952380D01*
X175238095Y-126000000D01*
X175285714Y-126047619D01*
X175333333Y-126142857D01*
X175333333Y-126285714D01*
X175285714Y-126380952D01*
X175238095Y-126428571D01*
X175142857Y-126476190D01*
X174761904Y-126476190D01*
X175666666Y-125952380D02*
X176285714Y-125952380D01*
X175952380Y-126333333D01*
X176095238Y-126333333D01*
X176190476Y-126380952D01*
X176238095Y-126428571D01*
X176285714Y-126523809D01*
X176285714Y-126761904D01*
X176238095Y-126857142D01*
X176190476Y-126904761D01*
X176095238Y-126952380D01*
X175809523Y-126952380D01*
X175714285Y-126904761D01*
X175666666Y-126857142D01*
X136833333Y-126952380D02*
X136500000Y-126476190D01*
X136261904Y-126952380D02*
X136261904Y-125952380D01*
X136642857Y-125952380D01*
X136738095Y-126000000D01*
X136785714Y-126047619D01*
X136833333Y-126142857D01*
X136833333Y-126285714D01*
X136785714Y-126380952D01*
X136738095Y-126428571D01*
X136642857Y-126476190D01*
X136261904Y-126476190D01*
X137166666Y-125952380D02*
X137785714Y-125952380D01*
X137452380Y-126333333D01*
X137595238Y-126333333D01*
X137690476Y-126380952D01*
X137738095Y-126428571D01*
X137785714Y-126523809D01*
X137785714Y-126761904D01*
X137738095Y-126857142D01*
X137690476Y-126904761D01*
X137595238Y-126952380D01*
X137309523Y-126952380D01*
X137214285Y-126904761D01*
X137166666Y-126857142D01*
X175333333Y-89452380D02*
X175000000Y-88976190D01*
X174761904Y-89452380D02*
X174761904Y-88452380D01*
X175142857Y-88452380D01*
X175238095Y-88500000D01*
X175285714Y-88547619D01*
X175333333Y-88642857D01*
X175333333Y-88785714D01*
X175285714Y-88880952D01*
X175238095Y-88928571D01*
X175142857Y-88976190D01*
X174761904Y-88976190D01*
X175666666Y-88452380D02*
X176285714Y-88452380D01*
X175952380Y-88833333D01*
X176095238Y-88833333D01*
X176190476Y-88880952D01*
X176238095Y-88928571D01*
X176285714Y-89023809D01*
X176285714Y-89261904D01*
X176238095Y-89357142D01*
X176190476Y-89404761D01*
X176095238Y-89452380D01*
X175809523Y-89452380D01*
X175714285Y-89404761D01*
X175666666Y-89357142D01*
D13*
X168952380Y-132244523D02*
X168952380Y-133272619D01*
X169012857Y-133393571D01*
X169073333Y-133454047D01*
X169194285Y-133514523D01*
X169436190Y-133514523D01*
X169557142Y-133454047D01*
X169617619Y-133393571D01*
X169678095Y-133272619D01*
X169678095Y-132244523D01*
X170948095Y-133514523D02*
X170222380Y-133514523D01*
X170585238Y-133514523D02*
X170585238Y-132244523D01*
X170464285Y-132425952D01*
X170343333Y-132546904D01*
X170222380Y-132607380D01*
X130452380Y-132244523D02*
X130452380Y-133272619D01*
X130512857Y-133393571D01*
X130573333Y-133454047D01*
X130694285Y-133514523D01*
X130936190Y-133514523D01*
X131057142Y-133454047D01*
X131117619Y-133393571D01*
X131178095Y-133272619D01*
X131178095Y-132244523D01*
X132448095Y-133514523D02*
X131722380Y-133514523D01*
X132085238Y-133514523D02*
X132085238Y-132244523D01*
X131964285Y-132425952D01*
X131843333Y-132546904D01*
X131722380Y-132607380D01*
X168952380Y-94744523D02*
X168952380Y-95772619D01*
X169012857Y-95893571D01*
X169073333Y-95954047D01*
X169194285Y-96014523D01*
X169436190Y-96014523D01*
X169557142Y-95954047D01*
X169617619Y-95893571D01*
X169678095Y-95772619D01*
X169678095Y-94744523D01*
X170948095Y-96014523D02*
X170222380Y-96014523D01*
X170585238Y-96014523D02*
X170585238Y-94744523D01*
X170464285Y-94925952D01*
X170343333Y-95046904D01*
X170222380Y-95107380D01*
D11*
X162952380Y-129666666D02*
X162476190Y-130000000D01*
X162952380Y-130238095D02*
X161952380Y-130238095D01*
X161952380Y-129857142D01*
X162000000Y-129761904D01*
X162047619Y-129714285D01*
X162142857Y-129666666D01*
X162285714Y-129666666D01*
X162380952Y-129714285D01*
X162428571Y-129761904D01*
X162476190Y-129857142D01*
X162476190Y-130238095D01*
X162952380Y-128714285D02*
X162952380Y-129285714D01*
X162952380Y-129000000D02*
X161952380Y-129000000D01*
X162095238Y-129095238D01*
X162190476Y-129190476D01*
X162238095Y-129285714D01*
X124452380Y-129666666D02*
X123976190Y-130000000D01*
X124452380Y-130238095D02*
X123452380Y-130238095D01*
X123452380Y-129857142D01*
X123500000Y-129761904D01*
X123547619Y-129714285D01*
X123642857Y-129666666D01*
X123785714Y-129666666D01*
X123880952Y-129714285D01*
X123928571Y-129761904D01*
X123976190Y-129857142D01*
X123976190Y-130238095D01*
X124452380Y-128714285D02*
X124452380Y-129285714D01*
X124452380Y-129000000D02*
X123452380Y-129000000D01*
X123595238Y-129095238D01*
X123690476Y-129190476D01*
X123738095Y-129285714D01*
X162952380Y-92166666D02*
X162476190Y-92500000D01*
X162952380Y-92738095D02*
X161952380Y-92738095D01*
X161952380Y-92357142D01*
X162000000Y-92261904D01*
X162047619Y-92214285D01*
X162142857Y-92166666D01*
X162285714Y-92166666D01*
X162380952Y-92214285D01*
X162428571Y-92261904D01*
X162476190Y-92357142D01*
X162476190Y-92738095D01*
X162952380Y-91214285D02*
X162952380Y-91785714D01*
X162952380Y-91500000D02*
X161952380Y-91500000D01*
X162095238Y-91595238D01*
X162190476Y-91690476D01*
X162238095Y-91785714D01*
X157428571Y-134666666D02*
X157476190Y-134523809D01*
X157523809Y-134476190D01*
X157619047Y-134428571D01*
X157761904Y-134428571D01*
X157857142Y-134476190D01*
X157904761Y-134523809D01*
X157952380Y-134619047D01*
X157952380Y-135000000D01*
X156952380Y-135000000D01*
X156952380Y-134666666D01*
X157000000Y-134571428D01*
X157047619Y-134523809D01*
X157142857Y-134476190D01*
X157238095Y-134476190D01*
X157333333Y-134523809D01*
X157380952Y-134571428D01*
X157428571Y-134666666D01*
X157428571Y-135000000D01*
X157666666Y-134047619D02*
X157666666Y-133571428D01*
X157952380Y-134142857D02*
X156952380Y-133809523D01*
X157952380Y-133476190D01*
X156952380Y-133285714D02*
X156952380Y-132714285D01*
X157952380Y-133000000D02*
X156952380Y-133000000D01*
X156952380Y-132523809D02*
X156952380Y-131952380D01*
X157952380Y-132238095D02*
X156952380Y-132238095D01*
X157952380Y-130857142D02*
X156952380Y-130857142D01*
X157952380Y-130380952D02*
X156952380Y-130380952D01*
X157952380Y-129809523D01*
X156952380Y-129809523D01*
X157952380Y-129333333D02*
X156952380Y-129333333D01*
X156952380Y-128952380D01*
X157000000Y-128857142D01*
X157047619Y-128809523D01*
X157142857Y-128761904D01*
X157285714Y-128761904D01*
X157380952Y-128809523D01*
X157428571Y-128857142D01*
X157476190Y-128952380D01*
X157476190Y-129333333D01*
X156952380Y-128333333D02*
X157761904Y-128333333D01*
X157857142Y-128285714D01*
X157904761Y-128238095D01*
X157952380Y-128142857D01*
X157952380Y-127952380D01*
X157904761Y-127857142D01*
X157857142Y-127809523D01*
X157761904Y-127761904D01*
X156952380Y-127761904D01*
X156952380Y-127428571D02*
X156952380Y-126857142D01*
X157952380Y-127142857D02*
X156952380Y-127142857D01*
X153607142Y-125071428D02*
X153607142Y-123928571D01*
X154178571Y-124500000D02*
X153035714Y-124500000D01*
X153607142Y-138071428D02*
X153607142Y-136928571D01*
X118928571Y-134666666D02*
X118976190Y-134523809D01*
X119023809Y-134476190D01*
X119119047Y-134428571D01*
X119261904Y-134428571D01*
X119357142Y-134476190D01*
X119404761Y-134523809D01*
X119452380Y-134619047D01*
X119452380Y-135000000D01*
X118452380Y-135000000D01*
X118452380Y-134666666D01*
X118500000Y-134571428D01*
X118547619Y-134523809D01*
X118642857Y-134476190D01*
X118738095Y-134476190D01*
X118833333Y-134523809D01*
X118880952Y-134571428D01*
X118928571Y-134666666D01*
X118928571Y-135000000D01*
X119166666Y-134047619D02*
X119166666Y-133571428D01*
X119452380Y-134142857D02*
X118452380Y-133809523D01*
X119452380Y-133476190D01*
X118452380Y-133285714D02*
X118452380Y-132714285D01*
X119452380Y-133000000D02*
X118452380Y-133000000D01*
X118452380Y-132523809D02*
X118452380Y-131952380D01*
X119452380Y-132238095D02*
X118452380Y-132238095D01*
X119452380Y-130857142D02*
X118452380Y-130857142D01*
X119452380Y-130380952D02*
X118452380Y-130380952D01*
X119452380Y-129809523D01*
X118452380Y-129809523D01*
X119452380Y-129333333D02*
X118452380Y-129333333D01*
X118452380Y-128952380D01*
X118500000Y-128857142D01*
X118547619Y-128809523D01*
X118642857Y-128761904D01*
X118785714Y-128761904D01*
X118880952Y-128809523D01*
X118928571Y-128857142D01*
X118976190Y-128952380D01*
X118976190Y-129333333D01*
X118452380Y-128333333D02*
X119261904Y-128333333D01*
X119357142Y-128285714D01*
X119404761Y-128238095D01*
X119452380Y-128142857D01*
X119452380Y-127952380D01*
X119404761Y-127857142D01*
X119357142Y-127809523D01*
X119261904Y-127761904D01*
X118452380Y-127761904D01*
X118452380Y-127428571D02*
X118452380Y-126857142D01*
X119452380Y-127142857D02*
X118452380Y-127142857D01*
X115107142Y-125071428D02*
X115107142Y-123928571D01*
X115678571Y-124500000D02*
X114535714Y-124500000D01*
X115107142Y-138071428D02*
X115107142Y-136928571D01*
X157428571Y-97166666D02*
X157476190Y-97023809D01*
X157523809Y-96976190D01*
X157619047Y-96928571D01*
X157761904Y-96928571D01*
X157857142Y-96976190D01*
X157904761Y-97023809D01*
X157952380Y-97119047D01*
X157952380Y-97500000D01*
X156952380Y-97500000D01*
X156952380Y-97166666D01*
X157000000Y-97071428D01*
X157047619Y-97023809D01*
X157142857Y-96976190D01*
X157238095Y-96976190D01*
X157333333Y-97023809D01*
X157380952Y-97071428D01*
X157428571Y-97166666D01*
X157428571Y-97500000D01*
X157666666Y-96547619D02*
X157666666Y-96071428D01*
X157952380Y-96642857D02*
X156952380Y-96309523D01*
X157952380Y-95976190D01*
X156952380Y-95785714D02*
X156952380Y-95214285D01*
X157952380Y-95500000D02*
X156952380Y-95500000D01*
X156952380Y-95023809D02*
X156952380Y-94452380D01*
X157952380Y-94738095D02*
X156952380Y-94738095D01*
X157952380Y-93357142D02*
X156952380Y-93357142D01*
X157952380Y-92880952D02*
X156952380Y-92880952D01*
X157952380Y-92309523D01*
X156952380Y-92309523D01*
X157952380Y-91833333D02*
X156952380Y-91833333D01*
X156952380Y-91452380D01*
X157000000Y-91357142D01*
X157047619Y-91309523D01*
X157142857Y-91261904D01*
X157285714Y-91261904D01*
X157380952Y-91309523D01*
X157428571Y-91357142D01*
X157476190Y-91452380D01*
X157476190Y-91833333D01*
X156952380Y-90833333D02*
X157761904Y-90833333D01*
X157857142Y-90785714D01*
X157904761Y-90738095D01*
X157952380Y-90642857D01*
X157952380Y-90452380D01*
X157904761Y-90357142D01*
X157857142Y-90309523D01*
X157761904Y-90261904D01*
X156952380Y-90261904D01*
X156952380Y-89928571D02*
X156952380Y-89357142D01*
X157952380Y-89642857D02*
X156952380Y-89642857D01*
X153607142Y-87571428D02*
X153607142Y-86428571D01*
X154178571Y-87000000D02*
X153035714Y-87000000D01*
X153607142Y-100571428D02*
X153607142Y-99428571D01*
X160107142Y-124071428D02*
X160107142Y-122928571D01*
X121607142Y-124071428D02*
X121607142Y-122928571D01*
X160107142Y-86571428D02*
X160107142Y-85428571D01*
X173107142Y-124071428D02*
X173107142Y-122928571D01*
X134607142Y-124071428D02*
X134607142Y-122928571D01*
X173107142Y-86571428D02*
X173107142Y-85428571D01*
X179357142Y-128791666D02*
X179404761Y-128839285D01*
X179452380Y-128982142D01*
X179452380Y-129077380D01*
X179404761Y-129220238D01*
X179309523Y-129315476D01*
X179214285Y-129363095D01*
X179023809Y-129410714D01*
X178880952Y-129410714D01*
X178690476Y-129363095D01*
X178595238Y-129315476D01*
X178500000Y-129220238D01*
X178452380Y-129077380D01*
X178452380Y-128982142D01*
X178500000Y-128839285D01*
X178547619Y-128791666D01*
X178547619Y-128410714D02*
X178500000Y-128363095D01*
X178452380Y-128267857D01*
X178452380Y-128029761D01*
X178500000Y-127934523D01*
X178547619Y-127886904D01*
X178642857Y-127839285D01*
X178738095Y-127839285D01*
X178880952Y-127886904D01*
X179452380Y-128458333D01*
X179452380Y-127839285D01*
X140857142Y-128791666D02*
X140904761Y-128839285D01*
X140952380Y-128982142D01*
X140952380Y-129077380D01*
X140904761Y-129220238D01*
X140809523Y-129315476D01*
X140714285Y-129363095D01*
X140523809Y-129410714D01*
X140380952Y-129410714D01*
X140190476Y-129363095D01*
X140095238Y-129315476D01*
X140000000Y-129220238D01*
X139952380Y-129077380D01*
X139952380Y-128982142D01*
X140000000Y-128839285D01*
X140047619Y-128791666D01*
X140047619Y-128410714D02*
X140000000Y-128363095D01*
X139952380Y-128267857D01*
X139952380Y-128029761D01*
X140000000Y-127934523D01*
X140047619Y-127886904D01*
X140142857Y-127839285D01*
X140238095Y-127839285D01*
X140380952Y-127886904D01*
X140952380Y-128458333D01*
X140952380Y-127839285D01*
X179357142Y-91291666D02*
X179404761Y-91339285D01*
X179452380Y-91482142D01*
X179452380Y-91577380D01*
X179404761Y-91720238D01*
X179309523Y-91815476D01*
X179214285Y-91863095D01*
X179023809Y-91910714D01*
X178880952Y-91910714D01*
X178690476Y-91863095D01*
X178595238Y-91815476D01*
X178500000Y-91720238D01*
X178452380Y-91577380D01*
X178452380Y-91482142D01*
X178500000Y-91339285D01*
X178547619Y-91291666D01*
X178547619Y-90910714D02*
X178500000Y-90863095D01*
X178452380Y-90767857D01*
X178452380Y-90529761D01*
X178500000Y-90434523D01*
X178547619Y-90386904D01*
X178642857Y-90339285D01*
X178738095Y-90339285D01*
X178880952Y-90386904D01*
X179452380Y-90958333D01*
X179452380Y-90339285D01*
X160857142Y-129666666D02*
X160904761Y-129714285D01*
X160952380Y-129857142D01*
X160952380Y-129952380D01*
X160904761Y-130095238D01*
X160809523Y-130190476D01*
X160714285Y-130238095D01*
X160523809Y-130285714D01*
X160380952Y-130285714D01*
X160190476Y-130238095D01*
X160095238Y-130190476D01*
X160000000Y-130095238D01*
X159952380Y-129952380D01*
X159952380Y-129857142D01*
X160000000Y-129714285D01*
X160047619Y-129666666D01*
X160952380Y-128714285D02*
X160952380Y-129285714D01*
X160952380Y-129000000D02*
X159952380Y-129000000D01*
X160095238Y-129095238D01*
X160190476Y-129190476D01*
X160238095Y-129285714D01*
X122357142Y-129666666D02*
X122404761Y-129714285D01*
X122452380Y-129857142D01*
X122452380Y-129952380D01*
X122404761Y-130095238D01*
X122309523Y-130190476D01*
X122214285Y-130238095D01*
X122023809Y-130285714D01*
X121880952Y-130285714D01*
X121690476Y-130238095D01*
X121595238Y-130190476D01*
X121500000Y-130095238D01*
X121452380Y-129952380D01*
X121452380Y-129857142D01*
X121500000Y-129714285D01*
X121547619Y-129666666D01*
X122452380Y-128714285D02*
X122452380Y-129285714D01*
X122452380Y-129000000D02*
X121452380Y-129000000D01*
X121595238Y-129095238D01*
X121690476Y-129190476D01*
X121738095Y-129285714D01*
X160857142Y-92166666D02*
X160904761Y-92214285D01*
X160952380Y-92357142D01*
X160952380Y-92452380D01*
X160904761Y-92595238D01*
X160809523Y-92690476D01*
X160714285Y-92738095D01*
X160523809Y-92785714D01*
X160380952Y-92785714D01*
X160190476Y-92738095D01*
X160095238Y-92690476D01*
X160000000Y-92595238D01*
X159952380Y-92452380D01*
X159952380Y-92357142D01*
X160000000Y-92214285D01*
X160047619Y-92166666D01*
X160952380Y-91214285D02*
X160952380Y-91785714D01*
X160952380Y-91500000D02*
X159952380Y-91500000D01*
X160095238Y-91595238D01*
X160190476Y-91690476D01*
X160238095Y-91785714D01*
X161333333Y-140882380D02*
X161000000Y-140406190D01*
X160761904Y-140882380D02*
X160761904Y-139882380D01*
X161142857Y-139882380D01*
X161238095Y-139930000D01*
X161285714Y-139977619D01*
X161333333Y-140072857D01*
X161333333Y-140215714D01*
X161285714Y-140310952D01*
X161238095Y-140358571D01*
X161142857Y-140406190D01*
X160761904Y-140406190D01*
X161714285Y-139977619D02*
X161761904Y-139930000D01*
X161857142Y-139882380D01*
X162095238Y-139882380D01*
X162190476Y-139930000D01*
X162238095Y-139977619D01*
X162285714Y-140072857D01*
X162285714Y-140168095D01*
X162238095Y-140310952D01*
X161666666Y-140882380D01*
X162285714Y-140882380D01*
X122833333Y-140882380D02*
X122500000Y-140406190D01*
X122261904Y-140882380D02*
X122261904Y-139882380D01*
X122642857Y-139882380D01*
X122738095Y-139930000D01*
X122785714Y-139977619D01*
X122833333Y-140072857D01*
X122833333Y-140215714D01*
X122785714Y-140310952D01*
X122738095Y-140358571D01*
X122642857Y-140406190D01*
X122261904Y-140406190D01*
X123214285Y-139977619D02*
X123261904Y-139930000D01*
X123357142Y-139882380D01*
X123595238Y-139882380D01*
X123690476Y-139930000D01*
X123738095Y-139977619D01*
X123785714Y-140072857D01*
X123785714Y-140168095D01*
X123738095Y-140310952D01*
X123166666Y-140882380D01*
X123785714Y-140882380D01*
X161333333Y-103382380D02*
X161000000Y-102906190D01*
X160761904Y-103382380D02*
X160761904Y-102382380D01*
X161142857Y-102382380D01*
X161238095Y-102430000D01*
X161285714Y-102477619D01*
X161333333Y-102572857D01*
X161333333Y-102715714D01*
X161285714Y-102810952D01*
X161238095Y-102858571D01*
X161142857Y-102906190D01*
X160761904Y-102906190D01*
X161714285Y-102477619D02*
X161761904Y-102430000D01*
X161857142Y-102382380D01*
X162095238Y-102382380D01*
X162190476Y-102430000D01*
X162238095Y-102477619D01*
X162285714Y-102572857D01*
X162285714Y-102668095D01*
X162238095Y-102810952D01*
X161666666Y-103382380D01*
X162285714Y-103382380D01*
X179607142Y-124071428D02*
X179607142Y-122928571D01*
X141107142Y-124071428D02*
X141107142Y-122928571D01*
X179607142Y-86571428D02*
X179607142Y-85428571D01*
X141107142Y-86571428D02*
X141107142Y-85428571D01*
X134607142Y-86571428D02*
X134607142Y-85428571D01*
X121607142Y-86571428D02*
X121607142Y-85428571D01*
X128107142Y-86571428D02*
X128107142Y-85428571D01*
X118928571Y-97166666D02*
X118976190Y-97023809D01*
X119023809Y-96976190D01*
X119119047Y-96928571D01*
X119261904Y-96928571D01*
X119357142Y-96976190D01*
X119404761Y-97023809D01*
X119452380Y-97119047D01*
X119452380Y-97500000D01*
X118452380Y-97500000D01*
X118452380Y-97166666D01*
X118500000Y-97071428D01*
X118547619Y-97023809D01*
X118642857Y-96976190D01*
X118738095Y-96976190D01*
X118833333Y-97023809D01*
X118880952Y-97071428D01*
X118928571Y-97166666D01*
X118928571Y-97500000D01*
X119166666Y-96547619D02*
X119166666Y-96071428D01*
X119452380Y-96642857D02*
X118452380Y-96309523D01*
X119452380Y-95976190D01*
X118452380Y-95785714D02*
X118452380Y-95214285D01*
X119452380Y-95500000D02*
X118452380Y-95500000D01*
X118452380Y-95023809D02*
X118452380Y-94452380D01*
X119452380Y-94738095D02*
X118452380Y-94738095D01*
X119452380Y-93357142D02*
X118452380Y-93357142D01*
X119452380Y-92880952D02*
X118452380Y-92880952D01*
X119452380Y-92309523D01*
X118452380Y-92309523D01*
X119452380Y-91833333D02*
X118452380Y-91833333D01*
X118452380Y-91452380D01*
X118500000Y-91357142D01*
X118547619Y-91309523D01*
X118642857Y-91261904D01*
X118785714Y-91261904D01*
X118880952Y-91309523D01*
X118928571Y-91357142D01*
X118976190Y-91452380D01*
X118976190Y-91833333D01*
X118452380Y-90833333D02*
X119261904Y-90833333D01*
X119357142Y-90785714D01*
X119404761Y-90738095D01*
X119452380Y-90642857D01*
X119452380Y-90452380D01*
X119404761Y-90357142D01*
X119357142Y-90309523D01*
X119261904Y-90261904D01*
X118452380Y-90261904D01*
X118452380Y-89928571D02*
X118452380Y-89357142D01*
X119452380Y-89642857D02*
X118452380Y-89642857D01*
X115107142Y-100571428D02*
X115107142Y-99428571D01*
X115107142Y-87571428D02*
X115107142Y-86428571D01*
X115678571Y-87000000D02*
X114535714Y-87000000D01*
D13*
X130452380Y-94744523D02*
X130452380Y-95772619D01*
X130512857Y-95893571D01*
X130573333Y-95954047D01*
X130694285Y-96014523D01*
X130936190Y-96014523D01*
X131057142Y-95954047D01*
X131117619Y-95893571D01*
X131178095Y-95772619D01*
X131178095Y-94744523D01*
X132448095Y-96014523D02*
X131722380Y-96014523D01*
X132085238Y-96014523D02*
X132085238Y-94744523D01*
X131964285Y-94925952D01*
X131843333Y-95046904D01*
X131722380Y-95107380D01*
D11*
X128833333Y-89452380D02*
X128500000Y-88976190D01*
X128261904Y-89452380D02*
X128261904Y-88452380D01*
X128642857Y-88452380D01*
X128738095Y-88500000D01*
X128785714Y-88547619D01*
X128833333Y-88642857D01*
X128833333Y-88785714D01*
X128785714Y-88880952D01*
X128738095Y-88928571D01*
X128642857Y-88976190D01*
X128261904Y-88976190D01*
X129738095Y-88452380D02*
X129261904Y-88452380D01*
X129214285Y-88928571D01*
X129261904Y-88880952D01*
X129357142Y-88833333D01*
X129595238Y-88833333D01*
X129690476Y-88880952D01*
X129738095Y-88928571D01*
X129785714Y-89023809D01*
X129785714Y-89261904D01*
X129738095Y-89357142D01*
X129690476Y-89404761D01*
X129595238Y-89452380D01*
X129357142Y-89452380D01*
X129261904Y-89404761D01*
X129214285Y-89357142D01*
X131833333Y-103452380D02*
X131500000Y-102976190D01*
X131261904Y-103452380D02*
X131261904Y-102452380D01*
X131642857Y-102452380D01*
X131738095Y-102500000D01*
X131785714Y-102547619D01*
X131833333Y-102642857D01*
X131833333Y-102785714D01*
X131785714Y-102880952D01*
X131738095Y-102928571D01*
X131642857Y-102976190D01*
X131261904Y-102976190D01*
X132690476Y-102785714D02*
X132690476Y-103452380D01*
X132452380Y-102404761D02*
X132214285Y-103119047D01*
X132833333Y-103119047D01*
X136833333Y-89452380D02*
X136500000Y-88976190D01*
X136261904Y-89452380D02*
X136261904Y-88452380D01*
X136642857Y-88452380D01*
X136738095Y-88500000D01*
X136785714Y-88547619D01*
X136833333Y-88642857D01*
X136833333Y-88785714D01*
X136785714Y-88880952D01*
X136738095Y-88928571D01*
X136642857Y-88976190D01*
X136261904Y-88976190D01*
X137166666Y-88452380D02*
X137785714Y-88452380D01*
X137452380Y-88833333D01*
X137595238Y-88833333D01*
X137690476Y-88880952D01*
X137738095Y-88928571D01*
X137785714Y-89023809D01*
X137785714Y-89261904D01*
X137738095Y-89357142D01*
X137690476Y-89404761D01*
X137595238Y-89452380D01*
X137309523Y-89452380D01*
X137214285Y-89404761D01*
X137166666Y-89357142D01*
X122833333Y-103382380D02*
X122500000Y-102906190D01*
X122261904Y-103382380D02*
X122261904Y-102382380D01*
X122642857Y-102382380D01*
X122738095Y-102430000D01*
X122785714Y-102477619D01*
X122833333Y-102572857D01*
X122833333Y-102715714D01*
X122785714Y-102810952D01*
X122738095Y-102858571D01*
X122642857Y-102906190D01*
X122261904Y-102906190D01*
X123214285Y-102477619D02*
X123261904Y-102430000D01*
X123357142Y-102382380D01*
X123595238Y-102382380D01*
X123690476Y-102430000D01*
X123738095Y-102477619D01*
X123785714Y-102572857D01*
X123785714Y-102668095D01*
X123738095Y-102810952D01*
X123166666Y-103382380D01*
X123785714Y-103382380D01*
X124452380Y-92166666D02*
X123976190Y-92500000D01*
X124452380Y-92738095D02*
X123452380Y-92738095D01*
X123452380Y-92357142D01*
X123500000Y-92261904D01*
X123547619Y-92214285D01*
X123642857Y-92166666D01*
X123785714Y-92166666D01*
X123880952Y-92214285D01*
X123928571Y-92261904D01*
X123976190Y-92357142D01*
X123976190Y-92738095D01*
X124452380Y-91214285D02*
X124452380Y-91785714D01*
X124452380Y-91500000D02*
X123452380Y-91500000D01*
X123595238Y-91595238D01*
X123690476Y-91690476D01*
X123738095Y-91785714D01*
X118036666Y-105452380D02*
X118036666Y-104452380D01*
X118417619Y-104452380D01*
X118512857Y-104500000D01*
X118560476Y-104547619D01*
X118608095Y-104642857D01*
X118608095Y-104785714D01*
X118560476Y-104880952D01*
X118512857Y-104928571D01*
X118417619Y-104976190D01*
X118036666Y-104976190D01*
X119036666Y-105452380D02*
X119036666Y-104785714D01*
X119036666Y-104452380D02*
X118989047Y-104500000D01*
X119036666Y-104547619D01*
X119084285Y-104500000D01*
X119036666Y-104452380D01*
X119036666Y-104547619D01*
X119417619Y-105452380D02*
X119941428Y-104785714D01*
X119417619Y-104785714D02*
X119941428Y-105452380D01*
X120322380Y-105452380D02*
X120322380Y-104452380D01*
X120750952Y-105452380D02*
X120750952Y-104928571D01*
X120703333Y-104833333D01*
X120608095Y-104785714D01*
X120465238Y-104785714D01*
X120370000Y-104833333D01*
X120322380Y-104880952D01*
X121655714Y-105452380D02*
X121655714Y-104928571D01*
X121608095Y-104833333D01*
X121512857Y-104785714D01*
X121322380Y-104785714D01*
X121227142Y-104833333D01*
X121655714Y-105404761D02*
X121560476Y-105452380D01*
X121322380Y-105452380D01*
X121227142Y-105404761D01*
X121179523Y-105309523D01*
X121179523Y-105214285D01*
X121227142Y-105119047D01*
X121322380Y-105071428D01*
X121560476Y-105071428D01*
X121655714Y-105023809D01*
X122036666Y-104785714D02*
X122227142Y-105452380D01*
X122417619Y-104976190D01*
X122608095Y-105452380D01*
X122798571Y-104785714D01*
X123179523Y-105452380D02*
X123179523Y-104452380D01*
X123274761Y-105071428D02*
X123560476Y-105452380D01*
X123560476Y-104785714D02*
X123179523Y-105166666D01*
X124750952Y-105452380D02*
X124750952Y-104452380D01*
X125131904Y-104452380D01*
X125227142Y-104500000D01*
X125274761Y-104547619D01*
X125322380Y-104642857D01*
X125322380Y-104785714D01*
X125274761Y-104880952D01*
X125227142Y-104928571D01*
X125131904Y-104976190D01*
X124750952Y-104976190D01*
X125893809Y-105452380D02*
X125798571Y-105404761D01*
X125750952Y-105357142D01*
X125703333Y-105261904D01*
X125703333Y-104976190D01*
X125750952Y-104880952D01*
X125798571Y-104833333D01*
X125893809Y-104785714D01*
X126036666Y-104785714D01*
X126131904Y-104833333D01*
X126179523Y-104880952D01*
X126227142Y-104976190D01*
X126227142Y-105261904D01*
X126179523Y-105357142D01*
X126131904Y-105404761D01*
X126036666Y-105452380D01*
X125893809Y-105452380D01*
X126560476Y-104785714D02*
X126750952Y-105452380D01*
X126941428Y-104976190D01*
X127131904Y-105452380D01*
X127322380Y-104785714D01*
X128084285Y-105404761D02*
X127989047Y-105452380D01*
X127798571Y-105452380D01*
X127703333Y-105404761D01*
X127655714Y-105309523D01*
X127655714Y-104928571D01*
X127703333Y-104833333D01*
X127798571Y-104785714D01*
X127989047Y-104785714D01*
X128084285Y-104833333D01*
X128131904Y-104928571D01*
X128131904Y-105023809D01*
X127655714Y-105119047D01*
X128560476Y-105452380D02*
X128560476Y-104785714D01*
X128560476Y-104976190D02*
X128608095Y-104880952D01*
X128655714Y-104833333D01*
X128750952Y-104785714D01*
X128846190Y-104785714D01*
X132136904Y-89452380D02*
X132136904Y-88452380D01*
X132375000Y-88452380D01*
X132517857Y-88500000D01*
X132613095Y-88595238D01*
X132660714Y-88690476D01*
X132708333Y-88880952D01*
X132708333Y-89023809D01*
X132660714Y-89214285D01*
X132613095Y-89309523D01*
X132517857Y-89404761D01*
X132375000Y-89452380D01*
X132136904Y-89452380D01*
X133660714Y-89452380D02*
X133089285Y-89452380D01*
X133375000Y-89452380D02*
X133375000Y-88452380D01*
X133279761Y-88595238D01*
X133184523Y-88690476D01*
X133089285Y-88738095D01*
X140857142Y-91291666D02*
X140904761Y-91339285D01*
X140952380Y-91482142D01*
X140952380Y-91577380D01*
X140904761Y-91720238D01*
X140809523Y-91815476D01*
X140714285Y-91863095D01*
X140523809Y-91910714D01*
X140380952Y-91910714D01*
X140190476Y-91863095D01*
X140095238Y-91815476D01*
X140000000Y-91720238D01*
X139952380Y-91577380D01*
X139952380Y-91482142D01*
X140000000Y-91339285D01*
X140047619Y-91291666D01*
X140047619Y-90910714D02*
X140000000Y-90863095D01*
X139952380Y-90767857D01*
X139952380Y-90529761D01*
X140000000Y-90434523D01*
X140047619Y-90386904D01*
X140142857Y-90339285D01*
X140238095Y-90339285D01*
X140380952Y-90386904D01*
X140952380Y-90958333D01*
X140952380Y-90339285D01*
X122357142Y-92166666D02*
X122404761Y-92214285D01*
X122452380Y-92357142D01*
X122452380Y-92452380D01*
X122404761Y-92595238D01*
X122309523Y-92690476D01*
X122214285Y-92738095D01*
X122023809Y-92785714D01*
X121880952Y-92785714D01*
X121690476Y-92738095D01*
X121595238Y-92690476D01*
X121500000Y-92595238D01*
X121452380Y-92452380D01*
X121452380Y-92357142D01*
X121500000Y-92214285D01*
X121547619Y-92166666D01*
X122452380Y-91214285D02*
X122452380Y-91785714D01*
X122452380Y-91500000D02*
X121452380Y-91500000D01*
X121595238Y-91595238D01*
X121690476Y-91690476D01*
X121738095Y-91785714D01*
M02*
