G04 #@! TF.GenerationSoftware,KiCad,Pcbnew,(5.1.2)-1*
G04 #@! TF.CreationDate,2020-06-07T00:30:59+09:00*
G04 #@! TF.ProjectId,universal_power_board,756e6976-6572-4736-916c-5f706f776572,rev?*
G04 #@! TF.SameCoordinates,Original*
G04 #@! TF.FileFunction,Legend,Bot*
G04 #@! TF.FilePolarity,Positive*
%FSLAX46Y46*%
G04 Gerber Fmt 4.6, Leading zero omitted, Abs format (unit mm)*
G04 Created by KiCad (PCBNEW (5.1.2)-1) date 2020-06-07 00:30:59*
%MOMM*%
%LPD*%
G04 APERTURE LIST*
%ADD10C,0.150000*%
%ADD11C,0.120000*%
G04 APERTURE END LIST*
D10*
X149952380Y-70857142D02*
X150952380Y-70523809D01*
X149952380Y-70190476D01*
X150571428Y-69857142D02*
X150571428Y-69095238D01*
X150857142Y-68047619D02*
X150904761Y-68095238D01*
X150952380Y-68238095D01*
X150952380Y-68333333D01*
X150904761Y-68476190D01*
X150809523Y-68571428D01*
X150714285Y-68619047D01*
X150523809Y-68666666D01*
X150380952Y-68666666D01*
X150190476Y-68619047D01*
X150095238Y-68571428D01*
X150000000Y-68476190D01*
X149952380Y-68333333D01*
X149952380Y-68238095D01*
X150000000Y-68095238D01*
X150047619Y-68047619D01*
X149952380Y-67619047D02*
X150761904Y-67619047D01*
X150857142Y-67571428D01*
X150904761Y-67523809D01*
X150952380Y-67428571D01*
X150952380Y-67238095D01*
X150904761Y-67142857D01*
X150857142Y-67095238D01*
X150761904Y-67047619D01*
X149952380Y-67047619D01*
X149952380Y-66714285D02*
X149952380Y-66142857D01*
X150952380Y-66428571D02*
X149952380Y-66428571D01*
X101642857Y-110952380D02*
X101976190Y-111952380D01*
X102309523Y-110952380D01*
X102642857Y-111571428D02*
X103404761Y-111571428D01*
X104452380Y-111857142D02*
X104404761Y-111904761D01*
X104261904Y-111952380D01*
X104166666Y-111952380D01*
X104023809Y-111904761D01*
X103928571Y-111809523D01*
X103880952Y-111714285D01*
X103833333Y-111523809D01*
X103833333Y-111380952D01*
X103880952Y-111190476D01*
X103928571Y-111095238D01*
X104023809Y-111000000D01*
X104166666Y-110952380D01*
X104261904Y-110952380D01*
X104404761Y-111000000D01*
X104452380Y-111047619D01*
X104880952Y-110952380D02*
X104880952Y-111761904D01*
X104928571Y-111857142D01*
X104976190Y-111904761D01*
X105071428Y-111952380D01*
X105261904Y-111952380D01*
X105357142Y-111904761D01*
X105404761Y-111857142D01*
X105452380Y-111761904D01*
X105452380Y-110952380D01*
X105785714Y-110952380D02*
X106357142Y-110952380D01*
X106071428Y-111952380D02*
X106071428Y-110952380D01*
D11*
X107500000Y-111500000D02*
X191000000Y-111500000D01*
X150500000Y-151500000D02*
X150500000Y-71500000D01*
M02*
