M48
; DRILL file {KiCad (5.1.9)-1} date 02/27/21 14:58:20
; FORMAT={-:-/ absolute / inch / decimal}
; #@! TF.CreationDate,2021-02-27T14:58:20+09:00
; #@! TF.GenerationSoftware,Kicad,Pcbnew,(5.1.9)-1
; #@! TF.FileFunction,Plated,1,2,PTH
FMAT,2
INCH
T1C0.0157
T2C0.0295
T3C0.1063
T4C0.1260
%
G90
G05
T1
X3.825Y-2.675
X3.825Y-2.75
X3.9Y-2.6
X3.9Y-2.675
X3.9Y-2.75
X3.975Y-2.525
X3.975Y-2.6
X3.975Y-2.675
X3.975Y-2.75
X3.975Y-2.825
X4.05Y-2.525
X4.05Y-2.6
X4.05Y-2.675
X4.05Y-2.75
X4.05Y-2.825
X4.125Y-2.525
X4.125Y-2.6
X4.125Y-2.675
X4.125Y-2.75
X4.125Y-2.825
X4.2Y-2.525
X4.2Y-2.6
X4.2Y-2.675
X4.2Y-2.75
X4.2Y-2.825
X4.45Y-2.95
X4.45Y-3.025
X4.45Y-3.1
X4.525Y-2.95
X4.525Y-3.025
X4.525Y-3.1
X4.6Y-2.95
X4.6Y-3.025
X4.6Y-3.1
X4.9144Y-2.675
X4.9144Y-2.75
X4.9144Y-2.825
X4.9144Y-2.9
X4.9144Y-2.975
X4.9144Y-3.05
X4.9144Y-3.125
X4.9144Y-3.2
X4.9144Y-3.275
X4.9144Y-3.35
X4.9894Y-2.675
X4.9894Y-2.75
X4.9894Y-2.825
X4.9894Y-2.9
X4.9894Y-2.975
X4.9894Y-3.05
X4.9894Y-3.125
X4.9894Y-3.2
X4.9894Y-3.275
X4.9894Y-3.35
T2
X4.325Y-3.475
X4.325Y-3.5537
X4.325Y-3.6325
X4.66Y-3.545
X4.66Y-3.6237
X4.885Y-3.545
X4.885Y-3.6237
X5.1163Y-3.03
X5.12Y-2.58
X5.12Y-2.805
X5.12Y-3.255
X5.195Y-3.03
X5.1987Y-2.58
X5.1987Y-2.805
X5.1987Y-3.255
T3
X3.8Y-2.86
X3.8Y-3.0569
X4.12Y-2.23
X4.12Y-2.4269
X4.3703Y-2.23
X4.3703Y-2.4269
X4.6203Y-2.23
X4.6203Y-2.4269
X4.8703Y-2.23
X4.8703Y-2.4269
T4
X3.797Y-2.2289
X3.797Y-3.6069
X5.175Y-2.2289
X5.175Y-3.6069
T0
M30
